<?xml version="1.0" encoding="utf-8" standalone="no"?>
<!DOCTYPE svg PUBLIC "-//W3C//DTD SVG 1.1//EN"
  "http://www.w3.org/Graphics/SVG/1.1/DTD/svg11.dtd">
<svg xmlns:xlink="http://www.w3.org/1999/xlink" width="864pt" height="360pt" viewBox="0 0 864 360" xmlns="http://www.w3.org/2000/svg" version="1.1">
 <metadata>
  <rdf:RDF xmlns:dc="http://purl.org/dc/elements/1.1/" xmlns:cc="http://creativecommons.org/ns#" xmlns:rdf="http://www.w3.org/1999/02/22-rdf-syntax-ns#">
   <cc:Work>
    <dc:type rdf:resource="http://purl.org/dc/dcmitype/StillImage"/>
    <dc:date>2024-12-08T09:22:33.295108</dc:date>
    <dc:format>image/svg+xml</dc:format>
    <dc:creator>
     <cc:Agent>
      <dc:title>Matplotlib v3.9.3, https://matplotlib.org/</dc:title>
     </cc:Agent>
    </dc:creator>
   </cc:Work>
  </rdf:RDF>
 </metadata>
 <defs>
  <style type="text/css">*{stroke-linejoin: round; stroke-linecap: butt}</style>
 </defs>
 <g id="figure_1">
  <g id="patch_1">
   <path d="M 0 360 
L 864 360 
L 864 0 
L 0 0 
L 0 360 
z
" style="fill: none; opacity: 0"/>
  </g>
  <g id="axes_1">
   <g id="patch_2">
    <path d="M 108 320.4 
L 777.6 320.4 
L 777.6 43.2 
L 108 43.2 
L 108 320.4 
z
" style="fill: none; opacity: 0"/>
   </g>
   <g id="matplotlib.axis_1">
    <g id="xtick_1">
     <g id="line2d_1">
      <path d="M 157.690511 320.4 
L 157.690511 43.2 
" clip-path="url(#pfde6ccd853)" style="fill: none; stroke-dasharray: 5.12,1.28,0.8,1.28; stroke-dashoffset: 0; stroke: #b0b0b0; stroke-width: 0.8"/>
     </g>
     <g id="line2d_2">
      <defs>
       <path id="mf7e3573f5b" d="M 0 0 
L 0 3.5 
" style="stroke: #a9a9a9; stroke-width: 0.8"/>
      </defs>
      <g>
       <use xlink:href="#mf7e3573f5b" x="157.690511" y="320.4" style="fill: #a9a9a9; stroke: #a9a9a9; stroke-width: 0.8"/>
      </g>
     </g>
     <g id="text_1">
      <!-- 2021-09 -->
      <g style="fill: #a9a9a9" transform="translate(136.799105 334.998438) scale(0.1 -0.1)">
       <defs>
        <path id="DejaVuSans-32" d="M 1228 531 
L 3431 531 
L 3431 0 
L 469 0 
L 469 531 
Q 828 903 1448 1529 
Q 2069 2156 2228 2338 
Q 2531 2678 2651 2914 
Q 2772 3150 2772 3378 
Q 2772 3750 2511 3984 
Q 2250 4219 1831 4219 
Q 1534 4219 1204 4116 
Q 875 4013 500 3803 
L 500 4441 
Q 881 4594 1212 4672 
Q 1544 4750 1819 4750 
Q 2544 4750 2975 4387 
Q 3406 4025 3406 3419 
Q 3406 3131 3298 2873 
Q 3191 2616 2906 2266 
Q 2828 2175 2409 1742 
Q 1991 1309 1228 531 
z
" transform="scale(0.015625)"/>
        <path id="DejaVuSans-30" d="M 2034 4250 
Q 1547 4250 1301 3770 
Q 1056 3291 1056 2328 
Q 1056 1369 1301 889 
Q 1547 409 2034 409 
Q 2525 409 2770 889 
Q 3016 1369 3016 2328 
Q 3016 3291 2770 3770 
Q 2525 4250 2034 4250 
z
M 2034 4750 
Q 2819 4750 3233 4129 
Q 3647 3509 3647 2328 
Q 3647 1150 3233 529 
Q 2819 -91 2034 -91 
Q 1250 -91 836 529 
Q 422 1150 422 2328 
Q 422 3509 836 4129 
Q 1250 4750 2034 4750 
z
" transform="scale(0.015625)"/>
        <path id="DejaVuSans-31" d="M 794 531 
L 1825 531 
L 1825 4091 
L 703 3866 
L 703 4441 
L 1819 4666 
L 2450 4666 
L 2450 531 
L 3481 531 
L 3481 0 
L 794 0 
L 794 531 
z
" transform="scale(0.015625)"/>
        <path id="DejaVuSans-2d" d="M 313 2009 
L 1997 2009 
L 1997 1497 
L 313 1497 
L 313 2009 
z
" transform="scale(0.015625)"/>
        <path id="DejaVuSans-39" d="M 703 97 
L 703 672 
Q 941 559 1184 500 
Q 1428 441 1663 441 
Q 2288 441 2617 861 
Q 2947 1281 2994 2138 
Q 2813 1869 2534 1725 
Q 2256 1581 1919 1581 
Q 1219 1581 811 2004 
Q 403 2428 403 3163 
Q 403 3881 828 4315 
Q 1253 4750 1959 4750 
Q 2769 4750 3195 4129 
Q 3622 3509 3622 2328 
Q 3622 1225 3098 567 
Q 2575 -91 1691 -91 
Q 1453 -91 1209 -44 
Q 966 3 703 97 
z
M 1959 2075 
Q 2384 2075 2632 2365 
Q 2881 2656 2881 3163 
Q 2881 3666 2632 3958 
Q 2384 4250 1959 4250 
Q 1534 4250 1286 3958 
Q 1038 3666 1038 3163 
Q 1038 2656 1286 2365 
Q 1534 2075 1959 2075 
z
" transform="scale(0.015625)"/>
       </defs>
       <use xlink:href="#DejaVuSans-32"/>
       <use xlink:href="#DejaVuSans-30" x="63.623047"/>
       <use xlink:href="#DejaVuSans-32" x="127.246094"/>
       <use xlink:href="#DejaVuSans-31" x="190.869141"/>
       <use xlink:href="#DejaVuSans-2d" x="254.492188"/>
       <use xlink:href="#DejaVuSans-30" x="290.576172"/>
       <use xlink:href="#DejaVuSans-39" x="354.199219"/>
      </g>
     </g>
    </g>
    <g id="xtick_2">
     <g id="line2d_3">
      <path d="M 217.921433 320.4 
L 217.921433 43.2 
" clip-path="url(#pfde6ccd853)" style="fill: none; stroke-dasharray: 5.12,1.28,0.8,1.28; stroke-dashoffset: 0; stroke: #b0b0b0; stroke-width: 0.8"/>
     </g>
     <g id="line2d_4">
      <g>
       <use xlink:href="#mf7e3573f5b" x="217.921433" y="320.4" style="fill: #a9a9a9; stroke: #a9a9a9; stroke-width: 0.8"/>
      </g>
     </g>
     <g id="text_2">
      <!-- 2022-01 -->
      <g style="fill: #a9a9a9" transform="translate(197.030027 334.998438) scale(0.1 -0.1)">
       <use xlink:href="#DejaVuSans-32"/>
       <use xlink:href="#DejaVuSans-30" x="63.623047"/>
       <use xlink:href="#DejaVuSans-32" x="127.246094"/>
       <use xlink:href="#DejaVuSans-32" x="190.869141"/>
       <use xlink:href="#DejaVuSans-2d" x="254.492188"/>
       <use xlink:href="#DejaVuSans-30" x="290.576172"/>
       <use xlink:href="#DejaVuSans-31" x="354.199219"/>
      </g>
     </g>
    </g>
    <g id="xtick_3">
     <g id="line2d_5">
      <path d="M 277.164964 320.4 
L 277.164964 43.2 
" clip-path="url(#pfde6ccd853)" style="fill: none; stroke-dasharray: 5.12,1.28,0.8,1.28; stroke-dashoffset: 0; stroke: #b0b0b0; stroke-width: 0.8"/>
     </g>
     <g id="line2d_6">
      <g>
       <use xlink:href="#mf7e3573f5b" x="277.164964" y="320.4" style="fill: #a9a9a9; stroke: #a9a9a9; stroke-width: 0.8"/>
      </g>
     </g>
     <g id="text_3">
      <!-- 2022-05 -->
      <g style="fill: #a9a9a9" transform="translate(256.273557 334.998438) scale(0.1 -0.1)">
       <defs>
        <path id="DejaVuSans-35" d="M 691 4666 
L 3169 4666 
L 3169 4134 
L 1269 4134 
L 1269 2991 
Q 1406 3038 1543 3061 
Q 1681 3084 1819 3084 
Q 2600 3084 3056 2656 
Q 3513 2228 3513 1497 
Q 3513 744 3044 326 
Q 2575 -91 1722 -91 
Q 1428 -91 1123 -41 
Q 819 9 494 109 
L 494 744 
Q 775 591 1075 516 
Q 1375 441 1709 441 
Q 2250 441 2565 725 
Q 2881 1009 2881 1497 
Q 2881 1984 2565 2268 
Q 2250 2553 1709 2553 
Q 1456 2553 1204 2497 
Q 953 2441 691 2322 
L 691 4666 
z
" transform="scale(0.015625)"/>
       </defs>
       <use xlink:href="#DejaVuSans-32"/>
       <use xlink:href="#DejaVuSans-30" x="63.623047"/>
       <use xlink:href="#DejaVuSans-32" x="127.246094"/>
       <use xlink:href="#DejaVuSans-32" x="190.869141"/>
       <use xlink:href="#DejaVuSans-2d" x="254.492188"/>
       <use xlink:href="#DejaVuSans-30" x="290.576172"/>
       <use xlink:href="#DejaVuSans-35" x="354.199219"/>
      </g>
     </g>
    </g>
    <g id="xtick_4">
     <g id="line2d_7">
      <path d="M 337.889582 320.4 
L 337.889582 43.2 
" clip-path="url(#pfde6ccd853)" style="fill: none; stroke-dasharray: 5.12,1.28,0.8,1.28; stroke-dashoffset: 0; stroke: #b0b0b0; stroke-width: 0.8"/>
     </g>
     <g id="line2d_8">
      <g>
       <use xlink:href="#mf7e3573f5b" x="337.889582" y="320.4" style="fill: #a9a9a9; stroke: #a9a9a9; stroke-width: 0.8"/>
      </g>
     </g>
     <g id="text_4">
      <!-- 2022-09 -->
      <g style="fill: #a9a9a9" transform="translate(316.998176 334.998438) scale(0.1 -0.1)">
       <use xlink:href="#DejaVuSans-32"/>
       <use xlink:href="#DejaVuSans-30" x="63.623047"/>
       <use xlink:href="#DejaVuSans-32" x="127.246094"/>
       <use xlink:href="#DejaVuSans-32" x="190.869141"/>
       <use xlink:href="#DejaVuSans-2d" x="254.492188"/>
       <use xlink:href="#DejaVuSans-30" x="290.576172"/>
       <use xlink:href="#DejaVuSans-39" x="354.199219"/>
      </g>
     </g>
    </g>
    <g id="xtick_5">
     <g id="line2d_9">
      <path d="M 398.120504 320.4 
L 398.120504 43.2 
" clip-path="url(#pfde6ccd853)" style="fill: none; stroke-dasharray: 5.12,1.28,0.8,1.28; stroke-dashoffset: 0; stroke: #b0b0b0; stroke-width: 0.8"/>
     </g>
     <g id="line2d_10">
      <g>
       <use xlink:href="#mf7e3573f5b" x="398.120504" y="320.4" style="fill: #a9a9a9; stroke: #a9a9a9; stroke-width: 0.8"/>
      </g>
     </g>
     <g id="text_5">
      <!-- 2023-01 -->
      <g style="fill: #a9a9a9" transform="translate(377.229098 334.998438) scale(0.1 -0.1)">
       <defs>
        <path id="DejaVuSans-33" d="M 2597 2516 
Q 3050 2419 3304 2112 
Q 3559 1806 3559 1356 
Q 3559 666 3084 287 
Q 2609 -91 1734 -91 
Q 1441 -91 1130 -33 
Q 819 25 488 141 
L 488 750 
Q 750 597 1062 519 
Q 1375 441 1716 441 
Q 2309 441 2620 675 
Q 2931 909 2931 1356 
Q 2931 1769 2642 2001 
Q 2353 2234 1838 2234 
L 1294 2234 
L 1294 2753 
L 1863 2753 
Q 2328 2753 2575 2939 
Q 2822 3125 2822 3475 
Q 2822 3834 2567 4026 
Q 2313 4219 1838 4219 
Q 1578 4219 1281 4162 
Q 984 4106 628 3988 
L 628 4550 
Q 988 4650 1302 4700 
Q 1616 4750 1894 4750 
Q 2613 4750 3031 4423 
Q 3450 4097 3450 3541 
Q 3450 3153 3228 2886 
Q 3006 2619 2597 2516 
z
" transform="scale(0.015625)"/>
       </defs>
       <use xlink:href="#DejaVuSans-32"/>
       <use xlink:href="#DejaVuSans-30" x="63.623047"/>
       <use xlink:href="#DejaVuSans-32" x="127.246094"/>
       <use xlink:href="#DejaVuSans-33" x="190.869141"/>
       <use xlink:href="#DejaVuSans-2d" x="254.492188"/>
       <use xlink:href="#DejaVuSans-30" x="290.576172"/>
       <use xlink:href="#DejaVuSans-31" x="354.199219"/>
      </g>
     </g>
    </g>
    <g id="xtick_6">
     <g id="line2d_11">
      <path d="M 457.364035 320.4 
L 457.364035 43.2 
" clip-path="url(#pfde6ccd853)" style="fill: none; stroke-dasharray: 5.12,1.28,0.8,1.28; stroke-dashoffset: 0; stroke: #b0b0b0; stroke-width: 0.8"/>
     </g>
     <g id="line2d_12">
      <g>
       <use xlink:href="#mf7e3573f5b" x="457.364035" y="320.4" style="fill: #a9a9a9; stroke: #a9a9a9; stroke-width: 0.8"/>
      </g>
     </g>
     <g id="text_6">
      <!-- 2023-05 -->
      <g style="fill: #a9a9a9" transform="translate(436.472628 334.998438) scale(0.1 -0.1)">
       <use xlink:href="#DejaVuSans-32"/>
       <use xlink:href="#DejaVuSans-30" x="63.623047"/>
       <use xlink:href="#DejaVuSans-32" x="127.246094"/>
       <use xlink:href="#DejaVuSans-33" x="190.869141"/>
       <use xlink:href="#DejaVuSans-2d" x="254.492188"/>
       <use xlink:href="#DejaVuSans-30" x="290.576172"/>
       <use xlink:href="#DejaVuSans-35" x="354.199219"/>
      </g>
     </g>
    </g>
    <g id="xtick_7">
     <g id="line2d_13">
      <path d="M 518.088653 320.4 
L 518.088653 43.2 
" clip-path="url(#pfde6ccd853)" style="fill: none; stroke-dasharray: 5.12,1.28,0.8,1.28; stroke-dashoffset: 0; stroke: #b0b0b0; stroke-width: 0.8"/>
     </g>
     <g id="line2d_14">
      <g>
       <use xlink:href="#mf7e3573f5b" x="518.088653" y="320.4" style="fill: #a9a9a9; stroke: #a9a9a9; stroke-width: 0.8"/>
      </g>
     </g>
     <g id="text_7">
      <!-- 2023-09 -->
      <g style="fill: #a9a9a9" transform="translate(497.197247 334.998438) scale(0.1 -0.1)">
       <use xlink:href="#DejaVuSans-32"/>
       <use xlink:href="#DejaVuSans-30" x="63.623047"/>
       <use xlink:href="#DejaVuSans-32" x="127.246094"/>
       <use xlink:href="#DejaVuSans-33" x="190.869141"/>
       <use xlink:href="#DejaVuSans-2d" x="254.492188"/>
       <use xlink:href="#DejaVuSans-30" x="290.576172"/>
       <use xlink:href="#DejaVuSans-39" x="354.199219"/>
      </g>
     </g>
    </g>
    <g id="xtick_8">
     <g id="line2d_15">
      <path d="M 578.319575 320.4 
L 578.319575 43.2 
" clip-path="url(#pfde6ccd853)" style="fill: none; stroke-dasharray: 5.12,1.28,0.8,1.28; stroke-dashoffset: 0; stroke: #b0b0b0; stroke-width: 0.8"/>
     </g>
     <g id="line2d_16">
      <g>
       <use xlink:href="#mf7e3573f5b" x="578.319575" y="320.4" style="fill: #a9a9a9; stroke: #a9a9a9; stroke-width: 0.8"/>
      </g>
     </g>
     <g id="text_8">
      <!-- 2024-01 -->
      <g style="fill: #a9a9a9" transform="translate(557.428169 334.998438) scale(0.1 -0.1)">
       <defs>
        <path id="DejaVuSans-34" d="M 2419 4116 
L 825 1625 
L 2419 1625 
L 2419 4116 
z
M 2253 4666 
L 3047 4666 
L 3047 1625 
L 3713 1625 
L 3713 1100 
L 3047 1100 
L 3047 0 
L 2419 0 
L 2419 1100 
L 313 1100 
L 313 1709 
L 2253 4666 
z
" transform="scale(0.015625)"/>
       </defs>
       <use xlink:href="#DejaVuSans-32"/>
       <use xlink:href="#DejaVuSans-30" x="63.623047"/>
       <use xlink:href="#DejaVuSans-32" x="127.246094"/>
       <use xlink:href="#DejaVuSans-34" x="190.869141"/>
       <use xlink:href="#DejaVuSans-2d" x="254.492188"/>
       <use xlink:href="#DejaVuSans-30" x="290.576172"/>
       <use xlink:href="#DejaVuSans-31" x="354.199219"/>
      </g>
     </g>
    </g>
    <g id="xtick_9">
     <g id="line2d_17">
      <path d="M 638.056802 320.4 
L 638.056802 43.2 
" clip-path="url(#pfde6ccd853)" style="fill: none; stroke-dasharray: 5.12,1.28,0.8,1.28; stroke-dashoffset: 0; stroke: #b0b0b0; stroke-width: 0.8"/>
     </g>
     <g id="line2d_18">
      <g>
       <use xlink:href="#mf7e3573f5b" x="638.056802" y="320.4" style="fill: #a9a9a9; stroke: #a9a9a9; stroke-width: 0.8"/>
      </g>
     </g>
     <g id="text_9">
      <!-- 2024-05 -->
      <g style="fill: #a9a9a9" transform="translate(617.165395 334.998438) scale(0.1 -0.1)">
       <use xlink:href="#DejaVuSans-32"/>
       <use xlink:href="#DejaVuSans-30" x="63.623047"/>
       <use xlink:href="#DejaVuSans-32" x="127.246094"/>
       <use xlink:href="#DejaVuSans-34" x="190.869141"/>
       <use xlink:href="#DejaVuSans-2d" x="254.492188"/>
       <use xlink:href="#DejaVuSans-30" x="290.576172"/>
       <use xlink:href="#DejaVuSans-35" x="354.199219"/>
      </g>
     </g>
    </g>
    <g id="xtick_10">
     <g id="line2d_19">
      <path d="M 698.78142 320.4 
L 698.78142 43.2 
" clip-path="url(#pfde6ccd853)" style="fill: none; stroke-dasharray: 5.12,1.28,0.8,1.28; stroke-dashoffset: 0; stroke: #b0b0b0; stroke-width: 0.8"/>
     </g>
     <g id="line2d_20">
      <g>
       <use xlink:href="#mf7e3573f5b" x="698.78142" y="320.4" style="fill: #a9a9a9; stroke: #a9a9a9; stroke-width: 0.8"/>
      </g>
     </g>
     <g id="text_10">
      <!-- 2024-09 -->
      <g style="fill: #a9a9a9" transform="translate(677.890014 334.998438) scale(0.1 -0.1)">
       <use xlink:href="#DejaVuSans-32"/>
       <use xlink:href="#DejaVuSans-30" x="63.623047"/>
       <use xlink:href="#DejaVuSans-32" x="127.246094"/>
       <use xlink:href="#DejaVuSans-34" x="190.869141"/>
       <use xlink:href="#DejaVuSans-2d" x="254.492188"/>
       <use xlink:href="#DejaVuSans-30" x="290.576172"/>
       <use xlink:href="#DejaVuSans-39" x="354.199219"/>
      </g>
     </g>
    </g>
    <g id="xtick_11">
     <g id="line2d_21">
      <path d="M 759.012342 320.4 
L 759.012342 43.2 
" clip-path="url(#pfde6ccd853)" style="fill: none; stroke-dasharray: 5.12,1.28,0.8,1.28; stroke-dashoffset: 0; stroke: #b0b0b0; stroke-width: 0.8"/>
     </g>
     <g id="line2d_22">
      <g>
       <use xlink:href="#mf7e3573f5b" x="759.012342" y="320.4" style="fill: #a9a9a9; stroke: #a9a9a9; stroke-width: 0.8"/>
      </g>
     </g>
     <g id="text_11">
      <!-- 2025-01 -->
      <g style="fill: #a9a9a9" transform="translate(738.120936 334.998438) scale(0.1 -0.1)">
       <use xlink:href="#DejaVuSans-32"/>
       <use xlink:href="#DejaVuSans-30" x="63.623047"/>
       <use xlink:href="#DejaVuSans-32" x="127.246094"/>
       <use xlink:href="#DejaVuSans-35" x="190.869141"/>
       <use xlink:href="#DejaVuSans-2d" x="254.492188"/>
       <use xlink:href="#DejaVuSans-30" x="290.576172"/>
       <use xlink:href="#DejaVuSans-31" x="354.199219"/>
      </g>
     </g>
    </g>
   </g>
   <g id="matplotlib.axis_2">
    <g id="ytick_1">
     <g id="line2d_23">
      <path d="M 108 307.835729 
L 777.6 307.835729 
" clip-path="url(#pfde6ccd853)" style="fill: none; stroke-dasharray: 5.12,1.28,0.8,1.28; stroke-dashoffset: 0; stroke: #b0b0b0; stroke-width: 0.8"/>
     </g>
     <g id="line2d_24">
      <defs>
       <path id="mf83eb29c53" d="M 0 0 
L -3.5 0 
" style="stroke: #a9a9a9; stroke-width: 0.8"/>
      </defs>
      <g>
       <use xlink:href="#mf83eb29c53" x="108" y="307.835729" style="fill: #a9a9a9; stroke: #a9a9a9; stroke-width: 0.8"/>
      </g>
     </g>
     <g id="text_12">
      <!-- 0 -->
      <g style="fill: #a9a9a9" transform="translate(94.6375 311.634948) scale(0.1 -0.1)">
       <use xlink:href="#DejaVuSans-30"/>
      </g>
     </g>
    </g>
    <g id="ytick_2">
     <g id="line2d_25">
      <path d="M 108 279.252148 
L 777.6 279.252148 
" clip-path="url(#pfde6ccd853)" style="fill: none; stroke-dasharray: 5.12,1.28,0.8,1.28; stroke-dashoffset: 0; stroke: #b0b0b0; stroke-width: 0.8"/>
     </g>
     <g id="line2d_26">
      <g>
       <use xlink:href="#mf83eb29c53" x="108" y="279.252148" style="fill: #a9a9a9; stroke: #a9a9a9; stroke-width: 0.8"/>
      </g>
     </g>
     <g id="text_13">
      <!-- 800 -->
      <g style="fill: #a9a9a9" transform="translate(81.9125 283.051367) scale(0.1 -0.1)">
       <defs>
        <path id="DejaVuSans-38" d="M 2034 2216 
Q 1584 2216 1326 1975 
Q 1069 1734 1069 1313 
Q 1069 891 1326 650 
Q 1584 409 2034 409 
Q 2484 409 2743 651 
Q 3003 894 3003 1313 
Q 3003 1734 2745 1975 
Q 2488 2216 2034 2216 
z
M 1403 2484 
Q 997 2584 770 2862 
Q 544 3141 544 3541 
Q 544 4100 942 4425 
Q 1341 4750 2034 4750 
Q 2731 4750 3128 4425 
Q 3525 4100 3525 3541 
Q 3525 3141 3298 2862 
Q 3072 2584 2669 2484 
Q 3125 2378 3379 2068 
Q 3634 1759 3634 1313 
Q 3634 634 3220 271 
Q 2806 -91 2034 -91 
Q 1263 -91 848 271 
Q 434 634 434 1313 
Q 434 1759 690 2068 
Q 947 2378 1403 2484 
z
M 1172 3481 
Q 1172 3119 1398 2916 
Q 1625 2713 2034 2713 
Q 2441 2713 2670 2916 
Q 2900 3119 2900 3481 
Q 2900 3844 2670 4047 
Q 2441 4250 2034 4250 
Q 1625 4250 1398 4047 
Q 1172 3844 1172 3481 
z
" transform="scale(0.015625)"/>
       </defs>
       <use xlink:href="#DejaVuSans-38"/>
       <use xlink:href="#DejaVuSans-30" x="63.623047"/>
       <use xlink:href="#DejaVuSans-30" x="127.246094"/>
      </g>
     </g>
    </g>
    <g id="ytick_3">
     <g id="line2d_27">
      <path d="M 108 250.668567 
L 777.6 250.668567 
" clip-path="url(#pfde6ccd853)" style="fill: none; stroke-dasharray: 5.12,1.28,0.8,1.28; stroke-dashoffset: 0; stroke: #b0b0b0; stroke-width: 0.8"/>
     </g>
     <g id="line2d_28">
      <g>
       <use xlink:href="#mf83eb29c53" x="108" y="250.668567" style="fill: #a9a9a9; stroke: #a9a9a9; stroke-width: 0.8"/>
      </g>
     </g>
     <g id="text_14">
      <!-- 1600 -->
      <g style="fill: #a9a9a9" transform="translate(75.55 254.467785) scale(0.1 -0.1)">
       <defs>
        <path id="DejaVuSans-36" d="M 2113 2584 
Q 1688 2584 1439 2293 
Q 1191 2003 1191 1497 
Q 1191 994 1439 701 
Q 1688 409 2113 409 
Q 2538 409 2786 701 
Q 3034 994 3034 1497 
Q 3034 2003 2786 2293 
Q 2538 2584 2113 2584 
z
M 3366 4563 
L 3366 3988 
Q 3128 4100 2886 4159 
Q 2644 4219 2406 4219 
Q 1781 4219 1451 3797 
Q 1122 3375 1075 2522 
Q 1259 2794 1537 2939 
Q 1816 3084 2150 3084 
Q 2853 3084 3261 2657 
Q 3669 2231 3669 1497 
Q 3669 778 3244 343 
Q 2819 -91 2113 -91 
Q 1303 -91 875 529 
Q 447 1150 447 2328 
Q 447 3434 972 4092 
Q 1497 4750 2381 4750 
Q 2619 4750 2861 4703 
Q 3103 4656 3366 4563 
z
" transform="scale(0.015625)"/>
       </defs>
       <use xlink:href="#DejaVuSans-31"/>
       <use xlink:href="#DejaVuSans-36" x="63.623047"/>
       <use xlink:href="#DejaVuSans-30" x="127.246094"/>
       <use xlink:href="#DejaVuSans-30" x="190.869141"/>
      </g>
     </g>
    </g>
    <g id="ytick_4">
     <g id="line2d_29">
      <path d="M 108 222.084985 
L 777.6 222.084985 
" clip-path="url(#pfde6ccd853)" style="fill: none; stroke-dasharray: 5.12,1.28,0.8,1.28; stroke-dashoffset: 0; stroke: #b0b0b0; stroke-width: 0.8"/>
     </g>
     <g id="line2d_30">
      <g>
       <use xlink:href="#mf83eb29c53" x="108" y="222.084985" style="fill: #a9a9a9; stroke: #a9a9a9; stroke-width: 0.8"/>
      </g>
     </g>
     <g id="text_15">
      <!-- 2400 -->
      <g style="fill: #a9a9a9" transform="translate(75.55 225.884204) scale(0.1 -0.1)">
       <use xlink:href="#DejaVuSans-32"/>
       <use xlink:href="#DejaVuSans-34" x="63.623047"/>
       <use xlink:href="#DejaVuSans-30" x="127.246094"/>
       <use xlink:href="#DejaVuSans-30" x="190.869141"/>
      </g>
     </g>
    </g>
    <g id="ytick_5">
     <g id="line2d_31">
      <path d="M 108 193.501404 
L 777.6 193.501404 
" clip-path="url(#pfde6ccd853)" style="fill: none; stroke-dasharray: 5.12,1.28,0.8,1.28; stroke-dashoffset: 0; stroke: #b0b0b0; stroke-width: 0.8"/>
     </g>
     <g id="line2d_32">
      <g>
       <use xlink:href="#mf83eb29c53" x="108" y="193.501404" style="fill: #a9a9a9; stroke: #a9a9a9; stroke-width: 0.8"/>
      </g>
     </g>
     <g id="text_16">
      <!-- 3200 -->
      <g style="fill: #a9a9a9" transform="translate(75.55 197.300622) scale(0.1 -0.1)">
       <use xlink:href="#DejaVuSans-33"/>
       <use xlink:href="#DejaVuSans-32" x="63.623047"/>
       <use xlink:href="#DejaVuSans-30" x="127.246094"/>
       <use xlink:href="#DejaVuSans-30" x="190.869141"/>
      </g>
     </g>
    </g>
    <g id="ytick_6">
     <g id="line2d_33">
      <path d="M 108 164.917822 
L 777.6 164.917822 
" clip-path="url(#pfde6ccd853)" style="fill: none; stroke-dasharray: 5.12,1.28,0.8,1.28; stroke-dashoffset: 0; stroke: #b0b0b0; stroke-width: 0.8"/>
     </g>
     <g id="line2d_34">
      <g>
       <use xlink:href="#mf83eb29c53" x="108" y="164.917822" style="fill: #a9a9a9; stroke: #a9a9a9; stroke-width: 0.8"/>
      </g>
     </g>
     <g id="text_17">
      <!-- 4000 -->
      <g style="fill: #a9a9a9" transform="translate(75.55 168.717041) scale(0.1 -0.1)">
       <use xlink:href="#DejaVuSans-34"/>
       <use xlink:href="#DejaVuSans-30" x="63.623047"/>
       <use xlink:href="#DejaVuSans-30" x="127.246094"/>
       <use xlink:href="#DejaVuSans-30" x="190.869141"/>
      </g>
     </g>
    </g>
    <g id="ytick_7">
     <g id="line2d_35">
      <path d="M 108 136.334241 
L 777.6 136.334241 
" clip-path="url(#pfde6ccd853)" style="fill: none; stroke-dasharray: 5.12,1.28,0.8,1.28; stroke-dashoffset: 0; stroke: #b0b0b0; stroke-width: 0.8"/>
     </g>
     <g id="line2d_36">
      <g>
       <use xlink:href="#mf83eb29c53" x="108" y="136.334241" style="fill: #a9a9a9; stroke: #a9a9a9; stroke-width: 0.8"/>
      </g>
     </g>
     <g id="text_18">
      <!-- 4800 -->
      <g style="fill: #a9a9a9" transform="translate(75.55 140.133459) scale(0.1 -0.1)">
       <use xlink:href="#DejaVuSans-34"/>
       <use xlink:href="#DejaVuSans-38" x="63.623047"/>
       <use xlink:href="#DejaVuSans-30" x="127.246094"/>
       <use xlink:href="#DejaVuSans-30" x="190.869141"/>
      </g>
     </g>
    </g>
    <g id="ytick_8">
     <g id="line2d_37">
      <path d="M 108 107.750659 
L 777.6 107.750659 
" clip-path="url(#pfde6ccd853)" style="fill: none; stroke-dasharray: 5.12,1.28,0.8,1.28; stroke-dashoffset: 0; stroke: #b0b0b0; stroke-width: 0.8"/>
     </g>
     <g id="line2d_38">
      <g>
       <use xlink:href="#mf83eb29c53" x="108" y="107.750659" style="fill: #a9a9a9; stroke: #a9a9a9; stroke-width: 0.8"/>
      </g>
     </g>
     <g id="text_19">
      <!-- 5600 -->
      <g style="fill: #a9a9a9" transform="translate(75.55 111.549878) scale(0.1 -0.1)">
       <use xlink:href="#DejaVuSans-35"/>
       <use xlink:href="#DejaVuSans-36" x="63.623047"/>
       <use xlink:href="#DejaVuSans-30" x="127.246094"/>
       <use xlink:href="#DejaVuSans-30" x="190.869141"/>
      </g>
     </g>
    </g>
    <g id="ytick_9">
     <g id="line2d_39">
      <path d="M 108 79.167078 
L 777.6 79.167078 
" clip-path="url(#pfde6ccd853)" style="fill: none; stroke-dasharray: 5.12,1.28,0.8,1.28; stroke-dashoffset: 0; stroke: #b0b0b0; stroke-width: 0.8"/>
     </g>
     <g id="line2d_40">
      <g>
       <use xlink:href="#mf83eb29c53" x="108" y="79.167078" style="fill: #a9a9a9; stroke: #a9a9a9; stroke-width: 0.8"/>
      </g>
     </g>
     <g id="text_20">
      <!-- 6400 -->
      <g style="fill: #a9a9a9" transform="translate(75.55 82.966297) scale(0.1 -0.1)">
       <use xlink:href="#DejaVuSans-36"/>
       <use xlink:href="#DejaVuSans-34" x="63.623047"/>
       <use xlink:href="#DejaVuSans-30" x="127.246094"/>
       <use xlink:href="#DejaVuSans-30" x="190.869141"/>
      </g>
     </g>
    </g>
    <g id="ytick_10">
     <g id="line2d_41">
      <path d="M 108 50.583496 
L 777.6 50.583496 
" clip-path="url(#pfde6ccd853)" style="fill: none; stroke-dasharray: 5.12,1.28,0.8,1.28; stroke-dashoffset: 0; stroke: #b0b0b0; stroke-width: 0.8"/>
     </g>
     <g id="line2d_42">
      <g>
       <use xlink:href="#mf83eb29c53" x="108" y="50.583496" style="fill: #a9a9a9; stroke: #a9a9a9; stroke-width: 0.8"/>
      </g>
     </g>
     <g id="text_21">
      <!-- 7200 -->
      <g style="fill: #a9a9a9" transform="translate(75.55 54.382715) scale(0.1 -0.1)">
       <defs>
        <path id="DejaVuSans-37" d="M 525 4666 
L 3525 4666 
L 3525 4397 
L 1831 0 
L 1172 0 
L 2766 4134 
L 525 4134 
L 525 4666 
z
" transform="scale(0.015625)"/>
       </defs>
       <use xlink:href="#DejaVuSans-37"/>
       <use xlink:href="#DejaVuSans-32" x="63.623047"/>
       <use xlink:href="#DejaVuSans-30" x="127.246094"/>
       <use xlink:href="#DejaVuSans-30" x="190.869141"/>
      </g>
     </g>
    </g>
   </g>
   <g id="line2d_43">
    <path d="M 138.436364 307.728541 
L 141.39854 307.478435 
L 141.892236 307.264058 
L 143.867021 307.013952 
L 145.841805 306.620927 
L 146.829197 306.478009 
L 149.297678 306.263632 
L 150.28507 305.870608 
L 150.778766 305.227478 
L 151.272462 304.870183 
L 151.766158 303.762569 
L 152.259854 303.69111 
L 152.75355 303.298086 
L 153.740942 302.797873 
L 155.715727 301.225776 
L 157.690511 300.26108 
L 159.171599 299.58222 
L 159.665295 298.796172 
L 160.652687 298.081582 
L 161.146384 297.867205 
L 166.083344 297.152616 
L 166.57704 296.938239 
L 170.032913 296.652403 
L 172.007697 296.18792 
L 175.957266 295.651978 
L 176.450962 295.401872 
L 176.944658 295.330413 
L 177.93205 295.008847 
L 181.387923 294.437176 
L 182.375315 294.15134 
L 186.81858 293.401021 
L 187.805972 293.186644 
L 188.793364 293.150915 
L 190.768149 292.686431 
L 191.261845 292.007571 
L 192.742933 291.4359 
L 194.224021 291.042875 
L 194.717717 290.792769 
L 195.705109 290.614122 
L 197.679894 290.04245 
L 198.667286 289.970991 
L 199.654678 289.720885 
L 201.629463 289.220672 
L 202.123159 289.184943 
L 203.110551 288.720459 
L 203.604247 288.649 
L 204.097943 288.398894 
L 209.5286 287.505657 
L 211.503384 286.933986 
L 211.99708 286.61242 
L 214.465561 285.790642 
L 215.452953 285.111782 
L 216.934041 284.825946 
L 229.770139 281.217269 
L 230.263835 281.217269 
L 230.757532 281.002892 
L 231.744924 280.895704 
L 232.23862 280.717057 
L 234.213404 280.609868 
L 235.200796 280.431221 
L 236.188188 279.931008 
L 237.669277 279.395066 
L 238.162973 279.073501 
L 239.150365 278.644747 
L 239.644061 278.394641 
L 240.631453 278.073075 
L 241.125149 277.930157 
L 242.112541 277.322756 
L 242.606238 276.786814 
L 243.59363 275.286176 
L 244.087326 275.143258 
L 244.581022 275.143258 
L 246.06211 274.285751 
L 246.555806 274.035644 
L 247.049502 273.928456 
L 247.543198 273.463973 
L 248.530591 273.070949 
L 249.517983 272.606465 
L 250.011679 271.999064 
L 250.505375 271.213016 
L 250.999071 270.89145 
L 251.492767 270.033943 
L 251.986463 269.498001 
L 254.94864 267.925904 
L 255.936032 267.139855 
L 256.429728 266.81829 
L 256.923424 266.067971 
L 257.41712 264.960357 
L 257.910816 264.210038 
L 258.404512 263.817014 
L 258.898208 263.602637 
L 262.354081 260.67282 
L 263.341473 259.493747 
L 264.328865 258.779158 
L 266.797346 257.27852 
L 267.784738 256.742578 
L 269.759522 255.706423 
L 272.228003 253.491195 
L 273.215395 253.098171 
L 274.202787 252.419311 
L 274.696483 252.133475 
L 275.190179 252.062016 
L 276.671267 251.240238 
L 277.164964 250.704296 
L 279.633444 249.382305 
L 280.12714 249.203658 
L 281.608228 248.203233 
L 289.01367 245.594981 
L 290.001062 244.701744 
L 290.988454 244.237261 
L 291.975846 243.701319 
L 292.469542 243.415483 
L 293.456934 243.129647 
L 293.95063 242.808082 
L 294.444326 242.665164 
L 295.925415 241.700468 
L 298.393895 241.128796 
L 299.874983 240.271289 
L 301.356072 239.949724 
L 301.849768 239.806806 
L 303.330856 238.699192 
L 305.30564 238.16325 
L 305.799336 237.770225 
L 308.761513 236.7698 
L 309.748905 236.591153 
L 310.736297 236.198128 
L 314.19217 234.947597 
L 315.179562 234.804679 
L 316.66065 234.304466 
L 319.129131 233.125393 
L 321.103915 232.053509 
L 325.053484 230.445683 
L 325.54718 230.374224 
L 326.534572 229.766823 
L 327.028268 229.695364 
L 329.003052 228.873586 
L 330.977837 228.623479 
L 331.965229 228.123267 
L 332.458925 227.694513 
L 332.952621 226.801276 
L 334.927405 226.265334 
L 336.408494 225.515015 
L 336.90219 225.407826 
L 340.851758 223.514164 
L 342.332847 223.228328 
L 343.320239 222.728116 
L 343.813935 222.513739 
L 344.307631 222.44228 
L 346.282415 221.549043 
L 347.763504 220.620077 
L 349.244592 220.334241 
L 351.713072 219.72684 
L 352.206768 219.333815 
L 353.687857 218.797873 
L 355.662641 218.011825 
L 356.156337 217.65453 
L 356.650033 217.475883 
L 357.637425 216.93994 
L 360.105906 216.118162 
L 361.586994 214.93909 
L 362.08069 214.831901 
L 363.068082 214.045853 
L 363.561778 213.974394 
L 364.055474 213.188345 
L 364.549171 212.973969 
L 365.042867 212.580944 
L 365.536563 212.509485 
L 366.523955 211.902084 
L 367.511347 211.580519 
L 368.005043 211.223224 
L 368.498739 211.044577 
L 369.979827 210.008422 
L 371.954612 208.972267 
L 372.448308 208.900808 
L 373.929396 208.150489 
L 374.423092 207.328711 
L 375.410484 206.614122 
L 375.90418 206.506933 
L 376.891573 205.899532 
L 377.385269 205.792344 
L 378.372661 205.292131 
L 380.347445 204.327435 
L 380.841141 203.97014 
L 381.828534 203.005444 
L 382.815926 202.398043 
L 383.309622 202.076478 
L 383.803318 201.540536 
L 385.778102 200.182816 
L 386.271798 199.611144 
L 386.765494 199.21812 
L 387.752887 198.860825 
L 388.740279 198.181965 
L 390.221367 197.431646 
L 390.715063 197.360187 
L 392.196151 196.574139 
L 393.183543 195.966738 
L 398.120504 194.180264 
L 398.6142 193.787239 
L 400.588985 193.03692 
L 401.082681 192.894003 
L 401.576377 192.500978 
L 404.044857 191.143258 
L 405.03225 189.178137 
L 406.019642 188.034794 
L 407.50073 187.284475 
L 408.488122 186.89145 
L 408.981818 186.819991 
L 409.475514 186.534156 
L 411.943995 185.748107 
L 412.437691 185.53373 
L 413.425083 184.85487 
L 414.906171 184.21174 
L 415.893563 183.675798 
L 416.387259 183.318503 
L 416.880956 183.104126 
L 417.374652 182.746831 
L 417.868348 182.210889 
L 418.85574 181.674947 
L 421.32422 180.352956 
L 424.286397 178.888048 
L 425.767485 178.459294 
L 427.248573 177.887622 
L 427.742269 177.530328 
L 428.729662 177.244492 
L 429.717054 176.851467 
L 430.21075 176.458443 
L 432.185534 175.779583 
L 433.172926 175.064994 
L 434.160319 174.63624 
L 435.147711 173.850191 
L 436.135103 173.492897 
L 436.628799 173.064143 
L 437.122495 172.992684 
L 438.109887 172.242365 
L 439.097279 171.742152 
L 439.590975 171.527775 
L 440.084672 171.027563 
L 443.540544 169.669843 
L 444.527936 169.241089 
L 446.009025 168.776606 
L 446.996417 168.633688 
L 447.490113 168.419311 
L 447.983809 168.347852 
L 448.971201 167.919098 
L 449.464897 167.883369 
L 451.439681 167.13305 
L 452.92077 166.096895 
L 453.414466 165.918248 
L 454.401858 165.382305 
L 454.895554 165.239387 
L 457.857731 163.595832 
L 458.351427 163.488643 
L 459.832515 162.631136 
L 461.313603 162.130923 
L 462.300995 161.809358 
L 464.27578 161.166227 
L 465.263172 160.844662 
L 467.237956 160.451638 
L 467.731652 160.237261 
L 468.225348 160.165802 
L 469.212741 159.737048 
L 469.706437 159.665589 
L 470.200133 159.415483 
L 471.187525 159.236835 
L 472.668613 158.700893 
L 473.656005 158.593705 
L 475.137094 158.27214 
L 477.605574 157.843386 
L 490.441672 154.12752 
L 490.935368 153.627308 
L 491.92276 153.234283 
L 495.872329 151.769375 
L 496.366025 151.483539 
L 497.847113 151.054785 
L 498.834506 150.804679 
L 499.328202 150.483114 
L 499.821898 150.375925 
L 500.315594 149.947171 
L 501.796682 149.661336 
L 502.784074 149.196852 
L 503.27777 148.625181 
L 505.252555 148.160698 
L 508.708427 147.446108 
L 509.202123 147.446108 
L 509.69582 147.231731 
L 511.670604 146.874436 
L 512.1643 146.66006 
L 514.139084 146.302765 
L 515.126476 145.874011 
L 516.113869 145.695364 
L 518.582349 145.087963 
L 520.557133 144.480561 
L 521.050829 144.373373 
L 521.544526 144.123267 
L 522.531918 143.87316 
L 523.025614 143.587325 
L 524.506702 143.087112 
L 525.000398 142.765547 
L 525.98779 142.479711 
L 526.975182 142.158145 
L 527.962575 141.765121 
L 529.443663 141.121991 
L 531.418447 140.871884 
L 535.368016 139.478435 
L 535.861712 139.12114 
L 536.355408 139.013952 
L 536.849104 138.763845 
L 537.3428 138.728116 
L 542.773457 136.834453 
L 545.241938 136.191323 
L 546.22933 135.72684 
L 547.710418 135.405274 
L 548.204114 135.01225 
L 548.69781 134.762144 
L 549.191506 134.154743 
L 549.685202 133.797448 
L 550.672595 133.511612 
L 551.166291 133.118588 
L 554.128467 132.010974 
L 554.622163 131.689409 
L 555.609555 131.403573 
L 556.103251 131.082008 
L 558.571732 130.295959 
L 560.05282 129.438452 
L 560.546516 129.331263 
L 563.014997 128.009273 
L 564.496085 127.366142 
L 564.989781 127.008847 
L 565.977173 126.687282 
L 566.964565 126.11561 
L 567.458261 125.936963 
L 567.951958 125.579668 
L 574.370007 123.328711 
L 574.863703 123.221523 
L 575.357399 122.899957 
L 577.332183 122.506933 
L 578.319575 122.113909 
L 581.281752 120.68473 
L 581.775448 120.613271 
L 583.256536 119.791493 
L 584.737624 119.29128 
L 588.193497 117.897831 
L 588.687193 117.754913 
L 589.180889 117.433348 
L 590.168281 117.326159 
L 590.661977 117.004594 
L 591.64937 116.825946 
L 592.636762 116.361463 
L 593.130458 116.147086 
L 593.624154 116.075627 
L 596.092634 115.110932 
L 597.573723 114.717907 
L 598.561115 114.467801 
L 600.042203 114.039047 
L 601.029595 113.646023 
L 603.00438 112.574139 
L 603.991772 112.181114 
L 604.485468 111.859549 
L 605.47286 111.645172 
L 605.966556 111.359336 
L 606.460252 111.252148 
L 607.94134 110.43037 
L 608.928733 110.037346 
L 610.903517 109.287027 
L 613.371997 108.465249 
L 614.35939 107.965036 
L 616.82787 107.143258 
L 619.790046 105.964185 
L 621.764831 105.070949 
L 626.701792 103.177286 
L 627.195488 102.855721 
L 629.170272 102.176861 
L 629.663968 102.176861 
L 630.65136 101.748107 
L 631.638752 100.85487 
L 632.132449 100.426117 
L 633.613537 99.711527 
L 634.107233 99.604339 
L 634.600929 99.354232 
L 635.094625 99.282773 
L 635.588321 98.925479 
L 636.082017 98.81829 
L 637.069409 98.210889 
L 638.550498 97.46057 
L 639.53789 97.067546 
L 640.031586 96.817439 
L 641.512674 96.495874 
L 643.981155 95.674096 
L 644.968547 95.352531 
L 646.449635 94.602212 
L 647.437027 94.137729 
L 648.424419 93.887622 
L 649.905508 93.208762 
L 654.348772 91.565206 
L 655.829861 90.671969 
L 656.323557 90.564781 
L 657.310949 90.064568 
L 658.298341 89.707274 
L 658.792037 89.27852 
L 659.779429 88.885496 
L 661.260518 88.278094 
L 661.754214 87.88507 
L 662.24791 87.849341 
L 663.235302 87.563505 
L 664.222694 87.24194 
L 664.71639 86.991833 
L 665.210086 86.920374 
L 666.691175 86.384432 
L 668.172263 85.84849 
L 669.159655 85.455466 
L 669.653351 85.062442 
L 671.134439 84.669417 
L 671.628135 84.383581 
L 672.615528 84.133475 
L 674.096616 83.311697 
L 674.590312 83.275968 
L 676.0714 82.811484 
L 677.058792 82.740026 
L 678.046184 82.347001 
L 681.008361 81.489494 
L 681.995753 81.453764 
L 685.945322 80.203233 
L 686.932714 79.667291 
L 687.42641 79.238537 
L 688.907498 78.381029 
L 689.894891 77.773628 
L 692.857067 76.844662 
L 693.350763 76.451638 
L 696.31294 75.236835 
L 698.287724 74.700893 
L 699.275116 74.27214 
L 699.768812 74.022033 
L 700.756204 73.736197 
L 701.2499 73.414632 
L 702.237293 73.235985 
L 704.705773 72.092641 
L 705.199469 71.806806 
L 706.680557 71.449511 
L 707.174253 71.127946 
L 707.66795 70.949298 
L 708.161646 70.520544 
L 708.655342 70.449085 
L 711.123822 69.48439 
L 712.60491 69.162824 
L 713.098607 69.091365 
L 713.592303 68.876989 
L 714.085999 68.841259 
L 715.073391 68.519694 
L 715.567087 68.483964 
L 717.048175 67.912293 
L 719.02296 67.340621 
L 720.010352 66.554573 
L 721.985136 65.482688 
L 723.466224 64.982476 
L 726.428401 63.660485 
L 727.415793 63.124543 
L 727.909489 62.874436 
L 728.403185 62.409953 
L 731.365362 61.445257 
L 732.352754 61.052233 
L 733.340146 60.766397 
L 733.833842 60.516291 
L 734.327538 60.051808 
L 736.302322 59.551595 
L 736.796019 59.1943 
L 745.188852 56.264483 
L 745.682548 56.193024 
L 746.176244 55.942918 
L 747.163636 55.8 
L 747.163636 55.8 
" clip-path="url(#pfde6ccd853)" style="fill: none; stroke: #1f77b4; stroke-width: 1.5; stroke-linecap: square"/>
   </g>
   <g id="line2d_44">
    <path d="M 138.93006 307.8 
L 143.373324 307.692812 
L 147.322893 307.514164 
L 149.297678 307.514164 
L 149.791374 307.371246 
L 152.259854 307.264058 
L 155.222031 306.942493 
L 158.184207 306.835304 
L 159.171599 306.728116 
L 162.627472 306.585198 
L 166.083344 306.478009 
L 168.551825 306.40655 
L 174.969874 306.299362 
L 177.438354 306.227903 
L 180.894227 306.120715 
L 183.362707 306.049256 
L 188.793364 305.942067 
L 190.768149 305.76342 
L 192.742933 305.72769 
L 195.705109 305.620502 
L 197.679894 305.584772 
L 200.148374 305.513313 
L 202.123159 305.334666 
L 206.566423 305.227478 
L 207.553816 305.156019 
L 209.5286 305.04883 
L 212.490776 304.941642 
L 214.465561 304.834453 
L 223.35209 304.298511 
L 226.807963 304.191323 
L 228.289051 304.048405 
L 230.757532 303.941217 
L 235.694492 303.69111 
L 240.631453 303.619651 
L 242.606238 303.405274 
L 244.581022 303.298086 
L 250.011679 302.797873 
L 253.467551 302.404849 
L 254.94864 302.33339 
L 259.391904 301.797448 
L 261.860385 301.725989 
L 263.341473 301.583071 
L 264.822561 301.475883 
L 278.646052 300.439728 
L 279.633444 300.26108 
L 282.59562 300.153892 
L 290.494758 299.689409 
L 293.95063 299.58222 
L 295.925415 299.367843 
L 298.393895 299.260655 
L 301.356072 299.153467 
L 303.824552 299.046278 
L 305.799336 299.010549 
L 308.267817 298.93909 
L 309.255209 298.796172 
L 316.166954 298.688983 
L 317.154346 298.581795 
L 323.078699 298.474607 
L 327.521964 298.26023 
L 330.977837 298.153041 
L 332.952621 297.938664 
L 336.408494 297.831476 
L 337.395886 297.652829 
L 339.864366 297.58137 
L 344.801327 297.509911 
L 347.269808 297.259804 
L 350.231984 297.152616 
L 352.206768 296.973969 
L 357.143729 296.723862 
L 362.08069 296.616674 
L 366.523955 296.402297 
L 368.005043 296.366567 
L 368.992435 296.22365 
L 371.460916 296.116461 
L 372.448308 296.045002 
L 373.4357 295.973543 
L 374.423092 295.902084 
L 378.866357 295.830625 
L 380.347445 295.723437 
L 393.67724 294.865929 
L 396.14572 294.758741 
L 398.6142 294.687282 
L 405.525946 294.580094 
L 406.513338 294.437176 
L 413.425083 294.329987 
L 418.362044 294.079881 
L 419.349436 294.044151 
L 420.336828 293.936963 
L 422.805309 293.829775 
L 425.273789 293.758316 
L 427.742269 293.651127 
L 430.21075 293.579668 
L 434.654015 293.47248 
L 437.616191 293.365291 
L 444.527936 293.258103 
L 449.958593 292.972267 
L 451.933378 292.900808 
L 453.414466 292.79362 
L 460.326211 292.686431 
L 463.288388 292.579243 
L 472.174917 292.472054 
L 474.149701 292.436325 
L 480.074054 292.364866 
L 481.061447 292.293407 
L 487.973192 292.186219 
L 489.947976 292.150489 
L 502.784074 292.043301 
L 504.265163 291.900383 
L 526.481486 291.793194 
L 528.949967 291.721735 
L 541.786065 291.614547 
L 542.773457 291.543088 
L 545.241938 291.471629 
L 546.723026 291.328711 
L 549.685202 291.221523 
L 553.141075 291.078605 
L 557.58434 290.971416 
L 560.05282 290.899957 
L 563.508693 290.792769 
L 567.458261 290.614122 
L 569.926742 290.506933 
L 571.901526 290.471204 
L 576.344791 290.364015 
L 578.319575 290.328286 
L 584.737624 290.221097 
L 586.712409 290.185368 
L 589.180889 290.078179 
L 592.143066 289.970991 
L 595.598938 289.899532 
L 596.58633 289.828073 
L 608.435036 289.720885 
L 614.853086 289.36359 
L 617.321566 289.292131 
L 618.308958 289.184943 
L 619.29635 289.113484 
L 623.245919 289.006295 
L 626.208096 288.899107 
L 631.145056 288.791918 
L 633.613537 288.541812 
L 638.550498 288.434624 
L 639.53789 288.327435 
L 644.474851 288.220247 
L 646.943331 288.148788 
L 652.373988 288.113058 
L 653.36138 288.00587 
L 658.792037 287.898681 
L 659.779429 287.827222 
L 670.640743 287.720034 
L 673.60292 287.612846 
L 681.008361 287.505657 
L 682.983145 287.469928 
L 687.42641 287.398469 
L 688.413802 287.29128 
L 694.338155 287.184092 
L 697.300332 287.076903 
L 706.186861 286.969715 
L 707.66795 286.862527 
L 709.149038 286.755338 
L 710.630126 286.64815 
L 718.035567 286.540961 
L 721.49144 286.398043 
L 734.327538 286.290855 
L 738.770803 286.076478 
L 744.20146 285.96929 
L 747.163636 285.826372 
L 747.163636 285.826372 
" clip-path="url(#pfde6ccd853)" style="fill: none; stroke: #ff7f0e; stroke-width: 1.5; stroke-linecap: square"/>
   </g>
   <g id="patch_3">
    <path d="M 108 320.4 
L 108 43.2 
" style="fill: none; stroke: #a9a9a9; stroke-width: 0.8; stroke-linejoin: miter; stroke-linecap: square"/>
   </g>
   <g id="patch_4">
    <path d="M 777.6 320.4 
L 777.6 43.2 
" style="fill: none"/>
   </g>
   <g id="patch_5">
    <path d="M 108 320.4 
L 777.6 320.4 
" style="fill: none; stroke: #a9a9a9; stroke-width: 0.8; stroke-linejoin: miter; stroke-linecap: square"/>
   </g>
   <g id="patch_6">
    <path d="M 108 43.2 
L 777.6 43.2 
" style="fill: none"/>
   </g>
   <g id="text_22">
    <!-- get_subscribe history -->
    <g style="fill: #a9a9a9" transform="translate(378.6075 37.2) scale(0.12 -0.12)">
     <defs>
      <path id="DejaVuSans-67" d="M 2906 1791 
Q 2906 2416 2648 2759 
Q 2391 3103 1925 3103 
Q 1463 3103 1205 2759 
Q 947 2416 947 1791 
Q 947 1169 1205 825 
Q 1463 481 1925 481 
Q 2391 481 2648 825 
Q 2906 1169 2906 1791 
z
M 3481 434 
Q 3481 -459 3084 -895 
Q 2688 -1331 1869 -1331 
Q 1566 -1331 1297 -1286 
Q 1028 -1241 775 -1147 
L 775 -588 
Q 1028 -725 1275 -790 
Q 1522 -856 1778 -856 
Q 2344 -856 2625 -561 
Q 2906 -266 2906 331 
L 2906 616 
Q 2728 306 2450 153 
Q 2172 0 1784 0 
Q 1141 0 747 490 
Q 353 981 353 1791 
Q 353 2603 747 3093 
Q 1141 3584 1784 3584 
Q 2172 3584 2450 3431 
Q 2728 3278 2906 2969 
L 2906 3500 
L 3481 3500 
L 3481 434 
z
" transform="scale(0.015625)"/>
      <path id="DejaVuSans-65" d="M 3597 1894 
L 3597 1613 
L 953 1613 
Q 991 1019 1311 708 
Q 1631 397 2203 397 
Q 2534 397 2845 478 
Q 3156 559 3463 722 
L 3463 178 
Q 3153 47 2828 -22 
Q 2503 -91 2169 -91 
Q 1331 -91 842 396 
Q 353 884 353 1716 
Q 353 2575 817 3079 
Q 1281 3584 2069 3584 
Q 2775 3584 3186 3129 
Q 3597 2675 3597 1894 
z
M 3022 2063 
Q 3016 2534 2758 2815 
Q 2500 3097 2075 3097 
Q 1594 3097 1305 2825 
Q 1016 2553 972 2059 
L 3022 2063 
z
" transform="scale(0.015625)"/>
      <path id="DejaVuSans-74" d="M 1172 4494 
L 1172 3500 
L 2356 3500 
L 2356 3053 
L 1172 3053 
L 1172 1153 
Q 1172 725 1289 603 
Q 1406 481 1766 481 
L 2356 481 
L 2356 0 
L 1766 0 
Q 1100 0 847 248 
Q 594 497 594 1153 
L 594 3053 
L 172 3053 
L 172 3500 
L 594 3500 
L 594 4494 
L 1172 4494 
z
" transform="scale(0.015625)"/>
      <path id="DejaVuSans-5f" d="M 3263 -1063 
L 3263 -1509 
L -63 -1509 
L -63 -1063 
L 3263 -1063 
z
" transform="scale(0.015625)"/>
      <path id="DejaVuSans-73" d="M 2834 3397 
L 2834 2853 
Q 2591 2978 2328 3040 
Q 2066 3103 1784 3103 
Q 1356 3103 1142 2972 
Q 928 2841 928 2578 
Q 928 2378 1081 2264 
Q 1234 2150 1697 2047 
L 1894 2003 
Q 2506 1872 2764 1633 
Q 3022 1394 3022 966 
Q 3022 478 2636 193 
Q 2250 -91 1575 -91 
Q 1294 -91 989 -36 
Q 684 19 347 128 
L 347 722 
Q 666 556 975 473 
Q 1284 391 1588 391 
Q 1994 391 2212 530 
Q 2431 669 2431 922 
Q 2431 1156 2273 1281 
Q 2116 1406 1581 1522 
L 1381 1569 
Q 847 1681 609 1914 
Q 372 2147 372 2553 
Q 372 3047 722 3315 
Q 1072 3584 1716 3584 
Q 2034 3584 2315 3537 
Q 2597 3491 2834 3397 
z
" transform="scale(0.015625)"/>
      <path id="DejaVuSans-75" d="M 544 1381 
L 544 3500 
L 1119 3500 
L 1119 1403 
Q 1119 906 1312 657 
Q 1506 409 1894 409 
Q 2359 409 2629 706 
Q 2900 1003 2900 1516 
L 2900 3500 
L 3475 3500 
L 3475 0 
L 2900 0 
L 2900 538 
Q 2691 219 2414 64 
Q 2138 -91 1772 -91 
Q 1169 -91 856 284 
Q 544 659 544 1381 
z
M 1991 3584 
L 1991 3584 
z
" transform="scale(0.015625)"/>
      <path id="DejaVuSans-62" d="M 3116 1747 
Q 3116 2381 2855 2742 
Q 2594 3103 2138 3103 
Q 1681 3103 1420 2742 
Q 1159 2381 1159 1747 
Q 1159 1113 1420 752 
Q 1681 391 2138 391 
Q 2594 391 2855 752 
Q 3116 1113 3116 1747 
z
M 1159 2969 
Q 1341 3281 1617 3432 
Q 1894 3584 2278 3584 
Q 2916 3584 3314 3078 
Q 3713 2572 3713 1747 
Q 3713 922 3314 415 
Q 2916 -91 2278 -91 
Q 1894 -91 1617 61 
Q 1341 213 1159 525 
L 1159 0 
L 581 0 
L 581 4863 
L 1159 4863 
L 1159 2969 
z
" transform="scale(0.015625)"/>
      <path id="DejaVuSans-63" d="M 3122 3366 
L 3122 2828 
Q 2878 2963 2633 3030 
Q 2388 3097 2138 3097 
Q 1578 3097 1268 2742 
Q 959 2388 959 1747 
Q 959 1106 1268 751 
Q 1578 397 2138 397 
Q 2388 397 2633 464 
Q 2878 531 3122 666 
L 3122 134 
Q 2881 22 2623 -34 
Q 2366 -91 2075 -91 
Q 1284 -91 818 406 
Q 353 903 353 1747 
Q 353 2603 823 3093 
Q 1294 3584 2113 3584 
Q 2378 3584 2631 3529 
Q 2884 3475 3122 3366 
z
" transform="scale(0.015625)"/>
      <path id="DejaVuSans-72" d="M 2631 2963 
Q 2534 3019 2420 3045 
Q 2306 3072 2169 3072 
Q 1681 3072 1420 2755 
Q 1159 2438 1159 1844 
L 1159 0 
L 581 0 
L 581 3500 
L 1159 3500 
L 1159 2956 
Q 1341 3275 1631 3429 
Q 1922 3584 2338 3584 
Q 2397 3584 2469 3576 
Q 2541 3569 2628 3553 
L 2631 2963 
z
" transform="scale(0.015625)"/>
      <path id="DejaVuSans-69" d="M 603 3500 
L 1178 3500 
L 1178 0 
L 603 0 
L 603 3500 
z
M 603 4863 
L 1178 4863 
L 1178 4134 
L 603 4134 
L 603 4863 
z
" transform="scale(0.015625)"/>
      <path id="DejaVuSans-20" transform="scale(0.015625)"/>
      <path id="DejaVuSans-68" d="M 3513 2113 
L 3513 0 
L 2938 0 
L 2938 2094 
Q 2938 2591 2744 2837 
Q 2550 3084 2163 3084 
Q 1697 3084 1428 2787 
Q 1159 2491 1159 1978 
L 1159 0 
L 581 0 
L 581 4863 
L 1159 4863 
L 1159 2956 
Q 1366 3272 1645 3428 
Q 1925 3584 2291 3584 
Q 2894 3584 3203 3211 
Q 3513 2838 3513 2113 
z
" transform="scale(0.015625)"/>
      <path id="DejaVuSans-6f" d="M 1959 3097 
Q 1497 3097 1228 2736 
Q 959 2375 959 1747 
Q 959 1119 1226 758 
Q 1494 397 1959 397 
Q 2419 397 2687 759 
Q 2956 1122 2956 1747 
Q 2956 2369 2687 2733 
Q 2419 3097 1959 3097 
z
M 1959 3584 
Q 2709 3584 3137 3096 
Q 3566 2609 3566 1747 
Q 3566 888 3137 398 
Q 2709 -91 1959 -91 
Q 1206 -91 779 398 
Q 353 888 353 1747 
Q 353 2609 779 3096 
Q 1206 3584 1959 3584 
z
" transform="scale(0.015625)"/>
      <path id="DejaVuSans-79" d="M 2059 -325 
Q 1816 -950 1584 -1140 
Q 1353 -1331 966 -1331 
L 506 -1331 
L 506 -850 
L 844 -850 
Q 1081 -850 1212 -737 
Q 1344 -625 1503 -206 
L 1606 56 
L 191 3500 
L 800 3500 
L 1894 763 
L 2988 3500 
L 3597 3500 
L 2059 -325 
z
" transform="scale(0.015625)"/>
     </defs>
     <use xlink:href="#DejaVuSans-67"/>
     <use xlink:href="#DejaVuSans-65" x="63.476562"/>
     <use xlink:href="#DejaVuSans-74" x="125"/>
     <use xlink:href="#DejaVuSans-5f" x="164.208984"/>
     <use xlink:href="#DejaVuSans-73" x="214.208984"/>
     <use xlink:href="#DejaVuSans-75" x="266.308594"/>
     <use xlink:href="#DejaVuSans-62" x="329.6875"/>
     <use xlink:href="#DejaVuSans-73" x="393.164062"/>
     <use xlink:href="#DejaVuSans-63" x="445.263672"/>
     <use xlink:href="#DejaVuSans-72" x="500.244141"/>
     <use xlink:href="#DejaVuSans-69" x="541.357422"/>
     <use xlink:href="#DejaVuSans-62" x="569.140625"/>
     <use xlink:href="#DejaVuSans-65" x="632.617188"/>
     <use xlink:href="#DejaVuSans-20" x="694.140625"/>
     <use xlink:href="#DejaVuSans-68" x="725.927734"/>
     <use xlink:href="#DejaVuSans-69" x="789.306641"/>
     <use xlink:href="#DejaVuSans-73" x="817.089844"/>
     <use xlink:href="#DejaVuSans-74" x="869.189453"/>
     <use xlink:href="#DejaVuSans-6f" x="908.398438"/>
     <use xlink:href="#DejaVuSans-72" x="969.580078"/>
     <use xlink:href="#DejaVuSans-79" x="1010.693359"/>
    </g>
   </g>
   <g id="legend_1">
    <g id="line2d_45">
     <path d="M 815.08 328.498438 
L 825.08 328.498438 
L 835.08 328.498438 
" style="fill: none; stroke: #1f77b4; stroke-width: 1.5; stroke-linecap: square"/>
    </g>
    <g id="text_23">
     <!-- star -->
     <g style="fill: #a9a9a9" transform="translate(843.08 331.998438) scale(0.1 -0.1)">
      <defs>
       <path id="DejaVuSans-61" d="M 2194 1759 
Q 1497 1759 1228 1600 
Q 959 1441 959 1056 
Q 959 750 1161 570 
Q 1363 391 1709 391 
Q 2188 391 2477 730 
Q 2766 1069 2766 1631 
L 2766 1759 
L 2194 1759 
z
M 3341 1997 
L 3341 0 
L 2766 0 
L 2766 531 
Q 2569 213 2275 61 
Q 1981 -91 1556 -91 
Q 1019 -91 701 211 
Q 384 513 384 1019 
Q 384 1609 779 1909 
Q 1175 2209 1959 2209 
L 2766 2209 
L 2766 2266 
Q 2766 2663 2505 2880 
Q 2244 3097 1772 3097 
Q 1472 3097 1187 3025 
Q 903 2953 641 2809 
L 641 3341 
Q 956 3463 1253 3523 
Q 1550 3584 1831 3584 
Q 2591 3584 2966 3190 
Q 3341 2797 3341 1997 
z
" transform="scale(0.015625)"/>
      </defs>
      <use xlink:href="#DejaVuSans-73"/>
      <use xlink:href="#DejaVuSans-74" x="52.099609"/>
      <use xlink:href="#DejaVuSans-61" x="91.308594"/>
      <use xlink:href="#DejaVuSans-72" x="152.587891"/>
     </g>
    </g>
    <g id="line2d_46">
     <path d="M 815.08 343.176562 
L 825.08 343.176562 
L 835.08 343.176562 
" style="fill: none; stroke: #ff7f0e; stroke-width: 1.5; stroke-linecap: square"/>
    </g>
    <g id="text_24">
     <!-- fork -->
     <g style="fill: #a9a9a9" transform="translate(843.08 346.676562) scale(0.1 -0.1)">
      <defs>
       <path id="DejaVuSans-66" d="M 2375 4863 
L 2375 4384 
L 1825 4384 
Q 1516 4384 1395 4259 
Q 1275 4134 1275 3809 
L 1275 3500 
L 2222 3500 
L 2222 3053 
L 1275 3053 
L 1275 0 
L 697 0 
L 697 3053 
L 147 3053 
L 147 3500 
L 697 3500 
L 697 3744 
Q 697 4328 969 4595 
Q 1241 4863 1831 4863 
L 2375 4863 
z
" transform="scale(0.015625)"/>
       <path id="DejaVuSans-6b" d="M 581 4863 
L 1159 4863 
L 1159 1991 
L 2875 3500 
L 3609 3500 
L 1753 1863 
L 3688 0 
L 2938 0 
L 1159 1709 
L 1159 0 
L 581 0 
L 581 4863 
z
" transform="scale(0.015625)"/>
      </defs>
      <use xlink:href="#DejaVuSans-66"/>
      <use xlink:href="#DejaVuSans-6f" x="35.205078"/>
      <use xlink:href="#DejaVuSans-72" x="96.386719"/>
      <use xlink:href="#DejaVuSans-6b" x="137.5"/>
     </g>
    </g>
   </g>
  </g>
 </g>
 <defs>
  <clipPath id="pfde6ccd853">
   <rect x="108" y="43.2" width="669.6" height="277.2"/>
  </clipPath>
 </defs>
</svg>
