<?xml version="1.0" encoding="utf-8" standalone="no"?>
<!DOCTYPE svg PUBLIC "-//W3C//DTD SVG 1.1//EN"
  "http://www.w3.org/Graphics/SVG/1.1/DTD/svg11.dtd">
<svg xmlns:xlink="http://www.w3.org/1999/xlink" width="864pt" height="360pt" viewBox="0 0 864 360" xmlns="http://www.w3.org/2000/svg" version="1.1">
 <metadata>
  <rdf:RDF xmlns:dc="http://purl.org/dc/elements/1.1/" xmlns:cc="http://creativecommons.org/ns#" xmlns:rdf="http://www.w3.org/1999/02/22-rdf-syntax-ns#">
   <cc:Work>
    <dc:type rdf:resource="http://purl.org/dc/dcmitype/StillImage"/>
    <dc:date>2024-12-19T14:23:03.942986</dc:date>
    <dc:format>image/svg+xml</dc:format>
    <dc:creator>
     <cc:Agent>
      <dc:title>Matplotlib v3.10.0, https://matplotlib.org/</dc:title>
     </cc:Agent>
    </dc:creator>
   </cc:Work>
  </rdf:RDF>
 </metadata>
 <defs>
  <style type="text/css">*{stroke-linejoin: round; stroke-linecap: butt}</style>
 </defs>
 <g id="figure_1">
  <g id="patch_1">
   <path d="M 0 360 
L 864 360 
L 864 0 
L 0 0 
L 0 360 
z
" style="fill: none; opacity: 0"/>
  </g>
  <g id="axes_1">
   <g id="patch_2">
    <path d="M 108 320.4 
L 777.6 320.4 
L 777.6 43.2 
L 108 43.2 
L 108 320.4 
z
" style="fill: none; opacity: 0"/>
   </g>
   <g id="matplotlib.axis_1">
    <g id="xtick_1">
     <g id="line2d_1">
      <path d="M 157.520257 320.4 
L 157.520257 43.2 
" clip-path="url(#p58ba9d902f)" style="fill: none; stroke-dasharray: 5.12,1.28,0.8,1.28; stroke-dashoffset: 0; stroke: #b0b0b0; stroke-width: 0.8"/>
     </g>
     <g id="line2d_2">
      <defs>
       <path id="m829e064e7e" d="M 0 0 
L 0 3.5 
" style="stroke: #a9a9a9; stroke-width: 0.8"/>
      </defs>
      <g>
       <use xlink:href="#m829e064e7e" x="157.520257" y="320.4" style="fill: #a9a9a9; stroke: #a9a9a9; stroke-width: 0.8"/>
      </g>
     </g>
     <g id="text_1">
      <!-- 2021-09 -->
      <g style="fill: #a9a9a9" transform="translate(136.628851 334.998438) scale(0.1 -0.1)">
       <defs>
        <path id="DejaVuSans-32" d="M 1228 531 
L 3431 531 
L 3431 0 
L 469 0 
L 469 531 
Q 828 903 1448 1529 
Q 2069 2156 2228 2338 
Q 2531 2678 2651 2914 
Q 2772 3150 2772 3378 
Q 2772 3750 2511 3984 
Q 2250 4219 1831 4219 
Q 1534 4219 1204 4116 
Q 875 4013 500 3803 
L 500 4441 
Q 881 4594 1212 4672 
Q 1544 4750 1819 4750 
Q 2544 4750 2975 4387 
Q 3406 4025 3406 3419 
Q 3406 3131 3298 2873 
Q 3191 2616 2906 2266 
Q 2828 2175 2409 1742 
Q 1991 1309 1228 531 
z
" transform="scale(0.015625)"/>
        <path id="DejaVuSans-30" d="M 2034 4250 
Q 1547 4250 1301 3770 
Q 1056 3291 1056 2328 
Q 1056 1369 1301 889 
Q 1547 409 2034 409 
Q 2525 409 2770 889 
Q 3016 1369 3016 2328 
Q 3016 3291 2770 3770 
Q 2525 4250 2034 4250 
z
M 2034 4750 
Q 2819 4750 3233 4129 
Q 3647 3509 3647 2328 
Q 3647 1150 3233 529 
Q 2819 -91 2034 -91 
Q 1250 -91 836 529 
Q 422 1150 422 2328 
Q 422 3509 836 4129 
Q 1250 4750 2034 4750 
z
" transform="scale(0.015625)"/>
        <path id="DejaVuSans-31" d="M 794 531 
L 1825 531 
L 1825 4091 
L 703 3866 
L 703 4441 
L 1819 4666 
L 2450 4666 
L 2450 531 
L 3481 531 
L 3481 0 
L 794 0 
L 794 531 
z
" transform="scale(0.015625)"/>
        <path id="DejaVuSans-2d" d="M 313 2009 
L 1997 2009 
L 1997 1497 
L 313 1497 
L 313 2009 
z
" transform="scale(0.015625)"/>
        <path id="DejaVuSans-39" d="M 703 97 
L 703 672 
Q 941 559 1184 500 
Q 1428 441 1663 441 
Q 2288 441 2617 861 
Q 2947 1281 2994 2138 
Q 2813 1869 2534 1725 
Q 2256 1581 1919 1581 
Q 1219 1581 811 2004 
Q 403 2428 403 3163 
Q 403 3881 828 4315 
Q 1253 4750 1959 4750 
Q 2769 4750 3195 4129 
Q 3622 3509 3622 2328 
Q 3622 1225 3098 567 
Q 2575 -91 1691 -91 
Q 1453 -91 1209 -44 
Q 966 3 703 97 
z
M 1959 2075 
Q 2384 2075 2632 2365 
Q 2881 2656 2881 3163 
Q 2881 3666 2632 3958 
Q 2384 4250 1959 4250 
Q 1534 4250 1286 3958 
Q 1038 3666 1038 3163 
Q 1038 2656 1286 2365 
Q 1534 2075 1959 2075 
z
" transform="scale(0.015625)"/>
       </defs>
       <use xlink:href="#DejaVuSans-32"/>
       <use xlink:href="#DejaVuSans-30" transform="translate(63.623047 0)"/>
       <use xlink:href="#DejaVuSans-32" transform="translate(127.246094 0)"/>
       <use xlink:href="#DejaVuSans-31" transform="translate(190.869141 0)"/>
       <use xlink:href="#DejaVuSans-2d" transform="translate(254.492188 0)"/>
       <use xlink:href="#DejaVuSans-30" transform="translate(290.576172 0)"/>
       <use xlink:href="#DejaVuSans-39" transform="translate(354.199219 0)"/>
      </g>
     </g>
    </g>
    <g id="xtick_2">
     <g id="line2d_3">
      <path d="M 217.218591 320.4 
L 217.218591 43.2 
" clip-path="url(#p58ba9d902f)" style="fill: none; stroke-dasharray: 5.12,1.28,0.8,1.28; stroke-dashoffset: 0; stroke: #b0b0b0; stroke-width: 0.8"/>
     </g>
     <g id="line2d_4">
      <g>
       <use xlink:href="#m829e064e7e" x="217.218591" y="320.4" style="fill: #a9a9a9; stroke: #a9a9a9; stroke-width: 0.8"/>
      </g>
     </g>
     <g id="text_2">
      <!-- 2022-01 -->
      <g style="fill: #a9a9a9" transform="translate(196.327185 334.998438) scale(0.1 -0.1)">
       <use xlink:href="#DejaVuSans-32"/>
       <use xlink:href="#DejaVuSans-30" transform="translate(63.623047 0)"/>
       <use xlink:href="#DejaVuSans-32" transform="translate(127.246094 0)"/>
       <use xlink:href="#DejaVuSans-32" transform="translate(190.869141 0)"/>
       <use xlink:href="#DejaVuSans-2d" transform="translate(254.492188 0)"/>
       <use xlink:href="#DejaVuSans-30" transform="translate(290.576172 0)"/>
       <use xlink:href="#DejaVuSans-31" transform="translate(354.199219 0)"/>
      </g>
     </g>
    </g>
    <g id="xtick_3">
     <g id="line2d_5">
      <path d="M 275.938264 320.4 
L 275.938264 43.2 
" clip-path="url(#p58ba9d902f)" style="fill: none; stroke-dasharray: 5.12,1.28,0.8,1.28; stroke-dashoffset: 0; stroke: #b0b0b0; stroke-width: 0.8"/>
     </g>
     <g id="line2d_6">
      <g>
       <use xlink:href="#m829e064e7e" x="275.938264" y="320.4" style="fill: #a9a9a9; stroke: #a9a9a9; stroke-width: 0.8"/>
      </g>
     </g>
     <g id="text_3">
      <!-- 2022-05 -->
      <g style="fill: #a9a9a9" transform="translate(255.046857 334.998438) scale(0.1 -0.1)">
       <defs>
        <path id="DejaVuSans-35" d="M 691 4666 
L 3169 4666 
L 3169 4134 
L 1269 4134 
L 1269 2991 
Q 1406 3038 1543 3061 
Q 1681 3084 1819 3084 
Q 2600 3084 3056 2656 
Q 3513 2228 3513 1497 
Q 3513 744 3044 326 
Q 2575 -91 1722 -91 
Q 1428 -91 1123 -41 
Q 819 9 494 109 
L 494 744 
Q 775 591 1075 516 
Q 1375 441 1709 441 
Q 2250 441 2565 725 
Q 2881 1009 2881 1497 
Q 2881 1984 2565 2268 
Q 2250 2553 1709 2553 
Q 1456 2553 1204 2497 
Q 953 2441 691 2322 
L 691 4666 
z
" transform="scale(0.015625)"/>
       </defs>
       <use xlink:href="#DejaVuSans-32"/>
       <use xlink:href="#DejaVuSans-30" transform="translate(63.623047 0)"/>
       <use xlink:href="#DejaVuSans-32" transform="translate(127.246094 0)"/>
       <use xlink:href="#DejaVuSans-32" transform="translate(190.869141 0)"/>
       <use xlink:href="#DejaVuSans-2d" transform="translate(254.492188 0)"/>
       <use xlink:href="#DejaVuSans-30" transform="translate(290.576172 0)"/>
       <use xlink:href="#DejaVuSans-35" transform="translate(354.199219 0)"/>
      </g>
     </g>
    </g>
    <g id="xtick_4">
     <g id="line2d_7">
      <path d="M 336.125928 320.4 
L 336.125928 43.2 
" clip-path="url(#p58ba9d902f)" style="fill: none; stroke-dasharray: 5.12,1.28,0.8,1.28; stroke-dashoffset: 0; stroke: #b0b0b0; stroke-width: 0.8"/>
     </g>
     <g id="line2d_8">
      <g>
       <use xlink:href="#m829e064e7e" x="336.125928" y="320.4" style="fill: #a9a9a9; stroke: #a9a9a9; stroke-width: 0.8"/>
      </g>
     </g>
     <g id="text_4">
      <!-- 2022-09 -->
      <g style="fill: #a9a9a9" transform="translate(315.234522 334.998438) scale(0.1 -0.1)">
       <use xlink:href="#DejaVuSans-32"/>
       <use xlink:href="#DejaVuSans-30" transform="translate(63.623047 0)"/>
       <use xlink:href="#DejaVuSans-32" transform="translate(127.246094 0)"/>
       <use xlink:href="#DejaVuSans-32" transform="translate(190.869141 0)"/>
       <use xlink:href="#DejaVuSans-2d" transform="translate(254.492188 0)"/>
       <use xlink:href="#DejaVuSans-30" transform="translate(290.576172 0)"/>
       <use xlink:href="#DejaVuSans-39" transform="translate(354.199219 0)"/>
      </g>
     </g>
    </g>
    <g id="xtick_5">
     <g id="line2d_9">
      <path d="M 395.824262 320.4 
L 395.824262 43.2 
" clip-path="url(#p58ba9d902f)" style="fill: none; stroke-dasharray: 5.12,1.28,0.8,1.28; stroke-dashoffset: 0; stroke: #b0b0b0; stroke-width: 0.8"/>
     </g>
     <g id="line2d_10">
      <g>
       <use xlink:href="#m829e064e7e" x="395.824262" y="320.4" style="fill: #a9a9a9; stroke: #a9a9a9; stroke-width: 0.8"/>
      </g>
     </g>
     <g id="text_5">
      <!-- 2023-01 -->
      <g style="fill: #a9a9a9" transform="translate(374.932856 334.998438) scale(0.1 -0.1)">
       <defs>
        <path id="DejaVuSans-33" d="M 2597 2516 
Q 3050 2419 3304 2112 
Q 3559 1806 3559 1356 
Q 3559 666 3084 287 
Q 2609 -91 1734 -91 
Q 1441 -91 1130 -33 
Q 819 25 488 141 
L 488 750 
Q 750 597 1062 519 
Q 1375 441 1716 441 
Q 2309 441 2620 675 
Q 2931 909 2931 1356 
Q 2931 1769 2642 2001 
Q 2353 2234 1838 2234 
L 1294 2234 
L 1294 2753 
L 1863 2753 
Q 2328 2753 2575 2939 
Q 2822 3125 2822 3475 
Q 2822 3834 2567 4026 
Q 2313 4219 1838 4219 
Q 1578 4219 1281 4162 
Q 984 4106 628 3988 
L 628 4550 
Q 988 4650 1302 4700 
Q 1616 4750 1894 4750 
Q 2613 4750 3031 4423 
Q 3450 4097 3450 3541 
Q 3450 3153 3228 2886 
Q 3006 2619 2597 2516 
z
" transform="scale(0.015625)"/>
       </defs>
       <use xlink:href="#DejaVuSans-32"/>
       <use xlink:href="#DejaVuSans-30" transform="translate(63.623047 0)"/>
       <use xlink:href="#DejaVuSans-32" transform="translate(127.246094 0)"/>
       <use xlink:href="#DejaVuSans-33" transform="translate(190.869141 0)"/>
       <use xlink:href="#DejaVuSans-2d" transform="translate(254.492188 0)"/>
       <use xlink:href="#DejaVuSans-30" transform="translate(290.576172 0)"/>
       <use xlink:href="#DejaVuSans-31" transform="translate(354.199219 0)"/>
      </g>
     </g>
    </g>
    <g id="xtick_6">
     <g id="line2d_11">
      <path d="M 454.543935 320.4 
L 454.543935 43.2 
" clip-path="url(#p58ba9d902f)" style="fill: none; stroke-dasharray: 5.12,1.28,0.8,1.28; stroke-dashoffset: 0; stroke: #b0b0b0; stroke-width: 0.8"/>
     </g>
     <g id="line2d_12">
      <g>
       <use xlink:href="#m829e064e7e" x="454.543935" y="320.4" style="fill: #a9a9a9; stroke: #a9a9a9; stroke-width: 0.8"/>
      </g>
     </g>
     <g id="text_6">
      <!-- 2023-05 -->
      <g style="fill: #a9a9a9" transform="translate(433.652528 334.998438) scale(0.1 -0.1)">
       <use xlink:href="#DejaVuSans-32"/>
       <use xlink:href="#DejaVuSans-30" transform="translate(63.623047 0)"/>
       <use xlink:href="#DejaVuSans-32" transform="translate(127.246094 0)"/>
       <use xlink:href="#DejaVuSans-33" transform="translate(190.869141 0)"/>
       <use xlink:href="#DejaVuSans-2d" transform="translate(254.492188 0)"/>
       <use xlink:href="#DejaVuSans-30" transform="translate(290.576172 0)"/>
       <use xlink:href="#DejaVuSans-35" transform="translate(354.199219 0)"/>
      </g>
     </g>
    </g>
    <g id="xtick_7">
     <g id="line2d_13">
      <path d="M 514.731599 320.4 
L 514.731599 43.2 
" clip-path="url(#p58ba9d902f)" style="fill: none; stroke-dasharray: 5.12,1.28,0.8,1.28; stroke-dashoffset: 0; stroke: #b0b0b0; stroke-width: 0.8"/>
     </g>
     <g id="line2d_14">
      <g>
       <use xlink:href="#m829e064e7e" x="514.731599" y="320.4" style="fill: #a9a9a9; stroke: #a9a9a9; stroke-width: 0.8"/>
      </g>
     </g>
     <g id="text_7">
      <!-- 2023-09 -->
      <g style="fill: #a9a9a9" transform="translate(493.840193 334.998438) scale(0.1 -0.1)">
       <use xlink:href="#DejaVuSans-32"/>
       <use xlink:href="#DejaVuSans-30" transform="translate(63.623047 0)"/>
       <use xlink:href="#DejaVuSans-32" transform="translate(127.246094 0)"/>
       <use xlink:href="#DejaVuSans-33" transform="translate(190.869141 0)"/>
       <use xlink:href="#DejaVuSans-2d" transform="translate(254.492188 0)"/>
       <use xlink:href="#DejaVuSans-30" transform="translate(290.576172 0)"/>
       <use xlink:href="#DejaVuSans-39" transform="translate(354.199219 0)"/>
      </g>
     </g>
    </g>
    <g id="xtick_8">
     <g id="line2d_15">
      <path d="M 574.429933 320.4 
L 574.429933 43.2 
" clip-path="url(#p58ba9d902f)" style="fill: none; stroke-dasharray: 5.12,1.28,0.8,1.28; stroke-dashoffset: 0; stroke: #b0b0b0; stroke-width: 0.8"/>
     </g>
     <g id="line2d_16">
      <g>
       <use xlink:href="#m829e064e7e" x="574.429933" y="320.4" style="fill: #a9a9a9; stroke: #a9a9a9; stroke-width: 0.8"/>
      </g>
     </g>
     <g id="text_8">
      <!-- 2024-01 -->
      <g style="fill: #a9a9a9" transform="translate(553.538527 334.998438) scale(0.1 -0.1)">
       <defs>
        <path id="DejaVuSans-34" d="M 2419 4116 
L 825 1625 
L 2419 1625 
L 2419 4116 
z
M 2253 4666 
L 3047 4666 
L 3047 1625 
L 3713 1625 
L 3713 1100 
L 3047 1100 
L 3047 0 
L 2419 0 
L 2419 1100 
L 313 1100 
L 313 1709 
L 2253 4666 
z
" transform="scale(0.015625)"/>
       </defs>
       <use xlink:href="#DejaVuSans-32"/>
       <use xlink:href="#DejaVuSans-30" transform="translate(63.623047 0)"/>
       <use xlink:href="#DejaVuSans-32" transform="translate(127.246094 0)"/>
       <use xlink:href="#DejaVuSans-34" transform="translate(190.869141 0)"/>
       <use xlink:href="#DejaVuSans-2d" transform="translate(254.492188 0)"/>
       <use xlink:href="#DejaVuSans-30" transform="translate(290.576172 0)"/>
       <use xlink:href="#DejaVuSans-31" transform="translate(354.199219 0)"/>
      </g>
     </g>
    </g>
    <g id="xtick_9">
     <g id="line2d_17">
      <path d="M 633.638936 320.4 
L 633.638936 43.2 
" clip-path="url(#p58ba9d902f)" style="fill: none; stroke-dasharray: 5.12,1.28,0.8,1.28; stroke-dashoffset: 0; stroke: #b0b0b0; stroke-width: 0.8"/>
     </g>
     <g id="line2d_18">
      <g>
       <use xlink:href="#m829e064e7e" x="633.638936" y="320.4" style="fill: #a9a9a9; stroke: #a9a9a9; stroke-width: 0.8"/>
      </g>
     </g>
     <g id="text_9">
      <!-- 2024-05 -->
      <g style="fill: #a9a9a9" transform="translate(612.74753 334.998438) scale(0.1 -0.1)">
       <use xlink:href="#DejaVuSans-32"/>
       <use xlink:href="#DejaVuSans-30" transform="translate(63.623047 0)"/>
       <use xlink:href="#DejaVuSans-32" transform="translate(127.246094 0)"/>
       <use xlink:href="#DejaVuSans-34" transform="translate(190.869141 0)"/>
       <use xlink:href="#DejaVuSans-2d" transform="translate(254.492188 0)"/>
       <use xlink:href="#DejaVuSans-30" transform="translate(290.576172 0)"/>
       <use xlink:href="#DejaVuSans-35" transform="translate(354.199219 0)"/>
      </g>
     </g>
    </g>
    <g id="xtick_10">
     <g id="line2d_19">
      <path d="M 693.8266 320.4 
L 693.8266 43.2 
" clip-path="url(#p58ba9d902f)" style="fill: none; stroke-dasharray: 5.12,1.28,0.8,1.28; stroke-dashoffset: 0; stroke: #b0b0b0; stroke-width: 0.8"/>
     </g>
     <g id="line2d_20">
      <g>
       <use xlink:href="#m829e064e7e" x="693.8266" y="320.4" style="fill: #a9a9a9; stroke: #a9a9a9; stroke-width: 0.8"/>
      </g>
     </g>
     <g id="text_10">
      <!-- 2024-09 -->
      <g style="fill: #a9a9a9" transform="translate(672.935194 334.998438) scale(0.1 -0.1)">
       <use xlink:href="#DejaVuSans-32"/>
       <use xlink:href="#DejaVuSans-30" transform="translate(63.623047 0)"/>
       <use xlink:href="#DejaVuSans-32" transform="translate(127.246094 0)"/>
       <use xlink:href="#DejaVuSans-34" transform="translate(190.869141 0)"/>
       <use xlink:href="#DejaVuSans-2d" transform="translate(254.492188 0)"/>
       <use xlink:href="#DejaVuSans-30" transform="translate(290.576172 0)"/>
       <use xlink:href="#DejaVuSans-39" transform="translate(354.199219 0)"/>
      </g>
     </g>
    </g>
    <g id="xtick_11">
     <g id="line2d_21">
      <path d="M 753.524934 320.4 
L 753.524934 43.2 
" clip-path="url(#p58ba9d902f)" style="fill: none; stroke-dasharray: 5.12,1.28,0.8,1.28; stroke-dashoffset: 0; stroke: #b0b0b0; stroke-width: 0.8"/>
     </g>
     <g id="line2d_22">
      <g>
       <use xlink:href="#m829e064e7e" x="753.524934" y="320.4" style="fill: #a9a9a9; stroke: #a9a9a9; stroke-width: 0.8"/>
      </g>
     </g>
     <g id="text_11">
      <!-- 2025-01 -->
      <g style="fill: #a9a9a9" transform="translate(732.633528 334.998438) scale(0.1 -0.1)">
       <use xlink:href="#DejaVuSans-32"/>
       <use xlink:href="#DejaVuSans-30" transform="translate(63.623047 0)"/>
       <use xlink:href="#DejaVuSans-32" transform="translate(127.246094 0)"/>
       <use xlink:href="#DejaVuSans-35" transform="translate(190.869141 0)"/>
       <use xlink:href="#DejaVuSans-2d" transform="translate(254.492188 0)"/>
       <use xlink:href="#DejaVuSans-30" transform="translate(290.576172 0)"/>
       <use xlink:href="#DejaVuSans-31" transform="translate(354.199219 0)"/>
      </g>
     </g>
    </g>
   </g>
   <g id="matplotlib.axis_2">
    <g id="ytick_1">
     <g id="line2d_23">
      <path d="M 108 307.835463 
L 777.6 307.835463 
" clip-path="url(#p58ba9d902f)" style="fill: none; stroke-dasharray: 5.12,1.28,0.8,1.28; stroke-dashoffset: 0; stroke: #b0b0b0; stroke-width: 0.8"/>
     </g>
     <g id="line2d_24">
      <defs>
       <path id="m198c9833a3" d="M 0 0 
L -3.5 0 
" style="stroke: #a9a9a9; stroke-width: 0.8"/>
      </defs>
      <g>
       <use xlink:href="#m198c9833a3" x="108" y="307.835463" style="fill: #a9a9a9; stroke: #a9a9a9; stroke-width: 0.8"/>
      </g>
     </g>
     <g id="text_12">
      <!-- 0 -->
      <g style="fill: #a9a9a9" transform="translate(94.6375 311.634682) scale(0.1 -0.1)">
       <use xlink:href="#DejaVuSans-30"/>
      </g>
     </g>
    </g>
    <g id="ytick_2">
     <g id="line2d_25">
      <path d="M 108 279.465072 
L 777.6 279.465072 
" clip-path="url(#p58ba9d902f)" style="fill: none; stroke-dasharray: 5.12,1.28,0.8,1.28; stroke-dashoffset: 0; stroke: #b0b0b0; stroke-width: 0.8"/>
     </g>
     <g id="line2d_26">
      <g>
       <use xlink:href="#m198c9833a3" x="108" y="279.465072" style="fill: #a9a9a9; stroke: #a9a9a9; stroke-width: 0.8"/>
      </g>
     </g>
     <g id="text_13">
      <!-- 800 -->
      <g style="fill: #a9a9a9" transform="translate(81.9125 283.264291) scale(0.1 -0.1)">
       <defs>
        <path id="DejaVuSans-38" d="M 2034 2216 
Q 1584 2216 1326 1975 
Q 1069 1734 1069 1313 
Q 1069 891 1326 650 
Q 1584 409 2034 409 
Q 2484 409 2743 651 
Q 3003 894 3003 1313 
Q 3003 1734 2745 1975 
Q 2488 2216 2034 2216 
z
M 1403 2484 
Q 997 2584 770 2862 
Q 544 3141 544 3541 
Q 544 4100 942 4425 
Q 1341 4750 2034 4750 
Q 2731 4750 3128 4425 
Q 3525 4100 3525 3541 
Q 3525 3141 3298 2862 
Q 3072 2584 2669 2484 
Q 3125 2378 3379 2068 
Q 3634 1759 3634 1313 
Q 3634 634 3220 271 
Q 2806 -91 2034 -91 
Q 1263 -91 848 271 
Q 434 634 434 1313 
Q 434 1759 690 2068 
Q 947 2378 1403 2484 
z
M 1172 3481 
Q 1172 3119 1398 2916 
Q 1625 2713 2034 2713 
Q 2441 2713 2670 2916 
Q 2900 3119 2900 3481 
Q 2900 3844 2670 4047 
Q 2441 4250 2034 4250 
Q 1625 4250 1398 4047 
Q 1172 3844 1172 3481 
z
" transform="scale(0.015625)"/>
       </defs>
       <use xlink:href="#DejaVuSans-38"/>
       <use xlink:href="#DejaVuSans-30" transform="translate(63.623047 0)"/>
       <use xlink:href="#DejaVuSans-30" transform="translate(127.246094 0)"/>
      </g>
     </g>
    </g>
    <g id="ytick_3">
     <g id="line2d_27">
      <path d="M 108 251.094681 
L 777.6 251.094681 
" clip-path="url(#p58ba9d902f)" style="fill: none; stroke-dasharray: 5.12,1.28,0.8,1.28; stroke-dashoffset: 0; stroke: #b0b0b0; stroke-width: 0.8"/>
     </g>
     <g id="line2d_28">
      <g>
       <use xlink:href="#m198c9833a3" x="108" y="251.094681" style="fill: #a9a9a9; stroke: #a9a9a9; stroke-width: 0.8"/>
      </g>
     </g>
     <g id="text_14">
      <!-- 1600 -->
      <g style="fill: #a9a9a9" transform="translate(75.55 254.893899) scale(0.1 -0.1)">
       <defs>
        <path id="DejaVuSans-36" d="M 2113 2584 
Q 1688 2584 1439 2293 
Q 1191 2003 1191 1497 
Q 1191 994 1439 701 
Q 1688 409 2113 409 
Q 2538 409 2786 701 
Q 3034 994 3034 1497 
Q 3034 2003 2786 2293 
Q 2538 2584 2113 2584 
z
M 3366 4563 
L 3366 3988 
Q 3128 4100 2886 4159 
Q 2644 4219 2406 4219 
Q 1781 4219 1451 3797 
Q 1122 3375 1075 2522 
Q 1259 2794 1537 2939 
Q 1816 3084 2150 3084 
Q 2853 3084 3261 2657 
Q 3669 2231 3669 1497 
Q 3669 778 3244 343 
Q 2819 -91 2113 -91 
Q 1303 -91 875 529 
Q 447 1150 447 2328 
Q 447 3434 972 4092 
Q 1497 4750 2381 4750 
Q 2619 4750 2861 4703 
Q 3103 4656 3366 4563 
z
" transform="scale(0.015625)"/>
       </defs>
       <use xlink:href="#DejaVuSans-31"/>
       <use xlink:href="#DejaVuSans-36" transform="translate(63.623047 0)"/>
       <use xlink:href="#DejaVuSans-30" transform="translate(127.246094 0)"/>
       <use xlink:href="#DejaVuSans-30" transform="translate(190.869141 0)"/>
      </g>
     </g>
    </g>
    <g id="ytick_4">
     <g id="line2d_29">
      <path d="M 108 222.724289 
L 777.6 222.724289 
" clip-path="url(#p58ba9d902f)" style="fill: none; stroke-dasharray: 5.12,1.28,0.8,1.28; stroke-dashoffset: 0; stroke: #b0b0b0; stroke-width: 0.8"/>
     </g>
     <g id="line2d_30">
      <g>
       <use xlink:href="#m198c9833a3" x="108" y="222.724289" style="fill: #a9a9a9; stroke: #a9a9a9; stroke-width: 0.8"/>
      </g>
     </g>
     <g id="text_15">
      <!-- 2400 -->
      <g style="fill: #a9a9a9" transform="translate(75.55 226.523508) scale(0.1 -0.1)">
       <use xlink:href="#DejaVuSans-32"/>
       <use xlink:href="#DejaVuSans-34" transform="translate(63.623047 0)"/>
       <use xlink:href="#DejaVuSans-30" transform="translate(127.246094 0)"/>
       <use xlink:href="#DejaVuSans-30" transform="translate(190.869141 0)"/>
      </g>
     </g>
    </g>
    <g id="ytick_5">
     <g id="line2d_31">
      <path d="M 108 194.353898 
L 777.6 194.353898 
" clip-path="url(#p58ba9d902f)" style="fill: none; stroke-dasharray: 5.12,1.28,0.8,1.28; stroke-dashoffset: 0; stroke: #b0b0b0; stroke-width: 0.8"/>
     </g>
     <g id="line2d_32">
      <g>
       <use xlink:href="#m198c9833a3" x="108" y="194.353898" style="fill: #a9a9a9; stroke: #a9a9a9; stroke-width: 0.8"/>
      </g>
     </g>
     <g id="text_16">
      <!-- 3200 -->
      <g style="fill: #a9a9a9" transform="translate(75.55 198.153117) scale(0.1 -0.1)">
       <use xlink:href="#DejaVuSans-33"/>
       <use xlink:href="#DejaVuSans-32" transform="translate(63.623047 0)"/>
       <use xlink:href="#DejaVuSans-30" transform="translate(127.246094 0)"/>
       <use xlink:href="#DejaVuSans-30" transform="translate(190.869141 0)"/>
      </g>
     </g>
    </g>
    <g id="ytick_6">
     <g id="line2d_33">
      <path d="M 108 165.983507 
L 777.6 165.983507 
" clip-path="url(#p58ba9d902f)" style="fill: none; stroke-dasharray: 5.12,1.28,0.8,1.28; stroke-dashoffset: 0; stroke: #b0b0b0; stroke-width: 0.8"/>
     </g>
     <g id="line2d_34">
      <g>
       <use xlink:href="#m198c9833a3" x="108" y="165.983507" style="fill: #a9a9a9; stroke: #a9a9a9; stroke-width: 0.8"/>
      </g>
     </g>
     <g id="text_17">
      <!-- 4000 -->
      <g style="fill: #a9a9a9" transform="translate(75.55 169.782726) scale(0.1 -0.1)">
       <use xlink:href="#DejaVuSans-34"/>
       <use xlink:href="#DejaVuSans-30" transform="translate(63.623047 0)"/>
       <use xlink:href="#DejaVuSans-30" transform="translate(127.246094 0)"/>
       <use xlink:href="#DejaVuSans-30" transform="translate(190.869141 0)"/>
      </g>
     </g>
    </g>
    <g id="ytick_7">
     <g id="line2d_35">
      <path d="M 108 137.613116 
L 777.6 137.613116 
" clip-path="url(#p58ba9d902f)" style="fill: none; stroke-dasharray: 5.12,1.28,0.8,1.28; stroke-dashoffset: 0; stroke: #b0b0b0; stroke-width: 0.8"/>
     </g>
     <g id="line2d_36">
      <g>
       <use xlink:href="#m198c9833a3" x="108" y="137.613116" style="fill: #a9a9a9; stroke: #a9a9a9; stroke-width: 0.8"/>
      </g>
     </g>
     <g id="text_18">
      <!-- 4800 -->
      <g style="fill: #a9a9a9" transform="translate(75.55 141.412334) scale(0.1 -0.1)">
       <use xlink:href="#DejaVuSans-34"/>
       <use xlink:href="#DejaVuSans-38" transform="translate(63.623047 0)"/>
       <use xlink:href="#DejaVuSans-30" transform="translate(127.246094 0)"/>
       <use xlink:href="#DejaVuSans-30" transform="translate(190.869141 0)"/>
      </g>
     </g>
    </g>
    <g id="ytick_8">
     <g id="line2d_37">
      <path d="M 108 109.242724 
L 777.6 109.242724 
" clip-path="url(#p58ba9d902f)" style="fill: none; stroke-dasharray: 5.12,1.28,0.8,1.28; stroke-dashoffset: 0; stroke: #b0b0b0; stroke-width: 0.8"/>
     </g>
     <g id="line2d_38">
      <g>
       <use xlink:href="#m198c9833a3" x="108" y="109.242724" style="fill: #a9a9a9; stroke: #a9a9a9; stroke-width: 0.8"/>
      </g>
     </g>
     <g id="text_19">
      <!-- 5600 -->
      <g style="fill: #a9a9a9" transform="translate(75.55 113.041943) scale(0.1 -0.1)">
       <use xlink:href="#DejaVuSans-35"/>
       <use xlink:href="#DejaVuSans-36" transform="translate(63.623047 0)"/>
       <use xlink:href="#DejaVuSans-30" transform="translate(127.246094 0)"/>
       <use xlink:href="#DejaVuSans-30" transform="translate(190.869141 0)"/>
      </g>
     </g>
    </g>
    <g id="ytick_9">
     <g id="line2d_39">
      <path d="M 108 80.872333 
L 777.6 80.872333 
" clip-path="url(#p58ba9d902f)" style="fill: none; stroke-dasharray: 5.12,1.28,0.8,1.28; stroke-dashoffset: 0; stroke: #b0b0b0; stroke-width: 0.8"/>
     </g>
     <g id="line2d_40">
      <g>
       <use xlink:href="#m198c9833a3" x="108" y="80.872333" style="fill: #a9a9a9; stroke: #a9a9a9; stroke-width: 0.8"/>
      </g>
     </g>
     <g id="text_20">
      <!-- 6400 -->
      <g style="fill: #a9a9a9" transform="translate(75.55 84.671552) scale(0.1 -0.1)">
       <use xlink:href="#DejaVuSans-36"/>
       <use xlink:href="#DejaVuSans-34" transform="translate(63.623047 0)"/>
       <use xlink:href="#DejaVuSans-30" transform="translate(127.246094 0)"/>
       <use xlink:href="#DejaVuSans-30" transform="translate(190.869141 0)"/>
      </g>
     </g>
    </g>
    <g id="ytick_10">
     <g id="line2d_41">
      <path d="M 108 52.501942 
L 777.6 52.501942 
" clip-path="url(#p58ba9d902f)" style="fill: none; stroke-dasharray: 5.12,1.28,0.8,1.28; stroke-dashoffset: 0; stroke: #b0b0b0; stroke-width: 0.8"/>
     </g>
     <g id="line2d_42">
      <g>
       <use xlink:href="#m198c9833a3" x="108" y="52.501942" style="fill: #a9a9a9; stroke: #a9a9a9; stroke-width: 0.8"/>
      </g>
     </g>
     <g id="text_21">
      <!-- 7200 -->
      <g style="fill: #a9a9a9" transform="translate(75.55 56.301161) scale(0.1 -0.1)">
       <defs>
        <path id="DejaVuSans-37" d="M 525 4666 
L 3525 4666 
L 3525 4397 
L 1831 0 
L 1172 0 
L 2766 4134 
L 525 4134 
L 525 4666 
z
" transform="scale(0.015625)"/>
       </defs>
       <use xlink:href="#DejaVuSans-37"/>
       <use xlink:href="#DejaVuSans-32" transform="translate(63.623047 0)"/>
       <use xlink:href="#DejaVuSans-30" transform="translate(127.246094 0)"/>
       <use xlink:href="#DejaVuSans-30" transform="translate(190.869141 0)"/>
      </g>
     </g>
    </g>
   </g>
   <g id="line2d_43">
    <path d="M 138.436364 307.729074 
L 141.372347 307.480833 
L 141.861678 307.268055 
L 143.819 307.019814 
L 145.776323 306.629721 
L 146.754984 306.487869 
L 149.201637 306.275091 
L 150.180298 305.884999 
L 150.669629 305.246665 
L 151.158959 304.892035 
L 151.64829 303.792682 
L 152.137621 303.721756 
L 152.626951 303.331663 
L 153.605612 302.835182 
L 155.562935 301.27481 
L 157.520257 300.317309 
L 158.988249 299.643513 
L 159.47758 298.863327 
L 160.456241 298.154067 
L 160.945571 297.941289 
L 165.838878 297.232029 
L 166.328208 297.019251 
L 169.753522 296.735547 
L 171.710845 296.274529 
L 175.62549 295.742584 
L 176.11482 295.494343 
L 176.604151 295.423417 
L 177.582812 295.10425 
L 181.008126 294.536842 
L 181.986787 294.253138 
L 186.390763 293.508415 
L 187.369424 293.295637 
L 188.348085 293.260175 
L 190.305408 292.799156 
L 190.794738 292.125359 
L 192.26273 291.557951 
L 193.730722 291.167858 
L 194.220053 290.919617 
L 195.198714 290.742302 
L 197.156036 290.174894 
L 198.134697 290.103968 
L 199.113359 289.855728 
L 201.070681 289.359246 
L 201.560012 289.323783 
L 202.538673 288.862764 
L 203.028004 288.791838 
L 203.517334 288.543597 
L 208.899971 287.657022 
L 210.857293 287.089614 
L 211.346624 286.770448 
L 213.793277 285.954799 
L 214.771938 285.281002 
L 216.23993 284.997298 
L 228.962526 281.415536 
L 229.451856 281.415536 
L 229.941187 281.202758 
L 230.919848 281.096369 
L 231.409179 280.919054 
L 233.366501 280.812665 
L 234.345162 280.63535 
L 235.323823 280.138869 
L 236.791815 279.606924 
L 237.281146 279.287757 
L 238.259807 278.862201 
L 238.749138 278.61396 
L 239.727799 278.294793 
L 240.217129 278.152941 
L 241.195791 277.55007 
L 241.685121 277.018126 
L 242.663783 275.52868 
L 243.153113 275.386828 
L 243.642444 275.386828 
L 245.110436 274.535716 
L 245.599766 274.287475 
L 246.089097 274.181086 
L 246.578427 273.720068 
L 247.557089 273.329975 
L 248.53575 272.868956 
L 249.02508 272.266085 
L 249.514411 271.485899 
L 250.003742 271.166732 
L 250.493072 270.315621 
L 250.982403 269.783676 
L 253.918386 268.223304 
L 254.897048 267.443118 
L 255.386378 267.123952 
L 255.875709 266.379229 
L 256.365039 265.279876 
L 256.85437 264.535153 
L 257.343701 264.145061 
L 257.833031 263.932283 
L 261.258346 261.024317 
L 262.237007 259.854039 
L 263.704999 258.825612 
L 265.662321 257.655334 
L 266.640982 257.123389 
L 268.598305 256.094962 
L 271.044958 253.896257 
L 272.023619 253.506164 
L 273.00228 252.832367 
L 273.491611 252.548663 
L 273.980941 252.477737 
L 275.448933 251.662088 
L 275.938264 251.130144 
L 278.384917 249.818013 
L 278.874247 249.640698 
L 280.342239 248.647734 
L 287.682198 246.058936 
L 288.660859 245.172361 
L 289.639521 244.711343 
L 290.618182 244.179398 
L 291.107512 243.895694 
L 292.086174 243.61199 
L 292.575504 243.292823 
L 293.064835 243.150971 
L 294.532827 242.19347 
L 296.97948 241.626062 
L 298.447471 240.774951 
L 299.915463 240.455784 
L 300.404794 240.313932 
L 301.872786 239.214579 
L 303.830108 238.682634 
L 304.319439 238.292542 
L 307.255422 237.299578 
L 308.234084 237.122263 
L 309.212745 236.73217 
L 312.638059 235.490965 
L 313.61672 235.349113 
L 315.084712 234.852632 
L 317.531365 233.682353 
L 319.488688 232.618463 
L 323.403332 231.022629 
L 323.892663 230.951703 
L 324.871324 230.348832 
L 325.360655 230.277906 
L 327.317977 229.462257 
L 329.2753 229.214016 
L 330.253961 228.717534 
L 330.743291 228.291979 
L 331.232622 227.405404 
L 333.189944 226.873459 
L 334.657936 226.128736 
L 335.147267 226.022347 
L 339.061912 224.142809 
L 340.529904 223.859105 
L 341.508565 223.362623 
L 341.997895 223.149845 
L 342.487226 223.078919 
L 344.444548 222.192344 
L 345.91254 221.270307 
L 347.380532 220.986603 
L 349.827185 220.383732 
L 350.316516 219.993639 
L 351.784507 219.461694 
L 353.74183 218.681509 
L 354.23116 218.326879 
L 354.720491 218.149564 
L 355.699152 217.617619 
L 358.145805 216.80197 
L 359.613797 215.631692 
L 360.103128 215.525303 
L 361.081789 214.745117 
L 361.57112 214.674191 
L 362.06045 213.894005 
L 362.549781 213.681227 
L 363.039111 213.291134 
L 363.528442 213.220208 
L 364.507103 212.617337 
L 365.485764 212.298171 
L 365.975095 211.943541 
L 366.464426 211.766226 
L 367.932417 210.737799 
L 369.88974 209.709372 
L 370.37907 209.638446 
L 371.847062 208.893724 
L 372.336393 208.078075 
L 373.315054 207.368815 
L 373.804385 207.262426 
L 374.783046 206.659555 
L 375.272376 206.553166 
L 376.251038 206.056684 
L 378.20836 205.099184 
L 378.697691 204.744554 
L 379.676352 203.787053 
L 380.655013 203.184182 
L 381.144344 202.865015 
L 381.633674 202.333071 
L 383.590997 200.985477 
L 384.080327 200.418069 
L 384.569658 200.027976 
L 385.548319 199.673346 
L 386.52698 198.99955 
L 387.994972 198.254827 
L 388.484303 198.183901 
L 389.952295 197.403715 
L 390.930956 196.800844 
L 395.824262 195.027695 
L 396.313593 194.637602 
L 398.270915 193.892879 
L 398.760246 193.751027 
L 399.738907 193.112693 
L 400.717568 192.687138 
L 401.696229 192.013341 
L 402.67489 190.062876 
L 403.653552 188.928061 
L 405.121543 188.183338 
L 406.100205 187.793245 
L 406.589535 187.722319 
L 407.078866 187.438615 
L 409.525519 186.658429 
L 410.014849 186.445652 
L 410.993511 185.771855 
L 412.461502 185.133521 
L 413.440164 184.601576 
L 413.929494 184.246946 
L 414.418825 184.034168 
L 414.908156 183.679538 
L 415.397486 183.147594 
L 416.376147 182.615649 
L 418.8228 181.303518 
L 421.758784 179.849536 
L 423.226776 179.42398 
L 424.694768 178.856572 
L 425.184098 178.501942 
L 426.162759 178.218238 
L 427.141421 177.828145 
L 427.630751 177.438052 
L 429.588074 176.764256 
L 430.566735 176.054996 
L 431.545396 175.62944 
L 432.524057 174.849254 
L 433.502719 174.494624 
L 433.992049 174.069068 
L 434.48138 173.998142 
L 435.460041 173.25342 
L 436.438702 172.756938 
L 436.928033 172.54416 
L 437.417363 172.047678 
L 440.842678 170.700084 
L 441.821339 170.274529 
L 443.289331 169.81351 
L 444.267992 169.671658 
L 444.757322 169.45888 
L 445.246653 169.387954 
L 446.225314 168.962398 
L 446.714645 168.926935 
L 448.671967 168.182212 
L 450.139959 167.153786 
L 450.62929 166.976471 
L 451.607951 166.444526 
L 452.097281 166.302674 
L 455.033265 164.671376 
L 455.522596 164.564987 
L 456.990588 163.713876 
L 458.458579 163.217394 
L 459.437241 162.898227 
L 461.394563 162.259893 
L 462.373224 161.940726 
L 464.330547 161.550633 
L 464.819877 161.337855 
L 465.309208 161.266929 
L 466.287869 160.841373 
L 466.7772 160.770448 
L 467.26653 160.522207 
L 468.245191 160.344892 
L 469.713183 159.812947 
L 470.691844 159.706558 
L 472.159836 159.387391 
L 474.606489 158.961835 
L 487.329085 155.273684 
L 487.818416 154.777202 
L 488.797077 154.387109 
L 492.711722 152.933127 
L 493.201052 152.649423 
L 494.669044 152.223867 
L 495.647705 151.975626 
L 496.137036 151.656459 
L 496.626367 151.55007 
L 497.115697 151.124514 
L 498.583689 150.840811 
L 499.56235 150.379792 
L 500.051681 149.812384 
L 502.009003 149.351365 
L 505.434317 148.642105 
L 505.923648 148.642105 
L 506.412979 148.429327 
L 508.370301 148.074697 
L 508.859632 147.86192 
L 510.816954 147.50729 
L 511.795615 147.081734 
L 512.774277 146.904419 
L 515.22093 146.301548 
L 517.178252 145.698677 
L 517.667583 145.592288 
L 518.156913 145.344047 
L 519.135574 145.095806 
L 519.624905 144.812102 
L 521.092897 144.315621 
L 521.582227 143.996454 
L 522.560889 143.71275 
L 526.475533 142.365156 
L 527.454195 142.29423 
L 529.411517 141.726822 
L 529.900848 141.443118 
L 530.879509 141.159415 
L 533.326162 140.060062 
L 533.815493 140.024599 
L 539.198129 138.145061 
L 541.644782 137.506727 
L 542.623443 137.045708 
L 544.091435 136.726541 
L 546.048758 135.130706 
L 547.027419 134.847003 
L 547.516749 134.45691 
L 550.452733 133.357557 
L 550.942064 133.03839 
L 551.920725 132.754686 
L 552.410056 132.435519 
L 554.856709 131.655334 
L 556.3247 130.804222 
L 556.814031 130.697833 
L 559.260684 129.385702 
L 560.728676 128.747368 
L 561.218006 128.392739 
L 562.196668 128.073572 
L 563.175329 127.506164 
L 563.664659 127.328849 
L 564.15399 126.974219 
L 570.515288 124.740051 
L 571.004619 124.633662 
L 571.493949 124.314495 
L 573.451272 123.924402 
L 574.429933 123.534309 
L 577.365916 122.115789 
L 577.855247 122.044863 
L 579.323239 121.229215 
L 580.791231 120.732733 
L 584.216545 119.349676 
L 584.705875 119.207824 
L 585.195206 118.888657 
L 586.173867 118.782269 
L 586.663198 118.463102 
L 587.641859 118.285787 
L 588.62052 117.824768 
L 589.109851 117.61199 
L 589.599182 117.541064 
L 592.045835 116.583563 
L 593.513826 116.19347 
L 594.492488 115.945229 
L 595.960479 115.519674 
L 596.939141 115.129581 
L 598.896463 114.065691 
L 599.875124 113.675598 
L 600.364455 113.356431 
L 601.343116 113.143653 
L 601.832447 112.859949 
L 602.321777 112.75356 
L 603.789769 111.937912 
L 604.76843 111.547819 
L 606.725753 110.803096 
L 609.172406 109.987447 
L 610.151067 109.490965 
L 612.59772 108.675317 
L 615.533704 107.505038 
L 617.491026 106.618463 
L 622.384332 104.738925 
L 622.873663 104.419758 
L 624.830985 103.745961 
L 625.320316 103.745961 
L 626.298977 103.320405 
L 628.256299 101.760034 
L 628.74563 101.618182 
L 629.234961 101.299015 
L 629.724291 101.192626 
L 630.213622 100.944385 
L 630.702952 100.873459 
L 631.192283 100.518829 
L 631.681614 100.41244 
L 632.660275 99.809569 
L 634.128267 99.064847 
L 635.106928 98.674754 
L 635.596258 98.426513 
L 637.06425 98.107346 
L 639.510903 97.291697 
L 640.489564 96.97253 
L 641.957556 96.227807 
L 642.936217 95.766789 
L 643.914879 95.518548 
L 645.382871 94.844751 
L 649.786846 93.248916 
L 651.254838 92.362342 
L 651.744168 92.255953 
L 652.72283 91.759471 
L 653.701491 91.404841 
L 654.190821 90.979285 
L 655.169483 90.589192 
L 658.105466 89.418914 
L 659.573458 88.993358 
L 660.062789 88.745117 
L 660.552119 88.674191 
L 662.020111 88.142246 
L 663.488103 87.610301 
L 664.466764 87.220208 
L 664.956095 86.830115 
L 666.424087 86.440023 
L 666.913417 86.156319 
L 667.892078 85.908078 
L 669.36007 85.092429 
L 669.849401 85.056966 
L 671.317393 84.595947 
L 672.296054 84.525021 
L 673.274715 84.134928 
L 676.210699 83.283816 
L 677.18936 83.248354 
L 681.104005 82.007149 
L 682.082666 81.475204 
L 682.571996 81.049648 
L 684.039988 80.198536 
L 685.01865 79.595666 
L 687.954633 78.673628 
L 688.443964 78.283535 
L 691.379947 77.077793 
L 693.33727 76.545849 
L 694.315931 76.120293 
L 694.805262 75.872052 
L 695.783923 75.588348 
L 696.273253 75.304644 
L 697.251915 75.127329 
L 699.698568 73.992513 
L 700.187898 73.708809 
L 701.65589 73.35418 
L 702.145221 73.035013 
L 702.634551 72.857698 
L 703.123882 72.432142 
L 703.613213 72.361216 
L 706.059866 71.403715 
L 707.527857 71.084548 
L 708.017188 71.013622 
L 708.506519 70.800844 
L 708.995849 70.765381 
L 709.97451 70.446214 
L 710.463841 70.410751 
L 711.931833 69.843344 
L 713.889155 69.275936 
L 714.867816 68.49575 
L 716.825139 67.43186 
L 718.293131 66.935379 
L 721.229114 65.623248 
L 722.207776 65.091303 
L 722.697106 64.843062 
L 723.186437 64.382043 
L 726.12242 63.424543 
L 727.101082 63.03445 
L 728.079743 62.750746 
L 728.569073 62.502505 
L 729.058404 62.041486 
L 731.015726 61.545004 
L 731.505057 61.190374 
L 737.866355 58.88528 
L 738.845016 58.707965 
L 743.248992 57.183057 
L 744.227653 56.934816 
L 744.716983 56.722038 
L 745.206314 56.686575 
L 746.184975 56.296482 
L 746.674306 55.941852 
L 747.163636 55.8 
L 747.163636 55.8 
" clip-path="url(#p58ba9d902f)" style="fill: none; stroke: #1f77b4; stroke-width: 1.5; stroke-linecap: square"/>
   </g>
   <g id="line2d_44">
    <path d="M 138.925694 307.8 
L 143.32967 307.693611 
L 147.244315 307.516296 
L 149.201637 307.516296 
L 149.690968 307.374444 
L 152.137621 307.268055 
L 155.073604 306.948888 
L 158.009588 306.842499 
L 158.988249 306.73611 
L 162.413563 306.594258 
L 165.838878 306.487869 
L 168.285531 306.416943 
L 174.646828 306.310554 
L 177.093481 306.239628 
L 180.518796 306.13324 
L 182.965449 306.062314 
L 188.348085 305.955925 
L 190.305408 305.77861 
L 192.26273 305.743147 
L 195.198714 305.636758 
L 197.156036 305.601295 
L 199.602689 305.530369 
L 201.560012 305.353054 
L 205.963987 305.246665 
L 206.942648 305.175739 
L 208.899971 305.06935 
L 211.835954 304.962961 
L 213.793277 304.856572 
L 222.601228 304.324627 
L 226.026542 304.218238 
L 227.494534 304.076386 
L 229.941187 303.969997 
L 234.834493 303.721756 
L 239.727799 303.65083 
L 241.685121 303.438052 
L 243.642444 303.331663 
L 249.02508 302.835182 
L 252.450395 302.445089 
L 253.918386 302.374163 
L 258.322362 301.842218 
L 260.769015 301.771292 
L 262.237007 301.62944 
L 263.704999 301.523051 
L 277.406255 300.494624 
L 278.384917 300.317309 
L 281.3209 300.21092 
L 289.15019 299.749901 
L 292.575504 299.643513 
L 294.532827 299.430735 
L 296.97948 299.324346 
L 299.915463 299.217957 
L 302.362116 299.111568 
L 304.319439 299.076105 
L 306.766092 299.005179 
L 307.744753 298.863327 
L 314.595381 298.756938 
L 315.574043 298.650549 
L 321.44601 298.54416 
L 325.849985 298.331382 
L 329.2753 298.224993 
L 331.232622 298.012215 
L 334.657936 297.905826 
L 335.636597 297.728511 
L 338.083251 297.657585 
L 342.976557 297.586659 
L 345.42321 297.338418 
L 348.359193 297.232029 
L 350.316516 297.054714 
L 355.209822 296.806473 
L 360.103128 296.700084 
L 364.507103 296.487307 
L 365.975095 296.451844 
L 366.953756 296.309992 
L 369.400409 296.203603 
L 370.37907 296.132677 
L 371.357732 296.061751 
L 372.336393 295.990825 
L 376.740368 295.919899 
L 378.20836 295.81351 
L 391.420286 294.962398 
L 393.866939 294.856009 
L 396.313593 294.785083 
L 403.164221 294.678694 
L 404.142882 294.536842 
L 410.993511 294.430453 
L 415.886817 294.182212 
L 416.865478 294.146749 
L 417.844139 294.04036 
L 420.290792 293.933971 
L 422.737445 293.863045 
L 425.184098 293.756656 
L 427.630751 293.68573 
L 432.034727 293.579341 
L 434.97071 293.472952 
L 441.821339 293.366563 
L 447.203975 293.08286 
L 449.161298 293.011934 
L 450.62929 292.905545 
L 457.479918 292.799156 
L 460.415902 292.692767 
L 469.223853 292.586378 
L 471.181175 292.550915 
L 477.053142 292.479989 
L 478.031804 292.409063 
L 484.882432 292.302674 
L 486.839754 292.267211 
L 499.56235 292.160822 
L 501.030342 292.01897 
L 523.050219 291.912581 
L 525.496872 291.841655 
L 538.219468 291.735266 
L 539.198129 291.66434 
L 541.644782 291.593414 
L 543.112774 291.451562 
L 546.048758 291.345173 
L 549.474072 291.203321 
L 553.878047 291.096932 
L 556.3247 291.026006 
L 559.750015 290.919617 
L 563.664659 290.742302 
L 566.111312 290.635913 
L 568.068635 290.60045 
L 572.47261 290.494061 
L 574.429933 290.458598 
L 580.791231 290.352209 
L 582.748553 290.316746 
L 585.195206 290.210357 
L 588.13119 290.103968 
L 591.556504 290.033042 
L 592.535165 289.962117 
L 604.2791 289.855728 
L 610.640398 289.501098 
L 613.087051 289.430172 
L 614.065712 289.323783 
L 615.044373 289.252857 
L 618.959018 289.146468 
L 621.895001 289.040079 
L 626.788308 288.93369 
L 629.234961 288.685449 
L 634.128267 288.57906 
L 635.106928 288.472671 
L 640.000234 288.366282 
L 642.446887 288.295356 
L 647.829524 288.259893 
L 648.808185 288.153504 
L 654.190821 288.047115 
L 655.169483 287.976189 
L 665.934756 287.8698 
L 668.87074 287.763411 
L 676.210699 287.657022 
L 678.168021 287.621559 
L 682.571996 287.550633 
L 683.550658 287.444244 
L 689.911956 287.337855 
L 692.358609 287.266929 
L 701.166559 287.16054 
L 702.634551 287.054151 
L 704.102543 286.947762 
L 705.570535 286.841373 
L 712.910494 286.734985 
L 715.846478 286.628596 
L 729.058404 286.522207 
L 733.462379 286.309429 
L 739.334347 286.20304 
L 740.313008 286.096651 
L 747.163636 285.990262 
L 747.163636 285.990262 
" clip-path="url(#p58ba9d902f)" style="fill: none; stroke: #ff7f0e; stroke-width: 1.5; stroke-linecap: square"/>
   </g>
   <g id="patch_3">
    <path d="M 108 320.4 
L 108 43.2 
" style="fill: none; stroke: #a9a9a9; stroke-width: 0.8; stroke-linejoin: miter; stroke-linecap: square"/>
   </g>
   <g id="patch_4">
    <path d="M 777.6 320.4 
L 777.6 43.2 
" style="fill: none"/>
   </g>
   <g id="patch_5">
    <path d="M 108 320.4 
L 777.6 320.4 
" style="fill: none; stroke: #a9a9a9; stroke-width: 0.8; stroke-linejoin: miter; stroke-linecap: square"/>
   </g>
   <g id="patch_6">
    <path d="M 108 43.2 
L 777.6 43.2 
" style="fill: none"/>
   </g>
   <g id="text_22">
    <!-- get_subscribe history -->
    <g style="fill: #a9a9a9" transform="translate(378.6075 37.2) scale(0.12 -0.12)">
     <defs>
      <path id="DejaVuSans-67" d="M 2906 1791 
Q 2906 2416 2648 2759 
Q 2391 3103 1925 3103 
Q 1463 3103 1205 2759 
Q 947 2416 947 1791 
Q 947 1169 1205 825 
Q 1463 481 1925 481 
Q 2391 481 2648 825 
Q 2906 1169 2906 1791 
z
M 3481 434 
Q 3481 -459 3084 -895 
Q 2688 -1331 1869 -1331 
Q 1566 -1331 1297 -1286 
Q 1028 -1241 775 -1147 
L 775 -588 
Q 1028 -725 1275 -790 
Q 1522 -856 1778 -856 
Q 2344 -856 2625 -561 
Q 2906 -266 2906 331 
L 2906 616 
Q 2728 306 2450 153 
Q 2172 0 1784 0 
Q 1141 0 747 490 
Q 353 981 353 1791 
Q 353 2603 747 3093 
Q 1141 3584 1784 3584 
Q 2172 3584 2450 3431 
Q 2728 3278 2906 2969 
L 2906 3500 
L 3481 3500 
L 3481 434 
z
" transform="scale(0.015625)"/>
      <path id="DejaVuSans-65" d="M 3597 1894 
L 3597 1613 
L 953 1613 
Q 991 1019 1311 708 
Q 1631 397 2203 397 
Q 2534 397 2845 478 
Q 3156 559 3463 722 
L 3463 178 
Q 3153 47 2828 -22 
Q 2503 -91 2169 -91 
Q 1331 -91 842 396 
Q 353 884 353 1716 
Q 353 2575 817 3079 
Q 1281 3584 2069 3584 
Q 2775 3584 3186 3129 
Q 3597 2675 3597 1894 
z
M 3022 2063 
Q 3016 2534 2758 2815 
Q 2500 3097 2075 3097 
Q 1594 3097 1305 2825 
Q 1016 2553 972 2059 
L 3022 2063 
z
" transform="scale(0.015625)"/>
      <path id="DejaVuSans-74" d="M 1172 4494 
L 1172 3500 
L 2356 3500 
L 2356 3053 
L 1172 3053 
L 1172 1153 
Q 1172 725 1289 603 
Q 1406 481 1766 481 
L 2356 481 
L 2356 0 
L 1766 0 
Q 1100 0 847 248 
Q 594 497 594 1153 
L 594 3053 
L 172 3053 
L 172 3500 
L 594 3500 
L 594 4494 
L 1172 4494 
z
" transform="scale(0.015625)"/>
      <path id="DejaVuSans-5f" d="M 3263 -1063 
L 3263 -1509 
L -63 -1509 
L -63 -1063 
L 3263 -1063 
z
" transform="scale(0.015625)"/>
      <path id="DejaVuSans-73" d="M 2834 3397 
L 2834 2853 
Q 2591 2978 2328 3040 
Q 2066 3103 1784 3103 
Q 1356 3103 1142 2972 
Q 928 2841 928 2578 
Q 928 2378 1081 2264 
Q 1234 2150 1697 2047 
L 1894 2003 
Q 2506 1872 2764 1633 
Q 3022 1394 3022 966 
Q 3022 478 2636 193 
Q 2250 -91 1575 -91 
Q 1294 -91 989 -36 
Q 684 19 347 128 
L 347 722 
Q 666 556 975 473 
Q 1284 391 1588 391 
Q 1994 391 2212 530 
Q 2431 669 2431 922 
Q 2431 1156 2273 1281 
Q 2116 1406 1581 1522 
L 1381 1569 
Q 847 1681 609 1914 
Q 372 2147 372 2553 
Q 372 3047 722 3315 
Q 1072 3584 1716 3584 
Q 2034 3584 2315 3537 
Q 2597 3491 2834 3397 
z
" transform="scale(0.015625)"/>
      <path id="DejaVuSans-75" d="M 544 1381 
L 544 3500 
L 1119 3500 
L 1119 1403 
Q 1119 906 1312 657 
Q 1506 409 1894 409 
Q 2359 409 2629 706 
Q 2900 1003 2900 1516 
L 2900 3500 
L 3475 3500 
L 3475 0 
L 2900 0 
L 2900 538 
Q 2691 219 2414 64 
Q 2138 -91 1772 -91 
Q 1169 -91 856 284 
Q 544 659 544 1381 
z
M 1991 3584 
L 1991 3584 
z
" transform="scale(0.015625)"/>
      <path id="DejaVuSans-62" d="M 3116 1747 
Q 3116 2381 2855 2742 
Q 2594 3103 2138 3103 
Q 1681 3103 1420 2742 
Q 1159 2381 1159 1747 
Q 1159 1113 1420 752 
Q 1681 391 2138 391 
Q 2594 391 2855 752 
Q 3116 1113 3116 1747 
z
M 1159 2969 
Q 1341 3281 1617 3432 
Q 1894 3584 2278 3584 
Q 2916 3584 3314 3078 
Q 3713 2572 3713 1747 
Q 3713 922 3314 415 
Q 2916 -91 2278 -91 
Q 1894 -91 1617 61 
Q 1341 213 1159 525 
L 1159 0 
L 581 0 
L 581 4863 
L 1159 4863 
L 1159 2969 
z
" transform="scale(0.015625)"/>
      <path id="DejaVuSans-63" d="M 3122 3366 
L 3122 2828 
Q 2878 2963 2633 3030 
Q 2388 3097 2138 3097 
Q 1578 3097 1268 2742 
Q 959 2388 959 1747 
Q 959 1106 1268 751 
Q 1578 397 2138 397 
Q 2388 397 2633 464 
Q 2878 531 3122 666 
L 3122 134 
Q 2881 22 2623 -34 
Q 2366 -91 2075 -91 
Q 1284 -91 818 406 
Q 353 903 353 1747 
Q 353 2603 823 3093 
Q 1294 3584 2113 3584 
Q 2378 3584 2631 3529 
Q 2884 3475 3122 3366 
z
" transform="scale(0.015625)"/>
      <path id="DejaVuSans-72" d="M 2631 2963 
Q 2534 3019 2420 3045 
Q 2306 3072 2169 3072 
Q 1681 3072 1420 2755 
Q 1159 2438 1159 1844 
L 1159 0 
L 581 0 
L 581 3500 
L 1159 3500 
L 1159 2956 
Q 1341 3275 1631 3429 
Q 1922 3584 2338 3584 
Q 2397 3584 2469 3576 
Q 2541 3569 2628 3553 
L 2631 2963 
z
" transform="scale(0.015625)"/>
      <path id="DejaVuSans-69" d="M 603 3500 
L 1178 3500 
L 1178 0 
L 603 0 
L 603 3500 
z
M 603 4863 
L 1178 4863 
L 1178 4134 
L 603 4134 
L 603 4863 
z
" transform="scale(0.015625)"/>
      <path id="DejaVuSans-20" transform="scale(0.015625)"/>
      <path id="DejaVuSans-68" d="M 3513 2113 
L 3513 0 
L 2938 0 
L 2938 2094 
Q 2938 2591 2744 2837 
Q 2550 3084 2163 3084 
Q 1697 3084 1428 2787 
Q 1159 2491 1159 1978 
L 1159 0 
L 581 0 
L 581 4863 
L 1159 4863 
L 1159 2956 
Q 1366 3272 1645 3428 
Q 1925 3584 2291 3584 
Q 2894 3584 3203 3211 
Q 3513 2838 3513 2113 
z
" transform="scale(0.015625)"/>
      <path id="DejaVuSans-6f" d="M 1959 3097 
Q 1497 3097 1228 2736 
Q 959 2375 959 1747 
Q 959 1119 1226 758 
Q 1494 397 1959 397 
Q 2419 397 2687 759 
Q 2956 1122 2956 1747 
Q 2956 2369 2687 2733 
Q 2419 3097 1959 3097 
z
M 1959 3584 
Q 2709 3584 3137 3096 
Q 3566 2609 3566 1747 
Q 3566 888 3137 398 
Q 2709 -91 1959 -91 
Q 1206 -91 779 398 
Q 353 888 353 1747 
Q 353 2609 779 3096 
Q 1206 3584 1959 3584 
z
" transform="scale(0.015625)"/>
      <path id="DejaVuSans-79" d="M 2059 -325 
Q 1816 -950 1584 -1140 
Q 1353 -1331 966 -1331 
L 506 -1331 
L 506 -850 
L 844 -850 
Q 1081 -850 1212 -737 
Q 1344 -625 1503 -206 
L 1606 56 
L 191 3500 
L 800 3500 
L 1894 763 
L 2988 3500 
L 3597 3500 
L 2059 -325 
z
" transform="scale(0.015625)"/>
     </defs>
     <use xlink:href="#DejaVuSans-67"/>
     <use xlink:href="#DejaVuSans-65" transform="translate(63.476562 0)"/>
     <use xlink:href="#DejaVuSans-74" transform="translate(125 0)"/>
     <use xlink:href="#DejaVuSans-5f" transform="translate(164.208984 0)"/>
     <use xlink:href="#DejaVuSans-73" transform="translate(214.208984 0)"/>
     <use xlink:href="#DejaVuSans-75" transform="translate(266.308594 0)"/>
     <use xlink:href="#DejaVuSans-62" transform="translate(329.6875 0)"/>
     <use xlink:href="#DejaVuSans-73" transform="translate(393.164062 0)"/>
     <use xlink:href="#DejaVuSans-63" transform="translate(445.263672 0)"/>
     <use xlink:href="#DejaVuSans-72" transform="translate(500.244141 0)"/>
     <use xlink:href="#DejaVuSans-69" transform="translate(541.357422 0)"/>
     <use xlink:href="#DejaVuSans-62" transform="translate(569.140625 0)"/>
     <use xlink:href="#DejaVuSans-65" transform="translate(632.617188 0)"/>
     <use xlink:href="#DejaVuSans-20" transform="translate(694.140625 0)"/>
     <use xlink:href="#DejaVuSans-68" transform="translate(725.927734 0)"/>
     <use xlink:href="#DejaVuSans-69" transform="translate(789.306641 0)"/>
     <use xlink:href="#DejaVuSans-73" transform="translate(817.089844 0)"/>
     <use xlink:href="#DejaVuSans-74" transform="translate(869.189453 0)"/>
     <use xlink:href="#DejaVuSans-6f" transform="translate(908.398438 0)"/>
     <use xlink:href="#DejaVuSans-72" transform="translate(969.580078 0)"/>
     <use xlink:href="#DejaVuSans-79" transform="translate(1010.693359 0)"/>
    </g>
   </g>
   <g id="legend_1">
    <g id="line2d_45">
     <path d="M 815.08 328.498438 
L 825.08 328.498438 
L 835.08 328.498438 
" style="fill: none; stroke: #1f77b4; stroke-width: 1.5; stroke-linecap: square"/>
    </g>
    <g id="text_23">
     <!-- star -->
     <g style="fill: #a9a9a9" transform="translate(843.08 331.998438) scale(0.1 -0.1)">
      <defs>
       <path id="DejaVuSans-61" d="M 2194 1759 
Q 1497 1759 1228 1600 
Q 959 1441 959 1056 
Q 959 750 1161 570 
Q 1363 391 1709 391 
Q 2188 391 2477 730 
Q 2766 1069 2766 1631 
L 2766 1759 
L 2194 1759 
z
M 3341 1997 
L 3341 0 
L 2766 0 
L 2766 531 
Q 2569 213 2275 61 
Q 1981 -91 1556 -91 
Q 1019 -91 701 211 
Q 384 513 384 1019 
Q 384 1609 779 1909 
Q 1175 2209 1959 2209 
L 2766 2209 
L 2766 2266 
Q 2766 2663 2505 2880 
Q 2244 3097 1772 3097 
Q 1472 3097 1187 3025 
Q 903 2953 641 2809 
L 641 3341 
Q 956 3463 1253 3523 
Q 1550 3584 1831 3584 
Q 2591 3584 2966 3190 
Q 3341 2797 3341 1997 
z
" transform="scale(0.015625)"/>
      </defs>
      <use xlink:href="#DejaVuSans-73"/>
      <use xlink:href="#DejaVuSans-74" transform="translate(52.099609 0)"/>
      <use xlink:href="#DejaVuSans-61" transform="translate(91.308594 0)"/>
      <use xlink:href="#DejaVuSans-72" transform="translate(152.587891 0)"/>
     </g>
    </g>
    <g id="line2d_46">
     <path d="M 815.08 343.176562 
L 825.08 343.176562 
L 835.08 343.176562 
" style="fill: none; stroke: #ff7f0e; stroke-width: 1.5; stroke-linecap: square"/>
    </g>
    <g id="text_24">
     <!-- fork -->
     <g style="fill: #a9a9a9" transform="translate(843.08 346.676562) scale(0.1 -0.1)">
      <defs>
       <path id="DejaVuSans-66" d="M 2375 4863 
L 2375 4384 
L 1825 4384 
Q 1516 4384 1395 4259 
Q 1275 4134 1275 3809 
L 1275 3500 
L 2222 3500 
L 2222 3053 
L 1275 3053 
L 1275 0 
L 697 0 
L 697 3053 
L 147 3053 
L 147 3500 
L 697 3500 
L 697 3744 
Q 697 4328 969 4595 
Q 1241 4863 1831 4863 
L 2375 4863 
z
" transform="scale(0.015625)"/>
       <path id="DejaVuSans-6b" d="M 581 4863 
L 1159 4863 
L 1159 1991 
L 2875 3500 
L 3609 3500 
L 1753 1863 
L 3688 0 
L 2938 0 
L 1159 1709 
L 1159 0 
L 581 0 
L 581 4863 
z
" transform="scale(0.015625)"/>
      </defs>
      <use xlink:href="#DejaVuSans-66"/>
      <use xlink:href="#DejaVuSans-6f" transform="translate(35.205078 0)"/>
      <use xlink:href="#DejaVuSans-72" transform="translate(96.386719 0)"/>
      <use xlink:href="#DejaVuSans-6b" transform="translate(137.5 0)"/>
     </g>
    </g>
   </g>
  </g>
 </g>
 <defs>
  <clipPath id="p58ba9d902f">
   <rect x="108" y="43.2" width="669.6" height="277.2"/>
  </clipPath>
 </defs>
</svg>
