<?xml version="1.0" encoding="utf-8" standalone="no"?>
<!DOCTYPE svg PUBLIC "-//W3C//DTD SVG 1.1//EN"
  "http://www.w3.org/Graphics/SVG/1.1/DTD/svg11.dtd">
<svg xmlns:xlink="http://www.w3.org/1999/xlink" width="864pt" height="360pt" viewBox="0 0 864 360" xmlns="http://www.w3.org/2000/svg" version="1.1">
 <metadata>
  <rdf:RDF xmlns:dc="http://purl.org/dc/elements/1.1/" xmlns:cc="http://creativecommons.org/ns#" xmlns:rdf="http://www.w3.org/1999/02/22-rdf-syntax-ns#">
   <cc:Work>
    <dc:type rdf:resource="http://purl.org/dc/dcmitype/StillImage"/>
    <dc:date>2024-12-08T14:21:47.198253</dc:date>
    <dc:format>image/svg+xml</dc:format>
    <dc:creator>
     <cc:Agent>
      <dc:title>Matplotlib v3.9.3, https://matplotlib.org/</dc:title>
     </cc:Agent>
    </dc:creator>
   </cc:Work>
  </rdf:RDF>
 </metadata>
 <defs>
  <style type="text/css">*{stroke-linejoin: round; stroke-linecap: butt}</style>
 </defs>
 <g id="figure_1">
  <g id="patch_1">
   <path d="M 0 360 
L 864 360 
L 864 0 
L 0 0 
L 0 360 
z
" style="fill: none; opacity: 0"/>
  </g>
  <g id="axes_1">
   <g id="patch_2">
    <path d="M 108 320.4 
L 777.6 320.4 
L 777.6 43.2 
L 108 43.2 
L 108 320.4 
z
" style="fill: none; opacity: 0"/>
   </g>
   <g id="matplotlib.axis_1">
    <g id="xtick_1">
     <g id="line2d_1">
      <path d="M 157.690511 320.4 
L 157.690511 43.2 
" clip-path="url(#p5d364ceaf8)" style="fill: none; stroke-dasharray: 5.12,1.28,0.8,1.28; stroke-dashoffset: 0; stroke: #b0b0b0; stroke-width: 0.8"/>
     </g>
     <g id="line2d_2">
      <defs>
       <path id="mca65fe6c71" d="M 0 0 
L 0 3.5 
" style="stroke: #a9a9a9; stroke-width: 0.8"/>
      </defs>
      <g>
       <use xlink:href="#mca65fe6c71" x="157.690511" y="320.4" style="fill: #a9a9a9; stroke: #a9a9a9; stroke-width: 0.8"/>
      </g>
     </g>
     <g id="text_1">
      <!-- 2021-09 -->
      <g style="fill: #a9a9a9" transform="translate(136.799105 334.998438) scale(0.1 -0.1)">
       <defs>
        <path id="DejaVuSans-32" d="M 1228 531 
L 3431 531 
L 3431 0 
L 469 0 
L 469 531 
Q 828 903 1448 1529 
Q 2069 2156 2228 2338 
Q 2531 2678 2651 2914 
Q 2772 3150 2772 3378 
Q 2772 3750 2511 3984 
Q 2250 4219 1831 4219 
Q 1534 4219 1204 4116 
Q 875 4013 500 3803 
L 500 4441 
Q 881 4594 1212 4672 
Q 1544 4750 1819 4750 
Q 2544 4750 2975 4387 
Q 3406 4025 3406 3419 
Q 3406 3131 3298 2873 
Q 3191 2616 2906 2266 
Q 2828 2175 2409 1742 
Q 1991 1309 1228 531 
z
" transform="scale(0.015625)"/>
        <path id="DejaVuSans-30" d="M 2034 4250 
Q 1547 4250 1301 3770 
Q 1056 3291 1056 2328 
Q 1056 1369 1301 889 
Q 1547 409 2034 409 
Q 2525 409 2770 889 
Q 3016 1369 3016 2328 
Q 3016 3291 2770 3770 
Q 2525 4250 2034 4250 
z
M 2034 4750 
Q 2819 4750 3233 4129 
Q 3647 3509 3647 2328 
Q 3647 1150 3233 529 
Q 2819 -91 2034 -91 
Q 1250 -91 836 529 
Q 422 1150 422 2328 
Q 422 3509 836 4129 
Q 1250 4750 2034 4750 
z
" transform="scale(0.015625)"/>
        <path id="DejaVuSans-31" d="M 794 531 
L 1825 531 
L 1825 4091 
L 703 3866 
L 703 4441 
L 1819 4666 
L 2450 4666 
L 2450 531 
L 3481 531 
L 3481 0 
L 794 0 
L 794 531 
z
" transform="scale(0.015625)"/>
        <path id="DejaVuSans-2d" d="M 313 2009 
L 1997 2009 
L 1997 1497 
L 313 1497 
L 313 2009 
z
" transform="scale(0.015625)"/>
        <path id="DejaVuSans-39" d="M 703 97 
L 703 672 
Q 941 559 1184 500 
Q 1428 441 1663 441 
Q 2288 441 2617 861 
Q 2947 1281 2994 2138 
Q 2813 1869 2534 1725 
Q 2256 1581 1919 1581 
Q 1219 1581 811 2004 
Q 403 2428 403 3163 
Q 403 3881 828 4315 
Q 1253 4750 1959 4750 
Q 2769 4750 3195 4129 
Q 3622 3509 3622 2328 
Q 3622 1225 3098 567 
Q 2575 -91 1691 -91 
Q 1453 -91 1209 -44 
Q 966 3 703 97 
z
M 1959 2075 
Q 2384 2075 2632 2365 
Q 2881 2656 2881 3163 
Q 2881 3666 2632 3958 
Q 2384 4250 1959 4250 
Q 1534 4250 1286 3958 
Q 1038 3666 1038 3163 
Q 1038 2656 1286 2365 
Q 1534 2075 1959 2075 
z
" transform="scale(0.015625)"/>
       </defs>
       <use xlink:href="#DejaVuSans-32"/>
       <use xlink:href="#DejaVuSans-30" x="63.623047"/>
       <use xlink:href="#DejaVuSans-32" x="127.246094"/>
       <use xlink:href="#DejaVuSans-31" x="190.869141"/>
       <use xlink:href="#DejaVuSans-2d" x="254.492188"/>
       <use xlink:href="#DejaVuSans-30" x="290.576172"/>
       <use xlink:href="#DejaVuSans-39" x="354.199219"/>
      </g>
     </g>
    </g>
    <g id="xtick_2">
     <g id="line2d_3">
      <path d="M 217.921433 320.4 
L 217.921433 43.2 
" clip-path="url(#p5d364ceaf8)" style="fill: none; stroke-dasharray: 5.12,1.28,0.8,1.28; stroke-dashoffset: 0; stroke: #b0b0b0; stroke-width: 0.8"/>
     </g>
     <g id="line2d_4">
      <g>
       <use xlink:href="#mca65fe6c71" x="217.921433" y="320.4" style="fill: #a9a9a9; stroke: #a9a9a9; stroke-width: 0.8"/>
      </g>
     </g>
     <g id="text_2">
      <!-- 2022-01 -->
      <g style="fill: #a9a9a9" transform="translate(197.030027 334.998438) scale(0.1 -0.1)">
       <use xlink:href="#DejaVuSans-32"/>
       <use xlink:href="#DejaVuSans-30" x="63.623047"/>
       <use xlink:href="#DejaVuSans-32" x="127.246094"/>
       <use xlink:href="#DejaVuSans-32" x="190.869141"/>
       <use xlink:href="#DejaVuSans-2d" x="254.492188"/>
       <use xlink:href="#DejaVuSans-30" x="290.576172"/>
       <use xlink:href="#DejaVuSans-31" x="354.199219"/>
      </g>
     </g>
    </g>
    <g id="xtick_3">
     <g id="line2d_5">
      <path d="M 277.164964 320.4 
L 277.164964 43.2 
" clip-path="url(#p5d364ceaf8)" style="fill: none; stroke-dasharray: 5.12,1.28,0.8,1.28; stroke-dashoffset: 0; stroke: #b0b0b0; stroke-width: 0.8"/>
     </g>
     <g id="line2d_6">
      <g>
       <use xlink:href="#mca65fe6c71" x="277.164964" y="320.4" style="fill: #a9a9a9; stroke: #a9a9a9; stroke-width: 0.8"/>
      </g>
     </g>
     <g id="text_3">
      <!-- 2022-05 -->
      <g style="fill: #a9a9a9" transform="translate(256.273557 334.998438) scale(0.1 -0.1)">
       <defs>
        <path id="DejaVuSans-35" d="M 691 4666 
L 3169 4666 
L 3169 4134 
L 1269 4134 
L 1269 2991 
Q 1406 3038 1543 3061 
Q 1681 3084 1819 3084 
Q 2600 3084 3056 2656 
Q 3513 2228 3513 1497 
Q 3513 744 3044 326 
Q 2575 -91 1722 -91 
Q 1428 -91 1123 -41 
Q 819 9 494 109 
L 494 744 
Q 775 591 1075 516 
Q 1375 441 1709 441 
Q 2250 441 2565 725 
Q 2881 1009 2881 1497 
Q 2881 1984 2565 2268 
Q 2250 2553 1709 2553 
Q 1456 2553 1204 2497 
Q 953 2441 691 2322 
L 691 4666 
z
" transform="scale(0.015625)"/>
       </defs>
       <use xlink:href="#DejaVuSans-32"/>
       <use xlink:href="#DejaVuSans-30" x="63.623047"/>
       <use xlink:href="#DejaVuSans-32" x="127.246094"/>
       <use xlink:href="#DejaVuSans-32" x="190.869141"/>
       <use xlink:href="#DejaVuSans-2d" x="254.492188"/>
       <use xlink:href="#DejaVuSans-30" x="290.576172"/>
       <use xlink:href="#DejaVuSans-35" x="354.199219"/>
      </g>
     </g>
    </g>
    <g id="xtick_4">
     <g id="line2d_7">
      <path d="M 337.889582 320.4 
L 337.889582 43.2 
" clip-path="url(#p5d364ceaf8)" style="fill: none; stroke-dasharray: 5.12,1.28,0.8,1.28; stroke-dashoffset: 0; stroke: #b0b0b0; stroke-width: 0.8"/>
     </g>
     <g id="line2d_8">
      <g>
       <use xlink:href="#mca65fe6c71" x="337.889582" y="320.4" style="fill: #a9a9a9; stroke: #a9a9a9; stroke-width: 0.8"/>
      </g>
     </g>
     <g id="text_4">
      <!-- 2022-09 -->
      <g style="fill: #a9a9a9" transform="translate(316.998176 334.998438) scale(0.1 -0.1)">
       <use xlink:href="#DejaVuSans-32"/>
       <use xlink:href="#DejaVuSans-30" x="63.623047"/>
       <use xlink:href="#DejaVuSans-32" x="127.246094"/>
       <use xlink:href="#DejaVuSans-32" x="190.869141"/>
       <use xlink:href="#DejaVuSans-2d" x="254.492188"/>
       <use xlink:href="#DejaVuSans-30" x="290.576172"/>
       <use xlink:href="#DejaVuSans-39" x="354.199219"/>
      </g>
     </g>
    </g>
    <g id="xtick_5">
     <g id="line2d_9">
      <path d="M 398.120504 320.4 
L 398.120504 43.2 
" clip-path="url(#p5d364ceaf8)" style="fill: none; stroke-dasharray: 5.12,1.28,0.8,1.28; stroke-dashoffset: 0; stroke: #b0b0b0; stroke-width: 0.8"/>
     </g>
     <g id="line2d_10">
      <g>
       <use xlink:href="#mca65fe6c71" x="398.120504" y="320.4" style="fill: #a9a9a9; stroke: #a9a9a9; stroke-width: 0.8"/>
      </g>
     </g>
     <g id="text_5">
      <!-- 2023-01 -->
      <g style="fill: #a9a9a9" transform="translate(377.229098 334.998438) scale(0.1 -0.1)">
       <defs>
        <path id="DejaVuSans-33" d="M 2597 2516 
Q 3050 2419 3304 2112 
Q 3559 1806 3559 1356 
Q 3559 666 3084 287 
Q 2609 -91 1734 -91 
Q 1441 -91 1130 -33 
Q 819 25 488 141 
L 488 750 
Q 750 597 1062 519 
Q 1375 441 1716 441 
Q 2309 441 2620 675 
Q 2931 909 2931 1356 
Q 2931 1769 2642 2001 
Q 2353 2234 1838 2234 
L 1294 2234 
L 1294 2753 
L 1863 2753 
Q 2328 2753 2575 2939 
Q 2822 3125 2822 3475 
Q 2822 3834 2567 4026 
Q 2313 4219 1838 4219 
Q 1578 4219 1281 4162 
Q 984 4106 628 3988 
L 628 4550 
Q 988 4650 1302 4700 
Q 1616 4750 1894 4750 
Q 2613 4750 3031 4423 
Q 3450 4097 3450 3541 
Q 3450 3153 3228 2886 
Q 3006 2619 2597 2516 
z
" transform="scale(0.015625)"/>
       </defs>
       <use xlink:href="#DejaVuSans-32"/>
       <use xlink:href="#DejaVuSans-30" x="63.623047"/>
       <use xlink:href="#DejaVuSans-32" x="127.246094"/>
       <use xlink:href="#DejaVuSans-33" x="190.869141"/>
       <use xlink:href="#DejaVuSans-2d" x="254.492188"/>
       <use xlink:href="#DejaVuSans-30" x="290.576172"/>
       <use xlink:href="#DejaVuSans-31" x="354.199219"/>
      </g>
     </g>
    </g>
    <g id="xtick_6">
     <g id="line2d_11">
      <path d="M 457.364035 320.4 
L 457.364035 43.2 
" clip-path="url(#p5d364ceaf8)" style="fill: none; stroke-dasharray: 5.12,1.28,0.8,1.28; stroke-dashoffset: 0; stroke: #b0b0b0; stroke-width: 0.8"/>
     </g>
     <g id="line2d_12">
      <g>
       <use xlink:href="#mca65fe6c71" x="457.364035" y="320.4" style="fill: #a9a9a9; stroke: #a9a9a9; stroke-width: 0.8"/>
      </g>
     </g>
     <g id="text_6">
      <!-- 2023-05 -->
      <g style="fill: #a9a9a9" transform="translate(436.472628 334.998438) scale(0.1 -0.1)">
       <use xlink:href="#DejaVuSans-32"/>
       <use xlink:href="#DejaVuSans-30" x="63.623047"/>
       <use xlink:href="#DejaVuSans-32" x="127.246094"/>
       <use xlink:href="#DejaVuSans-33" x="190.869141"/>
       <use xlink:href="#DejaVuSans-2d" x="254.492188"/>
       <use xlink:href="#DejaVuSans-30" x="290.576172"/>
       <use xlink:href="#DejaVuSans-35" x="354.199219"/>
      </g>
     </g>
    </g>
    <g id="xtick_7">
     <g id="line2d_13">
      <path d="M 518.088653 320.4 
L 518.088653 43.2 
" clip-path="url(#p5d364ceaf8)" style="fill: none; stroke-dasharray: 5.12,1.28,0.8,1.28; stroke-dashoffset: 0; stroke: #b0b0b0; stroke-width: 0.8"/>
     </g>
     <g id="line2d_14">
      <g>
       <use xlink:href="#mca65fe6c71" x="518.088653" y="320.4" style="fill: #a9a9a9; stroke: #a9a9a9; stroke-width: 0.8"/>
      </g>
     </g>
     <g id="text_7">
      <!-- 2023-09 -->
      <g style="fill: #a9a9a9" transform="translate(497.197247 334.998438) scale(0.1 -0.1)">
       <use xlink:href="#DejaVuSans-32"/>
       <use xlink:href="#DejaVuSans-30" x="63.623047"/>
       <use xlink:href="#DejaVuSans-32" x="127.246094"/>
       <use xlink:href="#DejaVuSans-33" x="190.869141"/>
       <use xlink:href="#DejaVuSans-2d" x="254.492188"/>
       <use xlink:href="#DejaVuSans-30" x="290.576172"/>
       <use xlink:href="#DejaVuSans-39" x="354.199219"/>
      </g>
     </g>
    </g>
    <g id="xtick_8">
     <g id="line2d_15">
      <path d="M 578.319575 320.4 
L 578.319575 43.2 
" clip-path="url(#p5d364ceaf8)" style="fill: none; stroke-dasharray: 5.12,1.28,0.8,1.28; stroke-dashoffset: 0; stroke: #b0b0b0; stroke-width: 0.8"/>
     </g>
     <g id="line2d_16">
      <g>
       <use xlink:href="#mca65fe6c71" x="578.319575" y="320.4" style="fill: #a9a9a9; stroke: #a9a9a9; stroke-width: 0.8"/>
      </g>
     </g>
     <g id="text_8">
      <!-- 2024-01 -->
      <g style="fill: #a9a9a9" transform="translate(557.428169 334.998438) scale(0.1 -0.1)">
       <defs>
        <path id="DejaVuSans-34" d="M 2419 4116 
L 825 1625 
L 2419 1625 
L 2419 4116 
z
M 2253 4666 
L 3047 4666 
L 3047 1625 
L 3713 1625 
L 3713 1100 
L 3047 1100 
L 3047 0 
L 2419 0 
L 2419 1100 
L 313 1100 
L 313 1709 
L 2253 4666 
z
" transform="scale(0.015625)"/>
       </defs>
       <use xlink:href="#DejaVuSans-32"/>
       <use xlink:href="#DejaVuSans-30" x="63.623047"/>
       <use xlink:href="#DejaVuSans-32" x="127.246094"/>
       <use xlink:href="#DejaVuSans-34" x="190.869141"/>
       <use xlink:href="#DejaVuSans-2d" x="254.492188"/>
       <use xlink:href="#DejaVuSans-30" x="290.576172"/>
       <use xlink:href="#DejaVuSans-31" x="354.199219"/>
      </g>
     </g>
    </g>
    <g id="xtick_9">
     <g id="line2d_17">
      <path d="M 638.056802 320.4 
L 638.056802 43.2 
" clip-path="url(#p5d364ceaf8)" style="fill: none; stroke-dasharray: 5.12,1.28,0.8,1.28; stroke-dashoffset: 0; stroke: #b0b0b0; stroke-width: 0.8"/>
     </g>
     <g id="line2d_18">
      <g>
       <use xlink:href="#mca65fe6c71" x="638.056802" y="320.4" style="fill: #a9a9a9; stroke: #a9a9a9; stroke-width: 0.8"/>
      </g>
     </g>
     <g id="text_9">
      <!-- 2024-05 -->
      <g style="fill: #a9a9a9" transform="translate(617.165395 334.998438) scale(0.1 -0.1)">
       <use xlink:href="#DejaVuSans-32"/>
       <use xlink:href="#DejaVuSans-30" x="63.623047"/>
       <use xlink:href="#DejaVuSans-32" x="127.246094"/>
       <use xlink:href="#DejaVuSans-34" x="190.869141"/>
       <use xlink:href="#DejaVuSans-2d" x="254.492188"/>
       <use xlink:href="#DejaVuSans-30" x="290.576172"/>
       <use xlink:href="#DejaVuSans-35" x="354.199219"/>
      </g>
     </g>
    </g>
    <g id="xtick_10">
     <g id="line2d_19">
      <path d="M 698.78142 320.4 
L 698.78142 43.2 
" clip-path="url(#p5d364ceaf8)" style="fill: none; stroke-dasharray: 5.12,1.28,0.8,1.28; stroke-dashoffset: 0; stroke: #b0b0b0; stroke-width: 0.8"/>
     </g>
     <g id="line2d_20">
      <g>
       <use xlink:href="#mca65fe6c71" x="698.78142" y="320.4" style="fill: #a9a9a9; stroke: #a9a9a9; stroke-width: 0.8"/>
      </g>
     </g>
     <g id="text_10">
      <!-- 2024-09 -->
      <g style="fill: #a9a9a9" transform="translate(677.890014 334.998438) scale(0.1 -0.1)">
       <use xlink:href="#DejaVuSans-32"/>
       <use xlink:href="#DejaVuSans-30" x="63.623047"/>
       <use xlink:href="#DejaVuSans-32" x="127.246094"/>
       <use xlink:href="#DejaVuSans-34" x="190.869141"/>
       <use xlink:href="#DejaVuSans-2d" x="254.492188"/>
       <use xlink:href="#DejaVuSans-30" x="290.576172"/>
       <use xlink:href="#DejaVuSans-39" x="354.199219"/>
      </g>
     </g>
    </g>
    <g id="xtick_11">
     <g id="line2d_21">
      <path d="M 759.012342 320.4 
L 759.012342 43.2 
" clip-path="url(#p5d364ceaf8)" style="fill: none; stroke-dasharray: 5.12,1.28,0.8,1.28; stroke-dashoffset: 0; stroke: #b0b0b0; stroke-width: 0.8"/>
     </g>
     <g id="line2d_22">
      <g>
       <use xlink:href="#mca65fe6c71" x="759.012342" y="320.4" style="fill: #a9a9a9; stroke: #a9a9a9; stroke-width: 0.8"/>
      </g>
     </g>
     <g id="text_11">
      <!-- 2025-01 -->
      <g style="fill: #a9a9a9" transform="translate(738.120936 334.998438) scale(0.1 -0.1)">
       <use xlink:href="#DejaVuSans-32"/>
       <use xlink:href="#DejaVuSans-30" x="63.623047"/>
       <use xlink:href="#DejaVuSans-32" x="127.246094"/>
       <use xlink:href="#DejaVuSans-35" x="190.869141"/>
       <use xlink:href="#DejaVuSans-2d" x="254.492188"/>
       <use xlink:href="#DejaVuSans-30" x="290.576172"/>
       <use xlink:href="#DejaVuSans-31" x="354.199219"/>
      </g>
     </g>
    </g>
   </g>
   <g id="matplotlib.axis_2">
    <g id="ytick_1">
     <g id="line2d_23">
      <path d="M 108 307.835724 
L 777.6 307.835724 
" clip-path="url(#p5d364ceaf8)" style="fill: none; stroke-dasharray: 5.12,1.28,0.8,1.28; stroke-dashoffset: 0; stroke: #b0b0b0; stroke-width: 0.8"/>
     </g>
     <g id="line2d_24">
      <defs>
       <path id="m5b7277469c" d="M 0 0 
L -3.5 0 
" style="stroke: #a9a9a9; stroke-width: 0.8"/>
      </defs>
      <g>
       <use xlink:href="#m5b7277469c" x="108" y="307.835724" style="fill: #a9a9a9; stroke: #a9a9a9; stroke-width: 0.8"/>
      </g>
     </g>
     <g id="text_12">
      <!-- 0 -->
      <g style="fill: #a9a9a9" transform="translate(94.6375 311.634943) scale(0.1 -0.1)">
       <use xlink:href="#DejaVuSans-30"/>
      </g>
     </g>
    </g>
    <g id="ytick_2">
     <g id="line2d_25">
      <path d="M 108 279.256195 
L 777.6 279.256195 
" clip-path="url(#p5d364ceaf8)" style="fill: none; stroke-dasharray: 5.12,1.28,0.8,1.28; stroke-dashoffset: 0; stroke: #b0b0b0; stroke-width: 0.8"/>
     </g>
     <g id="line2d_26">
      <g>
       <use xlink:href="#m5b7277469c" x="108" y="279.256195" style="fill: #a9a9a9; stroke: #a9a9a9; stroke-width: 0.8"/>
      </g>
     </g>
     <g id="text_13">
      <!-- 800 -->
      <g style="fill: #a9a9a9" transform="translate(81.9125 283.055414) scale(0.1 -0.1)">
       <defs>
        <path id="DejaVuSans-38" d="M 2034 2216 
Q 1584 2216 1326 1975 
Q 1069 1734 1069 1313 
Q 1069 891 1326 650 
Q 1584 409 2034 409 
Q 2484 409 2743 651 
Q 3003 894 3003 1313 
Q 3003 1734 2745 1975 
Q 2488 2216 2034 2216 
z
M 1403 2484 
Q 997 2584 770 2862 
Q 544 3141 544 3541 
Q 544 4100 942 4425 
Q 1341 4750 2034 4750 
Q 2731 4750 3128 4425 
Q 3525 4100 3525 3541 
Q 3525 3141 3298 2862 
Q 3072 2584 2669 2484 
Q 3125 2378 3379 2068 
Q 3634 1759 3634 1313 
Q 3634 634 3220 271 
Q 2806 -91 2034 -91 
Q 1263 -91 848 271 
Q 434 634 434 1313 
Q 434 1759 690 2068 
Q 947 2378 1403 2484 
z
M 1172 3481 
Q 1172 3119 1398 2916 
Q 1625 2713 2034 2713 
Q 2441 2713 2670 2916 
Q 2900 3119 2900 3481 
Q 2900 3844 2670 4047 
Q 2441 4250 2034 4250 
Q 1625 4250 1398 4047 
Q 1172 3844 1172 3481 
z
" transform="scale(0.015625)"/>
       </defs>
       <use xlink:href="#DejaVuSans-38"/>
       <use xlink:href="#DejaVuSans-30" x="63.623047"/>
       <use xlink:href="#DejaVuSans-30" x="127.246094"/>
      </g>
     </g>
    </g>
    <g id="ytick_3">
     <g id="line2d_27">
      <path d="M 108 250.676666 
L 777.6 250.676666 
" clip-path="url(#p5d364ceaf8)" style="fill: none; stroke-dasharray: 5.12,1.28,0.8,1.28; stroke-dashoffset: 0; stroke: #b0b0b0; stroke-width: 0.8"/>
     </g>
     <g id="line2d_28">
      <g>
       <use xlink:href="#m5b7277469c" x="108" y="250.676666" style="fill: #a9a9a9; stroke: #a9a9a9; stroke-width: 0.8"/>
      </g>
     </g>
     <g id="text_14">
      <!-- 1600 -->
      <g style="fill: #a9a9a9" transform="translate(75.55 254.475884) scale(0.1 -0.1)">
       <defs>
        <path id="DejaVuSans-36" d="M 2113 2584 
Q 1688 2584 1439 2293 
Q 1191 2003 1191 1497 
Q 1191 994 1439 701 
Q 1688 409 2113 409 
Q 2538 409 2786 701 
Q 3034 994 3034 1497 
Q 3034 2003 2786 2293 
Q 2538 2584 2113 2584 
z
M 3366 4563 
L 3366 3988 
Q 3128 4100 2886 4159 
Q 2644 4219 2406 4219 
Q 1781 4219 1451 3797 
Q 1122 3375 1075 2522 
Q 1259 2794 1537 2939 
Q 1816 3084 2150 3084 
Q 2853 3084 3261 2657 
Q 3669 2231 3669 1497 
Q 3669 778 3244 343 
Q 2819 -91 2113 -91 
Q 1303 -91 875 529 
Q 447 1150 447 2328 
Q 447 3434 972 4092 
Q 1497 4750 2381 4750 
Q 2619 4750 2861 4703 
Q 3103 4656 3366 4563 
z
" transform="scale(0.015625)"/>
       </defs>
       <use xlink:href="#DejaVuSans-31"/>
       <use xlink:href="#DejaVuSans-36" x="63.623047"/>
       <use xlink:href="#DejaVuSans-30" x="127.246094"/>
       <use xlink:href="#DejaVuSans-30" x="190.869141"/>
      </g>
     </g>
    </g>
    <g id="ytick_4">
     <g id="line2d_29">
      <path d="M 108 222.097136 
L 777.6 222.097136 
" clip-path="url(#p5d364ceaf8)" style="fill: none; stroke-dasharray: 5.12,1.28,0.8,1.28; stroke-dashoffset: 0; stroke: #b0b0b0; stroke-width: 0.8"/>
     </g>
     <g id="line2d_30">
      <g>
       <use xlink:href="#m5b7277469c" x="108" y="222.097136" style="fill: #a9a9a9; stroke: #a9a9a9; stroke-width: 0.8"/>
      </g>
     </g>
     <g id="text_15">
      <!-- 2400 -->
      <g style="fill: #a9a9a9" transform="translate(75.55 225.896355) scale(0.1 -0.1)">
       <use xlink:href="#DejaVuSans-32"/>
       <use xlink:href="#DejaVuSans-34" x="63.623047"/>
       <use xlink:href="#DejaVuSans-30" x="127.246094"/>
       <use xlink:href="#DejaVuSans-30" x="190.869141"/>
      </g>
     </g>
    </g>
    <g id="ytick_5">
     <g id="line2d_31">
      <path d="M 108 193.517607 
L 777.6 193.517607 
" clip-path="url(#p5d364ceaf8)" style="fill: none; stroke-dasharray: 5.12,1.28,0.8,1.28; stroke-dashoffset: 0; stroke: #b0b0b0; stroke-width: 0.8"/>
     </g>
     <g id="line2d_32">
      <g>
       <use xlink:href="#m5b7277469c" x="108" y="193.517607" style="fill: #a9a9a9; stroke: #a9a9a9; stroke-width: 0.8"/>
      </g>
     </g>
     <g id="text_16">
      <!-- 3200 -->
      <g style="fill: #a9a9a9" transform="translate(75.55 197.316826) scale(0.1 -0.1)">
       <use xlink:href="#DejaVuSans-33"/>
       <use xlink:href="#DejaVuSans-32" x="63.623047"/>
       <use xlink:href="#DejaVuSans-30" x="127.246094"/>
       <use xlink:href="#DejaVuSans-30" x="190.869141"/>
      </g>
     </g>
    </g>
    <g id="ytick_6">
     <g id="line2d_33">
      <path d="M 108 164.938078 
L 777.6 164.938078 
" clip-path="url(#p5d364ceaf8)" style="fill: none; stroke-dasharray: 5.12,1.28,0.8,1.28; stroke-dashoffset: 0; stroke: #b0b0b0; stroke-width: 0.8"/>
     </g>
     <g id="line2d_34">
      <g>
       <use xlink:href="#m5b7277469c" x="108" y="164.938078" style="fill: #a9a9a9; stroke: #a9a9a9; stroke-width: 0.8"/>
      </g>
     </g>
     <g id="text_17">
      <!-- 4000 -->
      <g style="fill: #a9a9a9" transform="translate(75.55 168.737296) scale(0.1 -0.1)">
       <use xlink:href="#DejaVuSans-34"/>
       <use xlink:href="#DejaVuSans-30" x="63.623047"/>
       <use xlink:href="#DejaVuSans-30" x="127.246094"/>
       <use xlink:href="#DejaVuSans-30" x="190.869141"/>
      </g>
     </g>
    </g>
    <g id="ytick_7">
     <g id="line2d_35">
      <path d="M 108 136.358548 
L 777.6 136.358548 
" clip-path="url(#p5d364ceaf8)" style="fill: none; stroke-dasharray: 5.12,1.28,0.8,1.28; stroke-dashoffset: 0; stroke: #b0b0b0; stroke-width: 0.8"/>
     </g>
     <g id="line2d_36">
      <g>
       <use xlink:href="#m5b7277469c" x="108" y="136.358548" style="fill: #a9a9a9; stroke: #a9a9a9; stroke-width: 0.8"/>
      </g>
     </g>
     <g id="text_18">
      <!-- 4800 -->
      <g style="fill: #a9a9a9" transform="translate(75.55 140.157767) scale(0.1 -0.1)">
       <use xlink:href="#DejaVuSans-34"/>
       <use xlink:href="#DejaVuSans-38" x="63.623047"/>
       <use xlink:href="#DejaVuSans-30" x="127.246094"/>
       <use xlink:href="#DejaVuSans-30" x="190.869141"/>
      </g>
     </g>
    </g>
    <g id="ytick_8">
     <g id="line2d_37">
      <path d="M 108 107.779019 
L 777.6 107.779019 
" clip-path="url(#p5d364ceaf8)" style="fill: none; stroke-dasharray: 5.12,1.28,0.8,1.28; stroke-dashoffset: 0; stroke: #b0b0b0; stroke-width: 0.8"/>
     </g>
     <g id="line2d_38">
      <g>
       <use xlink:href="#m5b7277469c" x="108" y="107.779019" style="fill: #a9a9a9; stroke: #a9a9a9; stroke-width: 0.8"/>
      </g>
     </g>
     <g id="text_19">
      <!-- 5600 -->
      <g style="fill: #a9a9a9" transform="translate(75.55 111.578238) scale(0.1 -0.1)">
       <use xlink:href="#DejaVuSans-35"/>
       <use xlink:href="#DejaVuSans-36" x="63.623047"/>
       <use xlink:href="#DejaVuSans-30" x="127.246094"/>
       <use xlink:href="#DejaVuSans-30" x="190.869141"/>
      </g>
     </g>
    </g>
    <g id="ytick_9">
     <g id="line2d_39">
      <path d="M 108 79.19949 
L 777.6 79.19949 
" clip-path="url(#p5d364ceaf8)" style="fill: none; stroke-dasharray: 5.12,1.28,0.8,1.28; stroke-dashoffset: 0; stroke: #b0b0b0; stroke-width: 0.8"/>
     </g>
     <g id="line2d_40">
      <g>
       <use xlink:href="#m5b7277469c" x="108" y="79.19949" style="fill: #a9a9a9; stroke: #a9a9a9; stroke-width: 0.8"/>
      </g>
     </g>
     <g id="text_20">
      <!-- 6400 -->
      <g style="fill: #a9a9a9" transform="translate(75.55 82.998708) scale(0.1 -0.1)">
       <use xlink:href="#DejaVuSans-36"/>
       <use xlink:href="#DejaVuSans-34" x="63.623047"/>
       <use xlink:href="#DejaVuSans-30" x="127.246094"/>
       <use xlink:href="#DejaVuSans-30" x="190.869141"/>
      </g>
     </g>
    </g>
    <g id="ytick_10">
     <g id="line2d_41">
      <path d="M 108 50.61996 
L 777.6 50.61996 
" clip-path="url(#p5d364ceaf8)" style="fill: none; stroke-dasharray: 5.12,1.28,0.8,1.28; stroke-dashoffset: 0; stroke: #b0b0b0; stroke-width: 0.8"/>
     </g>
     <g id="line2d_42">
      <g>
       <use xlink:href="#m5b7277469c" x="108" y="50.61996" style="fill: #a9a9a9; stroke: #a9a9a9; stroke-width: 0.8"/>
      </g>
     </g>
     <g id="text_21">
      <!-- 7200 -->
      <g style="fill: #a9a9a9" transform="translate(75.55 54.419179) scale(0.1 -0.1)">
       <defs>
        <path id="DejaVuSans-37" d="M 525 4666 
L 3525 4666 
L 3525 4397 
L 1831 0 
L 1172 0 
L 2766 4134 
L 525 4134 
L 525 4666 
z
" transform="scale(0.015625)"/>
       </defs>
       <use xlink:href="#DejaVuSans-37"/>
       <use xlink:href="#DejaVuSans-32" x="63.623047"/>
       <use xlink:href="#DejaVuSans-30" x="127.246094"/>
       <use xlink:href="#DejaVuSans-30" x="190.869141"/>
      </g>
     </g>
    </g>
   </g>
   <g id="line2d_43">
    <path d="M 138.436364 307.728551 
L 141.39854 307.47848 
L 141.892236 307.264134 
L 143.867021 307.014063 
L 145.841805 306.621094 
L 146.829197 306.478197 
L 149.297678 306.26385 
L 150.28507 305.870882 
L 150.778766 305.227842 
L 151.272462 304.870598 
L 151.766158 303.763141 
L 152.259854 303.691693 
L 152.75355 303.298724 
L 153.740942 302.798582 
L 155.715727 301.226708 
L 157.690511 300.262149 
L 159.171599 299.583385 
L 159.665295 298.797448 
L 160.652687 298.08296 
L 161.146384 297.868614 
L 166.083344 297.154125 
L 166.57704 296.939779 
L 170.032913 296.653984 
L 172.007697 296.189566 
L 175.957266 295.6537 
L 176.450962 295.403629 
L 176.944658 295.33218 
L 177.93205 295.010661 
L 181.387923 294.43907 
L 182.375315 294.153275 
L 186.81858 293.403062 
L 187.805972 293.188716 
L 188.793364 293.152991 
L 190.768149 292.688574 
L 191.261845 292.00981 
L 192.742933 291.438219 
L 194.224021 291.045251 
L 194.717717 290.79518 
L 195.705109 290.616558 
L 197.679894 290.044967 
L 198.667286 289.973519 
L 199.654678 289.723448 
L 201.629463 289.223306 
L 202.123159 289.187582 
L 203.110551 288.723164 
L 203.604247 288.651715 
L 204.097943 288.401644 
L 209.5286 287.508534 
L 211.503384 286.936944 
L 211.99708 286.615424 
L 214.465561 285.793762 
L 215.452953 285.114999 
L 216.934041 284.829203 
L 229.770139 281.221038 
L 230.263835 281.221038 
L 230.757532 281.006691 
L 231.744924 280.899518 
L 232.23862 280.720896 
L 234.213404 280.613723 
L 235.200796 280.435101 
L 236.188188 279.934959 
L 237.669277 279.399093 
L 238.162973 279.077573 
L 239.150365 278.64888 
L 239.644061 278.398809 
L 240.631453 278.077289 
L 241.125149 277.934392 
L 242.112541 277.327077 
L 242.606238 276.791211 
L 243.59363 275.290785 
L 244.087326 275.147888 
L 244.581022 275.147888 
L 246.06211 274.290502 
L 246.555806 274.040431 
L 247.049502 273.933258 
L 247.543198 273.46884 
L 248.530591 273.075872 
L 249.517983 272.611454 
L 250.011679 272.004139 
L 250.505375 271.218202 
L 250.999071 270.896683 
L 251.492767 270.039297 
L 251.986463 269.503431 
L 254.94864 267.931557 
L 255.936032 267.14562 
L 256.429728 266.8241 
L 256.923424 266.073887 
L 257.41712 264.96643 
L 257.910816 264.216218 
L 258.404512 263.823249 
L 258.898208 263.608903 
L 262.354081 260.679501 
L 263.341473 259.500595 
L 264.328865 258.786107 
L 266.797346 257.285682 
L 267.784738 256.749816 
L 269.759522 255.713808 
L 272.228003 253.498894 
L 273.215395 253.105926 
L 274.202787 252.427162 
L 274.696483 252.141367 
L 275.190179 252.069918 
L 276.671267 251.248256 
L 277.164964 250.71239 
L 279.633444 249.390587 
L 280.12714 249.211965 
L 281.608228 248.211681 
L 289.01367 245.603799 
L 290.001062 244.710689 
L 290.988454 244.246272 
L 291.975846 243.710405 
L 292.469542 243.42461 
L 293.456934 243.138815 
L 293.95063 242.817295 
L 294.444326 242.674398 
L 295.925415 241.709838 
L 298.393895 241.138248 
L 299.874983 240.280862 
L 301.356072 239.959342 
L 301.849768 239.816445 
L 303.330856 238.708988 
L 305.30564 238.173122 
L 305.799336 237.780153 
L 308.761513 236.77987 
L 309.748905 236.601248 
L 310.736297 236.208279 
L 314.19217 234.957925 
L 315.179562 234.815027 
L 316.66065 234.314885 
L 319.129131 233.13598 
L 321.103915 232.064247 
L 325.053484 230.456649 
L 325.54718 230.3852 
L 326.534572 229.777885 
L 327.028268 229.706436 
L 329.003052 228.884775 
L 330.977837 228.634704 
L 331.965229 228.134562 
L 332.458925 227.705869 
L 332.952621 226.812759 
L 334.927405 226.276893 
L 336.408494 225.52668 
L 336.90219 225.419507 
L 340.851758 223.526113 
L 342.332847 223.240318 
L 343.320239 222.740176 
L 343.813935 222.525829 
L 344.307631 222.45438 
L 346.282415 221.56127 
L 347.763504 220.632435 
L 349.244592 220.34664 
L 351.713072 219.739325 
L 352.206768 219.346357 
L 353.687857 218.810491 
L 355.662641 218.024553 
L 356.156337 217.667309 
L 356.650033 217.488687 
L 357.637425 216.952821 
L 360.105906 216.13116 
L 361.586994 214.952254 
L 362.08069 214.845081 
L 363.068082 214.059144 
L 363.561778 213.987695 
L 364.055474 213.201758 
L 364.549171 212.987411 
L 365.042867 212.594443 
L 365.536563 212.522994 
L 366.523955 211.915679 
L 367.511347 211.594159 
L 368.005043 211.236915 
L 368.498739 211.058293 
L 369.979827 210.022285 
L 371.954612 208.986277 
L 372.448308 208.914828 
L 373.929396 208.164616 
L 374.423092 207.342954 
L 375.410484 206.628466 
L 375.90418 206.521293 
L 376.891573 205.913978 
L 377.385269 205.806805 
L 378.372661 205.306663 
L 380.347445 204.342104 
L 380.841141 203.98486 
L 381.828534 203.020301 
L 382.815926 202.412986 
L 383.309622 202.091466 
L 383.803318 201.5556 
L 385.778102 200.198072 
L 386.271798 199.626481 
L 386.765494 199.233513 
L 387.752887 198.876269 
L 388.740279 198.197505 
L 390.221367 197.447292 
L 390.715063 197.375843 
L 392.196151 196.589906 
L 393.183543 195.982591 
L 398.120504 194.196371 
L 398.6142 193.803402 
L 400.588985 193.05319 
L 401.082681 192.910292 
L 401.576377 192.517324 
L 404.044857 191.159796 
L 405.03225 189.194953 
L 406.019642 188.051772 
L 407.50073 187.301559 
L 408.488122 186.908591 
L 408.981818 186.837142 
L 409.475514 186.551347 
L 411.943995 185.76541 
L 412.437691 185.551063 
L 413.425083 184.872299 
L 414.906171 184.22926 
L 415.893563 183.693394 
L 416.387259 183.33615 
L 416.880956 183.121803 
L 417.374652 182.764559 
L 417.868348 182.228693 
L 418.85574 181.692827 
L 421.32422 180.371024 
L 424.286397 178.906323 
L 425.767485 178.47763 
L 427.248573 177.906039 
L 427.742269 177.548795 
L 428.729662 177.263 
L 429.717054 176.870031 
L 430.21075 176.477063 
L 432.185534 175.798299 
L 433.172926 175.083811 
L 434.160319 174.655118 
L 435.147711 173.869181 
L 436.135103 173.511936 
L 436.628799 173.083244 
L 437.122495 173.011795 
L 438.109887 172.261582 
L 439.097279 171.76144 
L 439.590975 171.547094 
L 440.084672 171.046952 
L 443.540544 169.689424 
L 444.527936 169.260731 
L 446.009025 168.796314 
L 446.996417 168.653417 
L 447.490113 168.43907 
L 447.983809 168.367621 
L 448.971201 167.938928 
L 449.464897 167.903204 
L 451.439681 167.152991 
L 452.92077 166.116983 
L 453.414466 165.938361 
L 454.401858 165.402495 
L 454.895554 165.259597 
L 457.857731 163.616274 
L 458.351427 163.509101 
L 459.832515 162.651715 
L 461.313603 162.151574 
L 462.300995 161.830054 
L 464.27578 161.187014 
L 465.263172 160.865495 
L 467.237956 160.472526 
L 467.731652 160.25818 
L 468.225348 160.186731 
L 469.212741 159.758038 
L 469.706437 159.686589 
L 470.200133 159.436518 
L 471.187525 159.257896 
L 472.668613 158.72203 
L 473.656005 158.614857 
L 475.137094 158.293337 
L 477.605574 157.864644 
L 490.441672 154.149305 
L 490.935368 153.649164 
L 491.92276 153.256195 
L 495.872329 151.791494 
L 496.366025 151.505699 
L 497.847113 151.077006 
L 498.834506 150.826935 
L 499.328202 150.505415 
L 499.821898 150.398242 
L 500.315594 149.969549 
L 501.796682 149.683754 
L 502.784074 149.219337 
L 503.27777 148.647746 
L 505.252555 148.183329 
L 508.708427 147.46884 
L 509.202123 147.46884 
L 509.69582 147.254494 
L 511.670604 146.89725 
L 512.1643 146.682903 
L 514.139084 146.325659 
L 515.126476 145.896966 
L 516.113869 145.718344 
L 518.582349 145.111029 
L 520.557133 144.503714 
L 521.050829 144.396541 
L 521.544526 144.14647 
L 522.531918 143.896399 
L 523.025614 143.610604 
L 524.506702 143.110462 
L 525.000398 142.788942 
L 525.98779 142.503147 
L 526.975182 142.181627 
L 527.962575 141.788659 
L 529.443663 141.14562 
L 531.418447 140.895549 
L 535.368016 139.502297 
L 535.861712 139.145052 
L 536.355408 139.037879 
L 536.849104 138.787808 
L 537.3428 138.752084 
L 542.773457 136.85869 
L 545.241938 136.215651 
L 546.22933 135.751233 
L 547.710418 135.429714 
L 548.204114 135.036745 
L 548.69781 134.786674 
L 549.191506 134.179359 
L 549.685202 133.822115 
L 550.672595 133.53632 
L 551.166291 133.143351 
L 554.128467 132.035895 
L 554.622163 131.714375 
L 555.609555 131.42858 
L 556.103251 131.10706 
L 558.571732 130.321123 
L 560.05282 129.463737 
L 560.546516 129.356564 
L 563.014997 128.03476 
L 564.496085 127.391721 
L 564.989781 127.034477 
L 565.977173 126.712957 
L 566.964565 126.141367 
L 567.458261 125.962745 
L 567.951958 125.6055 
L 574.370007 123.354862 
L 574.863703 123.247689 
L 575.357399 122.92617 
L 577.332183 122.533201 
L 578.319575 122.140232 
L 581.281752 120.711256 
L 581.775448 120.639807 
L 583.256536 119.818146 
L 584.737624 119.318004 
L 588.193497 117.924752 
L 588.687193 117.781854 
L 589.180889 117.460335 
L 590.168281 117.353161 
L 590.661977 117.031642 
L 591.64937 116.85302 
L 592.636762 116.388602 
L 593.130458 116.174256 
L 593.624154 116.102807 
L 596.092634 115.138248 
L 597.573723 114.745279 
L 598.561115 114.495208 
L 600.042203 114.066515 
L 601.029595 113.673547 
L 603.00438 112.601815 
L 603.991772 112.208846 
L 604.485468 111.887326 
L 605.47286 111.67298 
L 605.966556 111.387185 
L 606.460252 111.280011 
L 607.94134 110.45835 
L 608.928733 110.065381 
L 610.903517 109.315169 
L 613.371997 108.493507 
L 614.35939 107.993365 
L 616.82787 107.171704 
L 619.790046 105.992798 
L 621.764831 105.099688 
L 626.701792 103.206294 
L 627.195488 102.884775 
L 629.170272 102.206011 
L 629.663968 102.206011 
L 630.65136 101.777318 
L 631.638752 100.884208 
L 632.132449 100.455515 
L 633.613537 99.741026 
L 634.107233 99.633853 
L 634.600929 99.383782 
L 635.094625 99.312333 
L 635.588321 98.955089 
L 636.082017 98.847916 
L 637.069409 98.240601 
L 638.550498 97.490388 
L 639.53789 97.09742 
L 640.031586 96.847349 
L 641.512674 96.525829 
L 643.981155 95.704168 
L 644.968547 95.382648 
L 646.449635 94.632435 
L 647.437027 94.168018 
L 648.424419 93.917947 
L 649.905508 93.239183 
L 654.348772 91.595861 
L 655.829861 90.70275 
L 656.323557 90.595577 
L 657.310949 90.095435 
L 658.298341 89.738191 
L 658.792037 89.309498 
L 659.779429 88.91653 
L 661.260518 88.309215 
L 661.754214 87.916246 
L 662.24791 87.880522 
L 663.235302 87.594726 
L 664.222694 87.273207 
L 664.71639 87.023136 
L 665.210086 86.951687 
L 666.691175 86.415821 
L 668.172263 85.879955 
L 669.159655 85.486986 
L 669.653351 85.094018 
L 671.134439 84.701049 
L 671.628135 84.415254 
L 672.615528 84.165183 
L 674.096616 83.343521 
L 674.590312 83.307797 
L 676.0714 82.84338 
L 677.058792 82.771931 
L 678.046184 82.378962 
L 681.008361 81.521576 
L 681.995753 81.485852 
L 685.945322 80.235498 
L 686.932714 79.699631 
L 687.42641 79.270938 
L 688.907498 78.413553 
L 689.894891 77.806238 
L 692.857067 76.877403 
L 693.350763 76.484434 
L 696.31294 75.269804 
L 698.287724 74.733938 
L 699.275116 74.305245 
L 699.768812 74.055174 
L 700.756204 73.769379 
L 701.2499 73.447859 
L 702.237293 73.269237 
L 704.705773 72.126056 
L 705.199469 71.840261 
L 706.680557 71.483017 
L 707.174253 71.161497 
L 707.66795 70.982875 
L 708.161646 70.554182 
L 708.655342 70.482733 
L 711.123822 69.518174 
L 712.60491 69.196654 
L 713.098607 69.125206 
L 713.592303 68.910859 
L 714.085999 68.875135 
L 715.073391 68.553615 
L 715.567087 68.517891 
L 717.048175 67.9463 
L 719.02296 67.374709 
L 720.010352 66.588772 
L 721.985136 65.51704 
L 723.466224 65.016898 
L 726.428401 63.695095 
L 727.415793 63.159229 
L 727.909489 62.909158 
L 728.403185 62.444741 
L 731.365362 61.480181 
L 732.352754 61.087213 
L 733.340146 60.801418 
L 733.833842 60.551347 
L 734.327538 60.086929 
L 736.302322 59.586788 
L 736.796019 59.229544 
L 745.188852 56.300142 
L 745.682548 56.228693 
L 746.176244 55.978622 
L 747.163636 55.8 
L 747.163636 55.8 
" clip-path="url(#p5d364ceaf8)" style="fill: none; stroke: #1f77b4; stroke-width: 1.5; stroke-linecap: square"/>
   </g>
   <g id="line2d_44">
    <path d="M 138.93006 307.8 
L 143.373324 307.692827 
L 147.322893 307.514205 
L 149.297678 307.514205 
L 149.791374 307.371307 
L 152.259854 307.264134 
L 155.222031 306.942614 
L 158.184207 306.835441 
L 159.171599 306.728268 
L 162.627472 306.58537 
L 166.083344 306.478197 
L 168.551825 306.406748 
L 174.969874 306.299575 
L 177.438354 306.228126 
L 180.894227 306.120953 
L 183.362707 306.049504 
L 188.793364 305.942331 
L 190.768149 305.763709 
L 192.742933 305.727984 
L 195.705109 305.620811 
L 197.679894 305.585086 
L 200.148374 305.513638 
L 202.123159 305.335016 
L 206.566423 305.227842 
L 207.553816 305.156394 
L 209.5286 305.04922 
L 212.490776 304.942047 
L 214.465561 304.834874 
L 223.35209 304.299008 
L 226.807963 304.191834 
L 228.289051 304.048937 
L 230.757532 303.941764 
L 235.694492 303.691693 
L 240.631453 303.620244 
L 242.606238 303.405897 
L 244.581022 303.298724 
L 250.011679 302.798582 
L 253.467551 302.405614 
L 254.94864 302.334165 
L 259.391904 301.798299 
L 261.860385 301.72685 
L 263.341473 301.583952 
L 264.822561 301.476779 
L 278.646052 300.440771 
L 279.633444 300.262149 
L 282.59562 300.154976 
L 290.494758 299.690559 
L 293.95063 299.583385 
L 295.925415 299.369039 
L 298.393895 299.261866 
L 301.356072 299.154692 
L 303.824552 299.047519 
L 305.799336 299.011795 
L 308.267817 298.940346 
L 309.255209 298.797448 
L 316.166954 298.690275 
L 317.154346 298.583102 
L 323.078699 298.475929 
L 327.521964 298.261582 
L 330.977837 298.154409 
L 332.952621 297.940062 
L 336.408494 297.832889 
L 337.395886 297.654267 
L 339.864366 297.582818 
L 344.801327 297.511369 
L 347.269808 297.261299 
L 350.231984 297.154125 
L 352.206768 296.975503 
L 357.143729 296.725432 
L 362.08069 296.618259 
L 366.523955 296.403913 
L 368.005043 296.368188 
L 368.992435 296.225291 
L 371.460916 296.118117 
L 372.448308 296.046669 
L 373.4357 295.97522 
L 374.423092 295.903771 
L 378.866357 295.832322 
L 380.347445 295.725149 
L 393.67724 294.867763 
L 396.14572 294.76059 
L 398.6142 294.689141 
L 405.525946 294.581968 
L 406.513338 294.43907 
L 413.425083 294.331897 
L 418.362044 294.081826 
L 419.349436 294.046102 
L 420.336828 293.938928 
L 422.805309 293.831755 
L 425.273789 293.760306 
L 427.742269 293.653133 
L 430.21075 293.581684 
L 434.654015 293.474511 
L 437.616191 293.367338 
L 444.527936 293.260164 
L 449.958593 292.974369 
L 451.933378 292.90292 
L 453.414466 292.795747 
L 460.326211 292.688574 
L 463.288388 292.581401 
L 472.174917 292.474227 
L 474.149701 292.438503 
L 480.074054 292.367054 
L 481.061447 292.295605 
L 487.973192 292.188432 
L 489.947976 292.152708 
L 502.784074 292.045534 
L 504.265163 291.902637 
L 526.481486 291.795464 
L 528.949967 291.724015 
L 541.786065 291.616842 
L 542.773457 291.545393 
L 545.241938 291.473944 
L 546.723026 291.331046 
L 549.685202 291.223873 
L 553.141075 291.080975 
L 557.58434 290.973802 
L 560.05282 290.902353 
L 563.508693 290.79518 
L 567.458261 290.616558 
L 569.926742 290.509385 
L 571.901526 290.47366 
L 576.344791 290.366487 
L 578.319575 290.330763 
L 584.737624 290.223589 
L 586.712409 290.187865 
L 589.180889 290.080692 
L 592.143066 289.973519 
L 595.598938 289.90207 
L 596.58633 289.830621 
L 608.435036 289.723448 
L 614.853086 289.366204 
L 617.321566 289.294755 
L 618.308958 289.187582 
L 619.29635 289.116133 
L 623.245919 289.008959 
L 626.208096 288.901786 
L 631.145056 288.794613 
L 633.613537 288.544542 
L 638.550498 288.437369 
L 639.53789 288.330196 
L 644.474851 288.223022 
L 646.943331 288.151574 
L 652.373988 288.115849 
L 653.36138 288.008676 
L 658.792037 287.901503 
L 659.779429 287.830054 
L 670.640743 287.722881 
L 673.60292 287.615707 
L 681.008361 287.508534 
L 682.983145 287.47281 
L 687.42641 287.401361 
L 688.413802 287.294188 
L 694.338155 287.187014 
L 697.300332 287.079841 
L 706.186861 286.972668 
L 707.66795 286.865495 
L 709.149038 286.758322 
L 710.630126 286.651148 
L 718.035567 286.543975 
L 721.49144 286.401077 
L 734.327538 286.293904 
L 738.770803 286.079558 
L 744.20146 285.972384 
L 747.163636 285.793762 
L 747.163636 285.793762 
" clip-path="url(#p5d364ceaf8)" style="fill: none; stroke: #ff7f0e; stroke-width: 1.5; stroke-linecap: square"/>
   </g>
   <g id="patch_3">
    <path d="M 108 320.4 
L 108 43.2 
" style="fill: none; stroke: #a9a9a9; stroke-width: 0.8; stroke-linejoin: miter; stroke-linecap: square"/>
   </g>
   <g id="patch_4">
    <path d="M 777.6 320.4 
L 777.6 43.2 
" style="fill: none"/>
   </g>
   <g id="patch_5">
    <path d="M 108 320.4 
L 777.6 320.4 
" style="fill: none; stroke: #a9a9a9; stroke-width: 0.8; stroke-linejoin: miter; stroke-linecap: square"/>
   </g>
   <g id="patch_6">
    <path d="M 108 43.2 
L 777.6 43.2 
" style="fill: none"/>
   </g>
   <g id="text_22">
    <!-- get_subscribe history -->
    <g style="fill: #a9a9a9" transform="translate(378.6075 37.2) scale(0.12 -0.12)">
     <defs>
      <path id="DejaVuSans-67" d="M 2906 1791 
Q 2906 2416 2648 2759 
Q 2391 3103 1925 3103 
Q 1463 3103 1205 2759 
Q 947 2416 947 1791 
Q 947 1169 1205 825 
Q 1463 481 1925 481 
Q 2391 481 2648 825 
Q 2906 1169 2906 1791 
z
M 3481 434 
Q 3481 -459 3084 -895 
Q 2688 -1331 1869 -1331 
Q 1566 -1331 1297 -1286 
Q 1028 -1241 775 -1147 
L 775 -588 
Q 1028 -725 1275 -790 
Q 1522 -856 1778 -856 
Q 2344 -856 2625 -561 
Q 2906 -266 2906 331 
L 2906 616 
Q 2728 306 2450 153 
Q 2172 0 1784 0 
Q 1141 0 747 490 
Q 353 981 353 1791 
Q 353 2603 747 3093 
Q 1141 3584 1784 3584 
Q 2172 3584 2450 3431 
Q 2728 3278 2906 2969 
L 2906 3500 
L 3481 3500 
L 3481 434 
z
" transform="scale(0.015625)"/>
      <path id="DejaVuSans-65" d="M 3597 1894 
L 3597 1613 
L 953 1613 
Q 991 1019 1311 708 
Q 1631 397 2203 397 
Q 2534 397 2845 478 
Q 3156 559 3463 722 
L 3463 178 
Q 3153 47 2828 -22 
Q 2503 -91 2169 -91 
Q 1331 -91 842 396 
Q 353 884 353 1716 
Q 353 2575 817 3079 
Q 1281 3584 2069 3584 
Q 2775 3584 3186 3129 
Q 3597 2675 3597 1894 
z
M 3022 2063 
Q 3016 2534 2758 2815 
Q 2500 3097 2075 3097 
Q 1594 3097 1305 2825 
Q 1016 2553 972 2059 
L 3022 2063 
z
" transform="scale(0.015625)"/>
      <path id="DejaVuSans-74" d="M 1172 4494 
L 1172 3500 
L 2356 3500 
L 2356 3053 
L 1172 3053 
L 1172 1153 
Q 1172 725 1289 603 
Q 1406 481 1766 481 
L 2356 481 
L 2356 0 
L 1766 0 
Q 1100 0 847 248 
Q 594 497 594 1153 
L 594 3053 
L 172 3053 
L 172 3500 
L 594 3500 
L 594 4494 
L 1172 4494 
z
" transform="scale(0.015625)"/>
      <path id="DejaVuSans-5f" d="M 3263 -1063 
L 3263 -1509 
L -63 -1509 
L -63 -1063 
L 3263 -1063 
z
" transform="scale(0.015625)"/>
      <path id="DejaVuSans-73" d="M 2834 3397 
L 2834 2853 
Q 2591 2978 2328 3040 
Q 2066 3103 1784 3103 
Q 1356 3103 1142 2972 
Q 928 2841 928 2578 
Q 928 2378 1081 2264 
Q 1234 2150 1697 2047 
L 1894 2003 
Q 2506 1872 2764 1633 
Q 3022 1394 3022 966 
Q 3022 478 2636 193 
Q 2250 -91 1575 -91 
Q 1294 -91 989 -36 
Q 684 19 347 128 
L 347 722 
Q 666 556 975 473 
Q 1284 391 1588 391 
Q 1994 391 2212 530 
Q 2431 669 2431 922 
Q 2431 1156 2273 1281 
Q 2116 1406 1581 1522 
L 1381 1569 
Q 847 1681 609 1914 
Q 372 2147 372 2553 
Q 372 3047 722 3315 
Q 1072 3584 1716 3584 
Q 2034 3584 2315 3537 
Q 2597 3491 2834 3397 
z
" transform="scale(0.015625)"/>
      <path id="DejaVuSans-75" d="M 544 1381 
L 544 3500 
L 1119 3500 
L 1119 1403 
Q 1119 906 1312 657 
Q 1506 409 1894 409 
Q 2359 409 2629 706 
Q 2900 1003 2900 1516 
L 2900 3500 
L 3475 3500 
L 3475 0 
L 2900 0 
L 2900 538 
Q 2691 219 2414 64 
Q 2138 -91 1772 -91 
Q 1169 -91 856 284 
Q 544 659 544 1381 
z
M 1991 3584 
L 1991 3584 
z
" transform="scale(0.015625)"/>
      <path id="DejaVuSans-62" d="M 3116 1747 
Q 3116 2381 2855 2742 
Q 2594 3103 2138 3103 
Q 1681 3103 1420 2742 
Q 1159 2381 1159 1747 
Q 1159 1113 1420 752 
Q 1681 391 2138 391 
Q 2594 391 2855 752 
Q 3116 1113 3116 1747 
z
M 1159 2969 
Q 1341 3281 1617 3432 
Q 1894 3584 2278 3584 
Q 2916 3584 3314 3078 
Q 3713 2572 3713 1747 
Q 3713 922 3314 415 
Q 2916 -91 2278 -91 
Q 1894 -91 1617 61 
Q 1341 213 1159 525 
L 1159 0 
L 581 0 
L 581 4863 
L 1159 4863 
L 1159 2969 
z
" transform="scale(0.015625)"/>
      <path id="DejaVuSans-63" d="M 3122 3366 
L 3122 2828 
Q 2878 2963 2633 3030 
Q 2388 3097 2138 3097 
Q 1578 3097 1268 2742 
Q 959 2388 959 1747 
Q 959 1106 1268 751 
Q 1578 397 2138 397 
Q 2388 397 2633 464 
Q 2878 531 3122 666 
L 3122 134 
Q 2881 22 2623 -34 
Q 2366 -91 2075 -91 
Q 1284 -91 818 406 
Q 353 903 353 1747 
Q 353 2603 823 3093 
Q 1294 3584 2113 3584 
Q 2378 3584 2631 3529 
Q 2884 3475 3122 3366 
z
" transform="scale(0.015625)"/>
      <path id="DejaVuSans-72" d="M 2631 2963 
Q 2534 3019 2420 3045 
Q 2306 3072 2169 3072 
Q 1681 3072 1420 2755 
Q 1159 2438 1159 1844 
L 1159 0 
L 581 0 
L 581 3500 
L 1159 3500 
L 1159 2956 
Q 1341 3275 1631 3429 
Q 1922 3584 2338 3584 
Q 2397 3584 2469 3576 
Q 2541 3569 2628 3553 
L 2631 2963 
z
" transform="scale(0.015625)"/>
      <path id="DejaVuSans-69" d="M 603 3500 
L 1178 3500 
L 1178 0 
L 603 0 
L 603 3500 
z
M 603 4863 
L 1178 4863 
L 1178 4134 
L 603 4134 
L 603 4863 
z
" transform="scale(0.015625)"/>
      <path id="DejaVuSans-20" transform="scale(0.015625)"/>
      <path id="DejaVuSans-68" d="M 3513 2113 
L 3513 0 
L 2938 0 
L 2938 2094 
Q 2938 2591 2744 2837 
Q 2550 3084 2163 3084 
Q 1697 3084 1428 2787 
Q 1159 2491 1159 1978 
L 1159 0 
L 581 0 
L 581 4863 
L 1159 4863 
L 1159 2956 
Q 1366 3272 1645 3428 
Q 1925 3584 2291 3584 
Q 2894 3584 3203 3211 
Q 3513 2838 3513 2113 
z
" transform="scale(0.015625)"/>
      <path id="DejaVuSans-6f" d="M 1959 3097 
Q 1497 3097 1228 2736 
Q 959 2375 959 1747 
Q 959 1119 1226 758 
Q 1494 397 1959 397 
Q 2419 397 2687 759 
Q 2956 1122 2956 1747 
Q 2956 2369 2687 2733 
Q 2419 3097 1959 3097 
z
M 1959 3584 
Q 2709 3584 3137 3096 
Q 3566 2609 3566 1747 
Q 3566 888 3137 398 
Q 2709 -91 1959 -91 
Q 1206 -91 779 398 
Q 353 888 353 1747 
Q 353 2609 779 3096 
Q 1206 3584 1959 3584 
z
" transform="scale(0.015625)"/>
      <path id="DejaVuSans-79" d="M 2059 -325 
Q 1816 -950 1584 -1140 
Q 1353 -1331 966 -1331 
L 506 -1331 
L 506 -850 
L 844 -850 
Q 1081 -850 1212 -737 
Q 1344 -625 1503 -206 
L 1606 56 
L 191 3500 
L 800 3500 
L 1894 763 
L 2988 3500 
L 3597 3500 
L 2059 -325 
z
" transform="scale(0.015625)"/>
     </defs>
     <use xlink:href="#DejaVuSans-67"/>
     <use xlink:href="#DejaVuSans-65" x="63.476562"/>
     <use xlink:href="#DejaVuSans-74" x="125"/>
     <use xlink:href="#DejaVuSans-5f" x="164.208984"/>
     <use xlink:href="#DejaVuSans-73" x="214.208984"/>
     <use xlink:href="#DejaVuSans-75" x="266.308594"/>
     <use xlink:href="#DejaVuSans-62" x="329.6875"/>
     <use xlink:href="#DejaVuSans-73" x="393.164062"/>
     <use xlink:href="#DejaVuSans-63" x="445.263672"/>
     <use xlink:href="#DejaVuSans-72" x="500.244141"/>
     <use xlink:href="#DejaVuSans-69" x="541.357422"/>
     <use xlink:href="#DejaVuSans-62" x="569.140625"/>
     <use xlink:href="#DejaVuSans-65" x="632.617188"/>
     <use xlink:href="#DejaVuSans-20" x="694.140625"/>
     <use xlink:href="#DejaVuSans-68" x="725.927734"/>
     <use xlink:href="#DejaVuSans-69" x="789.306641"/>
     <use xlink:href="#DejaVuSans-73" x="817.089844"/>
     <use xlink:href="#DejaVuSans-74" x="869.189453"/>
     <use xlink:href="#DejaVuSans-6f" x="908.398438"/>
     <use xlink:href="#DejaVuSans-72" x="969.580078"/>
     <use xlink:href="#DejaVuSans-79" x="1010.693359"/>
    </g>
   </g>
   <g id="legend_1">
    <g id="line2d_45">
     <path d="M 815.08 328.498438 
L 825.08 328.498438 
L 835.08 328.498438 
" style="fill: none; stroke: #1f77b4; stroke-width: 1.5; stroke-linecap: square"/>
    </g>
    <g id="text_23">
     <!-- star -->
     <g style="fill: #a9a9a9" transform="translate(843.08 331.998438) scale(0.1 -0.1)">
      <defs>
       <path id="DejaVuSans-61" d="M 2194 1759 
Q 1497 1759 1228 1600 
Q 959 1441 959 1056 
Q 959 750 1161 570 
Q 1363 391 1709 391 
Q 2188 391 2477 730 
Q 2766 1069 2766 1631 
L 2766 1759 
L 2194 1759 
z
M 3341 1997 
L 3341 0 
L 2766 0 
L 2766 531 
Q 2569 213 2275 61 
Q 1981 -91 1556 -91 
Q 1019 -91 701 211 
Q 384 513 384 1019 
Q 384 1609 779 1909 
Q 1175 2209 1959 2209 
L 2766 2209 
L 2766 2266 
Q 2766 2663 2505 2880 
Q 2244 3097 1772 3097 
Q 1472 3097 1187 3025 
Q 903 2953 641 2809 
L 641 3341 
Q 956 3463 1253 3523 
Q 1550 3584 1831 3584 
Q 2591 3584 2966 3190 
Q 3341 2797 3341 1997 
z
" transform="scale(0.015625)"/>
      </defs>
      <use xlink:href="#DejaVuSans-73"/>
      <use xlink:href="#DejaVuSans-74" x="52.099609"/>
      <use xlink:href="#DejaVuSans-61" x="91.308594"/>
      <use xlink:href="#DejaVuSans-72" x="152.587891"/>
     </g>
    </g>
    <g id="line2d_46">
     <path d="M 815.08 343.176562 
L 825.08 343.176562 
L 835.08 343.176562 
" style="fill: none; stroke: #ff7f0e; stroke-width: 1.5; stroke-linecap: square"/>
    </g>
    <g id="text_24">
     <!-- fork -->
     <g style="fill: #a9a9a9" transform="translate(843.08 346.676562) scale(0.1 -0.1)">
      <defs>
       <path id="DejaVuSans-66" d="M 2375 4863 
L 2375 4384 
L 1825 4384 
Q 1516 4384 1395 4259 
Q 1275 4134 1275 3809 
L 1275 3500 
L 2222 3500 
L 2222 3053 
L 1275 3053 
L 1275 0 
L 697 0 
L 697 3053 
L 147 3053 
L 147 3500 
L 697 3500 
L 697 3744 
Q 697 4328 969 4595 
Q 1241 4863 1831 4863 
L 2375 4863 
z
" transform="scale(0.015625)"/>
       <path id="DejaVuSans-6b" d="M 581 4863 
L 1159 4863 
L 1159 1991 
L 2875 3500 
L 3609 3500 
L 1753 1863 
L 3688 0 
L 2938 0 
L 1159 1709 
L 1159 0 
L 581 0 
L 581 4863 
z
" transform="scale(0.015625)"/>
      </defs>
      <use xlink:href="#DejaVuSans-66"/>
      <use xlink:href="#DejaVuSans-6f" x="35.205078"/>
      <use xlink:href="#DejaVuSans-72" x="96.386719"/>
      <use xlink:href="#DejaVuSans-6b" x="137.5"/>
     </g>
    </g>
   </g>
  </g>
 </g>
 <defs>
  <clipPath id="p5d364ceaf8">
   <rect x="108" y="43.2" width="669.6" height="277.2"/>
  </clipPath>
 </defs>
</svg>
