<?xml version="1.0" encoding="utf-8" standalone="no"?>
<!DOCTYPE svg PUBLIC "-//W3C//DTD SVG 1.1//EN"
  "http://www.w3.org/Graphics/SVG/1.1/DTD/svg11.dtd">
<svg xmlns:xlink="http://www.w3.org/1999/xlink" width="864pt" height="360pt" viewBox="0 0 864 360" xmlns="http://www.w3.org/2000/svg" version="1.1">
 <metadata>
  <rdf:RDF xmlns:dc="http://purl.org/dc/elements/1.1/" xmlns:cc="http://creativecommons.org/ns#" xmlns:rdf="http://www.w3.org/1999/02/22-rdf-syntax-ns#">
   <cc:Work>
    <dc:type rdf:resource="http://purl.org/dc/dcmitype/StillImage"/>
    <dc:date>2025-01-02T20:30:08.364664</dc:date>
    <dc:format>image/svg+xml</dc:format>
    <dc:creator>
     <cc:Agent>
      <dc:title>Matplotlib v3.10.0, https://matplotlib.org/</dc:title>
     </cc:Agent>
    </dc:creator>
   </cc:Work>
  </rdf:RDF>
 </metadata>
 <defs>
  <style type="text/css">*{stroke-linejoin: round; stroke-linecap: butt}</style>
 </defs>
 <g id="figure_1">
  <g id="patch_1">
   <path d="M 0 360 
L 864 360 
L 864 0 
L 0 0 
L 0 360 
z
" style="fill: none; opacity: 0"/>
  </g>
  <g id="axes_1">
   <g id="patch_2">
    <path d="M 108 320.4 
L 777.6 320.4 
L 777.6 43.2 
L 108 43.2 
L 108 320.4 
z
" style="fill: none; opacity: 0"/>
   </g>
   <g id="matplotlib.axis_1">
    <g id="xtick_1">
     <g id="line2d_1">
      <path d="M 127.30701 320.4 
L 127.30701 43.2 
" clip-path="url(#p2f89e92b67)" style="fill: none; stroke-dasharray: 5.12,1.28,0.8,1.28; stroke-dashoffset: 0; stroke: #b0b0b0; stroke-width: 0.8"/>
     </g>
     <g id="line2d_2">
      <defs>
       <path id="m1974e4a897" d="M 0 0 
L 0 3.5 
" style="stroke: #a9a9a9; stroke-width: 0.8"/>
      </defs>
      <g>
       <use xlink:href="#m1974e4a897" x="127.30701" y="320.4" style="fill: #a9a9a9; stroke: #a9a9a9; stroke-width: 0.8"/>
      </g>
     </g>
     <g id="text_1">
      <!-- 2021-07 -->
      <g style="fill: #a9a9a9" transform="translate(106.415603 334.998438) scale(0.1 -0.1)">
       <defs>
        <path id="DejaVuSans-32" d="M 1228 531 
L 3431 531 
L 3431 0 
L 469 0 
L 469 531 
Q 828 903 1448 1529 
Q 2069 2156 2228 2338 
Q 2531 2678 2651 2914 
Q 2772 3150 2772 3378 
Q 2772 3750 2511 3984 
Q 2250 4219 1831 4219 
Q 1534 4219 1204 4116 
Q 875 4013 500 3803 
L 500 4441 
Q 881 4594 1212 4672 
Q 1544 4750 1819 4750 
Q 2544 4750 2975 4387 
Q 3406 4025 3406 3419 
Q 3406 3131 3298 2873 
Q 3191 2616 2906 2266 
Q 2828 2175 2409 1742 
Q 1991 1309 1228 531 
z
" transform="scale(0.015625)"/>
        <path id="DejaVuSans-30" d="M 2034 4250 
Q 1547 4250 1301 3770 
Q 1056 3291 1056 2328 
Q 1056 1369 1301 889 
Q 1547 409 2034 409 
Q 2525 409 2770 889 
Q 3016 1369 3016 2328 
Q 3016 3291 2770 3770 
Q 2525 4250 2034 4250 
z
M 2034 4750 
Q 2819 4750 3233 4129 
Q 3647 3509 3647 2328 
Q 3647 1150 3233 529 
Q 2819 -91 2034 -91 
Q 1250 -91 836 529 
Q 422 1150 422 2328 
Q 422 3509 836 4129 
Q 1250 4750 2034 4750 
z
" transform="scale(0.015625)"/>
        <path id="DejaVuSans-31" d="M 794 531 
L 1825 531 
L 1825 4091 
L 703 3866 
L 703 4441 
L 1819 4666 
L 2450 4666 
L 2450 531 
L 3481 531 
L 3481 0 
L 794 0 
L 794 531 
z
" transform="scale(0.015625)"/>
        <path id="DejaVuSans-2d" d="M 313 2009 
L 1997 2009 
L 1997 1497 
L 313 1497 
L 313 2009 
z
" transform="scale(0.015625)"/>
        <path id="DejaVuSans-37" d="M 525 4666 
L 3525 4666 
L 3525 4397 
L 1831 0 
L 1172 0 
L 2766 4134 
L 525 4134 
L 525 4666 
z
" transform="scale(0.015625)"/>
       </defs>
       <use xlink:href="#DejaVuSans-32"/>
       <use xlink:href="#DejaVuSans-30" transform="translate(63.623047 0)"/>
       <use xlink:href="#DejaVuSans-32" transform="translate(127.246094 0)"/>
       <use xlink:href="#DejaVuSans-31" transform="translate(190.869141 0)"/>
       <use xlink:href="#DejaVuSans-2d" transform="translate(254.492188 0)"/>
       <use xlink:href="#DejaVuSans-30" transform="translate(290.576172 0)"/>
       <use xlink:href="#DejaVuSans-37" transform="translate(354.199219 0)"/>
      </g>
     </g>
    </g>
    <g id="xtick_2">
     <g id="line2d_3">
      <path d="M 216.341841 320.4 
L 216.341841 43.2 
" clip-path="url(#p2f89e92b67)" style="fill: none; stroke-dasharray: 5.12,1.28,0.8,1.28; stroke-dashoffset: 0; stroke: #b0b0b0; stroke-width: 0.8"/>
     </g>
     <g id="line2d_4">
      <g>
       <use xlink:href="#m1974e4a897" x="216.341841" y="320.4" style="fill: #a9a9a9; stroke: #a9a9a9; stroke-width: 0.8"/>
      </g>
     </g>
     <g id="text_2">
      <!-- 2022-01 -->
      <g style="fill: #a9a9a9" transform="translate(195.450435 334.998438) scale(0.1 -0.1)">
       <use xlink:href="#DejaVuSans-32"/>
       <use xlink:href="#DejaVuSans-30" transform="translate(63.623047 0)"/>
       <use xlink:href="#DejaVuSans-32" transform="translate(127.246094 0)"/>
       <use xlink:href="#DejaVuSans-32" transform="translate(190.869141 0)"/>
       <use xlink:href="#DejaVuSans-2d" transform="translate(254.492188 0)"/>
       <use xlink:href="#DejaVuSans-30" transform="translate(290.576172 0)"/>
       <use xlink:href="#DejaVuSans-31" transform="translate(354.199219 0)"/>
      </g>
     </g>
    </g>
    <g id="xtick_3">
     <g id="line2d_5">
      <path d="M 303.925018 320.4 
L 303.925018 43.2 
" clip-path="url(#p2f89e92b67)" style="fill: none; stroke-dasharray: 5.12,1.28,0.8,1.28; stroke-dashoffset: 0; stroke: #b0b0b0; stroke-width: 0.8"/>
     </g>
     <g id="line2d_6">
      <g>
       <use xlink:href="#m1974e4a897" x="303.925018" y="320.4" style="fill: #a9a9a9; stroke: #a9a9a9; stroke-width: 0.8"/>
      </g>
     </g>
     <g id="text_3">
      <!-- 2022-07 -->
      <g style="fill: #a9a9a9" transform="translate(283.033612 334.998438) scale(0.1 -0.1)">
       <use xlink:href="#DejaVuSans-32"/>
       <use xlink:href="#DejaVuSans-30" transform="translate(63.623047 0)"/>
       <use xlink:href="#DejaVuSans-32" transform="translate(127.246094 0)"/>
       <use xlink:href="#DejaVuSans-32" transform="translate(190.869141 0)"/>
       <use xlink:href="#DejaVuSans-2d" transform="translate(254.492188 0)"/>
       <use xlink:href="#DejaVuSans-30" transform="translate(290.576172 0)"/>
       <use xlink:href="#DejaVuSans-37" transform="translate(354.199219 0)"/>
      </g>
     </g>
    </g>
    <g id="xtick_4">
     <g id="line2d_7">
      <path d="M 392.95985 320.4 
L 392.95985 43.2 
" clip-path="url(#p2f89e92b67)" style="fill: none; stroke-dasharray: 5.12,1.28,0.8,1.28; stroke-dashoffset: 0; stroke: #b0b0b0; stroke-width: 0.8"/>
     </g>
     <g id="line2d_8">
      <g>
       <use xlink:href="#m1974e4a897" x="392.95985" y="320.4" style="fill: #a9a9a9; stroke: #a9a9a9; stroke-width: 0.8"/>
      </g>
     </g>
     <g id="text_4">
      <!-- 2023-01 -->
      <g style="fill: #a9a9a9" transform="translate(372.068443 334.998438) scale(0.1 -0.1)">
       <defs>
        <path id="DejaVuSans-33" d="M 2597 2516 
Q 3050 2419 3304 2112 
Q 3559 1806 3559 1356 
Q 3559 666 3084 287 
Q 2609 -91 1734 -91 
Q 1441 -91 1130 -33 
Q 819 25 488 141 
L 488 750 
Q 750 597 1062 519 
Q 1375 441 1716 441 
Q 2309 441 2620 675 
Q 2931 909 2931 1356 
Q 2931 1769 2642 2001 
Q 2353 2234 1838 2234 
L 1294 2234 
L 1294 2753 
L 1863 2753 
Q 2328 2753 2575 2939 
Q 2822 3125 2822 3475 
Q 2822 3834 2567 4026 
Q 2313 4219 1838 4219 
Q 1578 4219 1281 4162 
Q 984 4106 628 3988 
L 628 4550 
Q 988 4650 1302 4700 
Q 1616 4750 1894 4750 
Q 2613 4750 3031 4423 
Q 3450 4097 3450 3541 
Q 3450 3153 3228 2886 
Q 3006 2619 2597 2516 
z
" transform="scale(0.015625)"/>
       </defs>
       <use xlink:href="#DejaVuSans-32"/>
       <use xlink:href="#DejaVuSans-30" transform="translate(63.623047 0)"/>
       <use xlink:href="#DejaVuSans-32" transform="translate(127.246094 0)"/>
       <use xlink:href="#DejaVuSans-33" transform="translate(190.869141 0)"/>
       <use xlink:href="#DejaVuSans-2d" transform="translate(254.492188 0)"/>
       <use xlink:href="#DejaVuSans-30" transform="translate(290.576172 0)"/>
       <use xlink:href="#DejaVuSans-31" transform="translate(354.199219 0)"/>
      </g>
     </g>
    </g>
    <g id="xtick_5">
     <g id="line2d_9">
      <path d="M 480.543026 320.4 
L 480.543026 43.2 
" clip-path="url(#p2f89e92b67)" style="fill: none; stroke-dasharray: 5.12,1.28,0.8,1.28; stroke-dashoffset: 0; stroke: #b0b0b0; stroke-width: 0.8"/>
     </g>
     <g id="line2d_10">
      <g>
       <use xlink:href="#m1974e4a897" x="480.543026" y="320.4" style="fill: #a9a9a9; stroke: #a9a9a9; stroke-width: 0.8"/>
      </g>
     </g>
     <g id="text_5">
      <!-- 2023-07 -->
      <g style="fill: #a9a9a9" transform="translate(459.65162 334.998438) scale(0.1 -0.1)">
       <use xlink:href="#DejaVuSans-32"/>
       <use xlink:href="#DejaVuSans-30" transform="translate(63.623047 0)"/>
       <use xlink:href="#DejaVuSans-32" transform="translate(127.246094 0)"/>
       <use xlink:href="#DejaVuSans-33" transform="translate(190.869141 0)"/>
       <use xlink:href="#DejaVuSans-2d" transform="translate(254.492188 0)"/>
       <use xlink:href="#DejaVuSans-30" transform="translate(290.576172 0)"/>
       <use xlink:href="#DejaVuSans-37" transform="translate(354.199219 0)"/>
      </g>
     </g>
    </g>
    <g id="xtick_6">
     <g id="line2d_11">
      <path d="M 569.577858 320.4 
L 569.577858 43.2 
" clip-path="url(#p2f89e92b67)" style="fill: none; stroke-dasharray: 5.12,1.28,0.8,1.28; stroke-dashoffset: 0; stroke: #b0b0b0; stroke-width: 0.8"/>
     </g>
     <g id="line2d_12">
      <g>
       <use xlink:href="#m1974e4a897" x="569.577858" y="320.4" style="fill: #a9a9a9; stroke: #a9a9a9; stroke-width: 0.8"/>
      </g>
     </g>
     <g id="text_6">
      <!-- 2024-01 -->
      <g style="fill: #a9a9a9" transform="translate(548.686452 334.998438) scale(0.1 -0.1)">
       <defs>
        <path id="DejaVuSans-34" d="M 2419 4116 
L 825 1625 
L 2419 1625 
L 2419 4116 
z
M 2253 4666 
L 3047 4666 
L 3047 1625 
L 3713 1625 
L 3713 1100 
L 3047 1100 
L 3047 0 
L 2419 0 
L 2419 1100 
L 313 1100 
L 313 1709 
L 2253 4666 
z
" transform="scale(0.015625)"/>
       </defs>
       <use xlink:href="#DejaVuSans-32"/>
       <use xlink:href="#DejaVuSans-30" transform="translate(63.623047 0)"/>
       <use xlink:href="#DejaVuSans-32" transform="translate(127.246094 0)"/>
       <use xlink:href="#DejaVuSans-34" transform="translate(190.869141 0)"/>
       <use xlink:href="#DejaVuSans-2d" transform="translate(254.492188 0)"/>
       <use xlink:href="#DejaVuSans-30" transform="translate(290.576172 0)"/>
       <use xlink:href="#DejaVuSans-31" transform="translate(354.199219 0)"/>
      </g>
     </g>
    </g>
    <g id="xtick_7">
     <g id="line2d_13">
      <path d="M 657.64492 320.4 
L 657.64492 43.2 
" clip-path="url(#p2f89e92b67)" style="fill: none; stroke-dasharray: 5.12,1.28,0.8,1.28; stroke-dashoffset: 0; stroke: #b0b0b0; stroke-width: 0.8"/>
     </g>
     <g id="line2d_14">
      <g>
       <use xlink:href="#m1974e4a897" x="657.64492" y="320.4" style="fill: #a9a9a9; stroke: #a9a9a9; stroke-width: 0.8"/>
      </g>
     </g>
     <g id="text_7">
      <!-- 2024-07 -->
      <g style="fill: #a9a9a9" transform="translate(636.753514 334.998438) scale(0.1 -0.1)">
       <use xlink:href="#DejaVuSans-32"/>
       <use xlink:href="#DejaVuSans-30" transform="translate(63.623047 0)"/>
       <use xlink:href="#DejaVuSans-32" transform="translate(127.246094 0)"/>
       <use xlink:href="#DejaVuSans-34" transform="translate(190.869141 0)"/>
       <use xlink:href="#DejaVuSans-2d" transform="translate(254.492188 0)"/>
       <use xlink:href="#DejaVuSans-30" transform="translate(290.576172 0)"/>
       <use xlink:href="#DejaVuSans-37" transform="translate(354.199219 0)"/>
      </g>
     </g>
    </g>
    <g id="xtick_8">
     <g id="line2d_15">
      <path d="M 746.679751 320.4 
L 746.679751 43.2 
" clip-path="url(#p2f89e92b67)" style="fill: none; stroke-dasharray: 5.12,1.28,0.8,1.28; stroke-dashoffset: 0; stroke: #b0b0b0; stroke-width: 0.8"/>
     </g>
     <g id="line2d_16">
      <g>
       <use xlink:href="#m1974e4a897" x="746.679751" y="320.4" style="fill: #a9a9a9; stroke: #a9a9a9; stroke-width: 0.8"/>
      </g>
     </g>
     <g id="text_8">
      <!-- 2025-01 -->
      <g style="fill: #a9a9a9" transform="translate(725.788345 334.998438) scale(0.1 -0.1)">
       <defs>
        <path id="DejaVuSans-35" d="M 691 4666 
L 3169 4666 
L 3169 4134 
L 1269 4134 
L 1269 2991 
Q 1406 3038 1543 3061 
Q 1681 3084 1819 3084 
Q 2600 3084 3056 2656 
Q 3513 2228 3513 1497 
Q 3513 744 3044 326 
Q 2575 -91 1722 -91 
Q 1428 -91 1123 -41 
Q 819 9 494 109 
L 494 744 
Q 775 591 1075 516 
Q 1375 441 1709 441 
Q 2250 441 2565 725 
Q 2881 1009 2881 1497 
Q 2881 1984 2565 2268 
Q 2250 2553 1709 2553 
Q 1456 2553 1204 2497 
Q 953 2441 691 2322 
L 691 4666 
z
" transform="scale(0.015625)"/>
       </defs>
       <use xlink:href="#DejaVuSans-32"/>
       <use xlink:href="#DejaVuSans-30" transform="translate(63.623047 0)"/>
       <use xlink:href="#DejaVuSans-32" transform="translate(127.246094 0)"/>
       <use xlink:href="#DejaVuSans-35" transform="translate(190.869141 0)"/>
       <use xlink:href="#DejaVuSans-2d" transform="translate(254.492188 0)"/>
       <use xlink:href="#DejaVuSans-30" transform="translate(290.576172 0)"/>
       <use xlink:href="#DejaVuSans-31" transform="translate(354.199219 0)"/>
      </g>
     </g>
    </g>
   </g>
   <g id="matplotlib.axis_2">
    <g id="ytick_1">
     <g id="line2d_17">
      <path d="M 108 307.8352 
L 777.6 307.8352 
" clip-path="url(#p2f89e92b67)" style="fill: none; stroke-dasharray: 5.12,1.28,0.8,1.28; stroke-dashoffset: 0; stroke: #b0b0b0; stroke-width: 0.8"/>
     </g>
     <g id="line2d_18">
      <defs>
       <path id="m6e11755b66" d="M 0 0 
L -3.5 0 
" style="stroke: #a9a9a9; stroke-width: 0.8"/>
      </defs>
      <g>
       <use xlink:href="#m6e11755b66" x="108" y="307.8352" style="fill: #a9a9a9; stroke: #a9a9a9; stroke-width: 0.8"/>
      </g>
     </g>
     <g id="text_9">
      <!-- 0 -->
      <g style="fill: #a9a9a9" transform="translate(94.6375 311.634419) scale(0.1 -0.1)">
       <use xlink:href="#DejaVuSans-30"/>
      </g>
     </g>
    </g>
    <g id="ytick_2">
     <g id="line2d_19">
      <path d="M 108 279.674843 
L 777.6 279.674843 
" clip-path="url(#p2f89e92b67)" style="fill: none; stroke-dasharray: 5.12,1.28,0.8,1.28; stroke-dashoffset: 0; stroke: #b0b0b0; stroke-width: 0.8"/>
     </g>
     <g id="line2d_20">
      <g>
       <use xlink:href="#m6e11755b66" x="108" y="279.674843" style="fill: #a9a9a9; stroke: #a9a9a9; stroke-width: 0.8"/>
      </g>
     </g>
     <g id="text_10">
      <!-- 800 -->
      <g style="fill: #a9a9a9" transform="translate(81.9125 283.474062) scale(0.1 -0.1)">
       <defs>
        <path id="DejaVuSans-38" d="M 2034 2216 
Q 1584 2216 1326 1975 
Q 1069 1734 1069 1313 
Q 1069 891 1326 650 
Q 1584 409 2034 409 
Q 2484 409 2743 651 
Q 3003 894 3003 1313 
Q 3003 1734 2745 1975 
Q 2488 2216 2034 2216 
z
M 1403 2484 
Q 997 2584 770 2862 
Q 544 3141 544 3541 
Q 544 4100 942 4425 
Q 1341 4750 2034 4750 
Q 2731 4750 3128 4425 
Q 3525 4100 3525 3541 
Q 3525 3141 3298 2862 
Q 3072 2584 2669 2484 
Q 3125 2378 3379 2068 
Q 3634 1759 3634 1313 
Q 3634 634 3220 271 
Q 2806 -91 2034 -91 
Q 1263 -91 848 271 
Q 434 634 434 1313 
Q 434 1759 690 2068 
Q 947 2378 1403 2484 
z
M 1172 3481 
Q 1172 3119 1398 2916 
Q 1625 2713 2034 2713 
Q 2441 2713 2670 2916 
Q 2900 3119 2900 3481 
Q 2900 3844 2670 4047 
Q 2441 4250 2034 4250 
Q 1625 4250 1398 4047 
Q 1172 3844 1172 3481 
z
" transform="scale(0.015625)"/>
       </defs>
       <use xlink:href="#DejaVuSans-38"/>
       <use xlink:href="#DejaVuSans-30" transform="translate(63.623047 0)"/>
       <use xlink:href="#DejaVuSans-30" transform="translate(127.246094 0)"/>
      </g>
     </g>
    </g>
    <g id="ytick_3">
     <g id="line2d_21">
      <path d="M 108 251.514485 
L 777.6 251.514485 
" clip-path="url(#p2f89e92b67)" style="fill: none; stroke-dasharray: 5.12,1.28,0.8,1.28; stroke-dashoffset: 0; stroke: #b0b0b0; stroke-width: 0.8"/>
     </g>
     <g id="line2d_22">
      <g>
       <use xlink:href="#m6e11755b66" x="108" y="251.514485" style="fill: #a9a9a9; stroke: #a9a9a9; stroke-width: 0.8"/>
      </g>
     </g>
     <g id="text_11">
      <!-- 1600 -->
      <g style="fill: #a9a9a9" transform="translate(75.55 255.313704) scale(0.1 -0.1)">
       <defs>
        <path id="DejaVuSans-36" d="M 2113 2584 
Q 1688 2584 1439 2293 
Q 1191 2003 1191 1497 
Q 1191 994 1439 701 
Q 1688 409 2113 409 
Q 2538 409 2786 701 
Q 3034 994 3034 1497 
Q 3034 2003 2786 2293 
Q 2538 2584 2113 2584 
z
M 3366 4563 
L 3366 3988 
Q 3128 4100 2886 4159 
Q 2644 4219 2406 4219 
Q 1781 4219 1451 3797 
Q 1122 3375 1075 2522 
Q 1259 2794 1537 2939 
Q 1816 3084 2150 3084 
Q 2853 3084 3261 2657 
Q 3669 2231 3669 1497 
Q 3669 778 3244 343 
Q 2819 -91 2113 -91 
Q 1303 -91 875 529 
Q 447 1150 447 2328 
Q 447 3434 972 4092 
Q 1497 4750 2381 4750 
Q 2619 4750 2861 4703 
Q 3103 4656 3366 4563 
z
" transform="scale(0.015625)"/>
       </defs>
       <use xlink:href="#DejaVuSans-31"/>
       <use xlink:href="#DejaVuSans-36" transform="translate(63.623047 0)"/>
       <use xlink:href="#DejaVuSans-30" transform="translate(127.246094 0)"/>
       <use xlink:href="#DejaVuSans-30" transform="translate(190.869141 0)"/>
      </g>
     </g>
    </g>
    <g id="ytick_4">
     <g id="line2d_23">
      <path d="M 108 223.354128 
L 777.6 223.354128 
" clip-path="url(#p2f89e92b67)" style="fill: none; stroke-dasharray: 5.12,1.28,0.8,1.28; stroke-dashoffset: 0; stroke: #b0b0b0; stroke-width: 0.8"/>
     </g>
     <g id="line2d_24">
      <g>
       <use xlink:href="#m6e11755b66" x="108" y="223.354128" style="fill: #a9a9a9; stroke: #a9a9a9; stroke-width: 0.8"/>
      </g>
     </g>
     <g id="text_12">
      <!-- 2400 -->
      <g style="fill: #a9a9a9" transform="translate(75.55 227.153346) scale(0.1 -0.1)">
       <use xlink:href="#DejaVuSans-32"/>
       <use xlink:href="#DejaVuSans-34" transform="translate(63.623047 0)"/>
       <use xlink:href="#DejaVuSans-30" transform="translate(127.246094 0)"/>
       <use xlink:href="#DejaVuSans-30" transform="translate(190.869141 0)"/>
      </g>
     </g>
    </g>
    <g id="ytick_5">
     <g id="line2d_25">
      <path d="M 108 195.19377 
L 777.6 195.19377 
" clip-path="url(#p2f89e92b67)" style="fill: none; stroke-dasharray: 5.12,1.28,0.8,1.28; stroke-dashoffset: 0; stroke: #b0b0b0; stroke-width: 0.8"/>
     </g>
     <g id="line2d_26">
      <g>
       <use xlink:href="#m6e11755b66" x="108" y="195.19377" style="fill: #a9a9a9; stroke: #a9a9a9; stroke-width: 0.8"/>
      </g>
     </g>
     <g id="text_13">
      <!-- 3200 -->
      <g style="fill: #a9a9a9" transform="translate(75.55 198.992989) scale(0.1 -0.1)">
       <use xlink:href="#DejaVuSans-33"/>
       <use xlink:href="#DejaVuSans-32" transform="translate(63.623047 0)"/>
       <use xlink:href="#DejaVuSans-30" transform="translate(127.246094 0)"/>
       <use xlink:href="#DejaVuSans-30" transform="translate(190.869141 0)"/>
      </g>
     </g>
    </g>
    <g id="ytick_6">
     <g id="line2d_27">
      <path d="M 108 167.033412 
L 777.6 167.033412 
" clip-path="url(#p2f89e92b67)" style="fill: none; stroke-dasharray: 5.12,1.28,0.8,1.28; stroke-dashoffset: 0; stroke: #b0b0b0; stroke-width: 0.8"/>
     </g>
     <g id="line2d_28">
      <g>
       <use xlink:href="#m6e11755b66" x="108" y="167.033412" style="fill: #a9a9a9; stroke: #a9a9a9; stroke-width: 0.8"/>
      </g>
     </g>
     <g id="text_14">
      <!-- 4000 -->
      <g style="fill: #a9a9a9" transform="translate(75.55 170.832631) scale(0.1 -0.1)">
       <use xlink:href="#DejaVuSans-34"/>
       <use xlink:href="#DejaVuSans-30" transform="translate(63.623047 0)"/>
       <use xlink:href="#DejaVuSans-30" transform="translate(127.246094 0)"/>
       <use xlink:href="#DejaVuSans-30" transform="translate(190.869141 0)"/>
      </g>
     </g>
    </g>
    <g id="ytick_7">
     <g id="line2d_29">
      <path d="M 108 138.873055 
L 777.6 138.873055 
" clip-path="url(#p2f89e92b67)" style="fill: none; stroke-dasharray: 5.12,1.28,0.8,1.28; stroke-dashoffset: 0; stroke: #b0b0b0; stroke-width: 0.8"/>
     </g>
     <g id="line2d_30">
      <g>
       <use xlink:href="#m6e11755b66" x="108" y="138.873055" style="fill: #a9a9a9; stroke: #a9a9a9; stroke-width: 0.8"/>
      </g>
     </g>
     <g id="text_15">
      <!-- 4800 -->
      <g style="fill: #a9a9a9" transform="translate(75.55 142.672274) scale(0.1 -0.1)">
       <use xlink:href="#DejaVuSans-34"/>
       <use xlink:href="#DejaVuSans-38" transform="translate(63.623047 0)"/>
       <use xlink:href="#DejaVuSans-30" transform="translate(127.246094 0)"/>
       <use xlink:href="#DejaVuSans-30" transform="translate(190.869141 0)"/>
      </g>
     </g>
    </g>
    <g id="ytick_8">
     <g id="line2d_31">
      <path d="M 108 110.712697 
L 777.6 110.712697 
" clip-path="url(#p2f89e92b67)" style="fill: none; stroke-dasharray: 5.12,1.28,0.8,1.28; stroke-dashoffset: 0; stroke: #b0b0b0; stroke-width: 0.8"/>
     </g>
     <g id="line2d_32">
      <g>
       <use xlink:href="#m6e11755b66" x="108" y="110.712697" style="fill: #a9a9a9; stroke: #a9a9a9; stroke-width: 0.8"/>
      </g>
     </g>
     <g id="text_16">
      <!-- 5600 -->
      <g style="fill: #a9a9a9" transform="translate(75.55 114.511916) scale(0.1 -0.1)">
       <use xlink:href="#DejaVuSans-35"/>
       <use xlink:href="#DejaVuSans-36" transform="translate(63.623047 0)"/>
       <use xlink:href="#DejaVuSans-30" transform="translate(127.246094 0)"/>
       <use xlink:href="#DejaVuSans-30" transform="translate(190.869141 0)"/>
      </g>
     </g>
    </g>
    <g id="ytick_9">
     <g id="line2d_33">
      <path d="M 108 82.55234 
L 777.6 82.55234 
" clip-path="url(#p2f89e92b67)" style="fill: none; stroke-dasharray: 5.12,1.28,0.8,1.28; stroke-dashoffset: 0; stroke: #b0b0b0; stroke-width: 0.8"/>
     </g>
     <g id="line2d_34">
      <g>
       <use xlink:href="#m6e11755b66" x="108" y="82.55234" style="fill: #a9a9a9; stroke: #a9a9a9; stroke-width: 0.8"/>
      </g>
     </g>
     <g id="text_17">
      <!-- 6400 -->
      <g style="fill: #a9a9a9" transform="translate(75.55 86.351558) scale(0.1 -0.1)">
       <use xlink:href="#DejaVuSans-36"/>
       <use xlink:href="#DejaVuSans-34" transform="translate(63.623047 0)"/>
       <use xlink:href="#DejaVuSans-30" transform="translate(127.246094 0)"/>
       <use xlink:href="#DejaVuSans-30" transform="translate(190.869141 0)"/>
      </g>
     </g>
    </g>
    <g id="ytick_10">
     <g id="line2d_35">
      <path d="M 108 54.391982 
L 777.6 54.391982 
" clip-path="url(#p2f89e92b67)" style="fill: none; stroke-dasharray: 5.12,1.28,0.8,1.28; stroke-dashoffset: 0; stroke: #b0b0b0; stroke-width: 0.8"/>
     </g>
     <g id="line2d_36">
      <g>
       <use xlink:href="#m6e11755b66" x="108" y="54.391982" style="fill: #a9a9a9; stroke: #a9a9a9; stroke-width: 0.8"/>
      </g>
     </g>
     <g id="text_18">
      <!-- 7200 -->
      <g style="fill: #a9a9a9" transform="translate(75.55 58.191201) scale(0.1 -0.1)">
       <use xlink:href="#DejaVuSans-37"/>
       <use xlink:href="#DejaVuSans-32" transform="translate(63.623047 0)"/>
       <use xlink:href="#DejaVuSans-30" transform="translate(127.246094 0)"/>
       <use xlink:href="#DejaVuSans-30" transform="translate(190.869141 0)"/>
      </g>
     </g>
    </g>
   </g>
   <g id="line2d_37">
    <path d="M 138.436364 307.729599 
L 141.339673 307.483196 
L 141.823558 307.271993 
L 143.759098 307.02559 
L 145.694638 306.638385 
L 146.662408 306.497583 
L 149.081833 306.286381 
L 150.049603 305.899176 
L 150.533487 305.265568 
L 151.017372 304.913563 
L 151.501257 303.822349 
L 151.985142 303.751949 
L 152.469027 303.364744 
L 153.436797 302.871937 
L 155.372337 301.323118 
L 157.307877 300.372706 
L 158.759532 299.703897 
L 159.243417 298.929487 
L 160.211187 298.225478 
L 160.695072 298.014276 
L 165.533921 297.310267 
L 166.017806 297.099064 
L 169.405001 296.817461 
L 171.340541 296.359855 
L 175.21162 295.831848 
L 175.695505 295.585445 
L 176.17939 295.515044 
L 177.14716 295.19824 
L 180.534355 294.635033 
L 181.502125 294.353429 
L 185.857089 293.61422 
L 186.824859 293.403017 
L 187.792629 293.367817 
L 189.728169 292.910211 
L 190.212054 292.241402 
L 191.663709 291.678195 
L 193.115363 291.29099 
L 193.599248 291.044587 
L 194.567018 290.868585 
L 196.502558 290.305378 
L 197.470328 290.234977 
L 198.438098 289.988574 
L 200.373638 289.495768 
L 200.857523 289.460567 
L 201.825293 289.002961 
L 202.309178 288.93256 
L 202.793063 288.686157 
L 208.115797 287.806146 
L 210.051337 287.242939 
L 210.535222 286.926135 
L 212.954647 286.116525 
L 213.922417 285.447716 
L 215.374071 285.166113 
L 227.95508 281.610867 
L 228.438965 281.610867 
L 228.92285 281.399665 
L 229.89062 281.294063 
L 230.374505 281.118061 
L 232.310045 281.04766 
L 233.277815 280.871658 
L 234.245585 280.378852 
L 235.697239 279.850845 
L 236.181124 279.534041 
L 237.148894 279.111636 
L 237.632779 278.865233 
L 238.600549 278.548429 
L 239.084434 278.407627 
L 240.052204 277.809219 
L 240.536089 277.281212 
L 241.503859 275.802794 
L 241.987744 275.661992 
L 242.471629 275.661992 
L 243.923284 274.817181 
L 244.407169 274.570778 
L 244.891054 274.465177 
L 245.374939 274.007571 
L 246.342708 273.620366 
L 247.310478 273.16276 
L 249.729903 270.100321 
L 252.633213 268.551502 
L 253.600983 267.777092 
L 254.084868 267.460288 
L 254.568753 266.756279 
L 255.052638 265.665065 
L 255.536523 264.925856 
L 256.020408 264.538651 
L 256.504293 264.327448 
L 260.375372 260.807403 
L 261.343142 259.927392 
L 264.246452 258.132169 
L 264.730337 257.956167 
L 266.181992 257.111356 
L 267.633646 256.160944 
L 269.569186 254.436122 
L 270.536956 254.048917 
L 271.504726 253.380109 
L 271.988611 253.098505 
L 272.472496 253.028104 
L 273.924151 252.218494 
L 274.408036 251.690487 
L 276.827461 250.388071 
L 277.311346 250.212069 
L 278.763 249.226456 
L 286.021275 246.656824 
L 286.989045 245.776812 
L 287.956815 245.319207 
L 288.924584 244.7912 
L 289.408469 244.509596 
L 290.376239 244.227993 
L 290.860124 243.911189 
L 291.344009 243.770387 
L 292.795664 242.819975 
L 295.215089 242.256768 
L 296.666744 241.411957 
L 298.118399 241.095153 
L 298.602284 240.954351 
L 300.053938 239.863137 
L 301.989478 239.335131 
L 302.473363 238.947926 
L 305.376673 237.962313 
L 306.344443 237.786311 
L 307.312213 237.399106 
L 310.699407 236.16709 
L 311.667177 236.026289 
L 313.118832 235.533482 
L 315.538257 234.371868 
L 317.473797 233.315854 
L 321.344876 231.731834 
L 321.828761 231.661433 
L 322.796531 231.063026 
L 323.280416 230.992625 
L 325.215956 230.218215 
L 327.151496 229.971812 
L 328.119266 229.479005 
L 328.603151 229.0566 
L 329.087036 228.176589 
L 331.022576 227.648582 
L 332.47423 226.909373 
L 332.958115 226.803771 
L 336.829195 224.938148 
L 338.28085 224.656544 
L 339.24862 224.163738 
L 339.732505 223.952535 
L 340.21639 223.882134 
L 342.151929 223.002123 
L 343.603584 222.086912 
L 345.055239 221.805308 
L 347.474664 221.2069 
L 347.958549 220.819695 
L 349.410204 220.291689 
L 351.345744 219.517279 
L 351.829629 219.165274 
L 352.313514 218.989272 
L 353.281283 218.461266 
L 355.700708 217.651655 
L 357.152363 216.490041 
L 357.636248 216.384439 
L 358.604018 215.610029 
L 359.087903 215.539628 
L 359.571788 214.765219 
L 360.055673 214.554016 
L 360.539558 214.166811 
L 361.023443 214.09641 
L 361.991213 213.498003 
L 362.958983 213.181198 
L 363.442867 212.829194 
L 363.926752 212.653192 
L 365.378407 211.632379 
L 367.313947 210.611566 
L 367.797832 210.541165 
L 369.249487 209.801956 
L 369.733372 208.992345 
L 370.701142 208.288336 
L 371.185027 208.182735 
L 372.152797 207.584327 
L 372.636682 207.478726 
L 373.604452 206.98592 
L 375.539991 206.035508 
L 376.023876 205.683503 
L 376.991646 204.733091 
L 377.959416 204.134684 
L 378.443301 203.81788 
L 378.927186 203.289873 
L 380.862726 201.952256 
L 381.346611 201.389049 
L 381.830496 201.001844 
L 382.798266 200.649839 
L 383.766036 199.981031 
L 385.21769 199.241821 
L 385.701575 199.171421 
L 387.15323 198.397011 
L 388.121 197.798603 
L 392.95985 196.038581 
L 393.443735 195.651376 
L 395.379274 194.912167 
L 395.863159 194.771365 
L 396.830929 194.137757 
L 397.798699 193.715351 
L 398.766469 193.046543 
L 399.734239 191.110518 
L 400.702009 189.984104 
L 402.153664 189.244895 
L 403.121434 188.85769 
L 403.605319 188.787289 
L 404.089204 188.505685 
L 406.508628 187.731275 
L 406.992513 187.520073 
L 407.960283 186.851264 
L 409.411938 186.217656 
L 410.379708 185.689649 
L 410.863593 185.337645 
L 411.347478 185.126442 
L 411.831363 184.774438 
L 412.315248 184.246431 
L 413.283018 183.718424 
L 415.702443 182.416008 
L 418.605752 180.972789 
L 420.057407 180.550384 
L 421.509062 179.987177 
L 421.992947 179.635173 
L 422.960717 179.353569 
L 423.928487 178.966364 
L 424.412372 178.579159 
L 426.347912 177.910351 
L 427.315681 177.206342 
L 428.283451 176.783936 
L 429.251221 176.009526 
L 430.218991 175.657522 
L 430.702876 175.235117 
L 431.186761 175.164716 
L 432.154531 174.425506 
L 433.122301 173.9327 
L 433.606186 173.721497 
L 434.090071 173.228691 
L 437.477266 171.891074 
L 438.445035 171.468669 
L 439.89669 171.011063 
L 440.86446 170.870261 
L 441.348345 170.659059 
L 441.83223 170.588658 
L 442.8 170.166252 
L 443.283885 170.131052 
L 445.219425 169.391842 
L 446.67108 168.371029 
L 447.154965 168.195027 
L 448.122734 167.667021 
L 448.606619 167.526219 
L 451.509929 165.906998 
L 451.993814 165.801397 
L 453.445469 164.956586 
L 454.897124 164.46378 
L 455.864894 164.146976 
L 457.800434 163.513368 
L 458.768203 163.196564 
L 460.703743 162.809359 
L 461.187628 162.598156 
L 461.671513 162.527755 
L 462.639283 162.10535 
L 463.123168 162.034949 
L 463.607053 161.788546 
L 464.574823 161.612544 
L 466.026478 161.084537 
L 466.994248 160.978936 
L 468.445903 160.662132 
L 470.865327 160.239726 
L 483.446336 156.57888 
L 483.930221 156.086073 
L 484.897991 155.698869 
L 488.769071 154.25565 
L 489.252956 153.974047 
L 490.70461 153.551641 
L 491.67238 153.305238 
L 492.156265 152.988434 
L 492.64015 152.882833 
L 493.124035 152.460427 
L 494.57569 152.178824 
L 495.54346 151.721218 
L 496.027345 151.158011 
L 497.962885 150.700405 
L 501.350079 149.996396 
L 501.833964 149.996396 
L 502.317849 149.785193 
L 504.253389 149.433189 
L 504.737274 149.221986 
L 506.672814 148.869982 
L 507.640584 148.447576 
L 508.608354 148.271574 
L 511.027779 147.673167 
L 512.963318 147.074759 
L 513.447203 146.969158 
L 513.931088 146.722755 
L 514.898858 146.476351 
L 515.382743 146.194748 
L 516.834398 145.701942 
L 517.318283 145.385138 
L 518.286053 145.103534 
L 522.157133 143.765917 
L 523.124902 143.695516 
L 525.060442 143.132309 
L 525.544327 142.850705 
L 526.512097 142.569102 
L 528.931522 141.477888 
L 529.415407 141.442688 
L 534.738141 139.577064 
L 537.157566 138.943456 
L 538.125336 138.48585 
L 539.576991 138.169046 
L 541.512531 136.585026 
L 542.480301 136.303422 
L 542.964186 135.916217 
L 545.867495 134.825003 
L 546.35138 134.508199 
L 547.31915 134.226596 
L 547.803035 133.909792 
L 550.22246 133.135382 
L 551.674115 132.290571 
L 552.158 132.18497 
L 554.577424 130.882553 
L 556.029079 130.248945 
L 556.512964 129.896941 
L 557.480734 129.580137 
L 558.448504 129.01693 
L 558.932389 128.840928 
L 559.416274 128.488923 
L 565.706778 126.271295 
L 566.190663 126.165694 
L 566.674548 125.84889 
L 568.610088 125.461685 
L 569.577858 125.07448 
L 572.481168 123.666462 
L 572.965053 123.596061 
L 574.416708 122.786451 
L 575.868362 122.293644 
L 579.255557 120.920827 
L 579.739442 120.780025 
L 580.223327 120.463221 
L 581.191097 120.35762 
L 581.674982 120.040816 
L 582.642752 119.864814 
L 583.610522 119.407208 
L 584.094407 119.196005 
L 584.578292 119.125604 
L 586.997716 118.175192 
L 588.449371 117.787987 
L 589.417141 117.541584 
L 590.868796 117.119179 
L 591.836566 116.731974 
L 593.772106 115.67596 
L 594.739876 115.288755 
L 595.223761 114.971951 
L 596.191531 114.760749 
L 596.675416 114.479145 
L 597.1593 114.373544 
L 598.610955 113.563934 
L 599.578725 113.176729 
L 601.514265 112.437519 
L 603.93369 111.627909 
L 604.90146 111.135103 
L 607.320885 110.325492 
L 610.224194 109.163878 
L 612.159734 108.283866 
L 616.998584 106.418243 
L 617.482469 106.101439 
L 619.418008 105.43263 
L 619.901893 105.43263 
L 620.869663 105.010225 
L 622.805203 103.461405 
L 623.289088 103.320603 
L 623.772973 103.003799 
L 624.256858 102.898198 
L 624.740743 102.651795 
L 625.224628 102.581394 
L 625.708513 102.22939 
L 626.192398 102.123788 
L 627.160168 101.525381 
L 628.611823 100.786171 
L 629.579592 100.398966 
L 630.063477 100.152563 
L 631.515132 99.835759 
L 633.934557 99.026149 
L 634.902327 98.709345 
L 636.353982 97.970135 
L 637.321752 97.51253 
L 638.289522 97.266127 
L 639.741176 96.597318 
L 644.096141 95.013298 
L 645.547796 94.133287 
L 646.031681 94.027685 
L 646.999451 93.57008 
L 647.967221 93.218075 
L 648.451106 92.79567 
L 649.418876 92.408465 
L 652.322185 91.24685 
L 653.77384 90.824445 
L 654.257725 90.578042 
L 654.74161 90.507641 
L 656.193265 89.979634 
L 657.64492 89.451627 
L 658.61269 89.064422 
L 659.096575 88.677217 
L 660.54823 88.290013 
L 661.032114 88.008409 
L 661.999884 87.762006 
L 663.451539 86.952396 
L 663.935424 86.917195 
L 665.387079 86.459589 
L 666.354849 86.389188 
L 667.322619 86.001984 
L 670.225929 85.157173 
L 671.193699 85.121972 
L 675.064778 83.889957 
L 676.032548 83.36195 
L 676.516433 82.939545 
L 677.968088 82.094734 
L 678.451973 81.742729 
L 679.419743 81.390725 
L 681.839168 80.616315 
L 682.323052 80.22911 
L 685.226362 79.032295 
L 687.161902 78.504288 
L 688.129672 78.081883 
L 688.613557 77.83548 
L 689.581327 77.553876 
L 690.065212 77.272273 
L 691.032982 77.09627 
L 693.452406 75.969856 
L 693.936291 75.688253 
L 695.387946 75.336248 
L 695.871831 75.019444 
L 696.355716 74.843442 
L 696.839601 74.421036 
L 697.323486 74.350636 
L 699.259026 73.576226 
L 701.194566 73.11862 
L 701.678451 73.048219 
L 702.162336 72.837016 
L 702.646221 72.801816 
L 703.61399 72.485012 
L 704.097875 72.449811 
L 705.54953 71.886604 
L 707.48507 71.323397 
L 708.45284 70.584188 
L 710.38838 69.528174 
L 711.840035 69.035368 
L 714.743344 67.732952 
L 715.711114 67.204945 
L 716.194999 66.958542 
L 716.678884 66.500936 
L 719.582194 65.550524 
L 720.549964 65.163319 
L 721.517734 64.881715 
L 722.001619 64.635312 
L 722.485504 64.212907 
L 724.421044 63.720101 
L 724.904928 63.368096 
L 731.195433 61.080067 
L 732.163203 60.904065 
L 736.518167 59.390446 
L 737.485937 59.144042 
L 737.969822 58.93284 
L 738.453707 58.897639 
L 739.421477 58.510434 
L 740.389247 57.912027 
L 740.873132 57.736025 
L 741.357017 57.700824 
L 742.808672 57.067216 
L 744.260327 56.539209 
L 744.744212 56.468808 
L 745.711982 56.081604 
L 747.163636 55.8 
L 747.163636 55.8 
" clip-path="url(#p2f89e92b67)" style="fill: none; stroke: #1f77b4; stroke-width: 1.5; stroke-linecap: square"/>
   </g>
   <g id="line2d_38">
    <path d="M 138.920249 307.8 
L 143.275213 307.694399 
L 147.146293 307.518396 
L 149.081833 307.518396 
L 149.565718 307.377595 
L 151.985142 307.271993 
L 154.888452 306.955189 
L 157.791762 306.849588 
L 158.759532 306.743987 
L 162.146726 306.603185 
L 165.533921 306.497583 
L 167.953346 306.427183 
L 174.24385 306.321581 
L 176.663275 306.25118 
L 180.05047 306.145579 
L 182.469894 306.075178 
L 187.792629 305.969577 
L 189.728169 305.793575 
L 191.663709 305.758374 
L 194.567018 305.652773 
L 196.502558 305.617572 
L 198.921983 305.547171 
L 200.857523 305.371169 
L 205.212487 305.265568 
L 206.180257 305.195167 
L 208.115797 305.089566 
L 211.019107 304.983964 
L 212.954647 304.878363 
L 221.664576 304.350356 
L 225.05177 304.244755 
L 226.503425 304.103953 
L 228.92285 303.998352 
L 233.7617 303.751949 
L 238.600549 303.681548 
L 240.536089 303.470345 
L 242.471629 303.364744 
L 247.794363 302.871937 
L 251.181558 302.484733 
L 252.633213 302.414332 
L 256.504293 301.921525 
L 259.407602 301.851124 
L 260.859257 301.710323 
L 262.310912 301.604721 
L 275.859691 300.583908 
L 276.827461 300.407906 
L 279.73077 300.302305 
L 287.47293 299.844699 
L 290.860124 299.739098 
L 292.795664 299.527895 
L 295.215089 299.422294 
L 298.118399 299.316692 
L 300.537823 299.211091 
L 302.473363 299.17589 
L 304.892788 299.10549 
L 305.860558 298.964688 
L 312.634947 298.859086 
L 313.602717 298.753485 
L 319.409337 298.647884 
L 323.764301 298.436681 
L 327.151496 298.33108 
L 329.087036 298.119877 
L 332.47423 298.014276 
L 333.442 297.838274 
L 335.861425 297.767873 
L 340.700275 297.697472 
L 342.635814 297.521469 
L 344.571354 297.486269 
L 346.023009 297.380668 
L 347.958549 297.204665 
L 352.797398 296.958262 
L 357.636248 296.852661 
L 361.991213 296.641458 
L 363.442867 296.606258 
L 364.410637 296.465456 
L 366.830062 296.359855 
L 367.797832 296.289454 
L 368.765602 296.219053 
L 369.733372 296.148652 
L 374.088336 296.078251 
L 375.539991 295.97265 
L 388.604885 295.127839 
L 391.02431 295.022238 
L 393.443735 294.951837 
L 400.218124 294.846236 
L 401.185894 294.705434 
L 407.960283 294.599832 
L 412.799133 294.353429 
L 413.766903 294.318229 
L 414.734673 294.212627 
L 417.154097 294.107026 
L 419.573522 294.036625 
L 421.992947 293.931024 
L 424.412372 293.860623 
L 428.767336 293.755022 
L 431.670646 293.64942 
L 438.445035 293.543819 
L 443.76777 293.262215 
L 445.70331 293.191814 
L 447.154965 293.086213 
L 453.929354 292.980612 
L 456.832664 292.87501 
L 465.542593 292.769409 
L 467.478133 292.734209 
L 473.284752 292.663808 
L 474.252522 292.593407 
L 481.026911 292.487806 
L 482.962451 292.452605 
L 495.54346 292.347004 
L 496.995115 292.206202 
L 518.769938 292.100601 
L 521.189363 292.0302 
L 533.770371 291.959799 
L 534.738141 291.889398 
L 537.157566 291.818997 
L 538.609221 291.678195 
L 541.512531 291.572594 
L 544.899725 291.431792 
L 549.25469 291.326191 
L 551.674115 291.25579 
L 555.061309 291.150189 
L 558.932389 290.974186 
L 561.351814 290.868585 
L 563.287354 290.833385 
L 567.642318 290.727783 
L 569.577858 290.692583 
L 575.868362 290.586981 
L 577.803902 290.551781 
L 580.223327 290.44618 
L 583.126637 290.340578 
L 586.513831 290.270177 
L 587.481601 290.199777 
L 599.09484 290.094175 
L 605.385345 289.742171 
L 607.804769 289.67177 
L 608.772539 289.566168 
L 609.740309 289.495768 
L 613.611389 289.390166 
L 616.514699 289.284565 
L 621.353548 289.178964 
L 623.772973 288.93256 
L 628.611823 288.826959 
L 629.579592 288.721358 
L 634.418442 288.615756 
L 636.837867 288.545355 
L 642.160601 288.510155 
L 643.128371 288.404554 
L 648.451106 288.298952 
L 649.418876 288.228551 
L 660.064345 288.12295 
L 662.967654 288.017349 
L 670.225929 287.911747 
L 672.161468 287.876547 
L 676.516433 287.806146 
L 677.484203 287.700545 
L 683.774707 287.594943 
L 686.194132 287.524543 
L 694.904061 287.418941 
L 696.355716 287.31334 
L 697.807371 287.207739 
L 699.259026 287.102137 
L 706.5173 286.996536 
L 709.42061 286.890934 
L 722.485504 286.785333 
L 726.840468 286.57413 
L 732.647088 286.468529 
L 733.614858 286.362928 
L 740.873132 286.292527 
L 741.840902 286.222126 
L 747.163636 286.116525 
L 747.163636 286.116525 
" clip-path="url(#p2f89e92b67)" style="fill: none; stroke: #ff7f0e; stroke-width: 1.5; stroke-linecap: square"/>
   </g>
   <g id="patch_3">
    <path d="M 108 320.4 
L 108 43.2 
" style="fill: none; stroke: #a9a9a9; stroke-width: 0.8; stroke-linejoin: miter; stroke-linecap: square"/>
   </g>
   <g id="patch_4">
    <path d="M 777.6 320.4 
L 777.6 43.2 
" style="fill: none"/>
   </g>
   <g id="patch_5">
    <path d="M 108 320.4 
L 777.6 320.4 
" style="fill: none; stroke: #a9a9a9; stroke-width: 0.8; stroke-linejoin: miter; stroke-linecap: square"/>
   </g>
   <g id="patch_6">
    <path d="M 108 43.2 
L 777.6 43.2 
" style="fill: none"/>
   </g>
   <g id="text_19">
    <!-- get_subscribe history -->
    <g style="fill: #a9a9a9" transform="translate(378.6075 37.2) scale(0.12 -0.12)">
     <defs>
      <path id="DejaVuSans-67" d="M 2906 1791 
Q 2906 2416 2648 2759 
Q 2391 3103 1925 3103 
Q 1463 3103 1205 2759 
Q 947 2416 947 1791 
Q 947 1169 1205 825 
Q 1463 481 1925 481 
Q 2391 481 2648 825 
Q 2906 1169 2906 1791 
z
M 3481 434 
Q 3481 -459 3084 -895 
Q 2688 -1331 1869 -1331 
Q 1566 -1331 1297 -1286 
Q 1028 -1241 775 -1147 
L 775 -588 
Q 1028 -725 1275 -790 
Q 1522 -856 1778 -856 
Q 2344 -856 2625 -561 
Q 2906 -266 2906 331 
L 2906 616 
Q 2728 306 2450 153 
Q 2172 0 1784 0 
Q 1141 0 747 490 
Q 353 981 353 1791 
Q 353 2603 747 3093 
Q 1141 3584 1784 3584 
Q 2172 3584 2450 3431 
Q 2728 3278 2906 2969 
L 2906 3500 
L 3481 3500 
L 3481 434 
z
" transform="scale(0.015625)"/>
      <path id="DejaVuSans-65" d="M 3597 1894 
L 3597 1613 
L 953 1613 
Q 991 1019 1311 708 
Q 1631 397 2203 397 
Q 2534 397 2845 478 
Q 3156 559 3463 722 
L 3463 178 
Q 3153 47 2828 -22 
Q 2503 -91 2169 -91 
Q 1331 -91 842 396 
Q 353 884 353 1716 
Q 353 2575 817 3079 
Q 1281 3584 2069 3584 
Q 2775 3584 3186 3129 
Q 3597 2675 3597 1894 
z
M 3022 2063 
Q 3016 2534 2758 2815 
Q 2500 3097 2075 3097 
Q 1594 3097 1305 2825 
Q 1016 2553 972 2059 
L 3022 2063 
z
" transform="scale(0.015625)"/>
      <path id="DejaVuSans-74" d="M 1172 4494 
L 1172 3500 
L 2356 3500 
L 2356 3053 
L 1172 3053 
L 1172 1153 
Q 1172 725 1289 603 
Q 1406 481 1766 481 
L 2356 481 
L 2356 0 
L 1766 0 
Q 1100 0 847 248 
Q 594 497 594 1153 
L 594 3053 
L 172 3053 
L 172 3500 
L 594 3500 
L 594 4494 
L 1172 4494 
z
" transform="scale(0.015625)"/>
      <path id="DejaVuSans-5f" d="M 3263 -1063 
L 3263 -1509 
L -63 -1509 
L -63 -1063 
L 3263 -1063 
z
" transform="scale(0.015625)"/>
      <path id="DejaVuSans-73" d="M 2834 3397 
L 2834 2853 
Q 2591 2978 2328 3040 
Q 2066 3103 1784 3103 
Q 1356 3103 1142 2972 
Q 928 2841 928 2578 
Q 928 2378 1081 2264 
Q 1234 2150 1697 2047 
L 1894 2003 
Q 2506 1872 2764 1633 
Q 3022 1394 3022 966 
Q 3022 478 2636 193 
Q 2250 -91 1575 -91 
Q 1294 -91 989 -36 
Q 684 19 347 128 
L 347 722 
Q 666 556 975 473 
Q 1284 391 1588 391 
Q 1994 391 2212 530 
Q 2431 669 2431 922 
Q 2431 1156 2273 1281 
Q 2116 1406 1581 1522 
L 1381 1569 
Q 847 1681 609 1914 
Q 372 2147 372 2553 
Q 372 3047 722 3315 
Q 1072 3584 1716 3584 
Q 2034 3584 2315 3537 
Q 2597 3491 2834 3397 
z
" transform="scale(0.015625)"/>
      <path id="DejaVuSans-75" d="M 544 1381 
L 544 3500 
L 1119 3500 
L 1119 1403 
Q 1119 906 1312 657 
Q 1506 409 1894 409 
Q 2359 409 2629 706 
Q 2900 1003 2900 1516 
L 2900 3500 
L 3475 3500 
L 3475 0 
L 2900 0 
L 2900 538 
Q 2691 219 2414 64 
Q 2138 -91 1772 -91 
Q 1169 -91 856 284 
Q 544 659 544 1381 
z
M 1991 3584 
L 1991 3584 
z
" transform="scale(0.015625)"/>
      <path id="DejaVuSans-62" d="M 3116 1747 
Q 3116 2381 2855 2742 
Q 2594 3103 2138 3103 
Q 1681 3103 1420 2742 
Q 1159 2381 1159 1747 
Q 1159 1113 1420 752 
Q 1681 391 2138 391 
Q 2594 391 2855 752 
Q 3116 1113 3116 1747 
z
M 1159 2969 
Q 1341 3281 1617 3432 
Q 1894 3584 2278 3584 
Q 2916 3584 3314 3078 
Q 3713 2572 3713 1747 
Q 3713 922 3314 415 
Q 2916 -91 2278 -91 
Q 1894 -91 1617 61 
Q 1341 213 1159 525 
L 1159 0 
L 581 0 
L 581 4863 
L 1159 4863 
L 1159 2969 
z
" transform="scale(0.015625)"/>
      <path id="DejaVuSans-63" d="M 3122 3366 
L 3122 2828 
Q 2878 2963 2633 3030 
Q 2388 3097 2138 3097 
Q 1578 3097 1268 2742 
Q 959 2388 959 1747 
Q 959 1106 1268 751 
Q 1578 397 2138 397 
Q 2388 397 2633 464 
Q 2878 531 3122 666 
L 3122 134 
Q 2881 22 2623 -34 
Q 2366 -91 2075 -91 
Q 1284 -91 818 406 
Q 353 903 353 1747 
Q 353 2603 823 3093 
Q 1294 3584 2113 3584 
Q 2378 3584 2631 3529 
Q 2884 3475 3122 3366 
z
" transform="scale(0.015625)"/>
      <path id="DejaVuSans-72" d="M 2631 2963 
Q 2534 3019 2420 3045 
Q 2306 3072 2169 3072 
Q 1681 3072 1420 2755 
Q 1159 2438 1159 1844 
L 1159 0 
L 581 0 
L 581 3500 
L 1159 3500 
L 1159 2956 
Q 1341 3275 1631 3429 
Q 1922 3584 2338 3584 
Q 2397 3584 2469 3576 
Q 2541 3569 2628 3553 
L 2631 2963 
z
" transform="scale(0.015625)"/>
      <path id="DejaVuSans-69" d="M 603 3500 
L 1178 3500 
L 1178 0 
L 603 0 
L 603 3500 
z
M 603 4863 
L 1178 4863 
L 1178 4134 
L 603 4134 
L 603 4863 
z
" transform="scale(0.015625)"/>
      <path id="DejaVuSans-20" transform="scale(0.015625)"/>
      <path id="DejaVuSans-68" d="M 3513 2113 
L 3513 0 
L 2938 0 
L 2938 2094 
Q 2938 2591 2744 2837 
Q 2550 3084 2163 3084 
Q 1697 3084 1428 2787 
Q 1159 2491 1159 1978 
L 1159 0 
L 581 0 
L 581 4863 
L 1159 4863 
L 1159 2956 
Q 1366 3272 1645 3428 
Q 1925 3584 2291 3584 
Q 2894 3584 3203 3211 
Q 3513 2838 3513 2113 
z
" transform="scale(0.015625)"/>
      <path id="DejaVuSans-6f" d="M 1959 3097 
Q 1497 3097 1228 2736 
Q 959 2375 959 1747 
Q 959 1119 1226 758 
Q 1494 397 1959 397 
Q 2419 397 2687 759 
Q 2956 1122 2956 1747 
Q 2956 2369 2687 2733 
Q 2419 3097 1959 3097 
z
M 1959 3584 
Q 2709 3584 3137 3096 
Q 3566 2609 3566 1747 
Q 3566 888 3137 398 
Q 2709 -91 1959 -91 
Q 1206 -91 779 398 
Q 353 888 353 1747 
Q 353 2609 779 3096 
Q 1206 3584 1959 3584 
z
" transform="scale(0.015625)"/>
      <path id="DejaVuSans-79" d="M 2059 -325 
Q 1816 -950 1584 -1140 
Q 1353 -1331 966 -1331 
L 506 -1331 
L 506 -850 
L 844 -850 
Q 1081 -850 1212 -737 
Q 1344 -625 1503 -206 
L 1606 56 
L 191 3500 
L 800 3500 
L 1894 763 
L 2988 3500 
L 3597 3500 
L 2059 -325 
z
" transform="scale(0.015625)"/>
     </defs>
     <use xlink:href="#DejaVuSans-67"/>
     <use xlink:href="#DejaVuSans-65" transform="translate(63.476562 0)"/>
     <use xlink:href="#DejaVuSans-74" transform="translate(125 0)"/>
     <use xlink:href="#DejaVuSans-5f" transform="translate(164.208984 0)"/>
     <use xlink:href="#DejaVuSans-73" transform="translate(214.208984 0)"/>
     <use xlink:href="#DejaVuSans-75" transform="translate(266.308594 0)"/>
     <use xlink:href="#DejaVuSans-62" transform="translate(329.6875 0)"/>
     <use xlink:href="#DejaVuSans-73" transform="translate(393.164062 0)"/>
     <use xlink:href="#DejaVuSans-63" transform="translate(445.263672 0)"/>
     <use xlink:href="#DejaVuSans-72" transform="translate(500.244141 0)"/>
     <use xlink:href="#DejaVuSans-69" transform="translate(541.357422 0)"/>
     <use xlink:href="#DejaVuSans-62" transform="translate(569.140625 0)"/>
     <use xlink:href="#DejaVuSans-65" transform="translate(632.617188 0)"/>
     <use xlink:href="#DejaVuSans-20" transform="translate(694.140625 0)"/>
     <use xlink:href="#DejaVuSans-68" transform="translate(725.927734 0)"/>
     <use xlink:href="#DejaVuSans-69" transform="translate(789.306641 0)"/>
     <use xlink:href="#DejaVuSans-73" transform="translate(817.089844 0)"/>
     <use xlink:href="#DejaVuSans-74" transform="translate(869.189453 0)"/>
     <use xlink:href="#DejaVuSans-6f" transform="translate(908.398438 0)"/>
     <use xlink:href="#DejaVuSans-72" transform="translate(969.580078 0)"/>
     <use xlink:href="#DejaVuSans-79" transform="translate(1010.693359 0)"/>
    </g>
   </g>
   <g id="legend_1">
    <g id="line2d_39">
     <path d="M 815.08 328.498438 
L 825.08 328.498438 
L 835.08 328.498438 
" style="fill: none; stroke: #1f77b4; stroke-width: 1.5; stroke-linecap: square"/>
    </g>
    <g id="text_20">
     <!-- star -->
     <g style="fill: #a9a9a9" transform="translate(843.08 331.998438) scale(0.1 -0.1)">
      <defs>
       <path id="DejaVuSans-61" d="M 2194 1759 
Q 1497 1759 1228 1600 
Q 959 1441 959 1056 
Q 959 750 1161 570 
Q 1363 391 1709 391 
Q 2188 391 2477 730 
Q 2766 1069 2766 1631 
L 2766 1759 
L 2194 1759 
z
M 3341 1997 
L 3341 0 
L 2766 0 
L 2766 531 
Q 2569 213 2275 61 
Q 1981 -91 1556 -91 
Q 1019 -91 701 211 
Q 384 513 384 1019 
Q 384 1609 779 1909 
Q 1175 2209 1959 2209 
L 2766 2209 
L 2766 2266 
Q 2766 2663 2505 2880 
Q 2244 3097 1772 3097 
Q 1472 3097 1187 3025 
Q 903 2953 641 2809 
L 641 3341 
Q 956 3463 1253 3523 
Q 1550 3584 1831 3584 
Q 2591 3584 2966 3190 
Q 3341 2797 3341 1997 
z
" transform="scale(0.015625)"/>
      </defs>
      <use xlink:href="#DejaVuSans-73"/>
      <use xlink:href="#DejaVuSans-74" transform="translate(52.099609 0)"/>
      <use xlink:href="#DejaVuSans-61" transform="translate(91.308594 0)"/>
      <use xlink:href="#DejaVuSans-72" transform="translate(152.587891 0)"/>
     </g>
    </g>
    <g id="line2d_40">
     <path d="M 815.08 343.176562 
L 825.08 343.176562 
L 835.08 343.176562 
" style="fill: none; stroke: #ff7f0e; stroke-width: 1.5; stroke-linecap: square"/>
    </g>
    <g id="text_21">
     <!-- fork -->
     <g style="fill: #a9a9a9" transform="translate(843.08 346.676562) scale(0.1 -0.1)">
      <defs>
       <path id="DejaVuSans-66" d="M 2375 4863 
L 2375 4384 
L 1825 4384 
Q 1516 4384 1395 4259 
Q 1275 4134 1275 3809 
L 1275 3500 
L 2222 3500 
L 2222 3053 
L 1275 3053 
L 1275 0 
L 697 0 
L 697 3053 
L 147 3053 
L 147 3500 
L 697 3500 
L 697 3744 
Q 697 4328 969 4595 
Q 1241 4863 1831 4863 
L 2375 4863 
z
" transform="scale(0.015625)"/>
       <path id="DejaVuSans-6b" d="M 581 4863 
L 1159 4863 
L 1159 1991 
L 2875 3500 
L 3609 3500 
L 1753 1863 
L 3688 0 
L 2938 0 
L 1159 1709 
L 1159 0 
L 581 0 
L 581 4863 
z
" transform="scale(0.015625)"/>
      </defs>
      <use xlink:href="#DejaVuSans-66"/>
      <use xlink:href="#DejaVuSans-6f" transform="translate(35.205078 0)"/>
      <use xlink:href="#DejaVuSans-72" transform="translate(96.386719 0)"/>
      <use xlink:href="#DejaVuSans-6b" transform="translate(137.5 0)"/>
     </g>
    </g>
   </g>
  </g>
 </g>
 <defs>
  <clipPath id="p2f89e92b67">
   <rect x="108" y="43.2" width="669.6" height="277.2"/>
  </clipPath>
 </defs>
</svg>
