<?xml version="1.0" encoding="utf-8" standalone="no"?>
<!DOCTYPE svg PUBLIC "-//W3C//DTD SVG 1.1//EN"
  "http://www.w3.org/Graphics/SVG/1.1/DTD/svg11.dtd">
<svg xmlns:xlink="http://www.w3.org/1999/xlink" width="864pt" height="360pt" viewBox="0 0 864 360" xmlns="http://www.w3.org/2000/svg" version="1.1">
 <metadata>
  <rdf:RDF xmlns:dc="http://purl.org/dc/elements/1.1/" xmlns:cc="http://creativecommons.org/ns#" xmlns:rdf="http://www.w3.org/1999/02/22-rdf-syntax-ns#">
   <cc:Work>
    <dc:type rdf:resource="http://purl.org/dc/dcmitype/StillImage"/>
    <dc:date>2024-12-19T09:15:20.319925</dc:date>
    <dc:format>image/svg+xml</dc:format>
    <dc:creator>
     <cc:Agent>
      <dc:title>Matplotlib v3.10.0, https://matplotlib.org/</dc:title>
     </cc:Agent>
    </dc:creator>
   </cc:Work>
  </rdf:RDF>
 </metadata>
 <defs>
  <style type="text/css">*{stroke-linejoin: round; stroke-linecap: butt}</style>
 </defs>
 <g id="figure_1">
  <g id="patch_1">
   <path d="M 0 360 
L 864 360 
L 864 0 
L 0 0 
L 0 360 
z
" style="fill: none; opacity: 0"/>
  </g>
  <g id="axes_1">
   <g id="patch_2">
    <path d="M 108 320.4 
L 777.6 320.4 
L 777.6 43.2 
L 108 43.2 
L 108 320.4 
z
" style="fill: none; opacity: 0"/>
   </g>
   <g id="matplotlib.axis_1">
    <g id="xtick_1">
     <g id="line2d_1">
      <path d="M 157.520257 320.4 
L 157.520257 43.2 
" clip-path="url(#p02e597fb0f)" style="fill: none; stroke-dasharray: 5.12,1.28,0.8,1.28; stroke-dashoffset: 0; stroke: #b0b0b0; stroke-width: 0.8"/>
     </g>
     <g id="line2d_2">
      <defs>
       <path id="mfce74c6545" d="M 0 0 
L 0 3.5 
" style="stroke: #a9a9a9; stroke-width: 0.8"/>
      </defs>
      <g>
       <use xlink:href="#mfce74c6545" x="157.520257" y="320.4" style="fill: #a9a9a9; stroke: #a9a9a9; stroke-width: 0.8"/>
      </g>
     </g>
     <g id="text_1">
      <!-- 2021-09 -->
      <g style="fill: #a9a9a9" transform="translate(136.628851 334.998438) scale(0.1 -0.1)">
       <defs>
        <path id="DejaVuSans-32" d="M 1228 531 
L 3431 531 
L 3431 0 
L 469 0 
L 469 531 
Q 828 903 1448 1529 
Q 2069 2156 2228 2338 
Q 2531 2678 2651 2914 
Q 2772 3150 2772 3378 
Q 2772 3750 2511 3984 
Q 2250 4219 1831 4219 
Q 1534 4219 1204 4116 
Q 875 4013 500 3803 
L 500 4441 
Q 881 4594 1212 4672 
Q 1544 4750 1819 4750 
Q 2544 4750 2975 4387 
Q 3406 4025 3406 3419 
Q 3406 3131 3298 2873 
Q 3191 2616 2906 2266 
Q 2828 2175 2409 1742 
Q 1991 1309 1228 531 
z
" transform="scale(0.015625)"/>
        <path id="DejaVuSans-30" d="M 2034 4250 
Q 1547 4250 1301 3770 
Q 1056 3291 1056 2328 
Q 1056 1369 1301 889 
Q 1547 409 2034 409 
Q 2525 409 2770 889 
Q 3016 1369 3016 2328 
Q 3016 3291 2770 3770 
Q 2525 4250 2034 4250 
z
M 2034 4750 
Q 2819 4750 3233 4129 
Q 3647 3509 3647 2328 
Q 3647 1150 3233 529 
Q 2819 -91 2034 -91 
Q 1250 -91 836 529 
Q 422 1150 422 2328 
Q 422 3509 836 4129 
Q 1250 4750 2034 4750 
z
" transform="scale(0.015625)"/>
        <path id="DejaVuSans-31" d="M 794 531 
L 1825 531 
L 1825 4091 
L 703 3866 
L 703 4441 
L 1819 4666 
L 2450 4666 
L 2450 531 
L 3481 531 
L 3481 0 
L 794 0 
L 794 531 
z
" transform="scale(0.015625)"/>
        <path id="DejaVuSans-2d" d="M 313 2009 
L 1997 2009 
L 1997 1497 
L 313 1497 
L 313 2009 
z
" transform="scale(0.015625)"/>
        <path id="DejaVuSans-39" d="M 703 97 
L 703 672 
Q 941 559 1184 500 
Q 1428 441 1663 441 
Q 2288 441 2617 861 
Q 2947 1281 2994 2138 
Q 2813 1869 2534 1725 
Q 2256 1581 1919 1581 
Q 1219 1581 811 2004 
Q 403 2428 403 3163 
Q 403 3881 828 4315 
Q 1253 4750 1959 4750 
Q 2769 4750 3195 4129 
Q 3622 3509 3622 2328 
Q 3622 1225 3098 567 
Q 2575 -91 1691 -91 
Q 1453 -91 1209 -44 
Q 966 3 703 97 
z
M 1959 2075 
Q 2384 2075 2632 2365 
Q 2881 2656 2881 3163 
Q 2881 3666 2632 3958 
Q 2384 4250 1959 4250 
Q 1534 4250 1286 3958 
Q 1038 3666 1038 3163 
Q 1038 2656 1286 2365 
Q 1534 2075 1959 2075 
z
" transform="scale(0.015625)"/>
       </defs>
       <use xlink:href="#DejaVuSans-32"/>
       <use xlink:href="#DejaVuSans-30" transform="translate(63.623047 0)"/>
       <use xlink:href="#DejaVuSans-32" transform="translate(127.246094 0)"/>
       <use xlink:href="#DejaVuSans-31" transform="translate(190.869141 0)"/>
       <use xlink:href="#DejaVuSans-2d" transform="translate(254.492188 0)"/>
       <use xlink:href="#DejaVuSans-30" transform="translate(290.576172 0)"/>
       <use xlink:href="#DejaVuSans-39" transform="translate(354.199219 0)"/>
      </g>
     </g>
    </g>
    <g id="xtick_2">
     <g id="line2d_3">
      <path d="M 217.218591 320.4 
L 217.218591 43.2 
" clip-path="url(#p02e597fb0f)" style="fill: none; stroke-dasharray: 5.12,1.28,0.8,1.28; stroke-dashoffset: 0; stroke: #b0b0b0; stroke-width: 0.8"/>
     </g>
     <g id="line2d_4">
      <g>
       <use xlink:href="#mfce74c6545" x="217.218591" y="320.4" style="fill: #a9a9a9; stroke: #a9a9a9; stroke-width: 0.8"/>
      </g>
     </g>
     <g id="text_2">
      <!-- 2022-01 -->
      <g style="fill: #a9a9a9" transform="translate(196.327185 334.998438) scale(0.1 -0.1)">
       <use xlink:href="#DejaVuSans-32"/>
       <use xlink:href="#DejaVuSans-30" transform="translate(63.623047 0)"/>
       <use xlink:href="#DejaVuSans-32" transform="translate(127.246094 0)"/>
       <use xlink:href="#DejaVuSans-32" transform="translate(190.869141 0)"/>
       <use xlink:href="#DejaVuSans-2d" transform="translate(254.492188 0)"/>
       <use xlink:href="#DejaVuSans-30" transform="translate(290.576172 0)"/>
       <use xlink:href="#DejaVuSans-31" transform="translate(354.199219 0)"/>
      </g>
     </g>
    </g>
    <g id="xtick_3">
     <g id="line2d_5">
      <path d="M 275.938264 320.4 
L 275.938264 43.2 
" clip-path="url(#p02e597fb0f)" style="fill: none; stroke-dasharray: 5.12,1.28,0.8,1.28; stroke-dashoffset: 0; stroke: #b0b0b0; stroke-width: 0.8"/>
     </g>
     <g id="line2d_6">
      <g>
       <use xlink:href="#mfce74c6545" x="275.938264" y="320.4" style="fill: #a9a9a9; stroke: #a9a9a9; stroke-width: 0.8"/>
      </g>
     </g>
     <g id="text_3">
      <!-- 2022-05 -->
      <g style="fill: #a9a9a9" transform="translate(255.046857 334.998438) scale(0.1 -0.1)">
       <defs>
        <path id="DejaVuSans-35" d="M 691 4666 
L 3169 4666 
L 3169 4134 
L 1269 4134 
L 1269 2991 
Q 1406 3038 1543 3061 
Q 1681 3084 1819 3084 
Q 2600 3084 3056 2656 
Q 3513 2228 3513 1497 
Q 3513 744 3044 326 
Q 2575 -91 1722 -91 
Q 1428 -91 1123 -41 
Q 819 9 494 109 
L 494 744 
Q 775 591 1075 516 
Q 1375 441 1709 441 
Q 2250 441 2565 725 
Q 2881 1009 2881 1497 
Q 2881 1984 2565 2268 
Q 2250 2553 1709 2553 
Q 1456 2553 1204 2497 
Q 953 2441 691 2322 
L 691 4666 
z
" transform="scale(0.015625)"/>
       </defs>
       <use xlink:href="#DejaVuSans-32"/>
       <use xlink:href="#DejaVuSans-30" transform="translate(63.623047 0)"/>
       <use xlink:href="#DejaVuSans-32" transform="translate(127.246094 0)"/>
       <use xlink:href="#DejaVuSans-32" transform="translate(190.869141 0)"/>
       <use xlink:href="#DejaVuSans-2d" transform="translate(254.492188 0)"/>
       <use xlink:href="#DejaVuSans-30" transform="translate(290.576172 0)"/>
       <use xlink:href="#DejaVuSans-35" transform="translate(354.199219 0)"/>
      </g>
     </g>
    </g>
    <g id="xtick_4">
     <g id="line2d_7">
      <path d="M 336.125928 320.4 
L 336.125928 43.2 
" clip-path="url(#p02e597fb0f)" style="fill: none; stroke-dasharray: 5.12,1.28,0.8,1.28; stroke-dashoffset: 0; stroke: #b0b0b0; stroke-width: 0.8"/>
     </g>
     <g id="line2d_8">
      <g>
       <use xlink:href="#mfce74c6545" x="336.125928" y="320.4" style="fill: #a9a9a9; stroke: #a9a9a9; stroke-width: 0.8"/>
      </g>
     </g>
     <g id="text_4">
      <!-- 2022-09 -->
      <g style="fill: #a9a9a9" transform="translate(315.234522 334.998438) scale(0.1 -0.1)">
       <use xlink:href="#DejaVuSans-32"/>
       <use xlink:href="#DejaVuSans-30" transform="translate(63.623047 0)"/>
       <use xlink:href="#DejaVuSans-32" transform="translate(127.246094 0)"/>
       <use xlink:href="#DejaVuSans-32" transform="translate(190.869141 0)"/>
       <use xlink:href="#DejaVuSans-2d" transform="translate(254.492188 0)"/>
       <use xlink:href="#DejaVuSans-30" transform="translate(290.576172 0)"/>
       <use xlink:href="#DejaVuSans-39" transform="translate(354.199219 0)"/>
      </g>
     </g>
    </g>
    <g id="xtick_5">
     <g id="line2d_9">
      <path d="M 395.824262 320.4 
L 395.824262 43.2 
" clip-path="url(#p02e597fb0f)" style="fill: none; stroke-dasharray: 5.12,1.28,0.8,1.28; stroke-dashoffset: 0; stroke: #b0b0b0; stroke-width: 0.8"/>
     </g>
     <g id="line2d_10">
      <g>
       <use xlink:href="#mfce74c6545" x="395.824262" y="320.4" style="fill: #a9a9a9; stroke: #a9a9a9; stroke-width: 0.8"/>
      </g>
     </g>
     <g id="text_5">
      <!-- 2023-01 -->
      <g style="fill: #a9a9a9" transform="translate(374.932856 334.998438) scale(0.1 -0.1)">
       <defs>
        <path id="DejaVuSans-33" d="M 2597 2516 
Q 3050 2419 3304 2112 
Q 3559 1806 3559 1356 
Q 3559 666 3084 287 
Q 2609 -91 1734 -91 
Q 1441 -91 1130 -33 
Q 819 25 488 141 
L 488 750 
Q 750 597 1062 519 
Q 1375 441 1716 441 
Q 2309 441 2620 675 
Q 2931 909 2931 1356 
Q 2931 1769 2642 2001 
Q 2353 2234 1838 2234 
L 1294 2234 
L 1294 2753 
L 1863 2753 
Q 2328 2753 2575 2939 
Q 2822 3125 2822 3475 
Q 2822 3834 2567 4026 
Q 2313 4219 1838 4219 
Q 1578 4219 1281 4162 
Q 984 4106 628 3988 
L 628 4550 
Q 988 4650 1302 4700 
Q 1616 4750 1894 4750 
Q 2613 4750 3031 4423 
Q 3450 4097 3450 3541 
Q 3450 3153 3228 2886 
Q 3006 2619 2597 2516 
z
" transform="scale(0.015625)"/>
       </defs>
       <use xlink:href="#DejaVuSans-32"/>
       <use xlink:href="#DejaVuSans-30" transform="translate(63.623047 0)"/>
       <use xlink:href="#DejaVuSans-32" transform="translate(127.246094 0)"/>
       <use xlink:href="#DejaVuSans-33" transform="translate(190.869141 0)"/>
       <use xlink:href="#DejaVuSans-2d" transform="translate(254.492188 0)"/>
       <use xlink:href="#DejaVuSans-30" transform="translate(290.576172 0)"/>
       <use xlink:href="#DejaVuSans-31" transform="translate(354.199219 0)"/>
      </g>
     </g>
    </g>
    <g id="xtick_6">
     <g id="line2d_11">
      <path d="M 454.543935 320.4 
L 454.543935 43.2 
" clip-path="url(#p02e597fb0f)" style="fill: none; stroke-dasharray: 5.12,1.28,0.8,1.28; stroke-dashoffset: 0; stroke: #b0b0b0; stroke-width: 0.8"/>
     </g>
     <g id="line2d_12">
      <g>
       <use xlink:href="#mfce74c6545" x="454.543935" y="320.4" style="fill: #a9a9a9; stroke: #a9a9a9; stroke-width: 0.8"/>
      </g>
     </g>
     <g id="text_6">
      <!-- 2023-05 -->
      <g style="fill: #a9a9a9" transform="translate(433.652528 334.998438) scale(0.1 -0.1)">
       <use xlink:href="#DejaVuSans-32"/>
       <use xlink:href="#DejaVuSans-30" transform="translate(63.623047 0)"/>
       <use xlink:href="#DejaVuSans-32" transform="translate(127.246094 0)"/>
       <use xlink:href="#DejaVuSans-33" transform="translate(190.869141 0)"/>
       <use xlink:href="#DejaVuSans-2d" transform="translate(254.492188 0)"/>
       <use xlink:href="#DejaVuSans-30" transform="translate(290.576172 0)"/>
       <use xlink:href="#DejaVuSans-35" transform="translate(354.199219 0)"/>
      </g>
     </g>
    </g>
    <g id="xtick_7">
     <g id="line2d_13">
      <path d="M 514.731599 320.4 
L 514.731599 43.2 
" clip-path="url(#p02e597fb0f)" style="fill: none; stroke-dasharray: 5.12,1.28,0.8,1.28; stroke-dashoffset: 0; stroke: #b0b0b0; stroke-width: 0.8"/>
     </g>
     <g id="line2d_14">
      <g>
       <use xlink:href="#mfce74c6545" x="514.731599" y="320.4" style="fill: #a9a9a9; stroke: #a9a9a9; stroke-width: 0.8"/>
      </g>
     </g>
     <g id="text_7">
      <!-- 2023-09 -->
      <g style="fill: #a9a9a9" transform="translate(493.840193 334.998438) scale(0.1 -0.1)">
       <use xlink:href="#DejaVuSans-32"/>
       <use xlink:href="#DejaVuSans-30" transform="translate(63.623047 0)"/>
       <use xlink:href="#DejaVuSans-32" transform="translate(127.246094 0)"/>
       <use xlink:href="#DejaVuSans-33" transform="translate(190.869141 0)"/>
       <use xlink:href="#DejaVuSans-2d" transform="translate(254.492188 0)"/>
       <use xlink:href="#DejaVuSans-30" transform="translate(290.576172 0)"/>
       <use xlink:href="#DejaVuSans-39" transform="translate(354.199219 0)"/>
      </g>
     </g>
    </g>
    <g id="xtick_8">
     <g id="line2d_15">
      <path d="M 574.429933 320.4 
L 574.429933 43.2 
" clip-path="url(#p02e597fb0f)" style="fill: none; stroke-dasharray: 5.12,1.28,0.8,1.28; stroke-dashoffset: 0; stroke: #b0b0b0; stroke-width: 0.8"/>
     </g>
     <g id="line2d_16">
      <g>
       <use xlink:href="#mfce74c6545" x="574.429933" y="320.4" style="fill: #a9a9a9; stroke: #a9a9a9; stroke-width: 0.8"/>
      </g>
     </g>
     <g id="text_8">
      <!-- 2024-01 -->
      <g style="fill: #a9a9a9" transform="translate(553.538527 334.998438) scale(0.1 -0.1)">
       <defs>
        <path id="DejaVuSans-34" d="M 2419 4116 
L 825 1625 
L 2419 1625 
L 2419 4116 
z
M 2253 4666 
L 3047 4666 
L 3047 1625 
L 3713 1625 
L 3713 1100 
L 3047 1100 
L 3047 0 
L 2419 0 
L 2419 1100 
L 313 1100 
L 313 1709 
L 2253 4666 
z
" transform="scale(0.015625)"/>
       </defs>
       <use xlink:href="#DejaVuSans-32"/>
       <use xlink:href="#DejaVuSans-30" transform="translate(63.623047 0)"/>
       <use xlink:href="#DejaVuSans-32" transform="translate(127.246094 0)"/>
       <use xlink:href="#DejaVuSans-34" transform="translate(190.869141 0)"/>
       <use xlink:href="#DejaVuSans-2d" transform="translate(254.492188 0)"/>
       <use xlink:href="#DejaVuSans-30" transform="translate(290.576172 0)"/>
       <use xlink:href="#DejaVuSans-31" transform="translate(354.199219 0)"/>
      </g>
     </g>
    </g>
    <g id="xtick_9">
     <g id="line2d_17">
      <path d="M 633.638936 320.4 
L 633.638936 43.2 
" clip-path="url(#p02e597fb0f)" style="fill: none; stroke-dasharray: 5.12,1.28,0.8,1.28; stroke-dashoffset: 0; stroke: #b0b0b0; stroke-width: 0.8"/>
     </g>
     <g id="line2d_18">
      <g>
       <use xlink:href="#mfce74c6545" x="633.638936" y="320.4" style="fill: #a9a9a9; stroke: #a9a9a9; stroke-width: 0.8"/>
      </g>
     </g>
     <g id="text_9">
      <!-- 2024-05 -->
      <g style="fill: #a9a9a9" transform="translate(612.74753 334.998438) scale(0.1 -0.1)">
       <use xlink:href="#DejaVuSans-32"/>
       <use xlink:href="#DejaVuSans-30" transform="translate(63.623047 0)"/>
       <use xlink:href="#DejaVuSans-32" transform="translate(127.246094 0)"/>
       <use xlink:href="#DejaVuSans-34" transform="translate(190.869141 0)"/>
       <use xlink:href="#DejaVuSans-2d" transform="translate(254.492188 0)"/>
       <use xlink:href="#DejaVuSans-30" transform="translate(290.576172 0)"/>
       <use xlink:href="#DejaVuSans-35" transform="translate(354.199219 0)"/>
      </g>
     </g>
    </g>
    <g id="xtick_10">
     <g id="line2d_19">
      <path d="M 693.8266 320.4 
L 693.8266 43.2 
" clip-path="url(#p02e597fb0f)" style="fill: none; stroke-dasharray: 5.12,1.28,0.8,1.28; stroke-dashoffset: 0; stroke: #b0b0b0; stroke-width: 0.8"/>
     </g>
     <g id="line2d_20">
      <g>
       <use xlink:href="#mfce74c6545" x="693.8266" y="320.4" style="fill: #a9a9a9; stroke: #a9a9a9; stroke-width: 0.8"/>
      </g>
     </g>
     <g id="text_10">
      <!-- 2024-09 -->
      <g style="fill: #a9a9a9" transform="translate(672.935194 334.998438) scale(0.1 -0.1)">
       <use xlink:href="#DejaVuSans-32"/>
       <use xlink:href="#DejaVuSans-30" transform="translate(63.623047 0)"/>
       <use xlink:href="#DejaVuSans-32" transform="translate(127.246094 0)"/>
       <use xlink:href="#DejaVuSans-34" transform="translate(190.869141 0)"/>
       <use xlink:href="#DejaVuSans-2d" transform="translate(254.492188 0)"/>
       <use xlink:href="#DejaVuSans-30" transform="translate(290.576172 0)"/>
       <use xlink:href="#DejaVuSans-39" transform="translate(354.199219 0)"/>
      </g>
     </g>
    </g>
    <g id="xtick_11">
     <g id="line2d_21">
      <path d="M 753.524934 320.4 
L 753.524934 43.2 
" clip-path="url(#p02e597fb0f)" style="fill: none; stroke-dasharray: 5.12,1.28,0.8,1.28; stroke-dashoffset: 0; stroke: #b0b0b0; stroke-width: 0.8"/>
     </g>
     <g id="line2d_22">
      <g>
       <use xlink:href="#mfce74c6545" x="753.524934" y="320.4" style="fill: #a9a9a9; stroke: #a9a9a9; stroke-width: 0.8"/>
      </g>
     </g>
     <g id="text_11">
      <!-- 2025-01 -->
      <g style="fill: #a9a9a9" transform="translate(732.633528 334.998438) scale(0.1 -0.1)">
       <use xlink:href="#DejaVuSans-32"/>
       <use xlink:href="#DejaVuSans-30" transform="translate(63.623047 0)"/>
       <use xlink:href="#DejaVuSans-32" transform="translate(127.246094 0)"/>
       <use xlink:href="#DejaVuSans-35" transform="translate(190.869141 0)"/>
       <use xlink:href="#DejaVuSans-2d" transform="translate(254.492188 0)"/>
       <use xlink:href="#DejaVuSans-30" transform="translate(290.576172 0)"/>
       <use xlink:href="#DejaVuSans-31" transform="translate(354.199219 0)"/>
      </g>
     </g>
    </g>
   </g>
   <g id="matplotlib.axis_2">
    <g id="ytick_1">
     <g id="line2d_23">
      <path d="M 108 307.835478 
L 777.6 307.835478 
" clip-path="url(#p02e597fb0f)" style="fill: none; stroke-dasharray: 5.12,1.28,0.8,1.28; stroke-dashoffset: 0; stroke: #b0b0b0; stroke-width: 0.8"/>
     </g>
     <g id="line2d_24">
      <defs>
       <path id="mf5becc246c" d="M 0 0 
L -3.5 0 
" style="stroke: #a9a9a9; stroke-width: 0.8"/>
      </defs>
      <g>
       <use xlink:href="#mf5becc246c" x="108" y="307.835478" style="fill: #a9a9a9; stroke: #a9a9a9; stroke-width: 0.8"/>
      </g>
     </g>
     <g id="text_12">
      <!-- 0 -->
      <g style="fill: #a9a9a9" transform="translate(94.6375 311.634697) scale(0.1 -0.1)">
       <use xlink:href="#DejaVuSans-30"/>
      </g>
     </g>
    </g>
    <g id="ytick_2">
     <g id="line2d_25">
      <path d="M 108 279.453104 
L 777.6 279.453104 
" clip-path="url(#p02e597fb0f)" style="fill: none; stroke-dasharray: 5.12,1.28,0.8,1.28; stroke-dashoffset: 0; stroke: #b0b0b0; stroke-width: 0.8"/>
     </g>
     <g id="line2d_26">
      <g>
       <use xlink:href="#mf5becc246c" x="108" y="279.453104" style="fill: #a9a9a9; stroke: #a9a9a9; stroke-width: 0.8"/>
      </g>
     </g>
     <g id="text_13">
      <!-- 800 -->
      <g style="fill: #a9a9a9" transform="translate(81.9125 283.252323) scale(0.1 -0.1)">
       <defs>
        <path id="DejaVuSans-38" d="M 2034 2216 
Q 1584 2216 1326 1975 
Q 1069 1734 1069 1313 
Q 1069 891 1326 650 
Q 1584 409 2034 409 
Q 2484 409 2743 651 
Q 3003 894 3003 1313 
Q 3003 1734 2745 1975 
Q 2488 2216 2034 2216 
z
M 1403 2484 
Q 997 2584 770 2862 
Q 544 3141 544 3541 
Q 544 4100 942 4425 
Q 1341 4750 2034 4750 
Q 2731 4750 3128 4425 
Q 3525 4100 3525 3541 
Q 3525 3141 3298 2862 
Q 3072 2584 2669 2484 
Q 3125 2378 3379 2068 
Q 3634 1759 3634 1313 
Q 3634 634 3220 271 
Q 2806 -91 2034 -91 
Q 1263 -91 848 271 
Q 434 634 434 1313 
Q 434 1759 690 2068 
Q 947 2378 1403 2484 
z
M 1172 3481 
Q 1172 3119 1398 2916 
Q 1625 2713 2034 2713 
Q 2441 2713 2670 2916 
Q 2900 3119 2900 3481 
Q 2900 3844 2670 4047 
Q 2441 4250 2034 4250 
Q 1625 4250 1398 4047 
Q 1172 3844 1172 3481 
z
" transform="scale(0.015625)"/>
       </defs>
       <use xlink:href="#DejaVuSans-38"/>
       <use xlink:href="#DejaVuSans-30" transform="translate(63.623047 0)"/>
       <use xlink:href="#DejaVuSans-30" transform="translate(127.246094 0)"/>
      </g>
     </g>
    </g>
    <g id="ytick_3">
     <g id="line2d_27">
      <path d="M 108 251.070731 
L 777.6 251.070731 
" clip-path="url(#p02e597fb0f)" style="fill: none; stroke-dasharray: 5.12,1.28,0.8,1.28; stroke-dashoffset: 0; stroke: #b0b0b0; stroke-width: 0.8"/>
     </g>
     <g id="line2d_28">
      <g>
       <use xlink:href="#mf5becc246c" x="108" y="251.070731" style="fill: #a9a9a9; stroke: #a9a9a9; stroke-width: 0.8"/>
      </g>
     </g>
     <g id="text_14">
      <!-- 1600 -->
      <g style="fill: #a9a9a9" transform="translate(75.55 254.869949) scale(0.1 -0.1)">
       <defs>
        <path id="DejaVuSans-36" d="M 2113 2584 
Q 1688 2584 1439 2293 
Q 1191 2003 1191 1497 
Q 1191 994 1439 701 
Q 1688 409 2113 409 
Q 2538 409 2786 701 
Q 3034 994 3034 1497 
Q 3034 2003 2786 2293 
Q 2538 2584 2113 2584 
z
M 3366 4563 
L 3366 3988 
Q 3128 4100 2886 4159 
Q 2644 4219 2406 4219 
Q 1781 4219 1451 3797 
Q 1122 3375 1075 2522 
Q 1259 2794 1537 2939 
Q 1816 3084 2150 3084 
Q 2853 3084 3261 2657 
Q 3669 2231 3669 1497 
Q 3669 778 3244 343 
Q 2819 -91 2113 -91 
Q 1303 -91 875 529 
Q 447 1150 447 2328 
Q 447 3434 972 4092 
Q 1497 4750 2381 4750 
Q 2619 4750 2861 4703 
Q 3103 4656 3366 4563 
z
" transform="scale(0.015625)"/>
       </defs>
       <use xlink:href="#DejaVuSans-31"/>
       <use xlink:href="#DejaVuSans-36" transform="translate(63.623047 0)"/>
       <use xlink:href="#DejaVuSans-30" transform="translate(127.246094 0)"/>
       <use xlink:href="#DejaVuSans-30" transform="translate(190.869141 0)"/>
      </g>
     </g>
    </g>
    <g id="ytick_4">
     <g id="line2d_29">
      <path d="M 108 222.688357 
L 777.6 222.688357 
" clip-path="url(#p02e597fb0f)" style="fill: none; stroke-dasharray: 5.12,1.28,0.8,1.28; stroke-dashoffset: 0; stroke: #b0b0b0; stroke-width: 0.8"/>
     </g>
     <g id="line2d_30">
      <g>
       <use xlink:href="#mf5becc246c" x="108" y="222.688357" style="fill: #a9a9a9; stroke: #a9a9a9; stroke-width: 0.8"/>
      </g>
     </g>
     <g id="text_15">
      <!-- 2400 -->
      <g style="fill: #a9a9a9" transform="translate(75.55 226.487576) scale(0.1 -0.1)">
       <use xlink:href="#DejaVuSans-32"/>
       <use xlink:href="#DejaVuSans-34" transform="translate(63.623047 0)"/>
       <use xlink:href="#DejaVuSans-30" transform="translate(127.246094 0)"/>
       <use xlink:href="#DejaVuSans-30" transform="translate(190.869141 0)"/>
      </g>
     </g>
    </g>
    <g id="ytick_5">
     <g id="line2d_31">
      <path d="M 108 194.305983 
L 777.6 194.305983 
" clip-path="url(#p02e597fb0f)" style="fill: none; stroke-dasharray: 5.12,1.28,0.8,1.28; stroke-dashoffset: 0; stroke: #b0b0b0; stroke-width: 0.8"/>
     </g>
     <g id="line2d_32">
      <g>
       <use xlink:href="#mf5becc246c" x="108" y="194.305983" style="fill: #a9a9a9; stroke: #a9a9a9; stroke-width: 0.8"/>
      </g>
     </g>
     <g id="text_16">
      <!-- 3200 -->
      <g style="fill: #a9a9a9" transform="translate(75.55 198.105202) scale(0.1 -0.1)">
       <use xlink:href="#DejaVuSans-33"/>
       <use xlink:href="#DejaVuSans-32" transform="translate(63.623047 0)"/>
       <use xlink:href="#DejaVuSans-30" transform="translate(127.246094 0)"/>
       <use xlink:href="#DejaVuSans-30" transform="translate(190.869141 0)"/>
      </g>
     </g>
    </g>
    <g id="ytick_6">
     <g id="line2d_33">
      <path d="M 108 165.92361 
L 777.6 165.92361 
" clip-path="url(#p02e597fb0f)" style="fill: none; stroke-dasharray: 5.12,1.28,0.8,1.28; stroke-dashoffset: 0; stroke: #b0b0b0; stroke-width: 0.8"/>
     </g>
     <g id="line2d_34">
      <g>
       <use xlink:href="#mf5becc246c" x="108" y="165.92361" style="fill: #a9a9a9; stroke: #a9a9a9; stroke-width: 0.8"/>
      </g>
     </g>
     <g id="text_17">
      <!-- 4000 -->
      <g style="fill: #a9a9a9" transform="translate(75.55 169.722828) scale(0.1 -0.1)">
       <use xlink:href="#DejaVuSans-34"/>
       <use xlink:href="#DejaVuSans-30" transform="translate(63.623047 0)"/>
       <use xlink:href="#DejaVuSans-30" transform="translate(127.246094 0)"/>
       <use xlink:href="#DejaVuSans-30" transform="translate(190.869141 0)"/>
      </g>
     </g>
    </g>
    <g id="ytick_7">
     <g id="line2d_35">
      <path d="M 108 137.541236 
L 777.6 137.541236 
" clip-path="url(#p02e597fb0f)" style="fill: none; stroke-dasharray: 5.12,1.28,0.8,1.28; stroke-dashoffset: 0; stroke: #b0b0b0; stroke-width: 0.8"/>
     </g>
     <g id="line2d_36">
      <g>
       <use xlink:href="#mf5becc246c" x="108" y="137.541236" style="fill: #a9a9a9; stroke: #a9a9a9; stroke-width: 0.8"/>
      </g>
     </g>
     <g id="text_18">
      <!-- 4800 -->
      <g style="fill: #a9a9a9" transform="translate(75.55 141.340455) scale(0.1 -0.1)">
       <use xlink:href="#DejaVuSans-34"/>
       <use xlink:href="#DejaVuSans-38" transform="translate(63.623047 0)"/>
       <use xlink:href="#DejaVuSans-30" transform="translate(127.246094 0)"/>
       <use xlink:href="#DejaVuSans-30" transform="translate(190.869141 0)"/>
      </g>
     </g>
    </g>
    <g id="ytick_8">
     <g id="line2d_37">
      <path d="M 108 109.158862 
L 777.6 109.158862 
" clip-path="url(#p02e597fb0f)" style="fill: none; stroke-dasharray: 5.12,1.28,0.8,1.28; stroke-dashoffset: 0; stroke: #b0b0b0; stroke-width: 0.8"/>
     </g>
     <g id="line2d_38">
      <g>
       <use xlink:href="#mf5becc246c" x="108" y="109.158862" style="fill: #a9a9a9; stroke: #a9a9a9; stroke-width: 0.8"/>
      </g>
     </g>
     <g id="text_19">
      <!-- 5600 -->
      <g style="fill: #a9a9a9" transform="translate(75.55 112.958081) scale(0.1 -0.1)">
       <use xlink:href="#DejaVuSans-35"/>
       <use xlink:href="#DejaVuSans-36" transform="translate(63.623047 0)"/>
       <use xlink:href="#DejaVuSans-30" transform="translate(127.246094 0)"/>
       <use xlink:href="#DejaVuSans-30" transform="translate(190.869141 0)"/>
      </g>
     </g>
    </g>
    <g id="ytick_9">
     <g id="line2d_39">
      <path d="M 108 80.776489 
L 777.6 80.776489 
" clip-path="url(#p02e597fb0f)" style="fill: none; stroke-dasharray: 5.12,1.28,0.8,1.28; stroke-dashoffset: 0; stroke: #b0b0b0; stroke-width: 0.8"/>
     </g>
     <g id="line2d_40">
      <g>
       <use xlink:href="#mf5becc246c" x="108" y="80.776489" style="fill: #a9a9a9; stroke: #a9a9a9; stroke-width: 0.8"/>
      </g>
     </g>
     <g id="text_20">
      <!-- 6400 -->
      <g style="fill: #a9a9a9" transform="translate(75.55 84.575708) scale(0.1 -0.1)">
       <use xlink:href="#DejaVuSans-36"/>
       <use xlink:href="#DejaVuSans-34" transform="translate(63.623047 0)"/>
       <use xlink:href="#DejaVuSans-30" transform="translate(127.246094 0)"/>
       <use xlink:href="#DejaVuSans-30" transform="translate(190.869141 0)"/>
      </g>
     </g>
    </g>
    <g id="ytick_10">
     <g id="line2d_41">
      <path d="M 108 52.394115 
L 777.6 52.394115 
" clip-path="url(#p02e597fb0f)" style="fill: none; stroke-dasharray: 5.12,1.28,0.8,1.28; stroke-dashoffset: 0; stroke: #b0b0b0; stroke-width: 0.8"/>
     </g>
     <g id="line2d_42">
      <g>
       <use xlink:href="#mf5becc246c" x="108" y="52.394115" style="fill: #a9a9a9; stroke: #a9a9a9; stroke-width: 0.8"/>
      </g>
     </g>
     <g id="text_21">
      <!-- 7200 -->
      <g style="fill: #a9a9a9" transform="translate(75.55 56.193334) scale(0.1 -0.1)">
       <defs>
        <path id="DejaVuSans-37" d="M 525 4666 
L 3525 4666 
L 3525 4397 
L 1831 0 
L 1172 0 
L 2766 4134 
L 525 4134 
L 525 4666 
z
" transform="scale(0.015625)"/>
       </defs>
       <use xlink:href="#DejaVuSans-37"/>
       <use xlink:href="#DejaVuSans-32" transform="translate(63.623047 0)"/>
       <use xlink:href="#DejaVuSans-30" transform="translate(127.246094 0)"/>
       <use xlink:href="#DejaVuSans-30" transform="translate(190.869141 0)"/>
      </g>
     </g>
    </g>
   </g>
   <g id="line2d_43">
    <path d="M 138.436364 307.729044 
L 141.372347 307.480698 
L 141.861678 307.26783 
L 143.819 307.019485 
L 145.776323 306.629227 
L 146.754984 306.487315 
L 149.201637 306.274447 
L 150.180298 305.88419 
L 150.669629 305.245586 
L 151.158959 304.890807 
L 151.64829 303.79099 
L 152.137621 303.720034 
L 152.626951 303.329776 
L 153.605612 302.833085 
L 155.562935 301.272054 
L 157.520257 300.314149 
L 158.988249 299.640068 
L 159.47758 298.859552 
L 160.456241 298.149993 
L 160.945571 297.937125 
L 165.838878 297.227566 
L 166.328208 297.014698 
L 169.753522 296.730874 
L 171.710845 296.269661 
L 175.62549 295.737491 
L 176.11482 295.489145 
L 176.604151 295.418189 
L 177.582812 295.098888 
L 181.008126 294.53124 
L 181.986787 294.247417 
L 186.390763 293.502379 
L 187.369424 293.289511 
L 188.348085 293.254034 
L 190.305408 292.79282 
L 190.794738 292.118739 
L 192.26273 291.551091 
L 193.730722 291.160833 
L 194.220053 290.912488 
L 195.198714 290.735098 
L 197.156036 290.16745 
L 198.134697 290.096494 
L 199.113359 289.848149 
L 201.070681 289.351457 
L 201.560012 289.315979 
L 202.538673 288.854766 
L 203.028004 288.78381 
L 203.517334 288.535464 
L 208.899971 287.648515 
L 210.857293 287.080867 
L 211.346624 286.761566 
L 213.793277 285.945572 
L 214.771938 285.271491 
L 216.23993 284.987667 
L 228.962526 281.404393 
L 229.451856 281.404393 
L 229.941187 281.191525 
L 230.919848 281.085091 
L 231.409179 280.907701 
L 233.366501 280.801267 
L 234.345162 280.623877 
L 235.323823 280.127186 
L 236.791815 279.595016 
L 237.281146 279.275714 
L 238.259807 278.849979 
L 238.749138 278.601633 
L 239.727799 278.282331 
L 240.217129 278.14042 
L 241.195791 277.537294 
L 241.685121 277.005125 
L 242.663783 275.51505 
L 243.153113 275.373138 
L 243.642444 275.373138 
L 245.110436 274.521667 
L 245.599766 274.273321 
L 246.089097 274.166887 
L 246.578427 273.705674 
L 247.557089 273.315416 
L 248.53575 272.854202 
L 249.02508 272.251077 
L 249.514411 271.470562 
L 250.003742 271.15126 
L 250.493072 270.299789 
L 250.982403 269.767619 
L 253.918386 268.206589 
L 254.897048 267.426073 
L 255.386378 267.106772 
L 255.875709 266.361734 
L 256.365039 265.261917 
L 256.85437 264.51688 
L 257.343701 264.126623 
L 257.833031 263.913755 
L 261.258346 261.004561 
L 262.237007 259.833789 
L 263.704999 258.804927 
L 265.662321 257.634155 
L 266.640982 257.101985 
L 268.598305 256.073124 
L 271.044958 253.87349 
L 272.023619 253.483232 
L 273.00228 252.809151 
L 273.491611 252.525327 
L 273.980941 252.454371 
L 275.448933 251.638378 
L 275.938264 251.106209 
L 278.384917 249.793524 
L 278.874247 249.616134 
L 280.342239 248.622751 
L 287.682198 246.032859 
L 288.660859 245.14591 
L 289.639521 244.684697 
L 290.618182 244.152527 
L 291.107512 243.868703 
L 292.086174 243.58488 
L 292.575504 243.265578 
L 293.064835 243.123666 
L 294.532827 242.165761 
L 296.97948 241.598113 
L 298.447471 240.746642 
L 299.915463 240.427341 
L 300.404794 240.285429 
L 301.872786 239.185612 
L 303.830108 238.653442 
L 304.319439 238.263185 
L 307.255422 237.269801 
L 308.234084 237.092412 
L 309.212745 236.702154 
L 312.638059 235.460425 
L 313.61672 235.318513 
L 315.084712 234.821822 
L 317.531365 233.651049 
L 319.488688 232.58671 
L 323.403332 230.990201 
L 323.892663 230.919245 
L 324.871324 230.31612 
L 325.360655 230.245164 
L 327.317977 229.429171 
L 329.2753 229.180825 
L 330.253961 228.684133 
L 330.743291 228.258398 
L 331.232622 227.371449 
L 333.189944 226.839279 
L 334.657936 226.094242 
L 335.147267 225.987808 
L 339.061912 224.107476 
L 340.529904 223.823652 
L 341.508565 223.32696 
L 341.997895 223.114093 
L 342.487226 223.043137 
L 344.444548 222.156188 
L 345.91254 221.23376 
L 347.380532 220.949937 
L 349.827185 220.346811 
L 350.316516 219.956554 
L 351.784507 219.424384 
L 353.74183 218.643869 
L 354.23116 218.289089 
L 354.720491 218.111699 
L 355.699152 217.57953 
L 358.145805 216.763537 
L 359.613797 215.592764 
L 360.103128 215.48633 
L 361.081789 214.705814 
L 361.57112 214.634859 
L 362.06045 213.854343 
L 362.549781 213.641475 
L 363.039111 213.251218 
L 363.528442 213.180262 
L 364.507103 212.577136 
L 365.485764 212.257835 
L 365.975095 211.903055 
L 366.464426 211.725665 
L 367.932417 210.696804 
L 369.88974 209.667943 
L 370.37907 209.596987 
L 371.847062 208.85195 
L 372.336393 208.035957 
L 373.315054 207.326397 
L 373.804385 207.219963 
L 374.783046 206.616838 
L 375.272376 206.510404 
L 376.251038 206.013713 
L 378.20836 205.055807 
L 378.697691 204.701028 
L 379.676352 203.743123 
L 380.655013 203.139997 
L 381.144344 202.820695 
L 381.633674 202.288526 
L 383.590997 200.940363 
L 384.080327 200.372716 
L 384.569658 199.982458 
L 385.548319 199.627678 
L 386.52698 198.953597 
L 387.994972 198.20856 
L 388.484303 198.137604 
L 389.952295 197.357089 
L 390.930956 196.753963 
L 395.824262 194.980065 
L 396.313593 194.589807 
L 398.270915 193.84477 
L 398.760246 193.702858 
L 399.738907 193.064255 
L 400.717568 192.638519 
L 401.696229 191.964438 
L 402.67489 190.013149 
L 403.653552 188.877854 
L 405.121543 188.132817 
L 406.100205 187.742559 
L 406.589535 187.671604 
L 407.078866 187.38778 
L 409.525519 186.607265 
L 410.014849 186.394397 
L 410.993511 185.720315 
L 412.461502 185.081712 
L 413.440164 184.549542 
L 413.929494 184.194763 
L 414.418825 183.981895 
L 414.908156 183.627115 
L 415.397486 183.094946 
L 416.376147 182.562776 
L 418.8228 181.250092 
L 421.758784 179.795495 
L 423.226776 179.369759 
L 424.694768 178.802112 
L 425.184098 178.447332 
L 426.162759 178.163508 
L 427.141421 177.773251 
L 427.630751 177.382993 
L 429.588074 176.708912 
L 430.566735 175.999352 
L 431.545396 175.573617 
L 432.524057 174.793102 
L 433.502719 174.438322 
L 433.992049 174.012586 
L 434.48138 173.94163 
L 435.460041 173.196593 
L 436.438702 172.699901 
L 436.928033 172.487034 
L 437.417363 171.990342 
L 440.842678 170.642179 
L 441.821339 170.216444 
L 443.289331 169.75523 
L 444.267992 169.613318 
L 444.757322 169.400451 
L 445.246653 169.329495 
L 446.225314 168.903759 
L 446.714645 168.868281 
L 448.671967 168.123244 
L 450.139959 167.094383 
L 450.62929 166.916993 
L 451.607951 166.384823 
L 452.097281 166.242911 
L 455.033265 164.610925 
L 455.522596 164.504491 
L 456.990588 163.65302 
L 458.458579 163.156328 
L 459.437241 162.837027 
L 461.394563 162.198423 
L 462.373224 161.879121 
L 464.330547 161.488864 
L 464.819877 161.275996 
L 465.309208 161.20504 
L 466.287869 160.779305 
L 466.7772 160.708349 
L 467.26653 160.460003 
L 468.245191 160.282613 
L 469.713183 159.750443 
L 470.691844 159.64401 
L 472.159836 159.324708 
L 474.606489 158.898972 
L 487.329085 155.209264 
L 487.818416 154.712572 
L 488.797077 154.322315 
L 492.711722 152.867718 
L 493.201052 152.583894 
L 494.669044 152.158159 
L 495.647705 151.909813 
L 496.137036 151.590511 
L 496.626367 151.484077 
L 497.115697 151.058342 
L 498.583689 150.774518 
L 499.56235 150.313304 
L 500.051681 149.745657 
L 502.009003 149.284443 
L 505.434317 148.574884 
L 505.923648 148.574884 
L 506.412979 148.362016 
L 508.370301 148.007236 
L 508.859632 147.794369 
L 510.816954 147.439589 
L 511.795615 147.013853 
L 512.774277 146.836463 
L 515.22093 146.233338 
L 517.178252 145.630213 
L 517.667583 145.523779 
L 518.156913 145.275433 
L 519.135574 145.027087 
L 519.624905 144.743263 
L 521.092897 144.246572 
L 521.582227 143.92727 
L 522.560889 143.643446 
L 526.475533 142.295284 
L 527.454195 142.224328 
L 529.411517 141.65668 
L 529.900848 141.372857 
L 530.879509 141.089033 
L 533.326162 139.989216 
L 533.815493 139.953738 
L 539.198129 138.073406 
L 541.644782 137.434802 
L 542.623443 136.973589 
L 544.091435 136.654287 
L 546.048758 135.057778 
L 547.027419 134.773955 
L 547.516749 134.383697 
L 550.452733 133.28388 
L 550.942064 132.964578 
L 551.920725 132.680755 
L 552.410056 132.361453 
L 554.856709 131.580938 
L 556.3247 130.729466 
L 556.814031 130.623033 
L 559.260684 129.310348 
L 560.728676 128.671744 
L 561.218006 128.316965 
L 562.196668 127.997663 
L 563.175329 127.430015 
L 563.664659 127.252626 
L 564.15399 126.897846 
L 570.515288 124.662734 
L 571.004619 124.5563 
L 571.493949 124.236998 
L 573.451272 123.846741 
L 574.429933 123.456483 
L 577.365916 122.037364 
L 577.855247 121.966409 
L 579.323239 121.150415 
L 580.791231 120.653724 
L 584.216545 119.270083 
L 584.705875 119.128171 
L 585.195206 118.808869 
L 586.173867 118.702436 
L 586.663198 118.383134 
L 587.641859 118.205744 
L 588.62052 117.74453 
L 589.109851 117.531663 
L 589.599182 117.460707 
L 592.045835 116.502802 
L 593.513826 116.112544 
L 594.492488 115.864198 
L 595.960479 115.438463 
L 596.939141 115.048205 
L 598.896463 113.983866 
L 599.875124 113.593608 
L 600.364455 113.274307 
L 601.343116 113.061439 
L 601.832447 112.777615 
L 602.321777 112.671181 
L 603.789769 111.855188 
L 604.76843 111.46493 
L 606.725753 110.719893 
L 609.172406 109.9039 
L 610.151067 109.407208 
L 612.59772 108.591215 
L 615.533704 107.420442 
L 617.491026 106.533493 
L 622.384332 104.653161 
L 622.873663 104.333859 
L 624.830985 103.659778 
L 625.320316 103.659778 
L 626.298977 103.234042 
L 628.256299 101.673011 
L 628.74563 101.5311 
L 629.234961 101.211798 
L 629.724291 101.105364 
L 630.213622 100.857018 
L 630.702952 100.786062 
L 631.192283 100.431283 
L 631.681614 100.324849 
L 632.660275 99.721723 
L 634.128267 98.976686 
L 635.106928 98.586428 
L 635.596258 98.338083 
L 637.06425 98.018781 
L 639.510903 97.202788 
L 640.489564 96.883486 
L 641.957556 96.138449 
L 642.936217 95.677235 
L 643.914879 95.428889 
L 645.382871 94.754808 
L 649.786846 93.158299 
L 651.254838 92.27135 
L 651.744168 92.164916 
L 652.72283 91.668225 
L 653.701491 91.313445 
L 654.190821 90.887709 
L 655.169483 90.497452 
L 658.105466 89.326679 
L 659.573458 88.900943 
L 660.062789 88.652597 
L 660.552119 88.581642 
L 662.020111 88.049472 
L 663.488103 87.517303 
L 664.466764 87.127045 
L 664.956095 86.736787 
L 666.424087 86.34653 
L 666.913417 86.062706 
L 667.892078 85.81436 
L 669.36007 84.998367 
L 669.849401 84.962889 
L 671.317393 84.501675 
L 672.296054 84.430719 
L 673.274715 84.040462 
L 676.210699 83.188991 
L 677.18936 83.153513 
L 681.104005 81.911784 
L 682.082666 81.379614 
L 682.571996 80.953879 
L 684.039988 80.102407 
L 685.01865 79.499282 
L 687.954633 78.576855 
L 688.443964 78.186597 
L 691.379947 76.980346 
L 693.33727 76.448177 
L 694.315931 76.022441 
L 694.805262 75.774095 
L 695.783923 75.490272 
L 696.273253 75.206448 
L 697.251915 75.029058 
L 699.698568 73.893763 
L 700.187898 73.609939 
L 701.65589 73.25516 
L 702.145221 72.935858 
L 702.634551 72.758468 
L 703.123882 72.332733 
L 703.613213 72.261777 
L 706.059866 71.303872 
L 707.527857 70.98457 
L 708.017188 70.913614 
L 708.506519 70.700746 
L 708.995849 70.665268 
L 709.97451 70.345966 
L 710.463841 70.310489 
L 711.931833 69.742841 
L 713.889155 69.175194 
L 714.867816 68.394678 
L 716.825139 67.330339 
L 718.293131 66.833648 
L 721.229114 65.520963 
L 722.207776 64.988793 
L 722.697106 64.740448 
L 723.186437 64.279234 
L 726.12242 63.321329 
L 727.101082 62.931071 
L 728.079743 62.647248 
L 728.569073 62.398902 
L 729.058404 61.937688 
L 731.015726 61.440997 
L 731.505057 61.086217 
L 737.866355 58.780149 
L 738.845016 58.602759 
L 743.248992 57.077207 
L 744.227653 56.828861 
L 744.716983 56.615993 
L 745.206314 56.580515 
L 746.184975 56.190258 
L 746.674306 55.835478 
L 747.163636 55.8 
L 747.163636 55.8 
" clip-path="url(#p02e597fb0f)" style="fill: none; stroke: #1f77b4; stroke-width: 1.5; stroke-linecap: square"/>
   </g>
   <g id="line2d_44">
    <path d="M 138.925694 307.8 
L 143.32967 307.693566 
L 147.244315 307.516176 
L 149.201637 307.516176 
L 149.690968 307.374264 
L 152.137621 307.26783 
L 155.073604 306.948529 
L 158.009588 306.842095 
L 158.988249 306.735661 
L 162.413563 306.593749 
L 165.838878 306.487315 
L 168.285531 306.416359 
L 174.646828 306.309925 
L 177.093481 306.238969 
L 180.518796 306.132536 
L 182.965449 306.06158 
L 188.348085 305.955146 
L 190.305408 305.777756 
L 192.26273 305.742278 
L 195.198714 305.635844 
L 197.156036 305.600366 
L 199.602689 305.52941 
L 201.560012 305.35202 
L 205.963987 305.245586 
L 206.942648 305.17463 
L 208.899971 305.068197 
L 211.835954 304.961763 
L 213.793277 304.855329 
L 222.601228 304.323159 
L 226.026542 304.216725 
L 227.494534 304.074813 
L 229.941187 303.96838 
L 234.834493 303.720034 
L 239.727799 303.649078 
L 241.685121 303.43621 
L 243.642444 303.329776 
L 249.02508 302.833085 
L 252.450395 302.442827 
L 253.918386 302.371871 
L 258.322362 301.839702 
L 260.769015 301.768746 
L 262.237007 301.626834 
L 263.704999 301.5204 
L 277.406255 300.491539 
L 278.384917 300.314149 
L 281.3209 300.207715 
L 289.15019 299.746501 
L 292.575504 299.640068 
L 294.532827 299.4272 
L 296.97948 299.320766 
L 299.915463 299.214332 
L 302.362116 299.107898 
L 304.319439 299.07242 
L 306.766092 299.001464 
L 307.744753 298.859552 
L 314.595381 298.753118 
L 315.574043 298.646684 
L 321.44601 298.540251 
L 325.849985 298.327383 
L 329.2753 298.220949 
L 331.232622 298.008081 
L 334.657936 297.901647 
L 335.636597 297.724257 
L 338.083251 297.653301 
L 342.976557 297.582345 
L 345.42321 297.334 
L 348.359193 297.227566 
L 350.316516 297.050176 
L 355.209822 296.80183 
L 360.103128 296.695396 
L 364.507103 296.482529 
L 365.975095 296.447051 
L 366.953756 296.305139 
L 369.400409 296.198705 
L 370.37907 296.127749 
L 371.357732 296.056793 
L 372.336393 295.985837 
L 376.740368 295.914881 
L 378.20836 295.808447 
L 391.420286 294.956976 
L 393.866939 294.850542 
L 396.313593 294.779586 
L 403.164221 294.673152 
L 404.142882 294.53124 
L 410.993511 294.424806 
L 415.886817 294.176461 
L 416.865478 294.140983 
L 417.844139 294.034549 
L 420.290792 293.928115 
L 422.737445 293.857159 
L 425.184098 293.750725 
L 427.630751 293.679769 
L 432.034727 293.573335 
L 434.97071 293.466901 
L 441.821339 293.360467 
L 447.203975 293.076644 
L 449.161298 293.005688 
L 450.62929 292.899254 
L 457.479918 292.79282 
L 460.415902 292.686386 
L 469.223853 292.579952 
L 471.181175 292.544474 
L 477.053142 292.473518 
L 478.031804 292.402562 
L 484.882432 292.296128 
L 486.839754 292.26065 
L 499.56235 292.154217 
L 501.030342 292.012305 
L 523.050219 291.905871 
L 525.496872 291.834915 
L 538.219468 291.728481 
L 539.198129 291.657525 
L 541.644782 291.586569 
L 543.112774 291.444657 
L 546.048758 291.338223 
L 549.474072 291.196311 
L 553.878047 291.089878 
L 556.3247 291.018922 
L 559.750015 290.912488 
L 563.664659 290.735098 
L 566.111312 290.628664 
L 568.068635 290.593186 
L 572.47261 290.486752 
L 574.429933 290.451274 
L 580.791231 290.34484 
L 582.748553 290.309362 
L 585.195206 290.202928 
L 588.13119 290.096494 
L 591.556504 290.025539 
L 592.535165 289.954583 
L 604.2791 289.848149 
L 610.640398 289.493369 
L 613.087051 289.422413 
L 614.065712 289.315979 
L 615.044373 289.245023 
L 618.959018 289.138589 
L 621.895001 289.032155 
L 626.788308 288.925722 
L 629.234961 288.677376 
L 634.128267 288.570942 
L 635.106928 288.464508 
L 640.000234 288.358074 
L 642.446887 288.287118 
L 647.829524 288.25164 
L 648.808185 288.145206 
L 654.190821 288.038772 
L 655.169483 287.967816 
L 665.934756 287.861383 
L 668.87074 287.754949 
L 676.210699 287.648515 
L 678.168021 287.613037 
L 682.571996 287.542081 
L 683.550658 287.435647 
L 689.911956 287.329213 
L 692.358609 287.258257 
L 701.166559 287.151823 
L 702.634551 287.045389 
L 704.102543 286.938955 
L 705.570535 286.832521 
L 712.910494 286.726088 
L 716.335808 286.584176 
L 729.058404 286.477742 
L 733.462379 286.264874 
L 739.334347 286.15844 
L 740.313008 286.052006 
L 747.163636 285.945572 
L 747.163636 285.945572 
" clip-path="url(#p02e597fb0f)" style="fill: none; stroke: #ff7f0e; stroke-width: 1.5; stroke-linecap: square"/>
   </g>
   <g id="patch_3">
    <path d="M 108 320.4 
L 108 43.2 
" style="fill: none; stroke: #a9a9a9; stroke-width: 0.8; stroke-linejoin: miter; stroke-linecap: square"/>
   </g>
   <g id="patch_4">
    <path d="M 777.6 320.4 
L 777.6 43.2 
" style="fill: none"/>
   </g>
   <g id="patch_5">
    <path d="M 108 320.4 
L 777.6 320.4 
" style="fill: none; stroke: #a9a9a9; stroke-width: 0.8; stroke-linejoin: miter; stroke-linecap: square"/>
   </g>
   <g id="patch_6">
    <path d="M 108 43.2 
L 777.6 43.2 
" style="fill: none"/>
   </g>
   <g id="text_22">
    <!-- get_subscribe history -->
    <g style="fill: #a9a9a9" transform="translate(378.6075 37.2) scale(0.12 -0.12)">
     <defs>
      <path id="DejaVuSans-67" d="M 2906 1791 
Q 2906 2416 2648 2759 
Q 2391 3103 1925 3103 
Q 1463 3103 1205 2759 
Q 947 2416 947 1791 
Q 947 1169 1205 825 
Q 1463 481 1925 481 
Q 2391 481 2648 825 
Q 2906 1169 2906 1791 
z
M 3481 434 
Q 3481 -459 3084 -895 
Q 2688 -1331 1869 -1331 
Q 1566 -1331 1297 -1286 
Q 1028 -1241 775 -1147 
L 775 -588 
Q 1028 -725 1275 -790 
Q 1522 -856 1778 -856 
Q 2344 -856 2625 -561 
Q 2906 -266 2906 331 
L 2906 616 
Q 2728 306 2450 153 
Q 2172 0 1784 0 
Q 1141 0 747 490 
Q 353 981 353 1791 
Q 353 2603 747 3093 
Q 1141 3584 1784 3584 
Q 2172 3584 2450 3431 
Q 2728 3278 2906 2969 
L 2906 3500 
L 3481 3500 
L 3481 434 
z
" transform="scale(0.015625)"/>
      <path id="DejaVuSans-65" d="M 3597 1894 
L 3597 1613 
L 953 1613 
Q 991 1019 1311 708 
Q 1631 397 2203 397 
Q 2534 397 2845 478 
Q 3156 559 3463 722 
L 3463 178 
Q 3153 47 2828 -22 
Q 2503 -91 2169 -91 
Q 1331 -91 842 396 
Q 353 884 353 1716 
Q 353 2575 817 3079 
Q 1281 3584 2069 3584 
Q 2775 3584 3186 3129 
Q 3597 2675 3597 1894 
z
M 3022 2063 
Q 3016 2534 2758 2815 
Q 2500 3097 2075 3097 
Q 1594 3097 1305 2825 
Q 1016 2553 972 2059 
L 3022 2063 
z
" transform="scale(0.015625)"/>
      <path id="DejaVuSans-74" d="M 1172 4494 
L 1172 3500 
L 2356 3500 
L 2356 3053 
L 1172 3053 
L 1172 1153 
Q 1172 725 1289 603 
Q 1406 481 1766 481 
L 2356 481 
L 2356 0 
L 1766 0 
Q 1100 0 847 248 
Q 594 497 594 1153 
L 594 3053 
L 172 3053 
L 172 3500 
L 594 3500 
L 594 4494 
L 1172 4494 
z
" transform="scale(0.015625)"/>
      <path id="DejaVuSans-5f" d="M 3263 -1063 
L 3263 -1509 
L -63 -1509 
L -63 -1063 
L 3263 -1063 
z
" transform="scale(0.015625)"/>
      <path id="DejaVuSans-73" d="M 2834 3397 
L 2834 2853 
Q 2591 2978 2328 3040 
Q 2066 3103 1784 3103 
Q 1356 3103 1142 2972 
Q 928 2841 928 2578 
Q 928 2378 1081 2264 
Q 1234 2150 1697 2047 
L 1894 2003 
Q 2506 1872 2764 1633 
Q 3022 1394 3022 966 
Q 3022 478 2636 193 
Q 2250 -91 1575 -91 
Q 1294 -91 989 -36 
Q 684 19 347 128 
L 347 722 
Q 666 556 975 473 
Q 1284 391 1588 391 
Q 1994 391 2212 530 
Q 2431 669 2431 922 
Q 2431 1156 2273 1281 
Q 2116 1406 1581 1522 
L 1381 1569 
Q 847 1681 609 1914 
Q 372 2147 372 2553 
Q 372 3047 722 3315 
Q 1072 3584 1716 3584 
Q 2034 3584 2315 3537 
Q 2597 3491 2834 3397 
z
" transform="scale(0.015625)"/>
      <path id="DejaVuSans-75" d="M 544 1381 
L 544 3500 
L 1119 3500 
L 1119 1403 
Q 1119 906 1312 657 
Q 1506 409 1894 409 
Q 2359 409 2629 706 
Q 2900 1003 2900 1516 
L 2900 3500 
L 3475 3500 
L 3475 0 
L 2900 0 
L 2900 538 
Q 2691 219 2414 64 
Q 2138 -91 1772 -91 
Q 1169 -91 856 284 
Q 544 659 544 1381 
z
M 1991 3584 
L 1991 3584 
z
" transform="scale(0.015625)"/>
      <path id="DejaVuSans-62" d="M 3116 1747 
Q 3116 2381 2855 2742 
Q 2594 3103 2138 3103 
Q 1681 3103 1420 2742 
Q 1159 2381 1159 1747 
Q 1159 1113 1420 752 
Q 1681 391 2138 391 
Q 2594 391 2855 752 
Q 3116 1113 3116 1747 
z
M 1159 2969 
Q 1341 3281 1617 3432 
Q 1894 3584 2278 3584 
Q 2916 3584 3314 3078 
Q 3713 2572 3713 1747 
Q 3713 922 3314 415 
Q 2916 -91 2278 -91 
Q 1894 -91 1617 61 
Q 1341 213 1159 525 
L 1159 0 
L 581 0 
L 581 4863 
L 1159 4863 
L 1159 2969 
z
" transform="scale(0.015625)"/>
      <path id="DejaVuSans-63" d="M 3122 3366 
L 3122 2828 
Q 2878 2963 2633 3030 
Q 2388 3097 2138 3097 
Q 1578 3097 1268 2742 
Q 959 2388 959 1747 
Q 959 1106 1268 751 
Q 1578 397 2138 397 
Q 2388 397 2633 464 
Q 2878 531 3122 666 
L 3122 134 
Q 2881 22 2623 -34 
Q 2366 -91 2075 -91 
Q 1284 -91 818 406 
Q 353 903 353 1747 
Q 353 2603 823 3093 
Q 1294 3584 2113 3584 
Q 2378 3584 2631 3529 
Q 2884 3475 3122 3366 
z
" transform="scale(0.015625)"/>
      <path id="DejaVuSans-72" d="M 2631 2963 
Q 2534 3019 2420 3045 
Q 2306 3072 2169 3072 
Q 1681 3072 1420 2755 
Q 1159 2438 1159 1844 
L 1159 0 
L 581 0 
L 581 3500 
L 1159 3500 
L 1159 2956 
Q 1341 3275 1631 3429 
Q 1922 3584 2338 3584 
Q 2397 3584 2469 3576 
Q 2541 3569 2628 3553 
L 2631 2963 
z
" transform="scale(0.015625)"/>
      <path id="DejaVuSans-69" d="M 603 3500 
L 1178 3500 
L 1178 0 
L 603 0 
L 603 3500 
z
M 603 4863 
L 1178 4863 
L 1178 4134 
L 603 4134 
L 603 4863 
z
" transform="scale(0.015625)"/>
      <path id="DejaVuSans-20" transform="scale(0.015625)"/>
      <path id="DejaVuSans-68" d="M 3513 2113 
L 3513 0 
L 2938 0 
L 2938 2094 
Q 2938 2591 2744 2837 
Q 2550 3084 2163 3084 
Q 1697 3084 1428 2787 
Q 1159 2491 1159 1978 
L 1159 0 
L 581 0 
L 581 4863 
L 1159 4863 
L 1159 2956 
Q 1366 3272 1645 3428 
Q 1925 3584 2291 3584 
Q 2894 3584 3203 3211 
Q 3513 2838 3513 2113 
z
" transform="scale(0.015625)"/>
      <path id="DejaVuSans-6f" d="M 1959 3097 
Q 1497 3097 1228 2736 
Q 959 2375 959 1747 
Q 959 1119 1226 758 
Q 1494 397 1959 397 
Q 2419 397 2687 759 
Q 2956 1122 2956 1747 
Q 2956 2369 2687 2733 
Q 2419 3097 1959 3097 
z
M 1959 3584 
Q 2709 3584 3137 3096 
Q 3566 2609 3566 1747 
Q 3566 888 3137 398 
Q 2709 -91 1959 -91 
Q 1206 -91 779 398 
Q 353 888 353 1747 
Q 353 2609 779 3096 
Q 1206 3584 1959 3584 
z
" transform="scale(0.015625)"/>
      <path id="DejaVuSans-79" d="M 2059 -325 
Q 1816 -950 1584 -1140 
Q 1353 -1331 966 -1331 
L 506 -1331 
L 506 -850 
L 844 -850 
Q 1081 -850 1212 -737 
Q 1344 -625 1503 -206 
L 1606 56 
L 191 3500 
L 800 3500 
L 1894 763 
L 2988 3500 
L 3597 3500 
L 2059 -325 
z
" transform="scale(0.015625)"/>
     </defs>
     <use xlink:href="#DejaVuSans-67"/>
     <use xlink:href="#DejaVuSans-65" transform="translate(63.476562 0)"/>
     <use xlink:href="#DejaVuSans-74" transform="translate(125 0)"/>
     <use xlink:href="#DejaVuSans-5f" transform="translate(164.208984 0)"/>
     <use xlink:href="#DejaVuSans-73" transform="translate(214.208984 0)"/>
     <use xlink:href="#DejaVuSans-75" transform="translate(266.308594 0)"/>
     <use xlink:href="#DejaVuSans-62" transform="translate(329.6875 0)"/>
     <use xlink:href="#DejaVuSans-73" transform="translate(393.164062 0)"/>
     <use xlink:href="#DejaVuSans-63" transform="translate(445.263672 0)"/>
     <use xlink:href="#DejaVuSans-72" transform="translate(500.244141 0)"/>
     <use xlink:href="#DejaVuSans-69" transform="translate(541.357422 0)"/>
     <use xlink:href="#DejaVuSans-62" transform="translate(569.140625 0)"/>
     <use xlink:href="#DejaVuSans-65" transform="translate(632.617188 0)"/>
     <use xlink:href="#DejaVuSans-20" transform="translate(694.140625 0)"/>
     <use xlink:href="#DejaVuSans-68" transform="translate(725.927734 0)"/>
     <use xlink:href="#DejaVuSans-69" transform="translate(789.306641 0)"/>
     <use xlink:href="#DejaVuSans-73" transform="translate(817.089844 0)"/>
     <use xlink:href="#DejaVuSans-74" transform="translate(869.189453 0)"/>
     <use xlink:href="#DejaVuSans-6f" transform="translate(908.398438 0)"/>
     <use xlink:href="#DejaVuSans-72" transform="translate(969.580078 0)"/>
     <use xlink:href="#DejaVuSans-79" transform="translate(1010.693359 0)"/>
    </g>
   </g>
   <g id="legend_1">
    <g id="line2d_45">
     <path d="M 815.08 328.498438 
L 825.08 328.498438 
L 835.08 328.498438 
" style="fill: none; stroke: #1f77b4; stroke-width: 1.5; stroke-linecap: square"/>
    </g>
    <g id="text_23">
     <!-- star -->
     <g style="fill: #a9a9a9" transform="translate(843.08 331.998438) scale(0.1 -0.1)">
      <defs>
       <path id="DejaVuSans-61" d="M 2194 1759 
Q 1497 1759 1228 1600 
Q 959 1441 959 1056 
Q 959 750 1161 570 
Q 1363 391 1709 391 
Q 2188 391 2477 730 
Q 2766 1069 2766 1631 
L 2766 1759 
L 2194 1759 
z
M 3341 1997 
L 3341 0 
L 2766 0 
L 2766 531 
Q 2569 213 2275 61 
Q 1981 -91 1556 -91 
Q 1019 -91 701 211 
Q 384 513 384 1019 
Q 384 1609 779 1909 
Q 1175 2209 1959 2209 
L 2766 2209 
L 2766 2266 
Q 2766 2663 2505 2880 
Q 2244 3097 1772 3097 
Q 1472 3097 1187 3025 
Q 903 2953 641 2809 
L 641 3341 
Q 956 3463 1253 3523 
Q 1550 3584 1831 3584 
Q 2591 3584 2966 3190 
Q 3341 2797 3341 1997 
z
" transform="scale(0.015625)"/>
      </defs>
      <use xlink:href="#DejaVuSans-73"/>
      <use xlink:href="#DejaVuSans-74" transform="translate(52.099609 0)"/>
      <use xlink:href="#DejaVuSans-61" transform="translate(91.308594 0)"/>
      <use xlink:href="#DejaVuSans-72" transform="translate(152.587891 0)"/>
     </g>
    </g>
    <g id="line2d_46">
     <path d="M 815.08 343.176562 
L 825.08 343.176562 
L 835.08 343.176562 
" style="fill: none; stroke: #ff7f0e; stroke-width: 1.5; stroke-linecap: square"/>
    </g>
    <g id="text_24">
     <!-- fork -->
     <g style="fill: #a9a9a9" transform="translate(843.08 346.676562) scale(0.1 -0.1)">
      <defs>
       <path id="DejaVuSans-66" d="M 2375 4863 
L 2375 4384 
L 1825 4384 
Q 1516 4384 1395 4259 
Q 1275 4134 1275 3809 
L 1275 3500 
L 2222 3500 
L 2222 3053 
L 1275 3053 
L 1275 0 
L 697 0 
L 697 3053 
L 147 3053 
L 147 3500 
L 697 3500 
L 697 3744 
Q 697 4328 969 4595 
Q 1241 4863 1831 4863 
L 2375 4863 
z
" transform="scale(0.015625)"/>
       <path id="DejaVuSans-6b" d="M 581 4863 
L 1159 4863 
L 1159 1991 
L 2875 3500 
L 3609 3500 
L 1753 1863 
L 3688 0 
L 2938 0 
L 1159 1709 
L 1159 0 
L 581 0 
L 581 4863 
z
" transform="scale(0.015625)"/>
      </defs>
      <use xlink:href="#DejaVuSans-66"/>
      <use xlink:href="#DejaVuSans-6f" transform="translate(35.205078 0)"/>
      <use xlink:href="#DejaVuSans-72" transform="translate(96.386719 0)"/>
      <use xlink:href="#DejaVuSans-6b" transform="translate(137.5 0)"/>
     </g>
    </g>
   </g>
  </g>
 </g>
 <defs>
  <clipPath id="p02e597fb0f">
   <rect x="108" y="43.2" width="669.6" height="277.2"/>
  </clipPath>
 </defs>
</svg>
