<?xml version="1.0" encoding="utf-8" standalone="no"?>
<!DOCTYPE svg PUBLIC "-//W3C//DTD SVG 1.1//EN"
  "http://www.w3.org/Graphics/SVG/1.1/DTD/svg11.dtd">
<svg xmlns:xlink="http://www.w3.org/1999/xlink" width="864pt" height="360pt" viewBox="0 0 864 360" xmlns="http://www.w3.org/2000/svg" version="1.1">
 <metadata>
  <rdf:RDF xmlns:dc="http://purl.org/dc/elements/1.1/" xmlns:cc="http://creativecommons.org/ns#" xmlns:rdf="http://www.w3.org/1999/02/22-rdf-syntax-ns#">
   <cc:Work>
    <dc:type rdf:resource="http://purl.org/dc/dcmitype/StillImage"/>
    <dc:date>2024-12-17T02:23:33.706300</dc:date>
    <dc:format>image/svg+xml</dc:format>
    <dc:creator>
     <cc:Agent>
      <dc:title>Matplotlib v3.10.0, https://matplotlib.org/</dc:title>
     </cc:Agent>
    </dc:creator>
   </cc:Work>
  </rdf:RDF>
 </metadata>
 <defs>
  <style type="text/css">*{stroke-linejoin: round; stroke-linecap: butt}</style>
 </defs>
 <g id="figure_1">
  <g id="patch_1">
   <path d="M 0 360 
L 864 360 
L 864 0 
L 0 0 
L 0 360 
z
" style="fill: none; opacity: 0"/>
  </g>
  <g id="axes_1">
   <g id="patch_2">
    <path d="M 108 320.4 
L 777.6 320.4 
L 777.6 43.2 
L 108 43.2 
L 108 320.4 
z
" style="fill: none; opacity: 0"/>
   </g>
   <g id="matplotlib.axis_1">
    <g id="xtick_1">
     <g id="line2d_1">
      <path d="M 157.550988 320.4 
L 157.550988 43.2 
" clip-path="url(#pa718c5e928)" style="fill: none; stroke-dasharray: 5.12,1.28,0.8,1.28; stroke-dashoffset: 0; stroke: #b0b0b0; stroke-width: 0.8"/>
     </g>
     <g id="line2d_2">
      <defs>
       <path id="mc8c020221e" d="M 0 0 
L 0 3.5 
" style="stroke: #a9a9a9; stroke-width: 0.8"/>
      </defs>
      <g>
       <use xlink:href="#mc8c020221e" x="157.550988" y="320.4" style="fill: #a9a9a9; stroke: #a9a9a9; stroke-width: 0.8"/>
      </g>
     </g>
     <g id="text_1">
      <!-- 2021-09 -->
      <g style="fill: #a9a9a9" transform="translate(136.659582 334.998438) scale(0.1 -0.1)">
       <defs>
        <path id="DejaVuSans-32" d="M 1228 531 
L 3431 531 
L 3431 0 
L 469 0 
L 469 531 
Q 828 903 1448 1529 
Q 2069 2156 2228 2338 
Q 2531 2678 2651 2914 
Q 2772 3150 2772 3378 
Q 2772 3750 2511 3984 
Q 2250 4219 1831 4219 
Q 1534 4219 1204 4116 
Q 875 4013 500 3803 
L 500 4441 
Q 881 4594 1212 4672 
Q 1544 4750 1819 4750 
Q 2544 4750 2975 4387 
Q 3406 4025 3406 3419 
Q 3406 3131 3298 2873 
Q 3191 2616 2906 2266 
Q 2828 2175 2409 1742 
Q 1991 1309 1228 531 
z
" transform="scale(0.015625)"/>
        <path id="DejaVuSans-30" d="M 2034 4250 
Q 1547 4250 1301 3770 
Q 1056 3291 1056 2328 
Q 1056 1369 1301 889 
Q 1547 409 2034 409 
Q 2525 409 2770 889 
Q 3016 1369 3016 2328 
Q 3016 3291 2770 3770 
Q 2525 4250 2034 4250 
z
M 2034 4750 
Q 2819 4750 3233 4129 
Q 3647 3509 3647 2328 
Q 3647 1150 3233 529 
Q 2819 -91 2034 -91 
Q 1250 -91 836 529 
Q 422 1150 422 2328 
Q 422 3509 836 4129 
Q 1250 4750 2034 4750 
z
" transform="scale(0.015625)"/>
        <path id="DejaVuSans-31" d="M 794 531 
L 1825 531 
L 1825 4091 
L 703 3866 
L 703 4441 
L 1819 4666 
L 2450 4666 
L 2450 531 
L 3481 531 
L 3481 0 
L 794 0 
L 794 531 
z
" transform="scale(0.015625)"/>
        <path id="DejaVuSans-2d" d="M 313 2009 
L 1997 2009 
L 1997 1497 
L 313 1497 
L 313 2009 
z
" transform="scale(0.015625)"/>
        <path id="DejaVuSans-39" d="M 703 97 
L 703 672 
Q 941 559 1184 500 
Q 1428 441 1663 441 
Q 2288 441 2617 861 
Q 2947 1281 2994 2138 
Q 2813 1869 2534 1725 
Q 2256 1581 1919 1581 
Q 1219 1581 811 2004 
Q 403 2428 403 3163 
Q 403 3881 828 4315 
Q 1253 4750 1959 4750 
Q 2769 4750 3195 4129 
Q 3622 3509 3622 2328 
Q 3622 1225 3098 567 
Q 2575 -91 1691 -91 
Q 1453 -91 1209 -44 
Q 966 3 703 97 
z
M 1959 2075 
Q 2384 2075 2632 2365 
Q 2881 2656 2881 3163 
Q 2881 3666 2632 3958 
Q 2384 4250 1959 4250 
Q 1534 4250 1286 3958 
Q 1038 3666 1038 3163 
Q 1038 2656 1286 2365 
Q 1534 2075 1959 2075 
z
" transform="scale(0.015625)"/>
       </defs>
       <use xlink:href="#DejaVuSans-32"/>
       <use xlink:href="#DejaVuSans-30" transform="translate(63.623047 0)"/>
       <use xlink:href="#DejaVuSans-32" transform="translate(127.246094 0)"/>
       <use xlink:href="#DejaVuSans-31" transform="translate(190.869141 0)"/>
       <use xlink:href="#DejaVuSans-2d" transform="translate(254.492188 0)"/>
       <use xlink:href="#DejaVuSans-30" transform="translate(290.576172 0)"/>
       <use xlink:href="#DejaVuSans-39" transform="translate(354.199219 0)"/>
      </g>
     </g>
    </g>
    <g id="xtick_2">
     <g id="line2d_3">
      <path d="M 217.345455 320.4 
L 217.345455 43.2 
" clip-path="url(#pa718c5e928)" style="fill: none; stroke-dasharray: 5.12,1.28,0.8,1.28; stroke-dashoffset: 0; stroke: #b0b0b0; stroke-width: 0.8"/>
     </g>
     <g id="line2d_4">
      <g>
       <use xlink:href="#mc8c020221e" x="217.345455" y="320.4" style="fill: #a9a9a9; stroke: #a9a9a9; stroke-width: 0.8"/>
      </g>
     </g>
     <g id="text_2">
      <!-- 2022-01 -->
      <g style="fill: #a9a9a9" transform="translate(196.454048 334.998438) scale(0.1 -0.1)">
       <use xlink:href="#DejaVuSans-32"/>
       <use xlink:href="#DejaVuSans-30" transform="translate(63.623047 0)"/>
       <use xlink:href="#DejaVuSans-32" transform="translate(127.246094 0)"/>
       <use xlink:href="#DejaVuSans-32" transform="translate(190.869141 0)"/>
       <use xlink:href="#DejaVuSans-2d" transform="translate(254.492188 0)"/>
       <use xlink:href="#DejaVuSans-30" transform="translate(290.576172 0)"/>
       <use xlink:href="#DejaVuSans-31" transform="translate(354.199219 0)"/>
      </g>
     </g>
    </g>
    <g id="xtick_3">
     <g id="line2d_5">
      <path d="M 276.159684 320.4 
L 276.159684 43.2 
" clip-path="url(#pa718c5e928)" style="fill: none; stroke-dasharray: 5.12,1.28,0.8,1.28; stroke-dashoffset: 0; stroke: #b0b0b0; stroke-width: 0.8"/>
     </g>
     <g id="line2d_6">
      <g>
       <use xlink:href="#mc8c020221e" x="276.159684" y="320.4" style="fill: #a9a9a9; stroke: #a9a9a9; stroke-width: 0.8"/>
      </g>
     </g>
     <g id="text_3">
      <!-- 2022-05 -->
      <g style="fill: #a9a9a9" transform="translate(255.268278 334.998438) scale(0.1 -0.1)">
       <defs>
        <path id="DejaVuSans-35" d="M 691 4666 
L 3169 4666 
L 3169 4134 
L 1269 4134 
L 1269 2991 
Q 1406 3038 1543 3061 
Q 1681 3084 1819 3084 
Q 2600 3084 3056 2656 
Q 3513 2228 3513 1497 
Q 3513 744 3044 326 
Q 2575 -91 1722 -91 
Q 1428 -91 1123 -41 
Q 819 9 494 109 
L 494 744 
Q 775 591 1075 516 
Q 1375 441 1709 441 
Q 2250 441 2565 725 
Q 2881 1009 2881 1497 
Q 2881 1984 2565 2268 
Q 2250 2553 1709 2553 
Q 1456 2553 1204 2497 
Q 953 2441 691 2322 
L 691 4666 
z
" transform="scale(0.015625)"/>
       </defs>
       <use xlink:href="#DejaVuSans-32"/>
       <use xlink:href="#DejaVuSans-30" transform="translate(63.623047 0)"/>
       <use xlink:href="#DejaVuSans-32" transform="translate(127.246094 0)"/>
       <use xlink:href="#DejaVuSans-32" transform="translate(190.869141 0)"/>
       <use xlink:href="#DejaVuSans-2d" transform="translate(254.492188 0)"/>
       <use xlink:href="#DejaVuSans-30" transform="translate(290.576172 0)"/>
       <use xlink:href="#DejaVuSans-35" transform="translate(354.199219 0)"/>
      </g>
     </g>
    </g>
    <g id="xtick_4">
     <g id="line2d_7">
      <path d="M 336.444269 320.4 
L 336.444269 43.2 
" clip-path="url(#pa718c5e928)" style="fill: none; stroke-dasharray: 5.12,1.28,0.8,1.28; stroke-dashoffset: 0; stroke: #b0b0b0; stroke-width: 0.8"/>
     </g>
     <g id="line2d_8">
      <g>
       <use xlink:href="#mc8c020221e" x="336.444269" y="320.4" style="fill: #a9a9a9; stroke: #a9a9a9; stroke-width: 0.8"/>
      </g>
     </g>
     <g id="text_4">
      <!-- 2022-09 -->
      <g style="fill: #a9a9a9" transform="translate(315.552863 334.998438) scale(0.1 -0.1)">
       <use xlink:href="#DejaVuSans-32"/>
       <use xlink:href="#DejaVuSans-30" transform="translate(63.623047 0)"/>
       <use xlink:href="#DejaVuSans-32" transform="translate(127.246094 0)"/>
       <use xlink:href="#DejaVuSans-32" transform="translate(190.869141 0)"/>
       <use xlink:href="#DejaVuSans-2d" transform="translate(254.492188 0)"/>
       <use xlink:href="#DejaVuSans-30" transform="translate(290.576172 0)"/>
       <use xlink:href="#DejaVuSans-39" transform="translate(354.199219 0)"/>
      </g>
     </g>
    </g>
    <g id="xtick_5">
     <g id="line2d_9">
      <path d="M 396.238735 320.4 
L 396.238735 43.2 
" clip-path="url(#pa718c5e928)" style="fill: none; stroke-dasharray: 5.12,1.28,0.8,1.28; stroke-dashoffset: 0; stroke: #b0b0b0; stroke-width: 0.8"/>
     </g>
     <g id="line2d_10">
      <g>
       <use xlink:href="#mc8c020221e" x="396.238735" y="320.4" style="fill: #a9a9a9; stroke: #a9a9a9; stroke-width: 0.8"/>
      </g>
     </g>
     <g id="text_5">
      <!-- 2023-01 -->
      <g style="fill: #a9a9a9" transform="translate(375.347329 334.998438) scale(0.1 -0.1)">
       <defs>
        <path id="DejaVuSans-33" d="M 2597 2516 
Q 3050 2419 3304 2112 
Q 3559 1806 3559 1356 
Q 3559 666 3084 287 
Q 2609 -91 1734 -91 
Q 1441 -91 1130 -33 
Q 819 25 488 141 
L 488 750 
Q 750 597 1062 519 
Q 1375 441 1716 441 
Q 2309 441 2620 675 
Q 2931 909 2931 1356 
Q 2931 1769 2642 2001 
Q 2353 2234 1838 2234 
L 1294 2234 
L 1294 2753 
L 1863 2753 
Q 2328 2753 2575 2939 
Q 2822 3125 2822 3475 
Q 2822 3834 2567 4026 
Q 2313 4219 1838 4219 
Q 1578 4219 1281 4162 
Q 984 4106 628 3988 
L 628 4550 
Q 988 4650 1302 4700 
Q 1616 4750 1894 4750 
Q 2613 4750 3031 4423 
Q 3450 4097 3450 3541 
Q 3450 3153 3228 2886 
Q 3006 2619 2597 2516 
z
" transform="scale(0.015625)"/>
       </defs>
       <use xlink:href="#DejaVuSans-32"/>
       <use xlink:href="#DejaVuSans-30" transform="translate(63.623047 0)"/>
       <use xlink:href="#DejaVuSans-32" transform="translate(127.246094 0)"/>
       <use xlink:href="#DejaVuSans-33" transform="translate(190.869141 0)"/>
       <use xlink:href="#DejaVuSans-2d" transform="translate(254.492188 0)"/>
       <use xlink:href="#DejaVuSans-30" transform="translate(290.576172 0)"/>
       <use xlink:href="#DejaVuSans-31" transform="translate(354.199219 0)"/>
      </g>
     </g>
    </g>
    <g id="xtick_6">
     <g id="line2d_11">
      <path d="M 455.052964 320.4 
L 455.052964 43.2 
" clip-path="url(#pa718c5e928)" style="fill: none; stroke-dasharray: 5.12,1.28,0.8,1.28; stroke-dashoffset: 0; stroke: #b0b0b0; stroke-width: 0.8"/>
     </g>
     <g id="line2d_12">
      <g>
       <use xlink:href="#mc8c020221e" x="455.052964" y="320.4" style="fill: #a9a9a9; stroke: #a9a9a9; stroke-width: 0.8"/>
      </g>
     </g>
     <g id="text_6">
      <!-- 2023-05 -->
      <g style="fill: #a9a9a9" transform="translate(434.161558 334.998438) scale(0.1 -0.1)">
       <use xlink:href="#DejaVuSans-32"/>
       <use xlink:href="#DejaVuSans-30" transform="translate(63.623047 0)"/>
       <use xlink:href="#DejaVuSans-32" transform="translate(127.246094 0)"/>
       <use xlink:href="#DejaVuSans-33" transform="translate(190.869141 0)"/>
       <use xlink:href="#DejaVuSans-2d" transform="translate(254.492188 0)"/>
       <use xlink:href="#DejaVuSans-30" transform="translate(290.576172 0)"/>
       <use xlink:href="#DejaVuSans-35" transform="translate(354.199219 0)"/>
      </g>
     </g>
    </g>
    <g id="xtick_7">
     <g id="line2d_13">
      <path d="M 515.337549 320.4 
L 515.337549 43.2 
" clip-path="url(#pa718c5e928)" style="fill: none; stroke-dasharray: 5.12,1.28,0.8,1.28; stroke-dashoffset: 0; stroke: #b0b0b0; stroke-width: 0.8"/>
     </g>
     <g id="line2d_14">
      <g>
       <use xlink:href="#mc8c020221e" x="515.337549" y="320.4" style="fill: #a9a9a9; stroke: #a9a9a9; stroke-width: 0.8"/>
      </g>
     </g>
     <g id="text_7">
      <!-- 2023-09 -->
      <g style="fill: #a9a9a9" transform="translate(494.446143 334.998438) scale(0.1 -0.1)">
       <use xlink:href="#DejaVuSans-32"/>
       <use xlink:href="#DejaVuSans-30" transform="translate(63.623047 0)"/>
       <use xlink:href="#DejaVuSans-32" transform="translate(127.246094 0)"/>
       <use xlink:href="#DejaVuSans-33" transform="translate(190.869141 0)"/>
       <use xlink:href="#DejaVuSans-2d" transform="translate(254.492188 0)"/>
       <use xlink:href="#DejaVuSans-30" transform="translate(290.576172 0)"/>
       <use xlink:href="#DejaVuSans-39" transform="translate(354.199219 0)"/>
      </g>
     </g>
    </g>
    <g id="xtick_8">
     <g id="line2d_15">
      <path d="M 575.132016 320.4 
L 575.132016 43.2 
" clip-path="url(#pa718c5e928)" style="fill: none; stroke-dasharray: 5.12,1.28,0.8,1.28; stroke-dashoffset: 0; stroke: #b0b0b0; stroke-width: 0.8"/>
     </g>
     <g id="line2d_16">
      <g>
       <use xlink:href="#mc8c020221e" x="575.132016" y="320.4" style="fill: #a9a9a9; stroke: #a9a9a9; stroke-width: 0.8"/>
      </g>
     </g>
     <g id="text_8">
      <!-- 2024-01 -->
      <g style="fill: #a9a9a9" transform="translate(554.24061 334.998438) scale(0.1 -0.1)">
       <defs>
        <path id="DejaVuSans-34" d="M 2419 4116 
L 825 1625 
L 2419 1625 
L 2419 4116 
z
M 2253 4666 
L 3047 4666 
L 3047 1625 
L 3713 1625 
L 3713 1100 
L 3047 1100 
L 3047 0 
L 2419 0 
L 2419 1100 
L 313 1100 
L 313 1709 
L 2253 4666 
z
" transform="scale(0.015625)"/>
       </defs>
       <use xlink:href="#DejaVuSans-32"/>
       <use xlink:href="#DejaVuSans-30" transform="translate(63.623047 0)"/>
       <use xlink:href="#DejaVuSans-32" transform="translate(127.246094 0)"/>
       <use xlink:href="#DejaVuSans-34" transform="translate(190.869141 0)"/>
       <use xlink:href="#DejaVuSans-2d" transform="translate(254.492188 0)"/>
       <use xlink:href="#DejaVuSans-30" transform="translate(290.576172 0)"/>
       <use xlink:href="#DejaVuSans-31" transform="translate(354.199219 0)"/>
      </g>
     </g>
    </g>
    <g id="xtick_9">
     <g id="line2d_17">
      <path d="M 634.436364 320.4 
L 634.436364 43.2 
" clip-path="url(#pa718c5e928)" style="fill: none; stroke-dasharray: 5.12,1.28,0.8,1.28; stroke-dashoffset: 0; stroke: #b0b0b0; stroke-width: 0.8"/>
     </g>
     <g id="line2d_18">
      <g>
       <use xlink:href="#mc8c020221e" x="634.436364" y="320.4" style="fill: #a9a9a9; stroke: #a9a9a9; stroke-width: 0.8"/>
      </g>
     </g>
     <g id="text_9">
      <!-- 2024-05 -->
      <g style="fill: #a9a9a9" transform="translate(613.544957 334.998438) scale(0.1 -0.1)">
       <use xlink:href="#DejaVuSans-32"/>
       <use xlink:href="#DejaVuSans-30" transform="translate(63.623047 0)"/>
       <use xlink:href="#DejaVuSans-32" transform="translate(127.246094 0)"/>
       <use xlink:href="#DejaVuSans-34" transform="translate(190.869141 0)"/>
       <use xlink:href="#DejaVuSans-2d" transform="translate(254.492188 0)"/>
       <use xlink:href="#DejaVuSans-30" transform="translate(290.576172 0)"/>
       <use xlink:href="#DejaVuSans-35" transform="translate(354.199219 0)"/>
      </g>
     </g>
    </g>
    <g id="xtick_10">
     <g id="line2d_19">
      <path d="M 694.720949 320.4 
L 694.720949 43.2 
" clip-path="url(#pa718c5e928)" style="fill: none; stroke-dasharray: 5.12,1.28,0.8,1.28; stroke-dashoffset: 0; stroke: #b0b0b0; stroke-width: 0.8"/>
     </g>
     <g id="line2d_20">
      <g>
       <use xlink:href="#mc8c020221e" x="694.720949" y="320.4" style="fill: #a9a9a9; stroke: #a9a9a9; stroke-width: 0.8"/>
      </g>
     </g>
     <g id="text_10">
      <!-- 2024-09 -->
      <g style="fill: #a9a9a9" transform="translate(673.829542 334.998438) scale(0.1 -0.1)">
       <use xlink:href="#DejaVuSans-32"/>
       <use xlink:href="#DejaVuSans-30" transform="translate(63.623047 0)"/>
       <use xlink:href="#DejaVuSans-32" transform="translate(127.246094 0)"/>
       <use xlink:href="#DejaVuSans-34" transform="translate(190.869141 0)"/>
       <use xlink:href="#DejaVuSans-2d" transform="translate(254.492188 0)"/>
       <use xlink:href="#DejaVuSans-30" transform="translate(290.576172 0)"/>
       <use xlink:href="#DejaVuSans-39" transform="translate(354.199219 0)"/>
      </g>
     </g>
    </g>
    <g id="xtick_11">
     <g id="line2d_21">
      <path d="M 754.515415 320.4 
L 754.515415 43.2 
" clip-path="url(#pa718c5e928)" style="fill: none; stroke-dasharray: 5.12,1.28,0.8,1.28; stroke-dashoffset: 0; stroke: #b0b0b0; stroke-width: 0.8"/>
     </g>
     <g id="line2d_22">
      <g>
       <use xlink:href="#mc8c020221e" x="754.515415" y="320.4" style="fill: #a9a9a9; stroke: #a9a9a9; stroke-width: 0.8"/>
      </g>
     </g>
     <g id="text_11">
      <!-- 2025-01 -->
      <g style="fill: #a9a9a9" transform="translate(733.624009 334.998438) scale(0.1 -0.1)">
       <use xlink:href="#DejaVuSans-32"/>
       <use xlink:href="#DejaVuSans-30" transform="translate(63.623047 0)"/>
       <use xlink:href="#DejaVuSans-32" transform="translate(127.246094 0)"/>
       <use xlink:href="#DejaVuSans-35" transform="translate(190.869141 0)"/>
       <use xlink:href="#DejaVuSans-2d" transform="translate(254.492188 0)"/>
       <use xlink:href="#DejaVuSans-30" transform="translate(290.576172 0)"/>
       <use xlink:href="#DejaVuSans-31" transform="translate(354.199219 0)"/>
      </g>
     </g>
    </g>
   </g>
   <g id="matplotlib.axis_2">
    <g id="ytick_1">
     <g id="line2d_23">
      <path d="M 108 307.835563 
L 777.6 307.835563 
" clip-path="url(#pa718c5e928)" style="fill: none; stroke-dasharray: 5.12,1.28,0.8,1.28; stroke-dashoffset: 0; stroke: #b0b0b0; stroke-width: 0.8"/>
     </g>
     <g id="line2d_24">
      <defs>
       <path id="mee31df2047" d="M 0 0 
L -3.5 0 
" style="stroke: #a9a9a9; stroke-width: 0.8"/>
      </defs>
      <g>
       <use xlink:href="#mee31df2047" x="108" y="307.835563" style="fill: #a9a9a9; stroke: #a9a9a9; stroke-width: 0.8"/>
      </g>
     </g>
     <g id="text_12">
      <!-- 0 -->
      <g style="fill: #a9a9a9" transform="translate(94.6375 311.634782) scale(0.1 -0.1)">
       <use xlink:href="#DejaVuSans-30"/>
      </g>
     </g>
    </g>
    <g id="ytick_2">
     <g id="line2d_25">
      <path d="M 108 279.385097 
L 777.6 279.385097 
" clip-path="url(#pa718c5e928)" style="fill: none; stroke-dasharray: 5.12,1.28,0.8,1.28; stroke-dashoffset: 0; stroke: #b0b0b0; stroke-width: 0.8"/>
     </g>
     <g id="line2d_26">
      <g>
       <use xlink:href="#mee31df2047" x="108" y="279.385097" style="fill: #a9a9a9; stroke: #a9a9a9; stroke-width: 0.8"/>
      </g>
     </g>
     <g id="text_13">
      <!-- 800 -->
      <g style="fill: #a9a9a9" transform="translate(81.9125 283.184316) scale(0.1 -0.1)">
       <defs>
        <path id="DejaVuSans-38" d="M 2034 2216 
Q 1584 2216 1326 1975 
Q 1069 1734 1069 1313 
Q 1069 891 1326 650 
Q 1584 409 2034 409 
Q 2484 409 2743 651 
Q 3003 894 3003 1313 
Q 3003 1734 2745 1975 
Q 2488 2216 2034 2216 
z
M 1403 2484 
Q 997 2584 770 2862 
Q 544 3141 544 3541 
Q 544 4100 942 4425 
Q 1341 4750 2034 4750 
Q 2731 4750 3128 4425 
Q 3525 4100 3525 3541 
Q 3525 3141 3298 2862 
Q 3072 2584 2669 2484 
Q 3125 2378 3379 2068 
Q 3634 1759 3634 1313 
Q 3634 634 3220 271 
Q 2806 -91 2034 -91 
Q 1263 -91 848 271 
Q 434 634 434 1313 
Q 434 1759 690 2068 
Q 947 2378 1403 2484 
z
M 1172 3481 
Q 1172 3119 1398 2916 
Q 1625 2713 2034 2713 
Q 2441 2713 2670 2916 
Q 2900 3119 2900 3481 
Q 2900 3844 2670 4047 
Q 2441 4250 2034 4250 
Q 1625 4250 1398 4047 
Q 1172 3844 1172 3481 
z
" transform="scale(0.015625)"/>
       </defs>
       <use xlink:href="#DejaVuSans-38"/>
       <use xlink:href="#DejaVuSans-30" transform="translate(63.623047 0)"/>
       <use xlink:href="#DejaVuSans-30" transform="translate(127.246094 0)"/>
      </g>
     </g>
    </g>
    <g id="ytick_3">
     <g id="line2d_27">
      <path d="M 108 250.934632 
L 777.6 250.934632 
" clip-path="url(#pa718c5e928)" style="fill: none; stroke-dasharray: 5.12,1.28,0.8,1.28; stroke-dashoffset: 0; stroke: #b0b0b0; stroke-width: 0.8"/>
     </g>
     <g id="line2d_28">
      <g>
       <use xlink:href="#mee31df2047" x="108" y="250.934632" style="fill: #a9a9a9; stroke: #a9a9a9; stroke-width: 0.8"/>
      </g>
     </g>
     <g id="text_14">
      <!-- 1600 -->
      <g style="fill: #a9a9a9" transform="translate(75.55 254.73385) scale(0.1 -0.1)">
       <defs>
        <path id="DejaVuSans-36" d="M 2113 2584 
Q 1688 2584 1439 2293 
Q 1191 2003 1191 1497 
Q 1191 994 1439 701 
Q 1688 409 2113 409 
Q 2538 409 2786 701 
Q 3034 994 3034 1497 
Q 3034 2003 2786 2293 
Q 2538 2584 2113 2584 
z
M 3366 4563 
L 3366 3988 
Q 3128 4100 2886 4159 
Q 2644 4219 2406 4219 
Q 1781 4219 1451 3797 
Q 1122 3375 1075 2522 
Q 1259 2794 1537 2939 
Q 1816 3084 2150 3084 
Q 2853 3084 3261 2657 
Q 3669 2231 3669 1497 
Q 3669 778 3244 343 
Q 2819 -91 2113 -91 
Q 1303 -91 875 529 
Q 447 1150 447 2328 
Q 447 3434 972 4092 
Q 1497 4750 2381 4750 
Q 2619 4750 2861 4703 
Q 3103 4656 3366 4563 
z
" transform="scale(0.015625)"/>
       </defs>
       <use xlink:href="#DejaVuSans-31"/>
       <use xlink:href="#DejaVuSans-36" transform="translate(63.623047 0)"/>
       <use xlink:href="#DejaVuSans-30" transform="translate(127.246094 0)"/>
       <use xlink:href="#DejaVuSans-30" transform="translate(190.869141 0)"/>
      </g>
     </g>
    </g>
    <g id="ytick_4">
     <g id="line2d_29">
      <path d="M 108 222.484166 
L 777.6 222.484166 
" clip-path="url(#pa718c5e928)" style="fill: none; stroke-dasharray: 5.12,1.28,0.8,1.28; stroke-dashoffset: 0; stroke: #b0b0b0; stroke-width: 0.8"/>
     </g>
     <g id="line2d_30">
      <g>
       <use xlink:href="#mee31df2047" x="108" y="222.484166" style="fill: #a9a9a9; stroke: #a9a9a9; stroke-width: 0.8"/>
      </g>
     </g>
     <g id="text_15">
      <!-- 2400 -->
      <g style="fill: #a9a9a9" transform="translate(75.55 226.283385) scale(0.1 -0.1)">
       <use xlink:href="#DejaVuSans-32"/>
       <use xlink:href="#DejaVuSans-34" transform="translate(63.623047 0)"/>
       <use xlink:href="#DejaVuSans-30" transform="translate(127.246094 0)"/>
       <use xlink:href="#DejaVuSans-30" transform="translate(190.869141 0)"/>
      </g>
     </g>
    </g>
    <g id="ytick_5">
     <g id="line2d_31">
      <path d="M 108 194.0337 
L 777.6 194.0337 
" clip-path="url(#pa718c5e928)" style="fill: none; stroke-dasharray: 5.12,1.28,0.8,1.28; stroke-dashoffset: 0; stroke: #b0b0b0; stroke-width: 0.8"/>
     </g>
     <g id="line2d_32">
      <g>
       <use xlink:href="#mee31df2047" x="108" y="194.0337" style="fill: #a9a9a9; stroke: #a9a9a9; stroke-width: 0.8"/>
      </g>
     </g>
     <g id="text_16">
      <!-- 3200 -->
      <g style="fill: #a9a9a9" transform="translate(75.55 197.832919) scale(0.1 -0.1)">
       <use xlink:href="#DejaVuSans-33"/>
       <use xlink:href="#DejaVuSans-32" transform="translate(63.623047 0)"/>
       <use xlink:href="#DejaVuSans-30" transform="translate(127.246094 0)"/>
       <use xlink:href="#DejaVuSans-30" transform="translate(190.869141 0)"/>
      </g>
     </g>
    </g>
    <g id="ytick_6">
     <g id="line2d_33">
      <path d="M 108 165.583235 
L 777.6 165.583235 
" clip-path="url(#pa718c5e928)" style="fill: none; stroke-dasharray: 5.12,1.28,0.8,1.28; stroke-dashoffset: 0; stroke: #b0b0b0; stroke-width: 0.8"/>
     </g>
     <g id="line2d_34">
      <g>
       <use xlink:href="#mee31df2047" x="108" y="165.583235" style="fill: #a9a9a9; stroke: #a9a9a9; stroke-width: 0.8"/>
      </g>
     </g>
     <g id="text_17">
      <!-- 4000 -->
      <g style="fill: #a9a9a9" transform="translate(75.55 169.382453) scale(0.1 -0.1)">
       <use xlink:href="#DejaVuSans-34"/>
       <use xlink:href="#DejaVuSans-30" transform="translate(63.623047 0)"/>
       <use xlink:href="#DejaVuSans-30" transform="translate(127.246094 0)"/>
       <use xlink:href="#DejaVuSans-30" transform="translate(190.869141 0)"/>
      </g>
     </g>
    </g>
    <g id="ytick_7">
     <g id="line2d_35">
      <path d="M 108 137.132769 
L 777.6 137.132769 
" clip-path="url(#pa718c5e928)" style="fill: none; stroke-dasharray: 5.12,1.28,0.8,1.28; stroke-dashoffset: 0; stroke: #b0b0b0; stroke-width: 0.8"/>
     </g>
     <g id="line2d_36">
      <g>
       <use xlink:href="#mee31df2047" x="108" y="137.132769" style="fill: #a9a9a9; stroke: #a9a9a9; stroke-width: 0.8"/>
      </g>
     </g>
     <g id="text_18">
      <!-- 4800 -->
      <g style="fill: #a9a9a9" transform="translate(75.55 140.931988) scale(0.1 -0.1)">
       <use xlink:href="#DejaVuSans-34"/>
       <use xlink:href="#DejaVuSans-38" transform="translate(63.623047 0)"/>
       <use xlink:href="#DejaVuSans-30" transform="translate(127.246094 0)"/>
       <use xlink:href="#DejaVuSans-30" transform="translate(190.869141 0)"/>
      </g>
     </g>
    </g>
    <g id="ytick_8">
     <g id="line2d_37">
      <path d="M 108 108.682303 
L 777.6 108.682303 
" clip-path="url(#pa718c5e928)" style="fill: none; stroke-dasharray: 5.12,1.28,0.8,1.28; stroke-dashoffset: 0; stroke: #b0b0b0; stroke-width: 0.8"/>
     </g>
     <g id="line2d_38">
      <g>
       <use xlink:href="#mee31df2047" x="108" y="108.682303" style="fill: #a9a9a9; stroke: #a9a9a9; stroke-width: 0.8"/>
      </g>
     </g>
     <g id="text_19">
      <!-- 5600 -->
      <g style="fill: #a9a9a9" transform="translate(75.55 112.481522) scale(0.1 -0.1)">
       <use xlink:href="#DejaVuSans-35"/>
       <use xlink:href="#DejaVuSans-36" transform="translate(63.623047 0)"/>
       <use xlink:href="#DejaVuSans-30" transform="translate(127.246094 0)"/>
       <use xlink:href="#DejaVuSans-30" transform="translate(190.869141 0)"/>
      </g>
     </g>
    </g>
    <g id="ytick_9">
     <g id="line2d_39">
      <path d="M 108 80.231837 
L 777.6 80.231837 
" clip-path="url(#pa718c5e928)" style="fill: none; stroke-dasharray: 5.12,1.28,0.8,1.28; stroke-dashoffset: 0; stroke: #b0b0b0; stroke-width: 0.8"/>
     </g>
     <g id="line2d_40">
      <g>
       <use xlink:href="#mee31df2047" x="108" y="80.231837" style="fill: #a9a9a9; stroke: #a9a9a9; stroke-width: 0.8"/>
      </g>
     </g>
     <g id="text_20">
      <!-- 6400 -->
      <g style="fill: #a9a9a9" transform="translate(75.55 84.031056) scale(0.1 -0.1)">
       <use xlink:href="#DejaVuSans-36"/>
       <use xlink:href="#DejaVuSans-34" transform="translate(63.623047 0)"/>
       <use xlink:href="#DejaVuSans-30" transform="translate(127.246094 0)"/>
       <use xlink:href="#DejaVuSans-30" transform="translate(190.869141 0)"/>
      </g>
     </g>
    </g>
    <g id="ytick_10">
     <g id="line2d_41">
      <path d="M 108 51.781372 
L 777.6 51.781372 
" clip-path="url(#pa718c5e928)" style="fill: none; stroke-dasharray: 5.12,1.28,0.8,1.28; stroke-dashoffset: 0; stroke: #b0b0b0; stroke-width: 0.8"/>
     </g>
     <g id="line2d_42">
      <g>
       <use xlink:href="#mee31df2047" x="108" y="51.781372" style="fill: #a9a9a9; stroke: #a9a9a9; stroke-width: 0.8"/>
      </g>
     </g>
     <g id="text_21">
      <!-- 7200 -->
      <g style="fill: #a9a9a9" transform="translate(75.55 55.58059) scale(0.1 -0.1)">
       <defs>
        <path id="DejaVuSans-37" d="M 525 4666 
L 3525 4666 
L 3525 4397 
L 1831 0 
L 1172 0 
L 2766 4134 
L 525 4134 
L 525 4666 
z
" transform="scale(0.015625)"/>
       </defs>
       <use xlink:href="#DejaVuSans-37"/>
       <use xlink:href="#DejaVuSans-32" transform="translate(63.623047 0)"/>
       <use xlink:href="#DejaVuSans-30" transform="translate(127.246094 0)"/>
       <use xlink:href="#DejaVuSans-30" transform="translate(190.869141 0)"/>
      </g>
     </g>
    </g>
   </g>
   <g id="line2d_43">
    <path d="M 138.436364 307.728874 
L 141.377075 307.479932 
L 141.867194 307.266554 
L 143.827668 307.017612 
L 145.788142 306.626418 
L 146.768379 306.484166 
L 149.218972 306.270787 
L 150.199209 305.879594 
L 150.689328 305.239458 
L 151.179447 304.883827 
L 151.669565 303.781372 
L 152.159684 303.710246 
L 152.649802 303.319052 
L 153.63004 302.821169 
L 155.590514 301.256393 
L 157.550988 300.29619 
L 159.021344 299.620491 
L 159.511462 298.838103 
L 160.4917 298.126842 
L 160.981818 297.913463 
L 165.883004 297.202202 
L 166.373123 296.988823 
L 169.803953 296.704318 
L 171.764427 296.241998 
L 175.685375 295.708552 
L 176.175494 295.45961 
L 176.665613 295.388484 
L 177.64585 295.068417 
L 181.07668 294.499407 
L 182.056917 294.214903 
L 186.467984 293.468078 
L 187.448221 293.254699 
L 188.428458 293.219136 
L 190.388933 292.756816 
L 190.879051 292.081118 
L 192.349407 291.512108 
L 193.819763 291.120914 
L 194.309881 290.871973 
L 195.290119 290.694157 
L 197.250593 290.125148 
L 198.23083 290.054022 
L 199.211067 289.80508 
L 201.171542 289.307197 
L 201.66166 289.271634 
L 202.641897 288.809314 
L 203.132016 288.738188 
L 203.622134 288.489246 
L 209.013439 287.600169 
L 210.973913 287.03116 
L 211.464032 286.711092 
L 213.914625 285.893141 
L 214.894862 285.217443 
L 216.365217 284.932938 
L 229.1083 281.341067 
L 229.598419 281.341067 
L 230.088538 281.127688 
L 231.068775 281.020999 
L 231.558893 280.843184 
L 233.519368 280.736494 
L 234.499605 280.558679 
L 235.479842 280.060796 
L 236.950198 279.52735 
L 237.440316 279.207282 
L 238.420553 278.780525 
L 238.910672 278.531583 
L 239.890909 278.211516 
L 240.381028 278.069263 
L 241.361265 277.464691 
L 241.851383 276.931245 
L 242.831621 275.437595 
L 243.321739 275.295343 
L 243.811858 275.295343 
L 245.282213 274.441829 
L 245.772332 274.192887 
L 246.262451 274.086198 
L 246.752569 273.623878 
L 247.732806 273.232684 
L 248.713043 272.770364 
L 249.203162 272.165792 
L 249.693281 271.383404 
L 250.183399 271.063336 
L 250.673518 270.209822 
L 251.163636 269.676376 
L 254.104348 268.1116 
L 255.084585 267.329213 
L 255.574704 267.009145 
L 256.064822 266.26232 
L 256.554941 265.159865 
L 257.045059 264.41304 
L 257.535178 264.021846 
L 258.025296 263.808467 
L 261.456126 260.892295 
L 262.436364 259.718713 
L 263.416601 259.007451 
L 265.867194 257.513802 
L 266.847431 256.980356 
L 268.807905 255.949026 
L 271.258498 253.744115 
L 272.238735 253.352921 
L 273.218972 252.677223 
L 273.709091 252.392718 
L 274.199209 252.321592 
L 275.669565 251.503641 
L 276.159684 250.970195 
L 278.610277 249.654361 
L 279.100395 249.476545 
L 280.570751 248.480779 
L 287.92253 245.884674 
L 288.902767 244.995597 
L 289.883004 244.533277 
L 290.863241 243.999831 
L 291.35336 243.715326 
L 292.333597 243.430821 
L 292.823715 243.110754 
L 293.313834 242.968501 
L 294.78419 242.008298 
L 297.234783 241.439289 
L 298.705138 240.585775 
L 300.175494 240.265707 
L 300.665613 240.123455 
L 302.135968 239.020999 
L 304.096443 238.487553 
L 304.586561 238.096359 
L 307.527273 237.100593 
L 308.50751 236.922777 
L 309.487747 236.531583 
L 312.918577 235.286876 
L 313.898814 235.144623 
L 315.36917 234.64674 
L 317.819763 233.473158 
L 319.780237 232.406266 
L 323.701186 230.805927 
L 324.191304 230.734801 
L 325.171542 230.130229 
L 325.66166 230.059102 
L 327.622134 229.241152 
L 329.582609 228.99221 
L 330.562846 228.494327 
L 331.052964 228.06757 
L 331.543083 227.178493 
L 333.503557 226.645047 
L 334.973913 225.898222 
L 335.464032 225.791533 
L 339.38498 223.906689 
L 340.855336 223.622185 
L 341.835573 223.124301 
L 342.325692 222.910923 
L 342.81581 222.839797 
L 344.776285 221.95072 
L 346.24664 221.02608 
L 347.716996 220.741575 
L 350.167589 220.137003 
L 350.657708 219.745809 
L 352.128063 219.212362 
L 354.088538 218.429975 
L 354.578656 218.074344 
L 355.068775 217.896528 
L 356.049012 217.363082 
L 358.499605 216.545131 
L 359.96996 215.37155 
L 360.460079 215.26486 
L 361.440316 214.482472 
L 361.930435 214.411346 
L 362.420553 213.628959 
L 362.910672 213.41558 
L 363.400791 213.024386 
L 363.890909 212.95326 
L 364.871146 212.348688 
L 365.851383 212.02862 
L 366.341502 211.672989 
L 366.831621 211.495174 
L 368.301976 210.463844 
L 370.262451 209.432515 
L 370.752569 209.361389 
L 372.222925 208.614564 
L 372.713043 207.796613 
L 373.693281 207.085351 
L 374.183399 206.978662 
L 375.163636 206.37409 
L 375.653755 206.267401 
L 376.633992 205.769517 
L 378.594466 204.809314 
L 379.084585 204.453683 
L 380.064822 203.49348 
L 381.045059 202.888908 
L 381.535178 202.56884 
L 382.025296 202.035394 
L 383.985771 200.683997 
L 384.475889 200.114987 
L 384.966008 199.723793 
L 385.946245 199.368163 
L 386.926482 198.692464 
L 388.396838 197.945639 
L 388.886957 197.874513 
L 390.357312 197.092125 
L 391.337549 196.487553 
L 396.238735 194.709399 
L 396.728854 194.318205 
L 398.689328 193.57138 
L 399.179447 193.429128 
L 399.669565 193.037934 
L 402.120158 191.686537 
L 403.100395 189.730567 
L 404.080632 188.592549 
L 405.550988 187.845724 
L 406.531225 187.45453 
L 407.021344 187.383404 
L 407.511462 187.098899 
L 409.962055 186.316511 
L 410.452174 186.103133 
L 411.432411 185.427434 
L 412.902767 184.787299 
L 413.883004 184.253853 
L 414.373123 183.898222 
L 414.863241 183.684843 
L 415.35336 183.329213 
L 415.843478 182.795766 
L 416.823715 182.26232 
L 419.274308 180.946486 
L 422.21502 179.4884 
L 423.685375 179.061643 
L 425.155731 178.492633 
L 425.64585 178.137003 
L 426.626087 177.852498 
L 427.606324 177.461304 
L 428.096443 177.07011 
L 430.056917 176.394412 
L 431.037154 175.68315 
L 432.017391 175.256393 
L 432.997628 174.474005 
L 433.977866 174.118374 
L 434.467984 173.691617 
L 434.958103 173.620491 
L 435.93834 172.873666 
L 436.918577 172.375783 
L 437.408696 172.162405 
L 437.898814 171.664522 
L 441.329644 170.313124 
L 442.309881 169.886367 
L 443.780237 169.424047 
L 444.760474 169.281795 
L 445.250593 169.068417 
L 445.740711 168.99729 
L 446.720949 168.570533 
L 447.211067 168.53497 
L 449.171542 167.788146 
L 450.641897 166.756816 
L 451.132016 166.579001 
L 452.112253 166.045555 
L 452.602372 165.903302 
L 455.543083 164.267401 
L 456.033202 164.160711 
L 457.503557 163.307197 
L 458.973913 162.809314 
L 459.95415 162.489246 
L 461.914625 161.849111 
L 462.894862 161.529043 
L 464.855336 161.137849 
L 465.345455 160.924471 
L 465.835573 160.853345 
L 466.81581 160.426588 
L 467.305929 160.355461 
L 467.796047 160.10652 
L 468.776285 159.928704 
L 470.24664 159.395258 
L 471.226877 159.288569 
L 472.697233 158.968501 
L 475.147826 158.541744 
L 487.890909 154.843184 
L 488.381028 154.345301 
L 489.361265 153.954107 
L 493.282213 152.49602 
L 493.772332 152.211516 
L 495.242688 151.784759 
L 496.222925 151.535817 
L 496.713043 151.215749 
L 497.203162 151.10906 
L 497.693281 150.682303 
L 499.163636 150.397798 
L 500.143874 149.935478 
L 500.633992 149.366469 
L 502.594466 148.904149 
L 506.025296 148.192887 
L 506.515415 148.192887 
L 507.005534 147.979509 
L 508.966008 147.623878 
L 509.456126 147.4105 
L 511.416601 147.054869 
L 512.396838 146.628112 
L 513.377075 146.450296 
L 515.827668 145.845724 
L 517.788142 145.241152 
L 518.278261 145.134462 
L 518.768379 144.885521 
L 519.748617 144.636579 
L 520.238735 144.352075 
L 521.709091 143.854191 
L 522.199209 143.534124 
L 523.179447 143.249619 
L 527.100395 141.898222 
L 528.080632 141.827096 
L 530.041107 141.258086 
L 530.531225 140.973582 
L 531.511462 140.689077 
L 533.962055 139.586622 
L 534.452174 139.551058 
L 539.843478 137.666215 
L 542.294071 137.02608 
L 543.274308 136.56376 
L 544.744664 136.243692 
L 545.234783 135.852498 
L 545.724901 135.603556 
L 546.21502 134.998984 
L 546.705138 134.643353 
L 547.685375 134.358848 
L 548.175494 133.967655 
L 551.116206 132.865199 
L 551.606324 132.545131 
L 552.586561 132.260627 
L 553.07668 131.940559 
L 555.527273 131.158171 
L 556.997628 130.304657 
L 557.487747 130.197968 
L 559.93834 128.882134 
L 561.408696 128.241998 
L 561.898814 127.886367 
L 562.879051 127.5663 
L 563.859289 126.99729 
L 564.349407 126.819475 
L 564.839526 126.463844 
L 571.211067 124.22337 
L 571.701186 124.116681 
L 572.191304 123.796613 
L 574.151779 123.405419 
L 575.132016 123.014225 
L 578.072727 121.591702 
L 578.562846 121.520576 
L 580.033202 120.702625 
L 581.503557 120.204742 
L 584.934387 118.817782 
L 585.424506 118.675529 
L 585.914625 118.355461 
L 586.894862 118.248772 
L 587.38498 117.928704 
L 588.365217 117.750889 
L 589.345455 117.288569 
L 589.835573 117.075191 
L 590.325692 117.004064 
L 592.776285 116.043861 
L 594.24664 115.652667 
L 595.226877 115.403726 
L 596.697233 114.976969 
L 597.67747 114.585775 
L 599.637945 113.518882 
L 600.618182 113.127688 
L 601.1083 112.807621 
L 602.088538 112.594242 
L 602.578656 112.309738 
L 603.068775 112.203048 
L 604.53913 111.385097 
L 605.519368 110.993903 
L 607.479842 110.247079 
L 609.930435 109.429128 
L 610.910672 108.931245 
L 613.361265 108.113294 
L 616.301976 106.939712 
L 618.262451 106.050635 
L 623.163636 104.165792 
L 623.653755 103.845724 
L 625.614229 103.170025 
L 626.104348 103.170025 
L 627.084585 102.743268 
L 628.064822 101.854191 
L 628.554941 101.427434 
L 630.025296 100.716173 
L 630.515415 100.609483 
L 631.005534 100.360542 
L 631.495652 100.289416 
L 631.985771 99.933785 
L 632.475889 99.827096 
L 633.456126 99.222523 
L 634.926482 98.475699 
L 635.906719 98.084505 
L 636.396838 97.835563 
L 637.867194 97.515495 
L 640.317787 96.697544 
L 641.298024 96.377477 
L 642.768379 95.630652 
L 643.748617 95.168332 
L 644.728854 94.91939 
L 646.199209 94.243692 
L 650.610277 92.643353 
L 652.080632 91.754276 
L 652.570751 91.647587 
L 653.550988 91.149704 
L 654.531225 90.794073 
L 655.021344 90.367316 
L 656.001581 89.976122 
L 658.942292 88.80254 
L 660.412648 88.375783 
L 660.902767 88.126842 
L 661.392885 88.055715 
L 662.863241 87.522269 
L 664.333597 86.988823 
L 665.313834 86.597629 
L 665.803953 86.206435 
L 667.274308 85.815241 
L 667.764427 85.530737 
L 668.744664 85.281795 
L 670.21502 84.463844 
L 670.705138 84.428281 
L 672.175494 83.965961 
L 673.155731 83.894835 
L 674.135968 83.503641 
L 677.07668 82.650127 
L 678.056917 82.614564 
L 681.977866 81.369856 
L 682.958103 80.83641 
L 683.448221 80.409653 
L 684.918577 79.556139 
L 685.898814 78.951566 
L 688.839526 78.026926 
L 689.329644 77.635732 
L 692.270356 76.426588 
L 694.23083 75.893141 
L 695.211067 75.466384 
L 695.701186 75.217443 
L 696.681423 74.932938 
L 697.171542 74.648434 
L 698.151779 74.470618 
L 700.602372 73.332599 
L 701.09249 73.048095 
L 702.562846 72.692464 
L 703.052964 72.372396 
L 703.543083 72.194581 
L 704.033202 71.767824 
L 704.52332 71.696698 
L 706.973913 70.736494 
L 708.444269 70.416427 
L 708.934387 70.345301 
L 709.424506 70.131922 
L 709.914625 70.096359 
L 710.894862 69.776291 
L 711.38498 69.740728 
L 712.855336 69.171719 
L 714.81581 68.60271 
L 715.796047 67.820322 
L 717.756522 66.753429 
L 719.226877 66.255546 
L 722.167589 64.939712 
L 723.147826 64.406266 
L 723.637945 64.157324 
L 724.128063 63.695004 
L 727.068775 62.734801 
L 728.049012 62.343607 
L 729.029249 62.059102 
L 729.519368 61.810161 
L 730.009486 61.347841 
L 731.96996 60.849958 
L 732.460079 60.494327 
L 739.321739 58.1116 
L 742.262451 57.18696 
L 743.242688 56.795766 
L 744.222925 56.440135 
L 745.203162 56.191194 
L 745.693281 55.977815 
L 747.163636 55.8 
L 747.163636 55.8 
" clip-path="url(#pa718c5e928)" style="fill: none; stroke: #1f77b4; stroke-width: 1.5; stroke-linecap: square"/>
   </g>
   <g id="line2d_44">
    <path d="M 138.926482 307.8 
L 143.337549 307.693311 
L 147.258498 307.515495 
L 149.218972 307.515495 
L 149.709091 307.373243 
L 152.159684 307.266554 
L 155.100395 306.946486 
L 158.041107 306.839797 
L 159.021344 306.733108 
L 162.452174 306.590855 
L 165.883004 306.484166 
L 168.333597 306.41304 
L 174.705138 306.306351 
L 177.155731 306.235224 
L 180.586561 306.128535 
L 183.037154 306.057409 
L 188.428458 305.95072 
L 190.388933 305.772904 
L 192.349407 305.737341 
L 195.290119 305.630652 
L 197.250593 305.595089 
L 199.701186 305.523963 
L 201.66166 305.346147 
L 206.072727 305.239458 
L 207.052964 305.168332 
L 209.013439 305.061643 
L 211.95415 304.954953 
L 213.914625 304.848264 
L 222.736759 304.314818 
L 226.167589 304.208129 
L 227.637945 304.065876 
L 230.088538 303.959187 
L 234.989723 303.710246 
L 239.890909 303.639119 
L 241.851383 303.425741 
L 243.811858 303.319052 
L 249.203162 302.821169 
L 252.633992 302.429975 
L 254.104348 302.358848 
L 258.515415 301.825402 
L 260.966008 301.754276 
L 262.436364 301.612024 
L 263.906719 301.505334 
L 277.63004 300.474005 
L 278.610277 300.29619 
L 281.550988 300.1895 
L 289.392885 299.72718 
L 292.823715 299.620491 
L 294.78419 299.407113 
L 297.234783 299.300423 
L 300.175494 299.193734 
L 302.626087 299.087045 
L 304.586561 299.051482 
L 307.037154 298.980356 
L 308.017391 298.838103 
L 314.879051 298.731414 
L 315.859289 298.624725 
L 321.740711 298.518036 
L 326.151779 298.304657 
L 329.582609 298.197968 
L 331.543083 297.984589 
L 334.973913 297.8779 
L 335.95415 297.700085 
L 338.404743 297.628959 
L 343.305929 297.557832 
L 345.756522 297.308891 
L 348.697233 297.202202 
L 350.657708 297.024386 
L 355.558893 296.775445 
L 360.460079 296.668755 
L 364.871146 296.455377 
L 366.341502 296.419814 
L 367.321739 296.277561 
L 369.772332 296.170872 
L 370.752569 296.099746 
L 371.732806 296.02862 
L 372.713043 295.957494 
L 377.124111 295.886367 
L 378.594466 295.779678 
L 391.827668 294.926164 
L 394.278261 294.819475 
L 396.728854 294.748349 
L 403.590514 294.64166 
L 404.570751 294.499407 
L 411.432411 294.392718 
L 416.333597 294.143776 
L 417.313834 294.108213 
L 418.294071 294.001524 
L 420.744664 293.894835 
L 423.195257 293.823709 
L 425.64585 293.717019 
L 428.096443 293.645893 
L 432.50751 293.539204 
L 435.448221 293.432515 
L 442.309881 293.325826 
L 447.701186 293.041321 
L 449.66166 292.970195 
L 451.132016 292.863506 
L 457.993676 292.756816 
L 460.934387 292.650127 
L 469.756522 292.543438 
L 471.716996 292.507875 
L 477.598419 292.436749 
L 478.578656 292.365622 
L 485.440316 292.258933 
L 487.400791 292.22337 
L 500.143874 292.116681 
L 501.614229 291.974428 
L 523.669565 291.867739 
L 526.120158 291.796613 
L 538.863241 291.689924 
L 539.843478 291.618798 
L 542.294071 291.547671 
L 543.764427 291.405419 
L 546.705138 291.29873 
L 550.135968 291.156478 
L 554.547036 291.049788 
L 556.997628 290.978662 
L 560.428458 290.871973 
L 564.349407 290.694157 
L 566.8 290.587468 
L 568.760474 290.551905 
L 573.171542 290.445216 
L 575.132016 290.409653 
L 581.503557 290.302964 
L 583.464032 290.267401 
L 585.914625 290.160711 
L 588.855336 290.054022 
L 592.286166 289.982896 
L 593.266403 289.91177 
L 605.029249 289.80508 
L 611.400791 289.44945 
L 613.851383 289.378323 
L 614.831621 289.271634 
L 615.811858 289.200508 
L 619.732806 289.093819 
L 622.673518 288.98713 
L 627.574704 288.88044 
L 630.025296 288.631499 
L 634.926482 288.524809 
L 635.906719 288.41812 
L 640.807905 288.311431 
L 643.258498 288.240305 
L 648.649802 288.204742 
L 649.63004 288.098052 
L 655.021344 287.991363 
L 656.001581 287.920237 
L 666.78419 287.813548 
L 669.724901 287.706859 
L 677.07668 287.600169 
L 679.037154 287.564606 
L 683.448221 287.49348 
L 684.428458 287.386791 
L 690.8 287.280102 
L 693.250593 287.208975 
L 702.072727 287.102286 
L 703.543083 286.995597 
L 705.013439 286.888908 
L 706.483794 286.782218 
L 713.835573 286.675529 
L 717.266403 286.533277 
L 730.009486 286.426588 
L 734.420553 286.213209 
L 740.301976 286.10652 
L 741.282213 285.999831 
L 747.163636 285.893141 
L 747.163636 285.893141 
" clip-path="url(#pa718c5e928)" style="fill: none; stroke: #ff7f0e; stroke-width: 1.5; stroke-linecap: square"/>
   </g>
   <g id="patch_3">
    <path d="M 108 320.4 
L 108 43.2 
" style="fill: none; stroke: #a9a9a9; stroke-width: 0.8; stroke-linejoin: miter; stroke-linecap: square"/>
   </g>
   <g id="patch_4">
    <path d="M 777.6 320.4 
L 777.6 43.2 
" style="fill: none"/>
   </g>
   <g id="patch_5">
    <path d="M 108 320.4 
L 777.6 320.4 
" style="fill: none; stroke: #a9a9a9; stroke-width: 0.8; stroke-linejoin: miter; stroke-linecap: square"/>
   </g>
   <g id="patch_6">
    <path d="M 108 43.2 
L 777.6 43.2 
" style="fill: none"/>
   </g>
   <g id="text_22">
    <!-- get_subscribe history -->
    <g style="fill: #a9a9a9" transform="translate(378.6075 37.2) scale(0.12 -0.12)">
     <defs>
      <path id="DejaVuSans-67" d="M 2906 1791 
Q 2906 2416 2648 2759 
Q 2391 3103 1925 3103 
Q 1463 3103 1205 2759 
Q 947 2416 947 1791 
Q 947 1169 1205 825 
Q 1463 481 1925 481 
Q 2391 481 2648 825 
Q 2906 1169 2906 1791 
z
M 3481 434 
Q 3481 -459 3084 -895 
Q 2688 -1331 1869 -1331 
Q 1566 -1331 1297 -1286 
Q 1028 -1241 775 -1147 
L 775 -588 
Q 1028 -725 1275 -790 
Q 1522 -856 1778 -856 
Q 2344 -856 2625 -561 
Q 2906 -266 2906 331 
L 2906 616 
Q 2728 306 2450 153 
Q 2172 0 1784 0 
Q 1141 0 747 490 
Q 353 981 353 1791 
Q 353 2603 747 3093 
Q 1141 3584 1784 3584 
Q 2172 3584 2450 3431 
Q 2728 3278 2906 2969 
L 2906 3500 
L 3481 3500 
L 3481 434 
z
" transform="scale(0.015625)"/>
      <path id="DejaVuSans-65" d="M 3597 1894 
L 3597 1613 
L 953 1613 
Q 991 1019 1311 708 
Q 1631 397 2203 397 
Q 2534 397 2845 478 
Q 3156 559 3463 722 
L 3463 178 
Q 3153 47 2828 -22 
Q 2503 -91 2169 -91 
Q 1331 -91 842 396 
Q 353 884 353 1716 
Q 353 2575 817 3079 
Q 1281 3584 2069 3584 
Q 2775 3584 3186 3129 
Q 3597 2675 3597 1894 
z
M 3022 2063 
Q 3016 2534 2758 2815 
Q 2500 3097 2075 3097 
Q 1594 3097 1305 2825 
Q 1016 2553 972 2059 
L 3022 2063 
z
" transform="scale(0.015625)"/>
      <path id="DejaVuSans-74" d="M 1172 4494 
L 1172 3500 
L 2356 3500 
L 2356 3053 
L 1172 3053 
L 1172 1153 
Q 1172 725 1289 603 
Q 1406 481 1766 481 
L 2356 481 
L 2356 0 
L 1766 0 
Q 1100 0 847 248 
Q 594 497 594 1153 
L 594 3053 
L 172 3053 
L 172 3500 
L 594 3500 
L 594 4494 
L 1172 4494 
z
" transform="scale(0.015625)"/>
      <path id="DejaVuSans-5f" d="M 3263 -1063 
L 3263 -1509 
L -63 -1509 
L -63 -1063 
L 3263 -1063 
z
" transform="scale(0.015625)"/>
      <path id="DejaVuSans-73" d="M 2834 3397 
L 2834 2853 
Q 2591 2978 2328 3040 
Q 2066 3103 1784 3103 
Q 1356 3103 1142 2972 
Q 928 2841 928 2578 
Q 928 2378 1081 2264 
Q 1234 2150 1697 2047 
L 1894 2003 
Q 2506 1872 2764 1633 
Q 3022 1394 3022 966 
Q 3022 478 2636 193 
Q 2250 -91 1575 -91 
Q 1294 -91 989 -36 
Q 684 19 347 128 
L 347 722 
Q 666 556 975 473 
Q 1284 391 1588 391 
Q 1994 391 2212 530 
Q 2431 669 2431 922 
Q 2431 1156 2273 1281 
Q 2116 1406 1581 1522 
L 1381 1569 
Q 847 1681 609 1914 
Q 372 2147 372 2553 
Q 372 3047 722 3315 
Q 1072 3584 1716 3584 
Q 2034 3584 2315 3537 
Q 2597 3491 2834 3397 
z
" transform="scale(0.015625)"/>
      <path id="DejaVuSans-75" d="M 544 1381 
L 544 3500 
L 1119 3500 
L 1119 1403 
Q 1119 906 1312 657 
Q 1506 409 1894 409 
Q 2359 409 2629 706 
Q 2900 1003 2900 1516 
L 2900 3500 
L 3475 3500 
L 3475 0 
L 2900 0 
L 2900 538 
Q 2691 219 2414 64 
Q 2138 -91 1772 -91 
Q 1169 -91 856 284 
Q 544 659 544 1381 
z
M 1991 3584 
L 1991 3584 
z
" transform="scale(0.015625)"/>
      <path id="DejaVuSans-62" d="M 3116 1747 
Q 3116 2381 2855 2742 
Q 2594 3103 2138 3103 
Q 1681 3103 1420 2742 
Q 1159 2381 1159 1747 
Q 1159 1113 1420 752 
Q 1681 391 2138 391 
Q 2594 391 2855 752 
Q 3116 1113 3116 1747 
z
M 1159 2969 
Q 1341 3281 1617 3432 
Q 1894 3584 2278 3584 
Q 2916 3584 3314 3078 
Q 3713 2572 3713 1747 
Q 3713 922 3314 415 
Q 2916 -91 2278 -91 
Q 1894 -91 1617 61 
Q 1341 213 1159 525 
L 1159 0 
L 581 0 
L 581 4863 
L 1159 4863 
L 1159 2969 
z
" transform="scale(0.015625)"/>
      <path id="DejaVuSans-63" d="M 3122 3366 
L 3122 2828 
Q 2878 2963 2633 3030 
Q 2388 3097 2138 3097 
Q 1578 3097 1268 2742 
Q 959 2388 959 1747 
Q 959 1106 1268 751 
Q 1578 397 2138 397 
Q 2388 397 2633 464 
Q 2878 531 3122 666 
L 3122 134 
Q 2881 22 2623 -34 
Q 2366 -91 2075 -91 
Q 1284 -91 818 406 
Q 353 903 353 1747 
Q 353 2603 823 3093 
Q 1294 3584 2113 3584 
Q 2378 3584 2631 3529 
Q 2884 3475 3122 3366 
z
" transform="scale(0.015625)"/>
      <path id="DejaVuSans-72" d="M 2631 2963 
Q 2534 3019 2420 3045 
Q 2306 3072 2169 3072 
Q 1681 3072 1420 2755 
Q 1159 2438 1159 1844 
L 1159 0 
L 581 0 
L 581 3500 
L 1159 3500 
L 1159 2956 
Q 1341 3275 1631 3429 
Q 1922 3584 2338 3584 
Q 2397 3584 2469 3576 
Q 2541 3569 2628 3553 
L 2631 2963 
z
" transform="scale(0.015625)"/>
      <path id="DejaVuSans-69" d="M 603 3500 
L 1178 3500 
L 1178 0 
L 603 0 
L 603 3500 
z
M 603 4863 
L 1178 4863 
L 1178 4134 
L 603 4134 
L 603 4863 
z
" transform="scale(0.015625)"/>
      <path id="DejaVuSans-20" transform="scale(0.015625)"/>
      <path id="DejaVuSans-68" d="M 3513 2113 
L 3513 0 
L 2938 0 
L 2938 2094 
Q 2938 2591 2744 2837 
Q 2550 3084 2163 3084 
Q 1697 3084 1428 2787 
Q 1159 2491 1159 1978 
L 1159 0 
L 581 0 
L 581 4863 
L 1159 4863 
L 1159 2956 
Q 1366 3272 1645 3428 
Q 1925 3584 2291 3584 
Q 2894 3584 3203 3211 
Q 3513 2838 3513 2113 
z
" transform="scale(0.015625)"/>
      <path id="DejaVuSans-6f" d="M 1959 3097 
Q 1497 3097 1228 2736 
Q 959 2375 959 1747 
Q 959 1119 1226 758 
Q 1494 397 1959 397 
Q 2419 397 2687 759 
Q 2956 1122 2956 1747 
Q 2956 2369 2687 2733 
Q 2419 3097 1959 3097 
z
M 1959 3584 
Q 2709 3584 3137 3096 
Q 3566 2609 3566 1747 
Q 3566 888 3137 398 
Q 2709 -91 1959 -91 
Q 1206 -91 779 398 
Q 353 888 353 1747 
Q 353 2609 779 3096 
Q 1206 3584 1959 3584 
z
" transform="scale(0.015625)"/>
      <path id="DejaVuSans-79" d="M 2059 -325 
Q 1816 -950 1584 -1140 
Q 1353 -1331 966 -1331 
L 506 -1331 
L 506 -850 
L 844 -850 
Q 1081 -850 1212 -737 
Q 1344 -625 1503 -206 
L 1606 56 
L 191 3500 
L 800 3500 
L 1894 763 
L 2988 3500 
L 3597 3500 
L 2059 -325 
z
" transform="scale(0.015625)"/>
     </defs>
     <use xlink:href="#DejaVuSans-67"/>
     <use xlink:href="#DejaVuSans-65" transform="translate(63.476562 0)"/>
     <use xlink:href="#DejaVuSans-74" transform="translate(125 0)"/>
     <use xlink:href="#DejaVuSans-5f" transform="translate(164.208984 0)"/>
     <use xlink:href="#DejaVuSans-73" transform="translate(214.208984 0)"/>
     <use xlink:href="#DejaVuSans-75" transform="translate(266.308594 0)"/>
     <use xlink:href="#DejaVuSans-62" transform="translate(329.6875 0)"/>
     <use xlink:href="#DejaVuSans-73" transform="translate(393.164062 0)"/>
     <use xlink:href="#DejaVuSans-63" transform="translate(445.263672 0)"/>
     <use xlink:href="#DejaVuSans-72" transform="translate(500.244141 0)"/>
     <use xlink:href="#DejaVuSans-69" transform="translate(541.357422 0)"/>
     <use xlink:href="#DejaVuSans-62" transform="translate(569.140625 0)"/>
     <use xlink:href="#DejaVuSans-65" transform="translate(632.617188 0)"/>
     <use xlink:href="#DejaVuSans-20" transform="translate(694.140625 0)"/>
     <use xlink:href="#DejaVuSans-68" transform="translate(725.927734 0)"/>
     <use xlink:href="#DejaVuSans-69" transform="translate(789.306641 0)"/>
     <use xlink:href="#DejaVuSans-73" transform="translate(817.089844 0)"/>
     <use xlink:href="#DejaVuSans-74" transform="translate(869.189453 0)"/>
     <use xlink:href="#DejaVuSans-6f" transform="translate(908.398438 0)"/>
     <use xlink:href="#DejaVuSans-72" transform="translate(969.580078 0)"/>
     <use xlink:href="#DejaVuSans-79" transform="translate(1010.693359 0)"/>
    </g>
   </g>
   <g id="legend_1">
    <g id="line2d_45">
     <path d="M 815.08 328.498438 
L 825.08 328.498438 
L 835.08 328.498438 
" style="fill: none; stroke: #1f77b4; stroke-width: 1.5; stroke-linecap: square"/>
    </g>
    <g id="text_23">
     <!-- star -->
     <g style="fill: #a9a9a9" transform="translate(843.08 331.998438) scale(0.1 -0.1)">
      <defs>
       <path id="DejaVuSans-61" d="M 2194 1759 
Q 1497 1759 1228 1600 
Q 959 1441 959 1056 
Q 959 750 1161 570 
Q 1363 391 1709 391 
Q 2188 391 2477 730 
Q 2766 1069 2766 1631 
L 2766 1759 
L 2194 1759 
z
M 3341 1997 
L 3341 0 
L 2766 0 
L 2766 531 
Q 2569 213 2275 61 
Q 1981 -91 1556 -91 
Q 1019 -91 701 211 
Q 384 513 384 1019 
Q 384 1609 779 1909 
Q 1175 2209 1959 2209 
L 2766 2209 
L 2766 2266 
Q 2766 2663 2505 2880 
Q 2244 3097 1772 3097 
Q 1472 3097 1187 3025 
Q 903 2953 641 2809 
L 641 3341 
Q 956 3463 1253 3523 
Q 1550 3584 1831 3584 
Q 2591 3584 2966 3190 
Q 3341 2797 3341 1997 
z
" transform="scale(0.015625)"/>
      </defs>
      <use xlink:href="#DejaVuSans-73"/>
      <use xlink:href="#DejaVuSans-74" transform="translate(52.099609 0)"/>
      <use xlink:href="#DejaVuSans-61" transform="translate(91.308594 0)"/>
      <use xlink:href="#DejaVuSans-72" transform="translate(152.587891 0)"/>
     </g>
    </g>
    <g id="line2d_46">
     <path d="M 815.08 343.176562 
L 825.08 343.176562 
L 835.08 343.176562 
" style="fill: none; stroke: #ff7f0e; stroke-width: 1.5; stroke-linecap: square"/>
    </g>
    <g id="text_24">
     <!-- fork -->
     <g style="fill: #a9a9a9" transform="translate(843.08 346.676562) scale(0.1 -0.1)">
      <defs>
       <path id="DejaVuSans-66" d="M 2375 4863 
L 2375 4384 
L 1825 4384 
Q 1516 4384 1395 4259 
Q 1275 4134 1275 3809 
L 1275 3500 
L 2222 3500 
L 2222 3053 
L 1275 3053 
L 1275 0 
L 697 0 
L 697 3053 
L 147 3053 
L 147 3500 
L 697 3500 
L 697 3744 
Q 697 4328 969 4595 
Q 1241 4863 1831 4863 
L 2375 4863 
z
" transform="scale(0.015625)"/>
       <path id="DejaVuSans-6b" d="M 581 4863 
L 1159 4863 
L 1159 1991 
L 2875 3500 
L 3609 3500 
L 1753 1863 
L 3688 0 
L 2938 0 
L 1159 1709 
L 1159 0 
L 581 0 
L 581 4863 
z
" transform="scale(0.015625)"/>
      </defs>
      <use xlink:href="#DejaVuSans-66"/>
      <use xlink:href="#DejaVuSans-6f" transform="translate(35.205078 0)"/>
      <use xlink:href="#DejaVuSans-72" transform="translate(96.386719 0)"/>
      <use xlink:href="#DejaVuSans-6b" transform="translate(137.5 0)"/>
     </g>
    </g>
   </g>
  </g>
 </g>
 <defs>
  <clipPath id="pa718c5e928">
   <rect x="108" y="43.2" width="669.6" height="277.2"/>
  </clipPath>
 </defs>
</svg>
