<?xml version="1.0" encoding="utf-8" standalone="no"?>
<!DOCTYPE svg PUBLIC "-//W3C//DTD SVG 1.1//EN"
  "http://www.w3.org/Graphics/SVG/1.1/DTD/svg11.dtd">
<svg xmlns:xlink="http://www.w3.org/1999/xlink" width="864pt" height="360pt" viewBox="0 0 864 360" xmlns="http://www.w3.org/2000/svg" version="1.1">
 <metadata>
  <rdf:RDF xmlns:dc="http://purl.org/dc/elements/1.1/" xmlns:cc="http://creativecommons.org/ns#" xmlns:rdf="http://www.w3.org/1999/02/22-rdf-syntax-ns#">
   <cc:Work>
    <dc:type rdf:resource="http://purl.org/dc/dcmitype/StillImage"/>
    <dc:date>2024-12-22T02:19:33.212298</dc:date>
    <dc:format>image/svg+xml</dc:format>
    <dc:creator>
     <cc:Agent>
      <dc:title>Matplotlib v3.10.0, https://matplotlib.org/</dc:title>
     </cc:Agent>
    </dc:creator>
   </cc:Work>
  </rdf:RDF>
 </metadata>
 <defs>
  <style type="text/css">*{stroke-linejoin: round; stroke-linecap: butt}</style>
 </defs>
 <g id="figure_1">
  <g id="patch_1">
   <path d="M 0 360 
L 864 360 
L 864 0 
L 0 0 
L 0 360 
z
" style="fill: none; opacity: 0"/>
  </g>
  <g id="axes_1">
   <g id="patch_2">
    <path d="M 108 320.4 
L 777.6 320.4 
L 777.6 43.2 
L 108 43.2 
L 108 320.4 
z
" style="fill: none; opacity: 0"/>
   </g>
   <g id="matplotlib.axis_1">
    <g id="xtick_1">
     <g id="line2d_1">
      <path d="M 157.474346 320.4 
L 157.474346 43.2 
" clip-path="url(#p3b2a70db66)" style="fill: none; stroke-dasharray: 5.12,1.28,0.8,1.28; stroke-dashoffset: 0; stroke: #b0b0b0; stroke-width: 0.8"/>
     </g>
     <g id="line2d_2">
      <defs>
       <path id="mb2f39dbd49" d="M 0 0 
L 0 3.5 
" style="stroke: #a9a9a9; stroke-width: 0.8"/>
      </defs>
      <g>
       <use xlink:href="#mb2f39dbd49" x="157.474346" y="320.4" style="fill: #a9a9a9; stroke: #a9a9a9; stroke-width: 0.8"/>
      </g>
     </g>
     <g id="text_1">
      <!-- 2021-09 -->
      <g style="fill: #a9a9a9" transform="translate(136.582939 334.998438) scale(0.1 -0.1)">
       <defs>
        <path id="DejaVuSans-32" d="M 1228 531 
L 3431 531 
L 3431 0 
L 469 0 
L 469 531 
Q 828 903 1448 1529 
Q 2069 2156 2228 2338 
Q 2531 2678 2651 2914 
Q 2772 3150 2772 3378 
Q 2772 3750 2511 3984 
Q 2250 4219 1831 4219 
Q 1534 4219 1204 4116 
Q 875 4013 500 3803 
L 500 4441 
Q 881 4594 1212 4672 
Q 1544 4750 1819 4750 
Q 2544 4750 2975 4387 
Q 3406 4025 3406 3419 
Q 3406 3131 3298 2873 
Q 3191 2616 2906 2266 
Q 2828 2175 2409 1742 
Q 1991 1309 1228 531 
z
" transform="scale(0.015625)"/>
        <path id="DejaVuSans-30" d="M 2034 4250 
Q 1547 4250 1301 3770 
Q 1056 3291 1056 2328 
Q 1056 1369 1301 889 
Q 1547 409 2034 409 
Q 2525 409 2770 889 
Q 3016 1369 3016 2328 
Q 3016 3291 2770 3770 
Q 2525 4250 2034 4250 
z
M 2034 4750 
Q 2819 4750 3233 4129 
Q 3647 3509 3647 2328 
Q 3647 1150 3233 529 
Q 2819 -91 2034 -91 
Q 1250 -91 836 529 
Q 422 1150 422 2328 
Q 422 3509 836 4129 
Q 1250 4750 2034 4750 
z
" transform="scale(0.015625)"/>
        <path id="DejaVuSans-31" d="M 794 531 
L 1825 531 
L 1825 4091 
L 703 3866 
L 703 4441 
L 1819 4666 
L 2450 4666 
L 2450 531 
L 3481 531 
L 3481 0 
L 794 0 
L 794 531 
z
" transform="scale(0.015625)"/>
        <path id="DejaVuSans-2d" d="M 313 2009 
L 1997 2009 
L 1997 1497 
L 313 1497 
L 313 2009 
z
" transform="scale(0.015625)"/>
        <path id="DejaVuSans-39" d="M 703 97 
L 703 672 
Q 941 559 1184 500 
Q 1428 441 1663 441 
Q 2288 441 2617 861 
Q 2947 1281 2994 2138 
Q 2813 1869 2534 1725 
Q 2256 1581 1919 1581 
Q 1219 1581 811 2004 
Q 403 2428 403 3163 
Q 403 3881 828 4315 
Q 1253 4750 1959 4750 
Q 2769 4750 3195 4129 
Q 3622 3509 3622 2328 
Q 3622 1225 3098 567 
Q 2575 -91 1691 -91 
Q 1453 -91 1209 -44 
Q 966 3 703 97 
z
M 1959 2075 
Q 2384 2075 2632 2365 
Q 2881 2656 2881 3163 
Q 2881 3666 2632 3958 
Q 2384 4250 1959 4250 
Q 1534 4250 1286 3958 
Q 1038 3666 1038 3163 
Q 1038 2656 1286 2365 
Q 1534 2075 1959 2075 
z
" transform="scale(0.015625)"/>
       </defs>
       <use xlink:href="#DejaVuSans-32"/>
       <use xlink:href="#DejaVuSans-30" transform="translate(63.623047 0)"/>
       <use xlink:href="#DejaVuSans-32" transform="translate(127.246094 0)"/>
       <use xlink:href="#DejaVuSans-31" transform="translate(190.869141 0)"/>
       <use xlink:href="#DejaVuSans-2d" transform="translate(254.492188 0)"/>
       <use xlink:href="#DejaVuSans-30" transform="translate(290.576172 0)"/>
       <use xlink:href="#DejaVuSans-39" transform="translate(354.199219 0)"/>
      </g>
     </g>
    </g>
    <g id="xtick_2">
     <g id="line2d_3">
      <path d="M 217.029059 320.4 
L 217.029059 43.2 
" clip-path="url(#p3b2a70db66)" style="fill: none; stroke-dasharray: 5.12,1.28,0.8,1.28; stroke-dashoffset: 0; stroke: #b0b0b0; stroke-width: 0.8"/>
     </g>
     <g id="line2d_4">
      <g>
       <use xlink:href="#mb2f39dbd49" x="217.029059" y="320.4" style="fill: #a9a9a9; stroke: #a9a9a9; stroke-width: 0.8"/>
      </g>
     </g>
     <g id="text_2">
      <!-- 2022-01 -->
      <g style="fill: #a9a9a9" transform="translate(196.137653 334.998438) scale(0.1 -0.1)">
       <use xlink:href="#DejaVuSans-32"/>
       <use xlink:href="#DejaVuSans-30" transform="translate(63.623047 0)"/>
       <use xlink:href="#DejaVuSans-32" transform="translate(127.246094 0)"/>
       <use xlink:href="#DejaVuSans-32" transform="translate(190.869141 0)"/>
       <use xlink:href="#DejaVuSans-2d" transform="translate(254.492188 0)"/>
       <use xlink:href="#DejaVuSans-30" transform="translate(290.576172 0)"/>
       <use xlink:href="#DejaVuSans-31" transform="translate(354.199219 0)"/>
      </g>
     </g>
    </g>
    <g id="xtick_3">
     <g id="line2d_5">
      <path d="M 275.607465 320.4 
L 275.607465 43.2 
" clip-path="url(#p3b2a70db66)" style="fill: none; stroke-dasharray: 5.12,1.28,0.8,1.28; stroke-dashoffset: 0; stroke: #b0b0b0; stroke-width: 0.8"/>
     </g>
     <g id="line2d_6">
      <g>
       <use xlink:href="#mb2f39dbd49" x="275.607465" y="320.4" style="fill: #a9a9a9; stroke: #a9a9a9; stroke-width: 0.8"/>
      </g>
     </g>
     <g id="text_3">
      <!-- 2022-05 -->
      <g style="fill: #a9a9a9" transform="translate(254.716059 334.998438) scale(0.1 -0.1)">
       <defs>
        <path id="DejaVuSans-35" d="M 691 4666 
L 3169 4666 
L 3169 4134 
L 1269 4134 
L 1269 2991 
Q 1406 3038 1543 3061 
Q 1681 3084 1819 3084 
Q 2600 3084 3056 2656 
Q 3513 2228 3513 1497 
Q 3513 744 3044 326 
Q 2575 -91 1722 -91 
Q 1428 -91 1123 -41 
Q 819 9 494 109 
L 494 744 
Q 775 591 1075 516 
Q 1375 441 1709 441 
Q 2250 441 2565 725 
Q 2881 1009 2881 1497 
Q 2881 1984 2565 2268 
Q 2250 2553 1709 2553 
Q 1456 2553 1204 2497 
Q 953 2441 691 2322 
L 691 4666 
z
" transform="scale(0.015625)"/>
       </defs>
       <use xlink:href="#DejaVuSans-32"/>
       <use xlink:href="#DejaVuSans-30" transform="translate(63.623047 0)"/>
       <use xlink:href="#DejaVuSans-32" transform="translate(127.246094 0)"/>
       <use xlink:href="#DejaVuSans-32" transform="translate(190.869141 0)"/>
       <use xlink:href="#DejaVuSans-2d" transform="translate(254.492188 0)"/>
       <use xlink:href="#DejaVuSans-30" transform="translate(290.576172 0)"/>
       <use xlink:href="#DejaVuSans-35" transform="translate(354.199219 0)"/>
      </g>
     </g>
    </g>
    <g id="xtick_4">
     <g id="line2d_7">
      <path d="M 335.650332 320.4 
L 335.650332 43.2 
" clip-path="url(#p3b2a70db66)" style="fill: none; stroke-dasharray: 5.12,1.28,0.8,1.28; stroke-dashoffset: 0; stroke: #b0b0b0; stroke-width: 0.8"/>
     </g>
     <g id="line2d_8">
      <g>
       <use xlink:href="#mb2f39dbd49" x="335.650332" y="320.4" style="fill: #a9a9a9; stroke: #a9a9a9; stroke-width: 0.8"/>
      </g>
     </g>
     <g id="text_4">
      <!-- 2022-09 -->
      <g style="fill: #a9a9a9" transform="translate(314.758925 334.998438) scale(0.1 -0.1)">
       <use xlink:href="#DejaVuSans-32"/>
       <use xlink:href="#DejaVuSans-30" transform="translate(63.623047 0)"/>
       <use xlink:href="#DejaVuSans-32" transform="translate(127.246094 0)"/>
       <use xlink:href="#DejaVuSans-32" transform="translate(190.869141 0)"/>
       <use xlink:href="#DejaVuSans-2d" transform="translate(254.492188 0)"/>
       <use xlink:href="#DejaVuSans-30" transform="translate(290.576172 0)"/>
       <use xlink:href="#DejaVuSans-39" transform="translate(354.199219 0)"/>
      </g>
     </g>
    </g>
    <g id="xtick_5">
     <g id="line2d_9">
      <path d="M 395.205045 320.4 
L 395.205045 43.2 
" clip-path="url(#p3b2a70db66)" style="fill: none; stroke-dasharray: 5.12,1.28,0.8,1.28; stroke-dashoffset: 0; stroke: #b0b0b0; stroke-width: 0.8"/>
     </g>
     <g id="line2d_10">
      <g>
       <use xlink:href="#mb2f39dbd49" x="395.205045" y="320.4" style="fill: #a9a9a9; stroke: #a9a9a9; stroke-width: 0.8"/>
      </g>
     </g>
     <g id="text_5">
      <!-- 2023-01 -->
      <g style="fill: #a9a9a9" transform="translate(374.313639 334.998438) scale(0.1 -0.1)">
       <defs>
        <path id="DejaVuSans-33" d="M 2597 2516 
Q 3050 2419 3304 2112 
Q 3559 1806 3559 1356 
Q 3559 666 3084 287 
Q 2609 -91 1734 -91 
Q 1441 -91 1130 -33 
Q 819 25 488 141 
L 488 750 
Q 750 597 1062 519 
Q 1375 441 1716 441 
Q 2309 441 2620 675 
Q 2931 909 2931 1356 
Q 2931 1769 2642 2001 
Q 2353 2234 1838 2234 
L 1294 2234 
L 1294 2753 
L 1863 2753 
Q 2328 2753 2575 2939 
Q 2822 3125 2822 3475 
Q 2822 3834 2567 4026 
Q 2313 4219 1838 4219 
Q 1578 4219 1281 4162 
Q 984 4106 628 3988 
L 628 4550 
Q 988 4650 1302 4700 
Q 1616 4750 1894 4750 
Q 2613 4750 3031 4423 
Q 3450 4097 3450 3541 
Q 3450 3153 3228 2886 
Q 3006 2619 2597 2516 
z
" transform="scale(0.015625)"/>
       </defs>
       <use xlink:href="#DejaVuSans-32"/>
       <use xlink:href="#DejaVuSans-30" transform="translate(63.623047 0)"/>
       <use xlink:href="#DejaVuSans-32" transform="translate(127.246094 0)"/>
       <use xlink:href="#DejaVuSans-33" transform="translate(190.869141 0)"/>
       <use xlink:href="#DejaVuSans-2d" transform="translate(254.492188 0)"/>
       <use xlink:href="#DejaVuSans-30" transform="translate(290.576172 0)"/>
       <use xlink:href="#DejaVuSans-31" transform="translate(354.199219 0)"/>
      </g>
     </g>
    </g>
    <g id="xtick_6">
     <g id="line2d_11">
      <path d="M 453.783451 320.4 
L 453.783451 43.2 
" clip-path="url(#p3b2a70db66)" style="fill: none; stroke-dasharray: 5.12,1.28,0.8,1.28; stroke-dashoffset: 0; stroke: #b0b0b0; stroke-width: 0.8"/>
     </g>
     <g id="line2d_12">
      <g>
       <use xlink:href="#mb2f39dbd49" x="453.783451" y="320.4" style="fill: #a9a9a9; stroke: #a9a9a9; stroke-width: 0.8"/>
      </g>
     </g>
     <g id="text_6">
      <!-- 2023-05 -->
      <g style="fill: #a9a9a9" transform="translate(432.892045 334.998438) scale(0.1 -0.1)">
       <use xlink:href="#DejaVuSans-32"/>
       <use xlink:href="#DejaVuSans-30" transform="translate(63.623047 0)"/>
       <use xlink:href="#DejaVuSans-32" transform="translate(127.246094 0)"/>
       <use xlink:href="#DejaVuSans-33" transform="translate(190.869141 0)"/>
       <use xlink:href="#DejaVuSans-2d" transform="translate(254.492188 0)"/>
       <use xlink:href="#DejaVuSans-30" transform="translate(290.576172 0)"/>
       <use xlink:href="#DejaVuSans-35" transform="translate(354.199219 0)"/>
      </g>
     </g>
    </g>
    <g id="xtick_7">
     <g id="line2d_13">
      <path d="M 513.826318 320.4 
L 513.826318 43.2 
" clip-path="url(#p3b2a70db66)" style="fill: none; stroke-dasharray: 5.12,1.28,0.8,1.28; stroke-dashoffset: 0; stroke: #b0b0b0; stroke-width: 0.8"/>
     </g>
     <g id="line2d_14">
      <g>
       <use xlink:href="#mb2f39dbd49" x="513.826318" y="320.4" style="fill: #a9a9a9; stroke: #a9a9a9; stroke-width: 0.8"/>
      </g>
     </g>
     <g id="text_7">
      <!-- 2023-09 -->
      <g style="fill: #a9a9a9" transform="translate(492.934911 334.998438) scale(0.1 -0.1)">
       <use xlink:href="#DejaVuSans-32"/>
       <use xlink:href="#DejaVuSans-30" transform="translate(63.623047 0)"/>
       <use xlink:href="#DejaVuSans-32" transform="translate(127.246094 0)"/>
       <use xlink:href="#DejaVuSans-33" transform="translate(190.869141 0)"/>
       <use xlink:href="#DejaVuSans-2d" transform="translate(254.492188 0)"/>
       <use xlink:href="#DejaVuSans-30" transform="translate(290.576172 0)"/>
       <use xlink:href="#DejaVuSans-39" transform="translate(354.199219 0)"/>
      </g>
     </g>
    </g>
    <g id="xtick_8">
     <g id="line2d_15">
      <path d="M 573.381031 320.4 
L 573.381031 43.2 
" clip-path="url(#p3b2a70db66)" style="fill: none; stroke-dasharray: 5.12,1.28,0.8,1.28; stroke-dashoffset: 0; stroke: #b0b0b0; stroke-width: 0.8"/>
     </g>
     <g id="line2d_16">
      <g>
       <use xlink:href="#mb2f39dbd49" x="573.381031" y="320.4" style="fill: #a9a9a9; stroke: #a9a9a9; stroke-width: 0.8"/>
      </g>
     </g>
     <g id="text_8">
      <!-- 2024-01 -->
      <g style="fill: #a9a9a9" transform="translate(552.489625 334.998438) scale(0.1 -0.1)">
       <defs>
        <path id="DejaVuSans-34" d="M 2419 4116 
L 825 1625 
L 2419 1625 
L 2419 4116 
z
M 2253 4666 
L 3047 4666 
L 3047 1625 
L 3713 1625 
L 3713 1100 
L 3047 1100 
L 3047 0 
L 2419 0 
L 2419 1100 
L 313 1100 
L 313 1709 
L 2253 4666 
z
" transform="scale(0.015625)"/>
       </defs>
       <use xlink:href="#DejaVuSans-32"/>
       <use xlink:href="#DejaVuSans-30" transform="translate(63.623047 0)"/>
       <use xlink:href="#DejaVuSans-32" transform="translate(127.246094 0)"/>
       <use xlink:href="#DejaVuSans-34" transform="translate(190.869141 0)"/>
       <use xlink:href="#DejaVuSans-2d" transform="translate(254.492188 0)"/>
       <use xlink:href="#DejaVuSans-30" transform="translate(290.576172 0)"/>
       <use xlink:href="#DejaVuSans-31" transform="translate(354.199219 0)"/>
      </g>
     </g>
    </g>
    <g id="xtick_9">
     <g id="line2d_17">
      <path d="M 632.447591 320.4 
L 632.447591 43.2 
" clip-path="url(#p3b2a70db66)" style="fill: none; stroke-dasharray: 5.12,1.28,0.8,1.28; stroke-dashoffset: 0; stroke: #b0b0b0; stroke-width: 0.8"/>
     </g>
     <g id="line2d_18">
      <g>
       <use xlink:href="#mb2f39dbd49" x="632.447591" y="320.4" style="fill: #a9a9a9; stroke: #a9a9a9; stroke-width: 0.8"/>
      </g>
     </g>
     <g id="text_9">
      <!-- 2024-05 -->
      <g style="fill: #a9a9a9" transform="translate(611.556184 334.998438) scale(0.1 -0.1)">
       <use xlink:href="#DejaVuSans-32"/>
       <use xlink:href="#DejaVuSans-30" transform="translate(63.623047 0)"/>
       <use xlink:href="#DejaVuSans-32" transform="translate(127.246094 0)"/>
       <use xlink:href="#DejaVuSans-34" transform="translate(190.869141 0)"/>
       <use xlink:href="#DejaVuSans-2d" transform="translate(254.492188 0)"/>
       <use xlink:href="#DejaVuSans-30" transform="translate(290.576172 0)"/>
       <use xlink:href="#DejaVuSans-35" transform="translate(354.199219 0)"/>
      </g>
     </g>
    </g>
    <g id="xtick_10">
     <g id="line2d_19">
      <path d="M 692.490457 320.4 
L 692.490457 43.2 
" clip-path="url(#p3b2a70db66)" style="fill: none; stroke-dasharray: 5.12,1.28,0.8,1.28; stroke-dashoffset: 0; stroke: #b0b0b0; stroke-width: 0.8"/>
     </g>
     <g id="line2d_20">
      <g>
       <use xlink:href="#mb2f39dbd49" x="692.490457" y="320.4" style="fill: #a9a9a9; stroke: #a9a9a9; stroke-width: 0.8"/>
      </g>
     </g>
     <g id="text_10">
      <!-- 2024-09 -->
      <g style="fill: #a9a9a9" transform="translate(671.599051 334.998438) scale(0.1 -0.1)">
       <use xlink:href="#DejaVuSans-32"/>
       <use xlink:href="#DejaVuSans-30" transform="translate(63.623047 0)"/>
       <use xlink:href="#DejaVuSans-32" transform="translate(127.246094 0)"/>
       <use xlink:href="#DejaVuSans-34" transform="translate(190.869141 0)"/>
       <use xlink:href="#DejaVuSans-2d" transform="translate(254.492188 0)"/>
       <use xlink:href="#DejaVuSans-30" transform="translate(290.576172 0)"/>
       <use xlink:href="#DejaVuSans-39" transform="translate(354.199219 0)"/>
      </g>
     </g>
    </g>
    <g id="xtick_11">
     <g id="line2d_21">
      <path d="M 752.04517 320.4 
L 752.04517 43.2 
" clip-path="url(#p3b2a70db66)" style="fill: none; stroke-dasharray: 5.12,1.28,0.8,1.28; stroke-dashoffset: 0; stroke: #b0b0b0; stroke-width: 0.8"/>
     </g>
     <g id="line2d_22">
      <g>
       <use xlink:href="#mb2f39dbd49" x="752.04517" y="320.4" style="fill: #a9a9a9; stroke: #a9a9a9; stroke-width: 0.8"/>
      </g>
     </g>
     <g id="text_11">
      <!-- 2025-01 -->
      <g style="fill: #a9a9a9" transform="translate(731.153764 334.998438) scale(0.1 -0.1)">
       <use xlink:href="#DejaVuSans-32"/>
       <use xlink:href="#DejaVuSans-30" transform="translate(63.623047 0)"/>
       <use xlink:href="#DejaVuSans-32" transform="translate(127.246094 0)"/>
       <use xlink:href="#DejaVuSans-35" transform="translate(190.869141 0)"/>
       <use xlink:href="#DejaVuSans-2d" transform="translate(254.492188 0)"/>
       <use xlink:href="#DejaVuSans-30" transform="translate(290.576172 0)"/>
       <use xlink:href="#DejaVuSans-31" transform="translate(354.199219 0)"/>
      </g>
     </g>
    </g>
   </g>
   <g id="matplotlib.axis_2">
    <g id="ytick_1">
     <g id="line2d_23">
      <path d="M 108 307.835423 
L 777.6 307.835423 
" clip-path="url(#p3b2a70db66)" style="fill: none; stroke-dasharray: 5.12,1.28,0.8,1.28; stroke-dashoffset: 0; stroke: #b0b0b0; stroke-width: 0.8"/>
     </g>
     <g id="line2d_24">
      <defs>
       <path id="mc602ba55c7" d="M 0 0 
L -3.5 0 
" style="stroke: #a9a9a9; stroke-width: 0.8"/>
      </defs>
      <g>
       <use xlink:href="#mc602ba55c7" x="108" y="307.835423" style="fill: #a9a9a9; stroke: #a9a9a9; stroke-width: 0.8"/>
      </g>
     </g>
     <g id="text_12">
      <!-- 0 -->
      <g style="fill: #a9a9a9" transform="translate(94.6375 311.634642) scale(0.1 -0.1)">
       <use xlink:href="#DejaVuSans-30"/>
      </g>
     </g>
    </g>
    <g id="ytick_2">
     <g id="line2d_25">
      <path d="M 108 279.496936 
L 777.6 279.496936 
" clip-path="url(#p3b2a70db66)" style="fill: none; stroke-dasharray: 5.12,1.28,0.8,1.28; stroke-dashoffset: 0; stroke: #b0b0b0; stroke-width: 0.8"/>
     </g>
     <g id="line2d_26">
      <g>
       <use xlink:href="#mc602ba55c7" x="108" y="279.496936" style="fill: #a9a9a9; stroke: #a9a9a9; stroke-width: 0.8"/>
      </g>
     </g>
     <g id="text_13">
      <!-- 800 -->
      <g style="fill: #a9a9a9" transform="translate(81.9125 283.296154) scale(0.1 -0.1)">
       <defs>
        <path id="DejaVuSans-38" d="M 2034 2216 
Q 1584 2216 1326 1975 
Q 1069 1734 1069 1313 
Q 1069 891 1326 650 
Q 1584 409 2034 409 
Q 2484 409 2743 651 
Q 3003 894 3003 1313 
Q 3003 1734 2745 1975 
Q 2488 2216 2034 2216 
z
M 1403 2484 
Q 997 2584 770 2862 
Q 544 3141 544 3541 
Q 544 4100 942 4425 
Q 1341 4750 2034 4750 
Q 2731 4750 3128 4425 
Q 3525 4100 3525 3541 
Q 3525 3141 3298 2862 
Q 3072 2584 2669 2484 
Q 3125 2378 3379 2068 
Q 3634 1759 3634 1313 
Q 3634 634 3220 271 
Q 2806 -91 2034 -91 
Q 1263 -91 848 271 
Q 434 634 434 1313 
Q 434 1759 690 2068 
Q 947 2378 1403 2484 
z
M 1172 3481 
Q 1172 3119 1398 2916 
Q 1625 2713 2034 2713 
Q 2441 2713 2670 2916 
Q 2900 3119 2900 3481 
Q 2900 3844 2670 4047 
Q 2441 4250 2034 4250 
Q 1625 4250 1398 4047 
Q 1172 3844 1172 3481 
z
" transform="scale(0.015625)"/>
       </defs>
       <use xlink:href="#DejaVuSans-38"/>
       <use xlink:href="#DejaVuSans-30" transform="translate(63.623047 0)"/>
       <use xlink:href="#DejaVuSans-30" transform="translate(127.246094 0)"/>
      </g>
     </g>
    </g>
    <g id="ytick_3">
     <g id="line2d_27">
      <path d="M 108 251.158448 
L 777.6 251.158448 
" clip-path="url(#p3b2a70db66)" style="fill: none; stroke-dasharray: 5.12,1.28,0.8,1.28; stroke-dashoffset: 0; stroke: #b0b0b0; stroke-width: 0.8"/>
     </g>
     <g id="line2d_28">
      <g>
       <use xlink:href="#mc602ba55c7" x="108" y="251.158448" style="fill: #a9a9a9; stroke: #a9a9a9; stroke-width: 0.8"/>
      </g>
     </g>
     <g id="text_14">
      <!-- 1600 -->
      <g style="fill: #a9a9a9" transform="translate(75.55 254.957667) scale(0.1 -0.1)">
       <defs>
        <path id="DejaVuSans-36" d="M 2113 2584 
Q 1688 2584 1439 2293 
Q 1191 2003 1191 1497 
Q 1191 994 1439 701 
Q 1688 409 2113 409 
Q 2538 409 2786 701 
Q 3034 994 3034 1497 
Q 3034 2003 2786 2293 
Q 2538 2584 2113 2584 
z
M 3366 4563 
L 3366 3988 
Q 3128 4100 2886 4159 
Q 2644 4219 2406 4219 
Q 1781 4219 1451 3797 
Q 1122 3375 1075 2522 
Q 1259 2794 1537 2939 
Q 1816 3084 2150 3084 
Q 2853 3084 3261 2657 
Q 3669 2231 3669 1497 
Q 3669 778 3244 343 
Q 2819 -91 2113 -91 
Q 1303 -91 875 529 
Q 447 1150 447 2328 
Q 447 3434 972 4092 
Q 1497 4750 2381 4750 
Q 2619 4750 2861 4703 
Q 3103 4656 3366 4563 
z
" transform="scale(0.015625)"/>
       </defs>
       <use xlink:href="#DejaVuSans-31"/>
       <use xlink:href="#DejaVuSans-36" transform="translate(63.623047 0)"/>
       <use xlink:href="#DejaVuSans-30" transform="translate(127.246094 0)"/>
       <use xlink:href="#DejaVuSans-30" transform="translate(190.869141 0)"/>
      </g>
     </g>
    </g>
    <g id="ytick_4">
     <g id="line2d_29">
      <path d="M 108 222.819961 
L 777.6 222.819961 
" clip-path="url(#p3b2a70db66)" style="fill: none; stroke-dasharray: 5.12,1.28,0.8,1.28; stroke-dashoffset: 0; stroke: #b0b0b0; stroke-width: 0.8"/>
     </g>
     <g id="line2d_30">
      <g>
       <use xlink:href="#mc602ba55c7" x="108" y="222.819961" style="fill: #a9a9a9; stroke: #a9a9a9; stroke-width: 0.8"/>
      </g>
     </g>
     <g id="text_15">
      <!-- 2400 -->
      <g style="fill: #a9a9a9" transform="translate(75.55 226.619179) scale(0.1 -0.1)">
       <use xlink:href="#DejaVuSans-32"/>
       <use xlink:href="#DejaVuSans-34" transform="translate(63.623047 0)"/>
       <use xlink:href="#DejaVuSans-30" transform="translate(127.246094 0)"/>
       <use xlink:href="#DejaVuSans-30" transform="translate(190.869141 0)"/>
      </g>
     </g>
    </g>
    <g id="ytick_5">
     <g id="line2d_31">
      <path d="M 108 194.481473 
L 777.6 194.481473 
" clip-path="url(#p3b2a70db66)" style="fill: none; stroke-dasharray: 5.12,1.28,0.8,1.28; stroke-dashoffset: 0; stroke: #b0b0b0; stroke-width: 0.8"/>
     </g>
     <g id="line2d_32">
      <g>
       <use xlink:href="#mc602ba55c7" x="108" y="194.481473" style="fill: #a9a9a9; stroke: #a9a9a9; stroke-width: 0.8"/>
      </g>
     </g>
     <g id="text_16">
      <!-- 3200 -->
      <g style="fill: #a9a9a9" transform="translate(75.55 198.280692) scale(0.1 -0.1)">
       <use xlink:href="#DejaVuSans-33"/>
       <use xlink:href="#DejaVuSans-32" transform="translate(63.623047 0)"/>
       <use xlink:href="#DejaVuSans-30" transform="translate(127.246094 0)"/>
       <use xlink:href="#DejaVuSans-30" transform="translate(190.869141 0)"/>
      </g>
     </g>
    </g>
    <g id="ytick_6">
     <g id="line2d_33">
      <path d="M 108 166.142986 
L 777.6 166.142986 
" clip-path="url(#p3b2a70db66)" style="fill: none; stroke-dasharray: 5.12,1.28,0.8,1.28; stroke-dashoffset: 0; stroke: #b0b0b0; stroke-width: 0.8"/>
     </g>
     <g id="line2d_34">
      <g>
       <use xlink:href="#mc602ba55c7" x="108" y="166.142986" style="fill: #a9a9a9; stroke: #a9a9a9; stroke-width: 0.8"/>
      </g>
     </g>
     <g id="text_17">
      <!-- 4000 -->
      <g style="fill: #a9a9a9" transform="translate(75.55 169.942204) scale(0.1 -0.1)">
       <use xlink:href="#DejaVuSans-34"/>
       <use xlink:href="#DejaVuSans-30" transform="translate(63.623047 0)"/>
       <use xlink:href="#DejaVuSans-30" transform="translate(127.246094 0)"/>
       <use xlink:href="#DejaVuSans-30" transform="translate(190.869141 0)"/>
      </g>
     </g>
    </g>
    <g id="ytick_7">
     <g id="line2d_35">
      <path d="M 108 137.804498 
L 777.6 137.804498 
" clip-path="url(#p3b2a70db66)" style="fill: none; stroke-dasharray: 5.12,1.28,0.8,1.28; stroke-dashoffset: 0; stroke: #b0b0b0; stroke-width: 0.8"/>
     </g>
     <g id="line2d_36">
      <g>
       <use xlink:href="#mc602ba55c7" x="108" y="137.804498" style="fill: #a9a9a9; stroke: #a9a9a9; stroke-width: 0.8"/>
      </g>
     </g>
     <g id="text_18">
      <!-- 4800 -->
      <g style="fill: #a9a9a9" transform="translate(75.55 141.603717) scale(0.1 -0.1)">
       <use xlink:href="#DejaVuSans-34"/>
       <use xlink:href="#DejaVuSans-38" transform="translate(63.623047 0)"/>
       <use xlink:href="#DejaVuSans-30" transform="translate(127.246094 0)"/>
       <use xlink:href="#DejaVuSans-30" transform="translate(190.869141 0)"/>
      </g>
     </g>
    </g>
    <g id="ytick_8">
     <g id="line2d_37">
      <path d="M 108 109.466011 
L 777.6 109.466011 
" clip-path="url(#p3b2a70db66)" style="fill: none; stroke-dasharray: 5.12,1.28,0.8,1.28; stroke-dashoffset: 0; stroke: #b0b0b0; stroke-width: 0.8"/>
     </g>
     <g id="line2d_38">
      <g>
       <use xlink:href="#mc602ba55c7" x="108" y="109.466011" style="fill: #a9a9a9; stroke: #a9a9a9; stroke-width: 0.8"/>
      </g>
     </g>
     <g id="text_19">
      <!-- 5600 -->
      <g style="fill: #a9a9a9" transform="translate(75.55 113.265229) scale(0.1 -0.1)">
       <use xlink:href="#DejaVuSans-35"/>
       <use xlink:href="#DejaVuSans-36" transform="translate(63.623047 0)"/>
       <use xlink:href="#DejaVuSans-30" transform="translate(127.246094 0)"/>
       <use xlink:href="#DejaVuSans-30" transform="translate(190.869141 0)"/>
      </g>
     </g>
    </g>
    <g id="ytick_9">
     <g id="line2d_39">
      <path d="M 108 81.127523 
L 777.6 81.127523 
" clip-path="url(#p3b2a70db66)" style="fill: none; stroke-dasharray: 5.12,1.28,0.8,1.28; stroke-dashoffset: 0; stroke: #b0b0b0; stroke-width: 0.8"/>
     </g>
     <g id="line2d_40">
      <g>
       <use xlink:href="#mc602ba55c7" x="108" y="81.127523" style="fill: #a9a9a9; stroke: #a9a9a9; stroke-width: 0.8"/>
      </g>
     </g>
     <g id="text_20">
      <!-- 6400 -->
      <g style="fill: #a9a9a9" transform="translate(75.55 84.926742) scale(0.1 -0.1)">
       <use xlink:href="#DejaVuSans-36"/>
       <use xlink:href="#DejaVuSans-34" transform="translate(63.623047 0)"/>
       <use xlink:href="#DejaVuSans-30" transform="translate(127.246094 0)"/>
       <use xlink:href="#DejaVuSans-30" transform="translate(190.869141 0)"/>
      </g>
     </g>
    </g>
    <g id="ytick_10">
     <g id="line2d_41">
      <path d="M 108 52.789036 
L 777.6 52.789036 
" clip-path="url(#p3b2a70db66)" style="fill: none; stroke-dasharray: 5.12,1.28,0.8,1.28; stroke-dashoffset: 0; stroke: #b0b0b0; stroke-width: 0.8"/>
     </g>
     <g id="line2d_42">
      <g>
       <use xlink:href="#mc602ba55c7" x="108" y="52.789036" style="fill: #a9a9a9; stroke: #a9a9a9; stroke-width: 0.8"/>
      </g>
     </g>
     <g id="text_21">
      <!-- 7200 -->
      <g style="fill: #a9a9a9" transform="translate(75.55 56.588254) scale(0.1 -0.1)">
       <defs>
        <path id="DejaVuSans-37" d="M 525 4666 
L 3525 4666 
L 3525 4397 
L 1831 0 
L 1172 0 
L 2766 4134 
L 525 4134 
L 525 4666 
z
" transform="scale(0.015625)"/>
       </defs>
       <use xlink:href="#DejaVuSans-37"/>
       <use xlink:href="#DejaVuSans-32" transform="translate(63.623047 0)"/>
       <use xlink:href="#DejaVuSans-30" transform="translate(127.246094 0)"/>
       <use xlink:href="#DejaVuSans-30" transform="translate(190.869141 0)"/>
      </g>
     </g>
    </g>
   </g>
   <g id="line2d_43">
    <path d="M 138.436364 307.729154 
L 141.365284 307.481192 
L 141.853437 307.268653 
L 143.806051 307.020692 
L 145.758664 306.631037 
L 146.734971 306.489345 
L 149.175738 306.276806 
L 150.152045 305.887152 
L 150.640198 305.249536 
L 151.128352 304.895305 
L 151.616505 303.797189 
L 152.104658 303.726342 
L 152.592812 303.336688 
L 153.569119 302.840765 
L 155.521732 301.282148 
L 157.474346 300.325724 
L 158.938806 299.652685 
L 159.426959 298.873376 
L 160.403266 298.164914 
L 160.891419 297.952376 
L 165.772953 297.243913 
L 166.261107 297.031375 
L 169.67818 296.74799 
L 171.630794 296.287489 
L 175.536021 295.756143 
L 176.024174 295.508181 
L 176.512328 295.437335 
L 177.488635 295.118527 
L 180.905708 294.551757 
L 181.882015 294.268372 
L 186.275395 293.524487 
L 187.251702 293.311948 
L 188.228009 293.276525 
L 190.180623 292.816025 
L 190.668776 292.142986 
L 192.133236 291.576216 
L 193.597696 291.186562 
L 194.08585 290.9386 
L 195.062156 290.761484 
L 197.01477 290.194715 
L 197.991077 290.123868 
L 198.967384 289.875907 
L 200.919997 289.379983 
L 201.40815 289.34456 
L 202.384457 288.88406 
L 202.872611 288.813213 
L 203.360764 288.565252 
L 208.730451 287.679674 
L 210.683065 287.112904 
L 211.171218 286.794096 
L 213.611985 285.979365 
L 214.588292 285.306326 
L 216.052752 285.022941 
L 228.74474 281.445207 
L 229.232893 281.445207 
L 229.721047 281.232668 
L 230.697354 281.126399 
L 231.185507 280.949283 
L 233.138121 280.843014 
L 234.114427 280.665898 
L 235.090734 280.169975 
L 236.555194 279.638628 
L 237.043348 279.31982 
L 238.019654 278.894743 
L 238.507808 278.646781 
L 239.484115 278.327973 
L 239.972268 278.186281 
L 240.948575 277.584088 
L 241.436728 277.052741 
L 242.413035 275.56497 
L 242.901188 275.423278 
L 243.389342 275.423278 
L 244.853802 274.573123 
L 245.341955 274.325162 
L 245.830109 274.218892 
L 246.318262 273.758392 
L 247.294569 273.368738 
L 248.270876 272.908237 
L 248.759029 272.306044 
L 249.247182 271.526736 
L 249.735336 271.207928 
L 250.223489 270.357773 
L 250.711642 269.826427 
L 253.640563 268.26781 
L 254.61687 267.488502 
L 255.105023 267.169694 
L 255.593176 266.425808 
L 256.08133 265.327692 
L 256.569483 264.583807 
L 257.057637 264.194152 
L 257.54579 263.981614 
L 260.962864 261.076919 
L 261.93917 259.907956 
L 263.403631 258.880686 
L 265.356244 257.711723 
L 266.332551 257.180377 
L 268.285164 256.153107 
L 270.725931 253.956874 
L 271.702238 253.56722 
L 272.678545 252.89418 
L 273.166698 252.610796 
L 273.654852 252.539949 
L 275.119312 251.725218 
L 275.607465 251.193871 
L 278.048232 249.883216 
L 278.536386 249.706101 
L 280.000846 248.714254 
L 287.323146 246.128367 
L 288.299453 245.242789 
L 289.27576 244.782288 
L 290.252067 244.250942 
L 290.74022 243.967557 
L 291.716527 243.684172 
L 292.20468 243.365364 
L 292.692834 243.223672 
L 294.157294 242.267248 
L 296.598061 241.700478 
L 298.062521 240.850323 
L 299.526981 240.531515 
L 300.015135 240.389823 
L 301.479595 239.291706 
L 303.432208 238.76036 
L 303.920362 238.370706 
L 306.849282 237.378859 
L 307.825589 237.201743 
L 308.801895 236.812089 
L 312.218969 235.57228 
L 313.195276 235.430588 
L 314.659736 234.934664 
L 317.100503 233.765701 
L 319.053117 232.703008 
L 322.958344 231.108968 
L 323.446497 231.038122 
L 324.422804 230.435929 
L 324.910957 230.365083 
L 326.863571 229.550351 
L 328.816184 229.30239 
L 329.792491 228.806466 
L 330.280644 228.381389 
L 330.768798 227.495811 
L 332.721411 226.964464 
L 334.185872 226.220579 
L 334.674025 226.11431 
L 338.579252 224.236885 
L 340.043712 223.9535 
L 341.020019 223.457577 
L 341.508172 223.245038 
L 341.996326 223.174192 
L 343.948939 222.288614 
L 345.413399 221.367613 
L 346.87786 221.084228 
L 349.318627 220.482035 
L 349.80678 220.092381 
L 351.27124 219.561035 
L 353.223854 218.781726 
L 353.712007 218.427495 
L 354.20016 218.25038 
L 355.176467 217.719033 
L 357.617234 216.904301 
L 359.081694 215.735339 
L 359.569848 215.629069 
L 360.546154 214.849761 
L 361.034308 214.778915 
L 361.522461 213.999606 
L 362.010615 213.787068 
L 362.498768 213.397414 
L 362.986921 213.326567 
L 363.963228 212.724374 
L 364.939535 212.405566 
L 365.427688 212.051335 
L 365.915842 211.87422 
L 367.380302 210.84695 
L 369.332915 209.81968 
L 369.821069 209.748833 
L 371.285529 209.004948 
L 371.773682 208.190216 
L 372.749989 207.481754 
L 373.238142 207.375485 
L 374.214449 206.773292 
L 374.702603 206.667023 
L 375.678909 206.171099 
L 377.631523 205.214675 
L 378.119676 204.860444 
L 379.095983 203.90402 
L 380.07229 203.301827 
L 380.560443 202.983019 
L 381.048597 202.451673 
L 383.00121 201.105595 
L 383.489364 200.538825 
L 383.977517 200.149171 
L 384.953824 199.79494 
L 385.93013 199.1219 
L 387.394591 198.378015 
L 387.882744 198.307169 
L 389.347204 197.527861 
L 390.323511 196.925668 
L 395.205045 195.154512 
L 395.693198 194.764858 
L 397.645812 194.020973 
L 398.133965 193.87928 
L 399.110272 193.241664 
L 400.086579 192.816587 
L 401.062885 192.143548 
L 402.039192 190.195277 
L 403.015499 189.061737 
L 404.479959 188.317852 
L 405.456266 187.928198 
L 405.944419 187.857352 
L 406.432573 187.573967 
L 408.87334 186.794658 
L 409.361493 186.58212 
L 410.3378 185.909081 
L 411.80226 185.271465 
L 412.778567 184.740118 
L 413.26672 184.385887 
L 413.754874 184.173348 
L 414.243027 183.819117 
L 414.73118 183.287771 
L 415.707487 182.756424 
L 418.148254 181.445769 
L 421.077174 179.993421 
L 422.541634 179.568344 
L 424.006095 179.001574 
L 424.494248 178.647343 
L 425.470555 178.363958 
L 426.446862 177.974304 
L 426.935015 177.58465 
L 428.887628 176.911611 
L 429.863935 176.203149 
L 430.840242 175.778071 
L 431.816549 174.998763 
L 432.792856 174.644532 
L 433.281009 174.219455 
L 433.769162 174.148608 
L 434.745469 173.404723 
L 435.721776 172.9088 
L 436.209929 172.696261 
L 436.698083 172.200337 
L 440.115156 170.854259 
L 441.091463 170.429182 
L 442.555923 169.968681 
L 443.53223 169.826989 
L 444.020383 169.61445 
L 444.508537 169.543604 
L 445.484844 169.118527 
L 445.972997 169.083104 
L 447.925611 168.339218 
L 449.390071 167.311948 
L 449.878224 167.134833 
L 450.854531 166.603486 
L 451.342684 166.461794 
L 454.271605 164.832331 
L 454.759758 164.726061 
L 456.224218 163.875907 
L 457.688678 163.379983 
L 458.664985 163.061175 
L 460.617599 162.423559 
L 461.593905 162.104751 
L 463.546519 161.715097 
L 464.034672 161.502558 
L 464.522826 161.431712 
L 465.499132 161.006635 
L 465.987286 160.935789 
L 466.475439 160.687827 
L 467.451746 160.510711 
L 468.916206 159.979365 
L 469.892513 159.873095 
L 471.356973 159.554287 
L 473.79774 159.12921 
L 486.489728 155.445207 
L 486.977881 154.949283 
L 487.954188 154.559629 
L 491.859415 153.107281 
L 492.347569 152.823897 
L 493.812029 152.398819 
L 494.788336 152.150857 
L 495.276489 151.832049 
L 495.764642 151.72578 
L 496.252796 151.300703 
L 497.717256 151.017318 
L 498.693563 150.556818 
L 499.181716 149.990048 
L 501.13433 149.529547 
L 504.551403 148.821085 
L 505.039557 148.821085 
L 505.52771 148.608547 
L 507.480324 148.254315 
L 507.968477 148.041777 
L 509.921091 147.687546 
L 510.897397 147.262468 
L 511.873704 147.085353 
L 514.314471 146.48316 
L 516.267085 145.880967 
L 516.755238 145.774698 
L 517.243391 145.526736 
L 518.219698 145.278774 
L 518.707852 144.995389 
L 520.172312 144.499466 
L 520.660465 144.180658 
L 521.636772 143.897273 
L 525.541999 142.551195 
L 526.518306 142.480349 
L 528.470919 141.913579 
L 528.959073 141.630194 
L 529.935379 141.346809 
L 532.376146 140.248693 
L 532.8643 140.21327 
L 538.233987 138.335845 
L 540.674754 137.698229 
L 541.651061 137.237728 
L 543.115521 136.91892 
L 545.068134 135.324881 
L 546.044441 135.041496 
L 546.532595 134.651841 
L 549.461515 133.553725 
L 549.949668 133.234917 
L 550.925975 132.951532 
L 551.414128 132.632724 
L 553.854895 131.853416 
L 555.319356 131.003261 
L 555.807509 130.896992 
L 558.248276 129.586337 
L 559.712736 128.948721 
L 560.200889 128.59449 
L 561.177196 128.275682 
L 562.153503 127.708912 
L 562.641656 127.531796 
L 563.12981 127.177565 
L 569.475804 124.945909 
L 569.963957 124.83964 
L 570.452111 124.520832 
L 572.404724 124.131178 
L 573.381031 123.741524 
L 576.309951 122.324599 
L 576.798105 122.253753 
L 578.262565 121.439022 
L 579.727025 120.943098 
L 583.144099 119.561597 
L 583.632252 119.419904 
L 584.120405 119.101096 
L 585.096712 118.994827 
L 585.584865 118.676019 
L 586.561172 118.498904 
L 587.537479 118.038403 
L 588.025632 117.825864 
L 588.513786 117.755018 
L 590.954553 116.798594 
L 592.419013 116.40894 
L 593.39532 116.160978 
L 594.85978 115.735901 
L 595.836087 115.346247 
L 597.7887 114.283554 
L 598.765007 113.893899 
L 599.25316 113.575091 
L 600.229467 113.362553 
L 600.71762 113.079168 
L 601.205774 112.972899 
L 602.670234 112.158167 
L 603.646541 111.768513 
L 605.599154 111.024627 
L 608.039921 110.209896 
L 609.016228 109.713972 
L 611.456995 108.899241 
L 614.385915 107.730278 
L 616.338529 106.844701 
L 621.220063 104.967276 
L 621.708216 104.648468 
L 623.66083 103.975429 
L 624.148983 103.975429 
L 625.12529 103.550351 
L 627.077903 101.991735 
L 627.566057 101.850042 
L 628.05421 101.531234 
L 628.542363 101.424965 
L 629.030517 101.177003 
L 629.51867 101.106157 
L 630.006824 100.751926 
L 630.494977 100.645656 
L 631.471284 100.043464 
L 632.935744 99.299578 
L 633.912051 98.909924 
L 634.400204 98.661962 
L 635.864664 98.343154 
L 638.305431 97.528423 
L 639.281738 97.209615 
L 640.746198 96.46573 
L 641.722505 96.005229 
L 642.698812 95.757267 
L 644.163272 95.084228 
L 648.556652 93.490188 
L 650.021112 92.604611 
L 650.509266 92.498341 
L 651.485573 92.002418 
L 652.461879 91.648187 
L 652.950033 91.223109 
L 653.92634 90.833455 
L 656.85526 89.664493 
L 658.31972 89.239415 
L 658.807873 88.991453 
L 659.296027 88.920607 
L 660.760487 88.389261 
L 662.224947 87.857914 
L 663.201254 87.46826 
L 663.689407 87.078606 
L 665.153867 86.688951 
L 665.642021 86.405566 
L 666.618328 86.157605 
L 668.082788 85.342873 
L 668.570941 85.30745 
L 670.035401 84.84695 
L 671.011708 84.776103 
L 671.988015 84.386449 
L 674.916935 83.536295 
L 675.893242 83.500872 
L 679.798469 82.261063 
L 680.774776 81.729716 
L 681.262929 81.304639 
L 682.727389 80.454484 
L 683.703696 79.852291 
L 686.632616 78.93129 
L 687.12077 78.541636 
L 690.04969 77.33725 
L 692.002304 76.805904 
L 692.97861 76.380827 
L 693.466764 76.132865 
L 694.443071 75.84948 
L 694.931224 75.566095 
L 695.907531 75.388979 
L 698.348298 74.25544 
L 698.836451 73.972055 
L 700.300911 73.617824 
L 700.789065 73.299016 
L 701.277218 73.1219 
L 701.765371 72.696823 
L 702.253525 72.625977 
L 704.694292 71.669553 
L 706.158752 71.350745 
L 706.646905 71.279899 
L 707.135059 71.06736 
L 707.623212 71.031937 
L 708.599519 70.713129 
L 709.087672 70.677706 
L 710.552132 70.110936 
L 712.504746 69.544166 
L 713.481053 68.800281 
L 715.433666 67.737588 
L 716.898126 67.241664 
L 719.827047 65.931009 
L 720.803354 65.399663 
L 721.291507 65.151701 
L 721.77966 64.6912 
L 724.708581 63.734776 
L 725.684887 63.345122 
L 726.661194 63.061737 
L 727.149348 62.813776 
L 727.637501 62.353275 
L 729.590114 61.857352 
L 730.078268 61.503121 
L 736.424262 59.200618 
L 737.400569 59.023503 
L 741.793949 57.500309 
L 742.770256 57.252347 
L 743.258409 57.039809 
L 743.746563 57.004386 
L 744.722869 56.614732 
L 745.699176 56.012539 
L 746.18733 55.835423 
L 747.163636 55.8 
L 747.163636 55.8 
" clip-path="url(#p3b2a70db66)" style="fill: none; stroke: #1f77b4; stroke-width: 1.5; stroke-linecap: square"/>
   </g>
   <g id="line2d_44">
    <path d="M 138.924517 307.8 
L 143.317897 307.693731 
L 147.223125 307.516615 
L 149.175738 307.516615 
L 149.663892 307.374923 
L 152.104658 307.268653 
L 155.033579 306.949845 
L 157.962499 306.843576 
L 158.938806 306.737307 
L 162.35588 306.595614 
L 165.772953 306.489345 
L 168.21372 306.418499 
L 174.559714 306.312229 
L 177.000481 306.241383 
L 180.417555 306.135114 
L 182.858322 306.064268 
L 188.228009 305.957998 
L 190.180623 305.780883 
L 192.133236 305.74546 
L 195.062156 305.63919 
L 197.01477 305.603767 
L 199.455537 305.532921 
L 201.40815 305.355805 
L 205.801531 305.249536 
L 206.777838 305.17869 
L 208.730451 305.072421 
L 211.659372 304.966151 
L 213.611985 304.859882 
L 222.398746 304.328535 
L 225.81582 304.222266 
L 227.28028 304.080574 
L 229.721047 303.974304 
L 234.602581 303.726342 
L 239.484115 303.655496 
L 241.436728 303.442958 
L 243.389342 303.336688 
L 248.759029 302.840765 
L 252.176103 302.45111 
L 253.640563 302.380264 
L 258.033943 301.848918 
L 260.47471 301.778071 
L 261.93917 301.636379 
L 263.403631 301.53011 
L 277.071925 300.502839 
L 278.048232 300.325724 
L 280.977152 300.219455 
L 288.787607 299.758954 
L 292.20468 299.652685 
L 294.157294 299.440146 
L 296.598061 299.333877 
L 299.526981 299.227608 
L 301.967748 299.121338 
L 303.920362 299.085915 
L 306.361129 299.015069 
L 307.337435 298.873376 
L 314.171583 298.767107 
L 315.147889 298.660838 
L 321.00573 298.554568 
L 325.399111 298.34203 
L 328.816184 298.23576 
L 330.768798 298.023222 
L 334.185872 297.916952 
L 335.162178 297.739837 
L 337.602945 297.668991 
L 342.484479 297.598145 
L 344.925246 297.350183 
L 347.854166 297.243913 
L 349.80678 297.066798 
L 354.688314 296.818836 
L 359.569848 296.712567 
L 363.963228 296.500028 
L 365.427688 296.464605 
L 366.403995 296.322913 
L 368.844762 296.216643 
L 369.821069 296.145797 
L 370.797376 296.074951 
L 371.773682 296.004105 
L 376.167063 295.933258 
L 377.631523 295.826989 
L 390.811664 294.976834 
L 393.252431 294.870565 
L 395.693198 294.799719 
L 402.527346 294.69345 
L 403.503652 294.551757 
L 410.3378 294.445488 
L 415.219334 294.197526 
L 416.19564 294.162103 
L 417.171947 294.055834 
L 419.612714 293.949564 
L 422.053481 293.878718 
L 424.494248 293.772449 
L 426.935015 293.701602 
L 431.328395 293.595333 
L 434.257316 293.489064 
L 441.091463 293.382794 
L 446.46115 293.09941 
L 448.413764 293.028563 
L 449.878224 292.922294 
L 456.712372 292.816025 
L 459.641292 292.709755 
L 468.428053 292.603486 
L 470.380666 292.568063 
L 476.238507 292.497217 
L 477.214814 292.426371 
L 484.048961 292.320101 
L 486.001575 292.284678 
L 498.693563 292.178409 
L 500.158023 292.036716 
L 522.124925 291.930447 
L 524.565692 291.859601 
L 537.25768 291.753331 
L 538.233987 291.682485 
L 540.674754 291.611639 
L 542.139214 291.469947 
L 545.068134 291.363677 
L 548.485208 291.221985 
L 552.878589 291.115715 
L 555.319356 291.044869 
L 558.736429 290.9386 
L 562.641656 290.761484 
L 565.082423 290.655215 
L 567.035037 290.619792 
L 571.428417 290.513523 
L 573.381031 290.4781 
L 579.727025 290.37183 
L 581.679638 290.336407 
L 584.120405 290.230138 
L 587.049326 290.123868 
L 590.466399 290.053022 
L 591.442706 289.982176 
L 603.158387 289.875907 
L 609.504381 289.521676 
L 611.945148 289.450829 
L 612.921455 289.34456 
L 613.897762 289.273714 
L 617.802989 289.167444 
L 620.731909 289.061175 
L 625.613443 288.954906 
L 628.05421 288.706944 
L 632.935744 288.600675 
L 633.912051 288.494405 
L 638.793585 288.388136 
L 641.234352 288.31729 
L 646.604039 288.281867 
L 647.580346 288.175597 
L 652.950033 288.069328 
L 653.92634 287.998482 
L 664.665714 287.892213 
L 667.594634 287.785943 
L 674.916935 287.679674 
L 676.869549 287.644251 
L 681.262929 287.573405 
L 682.239236 287.467135 
L 688.58523 287.360866 
L 691.025997 287.29002 
L 699.812758 287.18375 
L 701.277218 287.077481 
L 702.741678 286.971212 
L 704.206138 286.864942 
L 711.528439 286.758673 
L 714.457359 286.652404 
L 727.637501 286.546134 
L 732.030881 286.333596 
L 737.888722 286.227326 
L 738.865029 286.121057 
L 746.18733 286.014788 
L 747.163636 285.943942 
L 747.163636 285.943942 
" clip-path="url(#p3b2a70db66)" style="fill: none; stroke: #ff7f0e; stroke-width: 1.5; stroke-linecap: square"/>
   </g>
   <g id="patch_3">
    <path d="M 108 320.4 
L 108 43.2 
" style="fill: none; stroke: #a9a9a9; stroke-width: 0.8; stroke-linejoin: miter; stroke-linecap: square"/>
   </g>
   <g id="patch_4">
    <path d="M 777.6 320.4 
L 777.6 43.2 
" style="fill: none"/>
   </g>
   <g id="patch_5">
    <path d="M 108 320.4 
L 777.6 320.4 
" style="fill: none; stroke: #a9a9a9; stroke-width: 0.8; stroke-linejoin: miter; stroke-linecap: square"/>
   </g>
   <g id="patch_6">
    <path d="M 108 43.2 
L 777.6 43.2 
" style="fill: none"/>
   </g>
   <g id="text_22">
    <!-- get_subscribe history -->
    <g style="fill: #a9a9a9" transform="translate(378.6075 37.2) scale(0.12 -0.12)">
     <defs>
      <path id="DejaVuSans-67" d="M 2906 1791 
Q 2906 2416 2648 2759 
Q 2391 3103 1925 3103 
Q 1463 3103 1205 2759 
Q 947 2416 947 1791 
Q 947 1169 1205 825 
Q 1463 481 1925 481 
Q 2391 481 2648 825 
Q 2906 1169 2906 1791 
z
M 3481 434 
Q 3481 -459 3084 -895 
Q 2688 -1331 1869 -1331 
Q 1566 -1331 1297 -1286 
Q 1028 -1241 775 -1147 
L 775 -588 
Q 1028 -725 1275 -790 
Q 1522 -856 1778 -856 
Q 2344 -856 2625 -561 
Q 2906 -266 2906 331 
L 2906 616 
Q 2728 306 2450 153 
Q 2172 0 1784 0 
Q 1141 0 747 490 
Q 353 981 353 1791 
Q 353 2603 747 3093 
Q 1141 3584 1784 3584 
Q 2172 3584 2450 3431 
Q 2728 3278 2906 2969 
L 2906 3500 
L 3481 3500 
L 3481 434 
z
" transform="scale(0.015625)"/>
      <path id="DejaVuSans-65" d="M 3597 1894 
L 3597 1613 
L 953 1613 
Q 991 1019 1311 708 
Q 1631 397 2203 397 
Q 2534 397 2845 478 
Q 3156 559 3463 722 
L 3463 178 
Q 3153 47 2828 -22 
Q 2503 -91 2169 -91 
Q 1331 -91 842 396 
Q 353 884 353 1716 
Q 353 2575 817 3079 
Q 1281 3584 2069 3584 
Q 2775 3584 3186 3129 
Q 3597 2675 3597 1894 
z
M 3022 2063 
Q 3016 2534 2758 2815 
Q 2500 3097 2075 3097 
Q 1594 3097 1305 2825 
Q 1016 2553 972 2059 
L 3022 2063 
z
" transform="scale(0.015625)"/>
      <path id="DejaVuSans-74" d="M 1172 4494 
L 1172 3500 
L 2356 3500 
L 2356 3053 
L 1172 3053 
L 1172 1153 
Q 1172 725 1289 603 
Q 1406 481 1766 481 
L 2356 481 
L 2356 0 
L 1766 0 
Q 1100 0 847 248 
Q 594 497 594 1153 
L 594 3053 
L 172 3053 
L 172 3500 
L 594 3500 
L 594 4494 
L 1172 4494 
z
" transform="scale(0.015625)"/>
      <path id="DejaVuSans-5f" d="M 3263 -1063 
L 3263 -1509 
L -63 -1509 
L -63 -1063 
L 3263 -1063 
z
" transform="scale(0.015625)"/>
      <path id="DejaVuSans-73" d="M 2834 3397 
L 2834 2853 
Q 2591 2978 2328 3040 
Q 2066 3103 1784 3103 
Q 1356 3103 1142 2972 
Q 928 2841 928 2578 
Q 928 2378 1081 2264 
Q 1234 2150 1697 2047 
L 1894 2003 
Q 2506 1872 2764 1633 
Q 3022 1394 3022 966 
Q 3022 478 2636 193 
Q 2250 -91 1575 -91 
Q 1294 -91 989 -36 
Q 684 19 347 128 
L 347 722 
Q 666 556 975 473 
Q 1284 391 1588 391 
Q 1994 391 2212 530 
Q 2431 669 2431 922 
Q 2431 1156 2273 1281 
Q 2116 1406 1581 1522 
L 1381 1569 
Q 847 1681 609 1914 
Q 372 2147 372 2553 
Q 372 3047 722 3315 
Q 1072 3584 1716 3584 
Q 2034 3584 2315 3537 
Q 2597 3491 2834 3397 
z
" transform="scale(0.015625)"/>
      <path id="DejaVuSans-75" d="M 544 1381 
L 544 3500 
L 1119 3500 
L 1119 1403 
Q 1119 906 1312 657 
Q 1506 409 1894 409 
Q 2359 409 2629 706 
Q 2900 1003 2900 1516 
L 2900 3500 
L 3475 3500 
L 3475 0 
L 2900 0 
L 2900 538 
Q 2691 219 2414 64 
Q 2138 -91 1772 -91 
Q 1169 -91 856 284 
Q 544 659 544 1381 
z
M 1991 3584 
L 1991 3584 
z
" transform="scale(0.015625)"/>
      <path id="DejaVuSans-62" d="M 3116 1747 
Q 3116 2381 2855 2742 
Q 2594 3103 2138 3103 
Q 1681 3103 1420 2742 
Q 1159 2381 1159 1747 
Q 1159 1113 1420 752 
Q 1681 391 2138 391 
Q 2594 391 2855 752 
Q 3116 1113 3116 1747 
z
M 1159 2969 
Q 1341 3281 1617 3432 
Q 1894 3584 2278 3584 
Q 2916 3584 3314 3078 
Q 3713 2572 3713 1747 
Q 3713 922 3314 415 
Q 2916 -91 2278 -91 
Q 1894 -91 1617 61 
Q 1341 213 1159 525 
L 1159 0 
L 581 0 
L 581 4863 
L 1159 4863 
L 1159 2969 
z
" transform="scale(0.015625)"/>
      <path id="DejaVuSans-63" d="M 3122 3366 
L 3122 2828 
Q 2878 2963 2633 3030 
Q 2388 3097 2138 3097 
Q 1578 3097 1268 2742 
Q 959 2388 959 1747 
Q 959 1106 1268 751 
Q 1578 397 2138 397 
Q 2388 397 2633 464 
Q 2878 531 3122 666 
L 3122 134 
Q 2881 22 2623 -34 
Q 2366 -91 2075 -91 
Q 1284 -91 818 406 
Q 353 903 353 1747 
Q 353 2603 823 3093 
Q 1294 3584 2113 3584 
Q 2378 3584 2631 3529 
Q 2884 3475 3122 3366 
z
" transform="scale(0.015625)"/>
      <path id="DejaVuSans-72" d="M 2631 2963 
Q 2534 3019 2420 3045 
Q 2306 3072 2169 3072 
Q 1681 3072 1420 2755 
Q 1159 2438 1159 1844 
L 1159 0 
L 581 0 
L 581 3500 
L 1159 3500 
L 1159 2956 
Q 1341 3275 1631 3429 
Q 1922 3584 2338 3584 
Q 2397 3584 2469 3576 
Q 2541 3569 2628 3553 
L 2631 2963 
z
" transform="scale(0.015625)"/>
      <path id="DejaVuSans-69" d="M 603 3500 
L 1178 3500 
L 1178 0 
L 603 0 
L 603 3500 
z
M 603 4863 
L 1178 4863 
L 1178 4134 
L 603 4134 
L 603 4863 
z
" transform="scale(0.015625)"/>
      <path id="DejaVuSans-20" transform="scale(0.015625)"/>
      <path id="DejaVuSans-68" d="M 3513 2113 
L 3513 0 
L 2938 0 
L 2938 2094 
Q 2938 2591 2744 2837 
Q 2550 3084 2163 3084 
Q 1697 3084 1428 2787 
Q 1159 2491 1159 1978 
L 1159 0 
L 581 0 
L 581 4863 
L 1159 4863 
L 1159 2956 
Q 1366 3272 1645 3428 
Q 1925 3584 2291 3584 
Q 2894 3584 3203 3211 
Q 3513 2838 3513 2113 
z
" transform="scale(0.015625)"/>
      <path id="DejaVuSans-6f" d="M 1959 3097 
Q 1497 3097 1228 2736 
Q 959 2375 959 1747 
Q 959 1119 1226 758 
Q 1494 397 1959 397 
Q 2419 397 2687 759 
Q 2956 1122 2956 1747 
Q 2956 2369 2687 2733 
Q 2419 3097 1959 3097 
z
M 1959 3584 
Q 2709 3584 3137 3096 
Q 3566 2609 3566 1747 
Q 3566 888 3137 398 
Q 2709 -91 1959 -91 
Q 1206 -91 779 398 
Q 353 888 353 1747 
Q 353 2609 779 3096 
Q 1206 3584 1959 3584 
z
" transform="scale(0.015625)"/>
      <path id="DejaVuSans-79" d="M 2059 -325 
Q 1816 -950 1584 -1140 
Q 1353 -1331 966 -1331 
L 506 -1331 
L 506 -850 
L 844 -850 
Q 1081 -850 1212 -737 
Q 1344 -625 1503 -206 
L 1606 56 
L 191 3500 
L 800 3500 
L 1894 763 
L 2988 3500 
L 3597 3500 
L 2059 -325 
z
" transform="scale(0.015625)"/>
     </defs>
     <use xlink:href="#DejaVuSans-67"/>
     <use xlink:href="#DejaVuSans-65" transform="translate(63.476562 0)"/>
     <use xlink:href="#DejaVuSans-74" transform="translate(125 0)"/>
     <use xlink:href="#DejaVuSans-5f" transform="translate(164.208984 0)"/>
     <use xlink:href="#DejaVuSans-73" transform="translate(214.208984 0)"/>
     <use xlink:href="#DejaVuSans-75" transform="translate(266.308594 0)"/>
     <use xlink:href="#DejaVuSans-62" transform="translate(329.6875 0)"/>
     <use xlink:href="#DejaVuSans-73" transform="translate(393.164062 0)"/>
     <use xlink:href="#DejaVuSans-63" transform="translate(445.263672 0)"/>
     <use xlink:href="#DejaVuSans-72" transform="translate(500.244141 0)"/>
     <use xlink:href="#DejaVuSans-69" transform="translate(541.357422 0)"/>
     <use xlink:href="#DejaVuSans-62" transform="translate(569.140625 0)"/>
     <use xlink:href="#DejaVuSans-65" transform="translate(632.617188 0)"/>
     <use xlink:href="#DejaVuSans-20" transform="translate(694.140625 0)"/>
     <use xlink:href="#DejaVuSans-68" transform="translate(725.927734 0)"/>
     <use xlink:href="#DejaVuSans-69" transform="translate(789.306641 0)"/>
     <use xlink:href="#DejaVuSans-73" transform="translate(817.089844 0)"/>
     <use xlink:href="#DejaVuSans-74" transform="translate(869.189453 0)"/>
     <use xlink:href="#DejaVuSans-6f" transform="translate(908.398438 0)"/>
     <use xlink:href="#DejaVuSans-72" transform="translate(969.580078 0)"/>
     <use xlink:href="#DejaVuSans-79" transform="translate(1010.693359 0)"/>
    </g>
   </g>
   <g id="legend_1">
    <g id="line2d_45">
     <path d="M 815.08 328.498438 
L 825.08 328.498438 
L 835.08 328.498438 
" style="fill: none; stroke: #1f77b4; stroke-width: 1.5; stroke-linecap: square"/>
    </g>
    <g id="text_23">
     <!-- star -->
     <g style="fill: #a9a9a9" transform="translate(843.08 331.998438) scale(0.1 -0.1)">
      <defs>
       <path id="DejaVuSans-61" d="M 2194 1759 
Q 1497 1759 1228 1600 
Q 959 1441 959 1056 
Q 959 750 1161 570 
Q 1363 391 1709 391 
Q 2188 391 2477 730 
Q 2766 1069 2766 1631 
L 2766 1759 
L 2194 1759 
z
M 3341 1997 
L 3341 0 
L 2766 0 
L 2766 531 
Q 2569 213 2275 61 
Q 1981 -91 1556 -91 
Q 1019 -91 701 211 
Q 384 513 384 1019 
Q 384 1609 779 1909 
Q 1175 2209 1959 2209 
L 2766 2209 
L 2766 2266 
Q 2766 2663 2505 2880 
Q 2244 3097 1772 3097 
Q 1472 3097 1187 3025 
Q 903 2953 641 2809 
L 641 3341 
Q 956 3463 1253 3523 
Q 1550 3584 1831 3584 
Q 2591 3584 2966 3190 
Q 3341 2797 3341 1997 
z
" transform="scale(0.015625)"/>
      </defs>
      <use xlink:href="#DejaVuSans-73"/>
      <use xlink:href="#DejaVuSans-74" transform="translate(52.099609 0)"/>
      <use xlink:href="#DejaVuSans-61" transform="translate(91.308594 0)"/>
      <use xlink:href="#DejaVuSans-72" transform="translate(152.587891 0)"/>
     </g>
    </g>
    <g id="line2d_46">
     <path d="M 815.08 343.176562 
L 825.08 343.176562 
L 835.08 343.176562 
" style="fill: none; stroke: #ff7f0e; stroke-width: 1.5; stroke-linecap: square"/>
    </g>
    <g id="text_24">
     <!-- fork -->
     <g style="fill: #a9a9a9" transform="translate(843.08 346.676562) scale(0.1 -0.1)">
      <defs>
       <path id="DejaVuSans-66" d="M 2375 4863 
L 2375 4384 
L 1825 4384 
Q 1516 4384 1395 4259 
Q 1275 4134 1275 3809 
L 1275 3500 
L 2222 3500 
L 2222 3053 
L 1275 3053 
L 1275 0 
L 697 0 
L 697 3053 
L 147 3053 
L 147 3500 
L 697 3500 
L 697 3744 
Q 697 4328 969 4595 
Q 1241 4863 1831 4863 
L 2375 4863 
z
" transform="scale(0.015625)"/>
       <path id="DejaVuSans-6b" d="M 581 4863 
L 1159 4863 
L 1159 1991 
L 2875 3500 
L 3609 3500 
L 1753 1863 
L 3688 0 
L 2938 0 
L 1159 1709 
L 1159 0 
L 581 0 
L 581 4863 
z
" transform="scale(0.015625)"/>
      </defs>
      <use xlink:href="#DejaVuSans-66"/>
      <use xlink:href="#DejaVuSans-6f" transform="translate(35.205078 0)"/>
      <use xlink:href="#DejaVuSans-72" transform="translate(96.386719 0)"/>
      <use xlink:href="#DejaVuSans-6b" transform="translate(137.5 0)"/>
     </g>
    </g>
   </g>
  </g>
 </g>
 <defs>
  <clipPath id="p3b2a70db66">
   <rect x="108" y="43.2" width="669.6" height="277.2"/>
  </clipPath>
 </defs>
</svg>
