<?xml version="1.0" encoding="utf-8" standalone="no"?>
<!DOCTYPE svg PUBLIC "-//W3C//DTD SVG 1.1//EN"
  "http://www.w3.org/Graphics/SVG/1.1/DTD/svg11.dtd">
<svg xmlns:xlink="http://www.w3.org/1999/xlink" width="864pt" height="360pt" viewBox="0 0 864 360" xmlns="http://www.w3.org/2000/svg" version="1.1">
 <metadata>
  <rdf:RDF xmlns:dc="http://purl.org/dc/elements/1.1/" xmlns:cc="http://creativecommons.org/ns#" xmlns:rdf="http://www.w3.org/1999/02/22-rdf-syntax-ns#">
   <cc:Work>
    <dc:type rdf:resource="http://purl.org/dc/dcmitype/StillImage"/>
    <dc:date>2024-12-21T02:20:45.640972</dc:date>
    <dc:format>image/svg+xml</dc:format>
    <dc:creator>
     <cc:Agent>
      <dc:title>Matplotlib v3.10.0, https://matplotlib.org/</dc:title>
     </cc:Agent>
    </dc:creator>
   </cc:Work>
  </rdf:RDF>
 </metadata>
 <defs>
  <style type="text/css">*{stroke-linejoin: round; stroke-linecap: butt}</style>
 </defs>
 <g id="figure_1">
  <g id="patch_1">
   <path d="M 0 360 
L 864 360 
L 864 0 
L 0 0 
L 0 360 
z
" style="fill: none; opacity: 0"/>
  </g>
  <g id="axes_1">
   <g id="patch_2">
    <path d="M 108 320.4 
L 777.6 320.4 
L 777.6 43.2 
L 108 43.2 
L 108 320.4 
z
" style="fill: none; opacity: 0"/>
   </g>
   <g id="matplotlib.axis_1">
    <g id="xtick_1">
     <g id="line2d_1">
      <path d="M 157.489625 320.4 
L 157.489625 43.2 
" clip-path="url(#pe69eb276f1)" style="fill: none; stroke-dasharray: 5.12,1.28,0.8,1.28; stroke-dashoffset: 0; stroke: #b0b0b0; stroke-width: 0.8"/>
     </g>
     <g id="line2d_2">
      <defs>
       <path id="md099a0370b" d="M 0 0 
L 0 3.5 
" style="stroke: #a9a9a9; stroke-width: 0.8"/>
      </defs>
      <g>
       <use xlink:href="#md099a0370b" x="157.489625" y="320.4" style="fill: #a9a9a9; stroke: #a9a9a9; stroke-width: 0.8"/>
      </g>
     </g>
     <g id="text_1">
      <!-- 2021-09 -->
      <g style="fill: #a9a9a9" transform="translate(136.598219 334.998438) scale(0.1 -0.1)">
       <defs>
        <path id="DejaVuSans-32" d="M 1228 531 
L 3431 531 
L 3431 0 
L 469 0 
L 469 531 
Q 828 903 1448 1529 
Q 2069 2156 2228 2338 
Q 2531 2678 2651 2914 
Q 2772 3150 2772 3378 
Q 2772 3750 2511 3984 
Q 2250 4219 1831 4219 
Q 1534 4219 1204 4116 
Q 875 4013 500 3803 
L 500 4441 
Q 881 4594 1212 4672 
Q 1544 4750 1819 4750 
Q 2544 4750 2975 4387 
Q 3406 4025 3406 3419 
Q 3406 3131 3298 2873 
Q 3191 2616 2906 2266 
Q 2828 2175 2409 1742 
Q 1991 1309 1228 531 
z
" transform="scale(0.015625)"/>
        <path id="DejaVuSans-30" d="M 2034 4250 
Q 1547 4250 1301 3770 
Q 1056 3291 1056 2328 
Q 1056 1369 1301 889 
Q 1547 409 2034 409 
Q 2525 409 2770 889 
Q 3016 1369 3016 2328 
Q 3016 3291 2770 3770 
Q 2525 4250 2034 4250 
z
M 2034 4750 
Q 2819 4750 3233 4129 
Q 3647 3509 3647 2328 
Q 3647 1150 3233 529 
Q 2819 -91 2034 -91 
Q 1250 -91 836 529 
Q 422 1150 422 2328 
Q 422 3509 836 4129 
Q 1250 4750 2034 4750 
z
" transform="scale(0.015625)"/>
        <path id="DejaVuSans-31" d="M 794 531 
L 1825 531 
L 1825 4091 
L 703 3866 
L 703 4441 
L 1819 4666 
L 2450 4666 
L 2450 531 
L 3481 531 
L 3481 0 
L 794 0 
L 794 531 
z
" transform="scale(0.015625)"/>
        <path id="DejaVuSans-2d" d="M 313 2009 
L 1997 2009 
L 1997 1497 
L 313 1497 
L 313 2009 
z
" transform="scale(0.015625)"/>
        <path id="DejaVuSans-39" d="M 703 97 
L 703 672 
Q 941 559 1184 500 
Q 1428 441 1663 441 
Q 2288 441 2617 861 
Q 2947 1281 2994 2138 
Q 2813 1869 2534 1725 
Q 2256 1581 1919 1581 
Q 1219 1581 811 2004 
Q 403 2428 403 3163 
Q 403 3881 828 4315 
Q 1253 4750 1959 4750 
Q 2769 4750 3195 4129 
Q 3622 3509 3622 2328 
Q 3622 1225 3098 567 
Q 2575 -91 1691 -91 
Q 1453 -91 1209 -44 
Q 966 3 703 97 
z
M 1959 2075 
Q 2384 2075 2632 2365 
Q 2881 2656 2881 3163 
Q 2881 3666 2632 3958 
Q 2384 4250 1959 4250 
Q 1534 4250 1286 3958 
Q 1038 3666 1038 3163 
Q 1038 2656 1286 2365 
Q 1534 2075 1959 2075 
z
" transform="scale(0.015625)"/>
       </defs>
       <use xlink:href="#DejaVuSans-32"/>
       <use xlink:href="#DejaVuSans-30" transform="translate(63.623047 0)"/>
       <use xlink:href="#DejaVuSans-32" transform="translate(127.246094 0)"/>
       <use xlink:href="#DejaVuSans-31" transform="translate(190.869141 0)"/>
       <use xlink:href="#DejaVuSans-2d" transform="translate(254.492188 0)"/>
       <use xlink:href="#DejaVuSans-30" transform="translate(290.576172 0)"/>
       <use xlink:href="#DejaVuSans-39" transform="translate(354.199219 0)"/>
      </g>
     </g>
    </g>
    <g id="xtick_2">
     <g id="line2d_3">
      <path d="M 217.092135 320.4 
L 217.092135 43.2 
" clip-path="url(#pe69eb276f1)" style="fill: none; stroke-dasharray: 5.12,1.28,0.8,1.28; stroke-dashoffset: 0; stroke: #b0b0b0; stroke-width: 0.8"/>
     </g>
     <g id="line2d_4">
      <g>
       <use xlink:href="#md099a0370b" x="217.092135" y="320.4" style="fill: #a9a9a9; stroke: #a9a9a9; stroke-width: 0.8"/>
      </g>
     </g>
     <g id="text_2">
      <!-- 2022-01 -->
      <g style="fill: #a9a9a9" transform="translate(196.200729 334.998438) scale(0.1 -0.1)">
       <use xlink:href="#DejaVuSans-32"/>
       <use xlink:href="#DejaVuSans-30" transform="translate(63.623047 0)"/>
       <use xlink:href="#DejaVuSans-32" transform="translate(127.246094 0)"/>
       <use xlink:href="#DejaVuSans-32" transform="translate(190.869141 0)"/>
       <use xlink:href="#DejaVuSans-2d" transform="translate(254.492188 0)"/>
       <use xlink:href="#DejaVuSans-30" transform="translate(290.576172 0)"/>
       <use xlink:href="#DejaVuSans-31" transform="translate(354.199219 0)"/>
      </g>
     </g>
    </g>
    <g id="xtick_3">
     <g id="line2d_5">
      <path d="M 275.717554 320.4 
L 275.717554 43.2 
" clip-path="url(#pe69eb276f1)" style="fill: none; stroke-dasharray: 5.12,1.28,0.8,1.28; stroke-dashoffset: 0; stroke: #b0b0b0; stroke-width: 0.8"/>
     </g>
     <g id="line2d_6">
      <g>
       <use xlink:href="#md099a0370b" x="275.717554" y="320.4" style="fill: #a9a9a9; stroke: #a9a9a9; stroke-width: 0.8"/>
      </g>
     </g>
     <g id="text_3">
      <!-- 2022-05 -->
      <g style="fill: #a9a9a9" transform="translate(254.826148 334.998438) scale(0.1 -0.1)">
       <defs>
        <path id="DejaVuSans-35" d="M 691 4666 
L 3169 4666 
L 3169 4134 
L 1269 4134 
L 1269 2991 
Q 1406 3038 1543 3061 
Q 1681 3084 1819 3084 
Q 2600 3084 3056 2656 
Q 3513 2228 3513 1497 
Q 3513 744 3044 326 
Q 2575 -91 1722 -91 
Q 1428 -91 1123 -41 
Q 819 9 494 109 
L 494 744 
Q 775 591 1075 516 
Q 1375 441 1709 441 
Q 2250 441 2565 725 
Q 2881 1009 2881 1497 
Q 2881 1984 2565 2268 
Q 2250 2553 1709 2553 
Q 1456 2553 1204 2497 
Q 953 2441 691 2322 
L 691 4666 
z
" transform="scale(0.015625)"/>
       </defs>
       <use xlink:href="#DejaVuSans-32"/>
       <use xlink:href="#DejaVuSans-30" transform="translate(63.623047 0)"/>
       <use xlink:href="#DejaVuSans-32" transform="translate(127.246094 0)"/>
       <use xlink:href="#DejaVuSans-32" transform="translate(190.869141 0)"/>
       <use xlink:href="#DejaVuSans-2d" transform="translate(254.492188 0)"/>
       <use xlink:href="#DejaVuSans-30" transform="translate(290.576172 0)"/>
       <use xlink:href="#DejaVuSans-35" transform="translate(354.199219 0)"/>
      </g>
     </g>
    </g>
    <g id="xtick_4">
     <g id="line2d_7">
      <path d="M 335.808609 320.4 
L 335.808609 43.2 
" clip-path="url(#pe69eb276f1)" style="fill: none; stroke-dasharray: 5.12,1.28,0.8,1.28; stroke-dashoffset: 0; stroke: #b0b0b0; stroke-width: 0.8"/>
     </g>
     <g id="line2d_8">
      <g>
       <use xlink:href="#md099a0370b" x="335.808609" y="320.4" style="fill: #a9a9a9; stroke: #a9a9a9; stroke-width: 0.8"/>
      </g>
     </g>
     <g id="text_4">
      <!-- 2022-09 -->
      <g style="fill: #a9a9a9" transform="translate(314.917203 334.998438) scale(0.1 -0.1)">
       <use xlink:href="#DejaVuSans-32"/>
       <use xlink:href="#DejaVuSans-30" transform="translate(63.623047 0)"/>
       <use xlink:href="#DejaVuSans-32" transform="translate(127.246094 0)"/>
       <use xlink:href="#DejaVuSans-32" transform="translate(190.869141 0)"/>
       <use xlink:href="#DejaVuSans-2d" transform="translate(254.492188 0)"/>
       <use xlink:href="#DejaVuSans-30" transform="translate(290.576172 0)"/>
       <use xlink:href="#DejaVuSans-39" transform="translate(354.199219 0)"/>
      </g>
     </g>
    </g>
    <g id="xtick_5">
     <g id="line2d_9">
      <path d="M 395.411119 320.4 
L 395.411119 43.2 
" clip-path="url(#pe69eb276f1)" style="fill: none; stroke-dasharray: 5.12,1.28,0.8,1.28; stroke-dashoffset: 0; stroke: #b0b0b0; stroke-width: 0.8"/>
     </g>
     <g id="line2d_10">
      <g>
       <use xlink:href="#md099a0370b" x="395.411119" y="320.4" style="fill: #a9a9a9; stroke: #a9a9a9; stroke-width: 0.8"/>
      </g>
     </g>
     <g id="text_5">
      <!-- 2023-01 -->
      <g style="fill: #a9a9a9" transform="translate(374.519713 334.998438) scale(0.1 -0.1)">
       <defs>
        <path id="DejaVuSans-33" d="M 2597 2516 
Q 3050 2419 3304 2112 
Q 3559 1806 3559 1356 
Q 3559 666 3084 287 
Q 2609 -91 1734 -91 
Q 1441 -91 1130 -33 
Q 819 25 488 141 
L 488 750 
Q 750 597 1062 519 
Q 1375 441 1716 441 
Q 2309 441 2620 675 
Q 2931 909 2931 1356 
Q 2931 1769 2642 2001 
Q 2353 2234 1838 2234 
L 1294 2234 
L 1294 2753 
L 1863 2753 
Q 2328 2753 2575 2939 
Q 2822 3125 2822 3475 
Q 2822 3834 2567 4026 
Q 2313 4219 1838 4219 
Q 1578 4219 1281 4162 
Q 984 4106 628 3988 
L 628 4550 
Q 988 4650 1302 4700 
Q 1616 4750 1894 4750 
Q 2613 4750 3031 4423 
Q 3450 4097 3450 3541 
Q 3450 3153 3228 2886 
Q 3006 2619 2597 2516 
z
" transform="scale(0.015625)"/>
       </defs>
       <use xlink:href="#DejaVuSans-32"/>
       <use xlink:href="#DejaVuSans-30" transform="translate(63.623047 0)"/>
       <use xlink:href="#DejaVuSans-32" transform="translate(127.246094 0)"/>
       <use xlink:href="#DejaVuSans-33" transform="translate(190.869141 0)"/>
       <use xlink:href="#DejaVuSans-2d" transform="translate(254.492188 0)"/>
       <use xlink:href="#DejaVuSans-30" transform="translate(290.576172 0)"/>
       <use xlink:href="#DejaVuSans-31" transform="translate(354.199219 0)"/>
      </g>
     </g>
    </g>
    <g id="xtick_6">
     <g id="line2d_11">
      <path d="M 454.036539 320.4 
L 454.036539 43.2 
" clip-path="url(#pe69eb276f1)" style="fill: none; stroke-dasharray: 5.12,1.28,0.8,1.28; stroke-dashoffset: 0; stroke: #b0b0b0; stroke-width: 0.8"/>
     </g>
     <g id="line2d_12">
      <g>
       <use xlink:href="#md099a0370b" x="454.036539" y="320.4" style="fill: #a9a9a9; stroke: #a9a9a9; stroke-width: 0.8"/>
      </g>
     </g>
     <g id="text_6">
      <!-- 2023-05 -->
      <g style="fill: #a9a9a9" transform="translate(433.145132 334.998438) scale(0.1 -0.1)">
       <use xlink:href="#DejaVuSans-32"/>
       <use xlink:href="#DejaVuSans-30" transform="translate(63.623047 0)"/>
       <use xlink:href="#DejaVuSans-32" transform="translate(127.246094 0)"/>
       <use xlink:href="#DejaVuSans-33" transform="translate(190.869141 0)"/>
       <use xlink:href="#DejaVuSans-2d" transform="translate(254.492188 0)"/>
       <use xlink:href="#DejaVuSans-30" transform="translate(290.576172 0)"/>
       <use xlink:href="#DejaVuSans-35" transform="translate(354.199219 0)"/>
      </g>
     </g>
    </g>
    <g id="xtick_7">
     <g id="line2d_13">
      <path d="M 514.127594 320.4 
L 514.127594 43.2 
" clip-path="url(#pe69eb276f1)" style="fill: none; stroke-dasharray: 5.12,1.28,0.8,1.28; stroke-dashoffset: 0; stroke: #b0b0b0; stroke-width: 0.8"/>
     </g>
     <g id="line2d_14">
      <g>
       <use xlink:href="#md099a0370b" x="514.127594" y="320.4" style="fill: #a9a9a9; stroke: #a9a9a9; stroke-width: 0.8"/>
      </g>
     </g>
     <g id="text_7">
      <!-- 2023-09 -->
      <g style="fill: #a9a9a9" transform="translate(493.236188 334.998438) scale(0.1 -0.1)">
       <use xlink:href="#DejaVuSans-32"/>
       <use xlink:href="#DejaVuSans-30" transform="translate(63.623047 0)"/>
       <use xlink:href="#DejaVuSans-32" transform="translate(127.246094 0)"/>
       <use xlink:href="#DejaVuSans-33" transform="translate(190.869141 0)"/>
       <use xlink:href="#DejaVuSans-2d" transform="translate(254.492188 0)"/>
       <use xlink:href="#DejaVuSans-30" transform="translate(290.576172 0)"/>
       <use xlink:href="#DejaVuSans-39" transform="translate(354.199219 0)"/>
      </g>
     </g>
    </g>
    <g id="xtick_8">
     <g id="line2d_15">
      <path d="M 573.730104 320.4 
L 573.730104 43.2 
" clip-path="url(#pe69eb276f1)" style="fill: none; stroke-dasharray: 5.12,1.28,0.8,1.28; stroke-dashoffset: 0; stroke: #b0b0b0; stroke-width: 0.8"/>
     </g>
     <g id="line2d_16">
      <g>
       <use xlink:href="#md099a0370b" x="573.730104" y="320.4" style="fill: #a9a9a9; stroke: #a9a9a9; stroke-width: 0.8"/>
      </g>
     </g>
     <g id="text_8">
      <!-- 2024-01 -->
      <g style="fill: #a9a9a9" transform="translate(552.838697 334.998438) scale(0.1 -0.1)">
       <defs>
        <path id="DejaVuSans-34" d="M 2419 4116 
L 825 1625 
L 2419 1625 
L 2419 4116 
z
M 2253 4666 
L 3047 4666 
L 3047 1625 
L 3713 1625 
L 3713 1100 
L 3047 1100 
L 3047 0 
L 2419 0 
L 2419 1100 
L 313 1100 
L 313 1709 
L 2253 4666 
z
" transform="scale(0.015625)"/>
       </defs>
       <use xlink:href="#DejaVuSans-32"/>
       <use xlink:href="#DejaVuSans-30" transform="translate(63.623047 0)"/>
       <use xlink:href="#DejaVuSans-32" transform="translate(127.246094 0)"/>
       <use xlink:href="#DejaVuSans-34" transform="translate(190.869141 0)"/>
       <use xlink:href="#DejaVuSans-2d" transform="translate(254.492188 0)"/>
       <use xlink:href="#DejaVuSans-30" transform="translate(290.576172 0)"/>
       <use xlink:href="#DejaVuSans-31" transform="translate(354.199219 0)"/>
      </g>
     </g>
    </g>
    <g id="xtick_9">
     <g id="line2d_17">
      <path d="M 632.844068 320.4 
L 632.844068 43.2 
" clip-path="url(#pe69eb276f1)" style="fill: none; stroke-dasharray: 5.12,1.28,0.8,1.28; stroke-dashoffset: 0; stroke: #b0b0b0; stroke-width: 0.8"/>
     </g>
     <g id="line2d_18">
      <g>
       <use xlink:href="#md099a0370b" x="632.844068" y="320.4" style="fill: #a9a9a9; stroke: #a9a9a9; stroke-width: 0.8"/>
      </g>
     </g>
     <g id="text_9">
      <!-- 2024-05 -->
      <g style="fill: #a9a9a9" transform="translate(611.952662 334.998438) scale(0.1 -0.1)">
       <use xlink:href="#DejaVuSans-32"/>
       <use xlink:href="#DejaVuSans-30" transform="translate(63.623047 0)"/>
       <use xlink:href="#DejaVuSans-32" transform="translate(127.246094 0)"/>
       <use xlink:href="#DejaVuSans-34" transform="translate(190.869141 0)"/>
       <use xlink:href="#DejaVuSans-2d" transform="translate(254.492188 0)"/>
       <use xlink:href="#DejaVuSans-30" transform="translate(290.576172 0)"/>
       <use xlink:href="#DejaVuSans-35" transform="translate(354.199219 0)"/>
      </g>
     </g>
    </g>
    <g id="xtick_10">
     <g id="line2d_19">
      <path d="M 692.935123 320.4 
L 692.935123 43.2 
" clip-path="url(#pe69eb276f1)" style="fill: none; stroke-dasharray: 5.12,1.28,0.8,1.28; stroke-dashoffset: 0; stroke: #b0b0b0; stroke-width: 0.8"/>
     </g>
     <g id="line2d_20">
      <g>
       <use xlink:href="#md099a0370b" x="692.935123" y="320.4" style="fill: #a9a9a9; stroke: #a9a9a9; stroke-width: 0.8"/>
      </g>
     </g>
     <g id="text_10">
      <!-- 2024-09 -->
      <g style="fill: #a9a9a9" transform="translate(672.043717 334.998438) scale(0.1 -0.1)">
       <use xlink:href="#DejaVuSans-32"/>
       <use xlink:href="#DejaVuSans-30" transform="translate(63.623047 0)"/>
       <use xlink:href="#DejaVuSans-32" transform="translate(127.246094 0)"/>
       <use xlink:href="#DejaVuSans-34" transform="translate(190.869141 0)"/>
       <use xlink:href="#DejaVuSans-2d" transform="translate(254.492188 0)"/>
       <use xlink:href="#DejaVuSans-30" transform="translate(290.576172 0)"/>
       <use xlink:href="#DejaVuSans-39" transform="translate(354.199219 0)"/>
      </g>
     </g>
    </g>
    <g id="xtick_11">
     <g id="line2d_21">
      <path d="M 752.537633 320.4 
L 752.537633 43.2 
" clip-path="url(#pe69eb276f1)" style="fill: none; stroke-dasharray: 5.12,1.28,0.8,1.28; stroke-dashoffset: 0; stroke: #b0b0b0; stroke-width: 0.8"/>
     </g>
     <g id="line2d_22">
      <g>
       <use xlink:href="#md099a0370b" x="752.537633" y="320.4" style="fill: #a9a9a9; stroke: #a9a9a9; stroke-width: 0.8"/>
      </g>
     </g>
     <g id="text_11">
      <!-- 2025-01 -->
      <g style="fill: #a9a9a9" transform="translate(731.646227 334.998438) scale(0.1 -0.1)">
       <use xlink:href="#DejaVuSans-32"/>
       <use xlink:href="#DejaVuSans-30" transform="translate(63.623047 0)"/>
       <use xlink:href="#DejaVuSans-32" transform="translate(127.246094 0)"/>
       <use xlink:href="#DejaVuSans-35" transform="translate(190.869141 0)"/>
       <use xlink:href="#DejaVuSans-2d" transform="translate(254.492188 0)"/>
       <use xlink:href="#DejaVuSans-30" transform="translate(290.576172 0)"/>
       <use xlink:href="#DejaVuSans-31" transform="translate(354.199219 0)"/>
      </g>
     </g>
    </g>
   </g>
   <g id="matplotlib.axis_2">
    <g id="ytick_1">
     <g id="line2d_23">
      <path d="M 108 307.835438 
L 777.6 307.835438 
" clip-path="url(#pe69eb276f1)" style="fill: none; stroke-dasharray: 5.12,1.28,0.8,1.28; stroke-dashoffset: 0; stroke: #b0b0b0; stroke-width: 0.8"/>
     </g>
     <g id="line2d_24">
      <defs>
       <path id="m8b36753e0d" d="M 0 0 
L -3.5 0 
" style="stroke: #a9a9a9; stroke-width: 0.8"/>
      </defs>
      <g>
       <use xlink:href="#m8b36753e0d" x="108" y="307.835438" style="fill: #a9a9a9; stroke: #a9a9a9; stroke-width: 0.8"/>
      </g>
     </g>
     <g id="text_12">
      <!-- 0 -->
      <g style="fill: #a9a9a9" transform="translate(94.6375 311.634657) scale(0.1 -0.1)">
       <use xlink:href="#DejaVuSans-30"/>
      </g>
     </g>
    </g>
    <g id="ytick_2">
     <g id="line2d_25">
      <path d="M 108 279.484995 
L 777.6 279.484995 
" clip-path="url(#pe69eb276f1)" style="fill: none; stroke-dasharray: 5.12,1.28,0.8,1.28; stroke-dashoffset: 0; stroke: #b0b0b0; stroke-width: 0.8"/>
     </g>
     <g id="line2d_26">
      <g>
       <use xlink:href="#m8b36753e0d" x="108" y="279.484995" style="fill: #a9a9a9; stroke: #a9a9a9; stroke-width: 0.8"/>
      </g>
     </g>
     <g id="text_13">
      <!-- 800 -->
      <g style="fill: #a9a9a9" transform="translate(81.9125 283.284214) scale(0.1 -0.1)">
       <defs>
        <path id="DejaVuSans-38" d="M 2034 2216 
Q 1584 2216 1326 1975 
Q 1069 1734 1069 1313 
Q 1069 891 1326 650 
Q 1584 409 2034 409 
Q 2484 409 2743 651 
Q 3003 894 3003 1313 
Q 3003 1734 2745 1975 
Q 2488 2216 2034 2216 
z
M 1403 2484 
Q 997 2584 770 2862 
Q 544 3141 544 3541 
Q 544 4100 942 4425 
Q 1341 4750 2034 4750 
Q 2731 4750 3128 4425 
Q 3525 4100 3525 3541 
Q 3525 3141 3298 2862 
Q 3072 2584 2669 2484 
Q 3125 2378 3379 2068 
Q 3634 1759 3634 1313 
Q 3634 634 3220 271 
Q 2806 -91 2034 -91 
Q 1263 -91 848 271 
Q 434 634 434 1313 
Q 434 1759 690 2068 
Q 947 2378 1403 2484 
z
M 1172 3481 
Q 1172 3119 1398 2916 
Q 1625 2713 2034 2713 
Q 2441 2713 2670 2916 
Q 2900 3119 2900 3481 
Q 2900 3844 2670 4047 
Q 2441 4250 2034 4250 
Q 1625 4250 1398 4047 
Q 1172 3844 1172 3481 
z
" transform="scale(0.015625)"/>
       </defs>
       <use xlink:href="#DejaVuSans-38"/>
       <use xlink:href="#DejaVuSans-30" transform="translate(63.623047 0)"/>
       <use xlink:href="#DejaVuSans-30" transform="translate(127.246094 0)"/>
      </g>
     </g>
    </g>
    <g id="ytick_3">
     <g id="line2d_27">
      <path d="M 108 251.134552 
L 777.6 251.134552 
" clip-path="url(#pe69eb276f1)" style="fill: none; stroke-dasharray: 5.12,1.28,0.8,1.28; stroke-dashoffset: 0; stroke: #b0b0b0; stroke-width: 0.8"/>
     </g>
     <g id="line2d_28">
      <g>
       <use xlink:href="#m8b36753e0d" x="108" y="251.134552" style="fill: #a9a9a9; stroke: #a9a9a9; stroke-width: 0.8"/>
      </g>
     </g>
     <g id="text_14">
      <!-- 1600 -->
      <g style="fill: #a9a9a9" transform="translate(75.55 254.933771) scale(0.1 -0.1)">
       <defs>
        <path id="DejaVuSans-36" d="M 2113 2584 
Q 1688 2584 1439 2293 
Q 1191 2003 1191 1497 
Q 1191 994 1439 701 
Q 1688 409 2113 409 
Q 2538 409 2786 701 
Q 3034 994 3034 1497 
Q 3034 2003 2786 2293 
Q 2538 2584 2113 2584 
z
M 3366 4563 
L 3366 3988 
Q 3128 4100 2886 4159 
Q 2644 4219 2406 4219 
Q 1781 4219 1451 3797 
Q 1122 3375 1075 2522 
Q 1259 2794 1537 2939 
Q 1816 3084 2150 3084 
Q 2853 3084 3261 2657 
Q 3669 2231 3669 1497 
Q 3669 778 3244 343 
Q 2819 -91 2113 -91 
Q 1303 -91 875 529 
Q 447 1150 447 2328 
Q 447 3434 972 4092 
Q 1497 4750 2381 4750 
Q 2619 4750 2861 4703 
Q 3103 4656 3366 4563 
z
" transform="scale(0.015625)"/>
       </defs>
       <use xlink:href="#DejaVuSans-31"/>
       <use xlink:href="#DejaVuSans-36" transform="translate(63.623047 0)"/>
       <use xlink:href="#DejaVuSans-30" transform="translate(127.246094 0)"/>
       <use xlink:href="#DejaVuSans-30" transform="translate(190.869141 0)"/>
      </g>
     </g>
    </g>
    <g id="ytick_4">
     <g id="line2d_29">
      <path d="M 108 222.784109 
L 777.6 222.784109 
" clip-path="url(#pe69eb276f1)" style="fill: none; stroke-dasharray: 5.12,1.28,0.8,1.28; stroke-dashoffset: 0; stroke: #b0b0b0; stroke-width: 0.8"/>
     </g>
     <g id="line2d_30">
      <g>
       <use xlink:href="#m8b36753e0d" x="108" y="222.784109" style="fill: #a9a9a9; stroke: #a9a9a9; stroke-width: 0.8"/>
      </g>
     </g>
     <g id="text_15">
      <!-- 2400 -->
      <g style="fill: #a9a9a9" transform="translate(75.55 226.583328) scale(0.1 -0.1)">
       <use xlink:href="#DejaVuSans-32"/>
       <use xlink:href="#DejaVuSans-34" transform="translate(63.623047 0)"/>
       <use xlink:href="#DejaVuSans-30" transform="translate(127.246094 0)"/>
       <use xlink:href="#DejaVuSans-30" transform="translate(190.869141 0)"/>
      </g>
     </g>
    </g>
    <g id="ytick_5">
     <g id="line2d_31">
      <path d="M 108 194.433666 
L 777.6 194.433666 
" clip-path="url(#pe69eb276f1)" style="fill: none; stroke-dasharray: 5.12,1.28,0.8,1.28; stroke-dashoffset: 0; stroke: #b0b0b0; stroke-width: 0.8"/>
     </g>
     <g id="line2d_32">
      <g>
       <use xlink:href="#m8b36753e0d" x="108" y="194.433666" style="fill: #a9a9a9; stroke: #a9a9a9; stroke-width: 0.8"/>
      </g>
     </g>
     <g id="text_16">
      <!-- 3200 -->
      <g style="fill: #a9a9a9" transform="translate(75.55 198.232885) scale(0.1 -0.1)">
       <use xlink:href="#DejaVuSans-33"/>
       <use xlink:href="#DejaVuSans-32" transform="translate(63.623047 0)"/>
       <use xlink:href="#DejaVuSans-30" transform="translate(127.246094 0)"/>
       <use xlink:href="#DejaVuSans-30" transform="translate(190.869141 0)"/>
      </g>
     </g>
    </g>
    <g id="ytick_6">
     <g id="line2d_33">
      <path d="M 108 166.083223 
L 777.6 166.083223 
" clip-path="url(#pe69eb276f1)" style="fill: none; stroke-dasharray: 5.12,1.28,0.8,1.28; stroke-dashoffset: 0; stroke: #b0b0b0; stroke-width: 0.8"/>
     </g>
     <g id="line2d_34">
      <g>
       <use xlink:href="#m8b36753e0d" x="108" y="166.083223" style="fill: #a9a9a9; stroke: #a9a9a9; stroke-width: 0.8"/>
      </g>
     </g>
     <g id="text_17">
      <!-- 4000 -->
      <g style="fill: #a9a9a9" transform="translate(75.55 169.882442) scale(0.1 -0.1)">
       <use xlink:href="#DejaVuSans-34"/>
       <use xlink:href="#DejaVuSans-30" transform="translate(63.623047 0)"/>
       <use xlink:href="#DejaVuSans-30" transform="translate(127.246094 0)"/>
       <use xlink:href="#DejaVuSans-30" transform="translate(190.869141 0)"/>
      </g>
     </g>
    </g>
    <g id="ytick_7">
     <g id="line2d_35">
      <path d="M 108 137.73278 
L 777.6 137.73278 
" clip-path="url(#pe69eb276f1)" style="fill: none; stroke-dasharray: 5.12,1.28,0.8,1.28; stroke-dashoffset: 0; stroke: #b0b0b0; stroke-width: 0.8"/>
     </g>
     <g id="line2d_36">
      <g>
       <use xlink:href="#m8b36753e0d" x="108" y="137.73278" style="fill: #a9a9a9; stroke: #a9a9a9; stroke-width: 0.8"/>
      </g>
     </g>
     <g id="text_18">
      <!-- 4800 -->
      <g style="fill: #a9a9a9" transform="translate(75.55 141.531999) scale(0.1 -0.1)">
       <use xlink:href="#DejaVuSans-34"/>
       <use xlink:href="#DejaVuSans-38" transform="translate(63.623047 0)"/>
       <use xlink:href="#DejaVuSans-30" transform="translate(127.246094 0)"/>
       <use xlink:href="#DejaVuSans-30" transform="translate(190.869141 0)"/>
      </g>
     </g>
    </g>
    <g id="ytick_8">
     <g id="line2d_37">
      <path d="M 108 109.382337 
L 777.6 109.382337 
" clip-path="url(#pe69eb276f1)" style="fill: none; stroke-dasharray: 5.12,1.28,0.8,1.28; stroke-dashoffset: 0; stroke: #b0b0b0; stroke-width: 0.8"/>
     </g>
     <g id="line2d_38">
      <g>
       <use xlink:href="#m8b36753e0d" x="108" y="109.382337" style="fill: #a9a9a9; stroke: #a9a9a9; stroke-width: 0.8"/>
      </g>
     </g>
     <g id="text_19">
      <!-- 5600 -->
      <g style="fill: #a9a9a9" transform="translate(75.55 113.181556) scale(0.1 -0.1)">
       <use xlink:href="#DejaVuSans-35"/>
       <use xlink:href="#DejaVuSans-36" transform="translate(63.623047 0)"/>
       <use xlink:href="#DejaVuSans-30" transform="translate(127.246094 0)"/>
       <use xlink:href="#DejaVuSans-30" transform="translate(190.869141 0)"/>
      </g>
     </g>
    </g>
    <g id="ytick_9">
     <g id="line2d_39">
      <path d="M 108 81.031894 
L 777.6 81.031894 
" clip-path="url(#pe69eb276f1)" style="fill: none; stroke-dasharray: 5.12,1.28,0.8,1.28; stroke-dashoffset: 0; stroke: #b0b0b0; stroke-width: 0.8"/>
     </g>
     <g id="line2d_40">
      <g>
       <use xlink:href="#m8b36753e0d" x="108" y="81.031894" style="fill: #a9a9a9; stroke: #a9a9a9; stroke-width: 0.8"/>
      </g>
     </g>
     <g id="text_20">
      <!-- 6400 -->
      <g style="fill: #a9a9a9" transform="translate(75.55 84.831113) scale(0.1 -0.1)">
       <use xlink:href="#DejaVuSans-36"/>
       <use xlink:href="#DejaVuSans-34" transform="translate(63.623047 0)"/>
       <use xlink:href="#DejaVuSans-30" transform="translate(127.246094 0)"/>
       <use xlink:href="#DejaVuSans-30" transform="translate(190.869141 0)"/>
      </g>
     </g>
    </g>
    <g id="ytick_10">
     <g id="line2d_41">
      <path d="M 108 52.681451 
L 777.6 52.681451 
" clip-path="url(#pe69eb276f1)" style="fill: none; stroke-dasharray: 5.12,1.28,0.8,1.28; stroke-dashoffset: 0; stroke: #b0b0b0; stroke-width: 0.8"/>
     </g>
     <g id="line2d_42">
      <g>
       <use xlink:href="#m8b36753e0d" x="108" y="52.681451" style="fill: #a9a9a9; stroke: #a9a9a9; stroke-width: 0.8"/>
      </g>
     </g>
     <g id="text_21">
      <!-- 7200 -->
      <g style="fill: #a9a9a9" transform="translate(75.55 56.48067) scale(0.1 -0.1)">
       <defs>
        <path id="DejaVuSans-37" d="M 525 4666 
L 3525 4666 
L 3525 4397 
L 1831 0 
L 1172 0 
L 2766 4134 
L 525 4134 
L 525 4666 
z
" transform="scale(0.015625)"/>
       </defs>
       <use xlink:href="#DejaVuSans-37"/>
       <use xlink:href="#DejaVuSans-32" transform="translate(63.623047 0)"/>
       <use xlink:href="#DejaVuSans-30" transform="translate(127.246094 0)"/>
       <use xlink:href="#DejaVuSans-30" transform="translate(190.869141 0)"/>
      </g>
     </g>
    </g>
   </g>
   <g id="line2d_43">
    <path d="M 138.436364 307.729124 
L 141.367635 307.481058 
L 141.85618 307.268429 
L 143.81036 307.020363 
L 145.764541 306.630544 
L 146.741631 306.488792 
L 149.184357 306.276164 
L 150.161448 305.886345 
L 150.649993 305.24846 
L 151.138538 304.89408 
L 151.627083 303.7955 
L 152.115628 303.724624 
L 152.604173 303.334805 
L 153.581264 302.838672 
L 155.535444 301.279398 
L 157.489625 300.322571 
L 158.95526 299.649248 
L 159.443806 298.86961 
L 160.420896 298.160849 
L 160.909441 297.948221 
L 165.794893 297.23946 
L 166.283438 297.026832 
L 169.703254 296.743327 
L 171.657435 296.282633 
L 175.565796 295.751062 
L 176.054341 295.502995 
L 176.542886 295.432119 
L 177.519977 295.113177 
L 180.939793 294.546168 
L 181.916883 294.262663 
L 186.31379 293.518464 
L 187.29088 293.305836 
L 188.26797 293.270398 
L 190.222151 292.809703 
L 190.710696 292.13638 
L 192.176332 291.569371 
L 193.641967 291.179553 
L 194.130512 290.931486 
L 195.107603 290.754296 
L 197.061783 290.187287 
L 198.038873 290.116411 
L 199.015964 289.868345 
L 200.970144 289.372212 
L 201.45869 289.336774 
L 202.43578 288.876079 
L 202.924325 288.805203 
L 203.41287 288.557137 
L 208.786867 287.671185 
L 210.741048 287.104177 
L 211.229593 286.785234 
L 213.672319 285.970159 
L 214.649409 285.296836 
L 216.115045 285.013331 
L 228.817219 281.434088 
L 229.305764 281.434088 
L 229.794309 281.22146 
L 230.771399 281.115146 
L 231.259945 280.937955 
L 233.214125 280.831641 
L 234.191216 280.654451 
L 235.168306 280.158318 
L 236.633941 279.626747 
L 237.122487 279.307805 
L 238.099577 278.882548 
L 238.588122 278.634482 
L 239.565212 278.315539 
L 240.053757 278.173787 
L 241.030848 277.57134 
L 241.519393 277.039769 
L 242.496483 275.551371 
L 242.985028 275.409619 
L 243.473574 275.409619 
L 244.939209 274.559106 
L 245.427754 274.311039 
L 245.916299 274.204725 
L 246.404845 273.74403 
L 247.381935 273.354212 
L 248.359025 272.893517 
L 248.84757 272.29107 
L 249.336116 271.511433 
L 249.824661 271.192491 
L 250.313206 270.341977 
L 250.801751 269.810406 
L 253.733022 268.251132 
L 254.710112 267.471495 
L 255.198658 267.152552 
L 255.687203 266.408353 
L 256.175748 265.309774 
L 256.664293 264.565574 
L 257.152838 264.175756 
L 257.641383 263.963128 
L 261.061199 261.057207 
L 262.03829 259.887751 
L 263.503925 258.860048 
L 265.458106 257.690592 
L 266.435196 257.159021 
L 268.389377 256.131318 
L 270.832103 253.934158 
L 271.809193 253.54434 
L 272.786283 252.871017 
L 273.274829 252.587512 
L 273.763374 252.516636 
L 275.229009 251.701561 
L 275.717554 251.16999 
L 278.16028 249.858782 
L 278.648825 249.681592 
L 280.114461 248.689326 
L 287.442638 246.102348 
L 288.419729 245.216397 
L 289.396819 244.755702 
L 290.373909 244.224132 
L 290.862454 243.940627 
L 291.839545 243.657123 
L 292.32809 243.33818 
L 292.816635 243.196428 
L 294.282271 242.239601 
L 296.724996 241.672592 
L 298.190632 240.822078 
L 299.656267 240.503136 
L 300.144812 240.361384 
L 301.610448 239.262804 
L 303.564629 238.731233 
L 304.053174 238.341415 
L 306.984445 237.349149 
L 307.961535 237.171959 
L 308.938625 236.78214 
L 312.358442 235.541808 
L 313.335532 235.400056 
L 314.801167 234.903923 
L 317.243893 233.734468 
L 319.198074 232.671326 
L 323.106435 231.076614 
L 323.59498 231.005738 
L 324.572071 230.403291 
L 325.060616 230.332415 
L 327.014796 229.517339 
L 328.968977 229.269273 
L 329.946067 228.77314 
L 330.434613 228.347884 
L 330.923158 227.461932 
L 332.877338 226.930361 
L 334.342974 226.186162 
L 334.831519 226.079848 
L 338.73988 224.201631 
L 340.205516 223.918127 
L 341.182606 223.421994 
L 341.671151 223.209366 
L 342.159696 223.13849 
L 344.113877 222.252538 
L 345.579513 221.331149 
L 347.045148 221.047644 
L 349.487874 220.445198 
L 349.976419 220.055379 
L 351.442055 219.523808 
L 353.396235 218.744171 
L 353.88478 218.38979 
L 354.373326 218.2126 
L 355.350416 217.681029 
L 357.793142 216.865954 
L 359.258777 215.696498 
L 359.747322 215.590184 
L 360.724413 214.810547 
L 361.212958 214.739671 
L 361.701503 213.960034 
L 362.190048 213.747405 
L 362.678593 213.357587 
L 363.167138 213.286711 
L 364.144229 212.684264 
L 365.121319 212.365321 
L 365.609864 212.010941 
L 366.098409 211.833751 
L 367.564045 210.806047 
L 369.518226 209.778343 
L 370.006771 209.707467 
L 371.472406 208.963268 
L 371.960951 208.148193 
L 372.938042 207.439432 
L 373.426587 207.333118 
L 374.403677 206.730671 
L 374.892222 206.624357 
L 375.869313 206.128224 
L 377.823493 205.171396 
L 378.312039 204.817016 
L 379.289129 203.860188 
L 380.266219 203.257742 
L 380.754764 202.938799 
L 381.243309 202.407228 
L 383.19749 201.060582 
L 383.686035 200.493573 
L 384.17458 200.103755 
L 385.151671 199.749374 
L 386.128761 199.076051 
L 387.594397 198.331852 
L 388.082942 198.260976 
L 389.548577 197.481339 
L 390.525668 196.878892 
L 395.411119 195.106989 
L 395.899664 194.717171 
L 397.853845 193.972971 
L 398.34239 193.831219 
L 399.319481 193.193334 
L 400.296571 192.768078 
L 401.273661 192.094755 
L 402.250751 190.145662 
L 403.227842 189.011644 
L 404.693477 188.267445 
L 405.670568 187.877626 
L 406.159113 187.80675 
L 406.647658 187.523246 
L 409.090384 186.743608 
L 409.578929 186.53098 
L 410.556019 185.857657 
L 412.021655 185.219772 
L 412.998745 184.688201 
L 413.48729 184.333821 
L 413.975835 184.121193 
L 414.464381 183.766812 
L 414.952926 183.235241 
L 415.930016 182.70367 
L 418.372742 181.392462 
L 421.304013 179.939502 
L 422.769648 179.514246 
L 424.235284 178.947237 
L 424.723829 178.592856 
L 425.700919 178.309352 
L 426.67801 177.919533 
L 427.166555 177.529715 
L 429.120735 176.856392 
L 430.097826 176.14763 
L 431.074916 175.722374 
L 432.052006 174.942737 
L 433.029097 174.588356 
L 433.517642 174.163099 
L 434.006187 174.092223 
L 434.983277 173.348024 
L 435.960368 172.851891 
L 436.448913 172.639263 
L 436.937458 172.14313 
L 440.357274 170.796484 
L 441.334365 170.371228 
L 442.8 169.910533 
L 443.77709 169.768781 
L 444.265635 169.556152 
L 444.754181 169.485276 
L 445.731271 169.06002 
L 446.219816 169.024582 
L 448.173997 168.280383 
L 449.639632 167.252679 
L 450.128177 167.075489 
L 451.105268 166.543918 
L 451.593813 166.402166 
L 454.525084 164.772015 
L 455.013629 164.665701 
L 456.479265 163.815188 
L 457.9449 163.319055 
L 458.92199 163.000113 
L 460.876171 162.362228 
L 461.853261 162.043285 
L 463.807442 161.653466 
L 464.295987 161.440838 
L 464.784532 161.369962 
L 465.761623 160.944705 
L 466.250168 160.873829 
L 466.738713 160.625763 
L 467.715803 160.448573 
L 469.181439 159.917002 
L 470.158529 159.810688 
L 471.624165 159.491745 
L 474.06689 159.066489 
L 486.769065 155.380931 
L 487.25761 154.884798 
L 488.2347 154.49498 
L 492.143061 153.042019 
L 492.631607 152.758515 
L 494.097242 152.333258 
L 495.074332 152.085192 
L 495.562878 151.766249 
L 496.051423 151.659935 
L 496.539968 151.234679 
L 498.005603 150.951174 
L 498.982694 150.49048 
L 499.471239 149.923471 
L 501.42542 149.462776 
L 504.845236 148.754015 
L 505.333781 148.754015 
L 505.822326 148.541387 
L 507.776507 148.187006 
L 508.265052 147.974378 
L 510.219232 147.619997 
L 511.196323 147.194741 
L 512.173413 147.01755 
L 514.616139 146.415103 
L 516.57032 145.812656 
L 517.058865 145.706342 
L 517.54741 145.458276 
L 518.5245 145.21021 
L 519.013045 144.926705 
L 520.478681 144.430572 
L 520.967226 144.11163 
L 521.944316 143.828125 
L 525.852678 142.481479 
L 526.829768 142.410603 
L 528.783949 141.843594 
L 529.272494 141.56009 
L 530.249584 141.276586 
L 532.69231 140.178006 
L 533.180855 140.142568 
L 538.554852 138.264351 
L 540.997578 137.626466 
L 541.974668 137.165771 
L 543.440304 136.846829 
L 545.394484 135.252116 
L 546.371574 134.968612 
L 546.86012 134.578793 
L 549.791391 133.480214 
L 550.279936 133.161271 
L 551.257026 132.877767 
L 551.745571 132.558824 
L 554.188297 131.779187 
L 555.653933 130.928674 
L 556.142478 130.82236 
L 558.585204 129.511152 
L 560.050839 128.873267 
L 560.539384 128.518886 
L 561.516475 128.199944 
L 562.493565 127.632935 
L 562.98211 127.455745 
L 563.470655 127.101364 
L 569.821742 124.868767 
L 570.310287 124.762453 
L 570.798833 124.44351 
L 572.753013 124.053691 
L 573.730104 123.663873 
L 576.661375 122.246351 
L 577.14992 122.175475 
L 578.615555 121.360399 
L 580.081191 120.864267 
L 583.501007 119.482183 
L 583.989552 119.34043 
L 584.478097 119.021488 
L 585.455188 118.915174 
L 585.943733 118.596231 
L 586.920823 118.419041 
L 587.897913 117.958346 
L 588.386458 117.745718 
L 588.875004 117.674842 
L 591.317729 116.718014 
L 592.783365 116.328196 
L 593.760455 116.080129 
L 595.226091 115.654873 
L 596.203181 115.265054 
L 598.157362 114.201913 
L 599.134452 113.812094 
L 599.622997 113.493151 
L 600.600088 113.280523 
L 601.088633 112.997019 
L 601.577178 112.890705 
L 603.042813 112.075629 
L 604.019904 111.685811 
L 605.974084 110.941612 
L 608.41681 110.126536 
L 609.3939 109.630404 
L 611.836626 108.815328 
L 614.767897 107.645873 
L 616.722078 106.759921 
L 621.60753 104.881704 
L 622.096075 104.562762 
L 624.050255 103.889439 
L 624.538801 103.889439 
L 625.515891 103.464182 
L 627.470072 101.904908 
L 627.958617 101.763156 
L 628.447162 101.444213 
L 628.935707 101.337899 
L 629.424252 101.089833 
L 629.912797 101.018957 
L 630.401342 100.664576 
L 630.889888 100.558262 
L 631.866978 99.955815 
L 633.332613 99.211616 
L 634.309704 98.821797 
L 634.798249 98.573731 
L 636.263884 98.254788 
L 638.70661 97.439713 
L 639.683701 97.120771 
L 641.149336 96.376572 
L 642.126426 95.915877 
L 643.103517 95.66781 
L 644.569152 94.994487 
L 648.966059 93.399775 
L 650.431694 92.513824 
L 650.920239 92.407509 
L 651.89733 91.911377 
L 652.87442 91.556996 
L 653.362965 91.13174 
L 654.340055 90.741921 
L 657.271326 89.572465 
L 658.736962 89.147209 
L 659.225507 88.899142 
L 659.714052 88.828266 
L 661.179688 88.296695 
L 662.645323 87.765124 
L 663.622414 87.375306 
L 664.110959 86.985487 
L 665.576594 86.595669 
L 666.065139 86.312164 
L 667.04223 86.064098 
L 668.507865 85.249023 
L 668.99641 85.213585 
L 670.462046 84.75289 
L 671.439136 84.682014 
L 672.416226 84.292195 
L 675.347497 83.441682 
L 676.324588 83.406244 
L 680.232949 82.165912 
L 681.210039 81.634341 
L 681.698585 81.209085 
L 683.16422 80.358571 
L 684.14131 79.756124 
L 687.072581 78.834735 
L 687.561127 78.444916 
L 690.492397 77.240023 
L 692.446578 76.708452 
L 693.423668 76.283195 
L 693.912214 76.035129 
L 694.889304 75.751624 
L 695.377849 75.46812 
L 696.354939 75.29093 
L 698.797665 74.156912 
L 699.28621 73.873407 
L 700.751846 73.519027 
L 701.240391 73.200084 
L 701.728936 73.022894 
L 702.217481 72.597637 
L 702.706027 72.526761 
L 705.148752 71.569934 
L 706.614388 71.250991 
L 707.102933 71.180115 
L 707.591478 70.967487 
L 708.080023 70.932049 
L 709.057114 70.613106 
L 709.545659 70.577668 
L 711.011294 70.01066 
L 712.965475 69.443651 
L 713.942565 68.699452 
L 715.896746 67.63631 
L 717.362381 67.140177 
L 720.293652 65.828969 
L 721.270743 65.297398 
L 721.759288 65.049332 
L 722.247833 64.588637 
L 725.179104 63.63181 
L 726.156194 63.241991 
L 727.133285 62.958487 
L 727.62183 62.71042 
L 728.110375 62.249726 
L 730.064556 61.753593 
L 730.553101 61.399212 
L 736.904188 59.095739 
L 737.881278 58.918549 
L 742.278185 57.394712 
L 743.255275 57.146646 
L 743.74382 56.934018 
L 744.232365 56.89858 
L 745.209456 56.508761 
L 746.186546 55.906314 
L 747.163636 55.8 
L 747.163636 55.8 
" clip-path="url(#pe69eb276f1)" style="fill: none; stroke: #1f77b4; stroke-width: 1.5; stroke-linecap: square"/>
   </g>
   <g id="line2d_44">
    <path d="M 138.924909 307.8 
L 143.321815 307.693686 
L 147.230177 307.516496 
L 149.184357 307.516496 
L 149.672902 307.374743 
L 152.115628 307.268429 
L 155.046899 306.949487 
L 157.97817 306.843173 
L 158.95526 306.736858 
L 162.375077 306.595106 
L 165.794893 306.488792 
L 168.237619 306.417916 
L 174.588706 306.311602 
L 177.031431 306.240726 
L 180.451248 306.134411 
L 182.893973 306.063535 
L 188.26797 305.957221 
L 190.222151 305.780031 
L 192.176332 305.744593 
L 195.107603 305.638279 
L 197.061783 305.602841 
L 199.504509 305.531965 
L 201.45869 305.354774 
L 205.855596 305.24846 
L 206.832686 305.177584 
L 208.786867 305.07127 
L 211.718138 304.964956 
L 213.672319 304.858642 
L 222.466132 304.327071 
L 225.885948 304.220757 
L 227.351583 304.079004 
L 229.794309 303.97269 
L 234.679761 303.724624 
L 239.565212 303.653748 
L 241.519393 303.441119 
L 243.473574 303.334805 
L 248.84757 302.838672 
L 252.267387 302.448854 
L 253.733022 302.377978 
L 258.129928 301.846407 
L 260.572654 301.775531 
L 262.03829 301.633779 
L 263.503925 301.527464 
L 277.18319 300.499761 
L 278.16028 300.322571 
L 281.091551 300.216257 
L 288.908274 299.755562 
L 292.32809 299.649248 
L 294.282271 299.436619 
L 296.724996 299.330305 
L 299.656267 299.223991 
L 302.098993 299.117677 
L 304.053174 299.082239 
L 306.4959 299.011363 
L 307.47299 298.86961 
L 314.312622 298.763296 
L 315.289713 298.656982 
L 321.152254 298.550668 
L 325.549161 298.33804 
L 328.968977 298.231725 
L 330.923158 298.019097 
L 334.342974 297.912783 
L 335.320064 297.735593 
L 337.76279 297.664717 
L 342.648242 297.593841 
L 345.090967 297.345774 
L 348.022238 297.23946 
L 349.976419 297.06227 
L 354.861871 296.814203 
L 359.747322 296.707889 
L 364.144229 296.495261 
L 365.609864 296.459823 
L 366.586955 296.318071 
L 369.02968 296.211756 
L 370.006771 296.14088 
L 370.983861 296.070004 
L 371.960951 295.999128 
L 376.357858 295.928252 
L 377.823493 295.821938 
L 391.014213 294.971425 
L 393.456939 294.86511 
L 395.899664 294.794234 
L 402.739297 294.68792 
L 403.716387 294.546168 
L 410.556019 294.439854 
L 415.441471 294.191787 
L 416.418561 294.156349 
L 417.395652 294.050035 
L 419.838377 293.943721 
L 422.281103 293.872845 
L 424.723829 293.766531 
L 427.166555 293.695655 
L 431.563461 293.58934 
L 434.494732 293.483026 
L 441.334365 293.376712 
L 446.708361 293.093208 
L 448.662542 293.022332 
L 450.128177 292.916017 
L 456.96781 292.809703 
L 459.899081 292.703389 
L 468.692894 292.597075 
L 470.647074 292.561637 
L 476.509616 292.490761 
L 477.486707 292.419885 
L 484.326339 292.313571 
L 486.280519 292.278132 
L 498.982694 292.171818 
L 500.448329 292.030066 
L 522.432862 291.923752 
L 524.875587 291.852876 
L 537.577762 291.746562 
L 538.554852 291.675686 
L 540.997578 291.604809 
L 542.463213 291.463057 
L 545.394484 291.356743 
L 548.8143 291.214991 
L 553.211207 291.108677 
L 555.653933 291.037801 
L 559.073749 290.931486 
L 562.98211 290.754296 
L 565.424836 290.647982 
L 567.379016 290.612544 
L 571.775923 290.50623 
L 573.730104 290.470792 
L 580.081191 290.364478 
L 582.035371 290.32904 
L 584.478097 290.222725 
L 587.409368 290.116411 
L 590.829184 290.045535 
L 591.806275 289.974659 
L 603.531359 289.868345 
L 609.882446 289.513964 
L 612.325171 289.443088 
L 613.302262 289.336774 
L 614.279352 289.265898 
L 618.187713 289.159584 
L 621.118984 289.05327 
L 626.004436 288.946955 
L 628.447162 288.698889 
L 633.332613 288.592575 
L 634.309704 288.486261 
L 639.195155 288.379947 
L 641.637881 288.30907 
L 647.011878 288.273632 
L 647.988968 288.167318 
L 653.362965 288.061004 
L 654.340055 287.990128 
L 665.088049 287.883814 
L 668.01932 287.7775 
L 675.347497 287.671185 
L 677.301678 287.635747 
L 681.698585 287.564871 
L 682.675675 287.458557 
L 689.026762 287.352243 
L 691.469488 287.281367 
L 700.263301 287.175053 
L 701.728936 287.068739 
L 703.194572 286.962424 
L 704.660207 286.85611 
L 711.988385 286.749796 
L 714.919656 286.643482 
L 728.110375 286.537168 
L 732.507281 286.324539 
L 738.369823 286.218225 
L 739.346914 286.111911 
L 747.163636 286.005597 
L 747.163636 286.005597 
" clip-path="url(#pe69eb276f1)" style="fill: none; stroke: #ff7f0e; stroke-width: 1.5; stroke-linecap: square"/>
   </g>
   <g id="patch_3">
    <path d="M 108 320.4 
L 108 43.2 
" style="fill: none; stroke: #a9a9a9; stroke-width: 0.8; stroke-linejoin: miter; stroke-linecap: square"/>
   </g>
   <g id="patch_4">
    <path d="M 777.6 320.4 
L 777.6 43.2 
" style="fill: none"/>
   </g>
   <g id="patch_5">
    <path d="M 108 320.4 
L 777.6 320.4 
" style="fill: none; stroke: #a9a9a9; stroke-width: 0.8; stroke-linejoin: miter; stroke-linecap: square"/>
   </g>
   <g id="patch_6">
    <path d="M 108 43.2 
L 777.6 43.2 
" style="fill: none"/>
   </g>
   <g id="text_22">
    <!-- get_subscribe history -->
    <g style="fill: #a9a9a9" transform="translate(378.6075 37.2) scale(0.12 -0.12)">
     <defs>
      <path id="DejaVuSans-67" d="M 2906 1791 
Q 2906 2416 2648 2759 
Q 2391 3103 1925 3103 
Q 1463 3103 1205 2759 
Q 947 2416 947 1791 
Q 947 1169 1205 825 
Q 1463 481 1925 481 
Q 2391 481 2648 825 
Q 2906 1169 2906 1791 
z
M 3481 434 
Q 3481 -459 3084 -895 
Q 2688 -1331 1869 -1331 
Q 1566 -1331 1297 -1286 
Q 1028 -1241 775 -1147 
L 775 -588 
Q 1028 -725 1275 -790 
Q 1522 -856 1778 -856 
Q 2344 -856 2625 -561 
Q 2906 -266 2906 331 
L 2906 616 
Q 2728 306 2450 153 
Q 2172 0 1784 0 
Q 1141 0 747 490 
Q 353 981 353 1791 
Q 353 2603 747 3093 
Q 1141 3584 1784 3584 
Q 2172 3584 2450 3431 
Q 2728 3278 2906 2969 
L 2906 3500 
L 3481 3500 
L 3481 434 
z
" transform="scale(0.015625)"/>
      <path id="DejaVuSans-65" d="M 3597 1894 
L 3597 1613 
L 953 1613 
Q 991 1019 1311 708 
Q 1631 397 2203 397 
Q 2534 397 2845 478 
Q 3156 559 3463 722 
L 3463 178 
Q 3153 47 2828 -22 
Q 2503 -91 2169 -91 
Q 1331 -91 842 396 
Q 353 884 353 1716 
Q 353 2575 817 3079 
Q 1281 3584 2069 3584 
Q 2775 3584 3186 3129 
Q 3597 2675 3597 1894 
z
M 3022 2063 
Q 3016 2534 2758 2815 
Q 2500 3097 2075 3097 
Q 1594 3097 1305 2825 
Q 1016 2553 972 2059 
L 3022 2063 
z
" transform="scale(0.015625)"/>
      <path id="DejaVuSans-74" d="M 1172 4494 
L 1172 3500 
L 2356 3500 
L 2356 3053 
L 1172 3053 
L 1172 1153 
Q 1172 725 1289 603 
Q 1406 481 1766 481 
L 2356 481 
L 2356 0 
L 1766 0 
Q 1100 0 847 248 
Q 594 497 594 1153 
L 594 3053 
L 172 3053 
L 172 3500 
L 594 3500 
L 594 4494 
L 1172 4494 
z
" transform="scale(0.015625)"/>
      <path id="DejaVuSans-5f" d="M 3263 -1063 
L 3263 -1509 
L -63 -1509 
L -63 -1063 
L 3263 -1063 
z
" transform="scale(0.015625)"/>
      <path id="DejaVuSans-73" d="M 2834 3397 
L 2834 2853 
Q 2591 2978 2328 3040 
Q 2066 3103 1784 3103 
Q 1356 3103 1142 2972 
Q 928 2841 928 2578 
Q 928 2378 1081 2264 
Q 1234 2150 1697 2047 
L 1894 2003 
Q 2506 1872 2764 1633 
Q 3022 1394 3022 966 
Q 3022 478 2636 193 
Q 2250 -91 1575 -91 
Q 1294 -91 989 -36 
Q 684 19 347 128 
L 347 722 
Q 666 556 975 473 
Q 1284 391 1588 391 
Q 1994 391 2212 530 
Q 2431 669 2431 922 
Q 2431 1156 2273 1281 
Q 2116 1406 1581 1522 
L 1381 1569 
Q 847 1681 609 1914 
Q 372 2147 372 2553 
Q 372 3047 722 3315 
Q 1072 3584 1716 3584 
Q 2034 3584 2315 3537 
Q 2597 3491 2834 3397 
z
" transform="scale(0.015625)"/>
      <path id="DejaVuSans-75" d="M 544 1381 
L 544 3500 
L 1119 3500 
L 1119 1403 
Q 1119 906 1312 657 
Q 1506 409 1894 409 
Q 2359 409 2629 706 
Q 2900 1003 2900 1516 
L 2900 3500 
L 3475 3500 
L 3475 0 
L 2900 0 
L 2900 538 
Q 2691 219 2414 64 
Q 2138 -91 1772 -91 
Q 1169 -91 856 284 
Q 544 659 544 1381 
z
M 1991 3584 
L 1991 3584 
z
" transform="scale(0.015625)"/>
      <path id="DejaVuSans-62" d="M 3116 1747 
Q 3116 2381 2855 2742 
Q 2594 3103 2138 3103 
Q 1681 3103 1420 2742 
Q 1159 2381 1159 1747 
Q 1159 1113 1420 752 
Q 1681 391 2138 391 
Q 2594 391 2855 752 
Q 3116 1113 3116 1747 
z
M 1159 2969 
Q 1341 3281 1617 3432 
Q 1894 3584 2278 3584 
Q 2916 3584 3314 3078 
Q 3713 2572 3713 1747 
Q 3713 922 3314 415 
Q 2916 -91 2278 -91 
Q 1894 -91 1617 61 
Q 1341 213 1159 525 
L 1159 0 
L 581 0 
L 581 4863 
L 1159 4863 
L 1159 2969 
z
" transform="scale(0.015625)"/>
      <path id="DejaVuSans-63" d="M 3122 3366 
L 3122 2828 
Q 2878 2963 2633 3030 
Q 2388 3097 2138 3097 
Q 1578 3097 1268 2742 
Q 959 2388 959 1747 
Q 959 1106 1268 751 
Q 1578 397 2138 397 
Q 2388 397 2633 464 
Q 2878 531 3122 666 
L 3122 134 
Q 2881 22 2623 -34 
Q 2366 -91 2075 -91 
Q 1284 -91 818 406 
Q 353 903 353 1747 
Q 353 2603 823 3093 
Q 1294 3584 2113 3584 
Q 2378 3584 2631 3529 
Q 2884 3475 3122 3366 
z
" transform="scale(0.015625)"/>
      <path id="DejaVuSans-72" d="M 2631 2963 
Q 2534 3019 2420 3045 
Q 2306 3072 2169 3072 
Q 1681 3072 1420 2755 
Q 1159 2438 1159 1844 
L 1159 0 
L 581 0 
L 581 3500 
L 1159 3500 
L 1159 2956 
Q 1341 3275 1631 3429 
Q 1922 3584 2338 3584 
Q 2397 3584 2469 3576 
Q 2541 3569 2628 3553 
L 2631 2963 
z
" transform="scale(0.015625)"/>
      <path id="DejaVuSans-69" d="M 603 3500 
L 1178 3500 
L 1178 0 
L 603 0 
L 603 3500 
z
M 603 4863 
L 1178 4863 
L 1178 4134 
L 603 4134 
L 603 4863 
z
" transform="scale(0.015625)"/>
      <path id="DejaVuSans-20" transform="scale(0.015625)"/>
      <path id="DejaVuSans-68" d="M 3513 2113 
L 3513 0 
L 2938 0 
L 2938 2094 
Q 2938 2591 2744 2837 
Q 2550 3084 2163 3084 
Q 1697 3084 1428 2787 
Q 1159 2491 1159 1978 
L 1159 0 
L 581 0 
L 581 4863 
L 1159 4863 
L 1159 2956 
Q 1366 3272 1645 3428 
Q 1925 3584 2291 3584 
Q 2894 3584 3203 3211 
Q 3513 2838 3513 2113 
z
" transform="scale(0.015625)"/>
      <path id="DejaVuSans-6f" d="M 1959 3097 
Q 1497 3097 1228 2736 
Q 959 2375 959 1747 
Q 959 1119 1226 758 
Q 1494 397 1959 397 
Q 2419 397 2687 759 
Q 2956 1122 2956 1747 
Q 2956 2369 2687 2733 
Q 2419 3097 1959 3097 
z
M 1959 3584 
Q 2709 3584 3137 3096 
Q 3566 2609 3566 1747 
Q 3566 888 3137 398 
Q 2709 -91 1959 -91 
Q 1206 -91 779 398 
Q 353 888 353 1747 
Q 353 2609 779 3096 
Q 1206 3584 1959 3584 
z
" transform="scale(0.015625)"/>
      <path id="DejaVuSans-79" d="M 2059 -325 
Q 1816 -950 1584 -1140 
Q 1353 -1331 966 -1331 
L 506 -1331 
L 506 -850 
L 844 -850 
Q 1081 -850 1212 -737 
Q 1344 -625 1503 -206 
L 1606 56 
L 191 3500 
L 800 3500 
L 1894 763 
L 2988 3500 
L 3597 3500 
L 2059 -325 
z
" transform="scale(0.015625)"/>
     </defs>
     <use xlink:href="#DejaVuSans-67"/>
     <use xlink:href="#DejaVuSans-65" transform="translate(63.476562 0)"/>
     <use xlink:href="#DejaVuSans-74" transform="translate(125 0)"/>
     <use xlink:href="#DejaVuSans-5f" transform="translate(164.208984 0)"/>
     <use xlink:href="#DejaVuSans-73" transform="translate(214.208984 0)"/>
     <use xlink:href="#DejaVuSans-75" transform="translate(266.308594 0)"/>
     <use xlink:href="#DejaVuSans-62" transform="translate(329.6875 0)"/>
     <use xlink:href="#DejaVuSans-73" transform="translate(393.164062 0)"/>
     <use xlink:href="#DejaVuSans-63" transform="translate(445.263672 0)"/>
     <use xlink:href="#DejaVuSans-72" transform="translate(500.244141 0)"/>
     <use xlink:href="#DejaVuSans-69" transform="translate(541.357422 0)"/>
     <use xlink:href="#DejaVuSans-62" transform="translate(569.140625 0)"/>
     <use xlink:href="#DejaVuSans-65" transform="translate(632.617188 0)"/>
     <use xlink:href="#DejaVuSans-20" transform="translate(694.140625 0)"/>
     <use xlink:href="#DejaVuSans-68" transform="translate(725.927734 0)"/>
     <use xlink:href="#DejaVuSans-69" transform="translate(789.306641 0)"/>
     <use xlink:href="#DejaVuSans-73" transform="translate(817.089844 0)"/>
     <use xlink:href="#DejaVuSans-74" transform="translate(869.189453 0)"/>
     <use xlink:href="#DejaVuSans-6f" transform="translate(908.398438 0)"/>
     <use xlink:href="#DejaVuSans-72" transform="translate(969.580078 0)"/>
     <use xlink:href="#DejaVuSans-79" transform="translate(1010.693359 0)"/>
    </g>
   </g>
   <g id="legend_1">
    <g id="line2d_45">
     <path d="M 815.08 328.498438 
L 825.08 328.498438 
L 835.08 328.498438 
" style="fill: none; stroke: #1f77b4; stroke-width: 1.5; stroke-linecap: square"/>
    </g>
    <g id="text_23">
     <!-- star -->
     <g style="fill: #a9a9a9" transform="translate(843.08 331.998438) scale(0.1 -0.1)">
      <defs>
       <path id="DejaVuSans-61" d="M 2194 1759 
Q 1497 1759 1228 1600 
Q 959 1441 959 1056 
Q 959 750 1161 570 
Q 1363 391 1709 391 
Q 2188 391 2477 730 
Q 2766 1069 2766 1631 
L 2766 1759 
L 2194 1759 
z
M 3341 1997 
L 3341 0 
L 2766 0 
L 2766 531 
Q 2569 213 2275 61 
Q 1981 -91 1556 -91 
Q 1019 -91 701 211 
Q 384 513 384 1019 
Q 384 1609 779 1909 
Q 1175 2209 1959 2209 
L 2766 2209 
L 2766 2266 
Q 2766 2663 2505 2880 
Q 2244 3097 1772 3097 
Q 1472 3097 1187 3025 
Q 903 2953 641 2809 
L 641 3341 
Q 956 3463 1253 3523 
Q 1550 3584 1831 3584 
Q 2591 3584 2966 3190 
Q 3341 2797 3341 1997 
z
" transform="scale(0.015625)"/>
      </defs>
      <use xlink:href="#DejaVuSans-73"/>
      <use xlink:href="#DejaVuSans-74" transform="translate(52.099609 0)"/>
      <use xlink:href="#DejaVuSans-61" transform="translate(91.308594 0)"/>
      <use xlink:href="#DejaVuSans-72" transform="translate(152.587891 0)"/>
     </g>
    </g>
    <g id="line2d_46">
     <path d="M 815.08 343.176562 
L 825.08 343.176562 
L 835.08 343.176562 
" style="fill: none; stroke: #ff7f0e; stroke-width: 1.5; stroke-linecap: square"/>
    </g>
    <g id="text_24">
     <!-- fork -->
     <g style="fill: #a9a9a9" transform="translate(843.08 346.676562) scale(0.1 -0.1)">
      <defs>
       <path id="DejaVuSans-66" d="M 2375 4863 
L 2375 4384 
L 1825 4384 
Q 1516 4384 1395 4259 
Q 1275 4134 1275 3809 
L 1275 3500 
L 2222 3500 
L 2222 3053 
L 1275 3053 
L 1275 0 
L 697 0 
L 697 3053 
L 147 3053 
L 147 3500 
L 697 3500 
L 697 3744 
Q 697 4328 969 4595 
Q 1241 4863 1831 4863 
L 2375 4863 
z
" transform="scale(0.015625)"/>
       <path id="DejaVuSans-6b" d="M 581 4863 
L 1159 4863 
L 1159 1991 
L 2875 3500 
L 3609 3500 
L 1753 1863 
L 3688 0 
L 2938 0 
L 1159 1709 
L 1159 0 
L 581 0 
L 581 4863 
z
" transform="scale(0.015625)"/>
      </defs>
      <use xlink:href="#DejaVuSans-66"/>
      <use xlink:href="#DejaVuSans-6f" transform="translate(35.205078 0)"/>
      <use xlink:href="#DejaVuSans-72" transform="translate(96.386719 0)"/>
      <use xlink:href="#DejaVuSans-6b" transform="translate(137.5 0)"/>
     </g>
    </g>
   </g>
  </g>
 </g>
 <defs>
  <clipPath id="pe69eb276f1">
   <rect x="108" y="43.2" width="669.6" height="277.2"/>
  </clipPath>
 </defs>
</svg>
