<?xml version="1.0" encoding="utf-8" standalone="no"?>
<!DOCTYPE svg PUBLIC "-//W3C//DTD SVG 1.1//EN"
  "http://www.w3.org/Graphics/SVG/1.1/DTD/svg11.dtd">
<svg xmlns:xlink="http://www.w3.org/1999/xlink" width="864pt" height="360pt" viewBox="0 0 864 360" xmlns="http://www.w3.org/2000/svg" version="1.1">
 <metadata>
  <rdf:RDF xmlns:dc="http://purl.org/dc/elements/1.1/" xmlns:cc="http://creativecommons.org/ns#" xmlns:rdf="http://www.w3.org/1999/02/22-rdf-syntax-ns#">
   <cc:Work>
    <dc:type rdf:resource="http://purl.org/dc/dcmitype/StillImage"/>
    <dc:date>2024-12-30T20:30:16.801798</dc:date>
    <dc:format>image/svg+xml</dc:format>
    <dc:creator>
     <cc:Agent>
      <dc:title>Matplotlib v3.10.0, https://matplotlib.org/</dc:title>
     </cc:Agent>
    </dc:creator>
   </cc:Work>
  </rdf:RDF>
 </metadata>
 <defs>
  <style type="text/css">*{stroke-linejoin: round; stroke-linecap: butt}</style>
 </defs>
 <g id="figure_1">
  <g id="patch_1">
   <path d="M 0 360 
L 864 360 
L 864 0 
L 0 0 
L 0 360 
z
" style="fill: none; opacity: 0"/>
  </g>
  <g id="axes_1">
   <g id="patch_2">
    <path d="M 108 320.4 
L 777.6 320.4 
L 777.6 43.2 
L 108 43.2 
L 108 320.4 
z
" style="fill: none; opacity: 0"/>
   </g>
   <g id="matplotlib.axis_1">
    <g id="xtick_1">
     <g id="line2d_1">
      <path d="M 127.280406 320.4 
L 127.280406 43.2 
" clip-path="url(#pee41dba2f5)" style="fill: none; stroke-dasharray: 5.12,1.28,0.8,1.28; stroke-dashoffset: 0; stroke: #b0b0b0; stroke-width: 0.8"/>
     </g>
     <g id="line2d_2">
      <defs>
       <path id="m7a288753d3" d="M 0 0 
L 0 3.5 
" style="stroke: #a9a9a9; stroke-width: 0.8"/>
      </defs>
      <g>
       <use xlink:href="#m7a288753d3" x="127.280406" y="320.4" style="fill: #a9a9a9; stroke: #a9a9a9; stroke-width: 0.8"/>
      </g>
     </g>
     <g id="text_1">
      <!-- 2021-07 -->
      <g style="fill: #a9a9a9" transform="translate(106.388999 334.998438) scale(0.1 -0.1)">
       <defs>
        <path id="DejaVuSans-32" d="M 1228 531 
L 3431 531 
L 3431 0 
L 469 0 
L 469 531 
Q 828 903 1448 1529 
Q 2069 2156 2228 2338 
Q 2531 2678 2651 2914 
Q 2772 3150 2772 3378 
Q 2772 3750 2511 3984 
Q 2250 4219 1831 4219 
Q 1534 4219 1204 4116 
Q 875 4013 500 3803 
L 500 4441 
Q 881 4594 1212 4672 
Q 1544 4750 1819 4750 
Q 2544 4750 2975 4387 
Q 3406 4025 3406 3419 
Q 3406 3131 3298 2873 
Q 3191 2616 2906 2266 
Q 2828 2175 2409 1742 
Q 1991 1309 1228 531 
z
" transform="scale(0.015625)"/>
        <path id="DejaVuSans-30" d="M 2034 4250 
Q 1547 4250 1301 3770 
Q 1056 3291 1056 2328 
Q 1056 1369 1301 889 
Q 1547 409 2034 409 
Q 2525 409 2770 889 
Q 3016 1369 3016 2328 
Q 3016 3291 2770 3770 
Q 2525 4250 2034 4250 
z
M 2034 4750 
Q 2819 4750 3233 4129 
Q 3647 3509 3647 2328 
Q 3647 1150 3233 529 
Q 2819 -91 2034 -91 
Q 1250 -91 836 529 
Q 422 1150 422 2328 
Q 422 3509 836 4129 
Q 1250 4750 2034 4750 
z
" transform="scale(0.015625)"/>
        <path id="DejaVuSans-31" d="M 794 531 
L 1825 531 
L 1825 4091 
L 703 3866 
L 703 4441 
L 1819 4666 
L 2450 4666 
L 2450 531 
L 3481 531 
L 3481 0 
L 794 0 
L 794 531 
z
" transform="scale(0.015625)"/>
        <path id="DejaVuSans-2d" d="M 313 2009 
L 1997 2009 
L 1997 1497 
L 313 1497 
L 313 2009 
z
" transform="scale(0.015625)"/>
        <path id="DejaVuSans-37" d="M 525 4666 
L 3525 4666 
L 3525 4397 
L 1831 0 
L 1172 0 
L 2766 4134 
L 525 4134 
L 525 4666 
z
" transform="scale(0.015625)"/>
       </defs>
       <use xlink:href="#DejaVuSans-32"/>
       <use xlink:href="#DejaVuSans-30" transform="translate(63.623047 0)"/>
       <use xlink:href="#DejaVuSans-32" transform="translate(127.246094 0)"/>
       <use xlink:href="#DejaVuSans-31" transform="translate(190.869141 0)"/>
       <use xlink:href="#DejaVuSans-2d" transform="translate(254.492188 0)"/>
       <use xlink:href="#DejaVuSans-30" transform="translate(290.576172 0)"/>
       <use xlink:href="#DejaVuSans-37" transform="translate(354.199219 0)"/>
      </g>
     </g>
    </g>
    <g id="xtick_2">
     <g id="line2d_3">
      <path d="M 216.52807 320.4 
L 216.52807 43.2 
" clip-path="url(#pee41dba2f5)" style="fill: none; stroke-dasharray: 5.12,1.28,0.8,1.28; stroke-dashoffset: 0; stroke: #b0b0b0; stroke-width: 0.8"/>
     </g>
     <g id="line2d_4">
      <g>
       <use xlink:href="#m7a288753d3" x="216.52807" y="320.4" style="fill: #a9a9a9; stroke: #a9a9a9; stroke-width: 0.8"/>
      </g>
     </g>
     <g id="text_2">
      <!-- 2022-01 -->
      <g style="fill: #a9a9a9" transform="translate(195.636663 334.998438) scale(0.1 -0.1)">
       <use xlink:href="#DejaVuSans-32"/>
       <use xlink:href="#DejaVuSans-30" transform="translate(63.623047 0)"/>
       <use xlink:href="#DejaVuSans-32" transform="translate(127.246094 0)"/>
       <use xlink:href="#DejaVuSans-32" transform="translate(190.869141 0)"/>
       <use xlink:href="#DejaVuSans-2d" transform="translate(254.492188 0)"/>
       <use xlink:href="#DejaVuSans-30" transform="translate(290.576172 0)"/>
       <use xlink:href="#DejaVuSans-31" transform="translate(354.199219 0)"/>
      </g>
     </g>
    </g>
    <g id="xtick_3">
     <g id="line2d_5">
      <path d="M 304.320608 320.4 
L 304.320608 43.2 
" clip-path="url(#pee41dba2f5)" style="fill: none; stroke-dasharray: 5.12,1.28,0.8,1.28; stroke-dashoffset: 0; stroke: #b0b0b0; stroke-width: 0.8"/>
     </g>
     <g id="line2d_6">
      <g>
       <use xlink:href="#m7a288753d3" x="304.320608" y="320.4" style="fill: #a9a9a9; stroke: #a9a9a9; stroke-width: 0.8"/>
      </g>
     </g>
     <g id="text_3">
      <!-- 2022-07 -->
      <g style="fill: #a9a9a9" transform="translate(283.429202 334.998438) scale(0.1 -0.1)">
       <use xlink:href="#DejaVuSans-32"/>
       <use xlink:href="#DejaVuSans-30" transform="translate(63.623047 0)"/>
       <use xlink:href="#DejaVuSans-32" transform="translate(127.246094 0)"/>
       <use xlink:href="#DejaVuSans-32" transform="translate(190.869141 0)"/>
       <use xlink:href="#DejaVuSans-2d" transform="translate(254.492188 0)"/>
       <use xlink:href="#DejaVuSans-30" transform="translate(290.576172 0)"/>
       <use xlink:href="#DejaVuSans-37" transform="translate(354.199219 0)"/>
      </g>
     </g>
    </g>
    <g id="xtick_4">
     <g id="line2d_7">
      <path d="M 393.568272 320.4 
L 393.568272 43.2 
" clip-path="url(#pee41dba2f5)" style="fill: none; stroke-dasharray: 5.12,1.28,0.8,1.28; stroke-dashoffset: 0; stroke: #b0b0b0; stroke-width: 0.8"/>
     </g>
     <g id="line2d_8">
      <g>
       <use xlink:href="#m7a288753d3" x="393.568272" y="320.4" style="fill: #a9a9a9; stroke: #a9a9a9; stroke-width: 0.8"/>
      </g>
     </g>
     <g id="text_4">
      <!-- 2023-01 -->
      <g style="fill: #a9a9a9" transform="translate(372.676866 334.998438) scale(0.1 -0.1)">
       <defs>
        <path id="DejaVuSans-33" d="M 2597 2516 
Q 3050 2419 3304 2112 
Q 3559 1806 3559 1356 
Q 3559 666 3084 287 
Q 2609 -91 1734 -91 
Q 1441 -91 1130 -33 
Q 819 25 488 141 
L 488 750 
Q 750 597 1062 519 
Q 1375 441 1716 441 
Q 2309 441 2620 675 
Q 2931 909 2931 1356 
Q 2931 1769 2642 2001 
Q 2353 2234 1838 2234 
L 1294 2234 
L 1294 2753 
L 1863 2753 
Q 2328 2753 2575 2939 
Q 2822 3125 2822 3475 
Q 2822 3834 2567 4026 
Q 2313 4219 1838 4219 
Q 1578 4219 1281 4162 
Q 984 4106 628 3988 
L 628 4550 
Q 988 4650 1302 4700 
Q 1616 4750 1894 4750 
Q 2613 4750 3031 4423 
Q 3450 4097 3450 3541 
Q 3450 3153 3228 2886 
Q 3006 2619 2597 2516 
z
" transform="scale(0.015625)"/>
       </defs>
       <use xlink:href="#DejaVuSans-32"/>
       <use xlink:href="#DejaVuSans-30" transform="translate(63.623047 0)"/>
       <use xlink:href="#DejaVuSans-32" transform="translate(127.246094 0)"/>
       <use xlink:href="#DejaVuSans-33" transform="translate(190.869141 0)"/>
       <use xlink:href="#DejaVuSans-2d" transform="translate(254.492188 0)"/>
       <use xlink:href="#DejaVuSans-30" transform="translate(290.576172 0)"/>
       <use xlink:href="#DejaVuSans-31" transform="translate(354.199219 0)"/>
      </g>
     </g>
    </g>
    <g id="xtick_5">
     <g id="line2d_9">
      <path d="M 481.360811 320.4 
L 481.360811 43.2 
" clip-path="url(#pee41dba2f5)" style="fill: none; stroke-dasharray: 5.12,1.28,0.8,1.28; stroke-dashoffset: 0; stroke: #b0b0b0; stroke-width: 0.8"/>
     </g>
     <g id="line2d_10">
      <g>
       <use xlink:href="#m7a288753d3" x="481.360811" y="320.4" style="fill: #a9a9a9; stroke: #a9a9a9; stroke-width: 0.8"/>
      </g>
     </g>
     <g id="text_5">
      <!-- 2023-07 -->
      <g style="fill: #a9a9a9" transform="translate(460.469405 334.998438) scale(0.1 -0.1)">
       <use xlink:href="#DejaVuSans-32"/>
       <use xlink:href="#DejaVuSans-30" transform="translate(63.623047 0)"/>
       <use xlink:href="#DejaVuSans-32" transform="translate(127.246094 0)"/>
       <use xlink:href="#DejaVuSans-33" transform="translate(190.869141 0)"/>
       <use xlink:href="#DejaVuSans-2d" transform="translate(254.492188 0)"/>
       <use xlink:href="#DejaVuSans-30" transform="translate(290.576172 0)"/>
       <use xlink:href="#DejaVuSans-37" transform="translate(354.199219 0)"/>
      </g>
     </g>
    </g>
    <g id="xtick_6">
     <g id="line2d_11">
      <path d="M 570.608475 320.4 
L 570.608475 43.2 
" clip-path="url(#pee41dba2f5)" style="fill: none; stroke-dasharray: 5.12,1.28,0.8,1.28; stroke-dashoffset: 0; stroke: #b0b0b0; stroke-width: 0.8"/>
     </g>
     <g id="line2d_12">
      <g>
       <use xlink:href="#m7a288753d3" x="570.608475" y="320.4" style="fill: #a9a9a9; stroke: #a9a9a9; stroke-width: 0.8"/>
      </g>
     </g>
     <g id="text_6">
      <!-- 2024-01 -->
      <g style="fill: #a9a9a9" transform="translate(549.717069 334.998438) scale(0.1 -0.1)">
       <defs>
        <path id="DejaVuSans-34" d="M 2419 4116 
L 825 1625 
L 2419 1625 
L 2419 4116 
z
M 2253 4666 
L 3047 4666 
L 3047 1625 
L 3713 1625 
L 3713 1100 
L 3047 1100 
L 3047 0 
L 2419 0 
L 2419 1100 
L 313 1100 
L 313 1709 
L 2253 4666 
z
" transform="scale(0.015625)"/>
       </defs>
       <use xlink:href="#DejaVuSans-32"/>
       <use xlink:href="#DejaVuSans-30" transform="translate(63.623047 0)"/>
       <use xlink:href="#DejaVuSans-32" transform="translate(127.246094 0)"/>
       <use xlink:href="#DejaVuSans-34" transform="translate(190.869141 0)"/>
       <use xlink:href="#DejaVuSans-2d" transform="translate(254.492188 0)"/>
       <use xlink:href="#DejaVuSans-30" transform="translate(290.576172 0)"/>
       <use xlink:href="#DejaVuSans-31" transform="translate(354.199219 0)"/>
      </g>
     </g>
    </g>
    <g id="xtick_7">
     <g id="line2d_13">
      <path d="M 658.886056 320.4 
L 658.886056 43.2 
" clip-path="url(#pee41dba2f5)" style="fill: none; stroke-dasharray: 5.12,1.28,0.8,1.28; stroke-dashoffset: 0; stroke: #b0b0b0; stroke-width: 0.8"/>
     </g>
     <g id="line2d_14">
      <g>
       <use xlink:href="#m7a288753d3" x="658.886056" y="320.4" style="fill: #a9a9a9; stroke: #a9a9a9; stroke-width: 0.8"/>
      </g>
     </g>
     <g id="text_7">
      <!-- 2024-07 -->
      <g style="fill: #a9a9a9" transform="translate(637.99465 334.998438) scale(0.1 -0.1)">
       <use xlink:href="#DejaVuSans-32"/>
       <use xlink:href="#DejaVuSans-30" transform="translate(63.623047 0)"/>
       <use xlink:href="#DejaVuSans-32" transform="translate(127.246094 0)"/>
       <use xlink:href="#DejaVuSans-34" transform="translate(190.869141 0)"/>
       <use xlink:href="#DejaVuSans-2d" transform="translate(254.492188 0)"/>
       <use xlink:href="#DejaVuSans-30" transform="translate(290.576172 0)"/>
       <use xlink:href="#DejaVuSans-37" transform="translate(354.199219 0)"/>
      </g>
     </g>
    </g>
    <g id="xtick_8">
     <g id="line2d_15">
      <path d="M 748.13372 320.4 
L 748.13372 43.2 
" clip-path="url(#pee41dba2f5)" style="fill: none; stroke-dasharray: 5.12,1.28,0.8,1.28; stroke-dashoffset: 0; stroke: #b0b0b0; stroke-width: 0.8"/>
     </g>
     <g id="line2d_16">
      <g>
       <use xlink:href="#m7a288753d3" x="748.13372" y="320.4" style="fill: #a9a9a9; stroke: #a9a9a9; stroke-width: 0.8"/>
      </g>
     </g>
     <g id="text_8">
      <!-- 2025-01 -->
      <g style="fill: #a9a9a9" transform="translate(727.242313 334.998438) scale(0.1 -0.1)">
       <defs>
        <path id="DejaVuSans-35" d="M 691 4666 
L 3169 4666 
L 3169 4134 
L 1269 4134 
L 1269 2991 
Q 1406 3038 1543 3061 
Q 1681 3084 1819 3084 
Q 2600 3084 3056 2656 
Q 3513 2228 3513 1497 
Q 3513 744 3044 326 
Q 2575 -91 1722 -91 
Q 1428 -91 1123 -41 
Q 819 9 494 109 
L 494 744 
Q 775 591 1075 516 
Q 1375 441 1709 441 
Q 2250 441 2565 725 
Q 2881 1009 2881 1497 
Q 2881 1984 2565 2268 
Q 2250 2553 1709 2553 
Q 1456 2553 1204 2497 
Q 953 2441 691 2322 
L 691 4666 
z
" transform="scale(0.015625)"/>
       </defs>
       <use xlink:href="#DejaVuSans-32"/>
       <use xlink:href="#DejaVuSans-30" transform="translate(63.623047 0)"/>
       <use xlink:href="#DejaVuSans-32" transform="translate(127.246094 0)"/>
       <use xlink:href="#DejaVuSans-35" transform="translate(190.869141 0)"/>
       <use xlink:href="#DejaVuSans-2d" transform="translate(254.492188 0)"/>
       <use xlink:href="#DejaVuSans-30" transform="translate(290.576172 0)"/>
       <use xlink:href="#DejaVuSans-31" transform="translate(354.199219 0)"/>
      </g>
     </g>
    </g>
   </g>
   <g id="matplotlib.axis_2">
    <g id="ytick_1">
     <g id="line2d_17">
      <path d="M 108 307.835235 
L 777.6 307.835235 
" clip-path="url(#pee41dba2f5)" style="fill: none; stroke-dasharray: 5.12,1.28,0.8,1.28; stroke-dashoffset: 0; stroke: #b0b0b0; stroke-width: 0.8"/>
     </g>
     <g id="line2d_18">
      <defs>
       <path id="mb458512a13" d="M 0 0 
L -3.5 0 
" style="stroke: #a9a9a9; stroke-width: 0.8"/>
      </defs>
      <g>
       <use xlink:href="#mb458512a13" x="108" y="307.835235" style="fill: #a9a9a9; stroke: #a9a9a9; stroke-width: 0.8"/>
      </g>
     </g>
     <g id="text_9">
      <!-- 0 -->
      <g style="fill: #a9a9a9" transform="translate(94.6375 311.634454) scale(0.1 -0.1)">
       <use xlink:href="#DejaVuSans-30"/>
      </g>
     </g>
    </g>
    <g id="ytick_2">
     <g id="line2d_19">
      <path d="M 108 279.647315 
L 777.6 279.647315 
" clip-path="url(#pee41dba2f5)" style="fill: none; stroke-dasharray: 5.12,1.28,0.8,1.28; stroke-dashoffset: 0; stroke: #b0b0b0; stroke-width: 0.8"/>
     </g>
     <g id="line2d_20">
      <g>
       <use xlink:href="#mb458512a13" x="108" y="279.647315" style="fill: #a9a9a9; stroke: #a9a9a9; stroke-width: 0.8"/>
      </g>
     </g>
     <g id="text_10">
      <!-- 800 -->
      <g style="fill: #a9a9a9" transform="translate(81.9125 283.446534) scale(0.1 -0.1)">
       <defs>
        <path id="DejaVuSans-38" d="M 2034 2216 
Q 1584 2216 1326 1975 
Q 1069 1734 1069 1313 
Q 1069 891 1326 650 
Q 1584 409 2034 409 
Q 2484 409 2743 651 
Q 3003 894 3003 1313 
Q 3003 1734 2745 1975 
Q 2488 2216 2034 2216 
z
M 1403 2484 
Q 997 2584 770 2862 
Q 544 3141 544 3541 
Q 544 4100 942 4425 
Q 1341 4750 2034 4750 
Q 2731 4750 3128 4425 
Q 3525 4100 3525 3541 
Q 3525 3141 3298 2862 
Q 3072 2584 2669 2484 
Q 3125 2378 3379 2068 
Q 3634 1759 3634 1313 
Q 3634 634 3220 271 
Q 2806 -91 2034 -91 
Q 1263 -91 848 271 
Q 434 634 434 1313 
Q 434 1759 690 2068 
Q 947 2378 1403 2484 
z
M 1172 3481 
Q 1172 3119 1398 2916 
Q 1625 2713 2034 2713 
Q 2441 2713 2670 2916 
Q 2900 3119 2900 3481 
Q 2900 3844 2670 4047 
Q 2441 4250 2034 4250 
Q 1625 4250 1398 4047 
Q 1172 3844 1172 3481 
z
" transform="scale(0.015625)"/>
       </defs>
       <use xlink:href="#DejaVuSans-38"/>
       <use xlink:href="#DejaVuSans-30" transform="translate(63.623047 0)"/>
       <use xlink:href="#DejaVuSans-30" transform="translate(127.246094 0)"/>
      </g>
     </g>
    </g>
    <g id="ytick_3">
     <g id="line2d_21">
      <path d="M 108 251.459396 
L 777.6 251.459396 
" clip-path="url(#pee41dba2f5)" style="fill: none; stroke-dasharray: 5.12,1.28,0.8,1.28; stroke-dashoffset: 0; stroke: #b0b0b0; stroke-width: 0.8"/>
     </g>
     <g id="line2d_22">
      <g>
       <use xlink:href="#mb458512a13" x="108" y="251.459396" style="fill: #a9a9a9; stroke: #a9a9a9; stroke-width: 0.8"/>
      </g>
     </g>
     <g id="text_11">
      <!-- 1600 -->
      <g style="fill: #a9a9a9" transform="translate(75.55 255.258615) scale(0.1 -0.1)">
       <defs>
        <path id="DejaVuSans-36" d="M 2113 2584 
Q 1688 2584 1439 2293 
Q 1191 2003 1191 1497 
Q 1191 994 1439 701 
Q 1688 409 2113 409 
Q 2538 409 2786 701 
Q 3034 994 3034 1497 
Q 3034 2003 2786 2293 
Q 2538 2584 2113 2584 
z
M 3366 4563 
L 3366 3988 
Q 3128 4100 2886 4159 
Q 2644 4219 2406 4219 
Q 1781 4219 1451 3797 
Q 1122 3375 1075 2522 
Q 1259 2794 1537 2939 
Q 1816 3084 2150 3084 
Q 2853 3084 3261 2657 
Q 3669 2231 3669 1497 
Q 3669 778 3244 343 
Q 2819 -91 2113 -91 
Q 1303 -91 875 529 
Q 447 1150 447 2328 
Q 447 3434 972 4092 
Q 1497 4750 2381 4750 
Q 2619 4750 2861 4703 
Q 3103 4656 3366 4563 
z
" transform="scale(0.015625)"/>
       </defs>
       <use xlink:href="#DejaVuSans-31"/>
       <use xlink:href="#DejaVuSans-36" transform="translate(63.623047 0)"/>
       <use xlink:href="#DejaVuSans-30" transform="translate(127.246094 0)"/>
       <use xlink:href="#DejaVuSans-30" transform="translate(190.869141 0)"/>
      </g>
     </g>
    </g>
    <g id="ytick_4">
     <g id="line2d_23">
      <path d="M 108 223.271477 
L 777.6 223.271477 
" clip-path="url(#pee41dba2f5)" style="fill: none; stroke-dasharray: 5.12,1.28,0.8,1.28; stroke-dashoffset: 0; stroke: #b0b0b0; stroke-width: 0.8"/>
     </g>
     <g id="line2d_24">
      <g>
       <use xlink:href="#mb458512a13" x="108" y="223.271477" style="fill: #a9a9a9; stroke: #a9a9a9; stroke-width: 0.8"/>
      </g>
     </g>
     <g id="text_12">
      <!-- 2400 -->
      <g style="fill: #a9a9a9" transform="translate(75.55 227.070695) scale(0.1 -0.1)">
       <use xlink:href="#DejaVuSans-32"/>
       <use xlink:href="#DejaVuSans-34" transform="translate(63.623047 0)"/>
       <use xlink:href="#DejaVuSans-30" transform="translate(127.246094 0)"/>
       <use xlink:href="#DejaVuSans-30" transform="translate(190.869141 0)"/>
      </g>
     </g>
    </g>
    <g id="ytick_5">
     <g id="line2d_25">
      <path d="M 108 195.083557 
L 777.6 195.083557 
" clip-path="url(#pee41dba2f5)" style="fill: none; stroke-dasharray: 5.12,1.28,0.8,1.28; stroke-dashoffset: 0; stroke: #b0b0b0; stroke-width: 0.8"/>
     </g>
     <g id="line2d_26">
      <g>
       <use xlink:href="#mb458512a13" x="108" y="195.083557" style="fill: #a9a9a9; stroke: #a9a9a9; stroke-width: 0.8"/>
      </g>
     </g>
     <g id="text_13">
      <!-- 3200 -->
      <g style="fill: #a9a9a9" transform="translate(75.55 198.882776) scale(0.1 -0.1)">
       <use xlink:href="#DejaVuSans-33"/>
       <use xlink:href="#DejaVuSans-32" transform="translate(63.623047 0)"/>
       <use xlink:href="#DejaVuSans-30" transform="translate(127.246094 0)"/>
       <use xlink:href="#DejaVuSans-30" transform="translate(190.869141 0)"/>
      </g>
     </g>
    </g>
    <g id="ytick_6">
     <g id="line2d_27">
      <path d="M 108 166.895638 
L 777.6 166.895638 
" clip-path="url(#pee41dba2f5)" style="fill: none; stroke-dasharray: 5.12,1.28,0.8,1.28; stroke-dashoffset: 0; stroke: #b0b0b0; stroke-width: 0.8"/>
     </g>
     <g id="line2d_28">
      <g>
       <use xlink:href="#mb458512a13" x="108" y="166.895638" style="fill: #a9a9a9; stroke: #a9a9a9; stroke-width: 0.8"/>
      </g>
     </g>
     <g id="text_14">
      <!-- 4000 -->
      <g style="fill: #a9a9a9" transform="translate(75.55 170.694856) scale(0.1 -0.1)">
       <use xlink:href="#DejaVuSans-34"/>
       <use xlink:href="#DejaVuSans-30" transform="translate(63.623047 0)"/>
       <use xlink:href="#DejaVuSans-30" transform="translate(127.246094 0)"/>
       <use xlink:href="#DejaVuSans-30" transform="translate(190.869141 0)"/>
      </g>
     </g>
    </g>
    <g id="ytick_7">
     <g id="line2d_29">
      <path d="M 108 138.707718 
L 777.6 138.707718 
" clip-path="url(#pee41dba2f5)" style="fill: none; stroke-dasharray: 5.12,1.28,0.8,1.28; stroke-dashoffset: 0; stroke: #b0b0b0; stroke-width: 0.8"/>
     </g>
     <g id="line2d_30">
      <g>
       <use xlink:href="#mb458512a13" x="108" y="138.707718" style="fill: #a9a9a9; stroke: #a9a9a9; stroke-width: 0.8"/>
      </g>
     </g>
     <g id="text_15">
      <!-- 4800 -->
      <g style="fill: #a9a9a9" transform="translate(75.55 142.506937) scale(0.1 -0.1)">
       <use xlink:href="#DejaVuSans-34"/>
       <use xlink:href="#DejaVuSans-38" transform="translate(63.623047 0)"/>
       <use xlink:href="#DejaVuSans-30" transform="translate(127.246094 0)"/>
       <use xlink:href="#DejaVuSans-30" transform="translate(190.869141 0)"/>
      </g>
     </g>
    </g>
    <g id="ytick_8">
     <g id="line2d_31">
      <path d="M 108 110.519799 
L 777.6 110.519799 
" clip-path="url(#pee41dba2f5)" style="fill: none; stroke-dasharray: 5.12,1.28,0.8,1.28; stroke-dashoffset: 0; stroke: #b0b0b0; stroke-width: 0.8"/>
     </g>
     <g id="line2d_32">
      <g>
       <use xlink:href="#mb458512a13" x="108" y="110.519799" style="fill: #a9a9a9; stroke: #a9a9a9; stroke-width: 0.8"/>
      </g>
     </g>
     <g id="text_16">
      <!-- 5600 -->
      <g style="fill: #a9a9a9" transform="translate(75.55 114.319017) scale(0.1 -0.1)">
       <use xlink:href="#DejaVuSans-35"/>
       <use xlink:href="#DejaVuSans-36" transform="translate(63.623047 0)"/>
       <use xlink:href="#DejaVuSans-30" transform="translate(127.246094 0)"/>
       <use xlink:href="#DejaVuSans-30" transform="translate(190.869141 0)"/>
      </g>
     </g>
    </g>
    <g id="ytick_9">
     <g id="line2d_33">
      <path d="M 108 82.331879 
L 777.6 82.331879 
" clip-path="url(#pee41dba2f5)" style="fill: none; stroke-dasharray: 5.12,1.28,0.8,1.28; stroke-dashoffset: 0; stroke: #b0b0b0; stroke-width: 0.8"/>
     </g>
     <g id="line2d_34">
      <g>
       <use xlink:href="#mb458512a13" x="108" y="82.331879" style="fill: #a9a9a9; stroke: #a9a9a9; stroke-width: 0.8"/>
      </g>
     </g>
     <g id="text_17">
      <!-- 6400 -->
      <g style="fill: #a9a9a9" transform="translate(75.55 86.131098) scale(0.1 -0.1)">
       <use xlink:href="#DejaVuSans-36"/>
       <use xlink:href="#DejaVuSans-34" transform="translate(63.623047 0)"/>
       <use xlink:href="#DejaVuSans-30" transform="translate(127.246094 0)"/>
       <use xlink:href="#DejaVuSans-30" transform="translate(190.869141 0)"/>
      </g>
     </g>
    </g>
    <g id="ytick_10">
     <g id="line2d_35">
      <path d="M 108 54.14396 
L 777.6 54.14396 
" clip-path="url(#pee41dba2f5)" style="fill: none; stroke-dasharray: 5.12,1.28,0.8,1.28; stroke-dashoffset: 0; stroke: #b0b0b0; stroke-width: 0.8"/>
     </g>
     <g id="line2d_36">
      <g>
       <use xlink:href="#mb458512a13" x="108" y="54.14396" style="fill: #a9a9a9; stroke: #a9a9a9; stroke-width: 0.8"/>
      </g>
     </g>
     <g id="text_18">
      <!-- 7200 -->
      <g style="fill: #a9a9a9" transform="translate(75.55 57.943178) scale(0.1 -0.1)">
       <use xlink:href="#DejaVuSans-37"/>
       <use xlink:href="#DejaVuSans-32" transform="translate(63.623047 0)"/>
       <use xlink:href="#DejaVuSans-30" transform="translate(127.246094 0)"/>
       <use xlink:href="#DejaVuSans-30" transform="translate(190.869141 0)"/>
      </g>
     </g>
    </g>
   </g>
   <g id="line2d_37">
    <path d="M 138.436364 307.72953 
L 141.346614 307.482886 
L 141.831655 307.271477 
L 143.771822 307.024832 
L 145.711988 306.637248 
L 146.682072 306.496309 
L 149.10728 306.284899 
L 150.077363 305.897315 
L 150.562405 305.263087 
L 151.047447 304.910738 
L 151.532488 303.818456 
L 152.01753 303.747987 
L 152.502572 303.360403 
L 153.472655 302.867114 
L 155.412821 301.316779 
L 157.352988 300.365436 
L 158.808113 299.695973 
L 159.293155 298.920805 
L 160.263238 298.216107 
L 160.74828 298.004698 
L 165.598696 297.3 
L 166.083738 297.088591 
L 169.479029 296.806711 
L 171.419196 296.348658 
L 175.299529 295.820134 
L 175.784571 295.57349 
L 176.269612 295.50302 
L 177.239696 295.185906 
L 180.634987 294.622148 
L 181.605071 294.340268 
L 185.970445 293.600336 
L 186.940529 293.388926 
L 187.910612 293.353691 
L 189.850779 292.895638 
L 190.33582 292.226174 
L 191.790945 291.662416 
L 193.24607 291.274832 
L 193.731112 291.028188 
L 194.701195 290.852013 
L 196.641362 290.288255 
L 197.611445 290.217785 
L 198.581528 289.971141 
L 200.521695 289.477852 
L 201.006737 289.442617 
L 201.97682 288.984564 
L 202.461862 288.914094 
L 202.946903 288.66745 
L 208.282361 287.786577 
L 210.222528 287.222819 
L 210.70757 286.905705 
L 213.132778 286.095302 
L 214.102861 285.425839 
L 215.557986 285.14396 
L 228.169069 281.585235 
L 228.654111 281.585235 
L 229.139152 281.373826 
L 230.109236 281.268121 
L 230.594277 281.091946 
L 232.534444 280.986242 
L 233.504527 280.810067 
L 234.474611 280.316779 
L 235.929736 279.788255 
L 236.414777 279.471141 
L 237.384861 279.048322 
L 237.869902 278.801678 
L 238.839986 278.484564 
L 239.325027 278.343624 
L 240.29511 277.744631 
L 240.780152 277.216107 
L 241.750235 275.736242 
L 242.235277 275.595302 
L 242.720319 275.595302 
L 244.175444 274.749664 
L 244.660485 274.50302 
L 245.145527 274.397315 
L 245.630569 273.939262 
L 246.600652 273.551678 
L 247.570735 273.093624 
L 249.995943 270.028188 
L 252.906193 268.477852 
L 253.876277 267.702685 
L 254.361318 267.38557 
L 254.84636 266.680872 
L 255.331402 265.588591 
L 255.816443 264.848658 
L 256.301485 264.461074 
L 256.786527 264.249664 
L 260.66686 260.726174 
L 261.636943 259.845302 
L 264.547193 258.048322 
L 265.517276 257.519799 
L 267.457443 256.497987 
L 269.882651 254.313423 
L 270.852735 253.925839 
L 271.822818 253.256376 
L 272.307859 252.974497 
L 272.792901 252.904027 
L 274.248026 252.093624 
L 274.733068 251.565101 
L 277.158276 250.261409 
L 277.643318 250.085235 
L 279.098443 249.098658 
L 286.374067 246.52651 
L 287.344151 245.645638 
L 288.314234 245.187584 
L 289.284317 244.65906 
L 289.769359 244.377181 
L 290.739442 244.095302 
L 291.224484 243.778188 
L 291.709526 243.637248 
L 293.16465 242.685906 
L 295.589859 242.122148 
L 297.044984 241.27651 
L 298.500109 240.959396 
L 298.98515 240.818456 
L 300.440275 239.726174 
L 302.380442 239.197651 
L 302.865484 238.810067 
L 305.775733 237.82349 
L 306.745817 237.647315 
L 307.7159 237.259732 
L 311.111192 236.02651 
L 312.081275 235.88557 
L 313.5364 235.392282 
L 315.961608 234.22953 
L 317.901775 233.172483 
L 321.782108 231.586913 
L 322.26715 231.516443 
L 323.237233 230.91745 
L 323.722275 230.84698 
L 325.662441 230.071812 
L 327.602608 229.825168 
L 328.572691 229.331879 
L 329.057733 228.90906 
L 329.542774 228.028188 
L 331.482941 227.499664 
L 332.938066 226.759732 
L 333.423108 226.654027 
L 337.303441 224.786577 
L 338.758566 224.504698 
L 339.728649 224.011409 
L 340.213691 223.8 
L 340.698732 223.72953 
L 342.638899 222.848658 
L 344.094024 221.93255 
L 345.549149 221.650671 
L 347.974357 221.051678 
L 348.459399 220.664094 
L 349.914524 220.13557 
L 351.85469 219.360403 
L 352.339732 219.008054 
L 352.824774 218.831879 
L 353.794857 218.303356 
L 356.220065 217.492953 
L 357.67519 216.330201 
L 358.160232 216.224497 
L 359.130315 215.449329 
L 359.615357 215.378859 
L 360.100398 214.603691 
L 360.58544 214.392282 
L 361.070482 214.004698 
L 361.555523 213.934228 
L 362.525607 213.335235 
L 363.49569 213.018121 
L 363.980732 212.665772 
L 364.465773 212.489597 
L 365.920898 211.467785 
L 367.861065 210.445973 
L 368.346106 210.375503 
L 369.801231 209.63557 
L 370.286273 208.825168 
L 371.256356 208.12047 
L 371.741398 208.014765 
L 372.711481 207.415772 
L 373.196523 207.310067 
L 374.166606 206.816779 
L 376.106773 205.865436 
L 376.591815 205.513087 
L 377.561898 204.561745 
L 378.531981 203.962752 
L 379.017023 203.645638 
L 379.502064 203.117114 
L 381.442231 201.778188 
L 381.927273 201.21443 
L 382.412314 200.826846 
L 383.382398 200.474497 
L 384.352481 199.805034 
L 385.807606 199.065101 
L 386.292648 198.994631 
L 387.747773 198.219463 
L 388.717856 197.62047 
L 393.568272 195.858725 
L 394.053314 195.471141 
L 395.993481 194.731208 
L 396.478522 194.590268 
L 397.448606 193.95604 
L 398.418689 193.533221 
L 399.388772 192.863758 
L 400.358855 190.925839 
L 401.328939 189.798322 
L 402.784064 189.058389 
L 403.754147 188.670805 
L 404.239189 188.600336 
L 404.72423 188.318456 
L 407.149439 187.543289 
L 407.63448 187.331879 
L 408.604564 186.662416 
L 410.059689 186.028188 
L 411.029772 185.499664 
L 411.514813 185.147315 
L 411.999855 184.935906 
L 412.484897 184.583557 
L 412.969938 184.055034 
L 413.940022 183.52651 
L 416.36523 182.222819 
L 419.27548 180.778188 
L 420.730605 180.355369 
L 422.18573 179.791611 
L 422.670771 179.439262 
L 423.640855 179.157383 
L 424.610938 178.769799 
L 425.09598 178.382215 
L 427.036146 177.712752 
L 428.00623 177.008054 
L 428.976313 176.585235 
L 429.946396 175.810067 
L 430.91648 175.457718 
L 431.401521 175.034899 
L 431.886563 174.96443 
L 432.856646 174.224497 
L 433.826729 173.731208 
L 434.311771 173.519799 
L 434.796813 173.02651 
L 438.192104 171.687584 
L 439.162188 171.264765 
L 440.617313 170.806711 
L 441.587396 170.665772 
L 442.072438 170.454362 
L 442.557479 170.383893 
L 443.527562 169.961074 
L 444.012604 169.925839 
L 445.952771 169.185906 
L 447.407896 168.164094 
L 447.892937 167.987919 
L 448.863021 167.459396 
L 449.348062 167.318456 
L 452.258312 165.697651 
L 452.743354 165.591946 
L 454.198479 164.746309 
L 455.653604 164.25302 
L 456.623687 163.935906 
L 458.563854 163.301678 
L 459.533937 162.984564 
L 461.474104 162.59698 
L 461.959145 162.38557 
L 462.444187 162.315101 
L 463.41427 161.892282 
L 463.899312 161.821812 
L 464.384353 161.575168 
L 465.354437 161.398993 
L 466.809562 160.87047 
L 467.779645 160.764765 
L 469.23477 160.447651 
L 471.659978 160.024832 
L 484.271061 156.360403 
L 484.756103 155.867114 
L 485.726186 155.47953 
L 489.606519 154.034899 
L 490.091561 153.75302 
L 491.546686 153.330201 
L 492.516769 153.083557 
L 493.001811 152.766443 
L 493.486853 152.660738 
L 493.971894 152.237919 
L 495.427019 151.95604 
L 496.397102 151.497987 
L 496.882144 150.934228 
L 498.822311 150.476174 
L 502.217602 149.771477 
L 502.702644 149.771477 
L 503.187686 149.560067 
L 505.127852 149.207718 
L 505.612894 148.996309 
L 507.55306 148.64396 
L 508.523144 148.221141 
L 509.493227 148.044966 
L 511.918435 147.445973 
L 513.858602 146.84698 
L 514.343644 146.741275 
L 514.828685 146.494631 
L 515.798769 146.247987 
L 516.28381 145.966107 
L 517.738935 145.472819 
L 518.223977 145.155705 
L 519.19406 144.873826 
L 523.074393 143.534899 
L 524.044477 143.46443 
L 525.984643 142.900671 
L 526.469685 142.618792 
L 527.439768 142.336913 
L 529.864976 141.244631 
L 530.350018 141.209396 
L 535.685476 139.341946 
L 538.110685 138.707718 
L 539.080768 138.249664 
L 540.535893 137.93255 
L 542.476059 136.34698 
L 543.446143 136.065101 
L 543.931184 135.677517 
L 546.841434 134.585235 
L 547.326476 134.268121 
L 548.296559 133.986242 
L 548.781601 133.669128 
L 551.206809 132.89396 
L 552.661934 132.048322 
L 553.146976 131.942617 
L 555.572184 130.638926 
L 557.027309 130.004698 
L 557.512351 129.652349 
L 558.482434 129.335235 
L 559.452517 128.771477 
L 559.937559 128.595302 
L 560.422601 128.242953 
L 566.728142 126.023154 
L 567.213184 125.91745 
L 567.698225 125.600336 
L 569.638392 125.212752 
L 570.608475 124.825168 
L 573.518725 123.415772 
L 574.003767 123.345302 
L 575.458892 122.534899 
L 576.914017 122.041611 
L 580.309308 120.66745 
L 580.79435 120.52651 
L 581.279392 120.209396 
L 582.249475 120.103691 
L 582.734516 119.786577 
L 583.7046 119.610403 
L 584.674683 119.152349 
L 585.159725 118.94094 
L 585.644766 118.87047 
L 588.069975 117.919128 
L 589.5251 117.531544 
L 590.495183 117.284899 
L 591.950308 116.862081 
L 592.920391 116.474497 
L 594.860558 115.41745 
L 595.830641 115.029866 
L 596.315683 114.712752 
L 597.285766 114.501342 
L 597.770808 114.219463 
L 598.255849 114.113758 
L 599.710974 113.303356 
L 600.681058 112.915772 
L 602.621224 112.175839 
L 605.046432 111.365436 
L 606.016516 110.872148 
L 608.441724 110.061745 
L 611.351974 108.898993 
L 613.292141 108.018121 
L 618.142557 106.150671 
L 618.627599 105.833557 
L 620.567765 105.164094 
L 621.052807 105.164094 
L 622.02289 104.741275 
L 623.963057 103.19094 
L 624.448099 103.05 
L 624.93314 102.732886 
L 625.418182 102.627181 
L 625.903223 102.380537 
L 626.388265 102.310067 
L 626.873307 101.957718 
L 627.358348 101.852013 
L 628.328432 101.25302 
L 629.783557 100.513087 
L 630.75364 100.125503 
L 631.238682 99.878859 
L 632.693807 99.561745 
L 635.119015 98.751342 
L 636.089098 98.434228 
L 637.544223 97.694295 
L 638.514306 97.236242 
L 639.48439 96.989597 
L 640.939515 96.320134 
L 645.30489 94.734564 
L 646.760014 93.853691 
L 647.245056 93.747987 
L 648.215139 93.289933 
L 649.185223 92.937584 
L 649.670264 92.514765 
L 650.640348 92.127181 
L 653.550598 90.96443 
L 655.005723 90.541611 
L 655.490764 90.294966 
L 655.975806 90.224497 
L 657.430931 89.695973 
L 658.886056 89.16745 
L 659.856139 88.779866 
L 660.341181 88.392282 
L 661.796306 88.004698 
L 662.281347 87.722819 
L 663.251431 87.476174 
L 664.706556 86.665772 
L 665.191597 86.630537 
L 666.646722 86.172483 
L 667.616806 86.102013 
L 668.586889 85.71443 
L 671.497139 84.868792 
L 672.467222 84.833557 
L 676.347555 83.600336 
L 677.317639 83.071812 
L 677.80268 82.648993 
L 679.257805 81.803356 
L 679.742847 81.451007 
L 680.71293 81.098658 
L 683.138138 80.32349 
L 683.62318 79.935906 
L 686.53343 78.737919 
L 688.473597 78.209396 
L 689.44368 77.786577 
L 689.928721 77.539933 
L 690.898805 77.258054 
L 691.383846 76.976174 
L 692.35393 76.8 
L 694.779138 75.672483 
L 695.26418 75.390604 
L 696.719305 75.038255 
L 697.204346 74.721141 
L 697.689388 74.544966 
L 698.17443 74.122148 
L 698.659471 74.051678 
L 700.599638 73.27651 
L 702.539804 72.818456 
L 703.024846 72.747987 
L 703.509888 72.536577 
L 703.994929 72.501342 
L 704.965013 72.184228 
L 705.450054 72.148993 
L 706.905179 71.585235 
L 708.845346 71.021477 
L 709.815429 70.281544 
L 711.755596 69.224497 
L 713.210721 68.731208 
L 716.120971 67.427517 
L 717.091054 66.898993 
L 717.576096 66.652349 
L 718.061137 66.194295 
L 720.971387 65.242953 
L 721.94147 64.855369 
L 722.911554 64.57349 
L 723.396595 64.326846 
L 723.881637 63.904027 
L 725.821804 63.410738 
L 726.306845 63.058389 
L 732.612387 60.768121 
L 733.58247 60.591946 
L 737.947845 59.076846 
L 738.917928 58.830201 
L 739.40297 58.618792 
L 739.888012 58.583557 
L 740.858095 58.195973 
L 741.828178 57.59698 
L 742.31322 57.420805 
L 742.798261 57.38557 
L 744.253386 56.751342 
L 745.708511 56.222819 
L 746.193553 56.152349 
L 746.678595 55.905705 
L 747.163636 55.8 
L 747.163636 55.8 
" clip-path="url(#pee41dba2f5)" style="fill: none; stroke: #1f77b4; stroke-width: 1.5; stroke-linecap: square"/>
   </g>
   <g id="line2d_38">
    <path d="M 138.921405 307.8 
L 143.28678 307.694295 
L 147.167113 307.518121 
L 149.10728 307.518121 
L 149.592322 307.377181 
L 152.01753 307.271477 
L 154.92778 306.954362 
L 157.83803 306.848658 
L 158.808113 306.742953 
L 162.203405 306.602013 
L 165.598696 306.496309 
L 168.023904 306.425839 
L 174.329446 306.320134 
L 176.754654 306.249664 
L 180.149946 306.14396 
L 182.575154 306.07349 
L 187.910612 305.967785 
L 189.850779 305.791611 
L 191.790945 305.756376 
L 194.701195 305.650671 
L 196.641362 305.615436 
L 199.06657 305.544966 
L 201.006737 305.368792 
L 205.372112 305.263087 
L 206.342195 305.192617 
L 208.282361 305.086913 
L 211.192611 304.981208 
L 213.132778 304.875503 
L 221.863528 304.34698 
L 225.258819 304.241275 
L 226.713944 304.100336 
L 229.139152 303.994631 
L 233.989569 303.747987 
L 238.839986 303.677517 
L 240.780152 303.466107 
L 242.720319 303.360403 
L 248.055777 302.867114 
L 251.451068 302.47953 
L 252.906193 302.40906 
L 256.786527 301.915772 
L 259.696777 301.845302 
L 261.151901 301.704362 
L 262.607026 301.598658 
L 276.188193 300.576846 
L 277.158276 300.400671 
L 280.068526 300.294966 
L 287.829192 299.836913 
L 291.224484 299.731208 
L 293.16465 299.519799 
L 295.589859 299.414094 
L 298.500109 299.308389 
L 300.925317 299.202685 
L 302.865484 299.16745 
L 305.290692 299.09698 
L 306.260775 298.95604 
L 313.051358 298.850336 
L 314.021442 298.744631 
L 319.841941 298.638926 
L 324.207316 298.427517 
L 327.602608 298.321812 
L 329.542774 298.110403 
L 332.938066 298.004698 
L 333.908149 297.828523 
L 336.333357 297.758054 
L 341.183774 297.687584 
L 343.123941 297.511409 
L 345.064107 297.476174 
L 346.519232 297.37047 
L 348.459399 297.194295 
L 353.309815 296.947651 
L 358.160232 296.841946 
L 362.525607 296.630537 
L 363.980732 296.595302 
L 364.950815 296.454362 
L 367.376023 296.348658 
L 368.346106 296.278188 
L 369.31619 296.207718 
L 370.286273 296.137248 
L 374.651648 296.066779 
L 376.106773 295.961074 
L 389.202898 295.115436 
L 391.628106 295.009732 
L 394.053314 294.939262 
L 400.843897 294.833557 
L 401.81398 294.692617 
L 408.604564 294.586913 
L 413.45498 294.340268 
L 414.425063 294.305034 
L 415.395147 294.199329 
L 417.820355 294.093624 
L 420.245563 294.023154 
L 422.670771 293.91745 
L 425.09598 293.84698 
L 429.461355 293.741275 
L 432.371604 293.63557 
L 439.162188 293.529866 
L 444.497646 293.247987 
L 446.437812 293.177517 
L 447.892937 293.071812 
L 454.68352 292.966107 
L 457.59377 292.860403 
L 466.32452 292.754698 
L 468.264687 292.719463 
L 474.085187 292.648993 
L 475.05527 292.578523 
L 481.845853 292.472819 
L 483.78602 292.437584 
L 496.397102 292.331879 
L 497.852227 292.19094 
L 519.679102 292.085235 
L 522.10431 292.014765 
L 534.715393 291.90906 
L 535.685476 291.838591 
L 538.110685 291.768121 
L 539.565809 291.627181 
L 542.476059 291.521477 
L 545.871351 291.380537 
L 550.236726 291.274832 
L 552.661934 291.204362 
L 556.057226 291.098658 
L 559.937559 290.922483 
L 562.362767 290.816779 
L 564.302934 290.781544 
L 568.668309 290.675839 
L 570.608475 290.640604 
L 576.914017 290.534899 
L 578.854183 290.499664 
L 581.279392 290.39396 
L 584.189641 290.288255 
L 587.584933 290.217785 
L 588.555016 290.147315 
L 600.196016 290.041611 
L 606.501557 289.689262 
L 608.926766 289.618792 
L 609.896849 289.513087 
L 610.866932 289.442617 
L 614.747265 289.336913 
L 617.657515 289.231208 
L 622.507932 289.125503 
L 624.93314 288.878859 
L 629.783557 288.773154 
L 630.75364 288.66745 
L 635.604057 288.561745 
L 638.029265 288.491275 
L 643.364723 288.45604 
L 644.334806 288.350336 
L 649.670264 288.244631 
L 650.640348 288.174161 
L 661.311264 288.068456 
L 664.221514 287.962752 
L 671.497139 287.857047 
L 673.437305 287.821812 
L 677.80268 287.751342 
L 678.772763 287.645638 
L 685.078305 287.539933 
L 687.503513 287.469463 
L 696.234263 287.363758 
L 697.689388 287.258054 
L 699.144513 287.152349 
L 700.599638 287.046644 
L 707.875263 286.94094 
L 710.785512 286.835235 
L 723.881637 286.72953 
L 728.247012 286.518121 
L 734.067512 286.412416 
L 735.037595 286.306711 
L 742.31322 286.236242 
L 743.283303 286.165772 
L 747.163636 286.095302 
L 747.163636 286.095302 
" clip-path="url(#pee41dba2f5)" style="fill: none; stroke: #ff7f0e; stroke-width: 1.5; stroke-linecap: square"/>
   </g>
   <g id="patch_3">
    <path d="M 108 320.4 
L 108 43.2 
" style="fill: none; stroke: #a9a9a9; stroke-width: 0.8; stroke-linejoin: miter; stroke-linecap: square"/>
   </g>
   <g id="patch_4">
    <path d="M 777.6 320.4 
L 777.6 43.2 
" style="fill: none"/>
   </g>
   <g id="patch_5">
    <path d="M 108 320.4 
L 777.6 320.4 
" style="fill: none; stroke: #a9a9a9; stroke-width: 0.8; stroke-linejoin: miter; stroke-linecap: square"/>
   </g>
   <g id="patch_6">
    <path d="M 108 43.2 
L 777.6 43.2 
" style="fill: none"/>
   </g>
   <g id="text_19">
    <!-- get_subscribe history -->
    <g style="fill: #a9a9a9" transform="translate(378.6075 37.2) scale(0.12 -0.12)">
     <defs>
      <path id="DejaVuSans-67" d="M 2906 1791 
Q 2906 2416 2648 2759 
Q 2391 3103 1925 3103 
Q 1463 3103 1205 2759 
Q 947 2416 947 1791 
Q 947 1169 1205 825 
Q 1463 481 1925 481 
Q 2391 481 2648 825 
Q 2906 1169 2906 1791 
z
M 3481 434 
Q 3481 -459 3084 -895 
Q 2688 -1331 1869 -1331 
Q 1566 -1331 1297 -1286 
Q 1028 -1241 775 -1147 
L 775 -588 
Q 1028 -725 1275 -790 
Q 1522 -856 1778 -856 
Q 2344 -856 2625 -561 
Q 2906 -266 2906 331 
L 2906 616 
Q 2728 306 2450 153 
Q 2172 0 1784 0 
Q 1141 0 747 490 
Q 353 981 353 1791 
Q 353 2603 747 3093 
Q 1141 3584 1784 3584 
Q 2172 3584 2450 3431 
Q 2728 3278 2906 2969 
L 2906 3500 
L 3481 3500 
L 3481 434 
z
" transform="scale(0.015625)"/>
      <path id="DejaVuSans-65" d="M 3597 1894 
L 3597 1613 
L 953 1613 
Q 991 1019 1311 708 
Q 1631 397 2203 397 
Q 2534 397 2845 478 
Q 3156 559 3463 722 
L 3463 178 
Q 3153 47 2828 -22 
Q 2503 -91 2169 -91 
Q 1331 -91 842 396 
Q 353 884 353 1716 
Q 353 2575 817 3079 
Q 1281 3584 2069 3584 
Q 2775 3584 3186 3129 
Q 3597 2675 3597 1894 
z
M 3022 2063 
Q 3016 2534 2758 2815 
Q 2500 3097 2075 3097 
Q 1594 3097 1305 2825 
Q 1016 2553 972 2059 
L 3022 2063 
z
" transform="scale(0.015625)"/>
      <path id="DejaVuSans-74" d="M 1172 4494 
L 1172 3500 
L 2356 3500 
L 2356 3053 
L 1172 3053 
L 1172 1153 
Q 1172 725 1289 603 
Q 1406 481 1766 481 
L 2356 481 
L 2356 0 
L 1766 0 
Q 1100 0 847 248 
Q 594 497 594 1153 
L 594 3053 
L 172 3053 
L 172 3500 
L 594 3500 
L 594 4494 
L 1172 4494 
z
" transform="scale(0.015625)"/>
      <path id="DejaVuSans-5f" d="M 3263 -1063 
L 3263 -1509 
L -63 -1509 
L -63 -1063 
L 3263 -1063 
z
" transform="scale(0.015625)"/>
      <path id="DejaVuSans-73" d="M 2834 3397 
L 2834 2853 
Q 2591 2978 2328 3040 
Q 2066 3103 1784 3103 
Q 1356 3103 1142 2972 
Q 928 2841 928 2578 
Q 928 2378 1081 2264 
Q 1234 2150 1697 2047 
L 1894 2003 
Q 2506 1872 2764 1633 
Q 3022 1394 3022 966 
Q 3022 478 2636 193 
Q 2250 -91 1575 -91 
Q 1294 -91 989 -36 
Q 684 19 347 128 
L 347 722 
Q 666 556 975 473 
Q 1284 391 1588 391 
Q 1994 391 2212 530 
Q 2431 669 2431 922 
Q 2431 1156 2273 1281 
Q 2116 1406 1581 1522 
L 1381 1569 
Q 847 1681 609 1914 
Q 372 2147 372 2553 
Q 372 3047 722 3315 
Q 1072 3584 1716 3584 
Q 2034 3584 2315 3537 
Q 2597 3491 2834 3397 
z
" transform="scale(0.015625)"/>
      <path id="DejaVuSans-75" d="M 544 1381 
L 544 3500 
L 1119 3500 
L 1119 1403 
Q 1119 906 1312 657 
Q 1506 409 1894 409 
Q 2359 409 2629 706 
Q 2900 1003 2900 1516 
L 2900 3500 
L 3475 3500 
L 3475 0 
L 2900 0 
L 2900 538 
Q 2691 219 2414 64 
Q 2138 -91 1772 -91 
Q 1169 -91 856 284 
Q 544 659 544 1381 
z
M 1991 3584 
L 1991 3584 
z
" transform="scale(0.015625)"/>
      <path id="DejaVuSans-62" d="M 3116 1747 
Q 3116 2381 2855 2742 
Q 2594 3103 2138 3103 
Q 1681 3103 1420 2742 
Q 1159 2381 1159 1747 
Q 1159 1113 1420 752 
Q 1681 391 2138 391 
Q 2594 391 2855 752 
Q 3116 1113 3116 1747 
z
M 1159 2969 
Q 1341 3281 1617 3432 
Q 1894 3584 2278 3584 
Q 2916 3584 3314 3078 
Q 3713 2572 3713 1747 
Q 3713 922 3314 415 
Q 2916 -91 2278 -91 
Q 1894 -91 1617 61 
Q 1341 213 1159 525 
L 1159 0 
L 581 0 
L 581 4863 
L 1159 4863 
L 1159 2969 
z
" transform="scale(0.015625)"/>
      <path id="DejaVuSans-63" d="M 3122 3366 
L 3122 2828 
Q 2878 2963 2633 3030 
Q 2388 3097 2138 3097 
Q 1578 3097 1268 2742 
Q 959 2388 959 1747 
Q 959 1106 1268 751 
Q 1578 397 2138 397 
Q 2388 397 2633 464 
Q 2878 531 3122 666 
L 3122 134 
Q 2881 22 2623 -34 
Q 2366 -91 2075 -91 
Q 1284 -91 818 406 
Q 353 903 353 1747 
Q 353 2603 823 3093 
Q 1294 3584 2113 3584 
Q 2378 3584 2631 3529 
Q 2884 3475 3122 3366 
z
" transform="scale(0.015625)"/>
      <path id="DejaVuSans-72" d="M 2631 2963 
Q 2534 3019 2420 3045 
Q 2306 3072 2169 3072 
Q 1681 3072 1420 2755 
Q 1159 2438 1159 1844 
L 1159 0 
L 581 0 
L 581 3500 
L 1159 3500 
L 1159 2956 
Q 1341 3275 1631 3429 
Q 1922 3584 2338 3584 
Q 2397 3584 2469 3576 
Q 2541 3569 2628 3553 
L 2631 2963 
z
" transform="scale(0.015625)"/>
      <path id="DejaVuSans-69" d="M 603 3500 
L 1178 3500 
L 1178 0 
L 603 0 
L 603 3500 
z
M 603 4863 
L 1178 4863 
L 1178 4134 
L 603 4134 
L 603 4863 
z
" transform="scale(0.015625)"/>
      <path id="DejaVuSans-20" transform="scale(0.015625)"/>
      <path id="DejaVuSans-68" d="M 3513 2113 
L 3513 0 
L 2938 0 
L 2938 2094 
Q 2938 2591 2744 2837 
Q 2550 3084 2163 3084 
Q 1697 3084 1428 2787 
Q 1159 2491 1159 1978 
L 1159 0 
L 581 0 
L 581 4863 
L 1159 4863 
L 1159 2956 
Q 1366 3272 1645 3428 
Q 1925 3584 2291 3584 
Q 2894 3584 3203 3211 
Q 3513 2838 3513 2113 
z
" transform="scale(0.015625)"/>
      <path id="DejaVuSans-6f" d="M 1959 3097 
Q 1497 3097 1228 2736 
Q 959 2375 959 1747 
Q 959 1119 1226 758 
Q 1494 397 1959 397 
Q 2419 397 2687 759 
Q 2956 1122 2956 1747 
Q 2956 2369 2687 2733 
Q 2419 3097 1959 3097 
z
M 1959 3584 
Q 2709 3584 3137 3096 
Q 3566 2609 3566 1747 
Q 3566 888 3137 398 
Q 2709 -91 1959 -91 
Q 1206 -91 779 398 
Q 353 888 353 1747 
Q 353 2609 779 3096 
Q 1206 3584 1959 3584 
z
" transform="scale(0.015625)"/>
      <path id="DejaVuSans-79" d="M 2059 -325 
Q 1816 -950 1584 -1140 
Q 1353 -1331 966 -1331 
L 506 -1331 
L 506 -850 
L 844 -850 
Q 1081 -850 1212 -737 
Q 1344 -625 1503 -206 
L 1606 56 
L 191 3500 
L 800 3500 
L 1894 763 
L 2988 3500 
L 3597 3500 
L 2059 -325 
z
" transform="scale(0.015625)"/>
     </defs>
     <use xlink:href="#DejaVuSans-67"/>
     <use xlink:href="#DejaVuSans-65" transform="translate(63.476562 0)"/>
     <use xlink:href="#DejaVuSans-74" transform="translate(125 0)"/>
     <use xlink:href="#DejaVuSans-5f" transform="translate(164.208984 0)"/>
     <use xlink:href="#DejaVuSans-73" transform="translate(214.208984 0)"/>
     <use xlink:href="#DejaVuSans-75" transform="translate(266.308594 0)"/>
     <use xlink:href="#DejaVuSans-62" transform="translate(329.6875 0)"/>
     <use xlink:href="#DejaVuSans-73" transform="translate(393.164062 0)"/>
     <use xlink:href="#DejaVuSans-63" transform="translate(445.263672 0)"/>
     <use xlink:href="#DejaVuSans-72" transform="translate(500.244141 0)"/>
     <use xlink:href="#DejaVuSans-69" transform="translate(541.357422 0)"/>
     <use xlink:href="#DejaVuSans-62" transform="translate(569.140625 0)"/>
     <use xlink:href="#DejaVuSans-65" transform="translate(632.617188 0)"/>
     <use xlink:href="#DejaVuSans-20" transform="translate(694.140625 0)"/>
     <use xlink:href="#DejaVuSans-68" transform="translate(725.927734 0)"/>
     <use xlink:href="#DejaVuSans-69" transform="translate(789.306641 0)"/>
     <use xlink:href="#DejaVuSans-73" transform="translate(817.089844 0)"/>
     <use xlink:href="#DejaVuSans-74" transform="translate(869.189453 0)"/>
     <use xlink:href="#DejaVuSans-6f" transform="translate(908.398438 0)"/>
     <use xlink:href="#DejaVuSans-72" transform="translate(969.580078 0)"/>
     <use xlink:href="#DejaVuSans-79" transform="translate(1010.693359 0)"/>
    </g>
   </g>
   <g id="legend_1">
    <g id="line2d_39">
     <path d="M 815.08 328.498438 
L 825.08 328.498438 
L 835.08 328.498438 
" style="fill: none; stroke: #1f77b4; stroke-width: 1.5; stroke-linecap: square"/>
    </g>
    <g id="text_20">
     <!-- star -->
     <g style="fill: #a9a9a9" transform="translate(843.08 331.998438) scale(0.1 -0.1)">
      <defs>
       <path id="DejaVuSans-61" d="M 2194 1759 
Q 1497 1759 1228 1600 
Q 959 1441 959 1056 
Q 959 750 1161 570 
Q 1363 391 1709 391 
Q 2188 391 2477 730 
Q 2766 1069 2766 1631 
L 2766 1759 
L 2194 1759 
z
M 3341 1997 
L 3341 0 
L 2766 0 
L 2766 531 
Q 2569 213 2275 61 
Q 1981 -91 1556 -91 
Q 1019 -91 701 211 
Q 384 513 384 1019 
Q 384 1609 779 1909 
Q 1175 2209 1959 2209 
L 2766 2209 
L 2766 2266 
Q 2766 2663 2505 2880 
Q 2244 3097 1772 3097 
Q 1472 3097 1187 3025 
Q 903 2953 641 2809 
L 641 3341 
Q 956 3463 1253 3523 
Q 1550 3584 1831 3584 
Q 2591 3584 2966 3190 
Q 3341 2797 3341 1997 
z
" transform="scale(0.015625)"/>
      </defs>
      <use xlink:href="#DejaVuSans-73"/>
      <use xlink:href="#DejaVuSans-74" transform="translate(52.099609 0)"/>
      <use xlink:href="#DejaVuSans-61" transform="translate(91.308594 0)"/>
      <use xlink:href="#DejaVuSans-72" transform="translate(152.587891 0)"/>
     </g>
    </g>
    <g id="line2d_40">
     <path d="M 815.08 343.176562 
L 825.08 343.176562 
L 835.08 343.176562 
" style="fill: none; stroke: #ff7f0e; stroke-width: 1.5; stroke-linecap: square"/>
    </g>
    <g id="text_21">
     <!-- fork -->
     <g style="fill: #a9a9a9" transform="translate(843.08 346.676562) scale(0.1 -0.1)">
      <defs>
       <path id="DejaVuSans-66" d="M 2375 4863 
L 2375 4384 
L 1825 4384 
Q 1516 4384 1395 4259 
Q 1275 4134 1275 3809 
L 1275 3500 
L 2222 3500 
L 2222 3053 
L 1275 3053 
L 1275 0 
L 697 0 
L 697 3053 
L 147 3053 
L 147 3500 
L 697 3500 
L 697 3744 
Q 697 4328 969 4595 
Q 1241 4863 1831 4863 
L 2375 4863 
z
" transform="scale(0.015625)"/>
       <path id="DejaVuSans-6b" d="M 581 4863 
L 1159 4863 
L 1159 1991 
L 2875 3500 
L 3609 3500 
L 1753 1863 
L 3688 0 
L 2938 0 
L 1159 1709 
L 1159 0 
L 581 0 
L 581 4863 
z
" transform="scale(0.015625)"/>
      </defs>
      <use xlink:href="#DejaVuSans-66"/>
      <use xlink:href="#DejaVuSans-6f" transform="translate(35.205078 0)"/>
      <use xlink:href="#DejaVuSans-72" transform="translate(96.386719 0)"/>
      <use xlink:href="#DejaVuSans-6b" transform="translate(137.5 0)"/>
     </g>
    </g>
   </g>
  </g>
 </g>
 <defs>
  <clipPath id="pee41dba2f5">
   <rect x="108" y="43.2" width="669.6" height="277.2"/>
  </clipPath>
 </defs>
</svg>
