<?xml version="1.0" encoding="utf-8" standalone="no"?>
<!DOCTYPE svg PUBLIC "-//W3C//DTD SVG 1.1//EN"
  "http://www.w3.org/Graphics/SVG/1.1/DTD/svg11.dtd">
<svg xmlns:xlink="http://www.w3.org/1999/xlink" width="864pt" height="360pt" viewBox="0 0 864 360" xmlns="http://www.w3.org/2000/svg" version="1.1">
 <metadata>
  <rdf:RDF xmlns:dc="http://purl.org/dc/elements/1.1/" xmlns:cc="http://creativecommons.org/ns#" xmlns:rdf="http://www.w3.org/1999/02/22-rdf-syntax-ns#">
   <cc:Work>
    <dc:type rdf:resource="http://purl.org/dc/dcmitype/StillImage"/>
    <dc:date>2024-12-18T20:33:01.397532</dc:date>
    <dc:format>image/svg+xml</dc:format>
    <dc:creator>
     <cc:Agent>
      <dc:title>Matplotlib v3.10.0, https://matplotlib.org/</dc:title>
     </cc:Agent>
    </dc:creator>
   </cc:Work>
  </rdf:RDF>
 </metadata>
 <defs>
  <style type="text/css">*{stroke-linejoin: round; stroke-linecap: butt}</style>
 </defs>
 <g id="figure_1">
  <g id="patch_1">
   <path d="M 0 360 
L 864 360 
L 864 0 
L 0 0 
L 0 360 
z
" style="fill: none; opacity: 0"/>
  </g>
  <g id="axes_1">
   <g id="patch_2">
    <path d="M 108 320.4 
L 777.6 320.4 
L 777.6 43.2 
L 108 43.2 
L 108 320.4 
z
" style="fill: none; opacity: 0"/>
   </g>
   <g id="matplotlib.axis_1">
    <g id="xtick_1">
     <g id="line2d_1">
      <path d="M 157.53561 320.4 
L 157.53561 43.2 
" clip-path="url(#p43b6567ac6)" style="fill: none; stroke-dasharray: 5.12,1.28,0.8,1.28; stroke-dashoffset: 0; stroke: #b0b0b0; stroke-width: 0.8"/>
     </g>
     <g id="line2d_2">
      <defs>
       <path id="mfa18417fd4" d="M 0 0 
L 0 3.5 
" style="stroke: #a9a9a9; stroke-width: 0.8"/>
      </defs>
      <g>
       <use xlink:href="#mfa18417fd4" x="157.53561" y="320.4" style="fill: #a9a9a9; stroke: #a9a9a9; stroke-width: 0.8"/>
      </g>
     </g>
     <g id="text_1">
      <!-- 2021-09 -->
      <g style="fill: #a9a9a9" transform="translate(136.644204 334.998438) scale(0.1 -0.1)">
       <defs>
        <path id="DejaVuSans-32" d="M 1228 531 
L 3431 531 
L 3431 0 
L 469 0 
L 469 531 
Q 828 903 1448 1529 
Q 2069 2156 2228 2338 
Q 2531 2678 2651 2914 
Q 2772 3150 2772 3378 
Q 2772 3750 2511 3984 
Q 2250 4219 1831 4219 
Q 1534 4219 1204 4116 
Q 875 4013 500 3803 
L 500 4441 
Q 881 4594 1212 4672 
Q 1544 4750 1819 4750 
Q 2544 4750 2975 4387 
Q 3406 4025 3406 3419 
Q 3406 3131 3298 2873 
Q 3191 2616 2906 2266 
Q 2828 2175 2409 1742 
Q 1991 1309 1228 531 
z
" transform="scale(0.015625)"/>
        <path id="DejaVuSans-30" d="M 2034 4250 
Q 1547 4250 1301 3770 
Q 1056 3291 1056 2328 
Q 1056 1369 1301 889 
Q 1547 409 2034 409 
Q 2525 409 2770 889 
Q 3016 1369 3016 2328 
Q 3016 3291 2770 3770 
Q 2525 4250 2034 4250 
z
M 2034 4750 
Q 2819 4750 3233 4129 
Q 3647 3509 3647 2328 
Q 3647 1150 3233 529 
Q 2819 -91 2034 -91 
Q 1250 -91 836 529 
Q 422 1150 422 2328 
Q 422 3509 836 4129 
Q 1250 4750 2034 4750 
z
" transform="scale(0.015625)"/>
        <path id="DejaVuSans-31" d="M 794 531 
L 1825 531 
L 1825 4091 
L 703 3866 
L 703 4441 
L 1819 4666 
L 2450 4666 
L 2450 531 
L 3481 531 
L 3481 0 
L 794 0 
L 794 531 
z
" transform="scale(0.015625)"/>
        <path id="DejaVuSans-2d" d="M 313 2009 
L 1997 2009 
L 1997 1497 
L 313 1497 
L 313 2009 
z
" transform="scale(0.015625)"/>
        <path id="DejaVuSans-39" d="M 703 97 
L 703 672 
Q 941 559 1184 500 
Q 1428 441 1663 441 
Q 2288 441 2617 861 
Q 2947 1281 2994 2138 
Q 2813 1869 2534 1725 
Q 2256 1581 1919 1581 
Q 1219 1581 811 2004 
Q 403 2428 403 3163 
Q 403 3881 828 4315 
Q 1253 4750 1959 4750 
Q 2769 4750 3195 4129 
Q 3622 3509 3622 2328 
Q 3622 1225 3098 567 
Q 2575 -91 1691 -91 
Q 1453 -91 1209 -44 
Q 966 3 703 97 
z
M 1959 2075 
Q 2384 2075 2632 2365 
Q 2881 2656 2881 3163 
Q 2881 3666 2632 3958 
Q 2384 4250 1959 4250 
Q 1534 4250 1286 3958 
Q 1038 3666 1038 3163 
Q 1038 2656 1286 2365 
Q 1534 2075 1959 2075 
z
" transform="scale(0.015625)"/>
       </defs>
       <use xlink:href="#DejaVuSans-32"/>
       <use xlink:href="#DejaVuSans-30" transform="translate(63.623047 0)"/>
       <use xlink:href="#DejaVuSans-32" transform="translate(127.246094 0)"/>
       <use xlink:href="#DejaVuSans-31" transform="translate(190.869141 0)"/>
       <use xlink:href="#DejaVuSans-2d" transform="translate(254.492188 0)"/>
       <use xlink:href="#DejaVuSans-30" transform="translate(290.576172 0)"/>
       <use xlink:href="#DejaVuSans-39" transform="translate(354.199219 0)"/>
      </g>
     </g>
    </g>
    <g id="xtick_2">
     <g id="line2d_3">
      <path d="M 217.281972 320.4 
L 217.281972 43.2 
" clip-path="url(#p43b6567ac6)" style="fill: none; stroke-dasharray: 5.12,1.28,0.8,1.28; stroke-dashoffset: 0; stroke: #b0b0b0; stroke-width: 0.8"/>
     </g>
     <g id="line2d_4">
      <g>
       <use xlink:href="#mfa18417fd4" x="217.281972" y="320.4" style="fill: #a9a9a9; stroke: #a9a9a9; stroke-width: 0.8"/>
      </g>
     </g>
     <g id="text_2">
      <!-- 2022-01 -->
      <g style="fill: #a9a9a9" transform="translate(196.390566 334.998438) scale(0.1 -0.1)">
       <use xlink:href="#DejaVuSans-32"/>
       <use xlink:href="#DejaVuSans-30" transform="translate(63.623047 0)"/>
       <use xlink:href="#DejaVuSans-32" transform="translate(127.246094 0)"/>
       <use xlink:href="#DejaVuSans-32" transform="translate(190.869141 0)"/>
       <use xlink:href="#DejaVuSans-2d" transform="translate(254.492188 0)"/>
       <use xlink:href="#DejaVuSans-30" transform="translate(290.576172 0)"/>
       <use xlink:href="#DejaVuSans-31" transform="translate(354.199219 0)"/>
      </g>
     </g>
    </g>
    <g id="xtick_3">
     <g id="line2d_5">
      <path d="M 276.048885 320.4 
L 276.048885 43.2 
" clip-path="url(#p43b6567ac6)" style="fill: none; stroke-dasharray: 5.12,1.28,0.8,1.28; stroke-dashoffset: 0; stroke: #b0b0b0; stroke-width: 0.8"/>
     </g>
     <g id="line2d_6">
      <g>
       <use xlink:href="#mfa18417fd4" x="276.048885" y="320.4" style="fill: #a9a9a9; stroke: #a9a9a9; stroke-width: 0.8"/>
      </g>
     </g>
     <g id="text_3">
      <!-- 2022-05 -->
      <g style="fill: #a9a9a9" transform="translate(255.157478 334.998438) scale(0.1 -0.1)">
       <defs>
        <path id="DejaVuSans-35" d="M 691 4666 
L 3169 4666 
L 3169 4134 
L 1269 4134 
L 1269 2991 
Q 1406 3038 1543 3061 
Q 1681 3084 1819 3084 
Q 2600 3084 3056 2656 
Q 3513 2228 3513 1497 
Q 3513 744 3044 326 
Q 2575 -91 1722 -91 
Q 1428 -91 1123 -41 
Q 819 9 494 109 
L 494 744 
Q 775 591 1075 516 
Q 1375 441 1709 441 
Q 2250 441 2565 725 
Q 2881 1009 2881 1497 
Q 2881 1984 2565 2268 
Q 2250 2553 1709 2553 
Q 1456 2553 1204 2497 
Q 953 2441 691 2322 
L 691 4666 
z
" transform="scale(0.015625)"/>
       </defs>
       <use xlink:href="#DejaVuSans-32"/>
       <use xlink:href="#DejaVuSans-30" transform="translate(63.623047 0)"/>
       <use xlink:href="#DejaVuSans-32" transform="translate(127.246094 0)"/>
       <use xlink:href="#DejaVuSans-32" transform="translate(190.869141 0)"/>
       <use xlink:href="#DejaVuSans-2d" transform="translate(254.492188 0)"/>
       <use xlink:href="#DejaVuSans-30" transform="translate(290.576172 0)"/>
       <use xlink:href="#DejaVuSans-35" transform="translate(354.199219 0)"/>
      </g>
     </g>
    </g>
    <g id="xtick_4">
     <g id="line2d_7">
      <path d="M 336.28497 320.4 
L 336.28497 43.2 
" clip-path="url(#p43b6567ac6)" style="fill: none; stroke-dasharray: 5.12,1.28,0.8,1.28; stroke-dashoffset: 0; stroke: #b0b0b0; stroke-width: 0.8"/>
     </g>
     <g id="line2d_8">
      <g>
       <use xlink:href="#mfa18417fd4" x="336.28497" y="320.4" style="fill: #a9a9a9; stroke: #a9a9a9; stroke-width: 0.8"/>
      </g>
     </g>
     <g id="text_4">
      <!-- 2022-09 -->
      <g style="fill: #a9a9a9" transform="translate(315.393564 334.998438) scale(0.1 -0.1)">
       <use xlink:href="#DejaVuSans-32"/>
       <use xlink:href="#DejaVuSans-30" transform="translate(63.623047 0)"/>
       <use xlink:href="#DejaVuSans-32" transform="translate(127.246094 0)"/>
       <use xlink:href="#DejaVuSans-32" transform="translate(190.869141 0)"/>
       <use xlink:href="#DejaVuSans-2d" transform="translate(254.492188 0)"/>
       <use xlink:href="#DejaVuSans-30" transform="translate(290.576172 0)"/>
       <use xlink:href="#DejaVuSans-39" transform="translate(354.199219 0)"/>
      </g>
     </g>
    </g>
    <g id="xtick_5">
     <g id="line2d_9">
      <path d="M 396.031332 320.4 
L 396.031332 43.2 
" clip-path="url(#p43b6567ac6)" style="fill: none; stroke-dasharray: 5.12,1.28,0.8,1.28; stroke-dashoffset: 0; stroke: #b0b0b0; stroke-width: 0.8"/>
     </g>
     <g id="line2d_10">
      <g>
       <use xlink:href="#mfa18417fd4" x="396.031332" y="320.4" style="fill: #a9a9a9; stroke: #a9a9a9; stroke-width: 0.8"/>
      </g>
     </g>
     <g id="text_5">
      <!-- 2023-01 -->
      <g style="fill: #a9a9a9" transform="translate(375.139926 334.998438) scale(0.1 -0.1)">
       <defs>
        <path id="DejaVuSans-33" d="M 2597 2516 
Q 3050 2419 3304 2112 
Q 3559 1806 3559 1356 
Q 3559 666 3084 287 
Q 2609 -91 1734 -91 
Q 1441 -91 1130 -33 
Q 819 25 488 141 
L 488 750 
Q 750 597 1062 519 
Q 1375 441 1716 441 
Q 2309 441 2620 675 
Q 2931 909 2931 1356 
Q 2931 1769 2642 2001 
Q 2353 2234 1838 2234 
L 1294 2234 
L 1294 2753 
L 1863 2753 
Q 2328 2753 2575 2939 
Q 2822 3125 2822 3475 
Q 2822 3834 2567 4026 
Q 2313 4219 1838 4219 
Q 1578 4219 1281 4162 
Q 984 4106 628 3988 
L 628 4550 
Q 988 4650 1302 4700 
Q 1616 4750 1894 4750 
Q 2613 4750 3031 4423 
Q 3450 4097 3450 3541 
Q 3450 3153 3228 2886 
Q 3006 2619 2597 2516 
z
" transform="scale(0.015625)"/>
       </defs>
       <use xlink:href="#DejaVuSans-32"/>
       <use xlink:href="#DejaVuSans-30" transform="translate(63.623047 0)"/>
       <use xlink:href="#DejaVuSans-32" transform="translate(127.246094 0)"/>
       <use xlink:href="#DejaVuSans-33" transform="translate(190.869141 0)"/>
       <use xlink:href="#DejaVuSans-2d" transform="translate(254.492188 0)"/>
       <use xlink:href="#DejaVuSans-30" transform="translate(290.576172 0)"/>
       <use xlink:href="#DejaVuSans-31" transform="translate(354.199219 0)"/>
      </g>
     </g>
    </g>
    <g id="xtick_6">
     <g id="line2d_11">
      <path d="M 454.798245 320.4 
L 454.798245 43.2 
" clip-path="url(#p43b6567ac6)" style="fill: none; stroke-dasharray: 5.12,1.28,0.8,1.28; stroke-dashoffset: 0; stroke: #b0b0b0; stroke-width: 0.8"/>
     </g>
     <g id="line2d_12">
      <g>
       <use xlink:href="#mfa18417fd4" x="454.798245" y="320.4" style="fill: #a9a9a9; stroke: #a9a9a9; stroke-width: 0.8"/>
      </g>
     </g>
     <g id="text_6">
      <!-- 2023-05 -->
      <g style="fill: #a9a9a9" transform="translate(433.906838 334.998438) scale(0.1 -0.1)">
       <use xlink:href="#DejaVuSans-32"/>
       <use xlink:href="#DejaVuSans-30" transform="translate(63.623047 0)"/>
       <use xlink:href="#DejaVuSans-32" transform="translate(127.246094 0)"/>
       <use xlink:href="#DejaVuSans-33" transform="translate(190.869141 0)"/>
       <use xlink:href="#DejaVuSans-2d" transform="translate(254.492188 0)"/>
       <use xlink:href="#DejaVuSans-30" transform="translate(290.576172 0)"/>
       <use xlink:href="#DejaVuSans-35" transform="translate(354.199219 0)"/>
      </g>
     </g>
    </g>
    <g id="xtick_7">
     <g id="line2d_13">
      <path d="M 515.03433 320.4 
L 515.03433 43.2 
" clip-path="url(#p43b6567ac6)" style="fill: none; stroke-dasharray: 5.12,1.28,0.8,1.28; stroke-dashoffset: 0; stroke: #b0b0b0; stroke-width: 0.8"/>
     </g>
     <g id="line2d_14">
      <g>
       <use xlink:href="#mfa18417fd4" x="515.03433" y="320.4" style="fill: #a9a9a9; stroke: #a9a9a9; stroke-width: 0.8"/>
      </g>
     </g>
     <g id="text_7">
      <!-- 2023-09 -->
      <g style="fill: #a9a9a9" transform="translate(494.142924 334.998438) scale(0.1 -0.1)">
       <use xlink:href="#DejaVuSans-32"/>
       <use xlink:href="#DejaVuSans-30" transform="translate(63.623047 0)"/>
       <use xlink:href="#DejaVuSans-32" transform="translate(127.246094 0)"/>
       <use xlink:href="#DejaVuSans-33" transform="translate(190.869141 0)"/>
       <use xlink:href="#DejaVuSans-2d" transform="translate(254.492188 0)"/>
       <use xlink:href="#DejaVuSans-30" transform="translate(290.576172 0)"/>
       <use xlink:href="#DejaVuSans-39" transform="translate(354.199219 0)"/>
      </g>
     </g>
    </g>
    <g id="xtick_8">
     <g id="line2d_15">
      <path d="M 574.780692 320.4 
L 574.780692 43.2 
" clip-path="url(#p43b6567ac6)" style="fill: none; stroke-dasharray: 5.12,1.28,0.8,1.28; stroke-dashoffset: 0; stroke: #b0b0b0; stroke-width: 0.8"/>
     </g>
     <g id="line2d_16">
      <g>
       <use xlink:href="#mfa18417fd4" x="574.780692" y="320.4" style="fill: #a9a9a9; stroke: #a9a9a9; stroke-width: 0.8"/>
      </g>
     </g>
     <g id="text_8">
      <!-- 2024-01 -->
      <g style="fill: #a9a9a9" transform="translate(553.889286 334.998438) scale(0.1 -0.1)">
       <defs>
        <path id="DejaVuSans-34" d="M 2419 4116 
L 825 1625 
L 2419 1625 
L 2419 4116 
z
M 2253 4666 
L 3047 4666 
L 3047 1625 
L 3713 1625 
L 3713 1100 
L 3047 1100 
L 3047 0 
L 2419 0 
L 2419 1100 
L 313 1100 
L 313 1709 
L 2253 4666 
z
" transform="scale(0.015625)"/>
       </defs>
       <use xlink:href="#DejaVuSans-32"/>
       <use xlink:href="#DejaVuSans-30" transform="translate(63.623047 0)"/>
       <use xlink:href="#DejaVuSans-32" transform="translate(127.246094 0)"/>
       <use xlink:href="#DejaVuSans-34" transform="translate(190.869141 0)"/>
       <use xlink:href="#DejaVuSans-2d" transform="translate(254.492188 0)"/>
       <use xlink:href="#DejaVuSans-30" transform="translate(290.576172 0)"/>
       <use xlink:href="#DejaVuSans-31" transform="translate(354.199219 0)"/>
      </g>
     </g>
    </g>
    <g id="xtick_9">
     <g id="line2d_17">
      <path d="M 634.037329 320.4 
L 634.037329 43.2 
" clip-path="url(#p43b6567ac6)" style="fill: none; stroke-dasharray: 5.12,1.28,0.8,1.28; stroke-dashoffset: 0; stroke: #b0b0b0; stroke-width: 0.8"/>
     </g>
     <g id="line2d_18">
      <g>
       <use xlink:href="#mfa18417fd4" x="634.037329" y="320.4" style="fill: #a9a9a9; stroke: #a9a9a9; stroke-width: 0.8"/>
      </g>
     </g>
     <g id="text_9">
      <!-- 2024-05 -->
      <g style="fill: #a9a9a9" transform="translate(613.145923 334.998438) scale(0.1 -0.1)">
       <use xlink:href="#DejaVuSans-32"/>
       <use xlink:href="#DejaVuSans-30" transform="translate(63.623047 0)"/>
       <use xlink:href="#DejaVuSans-32" transform="translate(127.246094 0)"/>
       <use xlink:href="#DejaVuSans-34" transform="translate(190.869141 0)"/>
       <use xlink:href="#DejaVuSans-2d" transform="translate(254.492188 0)"/>
       <use xlink:href="#DejaVuSans-30" transform="translate(290.576172 0)"/>
       <use xlink:href="#DejaVuSans-35" transform="translate(354.199219 0)"/>
      </g>
     </g>
    </g>
    <g id="xtick_10">
     <g id="line2d_19">
      <path d="M 694.273415 320.4 
L 694.273415 43.2 
" clip-path="url(#p43b6567ac6)" style="fill: none; stroke-dasharray: 5.12,1.28,0.8,1.28; stroke-dashoffset: 0; stroke: #b0b0b0; stroke-width: 0.8"/>
     </g>
     <g id="line2d_20">
      <g>
       <use xlink:href="#mfa18417fd4" x="694.273415" y="320.4" style="fill: #a9a9a9; stroke: #a9a9a9; stroke-width: 0.8"/>
      </g>
     </g>
     <g id="text_10">
      <!-- 2024-09 -->
      <g style="fill: #a9a9a9" transform="translate(673.382009 334.998438) scale(0.1 -0.1)">
       <use xlink:href="#DejaVuSans-32"/>
       <use xlink:href="#DejaVuSans-30" transform="translate(63.623047 0)"/>
       <use xlink:href="#DejaVuSans-32" transform="translate(127.246094 0)"/>
       <use xlink:href="#DejaVuSans-34" transform="translate(190.869141 0)"/>
       <use xlink:href="#DejaVuSans-2d" transform="translate(254.492188 0)"/>
       <use xlink:href="#DejaVuSans-30" transform="translate(290.576172 0)"/>
       <use xlink:href="#DejaVuSans-39" transform="translate(354.199219 0)"/>
      </g>
     </g>
    </g>
    <g id="xtick_11">
     <g id="line2d_21">
      <path d="M 754.019776 320.4 
L 754.019776 43.2 
" clip-path="url(#p43b6567ac6)" style="fill: none; stroke-dasharray: 5.12,1.28,0.8,1.28; stroke-dashoffset: 0; stroke: #b0b0b0; stroke-width: 0.8"/>
     </g>
     <g id="line2d_22">
      <g>
       <use xlink:href="#mfa18417fd4" x="754.019776" y="320.4" style="fill: #a9a9a9; stroke: #a9a9a9; stroke-width: 0.8"/>
      </g>
     </g>
     <g id="text_11">
      <!-- 2025-01 -->
      <g style="fill: #a9a9a9" transform="translate(733.12837 334.998438) scale(0.1 -0.1)">
       <use xlink:href="#DejaVuSans-32"/>
       <use xlink:href="#DejaVuSans-30" transform="translate(63.623047 0)"/>
       <use xlink:href="#DejaVuSans-32" transform="translate(127.246094 0)"/>
       <use xlink:href="#DejaVuSans-35" transform="translate(190.869141 0)"/>
       <use xlink:href="#DejaVuSans-2d" transform="translate(254.492188 0)"/>
       <use xlink:href="#DejaVuSans-30" transform="translate(290.576172 0)"/>
       <use xlink:href="#DejaVuSans-31" transform="translate(354.199219 0)"/>
      </g>
     </g>
    </g>
   </g>
   <g id="matplotlib.axis_2">
    <g id="ytick_1">
     <g id="line2d_23">
      <path d="M 108 307.835493 
L 777.6 307.835493 
" clip-path="url(#p43b6567ac6)" style="fill: none; stroke-dasharray: 5.12,1.28,0.8,1.28; stroke-dashoffset: 0; stroke: #b0b0b0; stroke-width: 0.8"/>
     </g>
     <g id="line2d_24">
      <defs>
       <path id="m782b65594d" d="M 0 0 
L -3.5 0 
" style="stroke: #a9a9a9; stroke-width: 0.8"/>
      </defs>
      <g>
       <use xlink:href="#m782b65594d" x="108" y="307.835493" style="fill: #a9a9a9; stroke: #a9a9a9; stroke-width: 0.8"/>
      </g>
     </g>
     <g id="text_12">
      <!-- 0 -->
      <g style="fill: #a9a9a9" transform="translate(94.6375 311.634712) scale(0.1 -0.1)">
       <use xlink:href="#DejaVuSans-30"/>
      </g>
     </g>
    </g>
    <g id="ytick_2">
     <g id="line2d_25">
      <path d="M 108 279.441127 
L 777.6 279.441127 
" clip-path="url(#p43b6567ac6)" style="fill: none; stroke-dasharray: 5.12,1.28,0.8,1.28; stroke-dashoffset: 0; stroke: #b0b0b0; stroke-width: 0.8"/>
     </g>
     <g id="line2d_26">
      <g>
       <use xlink:href="#m782b65594d" x="108" y="279.441127" style="fill: #a9a9a9; stroke: #a9a9a9; stroke-width: 0.8"/>
      </g>
     </g>
     <g id="text_13">
      <!-- 800 -->
      <g style="fill: #a9a9a9" transform="translate(81.9125 283.240346) scale(0.1 -0.1)">
       <defs>
        <path id="DejaVuSans-38" d="M 2034 2216 
Q 1584 2216 1326 1975 
Q 1069 1734 1069 1313 
Q 1069 891 1326 650 
Q 1584 409 2034 409 
Q 2484 409 2743 651 
Q 3003 894 3003 1313 
Q 3003 1734 2745 1975 
Q 2488 2216 2034 2216 
z
M 1403 2484 
Q 997 2584 770 2862 
Q 544 3141 544 3541 
Q 544 4100 942 4425 
Q 1341 4750 2034 4750 
Q 2731 4750 3128 4425 
Q 3525 4100 3525 3541 
Q 3525 3141 3298 2862 
Q 3072 2584 2669 2484 
Q 3125 2378 3379 2068 
Q 3634 1759 3634 1313 
Q 3634 634 3220 271 
Q 2806 -91 2034 -91 
Q 1263 -91 848 271 
Q 434 634 434 1313 
Q 434 1759 690 2068 
Q 947 2378 1403 2484 
z
M 1172 3481 
Q 1172 3119 1398 2916 
Q 1625 2713 2034 2713 
Q 2441 2713 2670 2916 
Q 2900 3119 2900 3481 
Q 2900 3844 2670 4047 
Q 2441 4250 2034 4250 
Q 1625 4250 1398 4047 
Q 1172 3844 1172 3481 
z
" transform="scale(0.015625)"/>
       </defs>
       <use xlink:href="#DejaVuSans-38"/>
       <use xlink:href="#DejaVuSans-30" transform="translate(63.623047 0)"/>
       <use xlink:href="#DejaVuSans-30" transform="translate(127.246094 0)"/>
      </g>
     </g>
    </g>
    <g id="ytick_3">
     <g id="line2d_27">
      <path d="M 108 251.046761 
L 777.6 251.046761 
" clip-path="url(#p43b6567ac6)" style="fill: none; stroke-dasharray: 5.12,1.28,0.8,1.28; stroke-dashoffset: 0; stroke: #b0b0b0; stroke-width: 0.8"/>
     </g>
     <g id="line2d_28">
      <g>
       <use xlink:href="#m782b65594d" x="108" y="251.046761" style="fill: #a9a9a9; stroke: #a9a9a9; stroke-width: 0.8"/>
      </g>
     </g>
     <g id="text_14">
      <!-- 1600 -->
      <g style="fill: #a9a9a9" transform="translate(75.55 254.845979) scale(0.1 -0.1)">
       <defs>
        <path id="DejaVuSans-36" d="M 2113 2584 
Q 1688 2584 1439 2293 
Q 1191 2003 1191 1497 
Q 1191 994 1439 701 
Q 1688 409 2113 409 
Q 2538 409 2786 701 
Q 3034 994 3034 1497 
Q 3034 2003 2786 2293 
Q 2538 2584 2113 2584 
z
M 3366 4563 
L 3366 3988 
Q 3128 4100 2886 4159 
Q 2644 4219 2406 4219 
Q 1781 4219 1451 3797 
Q 1122 3375 1075 2522 
Q 1259 2794 1537 2939 
Q 1816 3084 2150 3084 
Q 2853 3084 3261 2657 
Q 3669 2231 3669 1497 
Q 3669 778 3244 343 
Q 2819 -91 2113 -91 
Q 1303 -91 875 529 
Q 447 1150 447 2328 
Q 447 3434 972 4092 
Q 1497 4750 2381 4750 
Q 2619 4750 2861 4703 
Q 3103 4656 3366 4563 
z
" transform="scale(0.015625)"/>
       </defs>
       <use xlink:href="#DejaVuSans-31"/>
       <use xlink:href="#DejaVuSans-36" transform="translate(63.623047 0)"/>
       <use xlink:href="#DejaVuSans-30" transform="translate(127.246094 0)"/>
       <use xlink:href="#DejaVuSans-30" transform="translate(190.869141 0)"/>
      </g>
     </g>
    </g>
    <g id="ytick_4">
     <g id="line2d_29">
      <path d="M 108 222.652394 
L 777.6 222.652394 
" clip-path="url(#p43b6567ac6)" style="fill: none; stroke-dasharray: 5.12,1.28,0.8,1.28; stroke-dashoffset: 0; stroke: #b0b0b0; stroke-width: 0.8"/>
     </g>
     <g id="line2d_30">
      <g>
       <use xlink:href="#m782b65594d" x="108" y="222.652394" style="fill: #a9a9a9; stroke: #a9a9a9; stroke-width: 0.8"/>
      </g>
     </g>
     <g id="text_15">
      <!-- 2400 -->
      <g style="fill: #a9a9a9" transform="translate(75.55 226.451613) scale(0.1 -0.1)">
       <use xlink:href="#DejaVuSans-32"/>
       <use xlink:href="#DejaVuSans-34" transform="translate(63.623047 0)"/>
       <use xlink:href="#DejaVuSans-30" transform="translate(127.246094 0)"/>
       <use xlink:href="#DejaVuSans-30" transform="translate(190.869141 0)"/>
      </g>
     </g>
    </g>
    <g id="ytick_5">
     <g id="line2d_31">
      <path d="M 108 194.258028 
L 777.6 194.258028 
" clip-path="url(#p43b6567ac6)" style="fill: none; stroke-dasharray: 5.12,1.28,0.8,1.28; stroke-dashoffset: 0; stroke: #b0b0b0; stroke-width: 0.8"/>
     </g>
     <g id="line2d_32">
      <g>
       <use xlink:href="#m782b65594d" x="108" y="194.258028" style="fill: #a9a9a9; stroke: #a9a9a9; stroke-width: 0.8"/>
      </g>
     </g>
     <g id="text_16">
      <!-- 3200 -->
      <g style="fill: #a9a9a9" transform="translate(75.55 198.057247) scale(0.1 -0.1)">
       <use xlink:href="#DejaVuSans-33"/>
       <use xlink:href="#DejaVuSans-32" transform="translate(63.623047 0)"/>
       <use xlink:href="#DejaVuSans-30" transform="translate(127.246094 0)"/>
       <use xlink:href="#DejaVuSans-30" transform="translate(190.869141 0)"/>
      </g>
     </g>
    </g>
    <g id="ytick_6">
     <g id="line2d_33">
      <path d="M 108 165.863662 
L 777.6 165.863662 
" clip-path="url(#p43b6567ac6)" style="fill: none; stroke-dasharray: 5.12,1.28,0.8,1.28; stroke-dashoffset: 0; stroke: #b0b0b0; stroke-width: 0.8"/>
     </g>
     <g id="line2d_34">
      <g>
       <use xlink:href="#m782b65594d" x="108" y="165.863662" style="fill: #a9a9a9; stroke: #a9a9a9; stroke-width: 0.8"/>
      </g>
     </g>
     <g id="text_17">
      <!-- 4000 -->
      <g style="fill: #a9a9a9" transform="translate(75.55 169.662881) scale(0.1 -0.1)">
       <use xlink:href="#DejaVuSans-34"/>
       <use xlink:href="#DejaVuSans-30" transform="translate(63.623047 0)"/>
       <use xlink:href="#DejaVuSans-30" transform="translate(127.246094 0)"/>
       <use xlink:href="#DejaVuSans-30" transform="translate(190.869141 0)"/>
      </g>
     </g>
    </g>
    <g id="ytick_7">
     <g id="line2d_35">
      <path d="M 108 137.469296 
L 777.6 137.469296 
" clip-path="url(#p43b6567ac6)" style="fill: none; stroke-dasharray: 5.12,1.28,0.8,1.28; stroke-dashoffset: 0; stroke: #b0b0b0; stroke-width: 0.8"/>
     </g>
     <g id="line2d_36">
      <g>
       <use xlink:href="#m782b65594d" x="108" y="137.469296" style="fill: #a9a9a9; stroke: #a9a9a9; stroke-width: 0.8"/>
      </g>
     </g>
     <g id="text_18">
      <!-- 4800 -->
      <g style="fill: #a9a9a9" transform="translate(75.55 141.268515) scale(0.1 -0.1)">
       <use xlink:href="#DejaVuSans-34"/>
       <use xlink:href="#DejaVuSans-38" transform="translate(63.623047 0)"/>
       <use xlink:href="#DejaVuSans-30" transform="translate(127.246094 0)"/>
       <use xlink:href="#DejaVuSans-30" transform="translate(190.869141 0)"/>
      </g>
     </g>
    </g>
    <g id="ytick_8">
     <g id="line2d_37">
      <path d="M 108 109.07493 
L 777.6 109.07493 
" clip-path="url(#p43b6567ac6)" style="fill: none; stroke-dasharray: 5.12,1.28,0.8,1.28; stroke-dashoffset: 0; stroke: #b0b0b0; stroke-width: 0.8"/>
     </g>
     <g id="line2d_38">
      <g>
       <use xlink:href="#m782b65594d" x="108" y="109.07493" style="fill: #a9a9a9; stroke: #a9a9a9; stroke-width: 0.8"/>
      </g>
     </g>
     <g id="text_19">
      <!-- 5600 -->
      <g style="fill: #a9a9a9" transform="translate(75.55 112.874148) scale(0.1 -0.1)">
       <use xlink:href="#DejaVuSans-35"/>
       <use xlink:href="#DejaVuSans-36" transform="translate(63.623047 0)"/>
       <use xlink:href="#DejaVuSans-30" transform="translate(127.246094 0)"/>
       <use xlink:href="#DejaVuSans-30" transform="translate(190.869141 0)"/>
      </g>
     </g>
    </g>
    <g id="ytick_9">
     <g id="line2d_39">
      <path d="M 108 80.680563 
L 777.6 80.680563 
" clip-path="url(#p43b6567ac6)" style="fill: none; stroke-dasharray: 5.12,1.28,0.8,1.28; stroke-dashoffset: 0; stroke: #b0b0b0; stroke-width: 0.8"/>
     </g>
     <g id="line2d_40">
      <g>
       <use xlink:href="#m782b65594d" x="108" y="80.680563" style="fill: #a9a9a9; stroke: #a9a9a9; stroke-width: 0.8"/>
      </g>
     </g>
     <g id="text_20">
      <!-- 6400 -->
      <g style="fill: #a9a9a9" transform="translate(75.55 84.479782) scale(0.1 -0.1)">
       <use xlink:href="#DejaVuSans-36"/>
       <use xlink:href="#DejaVuSans-34" transform="translate(63.623047 0)"/>
       <use xlink:href="#DejaVuSans-30" transform="translate(127.246094 0)"/>
       <use xlink:href="#DejaVuSans-30" transform="translate(190.869141 0)"/>
      </g>
     </g>
    </g>
    <g id="ytick_10">
     <g id="line2d_41">
      <path d="M 108 52.286197 
L 777.6 52.286197 
" clip-path="url(#p43b6567ac6)" style="fill: none; stroke-dasharray: 5.12,1.28,0.8,1.28; stroke-dashoffset: 0; stroke: #b0b0b0; stroke-width: 0.8"/>
     </g>
     <g id="line2d_42">
      <g>
       <use xlink:href="#m782b65594d" x="108" y="52.286197" style="fill: #a9a9a9; stroke: #a9a9a9; stroke-width: 0.8"/>
      </g>
     </g>
     <g id="text_21">
      <!-- 7200 -->
      <g style="fill: #a9a9a9" transform="translate(75.55 56.085416) scale(0.1 -0.1)">
       <defs>
        <path id="DejaVuSans-37" d="M 525 4666 
L 3525 4666 
L 3525 4397 
L 1831 0 
L 1172 0 
L 2766 4134 
L 525 4134 
L 525 4666 
z
" transform="scale(0.015625)"/>
       </defs>
       <use xlink:href="#DejaVuSans-37"/>
       <use xlink:href="#DejaVuSans-32" transform="translate(63.623047 0)"/>
       <use xlink:href="#DejaVuSans-30" transform="translate(127.246094 0)"/>
       <use xlink:href="#DejaVuSans-30" transform="translate(190.869141 0)"/>
      </g>
     </g>
    </g>
   </g>
   <g id="line2d_43">
    <path d="M 138.436364 307.729014 
L 141.374709 307.480563 
L 141.864434 307.267606 
L 143.823331 307.019155 
L 145.782228 306.628732 
L 146.761676 306.486761 
L 149.210298 306.273803 
L 150.189746 305.88338 
L 150.67947 305.244507 
L 151.169195 304.889577 
L 151.658919 303.789296 
L 152.148643 303.71831 
L 152.638368 303.327887 
L 153.617816 302.830986 
L 155.576713 301.269296 
L 157.53561 300.310986 
L 159.004783 299.63662 
L 159.494507 298.855775 
L 160.473956 298.145915 
L 160.96368 297.932958 
L 165.860923 297.223099 
L 166.350647 297.010141 
L 169.778717 296.726197 
L 171.737614 296.264789 
L 175.655408 295.732394 
L 176.145133 295.483944 
L 176.634857 295.412958 
L 177.614306 295.093521 
L 181.042375 294.525634 
L 182.021824 294.24169 
L 186.429342 293.496338 
L 187.408791 293.28338 
L 188.38824 293.247887 
L 190.347137 292.786479 
L 190.836861 292.112113 
L 192.306034 291.544225 
L 193.775207 291.153803 
L 194.264931 290.905352 
L 195.244379 290.727887 
L 197.203277 290.16 
L 198.182725 290.089014 
L 199.162174 289.840563 
L 201.121071 289.343662 
L 201.610795 289.308169 
L 202.590244 288.846761 
L 203.079968 288.775775 
L 203.569692 288.527324 
L 208.956659 287.64 
L 210.915556 287.072113 
L 211.40528 286.752676 
L 213.853902 285.936338 
L 214.83335 285.261972 
L 216.302523 284.978028 
L 229.035354 281.393239 
L 229.525079 281.393239 
L 230.014803 281.180282 
L 230.994251 281.073803 
L 231.483976 280.896338 
L 233.442873 280.789859 
L 234.422321 280.612394 
L 235.40177 280.115493 
L 236.870943 279.583099 
L 237.360667 279.263662 
L 238.340116 278.837746 
L 238.82984 278.589296 
L 239.809288 278.269859 
L 240.299013 278.127887 
L 241.278461 277.524507 
L 241.768185 276.992113 
L 242.747634 275.501408 
L 243.237358 275.359437 
L 243.727083 275.359437 
L 245.196255 274.507606 
L 245.68598 274.259155 
L 246.175704 274.152676 
L 246.665428 273.691268 
L 247.644877 273.300845 
L 248.624325 272.839437 
L 249.11405 272.236056 
L 249.603774 271.455211 
L 250.093498 271.135775 
L 250.583222 270.283944 
L 251.072947 269.751549 
L 254.011292 268.189859 
L 254.990741 267.409014 
L 255.480465 267.089577 
L 255.970189 266.344225 
L 256.459914 265.243944 
L 256.949638 264.498592 
L 257.439362 264.108169 
L 257.929087 263.895211 
L 261.357156 260.984789 
L 262.336605 259.813521 
L 263.805778 258.784225 
L 265.764675 257.612958 
L 266.744123 257.080563 
L 268.703021 256.051268 
L 271.151642 253.850704 
L 272.13109 253.460282 
L 273.110539 252.785915 
L 273.600263 252.501972 
L 274.089988 252.430986 
L 275.55916 251.614648 
L 276.048885 251.082254 
L 278.497506 249.769014 
L 278.98723 249.591549 
L 280.456403 248.597746 
L 287.802267 246.006761 
L 288.781716 245.119437 
L 289.761164 244.658028 
L 290.740613 244.125634 
L 291.230337 243.84169 
L 292.209786 243.557746 
L 292.69951 243.23831 
L 293.189234 243.096338 
L 294.658407 242.138028 
L 297.107028 241.570141 
L 298.576201 240.71831 
L 300.045374 240.398873 
L 300.535098 240.256901 
L 302.004271 239.15662 
L 303.963168 238.624225 
L 304.452893 238.233803 
L 307.391238 237.24 
L 308.370687 237.062535 
L 309.350135 236.672113 
L 312.778205 235.429859 
L 313.757654 235.287887 
L 315.226827 234.790986 
L 317.675448 233.619718 
L 319.634345 232.55493 
L 323.552139 230.957746 
L 324.041864 230.886761 
L 325.021312 230.28338 
L 325.511036 230.212394 
L 327.469933 229.396056 
L 329.428831 229.147606 
L 330.408279 228.650704 
L 330.898003 228.224789 
L 331.387728 227.337465 
L 333.346625 226.80507 
L 334.815798 226.059718 
L 335.305522 225.953239 
L 339.223316 224.072113 
L 340.692489 223.788169 
L 341.671937 223.291268 
L 342.161662 223.07831 
L 342.651386 223.007324 
L 344.610283 222.12 
L 346.079456 221.197183 
L 347.548629 220.913239 
L 349.99725 220.309859 
L 350.486974 219.919437 
L 351.956147 219.387042 
L 353.915044 218.606197 
L 354.404769 218.251268 
L 354.894493 218.073803 
L 355.873941 217.541408 
L 358.322563 216.72507 
L 359.791736 215.553803 
L 360.28146 215.447324 
L 361.260908 214.666479 
L 361.750633 214.595493 
L 362.240357 213.814648 
L 362.730081 213.60169 
L 363.219805 213.211268 
L 363.70953 213.140282 
L 364.688978 212.536901 
L 365.668427 212.217465 
L 366.158151 211.862535 
L 366.647875 211.68507 
L 368.117048 210.655775 
L 370.075945 209.626479 
L 370.56567 209.555493 
L 372.034842 208.810141 
L 372.524567 207.993803 
L 373.504015 207.283944 
L 373.993739 207.177465 
L 374.973188 206.574085 
L 375.462912 206.467606 
L 376.442361 205.970704 
L 378.401258 205.012394 
L 378.890982 204.657465 
L 379.870431 203.699155 
L 380.849879 203.095775 
L 381.339604 202.776338 
L 381.829328 202.243944 
L 383.788225 200.895211 
L 384.277949 200.327324 
L 384.767674 199.936901 
L 385.747122 199.581972 
L 386.726571 198.907606 
L 388.195743 198.162254 
L 388.685468 198.091268 
L 390.154641 197.310423 
L 391.134089 196.707042 
L 396.031332 194.932394 
L 396.521056 194.541972 
L 398.479953 193.79662 
L 398.969677 193.654648 
L 399.949126 193.015775 
L 400.928575 192.589859 
L 401.908023 191.915493 
L 402.887472 189.96338 
L 403.86692 188.827606 
L 405.336093 188.082254 
L 406.315542 187.691831 
L 406.805266 187.620845 
L 407.29499 187.336901 
L 409.743611 186.556056 
L 410.233336 186.343099 
L 411.212784 185.668732 
L 412.681957 185.029859 
L 413.661406 184.497465 
L 414.15113 184.142535 
L 414.640854 183.929577 
L 415.130579 183.574648 
L 415.620303 183.042254 
L 416.599751 182.509859 
L 419.048373 181.19662 
L 421.986718 179.741408 
L 423.455891 179.315493 
L 424.925064 178.747606 
L 425.414788 178.392676 
L 426.394237 178.108732 
L 427.373685 177.71831 
L 427.86341 177.327887 
L 429.822307 176.653521 
L 430.801755 175.943662 
L 431.781204 175.517746 
L 432.760652 174.736901 
L 433.740101 174.381972 
L 434.229825 173.956056 
L 434.719549 173.88507 
L 435.698998 173.139718 
L 436.678447 172.642817 
L 437.168171 172.429859 
L 437.657895 171.932958 
L 441.085965 170.584225 
L 442.065414 170.15831 
L 443.534586 169.696901 
L 444.514035 169.55493 
L 445.003759 169.341972 
L 445.493484 169.270986 
L 446.472932 168.84507 
L 446.962656 168.809577 
L 448.921553 168.064225 
L 450.390726 167.03493 
L 450.880451 166.857465 
L 451.859899 166.32507 
L 452.349623 166.183099 
L 455.287969 164.550423 
L 455.777693 164.443944 
L 457.246866 163.592113 
L 458.716039 163.095211 
L 459.695487 162.775775 
L 461.654385 162.136901 
L 462.633833 161.817465 
L 464.59273 161.427042 
L 465.082454 161.214085 
L 465.572179 161.143099 
L 466.551627 160.717183 
L 467.041352 160.646197 
L 467.531076 160.397746 
L 468.510524 160.220282 
L 469.979697 159.687887 
L 470.959146 159.581408 
L 472.428319 159.261972 
L 474.87694 158.836056 
L 487.609771 155.144789 
L 488.099495 154.647887 
L 489.078944 154.257465 
L 492.996738 152.802254 
L 493.486462 152.51831 
L 494.955635 152.092394 
L 495.935084 151.843944 
L 496.424808 151.524507 
L 496.914532 151.418028 
L 497.404257 150.992113 
L 498.873429 150.708169 
L 499.852878 150.246761 
L 500.342602 149.678873 
L 502.301499 149.217465 
L 505.729569 148.507606 
L 506.219293 148.507606 
L 506.709018 148.294648 
L 508.667915 147.939718 
L 509.157639 147.726761 
L 511.116536 147.371831 
L 512.095985 146.945915 
L 513.075433 146.768451 
L 515.524055 146.16507 
L 517.482952 145.56169 
L 517.972676 145.455211 
L 518.4624 145.206761 
L 519.441849 144.95831 
L 519.931573 144.674366 
L 521.400746 144.177465 
L 521.89047 143.858028 
L 522.869919 143.574085 
L 526.787713 142.225352 
L 527.767162 142.154366 
L 529.726059 141.586479 
L 530.215783 141.302535 
L 531.195231 141.018592 
L 533.643853 139.91831 
L 534.133577 139.882817 
L 539.520544 138.00169 
L 541.969166 137.362817 
L 542.948614 136.901408 
L 544.417787 136.581972 
L 546.376684 134.984789 
L 547.356133 134.700845 
L 547.845857 134.310423 
L 550.784202 133.210141 
L 551.273927 132.890704 
L 552.253375 132.606761 
L 552.7431 132.287324 
L 555.191721 131.506479 
L 556.660894 130.654648 
L 557.150618 130.548169 
L 559.599239 129.23493 
L 561.068412 128.596056 
L 561.558136 128.241127 
L 562.537585 127.92169 
L 563.517034 127.353803 
L 564.006758 127.176338 
L 564.496482 126.821408 
L 570.862898 124.585352 
L 571.352622 124.478873 
L 571.842346 124.159437 
L 573.801243 123.769014 
L 574.780692 123.378592 
L 577.719038 121.958873 
L 578.208762 121.887887 
L 579.677935 121.071549 
L 581.147107 120.574648 
L 584.575177 119.190423 
L 585.064902 119.048451 
L 585.554626 118.729014 
L 586.534074 118.622535 
L 587.023799 118.303099 
L 588.003247 118.125634 
L 588.982696 117.664225 
L 589.47242 117.451268 
L 589.962144 117.380282 
L 592.410766 116.421972 
L 593.879939 116.031549 
L 594.859387 115.783099 
L 596.32856 115.357183 
L 597.308008 114.966761 
L 599.266906 113.901972 
L 600.246354 113.511549 
L 600.736078 113.192113 
L 601.715527 112.979155 
L 602.205251 112.695211 
L 602.694975 112.588732 
L 604.164148 111.772394 
L 605.143597 111.381972 
L 607.102494 110.63662 
L 609.551115 109.820282 
L 610.530564 109.32338 
L 612.979185 108.507042 
L 615.917531 107.335775 
L 617.876428 106.448451 
L 622.773671 104.567324 
L 623.263395 104.247887 
L 625.222292 103.573521 
L 625.712016 103.573521 
L 626.691465 103.147606 
L 628.650362 101.585915 
L 629.140086 101.443944 
L 629.629811 101.124507 
L 630.119535 101.018028 
L 630.609259 100.769577 
L 631.098983 100.698592 
L 631.588708 100.343662 
L 632.078432 100.237183 
L 633.05788 99.633803 
L 634.527053 98.888451 
L 635.506502 98.498028 
L 635.996226 98.249577 
L 637.465399 97.930141 
L 639.91402 97.113803 
L 640.893469 96.794366 
L 642.362642 96.049014 
L 643.34209 95.587606 
L 644.321539 95.339155 
L 645.790712 94.664789 
L 650.19823 93.067606 
L 651.667403 92.180282 
L 652.157127 92.073803 
L 653.136576 91.576901 
L 654.116024 91.221972 
L 654.605749 90.796056 
L 655.585197 90.405634 
L 658.523543 89.234366 
L 659.992716 88.808451 
L 660.48244 88.56 
L 660.972164 88.489014 
L 662.441337 87.95662 
L 663.91051 87.424225 
L 664.889958 87.033803 
L 665.379683 86.64338 
L 666.848855 86.252958 
L 667.33858 85.969014 
L 668.318028 85.720563 
L 669.787201 84.904225 
L 670.276925 84.868732 
L 671.746098 84.407324 
L 672.725547 84.336338 
L 673.704995 83.945915 
L 676.643341 83.094085 
L 677.622789 83.058592 
L 681.540584 81.816338 
L 682.520032 81.283944 
L 683.009756 80.858028 
L 684.478929 80.006197 
L 685.458378 79.402817 
L 688.396723 78.48 
L 688.886448 78.089577 
L 691.824793 76.882817 
L 693.78369 76.350423 
L 694.763139 75.924507 
L 695.252863 75.676056 
L 696.232312 75.392113 
L 696.722036 75.108169 
L 697.701485 74.930704 
L 700.150106 73.79493 
L 700.63983 73.510986 
L 702.109003 73.156056 
L 702.598727 72.83662 
L 703.088452 72.659155 
L 703.578176 72.233239 
L 704.0679 72.162254 
L 706.516522 71.203944 
L 707.985694 70.884507 
L 708.475419 70.813521 
L 708.965143 70.600563 
L 709.454867 70.56507 
L 710.434316 70.245634 
L 710.92404 70.210141 
L 712.393213 69.642254 
L 714.35211 69.074366 
L 715.331559 68.293521 
L 717.290456 67.228732 
L 718.759628 66.731831 
L 721.697974 65.418592 
L 722.677423 64.886197 
L 723.167147 64.637746 
L 723.656871 64.176338 
L 726.595217 63.218028 
L 727.574665 62.827606 
L 728.554114 62.543662 
L 729.043838 62.295211 
L 729.533562 61.833803 
L 731.49246 61.336901 
L 731.982184 60.981972 
L 738.348599 58.67493 
L 739.328048 58.497465 
L 743.735566 56.971268 
L 744.715015 56.722817 
L 745.204739 56.509859 
L 745.694464 56.474366 
L 746.673912 56.083944 
L 747.163636 55.8 
L 747.163636 55.8 
" clip-path="url(#p43b6567ac6)" style="fill: none; stroke: #1f77b4; stroke-width: 1.5; stroke-linecap: square"/>
   </g>
   <g id="line2d_44">
    <path d="M 138.926088 307.8 
L 143.333606 307.693521 
L 147.251401 307.516056 
L 149.210298 307.516056 
L 149.700022 307.374085 
L 152.148643 307.267606 
L 155.086989 306.948169 
L 158.025335 306.84169 
L 159.004783 306.735211 
L 162.432853 306.593239 
L 165.860923 306.486761 
L 168.309544 306.415775 
L 174.67596 306.309296 
L 177.124581 306.23831 
L 180.552651 306.131831 
L 183.001273 306.060845 
L 188.38824 305.954366 
L 190.347137 305.776901 
L 192.306034 305.741408 
L 195.244379 305.63493 
L 197.203277 305.599437 
L 199.651898 305.528451 
L 201.610795 305.350986 
L 206.018313 305.244507 
L 206.997762 305.173521 
L 208.956659 305.067042 
L 211.895005 304.960563 
L 213.853902 304.854085 
L 222.668939 304.32169 
L 226.097009 304.215211 
L 227.566182 304.073239 
L 230.014803 303.966761 
L 234.912046 303.71831 
L 239.809288 303.647324 
L 241.768185 303.434366 
L 243.727083 303.327887 
L 249.11405 302.830986 
L 252.54212 302.440563 
L 254.011292 302.369577 
L 258.418811 301.837183 
L 260.867432 301.766197 
L 262.336605 301.624225 
L 263.805778 301.517746 
L 277.518057 300.488451 
L 278.497506 300.310986 
L 281.435852 300.204507 
L 289.27144 299.743099 
L 292.69951 299.63662 
L 294.658407 299.423662 
L 297.107028 299.317183 
L 300.045374 299.210704 
L 302.493995 299.104225 
L 304.452893 299.068732 
L 306.901514 298.997746 
L 307.880962 298.855775 
L 314.737102 298.749296 
L 315.716551 298.642817 
L 321.593242 298.536338 
L 326.000761 298.32338 
L 329.428831 298.216901 
L 331.387728 298.003944 
L 334.815798 297.897465 
L 335.795246 297.72 
L 338.243867 297.649014 
L 343.14111 297.578028 
L 345.589732 297.329577 
L 348.528077 297.223099 
L 350.486974 297.045634 
L 355.384217 296.797183 
L 360.28146 296.690704 
L 364.688978 296.477746 
L 366.158151 296.442254 
L 367.1376 296.300282 
L 369.586221 296.193803 
L 370.56567 296.122817 
L 371.545118 296.051831 
L 372.524567 295.980845 
L 376.932085 295.909859 
L 378.401258 295.80338 
L 391.623813 294.951549 
L 394.072435 294.84507 
L 396.521056 294.774085 
L 403.377196 294.667606 
L 404.356644 294.525634 
L 411.212784 294.419155 
L 416.110027 294.170704 
L 417.089476 294.135211 
L 418.068924 294.028732 
L 420.517546 293.922254 
L 422.966167 293.851268 
L 425.414788 293.744789 
L 427.86341 293.673803 
L 432.270928 293.567324 
L 435.209274 293.460845 
L 442.065414 293.354366 
L 447.452381 293.070423 
L 449.411278 292.999437 
L 450.880451 292.892958 
L 457.73659 292.786479 
L 460.674936 292.68 
L 469.489973 292.573521 
L 471.44887 292.538028 
L 477.325561 292.467042 
L 478.30501 292.396056 
L 485.16115 292.289577 
L 487.120047 292.254085 
L 499.852878 292.147606 
L 501.322051 292.005634 
L 523.359643 291.899155 
L 525.808264 291.828169 
L 538.541096 291.72169 
L 539.520544 291.650704 
L 541.969166 291.579718 
L 543.438338 291.437746 
L 546.376684 291.331268 
L 549.804754 291.189296 
L 554.212272 291.082817 
L 556.660894 291.011831 
L 560.088964 290.905352 
L 564.006758 290.727887 
L 566.455379 290.621408 
L 568.414276 290.585915 
L 572.821795 290.479437 
L 574.780692 290.443944 
L 581.147107 290.337465 
L 583.106005 290.301972 
L 585.554626 290.195493 
L 588.492972 290.089014 
L 591.921041 290.018028 
L 592.90049 289.947042 
L 604.653873 289.840563 
L 611.020288 289.485634 
L 613.46891 289.414648 
L 614.448358 289.308169 
L 615.427807 289.237183 
L 619.345601 289.130704 
L 622.283946 289.024225 
L 627.181189 288.917746 
L 629.629811 288.669296 
L 634.527053 288.562817 
L 635.506502 288.456338 
L 640.403745 288.349859 
L 642.852366 288.278873 
L 648.239333 288.24338 
L 649.218782 288.136901 
L 654.605749 288.030423 
L 655.585197 287.959437 
L 666.359131 287.852958 
L 669.297477 287.746479 
L 676.643341 287.64 
L 678.602238 287.604507 
L 683.009756 287.533521 
L 683.989205 287.427042 
L 690.355621 287.320563 
L 692.804242 287.249577 
L 701.619279 287.143099 
L 703.088452 287.03662 
L 704.557625 286.930141 
L 706.026797 286.823662 
L 713.372661 286.717183 
L 716.800731 286.575211 
L 729.533562 286.468732 
L 733.941081 286.255775 
L 739.817772 286.149296 
L 740.797221 286.042817 
L 747.163636 285.936338 
L 747.163636 285.936338 
" clip-path="url(#p43b6567ac6)" style="fill: none; stroke: #ff7f0e; stroke-width: 1.5; stroke-linecap: square"/>
   </g>
   <g id="patch_3">
    <path d="M 108 320.4 
L 108 43.2 
" style="fill: none; stroke: #a9a9a9; stroke-width: 0.8; stroke-linejoin: miter; stroke-linecap: square"/>
   </g>
   <g id="patch_4">
    <path d="M 777.6 320.4 
L 777.6 43.2 
" style="fill: none"/>
   </g>
   <g id="patch_5">
    <path d="M 108 320.4 
L 777.6 320.4 
" style="fill: none; stroke: #a9a9a9; stroke-width: 0.8; stroke-linejoin: miter; stroke-linecap: square"/>
   </g>
   <g id="patch_6">
    <path d="M 108 43.2 
L 777.6 43.2 
" style="fill: none"/>
   </g>
   <g id="text_22">
    <!-- get_subscribe history -->
    <g style="fill: #a9a9a9" transform="translate(378.6075 37.2) scale(0.12 -0.12)">
     <defs>
      <path id="DejaVuSans-67" d="M 2906 1791 
Q 2906 2416 2648 2759 
Q 2391 3103 1925 3103 
Q 1463 3103 1205 2759 
Q 947 2416 947 1791 
Q 947 1169 1205 825 
Q 1463 481 1925 481 
Q 2391 481 2648 825 
Q 2906 1169 2906 1791 
z
M 3481 434 
Q 3481 -459 3084 -895 
Q 2688 -1331 1869 -1331 
Q 1566 -1331 1297 -1286 
Q 1028 -1241 775 -1147 
L 775 -588 
Q 1028 -725 1275 -790 
Q 1522 -856 1778 -856 
Q 2344 -856 2625 -561 
Q 2906 -266 2906 331 
L 2906 616 
Q 2728 306 2450 153 
Q 2172 0 1784 0 
Q 1141 0 747 490 
Q 353 981 353 1791 
Q 353 2603 747 3093 
Q 1141 3584 1784 3584 
Q 2172 3584 2450 3431 
Q 2728 3278 2906 2969 
L 2906 3500 
L 3481 3500 
L 3481 434 
z
" transform="scale(0.015625)"/>
      <path id="DejaVuSans-65" d="M 3597 1894 
L 3597 1613 
L 953 1613 
Q 991 1019 1311 708 
Q 1631 397 2203 397 
Q 2534 397 2845 478 
Q 3156 559 3463 722 
L 3463 178 
Q 3153 47 2828 -22 
Q 2503 -91 2169 -91 
Q 1331 -91 842 396 
Q 353 884 353 1716 
Q 353 2575 817 3079 
Q 1281 3584 2069 3584 
Q 2775 3584 3186 3129 
Q 3597 2675 3597 1894 
z
M 3022 2063 
Q 3016 2534 2758 2815 
Q 2500 3097 2075 3097 
Q 1594 3097 1305 2825 
Q 1016 2553 972 2059 
L 3022 2063 
z
" transform="scale(0.015625)"/>
      <path id="DejaVuSans-74" d="M 1172 4494 
L 1172 3500 
L 2356 3500 
L 2356 3053 
L 1172 3053 
L 1172 1153 
Q 1172 725 1289 603 
Q 1406 481 1766 481 
L 2356 481 
L 2356 0 
L 1766 0 
Q 1100 0 847 248 
Q 594 497 594 1153 
L 594 3053 
L 172 3053 
L 172 3500 
L 594 3500 
L 594 4494 
L 1172 4494 
z
" transform="scale(0.015625)"/>
      <path id="DejaVuSans-5f" d="M 3263 -1063 
L 3263 -1509 
L -63 -1509 
L -63 -1063 
L 3263 -1063 
z
" transform="scale(0.015625)"/>
      <path id="DejaVuSans-73" d="M 2834 3397 
L 2834 2853 
Q 2591 2978 2328 3040 
Q 2066 3103 1784 3103 
Q 1356 3103 1142 2972 
Q 928 2841 928 2578 
Q 928 2378 1081 2264 
Q 1234 2150 1697 2047 
L 1894 2003 
Q 2506 1872 2764 1633 
Q 3022 1394 3022 966 
Q 3022 478 2636 193 
Q 2250 -91 1575 -91 
Q 1294 -91 989 -36 
Q 684 19 347 128 
L 347 722 
Q 666 556 975 473 
Q 1284 391 1588 391 
Q 1994 391 2212 530 
Q 2431 669 2431 922 
Q 2431 1156 2273 1281 
Q 2116 1406 1581 1522 
L 1381 1569 
Q 847 1681 609 1914 
Q 372 2147 372 2553 
Q 372 3047 722 3315 
Q 1072 3584 1716 3584 
Q 2034 3584 2315 3537 
Q 2597 3491 2834 3397 
z
" transform="scale(0.015625)"/>
      <path id="DejaVuSans-75" d="M 544 1381 
L 544 3500 
L 1119 3500 
L 1119 1403 
Q 1119 906 1312 657 
Q 1506 409 1894 409 
Q 2359 409 2629 706 
Q 2900 1003 2900 1516 
L 2900 3500 
L 3475 3500 
L 3475 0 
L 2900 0 
L 2900 538 
Q 2691 219 2414 64 
Q 2138 -91 1772 -91 
Q 1169 -91 856 284 
Q 544 659 544 1381 
z
M 1991 3584 
L 1991 3584 
z
" transform="scale(0.015625)"/>
      <path id="DejaVuSans-62" d="M 3116 1747 
Q 3116 2381 2855 2742 
Q 2594 3103 2138 3103 
Q 1681 3103 1420 2742 
Q 1159 2381 1159 1747 
Q 1159 1113 1420 752 
Q 1681 391 2138 391 
Q 2594 391 2855 752 
Q 3116 1113 3116 1747 
z
M 1159 2969 
Q 1341 3281 1617 3432 
Q 1894 3584 2278 3584 
Q 2916 3584 3314 3078 
Q 3713 2572 3713 1747 
Q 3713 922 3314 415 
Q 2916 -91 2278 -91 
Q 1894 -91 1617 61 
Q 1341 213 1159 525 
L 1159 0 
L 581 0 
L 581 4863 
L 1159 4863 
L 1159 2969 
z
" transform="scale(0.015625)"/>
      <path id="DejaVuSans-63" d="M 3122 3366 
L 3122 2828 
Q 2878 2963 2633 3030 
Q 2388 3097 2138 3097 
Q 1578 3097 1268 2742 
Q 959 2388 959 1747 
Q 959 1106 1268 751 
Q 1578 397 2138 397 
Q 2388 397 2633 464 
Q 2878 531 3122 666 
L 3122 134 
Q 2881 22 2623 -34 
Q 2366 -91 2075 -91 
Q 1284 -91 818 406 
Q 353 903 353 1747 
Q 353 2603 823 3093 
Q 1294 3584 2113 3584 
Q 2378 3584 2631 3529 
Q 2884 3475 3122 3366 
z
" transform="scale(0.015625)"/>
      <path id="DejaVuSans-72" d="M 2631 2963 
Q 2534 3019 2420 3045 
Q 2306 3072 2169 3072 
Q 1681 3072 1420 2755 
Q 1159 2438 1159 1844 
L 1159 0 
L 581 0 
L 581 3500 
L 1159 3500 
L 1159 2956 
Q 1341 3275 1631 3429 
Q 1922 3584 2338 3584 
Q 2397 3584 2469 3576 
Q 2541 3569 2628 3553 
L 2631 2963 
z
" transform="scale(0.015625)"/>
      <path id="DejaVuSans-69" d="M 603 3500 
L 1178 3500 
L 1178 0 
L 603 0 
L 603 3500 
z
M 603 4863 
L 1178 4863 
L 1178 4134 
L 603 4134 
L 603 4863 
z
" transform="scale(0.015625)"/>
      <path id="DejaVuSans-20" transform="scale(0.015625)"/>
      <path id="DejaVuSans-68" d="M 3513 2113 
L 3513 0 
L 2938 0 
L 2938 2094 
Q 2938 2591 2744 2837 
Q 2550 3084 2163 3084 
Q 1697 3084 1428 2787 
Q 1159 2491 1159 1978 
L 1159 0 
L 581 0 
L 581 4863 
L 1159 4863 
L 1159 2956 
Q 1366 3272 1645 3428 
Q 1925 3584 2291 3584 
Q 2894 3584 3203 3211 
Q 3513 2838 3513 2113 
z
" transform="scale(0.015625)"/>
      <path id="DejaVuSans-6f" d="M 1959 3097 
Q 1497 3097 1228 2736 
Q 959 2375 959 1747 
Q 959 1119 1226 758 
Q 1494 397 1959 397 
Q 2419 397 2687 759 
Q 2956 1122 2956 1747 
Q 2956 2369 2687 2733 
Q 2419 3097 1959 3097 
z
M 1959 3584 
Q 2709 3584 3137 3096 
Q 3566 2609 3566 1747 
Q 3566 888 3137 398 
Q 2709 -91 1959 -91 
Q 1206 -91 779 398 
Q 353 888 353 1747 
Q 353 2609 779 3096 
Q 1206 3584 1959 3584 
z
" transform="scale(0.015625)"/>
      <path id="DejaVuSans-79" d="M 2059 -325 
Q 1816 -950 1584 -1140 
Q 1353 -1331 966 -1331 
L 506 -1331 
L 506 -850 
L 844 -850 
Q 1081 -850 1212 -737 
Q 1344 -625 1503 -206 
L 1606 56 
L 191 3500 
L 800 3500 
L 1894 763 
L 2988 3500 
L 3597 3500 
L 2059 -325 
z
" transform="scale(0.015625)"/>
     </defs>
     <use xlink:href="#DejaVuSans-67"/>
     <use xlink:href="#DejaVuSans-65" transform="translate(63.476562 0)"/>
     <use xlink:href="#DejaVuSans-74" transform="translate(125 0)"/>
     <use xlink:href="#DejaVuSans-5f" transform="translate(164.208984 0)"/>
     <use xlink:href="#DejaVuSans-73" transform="translate(214.208984 0)"/>
     <use xlink:href="#DejaVuSans-75" transform="translate(266.308594 0)"/>
     <use xlink:href="#DejaVuSans-62" transform="translate(329.6875 0)"/>
     <use xlink:href="#DejaVuSans-73" transform="translate(393.164062 0)"/>
     <use xlink:href="#DejaVuSans-63" transform="translate(445.263672 0)"/>
     <use xlink:href="#DejaVuSans-72" transform="translate(500.244141 0)"/>
     <use xlink:href="#DejaVuSans-69" transform="translate(541.357422 0)"/>
     <use xlink:href="#DejaVuSans-62" transform="translate(569.140625 0)"/>
     <use xlink:href="#DejaVuSans-65" transform="translate(632.617188 0)"/>
     <use xlink:href="#DejaVuSans-20" transform="translate(694.140625 0)"/>
     <use xlink:href="#DejaVuSans-68" transform="translate(725.927734 0)"/>
     <use xlink:href="#DejaVuSans-69" transform="translate(789.306641 0)"/>
     <use xlink:href="#DejaVuSans-73" transform="translate(817.089844 0)"/>
     <use xlink:href="#DejaVuSans-74" transform="translate(869.189453 0)"/>
     <use xlink:href="#DejaVuSans-6f" transform="translate(908.398438 0)"/>
     <use xlink:href="#DejaVuSans-72" transform="translate(969.580078 0)"/>
     <use xlink:href="#DejaVuSans-79" transform="translate(1010.693359 0)"/>
    </g>
   </g>
   <g id="legend_1">
    <g id="line2d_45">
     <path d="M 815.08 328.498438 
L 825.08 328.498438 
L 835.08 328.498438 
" style="fill: none; stroke: #1f77b4; stroke-width: 1.5; stroke-linecap: square"/>
    </g>
    <g id="text_23">
     <!-- star -->
     <g style="fill: #a9a9a9" transform="translate(843.08 331.998438) scale(0.1 -0.1)">
      <defs>
       <path id="DejaVuSans-61" d="M 2194 1759 
Q 1497 1759 1228 1600 
Q 959 1441 959 1056 
Q 959 750 1161 570 
Q 1363 391 1709 391 
Q 2188 391 2477 730 
Q 2766 1069 2766 1631 
L 2766 1759 
L 2194 1759 
z
M 3341 1997 
L 3341 0 
L 2766 0 
L 2766 531 
Q 2569 213 2275 61 
Q 1981 -91 1556 -91 
Q 1019 -91 701 211 
Q 384 513 384 1019 
Q 384 1609 779 1909 
Q 1175 2209 1959 2209 
L 2766 2209 
L 2766 2266 
Q 2766 2663 2505 2880 
Q 2244 3097 1772 3097 
Q 1472 3097 1187 3025 
Q 903 2953 641 2809 
L 641 3341 
Q 956 3463 1253 3523 
Q 1550 3584 1831 3584 
Q 2591 3584 2966 3190 
Q 3341 2797 3341 1997 
z
" transform="scale(0.015625)"/>
      </defs>
      <use xlink:href="#DejaVuSans-73"/>
      <use xlink:href="#DejaVuSans-74" transform="translate(52.099609 0)"/>
      <use xlink:href="#DejaVuSans-61" transform="translate(91.308594 0)"/>
      <use xlink:href="#DejaVuSans-72" transform="translate(152.587891 0)"/>
     </g>
    </g>
    <g id="line2d_46">
     <path d="M 815.08 343.176562 
L 825.08 343.176562 
L 835.08 343.176562 
" style="fill: none; stroke: #ff7f0e; stroke-width: 1.5; stroke-linecap: square"/>
    </g>
    <g id="text_24">
     <!-- fork -->
     <g style="fill: #a9a9a9" transform="translate(843.08 346.676562) scale(0.1 -0.1)">
      <defs>
       <path id="DejaVuSans-66" d="M 2375 4863 
L 2375 4384 
L 1825 4384 
Q 1516 4384 1395 4259 
Q 1275 4134 1275 3809 
L 1275 3500 
L 2222 3500 
L 2222 3053 
L 1275 3053 
L 1275 0 
L 697 0 
L 697 3053 
L 147 3053 
L 147 3500 
L 697 3500 
L 697 3744 
Q 697 4328 969 4595 
Q 1241 4863 1831 4863 
L 2375 4863 
z
" transform="scale(0.015625)"/>
       <path id="DejaVuSans-6b" d="M 581 4863 
L 1159 4863 
L 1159 1991 
L 2875 3500 
L 3609 3500 
L 1753 1863 
L 3688 0 
L 2938 0 
L 1159 1709 
L 1159 0 
L 581 0 
L 581 4863 
z
" transform="scale(0.015625)"/>
      </defs>
      <use xlink:href="#DejaVuSans-66"/>
      <use xlink:href="#DejaVuSans-6f" transform="translate(35.205078 0)"/>
      <use xlink:href="#DejaVuSans-72" transform="translate(96.386719 0)"/>
      <use xlink:href="#DejaVuSans-6b" transform="translate(137.5 0)"/>
     </g>
    </g>
   </g>
  </g>
 </g>
 <defs>
  <clipPath id="p43b6567ac6">
   <rect x="108" y="43.2" width="669.6" height="277.2"/>
  </clipPath>
 </defs>
</svg>
