<?xml version="1.0" encoding="utf-8" standalone="no"?>
<!DOCTYPE svg PUBLIC "-//W3C//DTD SVG 1.1//EN"
  "http://www.w3.org/Graphics/SVG/1.1/DTD/svg11.dtd">
<svg xmlns:xlink="http://www.w3.org/1999/xlink" width="864pt" height="360pt" viewBox="0 0 864 360" xmlns="http://www.w3.org/2000/svg" version="1.1">
 <metadata>
  <rdf:RDF xmlns:dc="http://purl.org/dc/elements/1.1/" xmlns:cc="http://creativecommons.org/ns#" xmlns:rdf="http://www.w3.org/1999/02/22-rdf-syntax-ns#">
   <cc:Work>
    <dc:type rdf:resource="http://purl.org/dc/dcmitype/StillImage"/>
    <dc:date>2024-12-12T02:23:30.782393</dc:date>
    <dc:format>image/svg+xml</dc:format>
    <dc:creator>
     <cc:Agent>
      <dc:title>Matplotlib v3.9.3, https://matplotlib.org/</dc:title>
     </cc:Agent>
    </dc:creator>
   </cc:Work>
  </rdf:RDF>
 </metadata>
 <defs>
  <style type="text/css">*{stroke-linejoin: round; stroke-linecap: butt}</style>
 </defs>
 <g id="figure_1">
  <g id="patch_1">
   <path d="M 0 360 
L 864 360 
L 864 0 
L 0 0 
L 0 360 
z
" style="fill: none; opacity: 0"/>
  </g>
  <g id="axes_1">
   <g id="patch_2">
    <path d="M 108 320.4 
L 777.6 320.4 
L 777.6 43.2 
L 108 43.2 
L 108 320.4 
z
" style="fill: none; opacity: 0"/>
   </g>
   <g id="matplotlib.axis_1">
    <g id="xtick_1">
     <g id="line2d_1">
      <path d="M 157.62825 320.4 
L 157.62825 43.2 
" clip-path="url(#p13d2d07c19)" style="fill: none; stroke-dasharray: 5.12,1.28,0.8,1.28; stroke-dashoffset: 0; stroke: #b0b0b0; stroke-width: 0.8"/>
     </g>
     <g id="line2d_2">
      <defs>
       <path id="mf870535958" d="M 0 0 
L 0 3.5 
" style="stroke: #a9a9a9; stroke-width: 0.8"/>
      </defs>
      <g>
       <use xlink:href="#mf870535958" x="157.62825" y="320.4" style="fill: #a9a9a9; stroke: #a9a9a9; stroke-width: 0.8"/>
      </g>
     </g>
     <g id="text_1">
      <!-- 2021-09 -->
      <g style="fill: #a9a9a9" transform="translate(136.736844 334.998438) scale(0.1 -0.1)">
       <defs>
        <path id="DejaVuSans-32" d="M 1228 531 
L 3431 531 
L 3431 0 
L 469 0 
L 469 531 
Q 828 903 1448 1529 
Q 2069 2156 2228 2338 
Q 2531 2678 2651 2914 
Q 2772 3150 2772 3378 
Q 2772 3750 2511 3984 
Q 2250 4219 1831 4219 
Q 1534 4219 1204 4116 
Q 875 4013 500 3803 
L 500 4441 
Q 881 4594 1212 4672 
Q 1544 4750 1819 4750 
Q 2544 4750 2975 4387 
Q 3406 4025 3406 3419 
Q 3406 3131 3298 2873 
Q 3191 2616 2906 2266 
Q 2828 2175 2409 1742 
Q 1991 1309 1228 531 
z
" transform="scale(0.015625)"/>
        <path id="DejaVuSans-30" d="M 2034 4250 
Q 1547 4250 1301 3770 
Q 1056 3291 1056 2328 
Q 1056 1369 1301 889 
Q 1547 409 2034 409 
Q 2525 409 2770 889 
Q 3016 1369 3016 2328 
Q 3016 3291 2770 3770 
Q 2525 4250 2034 4250 
z
M 2034 4750 
Q 2819 4750 3233 4129 
Q 3647 3509 3647 2328 
Q 3647 1150 3233 529 
Q 2819 -91 2034 -91 
Q 1250 -91 836 529 
Q 422 1150 422 2328 
Q 422 3509 836 4129 
Q 1250 4750 2034 4750 
z
" transform="scale(0.015625)"/>
        <path id="DejaVuSans-31" d="M 794 531 
L 1825 531 
L 1825 4091 
L 703 3866 
L 703 4441 
L 1819 4666 
L 2450 4666 
L 2450 531 
L 3481 531 
L 3481 0 
L 794 0 
L 794 531 
z
" transform="scale(0.015625)"/>
        <path id="DejaVuSans-2d" d="M 313 2009 
L 1997 2009 
L 1997 1497 
L 313 1497 
L 313 2009 
z
" transform="scale(0.015625)"/>
        <path id="DejaVuSans-39" d="M 703 97 
L 703 672 
Q 941 559 1184 500 
Q 1428 441 1663 441 
Q 2288 441 2617 861 
Q 2947 1281 2994 2138 
Q 2813 1869 2534 1725 
Q 2256 1581 1919 1581 
Q 1219 1581 811 2004 
Q 403 2428 403 3163 
Q 403 3881 828 4315 
Q 1253 4750 1959 4750 
Q 2769 4750 3195 4129 
Q 3622 3509 3622 2328 
Q 3622 1225 3098 567 
Q 2575 -91 1691 -91 
Q 1453 -91 1209 -44 
Q 966 3 703 97 
z
M 1959 2075 
Q 2384 2075 2632 2365 
Q 2881 2656 2881 3163 
Q 2881 3666 2632 3958 
Q 2384 4250 1959 4250 
Q 1534 4250 1286 3958 
Q 1038 3666 1038 3163 
Q 1038 2656 1286 2365 
Q 1534 2075 1959 2075 
z
" transform="scale(0.015625)"/>
       </defs>
       <use xlink:href="#DejaVuSans-32"/>
       <use xlink:href="#DejaVuSans-30" x="63.623047"/>
       <use xlink:href="#DejaVuSans-32" x="127.246094"/>
       <use xlink:href="#DejaVuSans-31" x="190.869141"/>
       <use xlink:href="#DejaVuSans-2d" x="254.492188"/>
       <use xlink:href="#DejaVuSans-30" x="290.576172"/>
       <use xlink:href="#DejaVuSans-39" x="354.199219"/>
      </g>
     </g>
    </g>
    <g id="xtick_2">
     <g id="line2d_3">
      <path d="M 217.664408 320.4 
L 217.664408 43.2 
" clip-path="url(#p13d2d07c19)" style="fill: none; stroke-dasharray: 5.12,1.28,0.8,1.28; stroke-dashoffset: 0; stroke: #b0b0b0; stroke-width: 0.8"/>
     </g>
     <g id="line2d_4">
      <g>
       <use xlink:href="#mf870535958" x="217.664408" y="320.4" style="fill: #a9a9a9; stroke: #a9a9a9; stroke-width: 0.8"/>
      </g>
     </g>
     <g id="text_2">
      <!-- 2022-01 -->
      <g style="fill: #a9a9a9" transform="translate(196.773002 334.998438) scale(0.1 -0.1)">
       <use xlink:href="#DejaVuSans-32"/>
       <use xlink:href="#DejaVuSans-30" x="63.623047"/>
       <use xlink:href="#DejaVuSans-32" x="127.246094"/>
       <use xlink:href="#DejaVuSans-32" x="190.869141"/>
       <use xlink:href="#DejaVuSans-2d" x="254.492188"/>
       <use xlink:href="#DejaVuSans-30" x="290.576172"/>
       <use xlink:href="#DejaVuSans-31" x="354.199219"/>
      </g>
     </g>
    </g>
    <g id="xtick_3">
     <g id="line2d_5">
      <path d="M 276.716367 320.4 
L 276.716367 43.2 
" clip-path="url(#p13d2d07c19)" style="fill: none; stroke-dasharray: 5.12,1.28,0.8,1.28; stroke-dashoffset: 0; stroke: #b0b0b0; stroke-width: 0.8"/>
     </g>
     <g id="line2d_6">
      <g>
       <use xlink:href="#mf870535958" x="276.716367" y="320.4" style="fill: #a9a9a9; stroke: #a9a9a9; stroke-width: 0.8"/>
      </g>
     </g>
     <g id="text_3">
      <!-- 2022-05 -->
      <g style="fill: #a9a9a9" transform="translate(255.82496 334.998438) scale(0.1 -0.1)">
       <defs>
        <path id="DejaVuSans-35" d="M 691 4666 
L 3169 4666 
L 3169 4134 
L 1269 4134 
L 1269 2991 
Q 1406 3038 1543 3061 
Q 1681 3084 1819 3084 
Q 2600 3084 3056 2656 
Q 3513 2228 3513 1497 
Q 3513 744 3044 326 
Q 2575 -91 1722 -91 
Q 1428 -91 1123 -41 
Q 819 9 494 109 
L 494 744 
Q 775 591 1075 516 
Q 1375 441 1709 441 
Q 2250 441 2565 725 
Q 2881 1009 2881 1497 
Q 2881 1984 2565 2268 
Q 2250 2553 1709 2553 
Q 1456 2553 1204 2497 
Q 953 2441 691 2322 
L 691 4666 
z
" transform="scale(0.015625)"/>
       </defs>
       <use xlink:href="#DejaVuSans-32"/>
       <use xlink:href="#DejaVuSans-30" x="63.623047"/>
       <use xlink:href="#DejaVuSans-32" x="127.246094"/>
       <use xlink:href="#DejaVuSans-32" x="190.869141"/>
       <use xlink:href="#DejaVuSans-2d" x="254.492188"/>
       <use xlink:href="#DejaVuSans-30" x="290.576172"/>
       <use xlink:href="#DejaVuSans-35" x="354.199219"/>
      </g>
     </g>
    </g>
    <g id="xtick_4">
     <g id="line2d_7">
      <path d="M 337.244624 320.4 
L 337.244624 43.2 
" clip-path="url(#p13d2d07c19)" style="fill: none; stroke-dasharray: 5.12,1.28,0.8,1.28; stroke-dashoffset: 0; stroke: #b0b0b0; stroke-width: 0.8"/>
     </g>
     <g id="line2d_8">
      <g>
       <use xlink:href="#mf870535958" x="337.244624" y="320.4" style="fill: #a9a9a9; stroke: #a9a9a9; stroke-width: 0.8"/>
      </g>
     </g>
     <g id="text_4">
      <!-- 2022-09 -->
      <g style="fill: #a9a9a9" transform="translate(316.353218 334.998438) scale(0.1 -0.1)">
       <use xlink:href="#DejaVuSans-32"/>
       <use xlink:href="#DejaVuSans-30" x="63.623047"/>
       <use xlink:href="#DejaVuSans-32" x="127.246094"/>
       <use xlink:href="#DejaVuSans-32" x="190.869141"/>
       <use xlink:href="#DejaVuSans-2d" x="254.492188"/>
       <use xlink:href="#DejaVuSans-30" x="290.576172"/>
       <use xlink:href="#DejaVuSans-39" x="354.199219"/>
      </g>
     </g>
    </g>
    <g id="xtick_5">
     <g id="line2d_9">
      <path d="M 397.280782 320.4 
L 397.280782 43.2 
" clip-path="url(#p13d2d07c19)" style="fill: none; stroke-dasharray: 5.12,1.28,0.8,1.28; stroke-dashoffset: 0; stroke: #b0b0b0; stroke-width: 0.8"/>
     </g>
     <g id="line2d_10">
      <g>
       <use xlink:href="#mf870535958" x="397.280782" y="320.4" style="fill: #a9a9a9; stroke: #a9a9a9; stroke-width: 0.8"/>
      </g>
     </g>
     <g id="text_5">
      <!-- 2023-01 -->
      <g style="fill: #a9a9a9" transform="translate(376.389376 334.998438) scale(0.1 -0.1)">
       <defs>
        <path id="DejaVuSans-33" d="M 2597 2516 
Q 3050 2419 3304 2112 
Q 3559 1806 3559 1356 
Q 3559 666 3084 287 
Q 2609 -91 1734 -91 
Q 1441 -91 1130 -33 
Q 819 25 488 141 
L 488 750 
Q 750 597 1062 519 
Q 1375 441 1716 441 
Q 2309 441 2620 675 
Q 2931 909 2931 1356 
Q 2931 1769 2642 2001 
Q 2353 2234 1838 2234 
L 1294 2234 
L 1294 2753 
L 1863 2753 
Q 2328 2753 2575 2939 
Q 2822 3125 2822 3475 
Q 2822 3834 2567 4026 
Q 2313 4219 1838 4219 
Q 1578 4219 1281 4162 
Q 984 4106 628 3988 
L 628 4550 
Q 988 4650 1302 4700 
Q 1616 4750 1894 4750 
Q 2613 4750 3031 4423 
Q 3450 4097 3450 3541 
Q 3450 3153 3228 2886 
Q 3006 2619 2597 2516 
z
" transform="scale(0.015625)"/>
       </defs>
       <use xlink:href="#DejaVuSans-32"/>
       <use xlink:href="#DejaVuSans-30" x="63.623047"/>
       <use xlink:href="#DejaVuSans-32" x="127.246094"/>
       <use xlink:href="#DejaVuSans-33" x="190.869141"/>
       <use xlink:href="#DejaVuSans-2d" x="254.492188"/>
       <use xlink:href="#DejaVuSans-30" x="290.576172"/>
       <use xlink:href="#DejaVuSans-31" x="354.199219"/>
      </g>
     </g>
    </g>
    <g id="xtick_6">
     <g id="line2d_11">
      <path d="M 456.332741 320.4 
L 456.332741 43.2 
" clip-path="url(#p13d2d07c19)" style="fill: none; stroke-dasharray: 5.12,1.28,0.8,1.28; stroke-dashoffset: 0; stroke: #b0b0b0; stroke-width: 0.8"/>
     </g>
     <g id="line2d_12">
      <g>
       <use xlink:href="#mf870535958" x="456.332741" y="320.4" style="fill: #a9a9a9; stroke: #a9a9a9; stroke-width: 0.8"/>
      </g>
     </g>
     <g id="text_6">
      <!-- 2023-05 -->
      <g style="fill: #a9a9a9" transform="translate(435.441334 334.998438) scale(0.1 -0.1)">
       <use xlink:href="#DejaVuSans-32"/>
       <use xlink:href="#DejaVuSans-30" x="63.623047"/>
       <use xlink:href="#DejaVuSans-32" x="127.246094"/>
       <use xlink:href="#DejaVuSans-33" x="190.869141"/>
       <use xlink:href="#DejaVuSans-2d" x="254.492188"/>
       <use xlink:href="#DejaVuSans-30" x="290.576172"/>
       <use xlink:href="#DejaVuSans-35" x="354.199219"/>
      </g>
     </g>
    </g>
    <g id="xtick_7">
     <g id="line2d_13">
      <path d="M 516.860998 320.4 
L 516.860998 43.2 
" clip-path="url(#p13d2d07c19)" style="fill: none; stroke-dasharray: 5.12,1.28,0.8,1.28; stroke-dashoffset: 0; stroke: #b0b0b0; stroke-width: 0.8"/>
     </g>
     <g id="line2d_14">
      <g>
       <use xlink:href="#mf870535958" x="516.860998" y="320.4" style="fill: #a9a9a9; stroke: #a9a9a9; stroke-width: 0.8"/>
      </g>
     </g>
     <g id="text_7">
      <!-- 2023-09 -->
      <g style="fill: #a9a9a9" transform="translate(495.969592 334.998438) scale(0.1 -0.1)">
       <use xlink:href="#DejaVuSans-32"/>
       <use xlink:href="#DejaVuSans-30" x="63.623047"/>
       <use xlink:href="#DejaVuSans-32" x="127.246094"/>
       <use xlink:href="#DejaVuSans-33" x="190.869141"/>
       <use xlink:href="#DejaVuSans-2d" x="254.492188"/>
       <use xlink:href="#DejaVuSans-30" x="290.576172"/>
       <use xlink:href="#DejaVuSans-39" x="354.199219"/>
      </g>
     </g>
    </g>
    <g id="xtick_8">
     <g id="line2d_15">
      <path d="M 576.897156 320.4 
L 576.897156 43.2 
" clip-path="url(#p13d2d07c19)" style="fill: none; stroke-dasharray: 5.12,1.28,0.8,1.28; stroke-dashoffset: 0; stroke: #b0b0b0; stroke-width: 0.8"/>
     </g>
     <g id="line2d_16">
      <g>
       <use xlink:href="#mf870535958" x="576.897156" y="320.4" style="fill: #a9a9a9; stroke: #a9a9a9; stroke-width: 0.8"/>
      </g>
     </g>
     <g id="text_8">
      <!-- 2024-01 -->
      <g style="fill: #a9a9a9" transform="translate(556.00575 334.998438) scale(0.1 -0.1)">
       <defs>
        <path id="DejaVuSans-34" d="M 2419 4116 
L 825 1625 
L 2419 1625 
L 2419 4116 
z
M 2253 4666 
L 3047 4666 
L 3047 1625 
L 3713 1625 
L 3713 1100 
L 3047 1100 
L 3047 0 
L 2419 0 
L 2419 1100 
L 313 1100 
L 313 1709 
L 2253 4666 
z
" transform="scale(0.015625)"/>
       </defs>
       <use xlink:href="#DejaVuSans-32"/>
       <use xlink:href="#DejaVuSans-30" x="63.623047"/>
       <use xlink:href="#DejaVuSans-32" x="127.246094"/>
       <use xlink:href="#DejaVuSans-34" x="190.869141"/>
       <use xlink:href="#DejaVuSans-2d" x="254.492188"/>
       <use xlink:href="#DejaVuSans-30" x="290.576172"/>
       <use xlink:href="#DejaVuSans-31" x="354.199219"/>
      </g>
     </g>
    </g>
    <g id="xtick_9">
     <g id="line2d_17">
      <path d="M 636.441214 320.4 
L 636.441214 43.2 
" clip-path="url(#p13d2d07c19)" style="fill: none; stroke-dasharray: 5.12,1.28,0.8,1.28; stroke-dashoffset: 0; stroke: #b0b0b0; stroke-width: 0.8"/>
     </g>
     <g id="line2d_18">
      <g>
       <use xlink:href="#mf870535958" x="636.441214" y="320.4" style="fill: #a9a9a9; stroke: #a9a9a9; stroke-width: 0.8"/>
      </g>
     </g>
     <g id="text_9">
      <!-- 2024-05 -->
      <g style="fill: #a9a9a9" transform="translate(615.549808 334.998438) scale(0.1 -0.1)">
       <use xlink:href="#DejaVuSans-32"/>
       <use xlink:href="#DejaVuSans-30" x="63.623047"/>
       <use xlink:href="#DejaVuSans-32" x="127.246094"/>
       <use xlink:href="#DejaVuSans-34" x="190.869141"/>
       <use xlink:href="#DejaVuSans-2d" x="254.492188"/>
       <use xlink:href="#DejaVuSans-30" x="290.576172"/>
       <use xlink:href="#DejaVuSans-35" x="354.199219"/>
      </g>
     </g>
    </g>
    <g id="xtick_10">
     <g id="line2d_19">
      <path d="M 696.969472 320.4 
L 696.969472 43.2 
" clip-path="url(#p13d2d07c19)" style="fill: none; stroke-dasharray: 5.12,1.28,0.8,1.28; stroke-dashoffset: 0; stroke: #b0b0b0; stroke-width: 0.8"/>
     </g>
     <g id="line2d_20">
      <g>
       <use xlink:href="#mf870535958" x="696.969472" y="320.4" style="fill: #a9a9a9; stroke: #a9a9a9; stroke-width: 0.8"/>
      </g>
     </g>
     <g id="text_10">
      <!-- 2024-09 -->
      <g style="fill: #a9a9a9" transform="translate(676.078065 334.998438) scale(0.1 -0.1)">
       <use xlink:href="#DejaVuSans-32"/>
       <use xlink:href="#DejaVuSans-30" x="63.623047"/>
       <use xlink:href="#DejaVuSans-32" x="127.246094"/>
       <use xlink:href="#DejaVuSans-34" x="190.869141"/>
       <use xlink:href="#DejaVuSans-2d" x="254.492188"/>
       <use xlink:href="#DejaVuSans-30" x="290.576172"/>
       <use xlink:href="#DejaVuSans-39" x="354.199219"/>
      </g>
     </g>
    </g>
    <g id="xtick_11">
     <g id="line2d_21">
      <path d="M 757.005629 320.4 
L 757.005629 43.2 
" clip-path="url(#p13d2d07c19)" style="fill: none; stroke-dasharray: 5.12,1.28,0.8,1.28; stroke-dashoffset: 0; stroke: #b0b0b0; stroke-width: 0.8"/>
     </g>
     <g id="line2d_22">
      <g>
       <use xlink:href="#mf870535958" x="757.005629" y="320.4" style="fill: #a9a9a9; stroke: #a9a9a9; stroke-width: 0.8"/>
      </g>
     </g>
     <g id="text_11">
      <!-- 2025-01 -->
      <g style="fill: #a9a9a9" transform="translate(736.114223 334.998438) scale(0.1 -0.1)">
       <use xlink:href="#DejaVuSans-32"/>
       <use xlink:href="#DejaVuSans-30" x="63.623047"/>
       <use xlink:href="#DejaVuSans-32" x="127.246094"/>
       <use xlink:href="#DejaVuSans-35" x="190.869141"/>
       <use xlink:href="#DejaVuSans-2d" x="254.492188"/>
       <use xlink:href="#DejaVuSans-30" x="290.576172"/>
       <use xlink:href="#DejaVuSans-31" x="354.199219"/>
      </g>
     </g>
    </g>
   </g>
   <g id="matplotlib.axis_2">
    <g id="ytick_1">
     <g id="line2d_23">
      <path d="M 108 307.835639 
L 777.6 307.835639 
" clip-path="url(#p13d2d07c19)" style="fill: none; stroke-dasharray: 5.12,1.28,0.8,1.28; stroke-dashoffset: 0; stroke: #b0b0b0; stroke-width: 0.8"/>
     </g>
     <g id="line2d_24">
      <defs>
       <path id="m8939f52ae9" d="M 0 0 
L -3.5 0 
" style="stroke: #a9a9a9; stroke-width: 0.8"/>
      </defs>
      <g>
       <use xlink:href="#m8939f52ae9" x="108" y="307.835639" style="fill: #a9a9a9; stroke: #a9a9a9; stroke-width: 0.8"/>
      </g>
     </g>
     <g id="text_12">
      <!-- 0 -->
      <g style="fill: #a9a9a9" transform="translate(94.6375 311.634857) scale(0.1 -0.1)">
       <use xlink:href="#DejaVuSans-30"/>
      </g>
     </g>
    </g>
    <g id="ytick_2">
     <g id="line2d_25">
      <path d="M 108 279.32482 
L 777.6 279.32482 
" clip-path="url(#p13d2d07c19)" style="fill: none; stroke-dasharray: 5.12,1.28,0.8,1.28; stroke-dashoffset: 0; stroke: #b0b0b0; stroke-width: 0.8"/>
     </g>
     <g id="line2d_26">
      <g>
       <use xlink:href="#m8939f52ae9" x="108" y="279.32482" style="fill: #a9a9a9; stroke: #a9a9a9; stroke-width: 0.8"/>
      </g>
     </g>
     <g id="text_13">
      <!-- 800 -->
      <g style="fill: #a9a9a9" transform="translate(81.9125 283.124038) scale(0.1 -0.1)">
       <defs>
        <path id="DejaVuSans-38" d="M 2034 2216 
Q 1584 2216 1326 1975 
Q 1069 1734 1069 1313 
Q 1069 891 1326 650 
Q 1584 409 2034 409 
Q 2484 409 2743 651 
Q 3003 894 3003 1313 
Q 3003 1734 2745 1975 
Q 2488 2216 2034 2216 
z
M 1403 2484 
Q 997 2584 770 2862 
Q 544 3141 544 3541 
Q 544 4100 942 4425 
Q 1341 4750 2034 4750 
Q 2731 4750 3128 4425 
Q 3525 4100 3525 3541 
Q 3525 3141 3298 2862 
Q 3072 2584 2669 2484 
Q 3125 2378 3379 2068 
Q 3634 1759 3634 1313 
Q 3634 634 3220 271 
Q 2806 -91 2034 -91 
Q 1263 -91 848 271 
Q 434 634 434 1313 
Q 434 1759 690 2068 
Q 947 2378 1403 2484 
z
M 1172 3481 
Q 1172 3119 1398 2916 
Q 1625 2713 2034 2713 
Q 2441 2713 2670 2916 
Q 2900 3119 2900 3481 
Q 2900 3844 2670 4047 
Q 2441 4250 2034 4250 
Q 1625 4250 1398 4047 
Q 1172 3844 1172 3481 
z
" transform="scale(0.015625)"/>
       </defs>
       <use xlink:href="#DejaVuSans-38"/>
       <use xlink:href="#DejaVuSans-30" x="63.623047"/>
       <use xlink:href="#DejaVuSans-30" x="127.246094"/>
      </g>
     </g>
    </g>
    <g id="ytick_3">
     <g id="line2d_27">
      <path d="M 108 250.814001 
L 777.6 250.814001 
" clip-path="url(#p13d2d07c19)" style="fill: none; stroke-dasharray: 5.12,1.28,0.8,1.28; stroke-dashoffset: 0; stroke: #b0b0b0; stroke-width: 0.8"/>
     </g>
     <g id="line2d_28">
      <g>
       <use xlink:href="#m8939f52ae9" x="108" y="250.814001" style="fill: #a9a9a9; stroke: #a9a9a9; stroke-width: 0.8"/>
      </g>
     </g>
     <g id="text_14">
      <!-- 1600 -->
      <g style="fill: #a9a9a9" transform="translate(75.55 254.61322) scale(0.1 -0.1)">
       <defs>
        <path id="DejaVuSans-36" d="M 2113 2584 
Q 1688 2584 1439 2293 
Q 1191 2003 1191 1497 
Q 1191 994 1439 701 
Q 1688 409 2113 409 
Q 2538 409 2786 701 
Q 3034 994 3034 1497 
Q 3034 2003 2786 2293 
Q 2538 2584 2113 2584 
z
M 3366 4563 
L 3366 3988 
Q 3128 4100 2886 4159 
Q 2644 4219 2406 4219 
Q 1781 4219 1451 3797 
Q 1122 3375 1075 2522 
Q 1259 2794 1537 2939 
Q 1816 3084 2150 3084 
Q 2853 3084 3261 2657 
Q 3669 2231 3669 1497 
Q 3669 778 3244 343 
Q 2819 -91 2113 -91 
Q 1303 -91 875 529 
Q 447 1150 447 2328 
Q 447 3434 972 4092 
Q 1497 4750 2381 4750 
Q 2619 4750 2861 4703 
Q 3103 4656 3366 4563 
z
" transform="scale(0.015625)"/>
       </defs>
       <use xlink:href="#DejaVuSans-31"/>
       <use xlink:href="#DejaVuSans-36" x="63.623047"/>
       <use xlink:href="#DejaVuSans-30" x="127.246094"/>
       <use xlink:href="#DejaVuSans-30" x="190.869141"/>
      </g>
     </g>
    </g>
    <g id="ytick_4">
     <g id="line2d_29">
      <path d="M 108 222.303182 
L 777.6 222.303182 
" clip-path="url(#p13d2d07c19)" style="fill: none; stroke-dasharray: 5.12,1.28,0.8,1.28; stroke-dashoffset: 0; stroke: #b0b0b0; stroke-width: 0.8"/>
     </g>
     <g id="line2d_30">
      <g>
       <use xlink:href="#m8939f52ae9" x="108" y="222.303182" style="fill: #a9a9a9; stroke: #a9a9a9; stroke-width: 0.8"/>
      </g>
     </g>
     <g id="text_15">
      <!-- 2400 -->
      <g style="fill: #a9a9a9" transform="translate(75.55 226.102401) scale(0.1 -0.1)">
       <use xlink:href="#DejaVuSans-32"/>
       <use xlink:href="#DejaVuSans-34" x="63.623047"/>
       <use xlink:href="#DejaVuSans-30" x="127.246094"/>
       <use xlink:href="#DejaVuSans-30" x="190.869141"/>
      </g>
     </g>
    </g>
    <g id="ytick_5">
     <g id="line2d_31">
      <path d="M 108 193.792363 
L 777.6 193.792363 
" clip-path="url(#p13d2d07c19)" style="fill: none; stroke-dasharray: 5.12,1.28,0.8,1.28; stroke-dashoffset: 0; stroke: #b0b0b0; stroke-width: 0.8"/>
     </g>
     <g id="line2d_32">
      <g>
       <use xlink:href="#m8939f52ae9" x="108" y="193.792363" style="fill: #a9a9a9; stroke: #a9a9a9; stroke-width: 0.8"/>
      </g>
     </g>
     <g id="text_16">
      <!-- 3200 -->
      <g style="fill: #a9a9a9" transform="translate(75.55 197.591582) scale(0.1 -0.1)">
       <use xlink:href="#DejaVuSans-33"/>
       <use xlink:href="#DejaVuSans-32" x="63.623047"/>
       <use xlink:href="#DejaVuSans-30" x="127.246094"/>
       <use xlink:href="#DejaVuSans-30" x="190.869141"/>
      </g>
     </g>
    </g>
    <g id="ytick_6">
     <g id="line2d_33">
      <path d="M 108 165.281544 
L 777.6 165.281544 
" clip-path="url(#p13d2d07c19)" style="fill: none; stroke-dasharray: 5.12,1.28,0.8,1.28; stroke-dashoffset: 0; stroke: #b0b0b0; stroke-width: 0.8"/>
     </g>
     <g id="line2d_34">
      <g>
       <use xlink:href="#m8939f52ae9" x="108" y="165.281544" style="fill: #a9a9a9; stroke: #a9a9a9; stroke-width: 0.8"/>
      </g>
     </g>
     <g id="text_17">
      <!-- 4000 -->
      <g style="fill: #a9a9a9" transform="translate(75.55 169.080763) scale(0.1 -0.1)">
       <use xlink:href="#DejaVuSans-34"/>
       <use xlink:href="#DejaVuSans-30" x="63.623047"/>
       <use xlink:href="#DejaVuSans-30" x="127.246094"/>
       <use xlink:href="#DejaVuSans-30" x="190.869141"/>
      </g>
     </g>
    </g>
    <g id="ytick_7">
     <g id="line2d_35">
      <path d="M 108 136.770725 
L 777.6 136.770725 
" clip-path="url(#p13d2d07c19)" style="fill: none; stroke-dasharray: 5.12,1.28,0.8,1.28; stroke-dashoffset: 0; stroke: #b0b0b0; stroke-width: 0.8"/>
     </g>
     <g id="line2d_36">
      <g>
       <use xlink:href="#m8939f52ae9" x="108" y="136.770725" style="fill: #a9a9a9; stroke: #a9a9a9; stroke-width: 0.8"/>
      </g>
     </g>
     <g id="text_18">
      <!-- 4800 -->
      <g style="fill: #a9a9a9" transform="translate(75.55 140.569944) scale(0.1 -0.1)">
       <use xlink:href="#DejaVuSans-34"/>
       <use xlink:href="#DejaVuSans-38" x="63.623047"/>
       <use xlink:href="#DejaVuSans-30" x="127.246094"/>
       <use xlink:href="#DejaVuSans-30" x="190.869141"/>
      </g>
     </g>
    </g>
    <g id="ytick_8">
     <g id="line2d_37">
      <path d="M 108 108.259907 
L 777.6 108.259907 
" clip-path="url(#p13d2d07c19)" style="fill: none; stroke-dasharray: 5.12,1.28,0.8,1.28; stroke-dashoffset: 0; stroke: #b0b0b0; stroke-width: 0.8"/>
     </g>
     <g id="line2d_38">
      <g>
       <use xlink:href="#m8939f52ae9" x="108" y="108.259907" style="fill: #a9a9a9; stroke: #a9a9a9; stroke-width: 0.8"/>
      </g>
     </g>
     <g id="text_19">
      <!-- 5600 -->
      <g style="fill: #a9a9a9" transform="translate(75.55 112.059125) scale(0.1 -0.1)">
       <use xlink:href="#DejaVuSans-35"/>
       <use xlink:href="#DejaVuSans-36" x="63.623047"/>
       <use xlink:href="#DejaVuSans-30" x="127.246094"/>
       <use xlink:href="#DejaVuSans-30" x="190.869141"/>
      </g>
     </g>
    </g>
    <g id="ytick_9">
     <g id="line2d_39">
      <path d="M 108 79.749088 
L 777.6 79.749088 
" clip-path="url(#p13d2d07c19)" style="fill: none; stroke-dasharray: 5.12,1.28,0.8,1.28; stroke-dashoffset: 0; stroke: #b0b0b0; stroke-width: 0.8"/>
     </g>
     <g id="line2d_40">
      <g>
       <use xlink:href="#m8939f52ae9" x="108" y="79.749088" style="fill: #a9a9a9; stroke: #a9a9a9; stroke-width: 0.8"/>
      </g>
     </g>
     <g id="text_20">
      <!-- 6400 -->
      <g style="fill: #a9a9a9" transform="translate(75.55 83.548307) scale(0.1 -0.1)">
       <use xlink:href="#DejaVuSans-36"/>
       <use xlink:href="#DejaVuSans-34" x="63.623047"/>
       <use xlink:href="#DejaVuSans-30" x="127.246094"/>
       <use xlink:href="#DejaVuSans-30" x="190.869141"/>
      </g>
     </g>
    </g>
    <g id="ytick_10">
     <g id="line2d_41">
      <path d="M 108 51.238269 
L 777.6 51.238269 
" clip-path="url(#p13d2d07c19)" style="fill: none; stroke-dasharray: 5.12,1.28,0.8,1.28; stroke-dashoffset: 0; stroke: #b0b0b0; stroke-width: 0.8"/>
     </g>
     <g id="line2d_42">
      <g>
       <use xlink:href="#m8939f52ae9" x="108" y="51.238269" style="fill: #a9a9a9; stroke: #a9a9a9; stroke-width: 0.8"/>
      </g>
     </g>
     <g id="text_21">
      <!-- 7200 -->
      <g style="fill: #a9a9a9" transform="translate(75.55 55.037488) scale(0.1 -0.1)">
       <defs>
        <path id="DejaVuSans-37" d="M 525 4666 
L 3525 4666 
L 3525 4397 
L 1831 0 
L 1172 0 
L 2766 4134 
L 525 4134 
L 525 4666 
z
" transform="scale(0.015625)"/>
       </defs>
       <use xlink:href="#DejaVuSans-37"/>
       <use xlink:href="#DejaVuSans-32" x="63.623047"/>
       <use xlink:href="#DejaVuSans-30" x="127.246094"/>
       <use xlink:href="#DejaVuSans-30" x="190.869141"/>
      </g>
     </g>
    </g>
   </g>
   <g id="line2d_43">
    <path d="M 138.436364 307.728723 
L 141.388962 307.479253 
L 141.881061 307.265422 
L 143.84946 307.015952 
L 145.817858 306.623929 
L 146.802058 306.481375 
L 149.262556 306.267543 
L 150.246755 305.87552 
L 150.738855 305.234026 
L 151.230955 304.877641 
L 151.723054 303.772847 
L 152.215154 303.70157 
L 152.707254 303.309546 
L 153.691453 302.810607 
L 155.659852 301.242512 
L 157.62825 300.280272 
L 159.104549 299.60314 
L 159.596649 298.819092 
L 160.580848 298.106322 
L 161.072948 297.89249 
L 165.993944 297.17972 
L 166.486044 296.965889 
L 169.930742 296.680781 
L 171.89914 296.21748 
L 175.835937 295.682902 
L 176.328037 295.433432 
L 176.820137 295.362155 
L 177.804336 295.041409 
L 181.249034 294.471192 
L 182.233233 294.186084 
L 186.66213 293.437675 
L 187.646329 293.223844 
L 188.630528 293.188205 
L 190.598927 292.724905 
L 191.091027 292.047773 
L 192.567326 291.477556 
L 194.043625 291.085532 
L 194.535724 290.836063 
L 195.519924 290.65787 
L 197.488322 290.087654 
L 198.472521 290.016377 
L 199.456721 289.766907 
L 201.425119 289.267968 
L 201.917219 289.232329 
L 202.901418 288.769028 
L 203.393518 288.697751 
L 203.885618 288.448282 
L 209.298714 287.557319 
L 211.267113 286.987102 
L 211.759212 286.666356 
L 214.21971 285.846669 
L 215.20391 285.169538 
L 216.680209 284.884429 
L 229.4748 281.284938 
L 229.966899 281.284938 
L 230.458999 281.071107 
L 231.443198 280.964192 
L 231.935298 280.785999 
L 233.903697 280.679084 
L 234.887896 280.500891 
L 235.872095 280.001952 
L 237.348394 279.467374 
L 237.840494 279.146627 
L 238.824693 278.718965 
L 239.316793 278.469495 
L 240.300992 278.148748 
L 240.793092 278.006194 
L 241.777291 277.400339 
L 242.269391 276.865762 
L 243.25359 275.368944 
L 243.74569 275.226389 
L 244.237789 275.226389 
L 245.714088 274.371065 
L 246.206188 274.121595 
L 246.698288 274.01468 
L 247.190387 273.551379 
L 248.174587 273.159355 
L 249.158786 272.696054 
L 249.650886 272.090199 
L 250.142985 271.306152 
L 250.635085 270.985405 
L 251.127185 270.130081 
L 251.619284 269.595503 
L 254.571882 268.027408 
L 255.556081 267.24336 
L 256.048181 266.922613 
L 256.540281 266.174204 
L 257.03238 265.06941 
L 257.52448 264.321001 
L 258.01658 263.928978 
L 258.508679 263.715146 
L 261.953377 260.792787 
L 262.937576 259.616716 
L 263.921776 258.903946 
L 266.382274 257.407128 
L 267.366473 256.87255 
L 269.334872 255.839033 
L 271.79537 253.629444 
L 272.779569 253.23742 
L 273.763769 252.560289 
L 274.255868 252.27518 
L 274.747968 252.203903 
L 276.224267 251.384217 
L 276.716367 250.849639 
L 279.176865 249.531014 
L 279.668965 249.352821 
L 281.145263 248.354943 
L 288.526758 245.753331 
L 289.510958 244.862367 
L 290.495157 244.399067 
L 291.479356 243.864489 
L 291.971456 243.579381 
L 292.955655 243.294272 
L 293.447755 242.973526 
L 293.939854 242.830972 
L 295.416153 241.868731 
L 297.876652 241.298515 
L 299.352951 240.44319 
L 300.82925 240.122444 
L 301.321349 239.97989 
L 302.797648 238.875095 
L 304.766047 238.340518 
L 305.258147 237.948494 
L 308.210744 236.950615 
L 309.194944 236.772423 
L 310.179143 236.380399 
L 313.623841 235.13305 
L 314.60804 234.990496 
L 316.084339 234.491557 
L 318.544837 233.315486 
L 320.513236 232.24633 
L 324.450033 230.642597 
L 324.942133 230.571319 
L 325.926332 229.965465 
L 326.418432 229.894188 
L 328.38683 229.074501 
L 330.355229 228.825032 
L 331.339428 228.326092 
L 331.831528 227.89843 
L 332.323628 227.007467 
L 334.292026 226.472889 
L 335.768325 225.72448 
L 336.260425 225.617565 
L 340.197222 223.728723 
L 341.673521 223.443615 
L 342.65772 222.944675 
L 343.14982 222.730844 
L 343.64192 222.659567 
L 345.610318 221.768604 
L 347.086617 220.842003 
L 348.562916 220.556894 
L 351.023414 219.951039 
L 351.515514 219.559016 
L 352.991813 219.024438 
L 354.960212 218.24039 
L 355.452311 217.884005 
L 355.944411 217.705812 
L 356.92861 217.171235 
L 359.389109 216.351549 
L 360.865408 215.175477 
L 361.357507 215.068562 
L 362.341706 214.284514 
L 362.833806 214.213237 
L 363.325906 213.42919 
L 363.818005 213.215359 
L 364.310105 212.823335 
L 364.802205 212.752058 
L 365.786404 212.146203 
L 366.770603 211.825456 
L 367.262703 211.469071 
L 367.754803 211.290878 
L 369.231102 210.257361 
L 371.1995 209.223844 
L 371.6916 209.152567 
L 373.167899 208.404158 
L 373.659999 207.584472 
L 374.644198 206.871701 
L 375.136297 206.764786 
L 376.120497 206.158931 
L 376.612596 206.052015 
L 377.596796 205.553076 
L 379.565194 204.590836 
L 380.057294 204.234451 
L 381.041493 203.27221 
L 382.025693 202.666356 
L 382.517792 202.345609 
L 383.009892 201.811031 
L 384.978291 200.456767 
L 385.47039 199.886551 
L 385.96249 199.494527 
L 386.946689 199.138142 
L 387.930889 198.46101 
L 389.407187 197.712601 
L 389.899287 197.641324 
L 391.375586 196.857276 
L 392.359785 196.251421 
L 397.280782 194.469495 
L 397.772882 194.077471 
L 399.74128 193.329062 
L 400.23338 193.186508 
L 400.72548 192.794485 
L 403.185978 191.440221 
L 404.170177 189.480102 
L 405.154376 188.339669 
L 406.630675 187.59126 
L 407.614875 187.199236 
L 408.106974 187.127959 
L 408.599074 186.842851 
L 411.059572 186.058804 
L 411.551672 185.844972 
L 412.535871 185.16784 
L 414.01217 184.526347 
L 414.99637 183.991769 
L 415.488469 183.635384 
L 415.980569 183.421553 
L 416.472668 183.065168 
L 416.964768 182.53059 
L 417.948967 181.996012 
L 420.409466 180.677387 
L 423.362064 179.216207 
L 424.838363 178.788545 
L 426.314662 178.218328 
L 426.806761 177.861943 
L 427.790961 177.576835 
L 428.77516 177.184811 
L 429.267259 176.792787 
L 431.235658 176.115655 
L 432.219857 175.402885 
L 433.204057 174.975223 
L 434.188256 174.191175 
L 435.172455 173.83479 
L 435.664555 173.407128 
L 436.156655 173.335851 
L 437.140854 172.587442 
L 438.125053 172.088502 
L 438.617153 171.874671 
L 439.109253 171.375732 
L 442.55395 170.021468 
L 443.538149 169.593806 
L 445.014448 169.130505 
L 445.998648 168.987951 
L 446.490747 168.77412 
L 446.982847 168.702843 
L 447.967046 168.27518 
L 448.459146 168.239542 
L 450.427545 167.491133 
L 451.903844 166.457616 
L 452.395943 166.279423 
L 453.380143 165.744845 
L 453.872242 165.602291 
L 456.82484 163.962919 
L 457.31694 163.856003 
L 458.793239 163.000679 
L 460.269538 162.501739 
L 461.253737 162.180993 
L 463.222136 161.539499 
L 464.206335 161.218753 
L 466.174734 160.826729 
L 466.666833 160.612898 
L 467.158933 160.541621 
L 468.143132 160.113958 
L 468.635232 160.042681 
L 469.127332 159.793212 
L 470.111531 159.615019 
L 471.58783 159.080441 
L 472.572029 158.973526 
L 474.048328 158.652779 
L 476.508826 158.225117 
L 489.303417 154.51871 
L 489.795517 154.019771 
L 490.779716 153.627747 
L 494.716514 152.166568 
L 495.208613 151.881459 
L 496.684912 151.453797 
L 497.669111 151.204328 
L 498.161211 150.883581 
L 498.653311 150.776665 
L 499.14541 150.349003 
L 500.621709 150.063895 
L 501.605909 149.600594 
L 502.098008 149.030378 
L 504.066407 148.567077 
L 507.511105 147.854306 
L 508.003204 147.854306 
L 508.495304 147.640475 
L 510.463703 147.28409 
L 510.955802 147.070259 
L 512.924201 146.713874 
L 513.9084 146.286211 
L 514.892599 146.108019 
L 517.353098 145.502164 
L 519.321496 144.896309 
L 519.813596 144.789393 
L 520.305696 144.539924 
L 521.289895 144.290454 
L 521.781995 144.005346 
L 523.258294 143.506406 
L 523.750393 143.18566 
L 524.734592 142.900552 
L 525.718792 142.579805 
L 526.702991 142.187781 
L 528.17929 141.546288 
L 530.147689 141.296818 
L 534.084486 139.906916 
L 534.576586 139.55053 
L 535.068685 139.443615 
L 535.560785 139.194145 
L 536.052885 139.158507 
L 541.465981 137.269665 
L 543.926479 136.628171 
L 544.910678 136.164871 
L 546.386977 135.844124 
L 546.879077 135.4521 
L 547.371177 135.20263 
L 547.863276 134.596776 
L 548.355376 134.24039 
L 549.339575 133.955282 
L 549.831675 133.563258 
L 552.784273 132.458464 
L 553.276372 132.137717 
L 554.260572 131.852609 
L 554.752671 131.531863 
L 557.21317 130.747815 
L 558.689469 129.89249 
L 559.181568 129.785575 
L 561.642067 128.46695 
L 563.118366 127.825456 
L 563.610465 127.469071 
L 564.594665 127.148324 
L 565.578864 126.578108 
L 566.070963 126.399915 
L 566.563063 126.04353 
L 572.960359 123.798303 
L 573.452458 123.691387 
L 573.944558 123.370641 
L 575.912957 122.978617 
L 576.897156 122.586593 
L 579.849754 121.161052 
L 580.341853 121.089775 
L 581.818152 120.270089 
L 583.294451 119.77115 
L 586.739149 118.381247 
L 587.231249 118.238693 
L 587.723348 117.917947 
L 588.707548 117.811031 
L 589.199647 117.490284 
L 590.183847 117.312092 
L 591.168046 116.848791 
L 591.660146 116.63496 
L 592.152245 116.563683 
L 594.612743 115.601443 
L 596.089042 115.209419 
L 597.073242 114.959949 
L 598.549541 114.532287 
L 599.53374 114.140263 
L 601.502139 113.071107 
L 602.486338 112.679084 
L 602.978438 112.358337 
L 603.962637 112.144506 
L 604.454737 111.859398 
L 604.946836 111.752482 
L 606.423135 110.932796 
L 607.407334 110.540772 
L 609.375733 109.792363 
L 611.836231 108.972677 
L 612.820431 108.473738 
L 615.280929 107.654052 
L 618.233527 106.47798 
L 620.201925 105.587017 
L 625.122922 103.698176 
L 625.615022 103.377429 
L 627.58342 102.700297 
L 628.07552 102.700297 
L 629.059719 102.272635 
L 630.043919 101.381672 
L 630.536018 100.954009 
L 632.012317 100.241239 
L 632.504417 100.134323 
L 632.996516 99.884854 
L 633.488616 99.813577 
L 633.980716 99.457191 
L 634.472815 99.350276 
L 635.457015 98.744421 
L 636.933314 97.996012 
L 637.917513 97.603988 
L 638.409613 97.354518 
L 639.885912 97.033772 
L 642.34641 96.214086 
L 643.330609 95.893339 
L 644.806908 95.14493 
L 645.791108 94.681629 
L 646.775307 94.43216 
L 648.251606 93.755028 
L 652.680503 92.115655 
L 654.156802 91.224692 
L 654.648901 91.117777 
L 655.633101 90.618838 
L 656.6173 90.262452 
L 657.1094 89.83479 
L 658.093599 89.442766 
L 659.569898 88.836911 
L 660.061998 88.444888 
L 660.554097 88.409249 
L 661.538296 88.124141 
L 662.522496 87.803394 
L 663.014595 87.553924 
L 663.506695 87.482647 
L 664.982994 86.94807 
L 666.459293 86.413492 
L 667.443492 86.021468 
L 667.935592 85.629444 
L 669.411891 85.23742 
L 669.903991 84.952312 
L 670.88819 84.702843 
L 672.364489 83.883157 
L 672.856589 83.847518 
L 674.332887 83.384217 
L 675.317087 83.31294 
L 676.301286 82.920916 
L 679.253884 82.065592 
L 680.238083 82.029953 
L 684.174881 80.782605 
L 685.15908 80.248027 
L 685.65118 79.820365 
L 687.127479 78.96504 
L 688.111678 78.359185 
L 691.064276 77.432584 
L 691.556375 77.04056 
L 694.508973 75.82885 
L 696.477372 75.294272 
L 697.461571 74.86661 
L 697.953671 74.61714 
L 698.93787 74.332032 
L 699.42997 74.046924 
L 700.414169 73.868731 
L 702.874667 72.728299 
L 703.366767 72.44319 
L 704.843066 72.086805 
L 705.335166 71.766059 
L 705.827265 71.587866 
L 706.319365 71.160204 
L 706.811465 71.088927 
L 709.271963 70.126686 
L 710.748262 69.80594 
L 711.240362 69.734663 
L 711.732461 69.520832 
L 712.224561 69.485193 
L 713.20876 69.164446 
L 713.70086 69.128808 
L 715.177159 68.558591 
L 717.145557 67.988375 
L 718.129757 67.204328 
L 720.098155 66.135172 
L 721.574454 65.636232 
L 724.527052 64.317607 
L 725.511252 63.783029 
L 726.003351 63.53356 
L 726.495451 63.070259 
L 729.448049 62.108019 
L 730.432248 61.715995 
L 731.416447 61.430887 
L 731.908547 61.181417 
L 732.400647 60.718116 
L 734.369045 60.219177 
L 734.861145 59.862792 
L 741.75054 57.475011 
L 744.703138 56.548409 
L 745.687337 56.156385 
L 746.671537 55.8 
L 747.163636 55.8 
L 747.163636 55.8 
" clip-path="url(#p13d2d07c19)" style="fill: none; stroke: #1f77b4; stroke-width: 1.5; stroke-linecap: square"/>
   </g>
   <g id="line2d_44">
    <path d="M 138.928463 307.8 
L 143.35736 307.693084 
L 147.294157 307.514892 
L 149.262556 307.514892 
L 149.754656 307.372338 
L 152.215154 307.265422 
L 155.167752 306.944675 
L 158.12035 306.83776 
L 159.104549 306.730844 
L 162.549247 306.58829 
L 165.993944 306.481375 
L 168.454443 306.410098 
L 174.851738 306.303182 
L 177.312236 306.231905 
L 180.756934 306.124989 
L 183.217432 306.053712 
L 188.630528 305.946797 
L 190.598927 305.768604 
L 192.567326 305.732966 
L 195.519924 305.62605 
L 197.488322 305.590412 
L 199.94882 305.519134 
L 201.917219 305.340942 
L 206.346116 305.234026 
L 207.330315 305.162749 
L 209.298714 305.055834 
L 212.251312 304.948918 
L 214.21971 304.842003 
L 223.077504 304.307425 
L 226.522202 304.200509 
L 227.998501 304.057955 
L 230.458999 303.951039 
L 235.379996 303.70157 
L 240.300992 303.630293 
L 242.269391 303.416462 
L 244.237789 303.309546 
L 249.650886 302.810607 
L 253.095583 302.418583 
L 254.571882 302.347306 
L 259.000779 301.812728 
L 261.461277 301.741451 
L 262.937576 301.598897 
L 264.413875 301.491981 
L 278.192666 300.458464 
L 279.176865 300.280272 
L 282.129463 300.173356 
L 290.003057 299.710055 
L 293.447755 299.60314 
L 295.416153 299.389308 
L 297.876652 299.282393 
L 300.82925 299.175477 
L 303.289748 299.068562 
L 305.258147 299.032923 
L 307.718645 298.961646 
L 308.702844 298.819092 
L 315.592239 298.712176 
L 316.576439 298.605261 
L 322.481634 298.498345 
L 326.910531 298.284514 
L 330.355229 298.177599 
L 332.323628 297.963768 
L 335.768325 297.856852 
L 336.752524 297.678659 
L 339.213023 297.607382 
L 344.134019 297.536105 
L 346.594518 297.286636 
L 349.547115 297.17972 
L 351.515514 297.001527 
L 356.436511 296.752058 
L 361.357507 296.645142 
L 365.786404 296.431311 
L 367.262703 296.395672 
L 368.246902 296.253118 
L 370.707401 296.146203 
L 371.6916 296.074926 
L 372.675799 296.003649 
L 373.659999 295.932372 
L 378.088895 295.861095 
L 379.565194 295.754179 
L 392.851885 294.898854 
L 395.312383 294.791939 
L 397.772882 294.720662 
L 404.662277 294.613746 
L 405.646476 294.471192 
L 412.535871 294.364277 
L 417.456868 294.114807 
L 418.441067 294.079168 
L 419.425266 293.972253 
L 421.885765 293.865337 
L 424.346263 293.79406 
L 426.806761 293.687145 
L 429.267259 293.615868 
L 433.696156 293.508952 
L 436.648754 293.402036 
L 443.538149 293.295121 
L 448.951246 293.010013 
L 450.919644 292.938736 
L 452.395943 292.83182 
L 459.285338 292.724905 
L 462.237936 292.617989 
L 471.09573 292.511073 
L 473.064129 292.475435 
L 478.969325 292.404158 
L 479.953524 292.332881 
L 486.842919 292.225965 
L 488.811318 292.190327 
L 501.605909 292.083411 
L 503.082208 291.940857 
L 525.226692 291.833941 
L 527.68719 291.762664 
L 540.481781 291.655749 
L 541.465981 291.584472 
L 543.926479 291.513195 
L 545.402778 291.370641 
L 548.355376 291.263725 
L 551.800073 291.121171 
L 556.22897 291.014255 
L 558.689469 290.942978 
L 562.134166 290.836063 
L 566.070963 290.65787 
L 568.531462 290.550955 
L 570.49986 290.515316 
L 574.928757 290.408401 
L 576.897156 290.372762 
L 583.294451 290.265846 
L 585.26285 290.230208 
L 587.723348 290.123292 
L 590.675946 290.016377 
L 594.120644 289.9451 
L 595.104843 289.873823 
L 606.915235 289.766907 
L 613.31253 289.410522 
L 615.773029 289.339245 
L 616.757228 289.232329 
L 617.741427 289.161052 
L 621.678224 289.054137 
L 624.630822 288.947221 
L 629.551819 288.840305 
L 632.012317 288.590836 
L 636.933314 288.48392 
L 637.917513 288.377005 
L 642.83851 288.270089 
L 645.299008 288.198812 
L 650.712104 288.163174 
L 651.696303 288.056258 
L 657.1094 287.949342 
L 658.093599 287.878065 
L 668.919791 287.77115 
L 671.872389 287.664234 
L 679.253884 287.557319 
L 681.222283 287.52168 
L 685.65118 287.450403 
L 686.635379 287.343487 
L 692.540575 287.236572 
L 695.493173 287.129656 
L 704.350966 287.022741 
L 705.827265 286.915825 
L 707.303564 286.80891 
L 708.779863 286.701994 
L 716.161358 286.595078 
L 719.606056 286.452524 
L 732.400647 286.345609 
L 736.829544 286.131778 
L 742.24264 286.024862 
L 746.179437 285.846669 
L 747.163636 285.846669 
L 747.163636 285.846669 
" clip-path="url(#p13d2d07c19)" style="fill: none; stroke: #ff7f0e; stroke-width: 1.5; stroke-linecap: square"/>
   </g>
   <g id="patch_3">
    <path d="M 108 320.4 
L 108 43.2 
" style="fill: none; stroke: #a9a9a9; stroke-width: 0.8; stroke-linejoin: miter; stroke-linecap: square"/>
   </g>
   <g id="patch_4">
    <path d="M 777.6 320.4 
L 777.6 43.2 
" style="fill: none"/>
   </g>
   <g id="patch_5">
    <path d="M 108 320.4 
L 777.6 320.4 
" style="fill: none; stroke: #a9a9a9; stroke-width: 0.8; stroke-linejoin: miter; stroke-linecap: square"/>
   </g>
   <g id="patch_6">
    <path d="M 108 43.2 
L 777.6 43.2 
" style="fill: none"/>
   </g>
   <g id="text_22">
    <!-- get_subscribe history -->
    <g style="fill: #a9a9a9" transform="translate(378.6075 37.2) scale(0.12 -0.12)">
     <defs>
      <path id="DejaVuSans-67" d="M 2906 1791 
Q 2906 2416 2648 2759 
Q 2391 3103 1925 3103 
Q 1463 3103 1205 2759 
Q 947 2416 947 1791 
Q 947 1169 1205 825 
Q 1463 481 1925 481 
Q 2391 481 2648 825 
Q 2906 1169 2906 1791 
z
M 3481 434 
Q 3481 -459 3084 -895 
Q 2688 -1331 1869 -1331 
Q 1566 -1331 1297 -1286 
Q 1028 -1241 775 -1147 
L 775 -588 
Q 1028 -725 1275 -790 
Q 1522 -856 1778 -856 
Q 2344 -856 2625 -561 
Q 2906 -266 2906 331 
L 2906 616 
Q 2728 306 2450 153 
Q 2172 0 1784 0 
Q 1141 0 747 490 
Q 353 981 353 1791 
Q 353 2603 747 3093 
Q 1141 3584 1784 3584 
Q 2172 3584 2450 3431 
Q 2728 3278 2906 2969 
L 2906 3500 
L 3481 3500 
L 3481 434 
z
" transform="scale(0.015625)"/>
      <path id="DejaVuSans-65" d="M 3597 1894 
L 3597 1613 
L 953 1613 
Q 991 1019 1311 708 
Q 1631 397 2203 397 
Q 2534 397 2845 478 
Q 3156 559 3463 722 
L 3463 178 
Q 3153 47 2828 -22 
Q 2503 -91 2169 -91 
Q 1331 -91 842 396 
Q 353 884 353 1716 
Q 353 2575 817 3079 
Q 1281 3584 2069 3584 
Q 2775 3584 3186 3129 
Q 3597 2675 3597 1894 
z
M 3022 2063 
Q 3016 2534 2758 2815 
Q 2500 3097 2075 3097 
Q 1594 3097 1305 2825 
Q 1016 2553 972 2059 
L 3022 2063 
z
" transform="scale(0.015625)"/>
      <path id="DejaVuSans-74" d="M 1172 4494 
L 1172 3500 
L 2356 3500 
L 2356 3053 
L 1172 3053 
L 1172 1153 
Q 1172 725 1289 603 
Q 1406 481 1766 481 
L 2356 481 
L 2356 0 
L 1766 0 
Q 1100 0 847 248 
Q 594 497 594 1153 
L 594 3053 
L 172 3053 
L 172 3500 
L 594 3500 
L 594 4494 
L 1172 4494 
z
" transform="scale(0.015625)"/>
      <path id="DejaVuSans-5f" d="M 3263 -1063 
L 3263 -1509 
L -63 -1509 
L -63 -1063 
L 3263 -1063 
z
" transform="scale(0.015625)"/>
      <path id="DejaVuSans-73" d="M 2834 3397 
L 2834 2853 
Q 2591 2978 2328 3040 
Q 2066 3103 1784 3103 
Q 1356 3103 1142 2972 
Q 928 2841 928 2578 
Q 928 2378 1081 2264 
Q 1234 2150 1697 2047 
L 1894 2003 
Q 2506 1872 2764 1633 
Q 3022 1394 3022 966 
Q 3022 478 2636 193 
Q 2250 -91 1575 -91 
Q 1294 -91 989 -36 
Q 684 19 347 128 
L 347 722 
Q 666 556 975 473 
Q 1284 391 1588 391 
Q 1994 391 2212 530 
Q 2431 669 2431 922 
Q 2431 1156 2273 1281 
Q 2116 1406 1581 1522 
L 1381 1569 
Q 847 1681 609 1914 
Q 372 2147 372 2553 
Q 372 3047 722 3315 
Q 1072 3584 1716 3584 
Q 2034 3584 2315 3537 
Q 2597 3491 2834 3397 
z
" transform="scale(0.015625)"/>
      <path id="DejaVuSans-75" d="M 544 1381 
L 544 3500 
L 1119 3500 
L 1119 1403 
Q 1119 906 1312 657 
Q 1506 409 1894 409 
Q 2359 409 2629 706 
Q 2900 1003 2900 1516 
L 2900 3500 
L 3475 3500 
L 3475 0 
L 2900 0 
L 2900 538 
Q 2691 219 2414 64 
Q 2138 -91 1772 -91 
Q 1169 -91 856 284 
Q 544 659 544 1381 
z
M 1991 3584 
L 1991 3584 
z
" transform="scale(0.015625)"/>
      <path id="DejaVuSans-62" d="M 3116 1747 
Q 3116 2381 2855 2742 
Q 2594 3103 2138 3103 
Q 1681 3103 1420 2742 
Q 1159 2381 1159 1747 
Q 1159 1113 1420 752 
Q 1681 391 2138 391 
Q 2594 391 2855 752 
Q 3116 1113 3116 1747 
z
M 1159 2969 
Q 1341 3281 1617 3432 
Q 1894 3584 2278 3584 
Q 2916 3584 3314 3078 
Q 3713 2572 3713 1747 
Q 3713 922 3314 415 
Q 2916 -91 2278 -91 
Q 1894 -91 1617 61 
Q 1341 213 1159 525 
L 1159 0 
L 581 0 
L 581 4863 
L 1159 4863 
L 1159 2969 
z
" transform="scale(0.015625)"/>
      <path id="DejaVuSans-63" d="M 3122 3366 
L 3122 2828 
Q 2878 2963 2633 3030 
Q 2388 3097 2138 3097 
Q 1578 3097 1268 2742 
Q 959 2388 959 1747 
Q 959 1106 1268 751 
Q 1578 397 2138 397 
Q 2388 397 2633 464 
Q 2878 531 3122 666 
L 3122 134 
Q 2881 22 2623 -34 
Q 2366 -91 2075 -91 
Q 1284 -91 818 406 
Q 353 903 353 1747 
Q 353 2603 823 3093 
Q 1294 3584 2113 3584 
Q 2378 3584 2631 3529 
Q 2884 3475 3122 3366 
z
" transform="scale(0.015625)"/>
      <path id="DejaVuSans-72" d="M 2631 2963 
Q 2534 3019 2420 3045 
Q 2306 3072 2169 3072 
Q 1681 3072 1420 2755 
Q 1159 2438 1159 1844 
L 1159 0 
L 581 0 
L 581 3500 
L 1159 3500 
L 1159 2956 
Q 1341 3275 1631 3429 
Q 1922 3584 2338 3584 
Q 2397 3584 2469 3576 
Q 2541 3569 2628 3553 
L 2631 2963 
z
" transform="scale(0.015625)"/>
      <path id="DejaVuSans-69" d="M 603 3500 
L 1178 3500 
L 1178 0 
L 603 0 
L 603 3500 
z
M 603 4863 
L 1178 4863 
L 1178 4134 
L 603 4134 
L 603 4863 
z
" transform="scale(0.015625)"/>
      <path id="DejaVuSans-20" transform="scale(0.015625)"/>
      <path id="DejaVuSans-68" d="M 3513 2113 
L 3513 0 
L 2938 0 
L 2938 2094 
Q 2938 2591 2744 2837 
Q 2550 3084 2163 3084 
Q 1697 3084 1428 2787 
Q 1159 2491 1159 1978 
L 1159 0 
L 581 0 
L 581 4863 
L 1159 4863 
L 1159 2956 
Q 1366 3272 1645 3428 
Q 1925 3584 2291 3584 
Q 2894 3584 3203 3211 
Q 3513 2838 3513 2113 
z
" transform="scale(0.015625)"/>
      <path id="DejaVuSans-6f" d="M 1959 3097 
Q 1497 3097 1228 2736 
Q 959 2375 959 1747 
Q 959 1119 1226 758 
Q 1494 397 1959 397 
Q 2419 397 2687 759 
Q 2956 1122 2956 1747 
Q 2956 2369 2687 2733 
Q 2419 3097 1959 3097 
z
M 1959 3584 
Q 2709 3584 3137 3096 
Q 3566 2609 3566 1747 
Q 3566 888 3137 398 
Q 2709 -91 1959 -91 
Q 1206 -91 779 398 
Q 353 888 353 1747 
Q 353 2609 779 3096 
Q 1206 3584 1959 3584 
z
" transform="scale(0.015625)"/>
      <path id="DejaVuSans-79" d="M 2059 -325 
Q 1816 -950 1584 -1140 
Q 1353 -1331 966 -1331 
L 506 -1331 
L 506 -850 
L 844 -850 
Q 1081 -850 1212 -737 
Q 1344 -625 1503 -206 
L 1606 56 
L 191 3500 
L 800 3500 
L 1894 763 
L 2988 3500 
L 3597 3500 
L 2059 -325 
z
" transform="scale(0.015625)"/>
     </defs>
     <use xlink:href="#DejaVuSans-67"/>
     <use xlink:href="#DejaVuSans-65" x="63.476562"/>
     <use xlink:href="#DejaVuSans-74" x="125"/>
     <use xlink:href="#DejaVuSans-5f" x="164.208984"/>
     <use xlink:href="#DejaVuSans-73" x="214.208984"/>
     <use xlink:href="#DejaVuSans-75" x="266.308594"/>
     <use xlink:href="#DejaVuSans-62" x="329.6875"/>
     <use xlink:href="#DejaVuSans-73" x="393.164062"/>
     <use xlink:href="#DejaVuSans-63" x="445.263672"/>
     <use xlink:href="#DejaVuSans-72" x="500.244141"/>
     <use xlink:href="#DejaVuSans-69" x="541.357422"/>
     <use xlink:href="#DejaVuSans-62" x="569.140625"/>
     <use xlink:href="#DejaVuSans-65" x="632.617188"/>
     <use xlink:href="#DejaVuSans-20" x="694.140625"/>
     <use xlink:href="#DejaVuSans-68" x="725.927734"/>
     <use xlink:href="#DejaVuSans-69" x="789.306641"/>
     <use xlink:href="#DejaVuSans-73" x="817.089844"/>
     <use xlink:href="#DejaVuSans-74" x="869.189453"/>
     <use xlink:href="#DejaVuSans-6f" x="908.398438"/>
     <use xlink:href="#DejaVuSans-72" x="969.580078"/>
     <use xlink:href="#DejaVuSans-79" x="1010.693359"/>
    </g>
   </g>
   <g id="legend_1">
    <g id="line2d_45">
     <path d="M 815.08 328.498438 
L 825.08 328.498438 
L 835.08 328.498438 
" style="fill: none; stroke: #1f77b4; stroke-width: 1.5; stroke-linecap: square"/>
    </g>
    <g id="text_23">
     <!-- star -->
     <g style="fill: #a9a9a9" transform="translate(843.08 331.998438) scale(0.1 -0.1)">
      <defs>
       <path id="DejaVuSans-61" d="M 2194 1759 
Q 1497 1759 1228 1600 
Q 959 1441 959 1056 
Q 959 750 1161 570 
Q 1363 391 1709 391 
Q 2188 391 2477 730 
Q 2766 1069 2766 1631 
L 2766 1759 
L 2194 1759 
z
M 3341 1997 
L 3341 0 
L 2766 0 
L 2766 531 
Q 2569 213 2275 61 
Q 1981 -91 1556 -91 
Q 1019 -91 701 211 
Q 384 513 384 1019 
Q 384 1609 779 1909 
Q 1175 2209 1959 2209 
L 2766 2209 
L 2766 2266 
Q 2766 2663 2505 2880 
Q 2244 3097 1772 3097 
Q 1472 3097 1187 3025 
Q 903 2953 641 2809 
L 641 3341 
Q 956 3463 1253 3523 
Q 1550 3584 1831 3584 
Q 2591 3584 2966 3190 
Q 3341 2797 3341 1997 
z
" transform="scale(0.015625)"/>
      </defs>
      <use xlink:href="#DejaVuSans-73"/>
      <use xlink:href="#DejaVuSans-74" x="52.099609"/>
      <use xlink:href="#DejaVuSans-61" x="91.308594"/>
      <use xlink:href="#DejaVuSans-72" x="152.587891"/>
     </g>
    </g>
    <g id="line2d_46">
     <path d="M 815.08 343.176562 
L 825.08 343.176562 
L 835.08 343.176562 
" style="fill: none; stroke: #ff7f0e; stroke-width: 1.5; stroke-linecap: square"/>
    </g>
    <g id="text_24">
     <!-- fork -->
     <g style="fill: #a9a9a9" transform="translate(843.08 346.676562) scale(0.1 -0.1)">
      <defs>
       <path id="DejaVuSans-66" d="M 2375 4863 
L 2375 4384 
L 1825 4384 
Q 1516 4384 1395 4259 
Q 1275 4134 1275 3809 
L 1275 3500 
L 2222 3500 
L 2222 3053 
L 1275 3053 
L 1275 0 
L 697 0 
L 697 3053 
L 147 3053 
L 147 3500 
L 697 3500 
L 697 3744 
Q 697 4328 969 4595 
Q 1241 4863 1831 4863 
L 2375 4863 
z
" transform="scale(0.015625)"/>
       <path id="DejaVuSans-6b" d="M 581 4863 
L 1159 4863 
L 1159 1991 
L 2875 3500 
L 3609 3500 
L 1753 1863 
L 3688 0 
L 2938 0 
L 1159 1709 
L 1159 0 
L 581 0 
L 581 4863 
z
" transform="scale(0.015625)"/>
      </defs>
      <use xlink:href="#DejaVuSans-66"/>
      <use xlink:href="#DejaVuSans-6f" x="35.205078"/>
      <use xlink:href="#DejaVuSans-72" x="96.386719"/>
      <use xlink:href="#DejaVuSans-6b" x="137.5"/>
     </g>
    </g>
   </g>
  </g>
 </g>
 <defs>
  <clipPath id="p13d2d07c19">
   <rect x="108" y="43.2" width="669.6" height="277.2"/>
  </clipPath>
 </defs>
</svg>
