<?xml version="1.0" encoding="utf-8" standalone="no"?>
<!DOCTYPE svg PUBLIC "-//W3C//DTD SVG 1.1//EN"
  "http://www.w3.org/Graphics/SVG/1.1/DTD/svg11.dtd">
<svg xmlns:xlink="http://www.w3.org/1999/xlink" width="864pt" height="360pt" viewBox="0 0 864 360" xmlns="http://www.w3.org/2000/svg" version="1.1">
 <metadata>
  <rdf:RDF xmlns:dc="http://purl.org/dc/elements/1.1/" xmlns:cc="http://creativecommons.org/ns#" xmlns:rdf="http://www.w3.org/1999/02/22-rdf-syntax-ns#">
   <cc:Work>
    <dc:type rdf:resource="http://purl.org/dc/dcmitype/StillImage"/>
    <dc:date>2025-01-03T14:21:45.525110</dc:date>
    <dc:format>image/svg+xml</dc:format>
    <dc:creator>
     <cc:Agent>
      <dc:title>Matplotlib v3.10.0, https://matplotlib.org/</dc:title>
     </cc:Agent>
    </dc:creator>
   </cc:Work>
  </rdf:RDF>
 </metadata>
 <defs>
  <style type="text/css">*{stroke-linejoin: round; stroke-linecap: butt}</style>
 </defs>
 <g id="figure_1">
  <g id="patch_1">
   <path d="M 0 360 
L 864 360 
L 864 0 
L 0 0 
L 0 360 
z
" style="fill: none; opacity: 0"/>
  </g>
  <g id="axes_1">
   <g id="patch_2">
    <path d="M 108 320.4 
L 777.6 320.4 
L 777.6 43.2 
L 108 43.2 
L 108 320.4 
z
" style="fill: none; opacity: 0"/>
   </g>
   <g id="matplotlib.axis_1">
    <g id="xtick_1">
     <g id="line2d_1">
      <path d="M 127.31585 320.4 
L 127.31585 43.2 
" clip-path="url(#pabf0b5ebe8)" style="fill: none; stroke-dasharray: 5.12,1.28,0.8,1.28; stroke-dashoffset: 0; stroke: #b0b0b0; stroke-width: 0.8"/>
     </g>
     <g id="line2d_2">
      <defs>
       <path id="ma8f7e5ed48" d="M 0 0 
L 0 3.5 
" style="stroke: #a9a9a9; stroke-width: 0.8"/>
      </defs>
      <g>
       <use xlink:href="#ma8f7e5ed48" x="127.31585" y="320.4" style="fill: #a9a9a9; stroke: #a9a9a9; stroke-width: 0.8"/>
      </g>
     </g>
     <g id="text_1">
      <!-- 2021-07 -->
      <g style="fill: #a9a9a9" transform="translate(106.424443 334.998438) scale(0.1 -0.1)">
       <defs>
        <path id="DejaVuSans-32" d="M 1228 531 
L 3431 531 
L 3431 0 
L 469 0 
L 469 531 
Q 828 903 1448 1529 
Q 2069 2156 2228 2338 
Q 2531 2678 2651 2914 
Q 2772 3150 2772 3378 
Q 2772 3750 2511 3984 
Q 2250 4219 1831 4219 
Q 1534 4219 1204 4116 
Q 875 4013 500 3803 
L 500 4441 
Q 881 4594 1212 4672 
Q 1544 4750 1819 4750 
Q 2544 4750 2975 4387 
Q 3406 4025 3406 3419 
Q 3406 3131 3298 2873 
Q 3191 2616 2906 2266 
Q 2828 2175 2409 1742 
Q 1991 1309 1228 531 
z
" transform="scale(0.015625)"/>
        <path id="DejaVuSans-30" d="M 2034 4250 
Q 1547 4250 1301 3770 
Q 1056 3291 1056 2328 
Q 1056 1369 1301 889 
Q 1547 409 2034 409 
Q 2525 409 2770 889 
Q 3016 1369 3016 2328 
Q 3016 3291 2770 3770 
Q 2525 4250 2034 4250 
z
M 2034 4750 
Q 2819 4750 3233 4129 
Q 3647 3509 3647 2328 
Q 3647 1150 3233 529 
Q 2819 -91 2034 -91 
Q 1250 -91 836 529 
Q 422 1150 422 2328 
Q 422 3509 836 4129 
Q 1250 4750 2034 4750 
z
" transform="scale(0.015625)"/>
        <path id="DejaVuSans-31" d="M 794 531 
L 1825 531 
L 1825 4091 
L 703 3866 
L 703 4441 
L 1819 4666 
L 2450 4666 
L 2450 531 
L 3481 531 
L 3481 0 
L 794 0 
L 794 531 
z
" transform="scale(0.015625)"/>
        <path id="DejaVuSans-2d" d="M 313 2009 
L 1997 2009 
L 1997 1497 
L 313 1497 
L 313 2009 
z
" transform="scale(0.015625)"/>
        <path id="DejaVuSans-37" d="M 525 4666 
L 3525 4666 
L 3525 4397 
L 1831 0 
L 1172 0 
L 2766 4134 
L 525 4134 
L 525 4666 
z
" transform="scale(0.015625)"/>
       </defs>
       <use xlink:href="#DejaVuSans-32"/>
       <use xlink:href="#DejaVuSans-30" transform="translate(63.623047 0)"/>
       <use xlink:href="#DejaVuSans-32" transform="translate(127.246094 0)"/>
       <use xlink:href="#DejaVuSans-31" transform="translate(190.869141 0)"/>
       <use xlink:href="#DejaVuSans-2d" transform="translate(254.492188 0)"/>
       <use xlink:href="#DejaVuSans-30" transform="translate(290.576172 0)"/>
       <use xlink:href="#DejaVuSans-37" transform="translate(354.199219 0)"/>
      </g>
     </g>
    </g>
    <g id="xtick_2">
     <g id="line2d_3">
      <path d="M 216.279962 320.4 
L 216.279962 43.2 
" clip-path="url(#pabf0b5ebe8)" style="fill: none; stroke-dasharray: 5.12,1.28,0.8,1.28; stroke-dashoffset: 0; stroke: #b0b0b0; stroke-width: 0.8"/>
     </g>
     <g id="line2d_4">
      <g>
       <use xlink:href="#ma8f7e5ed48" x="216.279962" y="320.4" style="fill: #a9a9a9; stroke: #a9a9a9; stroke-width: 0.8"/>
      </g>
     </g>
     <g id="text_2">
      <!-- 2022-01 -->
      <g style="fill: #a9a9a9" transform="translate(195.388556 334.998438) scale(0.1 -0.1)">
       <use xlink:href="#DejaVuSans-32"/>
       <use xlink:href="#DejaVuSans-30" transform="translate(63.623047 0)"/>
       <use xlink:href="#DejaVuSans-32" transform="translate(127.246094 0)"/>
       <use xlink:href="#DejaVuSans-32" transform="translate(190.869141 0)"/>
       <use xlink:href="#DejaVuSans-2d" transform="translate(254.492188 0)"/>
       <use xlink:href="#DejaVuSans-30" transform="translate(290.576172 0)"/>
       <use xlink:href="#DejaVuSans-31" transform="translate(354.199219 0)"/>
      </g>
     </g>
    </g>
    <g id="xtick_3">
     <g id="line2d_5">
      <path d="M 303.793574 320.4 
L 303.793574 43.2 
" clip-path="url(#pabf0b5ebe8)" style="fill: none; stroke-dasharray: 5.12,1.28,0.8,1.28; stroke-dashoffset: 0; stroke: #b0b0b0; stroke-width: 0.8"/>
     </g>
     <g id="line2d_6">
      <g>
       <use xlink:href="#ma8f7e5ed48" x="303.793574" y="320.4" style="fill: #a9a9a9; stroke: #a9a9a9; stroke-width: 0.8"/>
      </g>
     </g>
     <g id="text_3">
      <!-- 2022-07 -->
      <g style="fill: #a9a9a9" transform="translate(282.902167 334.998438) scale(0.1 -0.1)">
       <use xlink:href="#DejaVuSans-32"/>
       <use xlink:href="#DejaVuSans-30" transform="translate(63.623047 0)"/>
       <use xlink:href="#DejaVuSans-32" transform="translate(127.246094 0)"/>
       <use xlink:href="#DejaVuSans-32" transform="translate(190.869141 0)"/>
       <use xlink:href="#DejaVuSans-2d" transform="translate(254.492188 0)"/>
       <use xlink:href="#DejaVuSans-30" transform="translate(290.576172 0)"/>
       <use xlink:href="#DejaVuSans-37" transform="translate(354.199219 0)"/>
      </g>
     </g>
    </g>
    <g id="xtick_4">
     <g id="line2d_7">
      <path d="M 392.757686 320.4 
L 392.757686 43.2 
" clip-path="url(#pabf0b5ebe8)" style="fill: none; stroke-dasharray: 5.12,1.28,0.8,1.28; stroke-dashoffset: 0; stroke: #b0b0b0; stroke-width: 0.8"/>
     </g>
     <g id="line2d_8">
      <g>
       <use xlink:href="#ma8f7e5ed48" x="392.757686" y="320.4" style="fill: #a9a9a9; stroke: #a9a9a9; stroke-width: 0.8"/>
      </g>
     </g>
     <g id="text_4">
      <!-- 2023-01 -->
      <g style="fill: #a9a9a9" transform="translate(371.86628 334.998438) scale(0.1 -0.1)">
       <defs>
        <path id="DejaVuSans-33" d="M 2597 2516 
Q 3050 2419 3304 2112 
Q 3559 1806 3559 1356 
Q 3559 666 3084 287 
Q 2609 -91 1734 -91 
Q 1441 -91 1130 -33 
Q 819 25 488 141 
L 488 750 
Q 750 597 1062 519 
Q 1375 441 1716 441 
Q 2309 441 2620 675 
Q 2931 909 2931 1356 
Q 2931 1769 2642 2001 
Q 2353 2234 1838 2234 
L 1294 2234 
L 1294 2753 
L 1863 2753 
Q 2328 2753 2575 2939 
Q 2822 3125 2822 3475 
Q 2822 3834 2567 4026 
Q 2313 4219 1838 4219 
Q 1578 4219 1281 4162 
Q 984 4106 628 3988 
L 628 4550 
Q 988 4650 1302 4700 
Q 1616 4750 1894 4750 
Q 2613 4750 3031 4423 
Q 3450 4097 3450 3541 
Q 3450 3153 3228 2886 
Q 3006 2619 2597 2516 
z
" transform="scale(0.015625)"/>
       </defs>
       <use xlink:href="#DejaVuSans-32"/>
       <use xlink:href="#DejaVuSans-30" transform="translate(63.623047 0)"/>
       <use xlink:href="#DejaVuSans-32" transform="translate(127.246094 0)"/>
       <use xlink:href="#DejaVuSans-33" transform="translate(190.869141 0)"/>
       <use xlink:href="#DejaVuSans-2d" transform="translate(254.492188 0)"/>
       <use xlink:href="#DejaVuSans-30" transform="translate(290.576172 0)"/>
       <use xlink:href="#DejaVuSans-31" transform="translate(354.199219 0)"/>
      </g>
     </g>
    </g>
    <g id="xtick_5">
     <g id="line2d_9">
      <path d="M 480.271298 320.4 
L 480.271298 43.2 
" clip-path="url(#pabf0b5ebe8)" style="fill: none; stroke-dasharray: 5.12,1.28,0.8,1.28; stroke-dashoffset: 0; stroke: #b0b0b0; stroke-width: 0.8"/>
     </g>
     <g id="line2d_10">
      <g>
       <use xlink:href="#ma8f7e5ed48" x="480.271298" y="320.4" style="fill: #a9a9a9; stroke: #a9a9a9; stroke-width: 0.8"/>
      </g>
     </g>
     <g id="text_5">
      <!-- 2023-07 -->
      <g style="fill: #a9a9a9" transform="translate(459.379891 334.998438) scale(0.1 -0.1)">
       <use xlink:href="#DejaVuSans-32"/>
       <use xlink:href="#DejaVuSans-30" transform="translate(63.623047 0)"/>
       <use xlink:href="#DejaVuSans-32" transform="translate(127.246094 0)"/>
       <use xlink:href="#DejaVuSans-33" transform="translate(190.869141 0)"/>
       <use xlink:href="#DejaVuSans-2d" transform="translate(254.492188 0)"/>
       <use xlink:href="#DejaVuSans-30" transform="translate(290.576172 0)"/>
       <use xlink:href="#DejaVuSans-37" transform="translate(354.199219 0)"/>
      </g>
     </g>
    </g>
    <g id="xtick_6">
     <g id="line2d_11">
      <path d="M 569.23541 320.4 
L 569.23541 43.2 
" clip-path="url(#pabf0b5ebe8)" style="fill: none; stroke-dasharray: 5.12,1.28,0.8,1.28; stroke-dashoffset: 0; stroke: #b0b0b0; stroke-width: 0.8"/>
     </g>
     <g id="line2d_12">
      <g>
       <use xlink:href="#ma8f7e5ed48" x="569.23541" y="320.4" style="fill: #a9a9a9; stroke: #a9a9a9; stroke-width: 0.8"/>
      </g>
     </g>
     <g id="text_6">
      <!-- 2024-01 -->
      <g style="fill: #a9a9a9" transform="translate(548.344004 334.998438) scale(0.1 -0.1)">
       <defs>
        <path id="DejaVuSans-34" d="M 2419 4116 
L 825 1625 
L 2419 1625 
L 2419 4116 
z
M 2253 4666 
L 3047 4666 
L 3047 1625 
L 3713 1625 
L 3713 1100 
L 3047 1100 
L 3047 0 
L 2419 0 
L 2419 1100 
L 313 1100 
L 313 1709 
L 2253 4666 
z
" transform="scale(0.015625)"/>
       </defs>
       <use xlink:href="#DejaVuSans-32"/>
       <use xlink:href="#DejaVuSans-30" transform="translate(63.623047 0)"/>
       <use xlink:href="#DejaVuSans-32" transform="translate(127.246094 0)"/>
       <use xlink:href="#DejaVuSans-34" transform="translate(190.869141 0)"/>
       <use xlink:href="#DejaVuSans-2d" transform="translate(254.492188 0)"/>
       <use xlink:href="#DejaVuSans-30" transform="translate(290.576172 0)"/>
       <use xlink:href="#DejaVuSans-31" transform="translate(354.199219 0)"/>
      </g>
     </g>
    </g>
    <g id="xtick_7">
     <g id="line2d_13">
      <path d="M 657.232522 320.4 
L 657.232522 43.2 
" clip-path="url(#pabf0b5ebe8)" style="fill: none; stroke-dasharray: 5.12,1.28,0.8,1.28; stroke-dashoffset: 0; stroke: #b0b0b0; stroke-width: 0.8"/>
     </g>
     <g id="line2d_14">
      <g>
       <use xlink:href="#ma8f7e5ed48" x="657.232522" y="320.4" style="fill: #a9a9a9; stroke: #a9a9a9; stroke-width: 0.8"/>
      </g>
     </g>
     <g id="text_7">
      <!-- 2024-07 -->
      <g style="fill: #a9a9a9" transform="translate(636.341116 334.998438) scale(0.1 -0.1)">
       <use xlink:href="#DejaVuSans-32"/>
       <use xlink:href="#DejaVuSans-30" transform="translate(63.623047 0)"/>
       <use xlink:href="#DejaVuSans-32" transform="translate(127.246094 0)"/>
       <use xlink:href="#DejaVuSans-34" transform="translate(190.869141 0)"/>
       <use xlink:href="#DejaVuSans-2d" transform="translate(254.492188 0)"/>
       <use xlink:href="#DejaVuSans-30" transform="translate(290.576172 0)"/>
       <use xlink:href="#DejaVuSans-37" transform="translate(354.199219 0)"/>
      </g>
     </g>
    </g>
    <g id="xtick_8">
     <g id="line2d_15">
      <path d="M 746.196635 320.4 
L 746.196635 43.2 
" clip-path="url(#pabf0b5ebe8)" style="fill: none; stroke-dasharray: 5.12,1.28,0.8,1.28; stroke-dashoffset: 0; stroke: #b0b0b0; stroke-width: 0.8"/>
     </g>
     <g id="line2d_16">
      <g>
       <use xlink:href="#ma8f7e5ed48" x="746.196635" y="320.4" style="fill: #a9a9a9; stroke: #a9a9a9; stroke-width: 0.8"/>
      </g>
     </g>
     <g id="text_8">
      <!-- 2025-01 -->
      <g style="fill: #a9a9a9" transform="translate(725.305229 334.998438) scale(0.1 -0.1)">
       <defs>
        <path id="DejaVuSans-35" d="M 691 4666 
L 3169 4666 
L 3169 4134 
L 1269 4134 
L 1269 2991 
Q 1406 3038 1543 3061 
Q 1681 3084 1819 3084 
Q 2600 3084 3056 2656 
Q 3513 2228 3513 1497 
Q 3513 744 3044 326 
Q 2575 -91 1722 -91 
Q 1428 -91 1123 -41 
Q 819 9 494 109 
L 494 744 
Q 775 591 1075 516 
Q 1375 441 1709 441 
Q 2250 441 2565 725 
Q 2881 1009 2881 1497 
Q 2881 1984 2565 2268 
Q 2250 2553 1709 2553 
Q 1456 2553 1204 2497 
Q 953 2441 691 2322 
L 691 4666 
z
" transform="scale(0.015625)"/>
       </defs>
       <use xlink:href="#DejaVuSans-32"/>
       <use xlink:href="#DejaVuSans-30" transform="translate(63.623047 0)"/>
       <use xlink:href="#DejaVuSans-32" transform="translate(127.246094 0)"/>
       <use xlink:href="#DejaVuSans-35" transform="translate(190.869141 0)"/>
       <use xlink:href="#DejaVuSans-2d" transform="translate(254.492188 0)"/>
       <use xlink:href="#DejaVuSans-30" transform="translate(290.576172 0)"/>
       <use xlink:href="#DejaVuSans-31" transform="translate(354.199219 0)"/>
      </g>
     </g>
    </g>
   </g>
   <g id="matplotlib.axis_2">
    <g id="ytick_1">
     <g id="line2d_17">
      <path d="M 108 307.835191 
L 777.6 307.835191 
" clip-path="url(#pabf0b5ebe8)" style="fill: none; stroke-dasharray: 5.12,1.28,0.8,1.28; stroke-dashoffset: 0; stroke: #b0b0b0; stroke-width: 0.8"/>
     </g>
     <g id="line2d_18">
      <defs>
       <path id="m495725e869" d="M 0 0 
L -3.5 0 
" style="stroke: #a9a9a9; stroke-width: 0.8"/>
      </defs>
      <g>
       <use xlink:href="#m495725e869" x="108" y="307.835191" style="fill: #a9a9a9; stroke: #a9a9a9; stroke-width: 0.8"/>
      </g>
     </g>
     <g id="text_9">
      <!-- 0 -->
      <g style="fill: #a9a9a9" transform="translate(94.6375 311.634409) scale(0.1 -0.1)">
       <use xlink:href="#DejaVuSans-30"/>
      </g>
     </g>
    </g>
    <g id="ytick_2">
     <g id="line2d_19">
      <path d="M 108 279.682698 
L 777.6 279.682698 
" clip-path="url(#pabf0b5ebe8)" style="fill: none; stroke-dasharray: 5.12,1.28,0.8,1.28; stroke-dashoffset: 0; stroke: #b0b0b0; stroke-width: 0.8"/>
     </g>
     <g id="line2d_20">
      <g>
       <use xlink:href="#m495725e869" x="108" y="279.682698" style="fill: #a9a9a9; stroke: #a9a9a9; stroke-width: 0.8"/>
      </g>
     </g>
     <g id="text_10">
      <!-- 800 -->
      <g style="fill: #a9a9a9" transform="translate(81.9125 283.481917) scale(0.1 -0.1)">
       <defs>
        <path id="DejaVuSans-38" d="M 2034 2216 
Q 1584 2216 1326 1975 
Q 1069 1734 1069 1313 
Q 1069 891 1326 650 
Q 1584 409 2034 409 
Q 2484 409 2743 651 
Q 3003 894 3003 1313 
Q 3003 1734 2745 1975 
Q 2488 2216 2034 2216 
z
M 1403 2484 
Q 997 2584 770 2862 
Q 544 3141 544 3541 
Q 544 4100 942 4425 
Q 1341 4750 2034 4750 
Q 2731 4750 3128 4425 
Q 3525 4100 3525 3541 
Q 3525 3141 3298 2862 
Q 3072 2584 2669 2484 
Q 3125 2378 3379 2068 
Q 3634 1759 3634 1313 
Q 3634 634 3220 271 
Q 2806 -91 2034 -91 
Q 1263 -91 848 271 
Q 434 634 434 1313 
Q 434 1759 690 2068 
Q 947 2378 1403 2484 
z
M 1172 3481 
Q 1172 3119 1398 2916 
Q 1625 2713 2034 2713 
Q 2441 2713 2670 2916 
Q 2900 3119 2900 3481 
Q 2900 3844 2670 4047 
Q 2441 4250 2034 4250 
Q 1625 4250 1398 4047 
Q 1172 3844 1172 3481 
z
" transform="scale(0.015625)"/>
       </defs>
       <use xlink:href="#DejaVuSans-38"/>
       <use xlink:href="#DejaVuSans-30" transform="translate(63.623047 0)"/>
       <use xlink:href="#DejaVuSans-30" transform="translate(127.246094 0)"/>
      </g>
     </g>
    </g>
    <g id="ytick_3">
     <g id="line2d_21">
      <path d="M 108 251.530205 
L 777.6 251.530205 
" clip-path="url(#pabf0b5ebe8)" style="fill: none; stroke-dasharray: 5.12,1.28,0.8,1.28; stroke-dashoffset: 0; stroke: #b0b0b0; stroke-width: 0.8"/>
     </g>
     <g id="line2d_22">
      <g>
       <use xlink:href="#m495725e869" x="108" y="251.530205" style="fill: #a9a9a9; stroke: #a9a9a9; stroke-width: 0.8"/>
      </g>
     </g>
     <g id="text_11">
      <!-- 1600 -->
      <g style="fill: #a9a9a9" transform="translate(75.55 255.329424) scale(0.1 -0.1)">
       <defs>
        <path id="DejaVuSans-36" d="M 2113 2584 
Q 1688 2584 1439 2293 
Q 1191 2003 1191 1497 
Q 1191 994 1439 701 
Q 1688 409 2113 409 
Q 2538 409 2786 701 
Q 3034 994 3034 1497 
Q 3034 2003 2786 2293 
Q 2538 2584 2113 2584 
z
M 3366 4563 
L 3366 3988 
Q 3128 4100 2886 4159 
Q 2644 4219 2406 4219 
Q 1781 4219 1451 3797 
Q 1122 3375 1075 2522 
Q 1259 2794 1537 2939 
Q 1816 3084 2150 3084 
Q 2853 3084 3261 2657 
Q 3669 2231 3669 1497 
Q 3669 778 3244 343 
Q 2819 -91 2113 -91 
Q 1303 -91 875 529 
Q 447 1150 447 2328 
Q 447 3434 972 4092 
Q 1497 4750 2381 4750 
Q 2619 4750 2861 4703 
Q 3103 4656 3366 4563 
z
" transform="scale(0.015625)"/>
       </defs>
       <use xlink:href="#DejaVuSans-31"/>
       <use xlink:href="#DejaVuSans-36" transform="translate(63.623047 0)"/>
       <use xlink:href="#DejaVuSans-30" transform="translate(127.246094 0)"/>
       <use xlink:href="#DejaVuSans-30" transform="translate(190.869141 0)"/>
      </g>
     </g>
    </g>
    <g id="ytick_4">
     <g id="line2d_23">
      <path d="M 108 223.377713 
L 777.6 223.377713 
" clip-path="url(#pabf0b5ebe8)" style="fill: none; stroke-dasharray: 5.12,1.28,0.8,1.28; stroke-dashoffset: 0; stroke: #b0b0b0; stroke-width: 0.8"/>
     </g>
     <g id="line2d_24">
      <g>
       <use xlink:href="#m495725e869" x="108" y="223.377713" style="fill: #a9a9a9; stroke: #a9a9a9; stroke-width: 0.8"/>
      </g>
     </g>
     <g id="text_12">
      <!-- 2400 -->
      <g style="fill: #a9a9a9" transform="translate(75.55 227.176931) scale(0.1 -0.1)">
       <use xlink:href="#DejaVuSans-32"/>
       <use xlink:href="#DejaVuSans-34" transform="translate(63.623047 0)"/>
       <use xlink:href="#DejaVuSans-30" transform="translate(127.246094 0)"/>
       <use xlink:href="#DejaVuSans-30" transform="translate(190.869141 0)"/>
      </g>
     </g>
    </g>
    <g id="ytick_5">
     <g id="line2d_25">
      <path d="M 108 195.22522 
L 777.6 195.22522 
" clip-path="url(#pabf0b5ebe8)" style="fill: none; stroke-dasharray: 5.12,1.28,0.8,1.28; stroke-dashoffset: 0; stroke: #b0b0b0; stroke-width: 0.8"/>
     </g>
     <g id="line2d_26">
      <g>
       <use xlink:href="#m495725e869" x="108" y="195.22522" style="fill: #a9a9a9; stroke: #a9a9a9; stroke-width: 0.8"/>
      </g>
     </g>
     <g id="text_13">
      <!-- 3200 -->
      <g style="fill: #a9a9a9" transform="translate(75.55 199.024439) scale(0.1 -0.1)">
       <use xlink:href="#DejaVuSans-33"/>
       <use xlink:href="#DejaVuSans-32" transform="translate(63.623047 0)"/>
       <use xlink:href="#DejaVuSans-30" transform="translate(127.246094 0)"/>
       <use xlink:href="#DejaVuSans-30" transform="translate(190.869141 0)"/>
      </g>
     </g>
    </g>
    <g id="ytick_6">
     <g id="line2d_27">
      <path d="M 108 167.072727 
L 777.6 167.072727 
" clip-path="url(#pabf0b5ebe8)" style="fill: none; stroke-dasharray: 5.12,1.28,0.8,1.28; stroke-dashoffset: 0; stroke: #b0b0b0; stroke-width: 0.8"/>
     </g>
     <g id="line2d_28">
      <g>
       <use xlink:href="#m495725e869" x="108" y="167.072727" style="fill: #a9a9a9; stroke: #a9a9a9; stroke-width: 0.8"/>
      </g>
     </g>
     <g id="text_14">
      <!-- 4000 -->
      <g style="fill: #a9a9a9" transform="translate(75.55 170.871946) scale(0.1 -0.1)">
       <use xlink:href="#DejaVuSans-34"/>
       <use xlink:href="#DejaVuSans-30" transform="translate(63.623047 0)"/>
       <use xlink:href="#DejaVuSans-30" transform="translate(127.246094 0)"/>
       <use xlink:href="#DejaVuSans-30" transform="translate(190.869141 0)"/>
      </g>
     </g>
    </g>
    <g id="ytick_7">
     <g id="line2d_29">
      <path d="M 108 138.920235 
L 777.6 138.920235 
" clip-path="url(#pabf0b5ebe8)" style="fill: none; stroke-dasharray: 5.12,1.28,0.8,1.28; stroke-dashoffset: 0; stroke: #b0b0b0; stroke-width: 0.8"/>
     </g>
     <g id="line2d_30">
      <g>
       <use xlink:href="#m495725e869" x="108" y="138.920235" style="fill: #a9a9a9; stroke: #a9a9a9; stroke-width: 0.8"/>
      </g>
     </g>
     <g id="text_15">
      <!-- 4800 -->
      <g style="fill: #a9a9a9" transform="translate(75.55 142.719453) scale(0.1 -0.1)">
       <use xlink:href="#DejaVuSans-34"/>
       <use xlink:href="#DejaVuSans-38" transform="translate(63.623047 0)"/>
       <use xlink:href="#DejaVuSans-30" transform="translate(127.246094 0)"/>
       <use xlink:href="#DejaVuSans-30" transform="translate(190.869141 0)"/>
      </g>
     </g>
    </g>
    <g id="ytick_8">
     <g id="line2d_31">
      <path d="M 108 110.767742 
L 777.6 110.767742 
" clip-path="url(#pabf0b5ebe8)" style="fill: none; stroke-dasharray: 5.12,1.28,0.8,1.28; stroke-dashoffset: 0; stroke: #b0b0b0; stroke-width: 0.8"/>
     </g>
     <g id="line2d_32">
      <g>
       <use xlink:href="#m495725e869" x="108" y="110.767742" style="fill: #a9a9a9; stroke: #a9a9a9; stroke-width: 0.8"/>
      </g>
     </g>
     <g id="text_16">
      <!-- 5600 -->
      <g style="fill: #a9a9a9" transform="translate(75.55 114.566961) scale(0.1 -0.1)">
       <use xlink:href="#DejaVuSans-35"/>
       <use xlink:href="#DejaVuSans-36" transform="translate(63.623047 0)"/>
       <use xlink:href="#DejaVuSans-30" transform="translate(127.246094 0)"/>
       <use xlink:href="#DejaVuSans-30" transform="translate(190.869141 0)"/>
      </g>
     </g>
    </g>
    <g id="ytick_9">
     <g id="line2d_33">
      <path d="M 108 82.615249 
L 777.6 82.615249 
" clip-path="url(#pabf0b5ebe8)" style="fill: none; stroke-dasharray: 5.12,1.28,0.8,1.28; stroke-dashoffset: 0; stroke: #b0b0b0; stroke-width: 0.8"/>
     </g>
     <g id="line2d_34">
      <g>
       <use xlink:href="#m495725e869" x="108" y="82.615249" style="fill: #a9a9a9; stroke: #a9a9a9; stroke-width: 0.8"/>
      </g>
     </g>
     <g id="text_17">
      <!-- 6400 -->
      <g style="fill: #a9a9a9" transform="translate(75.55 86.414468) scale(0.1 -0.1)">
       <use xlink:href="#DejaVuSans-36"/>
       <use xlink:href="#DejaVuSans-34" transform="translate(63.623047 0)"/>
       <use xlink:href="#DejaVuSans-30" transform="translate(127.246094 0)"/>
       <use xlink:href="#DejaVuSans-30" transform="translate(190.869141 0)"/>
      </g>
     </g>
    </g>
    <g id="ytick_10">
     <g id="line2d_35">
      <path d="M 108 54.462757 
L 777.6 54.462757 
" clip-path="url(#pabf0b5ebe8)" style="fill: none; stroke-dasharray: 5.12,1.28,0.8,1.28; stroke-dashoffset: 0; stroke: #b0b0b0; stroke-width: 0.8"/>
     </g>
     <g id="line2d_36">
      <g>
       <use xlink:href="#m495725e869" x="108" y="54.462757" style="fill: #a9a9a9; stroke: #a9a9a9; stroke-width: 0.8"/>
      </g>
     </g>
     <g id="text_18">
      <!-- 7200 -->
      <g style="fill: #a9a9a9" transform="translate(75.55 58.261975) scale(0.1 -0.1)">
       <use xlink:href="#DejaVuSans-37"/>
       <use xlink:href="#DejaVuSans-32" transform="translate(63.623047 0)"/>
       <use xlink:href="#DejaVuSans-30" transform="translate(127.246094 0)"/>
       <use xlink:href="#DejaVuSans-30" transform="translate(190.869141 0)"/>
      </g>
     </g>
    </g>
   </g>
   <g id="line2d_37">
    <path d="M 138.436364 307.729619 
L 141.337367 307.483284 
L 141.820868 307.272141 
L 143.75487 307.025806 
L 145.688873 306.63871 
L 146.655874 306.497947 
L 149.073377 306.286804 
L 150.040378 305.899707 
L 150.523879 305.266276 
L 151.00738 304.91437 
L 151.49088 303.82346 
L 151.974381 303.753079 
L 152.457881 303.365982 
L 153.424883 302.873314 
L 155.358885 301.324927 
L 157.292888 300.37478 
L 158.743389 299.706158 
L 159.22689 298.931965 
L 160.193891 298.228152 
L 160.677392 298.017009 
L 165.512398 297.313196 
L 165.995899 297.102053 
L 169.380403 296.820528 
L 171.314405 296.36305 
L 175.18241 295.835191 
L 175.665911 295.588856 
L 176.149412 295.518475 
L 177.116413 295.20176 
L 180.500917 294.63871 
L 181.467918 294.357185 
L 185.819424 293.618182 
L 186.786425 293.407038 
L 187.753426 293.371848 
L 189.687429 292.91437 
L 190.170929 292.245748 
L 191.621431 291.682698 
L 193.071933 291.295601 
L 193.555434 291.049267 
L 194.522435 290.873314 
L 196.456437 290.310264 
L 197.423439 290.239883 
L 198.39044 289.993548 
L 200.324442 289.50088 
L 200.807943 289.465689 
L 201.774944 289.008211 
L 202.258445 288.93783 
L 202.741945 288.691496 
L 208.060452 287.81173 
L 209.994454 287.24868 
L 210.477955 286.931965 
L 212.895458 286.122581 
L 213.862459 285.453959 
L 215.312961 285.172434 
L 227.883977 281.618182 
L 228.367478 281.618182 
L 228.850978 281.407038 
L 229.81798 281.301466 
L 230.30148 281.125513 
L 232.235483 281.055132 
L 233.202484 280.879179 
L 234.169485 280.38651 
L 235.619987 279.858651 
L 236.103488 279.541935 
L 237.070489 279.119648 
L 237.553989 278.873314 
L 238.520991 278.556598 
L 239.004491 278.415836 
L 239.971493 277.817595 
L 240.454993 277.289736 
L 241.421994 275.81173 
L 241.905495 275.670968 
L 242.388996 275.670968 
L 243.839497 274.826393 
L 244.322998 274.580059 
L 244.806499 274.474487 
L 245.289999 274.017009 
L 246.257001 273.629912 
L 247.224002 273.172434 
L 249.641505 270.11085 
L 252.542508 268.562463 
L 253.50951 267.78827 
L 253.99301 267.471554 
L 254.476511 266.767742 
L 254.960012 265.676833 
L 255.443512 264.93783 
L 255.927013 264.550733 
L 256.410513 264.339589 
L 260.278518 260.820528 
L 261.24552 259.940762 
L 264.146523 258.146041 
L 264.630024 257.970088 
L 266.080526 257.125513 
L 267.531028 256.175367 
L 269.46503 254.451026 
L 270.432031 254.06393 
L 271.399032 253.395308 
L 271.882533 253.113783 
L 272.366034 253.043402 
L 273.816535 252.234018 
L 274.300036 251.706158 
L 276.717539 250.404106 
L 277.20104 250.228152 
L 278.651542 249.242815 
L 285.904051 246.6739 
L 286.871052 245.794135 
L 287.838053 245.336657 
L 288.805055 244.808798 
L 289.288555 244.527273 
L 290.255556 244.245748 
L 290.739057 243.929032 
L 291.222558 243.78827 
L 292.673059 242.838123 
L 295.090562 242.275073 
L 296.541064 241.430499 
L 297.991566 241.113783 
L 298.475067 240.973021 
L 299.925569 239.882111 
L 301.859571 239.354252 
L 302.343072 238.967155 
L 305.244075 237.981818 
L 306.211077 237.805865 
L 307.178078 237.418768 
L 310.562582 236.187097 
L 311.529583 236.046334 
L 312.980085 235.553666 
L 315.397588 234.392375 
L 317.331591 233.336657 
L 321.199596 231.753079 
L 321.683096 231.682698 
L 322.650097 231.084457 
L 323.133598 231.014076 
L 325.067601 230.239883 
L 327.001603 229.993548 
L 327.968604 229.50088 
L 328.452105 229.078592 
L 328.935605 228.198827 
L 330.869608 227.670968 
L 332.32011 226.931965 
L 332.80361 226.826393 
L 336.671615 224.96129 
L 338.122117 224.679765 
L 339.089118 224.187097 
L 339.572619 223.975953 
L 340.05612 223.905572 
L 341.990122 223.025806 
L 343.440624 222.11085 
L 344.891126 221.829326 
L 347.308629 221.231085 
L 347.792129 220.843988 
L 349.242631 220.316129 
L 351.176634 219.541935 
L 351.660134 219.190029 
L 352.143635 219.014076 
L 353.110636 218.486217 
L 355.528139 217.676833 
L 356.978641 216.515543 
L 357.462142 216.409971 
L 358.429143 215.635777 
L 358.912644 215.565396 
L 359.396144 214.791202 
L 359.879645 214.580059 
L 360.363145 214.192962 
L 360.846646 214.122581 
L 361.813647 213.52434 
L 362.780648 213.207625 
L 363.264149 212.855718 
L 363.74765 212.679765 
L 365.198151 211.659238 
L 367.132154 210.63871 
L 367.615655 210.568328 
L 369.066156 209.829326 
L 369.549657 209.019941 
L 370.516658 208.316129 
L 371.000159 208.210557 
L 371.96716 207.612317 
L 372.450661 207.506745 
L 373.417662 207.014076 
L 375.351664 206.06393 
L 375.835165 205.712023 
L 376.802166 204.761877 
L 377.769167 204.163636 
L 378.252668 203.846921 
L 378.736169 203.319062 
L 380.670171 201.981818 
L 381.153672 201.418768 
L 381.637172 201.031672 
L 382.604174 200.679765 
L 383.571175 200.011144 
L 385.021677 199.272141 
L 385.505177 199.20176 
L 386.955679 198.427566 
L 387.92268 197.829326 
L 392.757686 196.069795 
L 393.241187 195.682698 
L 395.17519 194.943695 
L 395.65869 194.802933 
L 396.625691 194.169501 
L 397.592693 193.747214 
L 398.559694 193.078592 
L 399.526695 191.143109 
L 400.493696 190.017009 
L 401.944198 189.278006 
L 402.911199 188.890909 
L 403.3947 188.820528 
L 403.878201 188.539003 
L 406.295704 187.764809 
L 406.779204 187.553666 
L 407.746206 186.885044 
L 409.196707 186.251613 
L 410.163709 185.723754 
L 410.647209 185.371848 
L 411.13071 185.160704 
L 411.61421 184.808798 
L 412.097711 184.280938 
L 413.064712 183.753079 
L 415.482215 182.451026 
L 418.383219 181.008211 
L 419.833721 180.585924 
L 421.284223 180.022874 
L 421.767723 179.670968 
L 422.734725 179.389443 
L 423.701726 179.002346 
L 424.185226 178.615249 
L 426.119229 177.946628 
L 427.08623 177.242815 
L 428.053231 176.820528 
L 429.020233 176.046334 
L 429.987234 175.694428 
L 430.470734 175.272141 
L 430.954235 175.20176 
L 431.921236 174.462757 
L 432.888237 173.970088 
L 433.371738 173.758944 
L 433.855239 173.266276 
L 437.239743 171.929032 
L 438.206744 171.506745 
L 439.657246 171.049267 
L 440.624247 170.908504 
L 441.107748 170.697361 
L 441.591248 170.626979 
L 442.55825 170.204692 
L 443.04175 170.169501 
L 444.975753 169.430499 
L 446.426255 168.409971 
L 446.909755 168.234018 
L 447.876756 167.706158 
L 448.360257 167.565396 
L 451.261261 165.946628 
L 451.744761 165.841056 
L 453.195263 164.996481 
L 454.645765 164.503812 
L 455.612766 164.187097 
L 457.546769 163.553666 
L 458.51377 163.23695 
L 460.447772 162.849853 
L 460.931273 162.63871 
L 461.414774 162.568328 
L 462.381775 162.146041 
L 462.865275 162.07566 
L 463.348776 161.829326 
L 464.315777 161.653372 
L 465.766279 161.125513 
L 466.73328 161.019941 
L 468.183782 160.703226 
L 470.601285 160.280938 
L 483.172301 156.621114 
L 483.655802 156.128446 
L 484.622803 155.741349 
L 488.490808 154.298534 
L 488.974309 154.017009 
L 490.42481 153.594721 
L 491.391812 153.348387 
L 491.875312 153.031672 
L 492.358813 152.9261 
L 492.842314 152.503812 
L 494.292815 152.222287 
L 495.259817 151.764809 
L 495.743317 151.20176 
L 497.67732 150.744282 
L 501.061824 150.040469 
L 501.545325 150.040469 
L 502.028825 149.829326 
L 503.962828 149.477419 
L 504.446328 149.266276 
L 506.380331 148.91437 
L 507.347332 148.492082 
L 508.314333 148.316129 
L 510.731836 147.717889 
L 512.665839 147.119648 
L 513.149339 147.014076 
L 513.63284 146.767742 
L 514.599841 146.521408 
L 515.083342 146.239883 
L 516.533844 145.747214 
L 517.017344 145.430499 
L 517.984345 145.148974 
L 521.85235 143.81173 
L 522.819352 143.741349 
L 524.753354 143.178299 
L 525.236855 142.896774 
L 526.203856 142.615249 
L 528.621359 141.52434 
L 529.10486 141.48915 
L 534.423366 139.624047 
L 536.840869 138.990616 
L 537.807871 138.533138 
L 539.258372 138.216422 
L 541.192375 136.632845 
L 542.159376 136.35132 
L 542.642877 135.964223 
L 545.54388 134.873314 
L 546.027381 134.556598 
L 546.994382 134.275073 
L 547.477883 133.958358 
L 549.895386 133.184164 
L 551.345888 132.339589 
L 551.829388 132.234018 
L 554.246891 130.931965 
L 555.697393 130.298534 
L 556.180894 129.946628 
L 557.147895 129.629912 
L 558.114896 129.066862 
L 558.598397 128.890909 
L 559.081898 128.539003 
L 565.367406 126.321994 
L 565.850906 126.216422 
L 566.334407 125.899707 
L 568.268409 125.51261 
L 569.23541 125.125513 
L 572.136414 123.717889 
L 572.619915 123.647507 
L 574.070417 122.838123 
L 575.520918 122.345455 
L 578.905423 120.973021 
L 579.388923 120.832258 
L 579.872424 120.515543 
L 580.839425 120.409971 
L 581.322926 120.093255 
L 582.289927 119.917302 
L 583.256928 119.459824 
L 583.740429 119.24868 
L 584.22393 119.178299 
L 586.641433 118.228152 
L 588.091934 117.841056 
L 589.058936 117.594721 
L 590.509438 117.172434 
L 591.476439 116.785337 
L 593.410441 115.729619 
L 594.377442 115.342522 
L 594.860943 115.025806 
L 595.827944 114.814663 
L 596.311445 114.533138 
L 596.794945 114.427566 
L 598.245447 113.618182 
L 599.212449 113.231085 
L 601.146451 112.492082 
L 603.563954 111.682698 
L 604.530955 111.190029 
L 606.948458 110.380645 
L 609.849462 109.219355 
L 611.783465 108.339589 
L 616.618471 106.474487 
L 617.101971 106.157771 
L 619.035974 105.48915 
L 619.519474 105.48915 
L 620.486476 105.066862 
L 622.420478 103.518475 
L 622.903979 103.377713 
L 623.387479 103.060997 
L 623.87098 102.955425 
L 624.35448 102.709091 
L 624.837981 102.63871 
L 625.321482 102.286804 
L 625.804982 102.181232 
L 626.771984 101.582991 
L 628.222485 100.843988 
L 629.189487 100.456891 
L 629.672987 100.210557 
L 631.123489 99.893842 
L 633.540992 99.084457 
L 634.507993 98.767742 
L 635.958495 98.028739 
L 636.925496 97.571261 
L 637.892498 97.324927 
L 639.342999 96.656305 
L 643.694505 95.072727 
L 645.145007 94.192962 
L 645.628507 94.08739 
L 646.595509 93.629912 
L 647.56251 93.278006 
L 648.046011 92.855718 
L 649.013012 92.468622 
L 651.914015 91.307331 
L 653.364517 90.885044 
L 653.848018 90.63871 
L 654.331519 90.568328 
L 655.78202 90.040469 
L 657.232522 89.51261 
L 658.199523 89.125513 
L 658.683024 88.738416 
L 660.133526 88.35132 
L 660.617027 88.069795 
L 661.584028 87.82346 
L 663.03453 87.014076 
L 663.51803 86.978886 
L 664.968532 86.521408 
L 665.935533 86.451026 
L 666.902534 86.06393 
L 669.803538 85.219355 
L 670.770539 85.184164 
L 674.638544 83.952493 
L 675.605546 83.424633 
L 676.089046 83.002346 
L 677.539548 82.157771 
L 678.023049 81.805865 
L 678.99005 81.453959 
L 681.407553 80.679765 
L 681.891054 80.292669 
L 684.792057 79.096188 
L 686.72606 78.568328 
L 687.693061 78.146041 
L 688.176561 77.899707 
L 689.143563 77.618182 
L 689.627063 77.336657 
L 690.594065 77.160704 
L 693.011568 76.034604 
L 693.495068 75.753079 
L 694.94557 75.401173 
L 695.429071 75.084457 
L 695.912571 74.908504 
L 696.396072 74.486217 
L 696.879573 74.415836 
L 698.813575 73.641642 
L 700.747577 73.184164 
L 701.231078 73.113783 
L 701.714579 72.902639 
L 702.198079 72.867449 
L 703.165081 72.550733 
L 703.648581 72.515543 
L 705.099083 71.952493 
L 707.033085 71.389443 
L 708.000087 70.65044 
L 709.934089 69.594721 
L 711.384591 69.102053 
L 714.285595 67.8 
L 715.252596 67.272141 
L 715.736096 67.025806 
L 716.219597 66.568328 
L 719.120601 65.618182 
L 720.087602 65.231085 
L 721.054603 64.984751 
L 721.538104 64.738416 
L 722.021604 64.316129 
L 723.955607 63.82346 
L 724.439108 63.471554 
L 730.724615 61.184164 
L 731.691617 61.008211 
L 736.043122 59.495015 
L 737.010123 59.24868 
L 737.493624 59.037537 
L 737.977125 59.002346 
L 738.944126 58.615249 
L 739.911127 58.017009 
L 740.394628 57.841056 
L 740.878128 57.805865 
L 742.32863 57.172434 
L 743.779132 56.644575 
L 744.262633 56.574194 
L 745.229634 56.187097 
L 747.163636 55.8 
L 747.163636 55.8 
" clip-path="url(#pabf0b5ebe8)" style="fill: none; stroke: #1f77b4; stroke-width: 1.5; stroke-linecap: square"/>
   </g>
   <g id="line2d_38">
    <path d="M 138.919864 307.8 
L 143.27137 307.694428 
L 147.139375 307.518475 
L 149.073377 307.518475 
L 149.556878 307.377713 
L 151.974381 307.272141 
L 154.875385 306.955425 
L 157.776388 306.849853 
L 158.743389 306.744282 
L 162.127894 306.603519 
L 165.512398 306.497947 
L 167.929901 306.427566 
L 174.215409 306.321994 
L 176.632912 306.251613 
L 180.017416 306.146041 
L 182.434919 306.07566 
L 187.753426 305.970088 
L 189.687429 305.794135 
L 191.621431 305.758944 
L 194.522435 305.653372 
L 196.456437 305.618182 
L 198.87394 305.547801 
L 200.807943 305.371848 
L 205.159448 305.266276 
L 206.12645 305.195894 
L 208.060452 305.090323 
L 210.961456 304.984751 
L 212.895458 304.879179 
L 221.598469 304.35132 
L 224.982973 304.245748 
L 226.433475 304.104985 
L 228.850978 303.999413 
L 233.685985 303.753079 
L 238.520991 303.682698 
L 240.454993 303.471554 
L 242.388996 303.365982 
L 247.707502 302.873314 
L 251.092007 302.486217 
L 252.542508 302.415836 
L 256.410513 301.923167 
L 259.311517 301.852786 
L 260.762019 301.712023 
L 262.212521 301.606452 
L 275.750538 300.585924 
L 276.717539 300.409971 
L 279.618543 300.304399 
L 287.354553 299.846921 
L 290.739057 299.741349 
L 292.673059 299.530205 
L 295.090562 299.424633 
L 297.991566 299.319062 
L 300.409069 299.21349 
L 302.343072 299.178299 
L 304.760575 299.107918 
L 305.727576 298.967155 
L 312.496585 298.861584 
L 313.463586 298.756012 
L 319.265593 298.65044 
L 323.617099 298.439296 
L 327.001603 298.333724 
L 328.935605 298.122581 
L 332.32011 298.017009 
L 333.287111 297.841056 
L 335.704614 297.770674 
L 340.53962 297.700293 
L 342.473623 297.52434 
L 344.407625 297.48915 
L 345.858127 297.383578 
L 347.792129 297.207625 
L 352.627136 296.96129 
L 357.462142 296.855718 
L 361.813647 296.644575 
L 363.264149 296.609384 
L 364.23115 296.468622 
L 366.648653 296.36305 
L 367.615655 296.292669 
L 368.582656 296.222287 
L 369.549657 296.151906 
L 373.901163 296.081525 
L 375.351664 295.975953 
L 388.406181 295.131378 
L 390.823684 295.025806 
L 393.241187 294.955425 
L 400.010196 294.849853 
L 400.977197 294.709091 
L 407.746206 294.603519 
L 412.581212 294.357185 
L 413.548213 294.321994 
L 414.515214 294.216422 
L 416.932717 294.11085 
L 419.35022 294.040469 
L 421.767723 293.934897 
L 424.185226 293.864516 
L 428.536732 293.758944 
L 431.437736 293.653372 
L 438.206744 293.547801 
L 443.525251 293.266276 
L 445.459253 293.195894 
L 446.909755 293.090323 
L 453.678764 292.984751 
L 456.579767 292.879179 
L 465.282779 292.773607 
L 467.216781 292.738416 
L 473.018788 292.668035 
L 473.98579 292.597654 
L 480.754798 292.492082 
L 482.688801 292.456891 
L 495.259817 292.35132 
L 496.710318 292.210557 
L 518.467846 292.104985 
L 520.885349 292.034604 
L 533.456365 291.964223 
L 534.423366 291.893842 
L 536.840869 291.82346 
L 538.291371 291.682698 
L 541.192375 291.577126 
L 544.576879 291.436364 
L 548.928385 291.330792 
L 551.345888 291.260411 
L 554.730392 291.154839 
L 558.598397 290.978886 
L 561.0159 290.873314 
L 562.949903 290.838123 
L 567.301408 290.732551 
L 569.23541 290.697361 
L 575.520918 290.591789 
L 577.454921 290.556598 
L 579.872424 290.451026 
L 582.773428 290.345455 
L 586.157932 290.275073 
L 587.124933 290.204692 
L 598.728948 290.09912 
L 605.014456 289.747214 
L 607.431959 289.676833 
L 608.39896 289.571261 
L 609.365961 289.50088 
L 613.233966 289.395308 
L 616.13497 289.289736 
L 620.969976 289.184164 
L 623.387479 288.93783 
L 628.222485 288.832258 
L 629.189487 288.726686 
L 634.024493 288.621114 
L 636.441996 288.550733 
L 641.760503 288.515543 
L 642.727504 288.409971 
L 648.046011 288.304399 
L 649.013012 288.234018 
L 659.650025 288.128446 
L 662.551029 288.022874 
L 669.803538 287.917302 
L 671.737541 287.882111 
L 676.089046 287.81173 
L 677.056047 287.706158 
L 683.341555 287.600587 
L 685.759058 287.530205 
L 694.462069 287.424633 
L 695.912571 287.319062 
L 697.363073 287.21349 
L 698.813575 287.107918 
L 706.066084 287.002346 
L 708.967088 286.896774 
L 722.021604 286.791202 
L 726.37311 286.580059 
L 732.175117 286.474487 
L 733.142119 286.368915 
L 740.394628 286.298534 
L 741.361629 286.228152 
L 746.680136 286.122581 
L 747.163636 286.08739 
L 747.163636 286.08739 
" clip-path="url(#pabf0b5ebe8)" style="fill: none; stroke: #ff7f0e; stroke-width: 1.5; stroke-linecap: square"/>
   </g>
   <g id="patch_3">
    <path d="M 108 320.4 
L 108 43.2 
" style="fill: none; stroke: #a9a9a9; stroke-width: 0.8; stroke-linejoin: miter; stroke-linecap: square"/>
   </g>
   <g id="patch_4">
    <path d="M 777.6 320.4 
L 777.6 43.2 
" style="fill: none"/>
   </g>
   <g id="patch_5">
    <path d="M 108 320.4 
L 777.6 320.4 
" style="fill: none; stroke: #a9a9a9; stroke-width: 0.8; stroke-linejoin: miter; stroke-linecap: square"/>
   </g>
   <g id="patch_6">
    <path d="M 108 43.2 
L 777.6 43.2 
" style="fill: none"/>
   </g>
   <g id="text_19">
    <!-- get_subscribe history -->
    <g style="fill: #a9a9a9" transform="translate(378.6075 37.2) scale(0.12 -0.12)">
     <defs>
      <path id="DejaVuSans-67" d="M 2906 1791 
Q 2906 2416 2648 2759 
Q 2391 3103 1925 3103 
Q 1463 3103 1205 2759 
Q 947 2416 947 1791 
Q 947 1169 1205 825 
Q 1463 481 1925 481 
Q 2391 481 2648 825 
Q 2906 1169 2906 1791 
z
M 3481 434 
Q 3481 -459 3084 -895 
Q 2688 -1331 1869 -1331 
Q 1566 -1331 1297 -1286 
Q 1028 -1241 775 -1147 
L 775 -588 
Q 1028 -725 1275 -790 
Q 1522 -856 1778 -856 
Q 2344 -856 2625 -561 
Q 2906 -266 2906 331 
L 2906 616 
Q 2728 306 2450 153 
Q 2172 0 1784 0 
Q 1141 0 747 490 
Q 353 981 353 1791 
Q 353 2603 747 3093 
Q 1141 3584 1784 3584 
Q 2172 3584 2450 3431 
Q 2728 3278 2906 2969 
L 2906 3500 
L 3481 3500 
L 3481 434 
z
" transform="scale(0.015625)"/>
      <path id="DejaVuSans-65" d="M 3597 1894 
L 3597 1613 
L 953 1613 
Q 991 1019 1311 708 
Q 1631 397 2203 397 
Q 2534 397 2845 478 
Q 3156 559 3463 722 
L 3463 178 
Q 3153 47 2828 -22 
Q 2503 -91 2169 -91 
Q 1331 -91 842 396 
Q 353 884 353 1716 
Q 353 2575 817 3079 
Q 1281 3584 2069 3584 
Q 2775 3584 3186 3129 
Q 3597 2675 3597 1894 
z
M 3022 2063 
Q 3016 2534 2758 2815 
Q 2500 3097 2075 3097 
Q 1594 3097 1305 2825 
Q 1016 2553 972 2059 
L 3022 2063 
z
" transform="scale(0.015625)"/>
      <path id="DejaVuSans-74" d="M 1172 4494 
L 1172 3500 
L 2356 3500 
L 2356 3053 
L 1172 3053 
L 1172 1153 
Q 1172 725 1289 603 
Q 1406 481 1766 481 
L 2356 481 
L 2356 0 
L 1766 0 
Q 1100 0 847 248 
Q 594 497 594 1153 
L 594 3053 
L 172 3053 
L 172 3500 
L 594 3500 
L 594 4494 
L 1172 4494 
z
" transform="scale(0.015625)"/>
      <path id="DejaVuSans-5f" d="M 3263 -1063 
L 3263 -1509 
L -63 -1509 
L -63 -1063 
L 3263 -1063 
z
" transform="scale(0.015625)"/>
      <path id="DejaVuSans-73" d="M 2834 3397 
L 2834 2853 
Q 2591 2978 2328 3040 
Q 2066 3103 1784 3103 
Q 1356 3103 1142 2972 
Q 928 2841 928 2578 
Q 928 2378 1081 2264 
Q 1234 2150 1697 2047 
L 1894 2003 
Q 2506 1872 2764 1633 
Q 3022 1394 3022 966 
Q 3022 478 2636 193 
Q 2250 -91 1575 -91 
Q 1294 -91 989 -36 
Q 684 19 347 128 
L 347 722 
Q 666 556 975 473 
Q 1284 391 1588 391 
Q 1994 391 2212 530 
Q 2431 669 2431 922 
Q 2431 1156 2273 1281 
Q 2116 1406 1581 1522 
L 1381 1569 
Q 847 1681 609 1914 
Q 372 2147 372 2553 
Q 372 3047 722 3315 
Q 1072 3584 1716 3584 
Q 2034 3584 2315 3537 
Q 2597 3491 2834 3397 
z
" transform="scale(0.015625)"/>
      <path id="DejaVuSans-75" d="M 544 1381 
L 544 3500 
L 1119 3500 
L 1119 1403 
Q 1119 906 1312 657 
Q 1506 409 1894 409 
Q 2359 409 2629 706 
Q 2900 1003 2900 1516 
L 2900 3500 
L 3475 3500 
L 3475 0 
L 2900 0 
L 2900 538 
Q 2691 219 2414 64 
Q 2138 -91 1772 -91 
Q 1169 -91 856 284 
Q 544 659 544 1381 
z
M 1991 3584 
L 1991 3584 
z
" transform="scale(0.015625)"/>
      <path id="DejaVuSans-62" d="M 3116 1747 
Q 3116 2381 2855 2742 
Q 2594 3103 2138 3103 
Q 1681 3103 1420 2742 
Q 1159 2381 1159 1747 
Q 1159 1113 1420 752 
Q 1681 391 2138 391 
Q 2594 391 2855 752 
Q 3116 1113 3116 1747 
z
M 1159 2969 
Q 1341 3281 1617 3432 
Q 1894 3584 2278 3584 
Q 2916 3584 3314 3078 
Q 3713 2572 3713 1747 
Q 3713 922 3314 415 
Q 2916 -91 2278 -91 
Q 1894 -91 1617 61 
Q 1341 213 1159 525 
L 1159 0 
L 581 0 
L 581 4863 
L 1159 4863 
L 1159 2969 
z
" transform="scale(0.015625)"/>
      <path id="DejaVuSans-63" d="M 3122 3366 
L 3122 2828 
Q 2878 2963 2633 3030 
Q 2388 3097 2138 3097 
Q 1578 3097 1268 2742 
Q 959 2388 959 1747 
Q 959 1106 1268 751 
Q 1578 397 2138 397 
Q 2388 397 2633 464 
Q 2878 531 3122 666 
L 3122 134 
Q 2881 22 2623 -34 
Q 2366 -91 2075 -91 
Q 1284 -91 818 406 
Q 353 903 353 1747 
Q 353 2603 823 3093 
Q 1294 3584 2113 3584 
Q 2378 3584 2631 3529 
Q 2884 3475 3122 3366 
z
" transform="scale(0.015625)"/>
      <path id="DejaVuSans-72" d="M 2631 2963 
Q 2534 3019 2420 3045 
Q 2306 3072 2169 3072 
Q 1681 3072 1420 2755 
Q 1159 2438 1159 1844 
L 1159 0 
L 581 0 
L 581 3500 
L 1159 3500 
L 1159 2956 
Q 1341 3275 1631 3429 
Q 1922 3584 2338 3584 
Q 2397 3584 2469 3576 
Q 2541 3569 2628 3553 
L 2631 2963 
z
" transform="scale(0.015625)"/>
      <path id="DejaVuSans-69" d="M 603 3500 
L 1178 3500 
L 1178 0 
L 603 0 
L 603 3500 
z
M 603 4863 
L 1178 4863 
L 1178 4134 
L 603 4134 
L 603 4863 
z
" transform="scale(0.015625)"/>
      <path id="DejaVuSans-20" transform="scale(0.015625)"/>
      <path id="DejaVuSans-68" d="M 3513 2113 
L 3513 0 
L 2938 0 
L 2938 2094 
Q 2938 2591 2744 2837 
Q 2550 3084 2163 3084 
Q 1697 3084 1428 2787 
Q 1159 2491 1159 1978 
L 1159 0 
L 581 0 
L 581 4863 
L 1159 4863 
L 1159 2956 
Q 1366 3272 1645 3428 
Q 1925 3584 2291 3584 
Q 2894 3584 3203 3211 
Q 3513 2838 3513 2113 
z
" transform="scale(0.015625)"/>
      <path id="DejaVuSans-6f" d="M 1959 3097 
Q 1497 3097 1228 2736 
Q 959 2375 959 1747 
Q 959 1119 1226 758 
Q 1494 397 1959 397 
Q 2419 397 2687 759 
Q 2956 1122 2956 1747 
Q 2956 2369 2687 2733 
Q 2419 3097 1959 3097 
z
M 1959 3584 
Q 2709 3584 3137 3096 
Q 3566 2609 3566 1747 
Q 3566 888 3137 398 
Q 2709 -91 1959 -91 
Q 1206 -91 779 398 
Q 353 888 353 1747 
Q 353 2609 779 3096 
Q 1206 3584 1959 3584 
z
" transform="scale(0.015625)"/>
      <path id="DejaVuSans-79" d="M 2059 -325 
Q 1816 -950 1584 -1140 
Q 1353 -1331 966 -1331 
L 506 -1331 
L 506 -850 
L 844 -850 
Q 1081 -850 1212 -737 
Q 1344 -625 1503 -206 
L 1606 56 
L 191 3500 
L 800 3500 
L 1894 763 
L 2988 3500 
L 3597 3500 
L 2059 -325 
z
" transform="scale(0.015625)"/>
     </defs>
     <use xlink:href="#DejaVuSans-67"/>
     <use xlink:href="#DejaVuSans-65" transform="translate(63.476562 0)"/>
     <use xlink:href="#DejaVuSans-74" transform="translate(125 0)"/>
     <use xlink:href="#DejaVuSans-5f" transform="translate(164.208984 0)"/>
     <use xlink:href="#DejaVuSans-73" transform="translate(214.208984 0)"/>
     <use xlink:href="#DejaVuSans-75" transform="translate(266.308594 0)"/>
     <use xlink:href="#DejaVuSans-62" transform="translate(329.6875 0)"/>
     <use xlink:href="#DejaVuSans-73" transform="translate(393.164062 0)"/>
     <use xlink:href="#DejaVuSans-63" transform="translate(445.263672 0)"/>
     <use xlink:href="#DejaVuSans-72" transform="translate(500.244141 0)"/>
     <use xlink:href="#DejaVuSans-69" transform="translate(541.357422 0)"/>
     <use xlink:href="#DejaVuSans-62" transform="translate(569.140625 0)"/>
     <use xlink:href="#DejaVuSans-65" transform="translate(632.617188 0)"/>
     <use xlink:href="#DejaVuSans-20" transform="translate(694.140625 0)"/>
     <use xlink:href="#DejaVuSans-68" transform="translate(725.927734 0)"/>
     <use xlink:href="#DejaVuSans-69" transform="translate(789.306641 0)"/>
     <use xlink:href="#DejaVuSans-73" transform="translate(817.089844 0)"/>
     <use xlink:href="#DejaVuSans-74" transform="translate(869.189453 0)"/>
     <use xlink:href="#DejaVuSans-6f" transform="translate(908.398438 0)"/>
     <use xlink:href="#DejaVuSans-72" transform="translate(969.580078 0)"/>
     <use xlink:href="#DejaVuSans-79" transform="translate(1010.693359 0)"/>
    </g>
   </g>
   <g id="legend_1">
    <g id="line2d_39">
     <path d="M 815.08 328.498438 
L 825.08 328.498438 
L 835.08 328.498438 
" style="fill: none; stroke: #1f77b4; stroke-width: 1.5; stroke-linecap: square"/>
    </g>
    <g id="text_20">
     <!-- star -->
     <g style="fill: #a9a9a9" transform="translate(843.08 331.998438) scale(0.1 -0.1)">
      <defs>
       <path id="DejaVuSans-61" d="M 2194 1759 
Q 1497 1759 1228 1600 
Q 959 1441 959 1056 
Q 959 750 1161 570 
Q 1363 391 1709 391 
Q 2188 391 2477 730 
Q 2766 1069 2766 1631 
L 2766 1759 
L 2194 1759 
z
M 3341 1997 
L 3341 0 
L 2766 0 
L 2766 531 
Q 2569 213 2275 61 
Q 1981 -91 1556 -91 
Q 1019 -91 701 211 
Q 384 513 384 1019 
Q 384 1609 779 1909 
Q 1175 2209 1959 2209 
L 2766 2209 
L 2766 2266 
Q 2766 2663 2505 2880 
Q 2244 3097 1772 3097 
Q 1472 3097 1187 3025 
Q 903 2953 641 2809 
L 641 3341 
Q 956 3463 1253 3523 
Q 1550 3584 1831 3584 
Q 2591 3584 2966 3190 
Q 3341 2797 3341 1997 
z
" transform="scale(0.015625)"/>
      </defs>
      <use xlink:href="#DejaVuSans-73"/>
      <use xlink:href="#DejaVuSans-74" transform="translate(52.099609 0)"/>
      <use xlink:href="#DejaVuSans-61" transform="translate(91.308594 0)"/>
      <use xlink:href="#DejaVuSans-72" transform="translate(152.587891 0)"/>
     </g>
    </g>
    <g id="line2d_40">
     <path d="M 815.08 343.176562 
L 825.08 343.176562 
L 835.08 343.176562 
" style="fill: none; stroke: #ff7f0e; stroke-width: 1.5; stroke-linecap: square"/>
    </g>
    <g id="text_21">
     <!-- fork -->
     <g style="fill: #a9a9a9" transform="translate(843.08 346.676562) scale(0.1 -0.1)">
      <defs>
       <path id="DejaVuSans-66" d="M 2375 4863 
L 2375 4384 
L 1825 4384 
Q 1516 4384 1395 4259 
Q 1275 4134 1275 3809 
L 1275 3500 
L 2222 3500 
L 2222 3053 
L 1275 3053 
L 1275 0 
L 697 0 
L 697 3053 
L 147 3053 
L 147 3500 
L 697 3500 
L 697 3744 
Q 697 4328 969 4595 
Q 1241 4863 1831 4863 
L 2375 4863 
z
" transform="scale(0.015625)"/>
       <path id="DejaVuSans-6b" d="M 581 4863 
L 1159 4863 
L 1159 1991 
L 2875 3500 
L 3609 3500 
L 1753 1863 
L 3688 0 
L 2938 0 
L 1159 1709 
L 1159 0 
L 581 0 
L 581 4863 
z
" transform="scale(0.015625)"/>
      </defs>
      <use xlink:href="#DejaVuSans-66"/>
      <use xlink:href="#DejaVuSans-6f" transform="translate(35.205078 0)"/>
      <use xlink:href="#DejaVuSans-72" transform="translate(96.386719 0)"/>
      <use xlink:href="#DejaVuSans-6b" transform="translate(137.5 0)"/>
     </g>
    </g>
   </g>
  </g>
 </g>
 <defs>
  <clipPath id="pabf0b5ebe8">
   <rect x="108" y="43.2" width="669.6" height="277.2"/>
  </clipPath>
 </defs>
</svg>
