<?xml version="1.0" encoding="utf-8" standalone="no"?>
<!DOCTYPE svg PUBLIC "-//W3C//DTD SVG 1.1//EN"
  "http://www.w3.org/Graphics/SVG/1.1/DTD/svg11.dtd">
<svg xmlns:xlink="http://www.w3.org/1999/xlink" width="864pt" height="360pt" viewBox="0 0 864 360" xmlns="http://www.w3.org/2000/svg" version="1.1">
 <metadata>
  <rdf:RDF xmlns:dc="http://purl.org/dc/elements/1.1/" xmlns:cc="http://creativecommons.org/ns#" xmlns:rdf="http://www.w3.org/1999/02/22-rdf-syntax-ns#">
   <cc:Work>
    <dc:type rdf:resource="http://purl.org/dc/dcmitype/StillImage"/>
    <dc:date>2024-12-10T14:24:56.255388</dc:date>
    <dc:format>image/svg+xml</dc:format>
    <dc:creator>
     <cc:Agent>
      <dc:title>Matplotlib v3.9.3, https://matplotlib.org/</dc:title>
     </cc:Agent>
    </dc:creator>
   </cc:Work>
  </rdf:RDF>
 </metadata>
 <defs>
  <style type="text/css">*{stroke-linejoin: round; stroke-linecap: butt}</style>
 </defs>
 <g id="figure_1">
  <g id="patch_1">
   <path d="M 0 360 
L 864 360 
L 864 0 
L 0 0 
L 0 360 
z
" style="fill: none; opacity: 0"/>
  </g>
  <g id="axes_1">
   <g id="patch_2">
    <path d="M 108 320.4 
L 777.6 320.4 
L 777.6 43.2 
L 108 43.2 
L 108 320.4 
z
" style="fill: none; opacity: 0"/>
   </g>
   <g id="matplotlib.axis_1">
    <g id="xtick_1">
     <g id="line2d_1">
      <path d="M 157.65933 320.4 
L 157.65933 43.2 
" clip-path="url(#p449df5f5aa)" style="fill: none; stroke-dasharray: 5.12,1.28,0.8,1.28; stroke-dashoffset: 0; stroke: #b0b0b0; stroke-width: 0.8"/>
     </g>
     <g id="line2d_2">
      <defs>
       <path id="md53a222712" d="M 0 0 
L 0 3.5 
" style="stroke: #a9a9a9; stroke-width: 0.8"/>
      </defs>
      <g>
       <use xlink:href="#md53a222712" x="157.65933" y="320.4" style="fill: #a9a9a9; stroke: #a9a9a9; stroke-width: 0.8"/>
      </g>
     </g>
     <g id="text_1">
      <!-- 2021-09 -->
      <g style="fill: #a9a9a9" transform="translate(136.767924 334.998438) scale(0.1 -0.1)">
       <defs>
        <path id="DejaVuSans-32" d="M 1228 531 
L 3431 531 
L 3431 0 
L 469 0 
L 469 531 
Q 828 903 1448 1529 
Q 2069 2156 2228 2338 
Q 2531 2678 2651 2914 
Q 2772 3150 2772 3378 
Q 2772 3750 2511 3984 
Q 2250 4219 1831 4219 
Q 1534 4219 1204 4116 
Q 875 4013 500 3803 
L 500 4441 
Q 881 4594 1212 4672 
Q 1544 4750 1819 4750 
Q 2544 4750 2975 4387 
Q 3406 4025 3406 3419 
Q 3406 3131 3298 2873 
Q 3191 2616 2906 2266 
Q 2828 2175 2409 1742 
Q 1991 1309 1228 531 
z
" transform="scale(0.015625)"/>
        <path id="DejaVuSans-30" d="M 2034 4250 
Q 1547 4250 1301 3770 
Q 1056 3291 1056 2328 
Q 1056 1369 1301 889 
Q 1547 409 2034 409 
Q 2525 409 2770 889 
Q 3016 1369 3016 2328 
Q 3016 3291 2770 3770 
Q 2525 4250 2034 4250 
z
M 2034 4750 
Q 2819 4750 3233 4129 
Q 3647 3509 3647 2328 
Q 3647 1150 3233 529 
Q 2819 -91 2034 -91 
Q 1250 -91 836 529 
Q 422 1150 422 2328 
Q 422 3509 836 4129 
Q 1250 4750 2034 4750 
z
" transform="scale(0.015625)"/>
        <path id="DejaVuSans-31" d="M 794 531 
L 1825 531 
L 1825 4091 
L 703 3866 
L 703 4441 
L 1819 4666 
L 2450 4666 
L 2450 531 
L 3481 531 
L 3481 0 
L 794 0 
L 794 531 
z
" transform="scale(0.015625)"/>
        <path id="DejaVuSans-2d" d="M 313 2009 
L 1997 2009 
L 1997 1497 
L 313 1497 
L 313 2009 
z
" transform="scale(0.015625)"/>
        <path id="DejaVuSans-39" d="M 703 97 
L 703 672 
Q 941 559 1184 500 
Q 1428 441 1663 441 
Q 2288 441 2617 861 
Q 2947 1281 2994 2138 
Q 2813 1869 2534 1725 
Q 2256 1581 1919 1581 
Q 1219 1581 811 2004 
Q 403 2428 403 3163 
Q 403 3881 828 4315 
Q 1253 4750 1959 4750 
Q 2769 4750 3195 4129 
Q 3622 3509 3622 2328 
Q 3622 1225 3098 567 
Q 2575 -91 1691 -91 
Q 1453 -91 1209 -44 
Q 966 3 703 97 
z
M 1959 2075 
Q 2384 2075 2632 2365 
Q 2881 2656 2881 3163 
Q 2881 3666 2632 3958 
Q 2384 4250 1959 4250 
Q 1534 4250 1286 3958 
Q 1038 3666 1038 3163 
Q 1038 2656 1286 2365 
Q 1534 2075 1959 2075 
z
" transform="scale(0.015625)"/>
       </defs>
       <use xlink:href="#DejaVuSans-32"/>
       <use xlink:href="#DejaVuSans-30" x="63.623047"/>
       <use xlink:href="#DejaVuSans-32" x="127.246094"/>
       <use xlink:href="#DejaVuSans-31" x="190.869141"/>
       <use xlink:href="#DejaVuSans-2d" x="254.492188"/>
       <use xlink:href="#DejaVuSans-30" x="290.576172"/>
       <use xlink:href="#DejaVuSans-39" x="354.199219"/>
      </g>
     </g>
    </g>
    <g id="xtick_2">
     <g id="line2d_3">
      <path d="M 217.792713 320.4 
L 217.792713 43.2 
" clip-path="url(#p449df5f5aa)" style="fill: none; stroke-dasharray: 5.12,1.28,0.8,1.28; stroke-dashoffset: 0; stroke: #b0b0b0; stroke-width: 0.8"/>
     </g>
     <g id="line2d_4">
      <g>
       <use xlink:href="#md53a222712" x="217.792713" y="320.4" style="fill: #a9a9a9; stroke: #a9a9a9; stroke-width: 0.8"/>
      </g>
     </g>
     <g id="text_2">
      <!-- 2022-01 -->
      <g style="fill: #a9a9a9" transform="translate(196.901306 334.998438) scale(0.1 -0.1)">
       <use xlink:href="#DejaVuSans-32"/>
       <use xlink:href="#DejaVuSans-30" x="63.623047"/>
       <use xlink:href="#DejaVuSans-32" x="127.246094"/>
       <use xlink:href="#DejaVuSans-32" x="190.869141"/>
       <use xlink:href="#DejaVuSans-2d" x="254.492188"/>
       <use xlink:href="#DejaVuSans-30" x="290.576172"/>
       <use xlink:href="#DejaVuSans-31" x="354.199219"/>
      </g>
     </g>
    </g>
    <g id="xtick_3">
     <g id="line2d_5">
      <path d="M 276.940302 320.4 
L 276.940302 43.2 
" clip-path="url(#p449df5f5aa)" style="fill: none; stroke-dasharray: 5.12,1.28,0.8,1.28; stroke-dashoffset: 0; stroke: #b0b0b0; stroke-width: 0.8"/>
     </g>
     <g id="line2d_6">
      <g>
       <use xlink:href="#md53a222712" x="276.940302" y="320.4" style="fill: #a9a9a9; stroke: #a9a9a9; stroke-width: 0.8"/>
      </g>
     </g>
     <g id="text_3">
      <!-- 2022-05 -->
      <g style="fill: #a9a9a9" transform="translate(256.048896 334.998438) scale(0.1 -0.1)">
       <defs>
        <path id="DejaVuSans-35" d="M 691 4666 
L 3169 4666 
L 3169 4134 
L 1269 4134 
L 1269 2991 
Q 1406 3038 1543 3061 
Q 1681 3084 1819 3084 
Q 2600 3084 3056 2656 
Q 3513 2228 3513 1497 
Q 3513 744 3044 326 
Q 2575 -91 1722 -91 
Q 1428 -91 1123 -41 
Q 819 9 494 109 
L 494 744 
Q 775 591 1075 516 
Q 1375 441 1709 441 
Q 2250 441 2565 725 
Q 2881 1009 2881 1497 
Q 2881 1984 2565 2268 
Q 2250 2553 1709 2553 
Q 1456 2553 1204 2497 
Q 953 2441 691 2322 
L 691 4666 
z
" transform="scale(0.015625)"/>
       </defs>
       <use xlink:href="#DejaVuSans-32"/>
       <use xlink:href="#DejaVuSans-30" x="63.623047"/>
       <use xlink:href="#DejaVuSans-32" x="127.246094"/>
       <use xlink:href="#DejaVuSans-32" x="190.869141"/>
       <use xlink:href="#DejaVuSans-2d" x="254.492188"/>
       <use xlink:href="#DejaVuSans-30" x="290.576172"/>
       <use xlink:href="#DejaVuSans-35" x="354.199219"/>
      </g>
     </g>
    </g>
    <g id="xtick_4">
     <g id="line2d_7">
      <path d="M 337.566581 320.4 
L 337.566581 43.2 
" clip-path="url(#p449df5f5aa)" style="fill: none; stroke-dasharray: 5.12,1.28,0.8,1.28; stroke-dashoffset: 0; stroke: #b0b0b0; stroke-width: 0.8"/>
     </g>
     <g id="line2d_8">
      <g>
       <use xlink:href="#md53a222712" x="337.566581" y="320.4" style="fill: #a9a9a9; stroke: #a9a9a9; stroke-width: 0.8"/>
      </g>
     </g>
     <g id="text_4">
      <!-- 2022-09 -->
      <g style="fill: #a9a9a9" transform="translate(316.675175 334.998438) scale(0.1 -0.1)">
       <use xlink:href="#DejaVuSans-32"/>
       <use xlink:href="#DejaVuSans-30" x="63.623047"/>
       <use xlink:href="#DejaVuSans-32" x="127.246094"/>
       <use xlink:href="#DejaVuSans-32" x="190.869141"/>
       <use xlink:href="#DejaVuSans-2d" x="254.492188"/>
       <use xlink:href="#DejaVuSans-30" x="290.576172"/>
       <use xlink:href="#DejaVuSans-39" x="354.199219"/>
      </g>
     </g>
    </g>
    <g id="xtick_5">
     <g id="line2d_9">
      <path d="M 397.699963 320.4 
L 397.699963 43.2 
" clip-path="url(#p449df5f5aa)" style="fill: none; stroke-dasharray: 5.12,1.28,0.8,1.28; stroke-dashoffset: 0; stroke: #b0b0b0; stroke-width: 0.8"/>
     </g>
     <g id="line2d_10">
      <g>
       <use xlink:href="#md53a222712" x="397.699963" y="320.4" style="fill: #a9a9a9; stroke: #a9a9a9; stroke-width: 0.8"/>
      </g>
     </g>
     <g id="text_5">
      <!-- 2023-01 -->
      <g style="fill: #a9a9a9" transform="translate(376.808557 334.998438) scale(0.1 -0.1)">
       <defs>
        <path id="DejaVuSans-33" d="M 2597 2516 
Q 3050 2419 3304 2112 
Q 3559 1806 3559 1356 
Q 3559 666 3084 287 
Q 2609 -91 1734 -91 
Q 1441 -91 1130 -33 
Q 819 25 488 141 
L 488 750 
Q 750 597 1062 519 
Q 1375 441 1716 441 
Q 2309 441 2620 675 
Q 2931 909 2931 1356 
Q 2931 1769 2642 2001 
Q 2353 2234 1838 2234 
L 1294 2234 
L 1294 2753 
L 1863 2753 
Q 2328 2753 2575 2939 
Q 2822 3125 2822 3475 
Q 2822 3834 2567 4026 
Q 2313 4219 1838 4219 
Q 1578 4219 1281 4162 
Q 984 4106 628 3988 
L 628 4550 
Q 988 4650 1302 4700 
Q 1616 4750 1894 4750 
Q 2613 4750 3031 4423 
Q 3450 4097 3450 3541 
Q 3450 3153 3228 2886 
Q 3006 2619 2597 2516 
z
" transform="scale(0.015625)"/>
       </defs>
       <use xlink:href="#DejaVuSans-32"/>
       <use xlink:href="#DejaVuSans-30" x="63.623047"/>
       <use xlink:href="#DejaVuSans-32" x="127.246094"/>
       <use xlink:href="#DejaVuSans-33" x="190.869141"/>
       <use xlink:href="#DejaVuSans-2d" x="254.492188"/>
       <use xlink:href="#DejaVuSans-30" x="290.576172"/>
       <use xlink:href="#DejaVuSans-31" x="354.199219"/>
      </g>
     </g>
    </g>
    <g id="xtick_6">
     <g id="line2d_11">
      <path d="M 456.847552 320.4 
L 456.847552 43.2 
" clip-path="url(#p449df5f5aa)" style="fill: none; stroke-dasharray: 5.12,1.28,0.8,1.28; stroke-dashoffset: 0; stroke: #b0b0b0; stroke-width: 0.8"/>
     </g>
     <g id="line2d_12">
      <g>
       <use xlink:href="#md53a222712" x="456.847552" y="320.4" style="fill: #a9a9a9; stroke: #a9a9a9; stroke-width: 0.8"/>
      </g>
     </g>
     <g id="text_6">
      <!-- 2023-05 -->
      <g style="fill: #a9a9a9" transform="translate(435.956146 334.998438) scale(0.1 -0.1)">
       <use xlink:href="#DejaVuSans-32"/>
       <use xlink:href="#DejaVuSans-30" x="63.623047"/>
       <use xlink:href="#DejaVuSans-32" x="127.246094"/>
       <use xlink:href="#DejaVuSans-33" x="190.869141"/>
       <use xlink:href="#DejaVuSans-2d" x="254.492188"/>
       <use xlink:href="#DejaVuSans-30" x="290.576172"/>
       <use xlink:href="#DejaVuSans-35" x="354.199219"/>
      </g>
     </g>
    </g>
    <g id="xtick_7">
     <g id="line2d_13">
      <path d="M 517.473831 320.4 
L 517.473831 43.2 
" clip-path="url(#p449df5f5aa)" style="fill: none; stroke-dasharray: 5.12,1.28,0.8,1.28; stroke-dashoffset: 0; stroke: #b0b0b0; stroke-width: 0.8"/>
     </g>
     <g id="line2d_14">
      <g>
       <use xlink:href="#md53a222712" x="517.473831" y="320.4" style="fill: #a9a9a9; stroke: #a9a9a9; stroke-width: 0.8"/>
      </g>
     </g>
     <g id="text_7">
      <!-- 2023-09 -->
      <g style="fill: #a9a9a9" transform="translate(496.582425 334.998438) scale(0.1 -0.1)">
       <use xlink:href="#DejaVuSans-32"/>
       <use xlink:href="#DejaVuSans-30" x="63.623047"/>
       <use xlink:href="#DejaVuSans-32" x="127.246094"/>
       <use xlink:href="#DejaVuSans-33" x="190.869141"/>
       <use xlink:href="#DejaVuSans-2d" x="254.492188"/>
       <use xlink:href="#DejaVuSans-30" x="290.576172"/>
       <use xlink:href="#DejaVuSans-39" x="354.199219"/>
      </g>
     </g>
    </g>
    <g id="xtick_8">
     <g id="line2d_15">
      <path d="M 577.607214 320.4 
L 577.607214 43.2 
" clip-path="url(#p449df5f5aa)" style="fill: none; stroke-dasharray: 5.12,1.28,0.8,1.28; stroke-dashoffset: 0; stroke: #b0b0b0; stroke-width: 0.8"/>
     </g>
     <g id="line2d_16">
      <g>
       <use xlink:href="#md53a222712" x="577.607214" y="320.4" style="fill: #a9a9a9; stroke: #a9a9a9; stroke-width: 0.8"/>
      </g>
     </g>
     <g id="text_8">
      <!-- 2024-01 -->
      <g style="fill: #a9a9a9" transform="translate(556.715808 334.998438) scale(0.1 -0.1)">
       <defs>
        <path id="DejaVuSans-34" d="M 2419 4116 
L 825 1625 
L 2419 1625 
L 2419 4116 
z
M 2253 4666 
L 3047 4666 
L 3047 1625 
L 3713 1625 
L 3713 1100 
L 3047 1100 
L 3047 0 
L 2419 0 
L 2419 1100 
L 313 1100 
L 313 1709 
L 2253 4666 
z
" transform="scale(0.015625)"/>
       </defs>
       <use xlink:href="#DejaVuSans-32"/>
       <use xlink:href="#DejaVuSans-30" x="63.623047"/>
       <use xlink:href="#DejaVuSans-32" x="127.246094"/>
       <use xlink:href="#DejaVuSans-34" x="190.869141"/>
       <use xlink:href="#DejaVuSans-2d" x="254.492188"/>
       <use xlink:href="#DejaVuSans-30" x="290.576172"/>
       <use xlink:href="#DejaVuSans-31" x="354.199219"/>
      </g>
     </g>
    </g>
    <g id="xtick_9">
     <g id="line2d_17">
      <path d="M 637.2477 320.4 
L 637.2477 43.2 
" clip-path="url(#p449df5f5aa)" style="fill: none; stroke-dasharray: 5.12,1.28,0.8,1.28; stroke-dashoffset: 0; stroke: #b0b0b0; stroke-width: 0.8"/>
     </g>
     <g id="line2d_18">
      <g>
       <use xlink:href="#md53a222712" x="637.2477" y="320.4" style="fill: #a9a9a9; stroke: #a9a9a9; stroke-width: 0.8"/>
      </g>
     </g>
     <g id="text_9">
      <!-- 2024-05 -->
      <g style="fill: #a9a9a9" transform="translate(616.356293 334.998438) scale(0.1 -0.1)">
       <use xlink:href="#DejaVuSans-32"/>
       <use xlink:href="#DejaVuSans-30" x="63.623047"/>
       <use xlink:href="#DejaVuSans-32" x="127.246094"/>
       <use xlink:href="#DejaVuSans-34" x="190.869141"/>
       <use xlink:href="#DejaVuSans-2d" x="254.492188"/>
       <use xlink:href="#DejaVuSans-30" x="290.576172"/>
       <use xlink:href="#DejaVuSans-35" x="354.199219"/>
      </g>
     </g>
    </g>
    <g id="xtick_10">
     <g id="line2d_19">
      <path d="M 697.873979 320.4 
L 697.873979 43.2 
" clip-path="url(#p449df5f5aa)" style="fill: none; stroke-dasharray: 5.12,1.28,0.8,1.28; stroke-dashoffset: 0; stroke: #b0b0b0; stroke-width: 0.8"/>
     </g>
     <g id="line2d_20">
      <g>
       <use xlink:href="#md53a222712" x="697.873979" y="320.4" style="fill: #a9a9a9; stroke: #a9a9a9; stroke-width: 0.8"/>
      </g>
     </g>
     <g id="text_10">
      <!-- 2024-09 -->
      <g style="fill: #a9a9a9" transform="translate(676.982572 334.998438) scale(0.1 -0.1)">
       <use xlink:href="#DejaVuSans-32"/>
       <use xlink:href="#DejaVuSans-30" x="63.623047"/>
       <use xlink:href="#DejaVuSans-32" x="127.246094"/>
       <use xlink:href="#DejaVuSans-34" x="190.869141"/>
       <use xlink:href="#DejaVuSans-2d" x="254.492188"/>
       <use xlink:href="#DejaVuSans-30" x="290.576172"/>
       <use xlink:href="#DejaVuSans-39" x="354.199219"/>
      </g>
     </g>
    </g>
    <g id="xtick_11">
     <g id="line2d_21">
      <path d="M 758.007361 320.4 
L 758.007361 43.2 
" clip-path="url(#p449df5f5aa)" style="fill: none; stroke-dasharray: 5.12,1.28,0.8,1.28; stroke-dashoffset: 0; stroke: #b0b0b0; stroke-width: 0.8"/>
     </g>
     <g id="line2d_22">
      <g>
       <use xlink:href="#md53a222712" x="758.007361" y="320.4" style="fill: #a9a9a9; stroke: #a9a9a9; stroke-width: 0.8"/>
      </g>
     </g>
     <g id="text_11">
      <!-- 2025-01 -->
      <g style="fill: #a9a9a9" transform="translate(737.115955 334.998438) scale(0.1 -0.1)">
       <use xlink:href="#DejaVuSans-32"/>
       <use xlink:href="#DejaVuSans-30" x="63.623047"/>
       <use xlink:href="#DejaVuSans-32" x="127.246094"/>
       <use xlink:href="#DejaVuSans-35" x="190.869141"/>
       <use xlink:href="#DejaVuSans-2d" x="254.492188"/>
       <use xlink:href="#DejaVuSans-30" x="290.576172"/>
       <use xlink:href="#DejaVuSans-31" x="354.199219"/>
      </g>
     </g>
    </g>
   </g>
   <g id="matplotlib.axis_2">
    <g id="ytick_1">
     <g id="line2d_23">
      <path d="M 108 307.835674 
L 777.6 307.835674 
" clip-path="url(#p449df5f5aa)" style="fill: none; stroke-dasharray: 5.12,1.28,0.8,1.28; stroke-dashoffset: 0; stroke: #b0b0b0; stroke-width: 0.8"/>
     </g>
     <g id="line2d_24">
      <defs>
       <path id="m788af3658f" d="M 0 0 
L -3.5 0 
" style="stroke: #a9a9a9; stroke-width: 0.8"/>
      </defs>
      <g>
       <use xlink:href="#m788af3658f" x="108" y="307.835674" style="fill: #a9a9a9; stroke: #a9a9a9; stroke-width: 0.8"/>
      </g>
     </g>
     <g id="text_12">
      <!-- 0 -->
      <g style="fill: #a9a9a9" transform="translate(94.6375 311.634893) scale(0.1 -0.1)">
       <use xlink:href="#DejaVuSans-30"/>
      </g>
     </g>
    </g>
    <g id="ytick_2">
     <g id="line2d_25">
      <path d="M 108 279.296602 
L 777.6 279.296602 
" clip-path="url(#p449df5f5aa)" style="fill: none; stroke-dasharray: 5.12,1.28,0.8,1.28; stroke-dashoffset: 0; stroke: #b0b0b0; stroke-width: 0.8"/>
     </g>
     <g id="line2d_26">
      <g>
       <use xlink:href="#m788af3658f" x="108" y="279.296602" style="fill: #a9a9a9; stroke: #a9a9a9; stroke-width: 0.8"/>
      </g>
     </g>
     <g id="text_13">
      <!-- 800 -->
      <g style="fill: #a9a9a9" transform="translate(81.9125 283.095821) scale(0.1 -0.1)">
       <defs>
        <path id="DejaVuSans-38" d="M 2034 2216 
Q 1584 2216 1326 1975 
Q 1069 1734 1069 1313 
Q 1069 891 1326 650 
Q 1584 409 2034 409 
Q 2484 409 2743 651 
Q 3003 894 3003 1313 
Q 3003 1734 2745 1975 
Q 2488 2216 2034 2216 
z
M 1403 2484 
Q 997 2584 770 2862 
Q 544 3141 544 3541 
Q 544 4100 942 4425 
Q 1341 4750 2034 4750 
Q 2731 4750 3128 4425 
Q 3525 4100 3525 3541 
Q 3525 3141 3298 2862 
Q 3072 2584 2669 2484 
Q 3125 2378 3379 2068 
Q 3634 1759 3634 1313 
Q 3634 634 3220 271 
Q 2806 -91 2034 -91 
Q 1263 -91 848 271 
Q 434 634 434 1313 
Q 434 1759 690 2068 
Q 947 2378 1403 2484 
z
M 1172 3481 
Q 1172 3119 1398 2916 
Q 1625 2713 2034 2713 
Q 2441 2713 2670 2916 
Q 2900 3119 2900 3481 
Q 2900 3844 2670 4047 
Q 2441 4250 2034 4250 
Q 1625 4250 1398 4047 
Q 1172 3844 1172 3481 
z
" transform="scale(0.015625)"/>
       </defs>
       <use xlink:href="#DejaVuSans-38"/>
       <use xlink:href="#DejaVuSans-30" x="63.623047"/>
       <use xlink:href="#DejaVuSans-30" x="127.246094"/>
      </g>
     </g>
    </g>
    <g id="ytick_3">
     <g id="line2d_27">
      <path d="M 108 250.757531 
L 777.6 250.757531 
" clip-path="url(#p449df5f5aa)" style="fill: none; stroke-dasharray: 5.12,1.28,0.8,1.28; stroke-dashoffset: 0; stroke: #b0b0b0; stroke-width: 0.8"/>
     </g>
     <g id="line2d_28">
      <g>
       <use xlink:href="#m788af3658f" x="108" y="250.757531" style="fill: #a9a9a9; stroke: #a9a9a9; stroke-width: 0.8"/>
      </g>
     </g>
     <g id="text_14">
      <!-- 1600 -->
      <g style="fill: #a9a9a9" transform="translate(75.55 254.55675) scale(0.1 -0.1)">
       <defs>
        <path id="DejaVuSans-36" d="M 2113 2584 
Q 1688 2584 1439 2293 
Q 1191 2003 1191 1497 
Q 1191 994 1439 701 
Q 1688 409 2113 409 
Q 2538 409 2786 701 
Q 3034 994 3034 1497 
Q 3034 2003 2786 2293 
Q 2538 2584 2113 2584 
z
M 3366 4563 
L 3366 3988 
Q 3128 4100 2886 4159 
Q 2644 4219 2406 4219 
Q 1781 4219 1451 3797 
Q 1122 3375 1075 2522 
Q 1259 2794 1537 2939 
Q 1816 3084 2150 3084 
Q 2853 3084 3261 2657 
Q 3669 2231 3669 1497 
Q 3669 778 3244 343 
Q 2819 -91 2113 -91 
Q 1303 -91 875 529 
Q 447 1150 447 2328 
Q 447 3434 972 4092 
Q 1497 4750 2381 4750 
Q 2619 4750 2861 4703 
Q 3103 4656 3366 4563 
z
" transform="scale(0.015625)"/>
       </defs>
       <use xlink:href="#DejaVuSans-31"/>
       <use xlink:href="#DejaVuSans-36" x="63.623047"/>
       <use xlink:href="#DejaVuSans-30" x="127.246094"/>
       <use xlink:href="#DejaVuSans-30" x="190.869141"/>
      </g>
     </g>
    </g>
    <g id="ytick_4">
     <g id="line2d_29">
      <path d="M 108 222.21846 
L 777.6 222.21846 
" clip-path="url(#p449df5f5aa)" style="fill: none; stroke-dasharray: 5.12,1.28,0.8,1.28; stroke-dashoffset: 0; stroke: #b0b0b0; stroke-width: 0.8"/>
     </g>
     <g id="line2d_30">
      <g>
       <use xlink:href="#m788af3658f" x="108" y="222.21846" style="fill: #a9a9a9; stroke: #a9a9a9; stroke-width: 0.8"/>
      </g>
     </g>
     <g id="text_15">
      <!-- 2400 -->
      <g style="fill: #a9a9a9" transform="translate(75.55 226.017679) scale(0.1 -0.1)">
       <use xlink:href="#DejaVuSans-32"/>
       <use xlink:href="#DejaVuSans-34" x="63.623047"/>
       <use xlink:href="#DejaVuSans-30" x="127.246094"/>
       <use xlink:href="#DejaVuSans-30" x="190.869141"/>
      </g>
     </g>
    </g>
    <g id="ytick_5">
     <g id="line2d_31">
      <path d="M 108 193.679388 
L 777.6 193.679388 
" clip-path="url(#p449df5f5aa)" style="fill: none; stroke-dasharray: 5.12,1.28,0.8,1.28; stroke-dashoffset: 0; stroke: #b0b0b0; stroke-width: 0.8"/>
     </g>
     <g id="line2d_32">
      <g>
       <use xlink:href="#m788af3658f" x="108" y="193.679388" style="fill: #a9a9a9; stroke: #a9a9a9; stroke-width: 0.8"/>
      </g>
     </g>
     <g id="text_16">
      <!-- 3200 -->
      <g style="fill: #a9a9a9" transform="translate(75.55 197.478607) scale(0.1 -0.1)">
       <use xlink:href="#DejaVuSans-33"/>
       <use xlink:href="#DejaVuSans-32" x="63.623047"/>
       <use xlink:href="#DejaVuSans-30" x="127.246094"/>
       <use xlink:href="#DejaVuSans-30" x="190.869141"/>
      </g>
     </g>
    </g>
    <g id="ytick_6">
     <g id="line2d_33">
      <path d="M 108 165.140317 
L 777.6 165.140317 
" clip-path="url(#p449df5f5aa)" style="fill: none; stroke-dasharray: 5.12,1.28,0.8,1.28; stroke-dashoffset: 0; stroke: #b0b0b0; stroke-width: 0.8"/>
     </g>
     <g id="line2d_34">
      <g>
       <use xlink:href="#m788af3658f" x="108" y="165.140317" style="fill: #a9a9a9; stroke: #a9a9a9; stroke-width: 0.8"/>
      </g>
     </g>
     <g id="text_17">
      <!-- 4000 -->
      <g style="fill: #a9a9a9" transform="translate(75.55 168.939536) scale(0.1 -0.1)">
       <use xlink:href="#DejaVuSans-34"/>
       <use xlink:href="#DejaVuSans-30" x="63.623047"/>
       <use xlink:href="#DejaVuSans-30" x="127.246094"/>
       <use xlink:href="#DejaVuSans-30" x="190.869141"/>
      </g>
     </g>
    </g>
    <g id="ytick_7">
     <g id="line2d_35">
      <path d="M 108 136.601246 
L 777.6 136.601246 
" clip-path="url(#p449df5f5aa)" style="fill: none; stroke-dasharray: 5.12,1.28,0.8,1.28; stroke-dashoffset: 0; stroke: #b0b0b0; stroke-width: 0.8"/>
     </g>
     <g id="line2d_36">
      <g>
       <use xlink:href="#m788af3658f" x="108" y="136.601246" style="fill: #a9a9a9; stroke: #a9a9a9; stroke-width: 0.8"/>
      </g>
     </g>
     <g id="text_18">
      <!-- 4800 -->
      <g style="fill: #a9a9a9" transform="translate(75.55 140.400465) scale(0.1 -0.1)">
       <use xlink:href="#DejaVuSans-34"/>
       <use xlink:href="#DejaVuSans-38" x="63.623047"/>
       <use xlink:href="#DejaVuSans-30" x="127.246094"/>
       <use xlink:href="#DejaVuSans-30" x="190.869141"/>
      </g>
     </g>
    </g>
    <g id="ytick_8">
     <g id="line2d_37">
      <path d="M 108 108.062174 
L 777.6 108.062174 
" clip-path="url(#p449df5f5aa)" style="fill: none; stroke-dasharray: 5.12,1.28,0.8,1.28; stroke-dashoffset: 0; stroke: #b0b0b0; stroke-width: 0.8"/>
     </g>
     <g id="line2d_38">
      <g>
       <use xlink:href="#m788af3658f" x="108" y="108.062174" style="fill: #a9a9a9; stroke: #a9a9a9; stroke-width: 0.8"/>
      </g>
     </g>
     <g id="text_19">
      <!-- 5600 -->
      <g style="fill: #a9a9a9" transform="translate(75.55 111.861393) scale(0.1 -0.1)">
       <use xlink:href="#DejaVuSans-35"/>
       <use xlink:href="#DejaVuSans-36" x="63.623047"/>
       <use xlink:href="#DejaVuSans-30" x="127.246094"/>
       <use xlink:href="#DejaVuSans-30" x="190.869141"/>
      </g>
     </g>
    </g>
    <g id="ytick_9">
     <g id="line2d_39">
      <path d="M 108 79.523103 
L 777.6 79.523103 
" clip-path="url(#p449df5f5aa)" style="fill: none; stroke-dasharray: 5.12,1.28,0.8,1.28; stroke-dashoffset: 0; stroke: #b0b0b0; stroke-width: 0.8"/>
     </g>
     <g id="line2d_40">
      <g>
       <use xlink:href="#m788af3658f" x="108" y="79.523103" style="fill: #a9a9a9; stroke: #a9a9a9; stroke-width: 0.8"/>
      </g>
     </g>
     <g id="text_20">
      <!-- 6400 -->
      <g style="fill: #a9a9a9" transform="translate(75.55 83.322322) scale(0.1 -0.1)">
       <use xlink:href="#DejaVuSans-36"/>
       <use xlink:href="#DejaVuSans-34" x="63.623047"/>
       <use xlink:href="#DejaVuSans-30" x="127.246094"/>
       <use xlink:href="#DejaVuSans-30" x="190.869141"/>
      </g>
     </g>
    </g>
    <g id="ytick_10">
     <g id="line2d_41">
      <path d="M 108 50.984032 
L 777.6 50.984032 
" clip-path="url(#p449df5f5aa)" style="fill: none; stroke-dasharray: 5.12,1.28,0.8,1.28; stroke-dashoffset: 0; stroke: #b0b0b0; stroke-width: 0.8"/>
     </g>
     <g id="line2d_42">
      <g>
       <use xlink:href="#m788af3658f" x="108" y="50.984032" style="fill: #a9a9a9; stroke: #a9a9a9; stroke-width: 0.8"/>
      </g>
     </g>
     <g id="text_21">
      <!-- 7200 -->
      <g style="fill: #a9a9a9" transform="translate(75.55 54.78325) scale(0.1 -0.1)">
       <defs>
        <path id="DejaVuSans-37" d="M 525 4666 
L 3525 4666 
L 3525 4397 
L 1831 0 
L 1172 0 
L 2766 4134 
L 525 4134 
L 525 4666 
z
" transform="scale(0.015625)"/>
       </defs>
       <use xlink:href="#DejaVuSans-37"/>
       <use xlink:href="#DejaVuSans-32" x="63.623047"/>
       <use xlink:href="#DejaVuSans-30" x="127.246094"/>
       <use xlink:href="#DejaVuSans-30" x="190.869141"/>
      </g>
     </g>
    </g>
   </g>
   <g id="line2d_43">
    <path d="M 138.436364 307.728652 
L 141.393743 307.478935 
L 141.88664 307.264892 
L 143.858226 307.015176 
L 145.829812 306.622763 
L 146.815605 306.480068 
L 149.280088 306.266025 
L 150.265881 305.873613 
L 150.758778 305.231484 
L 151.251675 304.874745 
L 151.744571 303.768856 
L 152.237468 303.697508 
L 152.730364 303.305096 
L 153.716158 302.805663 
L 155.687744 301.236014 
L 157.65933 300.27282 
L 159.13802 299.595017 
L 159.630916 298.810193 
L 160.61671 298.096716 
L 161.109606 297.882673 
L 166.038572 297.169196 
L 166.531469 296.955153 
L 169.981745 296.669762 
L 171.953331 296.206002 
L 175.896503 295.670895 
L 176.3894 295.421178 
L 176.882297 295.34983 
L 177.86809 295.028766 
L 181.318366 294.457984 
L 182.304159 294.172593 
L 186.740228 293.423443 
L 187.726021 293.2094 
L 188.711815 293.173726 
L 190.683401 292.709966 
L 191.176297 292.032163 
L 192.654987 291.461382 
L 194.133677 291.068969 
L 194.626573 290.819253 
L 195.612367 290.640883 
L 197.583953 290.070102 
L 198.569746 289.998754 
L 199.555539 289.749037 
L 201.527126 289.249604 
L 202.020022 289.21393 
L 203.005815 288.75017 
L 203.498712 288.678822 
L 203.991608 288.429105 
L 209.413471 287.537259 
L 211.385057 286.966478 
L 211.877954 286.645413 
L 214.342437 285.824915 
L 215.32823 285.147112 
L 216.806919 284.861721 
L 229.62223 281.258664 
L 230.115127 281.258664 
L 230.608024 281.044621 
L 231.593817 280.937599 
L 232.086713 280.75923 
L 234.0583 280.652208 
L 235.044093 280.473839 
L 236.029886 279.974405 
L 237.508576 279.439298 
L 238.001472 279.118233 
L 238.987265 278.690147 
L 239.480162 278.44043 
L 240.465955 278.119366 
L 240.958852 277.97667 
L 241.944645 277.370215 
L 242.437541 276.835108 
L 243.423335 275.336806 
L 243.916231 275.194111 
L 244.409128 275.194111 
L 245.887817 274.337939 
L 246.380714 274.088222 
L 246.873611 273.9812 
L 247.366507 273.517441 
L 248.3523 273.125028 
L 249.338093 272.661268 
L 249.83099 272.054813 
L 250.323887 271.269989 
L 250.816783 270.948924 
L 251.30968 270.092752 
L 251.802576 269.557644 
L 254.759956 267.987995 
L 255.745749 267.203171 
L 256.238646 266.882106 
L 256.731542 266.132956 
L 257.224439 265.027067 
L 257.717335 264.277916 
L 258.210232 263.885504 
L 258.703128 263.671461 
L 262.153404 260.746206 
L 263.139198 259.568969 
L 264.124991 258.855493 
L 266.589474 257.357191 
L 267.575267 256.822084 
L 269.546853 255.787542 
L 272.011336 253.575764 
L 272.997129 253.183352 
L 273.982922 252.505549 
L 274.475819 252.220159 
L 274.968715 252.148811 
L 276.447405 251.328313 
L 276.940302 250.793205 
L 279.404785 249.473273 
L 279.897681 249.294904 
L 281.376371 248.296036 
L 288.76982 245.691846 
L 289.755613 244.8 
L 290.741406 244.33624 
L 291.727199 243.801133 
L 292.220096 243.515742 
L 293.205889 243.230351 
L 293.698785 242.909287 
L 294.191682 242.766591 
L 295.670372 241.803398 
L 298.134855 241.232616 
L 299.613544 240.376444 
L 301.092234 240.055379 
L 301.585131 239.912684 
L 303.06382 238.806795 
L 305.035407 238.271687 
L 305.528303 237.879275 
L 308.485683 236.880408 
L 309.471476 236.702039 
L 310.457269 236.309626 
L 313.907545 235.061042 
L 314.893338 234.918347 
L 316.372028 234.418913 
L 318.836511 233.241676 
L 320.808097 232.171461 
L 324.75127 230.566138 
L 325.244166 230.49479 
L 326.22996 229.888335 
L 326.722856 229.816988 
L 328.694442 228.996489 
L 330.666029 228.746772 
L 331.651822 228.247339 
L 332.144718 227.819253 
L 332.637615 226.927407 
L 334.609201 226.392299 
L 336.087891 225.643148 
L 336.580788 225.536127 
L 340.52396 223.645413 
L 342.00265 223.360023 
L 342.988443 222.860589 
L 343.48134 222.646546 
L 343.974236 222.575198 
L 345.945823 221.683352 
L 347.424512 220.755832 
L 348.903202 220.470442 
L 351.367685 219.863986 
L 351.860582 219.471574 
L 353.339271 218.936467 
L 355.310858 218.151642 
L 355.803754 217.794904 
L 356.296651 217.616535 
L 357.282444 217.081427 
L 359.746927 216.260929 
L 361.225616 215.083692 
L 361.718513 214.97667 
L 362.704306 214.191846 
L 363.197203 214.120498 
L 363.690099 213.335674 
L 364.182996 213.121631 
L 364.675893 212.729219 
L 365.168789 212.657871 
L 366.154582 212.051416 
L 367.140375 211.730351 
L 367.633272 211.373613 
L 368.126169 211.195243 
L 369.604858 210.160702 
L 371.576445 209.126161 
L 372.069341 209.054813 
L 373.548031 208.305663 
L 374.040927 207.485164 
L 375.026721 206.771687 
L 375.519617 206.664666 
L 376.50541 206.058211 
L 376.998307 205.951189 
L 377.9841 205.451755 
L 379.955686 204.488562 
L 380.448583 204.131823 
L 381.434376 203.16863 
L 382.420169 202.562174 
L 382.913066 202.24111 
L 383.405962 201.706002 
L 385.377549 200.350396 
L 385.870445 199.779615 
L 386.363342 199.387203 
L 387.349135 199.030464 
L 388.334928 198.352661 
L 389.813618 197.603511 
L 390.306515 197.532163 
L 391.785204 196.747339 
L 392.770997 196.140883 
L 397.699963 194.357191 
L 398.19286 193.964779 
L 400.164446 193.215629 
L 400.657343 193.072933 
L 401.150239 192.680521 
L 403.614722 191.324915 
L 404.600515 189.362854 
L 405.586308 188.221291 
L 407.064998 187.47214 
L 408.050791 187.079728 
L 408.543688 187.008381 
L 409.036584 186.72299 
L 411.501067 185.938165 
L 411.993964 185.724122 
L 412.979757 185.046319 
L 414.458447 184.40419 
L 415.44424 183.869083 
L 415.937137 183.512344 
L 416.430033 183.298301 
L 416.92293 182.941563 
L 417.415826 182.406455 
L 418.401619 181.871348 
L 420.866102 180.551416 
L 423.823482 179.088788 
L 425.302172 178.660702 
L 426.780861 178.089921 
L 427.273758 177.733182 
L 428.259551 177.447792 
L 429.245344 177.055379 
L 429.738241 176.662967 
L 431.709827 175.985164 
L 432.69562 175.271687 
L 433.681413 174.843601 
L 434.667206 174.058777 
L 435.653 173.702039 
L 436.145896 173.273952 
L 436.638793 173.202605 
L 437.624586 172.453454 
L 438.610379 171.95402 
L 439.103276 171.739977 
L 439.596172 171.240544 
L 443.046448 169.884938 
L 444.032241 169.456852 
L 445.510931 168.993092 
L 446.496724 168.850396 
L 446.989621 168.636353 
L 447.482517 168.565006 
L 448.468311 168.13692 
L 448.961207 168.101246 
L 450.932794 167.352095 
L 452.411483 166.317554 
L 452.90438 166.139185 
L 453.890173 165.604077 
L 454.38307 165.461382 
L 457.340449 163.820385 
L 457.833346 163.713364 
L 459.312035 162.857191 
L 460.790725 162.357758 
L 461.776518 162.036693 
L 463.748105 161.394564 
L 464.733898 161.073499 
L 466.705484 160.681087 
L 467.198381 160.467044 
L 467.691277 160.395696 
L 468.67707 159.96761 
L 469.169967 159.896263 
L 469.662863 159.646546 
L 470.648657 159.468177 
L 472.127346 158.933069 
L 473.113139 158.826048 
L 474.591829 158.504983 
L 477.056312 158.076897 
L 489.871623 154.366818 
L 490.36452 153.867384 
L 491.350313 153.474972 
L 495.293485 152.012344 
L 495.786382 151.726954 
L 497.265072 151.298867 
L 498.250865 151.049151 
L 498.743762 150.728086 
L 499.236658 150.621065 
L 499.729555 150.192978 
L 501.208244 149.907588 
L 502.194038 149.443828 
L 502.686934 148.873046 
L 504.65852 148.409287 
L 508.108796 147.69581 
L 508.601693 147.69581 
L 509.09459 147.481767 
L 511.066176 147.125028 
L 511.559073 146.910985 
L 513.530659 146.554247 
L 514.516452 146.126161 
L 515.502245 145.947792 
L 517.966728 145.341336 
L 519.938314 144.734881 
L 520.431211 144.62786 
L 520.924107 144.378143 
L 521.909901 144.128426 
L 522.402797 143.843035 
L 523.881487 143.343601 
L 524.374384 143.022537 
L 525.360177 142.737146 
L 526.34597 142.416082 
L 527.331763 142.023669 
L 528.810453 141.38154 
L 530.782039 141.131823 
L 534.725212 139.740544 
L 535.218108 139.383805 
L 535.711005 139.276784 
L 536.203901 139.027067 
L 536.696798 138.991393 
L 542.11866 137.10068 
L 544.583143 136.45855 
L 545.568936 135.99479 
L 547.047626 135.673726 
L 547.540523 135.281314 
L 548.033419 135.031597 
L 548.526316 134.425142 
L 549.019212 134.068403 
L 550.005006 133.783012 
L 550.497902 133.3906 
L 553.455282 132.284711 
L 553.948178 131.963647 
L 554.933971 131.678256 
L 555.426868 131.357191 
L 557.891351 130.572367 
L 559.37004 129.716195 
L 559.862937 129.609173 
L 562.32742 128.289241 
L 563.80611 127.647112 
L 564.299006 127.290374 
L 565.284799 126.969309 
L 566.270593 126.398528 
L 566.763489 126.220159 
L 567.256386 125.86342 
L 573.664041 123.615968 
L 574.156938 123.508947 
L 574.649834 123.187882 
L 576.621421 122.79547 
L 577.607214 122.403058 
L 580.564593 120.976104 
L 581.05749 120.904757 
L 582.53618 120.084258 
L 584.014869 119.584824 
L 587.465145 118.193545 
L 587.958042 118.050849 
L 588.450939 117.729785 
L 589.436732 117.622763 
L 589.929628 117.301699 
L 590.915421 117.12333 
L 591.901215 116.65957 
L 592.394111 116.445527 
L 592.887008 116.374179 
L 595.351491 115.410985 
L 596.83018 115.018573 
L 597.815974 114.768856 
L 599.294663 114.34077 
L 600.280456 113.948358 
L 602.252043 112.878143 
L 603.237836 112.48573 
L 603.730732 112.164666 
L 604.716526 111.950623 
L 605.209422 111.665232 
L 605.702319 111.558211 
L 607.181008 110.737712 
L 608.166802 110.3453 
L 610.138388 109.596149 
L 612.602871 108.775651 
L 613.588664 108.276217 
L 616.053147 107.455719 
L 619.010526 106.278482 
L 620.982113 105.386636 
L 625.911078 103.495923 
L 626.403975 103.174858 
L 628.375561 102.497055 
L 628.868458 102.497055 
L 629.854251 102.068969 
L 630.840044 101.177123 
L 631.332941 100.749037 
L 632.81163 100.035561 
L 633.304527 99.928539 
L 633.797424 99.678822 
L 634.29032 99.607475 
L 634.783217 99.250736 
L 635.276113 99.143715 
L 636.261907 98.537259 
L 637.740596 97.788109 
L 638.726389 97.395696 
L 639.219286 97.14598 
L 640.697976 96.824915 
L 643.162459 96.004417 
L 644.148252 95.683352 
L 645.626941 94.934202 
L 646.612735 94.470442 
L 647.598528 94.220725 
L 649.077218 93.542922 
L 653.513287 91.901925 
L 654.991976 91.010079 
L 655.484873 90.903058 
L 656.470666 90.403624 
L 657.456459 90.046886 
L 657.949356 89.6188 
L 658.935149 89.226387 
L 660.413839 88.619932 
L 660.906735 88.22752 
L 661.399632 88.191846 
L 662.385425 87.906455 
L 663.371218 87.585391 
L 663.864115 87.335674 
L 664.357011 87.264326 
L 665.835701 86.729219 
L 667.314391 86.194111 
L 668.300184 85.801699 
L 668.793081 85.409287 
L 670.27177 85.016874 
L 670.764667 84.731484 
L 671.75046 84.481767 
L 673.22915 83.661268 
L 673.722046 83.625595 
L 675.200736 83.161835 
L 676.186529 83.090487 
L 677.172322 82.698075 
L 680.129702 81.841903 
L 681.115495 81.806229 
L 685.058668 80.557644 
L 686.044461 80.022537 
L 686.537357 79.594451 
L 688.016047 78.738279 
L 689.00184 78.131823 
L 691.95922 77.204304 
L 692.452116 76.811891 
L 695.409496 75.598981 
L 697.381082 75.063873 
L 698.366875 74.635787 
L 698.859772 74.38607 
L 699.845565 74.10068 
L 700.338462 73.815289 
L 701.324255 73.63692 
L 703.788738 72.495357 
L 704.281634 72.209966 
L 705.760324 71.853228 
L 706.25322 71.532163 
L 706.746117 71.353794 
L 707.239014 70.925708 
L 707.73191 70.85436 
L 710.196393 69.891166 
L 711.675083 69.570102 
L 712.167979 69.498754 
L 712.660876 69.284711 
L 713.153773 69.249037 
L 714.139566 68.927973 
L 714.632462 68.892299 
L 716.111152 68.321518 
L 718.082738 67.750736 
L 719.068531 66.965912 
L 721.040118 65.895696 
L 722.518808 65.396263 
L 725.476187 64.076331 
L 726.46198 63.541223 
L 726.954877 63.291506 
L 727.447773 62.827746 
L 730.405153 61.864553 
L 731.390946 61.47214 
L 732.376739 61.18675 
L 732.869636 60.937033 
L 733.362532 60.473273 
L 735.334119 59.973839 
L 735.827015 59.617101 
L 744.206257 56.691846 
L 744.699153 56.620498 
L 745.19205 56.370781 
L 745.684947 56.26376 
L 746.67074 55.871348 
L 747.163636 55.8 
L 747.163636 55.8 
" clip-path="url(#p449df5f5aa)" style="fill: none; stroke: #1f77b4; stroke-width: 1.5; stroke-linecap: square"/>
   </g>
   <g id="line2d_44">
    <path d="M 138.92926 307.8 
L 143.365329 307.692978 
L 147.308502 307.514609 
L 149.280088 307.514609 
L 149.772985 307.371914 
L 152.237468 307.264892 
L 155.194847 306.943828 
L 158.152227 306.836806 
L 159.13802 306.729785 
L 162.588296 306.587089 
L 166.038572 306.480068 
L 168.503055 306.40872 
L 174.91071 306.301699 
L 177.375193 306.230351 
L 180.825469 306.12333 
L 183.289952 306.051982 
L 188.711815 305.94496 
L 190.683401 305.766591 
L 192.654987 305.730917 
L 195.612367 305.623896 
L 197.583953 305.588222 
L 200.048436 305.516874 
L 202.020022 305.338505 
L 206.456091 305.231484 
L 207.441884 305.160136 
L 209.413471 305.053114 
L 212.37085 304.946093 
L 214.342437 304.839071 
L 223.214575 304.303964 
L 226.664851 304.196942 
L 228.143541 304.054247 
L 230.608024 303.947225 
L 235.536989 303.697508 
L 240.465955 303.626161 
L 242.437541 303.412118 
L 244.409128 303.305096 
L 249.83099 302.805663 
L 253.281266 302.41325 
L 254.759956 302.341903 
L 259.196025 301.806795 
L 261.660508 301.735447 
L 263.139198 301.592752 
L 264.617887 301.48573 
L 278.418992 300.451189 
L 279.404785 300.27282 
L 282.362164 300.165798 
L 290.248509 299.702039 
L 293.698785 299.595017 
L 295.670372 299.380974 
L 298.134855 299.273952 
L 301.092234 299.166931 
L 303.556717 299.059909 
L 305.528303 299.024236 
L 307.992786 298.952888 
L 308.978579 298.810193 
L 315.879131 298.703171 
L 316.864925 298.596149 
L 322.779683 298.489128 
L 327.215753 298.275085 
L 330.666029 298.168063 
L 332.637615 297.95402 
L 336.087891 297.846999 
L 337.073684 297.66863 
L 339.538167 297.597282 
L 344.467133 297.525934 
L 346.931616 297.276217 
L 349.888995 297.169196 
L 351.860582 296.990827 
L 356.789547 296.74111 
L 361.718513 296.634088 
L 366.154582 296.420045 
L 367.633272 296.384371 
L 368.619065 296.241676 
L 371.083548 296.134655 
L 372.069341 296.063307 
L 373.055134 295.991959 
L 374.040927 295.920612 
L 378.476997 295.849264 
L 379.955686 295.742242 
L 393.263894 294.88607 
L 395.728377 294.779049 
L 398.19286 294.707701 
L 405.093412 294.60068 
L 406.079205 294.457984 
L 412.979757 294.350963 
L 417.908723 294.101246 
L 418.894516 294.065572 
L 419.880309 293.95855 
L 422.344792 293.851529 
L 424.809275 293.780181 
L 427.273758 293.67316 
L 429.738241 293.601812 
L 434.17431 293.49479 
L 437.131689 293.387769 
L 444.032241 293.280747 
L 449.454104 292.995357 
L 451.42569 292.924009 
L 452.90438 292.816988 
L 459.804932 292.709966 
L 462.762311 292.602945 
L 471.63445 292.495923 
L 473.606036 292.460249 
L 479.520795 292.388901 
L 480.506588 292.317554 
L 487.40714 292.210532 
L 489.378727 292.174858 
L 502.194038 292.067837 
L 503.672727 291.925142 
L 525.853073 291.81812 
L 528.317556 291.746772 
L 541.132867 291.639751 
L 542.11866 291.568403 
L 544.583143 291.497055 
L 546.061833 291.35436 
L 549.019212 291.247339 
L 552.469488 291.104643 
L 556.905558 290.997622 
L 559.37004 290.926274 
L 562.820317 290.819253 
L 566.763489 290.640883 
L 569.227972 290.533862 
L 571.199558 290.498188 
L 575.635628 290.391166 
L 577.607214 290.355493 
L 584.014869 290.248471 
L 585.986456 290.212797 
L 588.450939 290.105776 
L 591.408318 289.998754 
L 594.858594 289.927407 
L 595.844387 289.856059 
L 607.673905 289.749037 
L 614.081561 289.392299 
L 616.546043 289.320951 
L 617.531837 289.21393 
L 618.51763 289.142582 
L 622.460802 289.035561 
L 625.418182 288.928539 
L 630.347148 288.821518 
L 632.81163 288.571801 
L 637.740596 288.464779 
L 638.726389 288.357758 
L 643.655355 288.250736 
L 646.119838 288.179388 
L 651.5417 288.143715 
L 652.527494 288.036693 
L 657.949356 287.929672 
L 658.935149 287.858324 
L 669.778874 287.751302 
L 672.736253 287.644281 
L 680.129702 287.537259 
L 682.101288 287.501586 
L 686.537357 287.430238 
L 687.523151 287.323216 
L 693.437909 287.216195 
L 696.395289 287.109173 
L 705.267427 287.002152 
L 706.746117 286.89513 
L 708.224807 286.788109 
L 709.703497 286.681087 
L 717.096945 286.574066 
L 720.547221 286.43137 
L 733.362532 286.324349 
L 737.798601 286.110306 
L 743.220464 286.003284 
L 747.163636 285.824915 
L 747.163636 285.824915 
" clip-path="url(#p449df5f5aa)" style="fill: none; stroke: #ff7f0e; stroke-width: 1.5; stroke-linecap: square"/>
   </g>
   <g id="patch_3">
    <path d="M 108 320.4 
L 108 43.2 
" style="fill: none; stroke: #a9a9a9; stroke-width: 0.8; stroke-linejoin: miter; stroke-linecap: square"/>
   </g>
   <g id="patch_4">
    <path d="M 777.6 320.4 
L 777.6 43.2 
" style="fill: none"/>
   </g>
   <g id="patch_5">
    <path d="M 108 320.4 
L 777.6 320.4 
" style="fill: none; stroke: #a9a9a9; stroke-width: 0.8; stroke-linejoin: miter; stroke-linecap: square"/>
   </g>
   <g id="patch_6">
    <path d="M 108 43.2 
L 777.6 43.2 
" style="fill: none"/>
   </g>
   <g id="text_22">
    <!-- get_subscribe history -->
    <g style="fill: #a9a9a9" transform="translate(378.6075 37.2) scale(0.12 -0.12)">
     <defs>
      <path id="DejaVuSans-67" d="M 2906 1791 
Q 2906 2416 2648 2759 
Q 2391 3103 1925 3103 
Q 1463 3103 1205 2759 
Q 947 2416 947 1791 
Q 947 1169 1205 825 
Q 1463 481 1925 481 
Q 2391 481 2648 825 
Q 2906 1169 2906 1791 
z
M 3481 434 
Q 3481 -459 3084 -895 
Q 2688 -1331 1869 -1331 
Q 1566 -1331 1297 -1286 
Q 1028 -1241 775 -1147 
L 775 -588 
Q 1028 -725 1275 -790 
Q 1522 -856 1778 -856 
Q 2344 -856 2625 -561 
Q 2906 -266 2906 331 
L 2906 616 
Q 2728 306 2450 153 
Q 2172 0 1784 0 
Q 1141 0 747 490 
Q 353 981 353 1791 
Q 353 2603 747 3093 
Q 1141 3584 1784 3584 
Q 2172 3584 2450 3431 
Q 2728 3278 2906 2969 
L 2906 3500 
L 3481 3500 
L 3481 434 
z
" transform="scale(0.015625)"/>
      <path id="DejaVuSans-65" d="M 3597 1894 
L 3597 1613 
L 953 1613 
Q 991 1019 1311 708 
Q 1631 397 2203 397 
Q 2534 397 2845 478 
Q 3156 559 3463 722 
L 3463 178 
Q 3153 47 2828 -22 
Q 2503 -91 2169 -91 
Q 1331 -91 842 396 
Q 353 884 353 1716 
Q 353 2575 817 3079 
Q 1281 3584 2069 3584 
Q 2775 3584 3186 3129 
Q 3597 2675 3597 1894 
z
M 3022 2063 
Q 3016 2534 2758 2815 
Q 2500 3097 2075 3097 
Q 1594 3097 1305 2825 
Q 1016 2553 972 2059 
L 3022 2063 
z
" transform="scale(0.015625)"/>
      <path id="DejaVuSans-74" d="M 1172 4494 
L 1172 3500 
L 2356 3500 
L 2356 3053 
L 1172 3053 
L 1172 1153 
Q 1172 725 1289 603 
Q 1406 481 1766 481 
L 2356 481 
L 2356 0 
L 1766 0 
Q 1100 0 847 248 
Q 594 497 594 1153 
L 594 3053 
L 172 3053 
L 172 3500 
L 594 3500 
L 594 4494 
L 1172 4494 
z
" transform="scale(0.015625)"/>
      <path id="DejaVuSans-5f" d="M 3263 -1063 
L 3263 -1509 
L -63 -1509 
L -63 -1063 
L 3263 -1063 
z
" transform="scale(0.015625)"/>
      <path id="DejaVuSans-73" d="M 2834 3397 
L 2834 2853 
Q 2591 2978 2328 3040 
Q 2066 3103 1784 3103 
Q 1356 3103 1142 2972 
Q 928 2841 928 2578 
Q 928 2378 1081 2264 
Q 1234 2150 1697 2047 
L 1894 2003 
Q 2506 1872 2764 1633 
Q 3022 1394 3022 966 
Q 3022 478 2636 193 
Q 2250 -91 1575 -91 
Q 1294 -91 989 -36 
Q 684 19 347 128 
L 347 722 
Q 666 556 975 473 
Q 1284 391 1588 391 
Q 1994 391 2212 530 
Q 2431 669 2431 922 
Q 2431 1156 2273 1281 
Q 2116 1406 1581 1522 
L 1381 1569 
Q 847 1681 609 1914 
Q 372 2147 372 2553 
Q 372 3047 722 3315 
Q 1072 3584 1716 3584 
Q 2034 3584 2315 3537 
Q 2597 3491 2834 3397 
z
" transform="scale(0.015625)"/>
      <path id="DejaVuSans-75" d="M 544 1381 
L 544 3500 
L 1119 3500 
L 1119 1403 
Q 1119 906 1312 657 
Q 1506 409 1894 409 
Q 2359 409 2629 706 
Q 2900 1003 2900 1516 
L 2900 3500 
L 3475 3500 
L 3475 0 
L 2900 0 
L 2900 538 
Q 2691 219 2414 64 
Q 2138 -91 1772 -91 
Q 1169 -91 856 284 
Q 544 659 544 1381 
z
M 1991 3584 
L 1991 3584 
z
" transform="scale(0.015625)"/>
      <path id="DejaVuSans-62" d="M 3116 1747 
Q 3116 2381 2855 2742 
Q 2594 3103 2138 3103 
Q 1681 3103 1420 2742 
Q 1159 2381 1159 1747 
Q 1159 1113 1420 752 
Q 1681 391 2138 391 
Q 2594 391 2855 752 
Q 3116 1113 3116 1747 
z
M 1159 2969 
Q 1341 3281 1617 3432 
Q 1894 3584 2278 3584 
Q 2916 3584 3314 3078 
Q 3713 2572 3713 1747 
Q 3713 922 3314 415 
Q 2916 -91 2278 -91 
Q 1894 -91 1617 61 
Q 1341 213 1159 525 
L 1159 0 
L 581 0 
L 581 4863 
L 1159 4863 
L 1159 2969 
z
" transform="scale(0.015625)"/>
      <path id="DejaVuSans-63" d="M 3122 3366 
L 3122 2828 
Q 2878 2963 2633 3030 
Q 2388 3097 2138 3097 
Q 1578 3097 1268 2742 
Q 959 2388 959 1747 
Q 959 1106 1268 751 
Q 1578 397 2138 397 
Q 2388 397 2633 464 
Q 2878 531 3122 666 
L 3122 134 
Q 2881 22 2623 -34 
Q 2366 -91 2075 -91 
Q 1284 -91 818 406 
Q 353 903 353 1747 
Q 353 2603 823 3093 
Q 1294 3584 2113 3584 
Q 2378 3584 2631 3529 
Q 2884 3475 3122 3366 
z
" transform="scale(0.015625)"/>
      <path id="DejaVuSans-72" d="M 2631 2963 
Q 2534 3019 2420 3045 
Q 2306 3072 2169 3072 
Q 1681 3072 1420 2755 
Q 1159 2438 1159 1844 
L 1159 0 
L 581 0 
L 581 3500 
L 1159 3500 
L 1159 2956 
Q 1341 3275 1631 3429 
Q 1922 3584 2338 3584 
Q 2397 3584 2469 3576 
Q 2541 3569 2628 3553 
L 2631 2963 
z
" transform="scale(0.015625)"/>
      <path id="DejaVuSans-69" d="M 603 3500 
L 1178 3500 
L 1178 0 
L 603 0 
L 603 3500 
z
M 603 4863 
L 1178 4863 
L 1178 4134 
L 603 4134 
L 603 4863 
z
" transform="scale(0.015625)"/>
      <path id="DejaVuSans-20" transform="scale(0.015625)"/>
      <path id="DejaVuSans-68" d="M 3513 2113 
L 3513 0 
L 2938 0 
L 2938 2094 
Q 2938 2591 2744 2837 
Q 2550 3084 2163 3084 
Q 1697 3084 1428 2787 
Q 1159 2491 1159 1978 
L 1159 0 
L 581 0 
L 581 4863 
L 1159 4863 
L 1159 2956 
Q 1366 3272 1645 3428 
Q 1925 3584 2291 3584 
Q 2894 3584 3203 3211 
Q 3513 2838 3513 2113 
z
" transform="scale(0.015625)"/>
      <path id="DejaVuSans-6f" d="M 1959 3097 
Q 1497 3097 1228 2736 
Q 959 2375 959 1747 
Q 959 1119 1226 758 
Q 1494 397 1959 397 
Q 2419 397 2687 759 
Q 2956 1122 2956 1747 
Q 2956 2369 2687 2733 
Q 2419 3097 1959 3097 
z
M 1959 3584 
Q 2709 3584 3137 3096 
Q 3566 2609 3566 1747 
Q 3566 888 3137 398 
Q 2709 -91 1959 -91 
Q 1206 -91 779 398 
Q 353 888 353 1747 
Q 353 2609 779 3096 
Q 1206 3584 1959 3584 
z
" transform="scale(0.015625)"/>
      <path id="DejaVuSans-79" d="M 2059 -325 
Q 1816 -950 1584 -1140 
Q 1353 -1331 966 -1331 
L 506 -1331 
L 506 -850 
L 844 -850 
Q 1081 -850 1212 -737 
Q 1344 -625 1503 -206 
L 1606 56 
L 191 3500 
L 800 3500 
L 1894 763 
L 2988 3500 
L 3597 3500 
L 2059 -325 
z
" transform="scale(0.015625)"/>
     </defs>
     <use xlink:href="#DejaVuSans-67"/>
     <use xlink:href="#DejaVuSans-65" x="63.476562"/>
     <use xlink:href="#DejaVuSans-74" x="125"/>
     <use xlink:href="#DejaVuSans-5f" x="164.208984"/>
     <use xlink:href="#DejaVuSans-73" x="214.208984"/>
     <use xlink:href="#DejaVuSans-75" x="266.308594"/>
     <use xlink:href="#DejaVuSans-62" x="329.6875"/>
     <use xlink:href="#DejaVuSans-73" x="393.164062"/>
     <use xlink:href="#DejaVuSans-63" x="445.263672"/>
     <use xlink:href="#DejaVuSans-72" x="500.244141"/>
     <use xlink:href="#DejaVuSans-69" x="541.357422"/>
     <use xlink:href="#DejaVuSans-62" x="569.140625"/>
     <use xlink:href="#DejaVuSans-65" x="632.617188"/>
     <use xlink:href="#DejaVuSans-20" x="694.140625"/>
     <use xlink:href="#DejaVuSans-68" x="725.927734"/>
     <use xlink:href="#DejaVuSans-69" x="789.306641"/>
     <use xlink:href="#DejaVuSans-73" x="817.089844"/>
     <use xlink:href="#DejaVuSans-74" x="869.189453"/>
     <use xlink:href="#DejaVuSans-6f" x="908.398438"/>
     <use xlink:href="#DejaVuSans-72" x="969.580078"/>
     <use xlink:href="#DejaVuSans-79" x="1010.693359"/>
    </g>
   </g>
   <g id="legend_1">
    <g id="line2d_45">
     <path d="M 815.08 328.498438 
L 825.08 328.498438 
L 835.08 328.498438 
" style="fill: none; stroke: #1f77b4; stroke-width: 1.5; stroke-linecap: square"/>
    </g>
    <g id="text_23">
     <!-- star -->
     <g style="fill: #a9a9a9" transform="translate(843.08 331.998438) scale(0.1 -0.1)">
      <defs>
       <path id="DejaVuSans-61" d="M 2194 1759 
Q 1497 1759 1228 1600 
Q 959 1441 959 1056 
Q 959 750 1161 570 
Q 1363 391 1709 391 
Q 2188 391 2477 730 
Q 2766 1069 2766 1631 
L 2766 1759 
L 2194 1759 
z
M 3341 1997 
L 3341 0 
L 2766 0 
L 2766 531 
Q 2569 213 2275 61 
Q 1981 -91 1556 -91 
Q 1019 -91 701 211 
Q 384 513 384 1019 
Q 384 1609 779 1909 
Q 1175 2209 1959 2209 
L 2766 2209 
L 2766 2266 
Q 2766 2663 2505 2880 
Q 2244 3097 1772 3097 
Q 1472 3097 1187 3025 
Q 903 2953 641 2809 
L 641 3341 
Q 956 3463 1253 3523 
Q 1550 3584 1831 3584 
Q 2591 3584 2966 3190 
Q 3341 2797 3341 1997 
z
" transform="scale(0.015625)"/>
      </defs>
      <use xlink:href="#DejaVuSans-73"/>
      <use xlink:href="#DejaVuSans-74" x="52.099609"/>
      <use xlink:href="#DejaVuSans-61" x="91.308594"/>
      <use xlink:href="#DejaVuSans-72" x="152.587891"/>
     </g>
    </g>
    <g id="line2d_46">
     <path d="M 815.08 343.176562 
L 825.08 343.176562 
L 835.08 343.176562 
" style="fill: none; stroke: #ff7f0e; stroke-width: 1.5; stroke-linecap: square"/>
    </g>
    <g id="text_24">
     <!-- fork -->
     <g style="fill: #a9a9a9" transform="translate(843.08 346.676562) scale(0.1 -0.1)">
      <defs>
       <path id="DejaVuSans-66" d="M 2375 4863 
L 2375 4384 
L 1825 4384 
Q 1516 4384 1395 4259 
Q 1275 4134 1275 3809 
L 1275 3500 
L 2222 3500 
L 2222 3053 
L 1275 3053 
L 1275 0 
L 697 0 
L 697 3053 
L 147 3053 
L 147 3500 
L 697 3500 
L 697 3744 
Q 697 4328 969 4595 
Q 1241 4863 1831 4863 
L 2375 4863 
z
" transform="scale(0.015625)"/>
       <path id="DejaVuSans-6b" d="M 581 4863 
L 1159 4863 
L 1159 1991 
L 2875 3500 
L 3609 3500 
L 1753 1863 
L 3688 0 
L 2938 0 
L 1159 1709 
L 1159 0 
L 581 0 
L 581 4863 
z
" transform="scale(0.015625)"/>
      </defs>
      <use xlink:href="#DejaVuSans-66"/>
      <use xlink:href="#DejaVuSans-6f" x="35.205078"/>
      <use xlink:href="#DejaVuSans-72" x="96.386719"/>
      <use xlink:href="#DejaVuSans-6b" x="137.5"/>
     </g>
    </g>
   </g>
  </g>
 </g>
 <defs>
  <clipPath id="p449df5f5aa">
   <rect x="108" y="43.2" width="669.6" height="277.2"/>
  </clipPath>
 </defs>
</svg>
