<?xml version="1.0" encoding="utf-8" standalone="no"?>
<!DOCTYPE svg PUBLIC "-//W3C//DTD SVG 1.1//EN"
  "http://www.w3.org/Graphics/SVG/1.1/DTD/svg11.dtd">
<svg xmlns:xlink="http://www.w3.org/1999/xlink" width="864pt" height="360pt" viewBox="0 0 864 360" xmlns="http://www.w3.org/2000/svg" version="1.1">
 <metadata>
  <rdf:RDF xmlns:dc="http://purl.org/dc/elements/1.1/" xmlns:cc="http://creativecommons.org/ns#" xmlns:rdf="http://www.w3.org/1999/02/22-rdf-syntax-ns#">
   <cc:Work>
    <dc:type rdf:resource="http://purl.org/dc/dcmitype/StillImage"/>
    <dc:date>2025-01-02T14:21:46.710242</dc:date>
    <dc:format>image/svg+xml</dc:format>
    <dc:creator>
     <cc:Agent>
      <dc:title>Matplotlib v3.10.0, https://matplotlib.org/</dc:title>
     </cc:Agent>
    </dc:creator>
   </cc:Work>
  </rdf:RDF>
 </metadata>
 <defs>
  <style type="text/css">*{stroke-linejoin: round; stroke-linecap: butt}</style>
 </defs>
 <g id="figure_1">
  <g id="patch_1">
   <path d="M 0 360 
L 864 360 
L 864 0 
L 0 0 
L 0 360 
z
" style="fill: none; opacity: 0"/>
  </g>
  <g id="axes_1">
   <g id="patch_2">
    <path d="M 108 320.4 
L 777.6 320.4 
L 777.6 43.2 
L 108 43.2 
L 108 320.4 
z
" style="fill: none; opacity: 0"/>
   </g>
   <g id="matplotlib.axis_1">
    <g id="xtick_1">
     <g id="line2d_1">
      <path d="M 127.30701 320.4 
L 127.30701 43.2 
" clip-path="url(#p488523bdb9)" style="fill: none; stroke-dasharray: 5.12,1.28,0.8,1.28; stroke-dashoffset: 0; stroke: #b0b0b0; stroke-width: 0.8"/>
     </g>
     <g id="line2d_2">
      <defs>
       <path id="ma1a167facc" d="M 0 0 
L 0 3.5 
" style="stroke: #a9a9a9; stroke-width: 0.8"/>
      </defs>
      <g>
       <use xlink:href="#ma1a167facc" x="127.30701" y="320.4" style="fill: #a9a9a9; stroke: #a9a9a9; stroke-width: 0.8"/>
      </g>
     </g>
     <g id="text_1">
      <!-- 2021-07 -->
      <g style="fill: #a9a9a9" transform="translate(106.415603 334.998438) scale(0.1 -0.1)">
       <defs>
        <path id="DejaVuSans-32" d="M 1228 531 
L 3431 531 
L 3431 0 
L 469 0 
L 469 531 
Q 828 903 1448 1529 
Q 2069 2156 2228 2338 
Q 2531 2678 2651 2914 
Q 2772 3150 2772 3378 
Q 2772 3750 2511 3984 
Q 2250 4219 1831 4219 
Q 1534 4219 1204 4116 
Q 875 4013 500 3803 
L 500 4441 
Q 881 4594 1212 4672 
Q 1544 4750 1819 4750 
Q 2544 4750 2975 4387 
Q 3406 4025 3406 3419 
Q 3406 3131 3298 2873 
Q 3191 2616 2906 2266 
Q 2828 2175 2409 1742 
Q 1991 1309 1228 531 
z
" transform="scale(0.015625)"/>
        <path id="DejaVuSans-30" d="M 2034 4250 
Q 1547 4250 1301 3770 
Q 1056 3291 1056 2328 
Q 1056 1369 1301 889 
Q 1547 409 2034 409 
Q 2525 409 2770 889 
Q 3016 1369 3016 2328 
Q 3016 3291 2770 3770 
Q 2525 4250 2034 4250 
z
M 2034 4750 
Q 2819 4750 3233 4129 
Q 3647 3509 3647 2328 
Q 3647 1150 3233 529 
Q 2819 -91 2034 -91 
Q 1250 -91 836 529 
Q 422 1150 422 2328 
Q 422 3509 836 4129 
Q 1250 4750 2034 4750 
z
" transform="scale(0.015625)"/>
        <path id="DejaVuSans-31" d="M 794 531 
L 1825 531 
L 1825 4091 
L 703 3866 
L 703 4441 
L 1819 4666 
L 2450 4666 
L 2450 531 
L 3481 531 
L 3481 0 
L 794 0 
L 794 531 
z
" transform="scale(0.015625)"/>
        <path id="DejaVuSans-2d" d="M 313 2009 
L 1997 2009 
L 1997 1497 
L 313 1497 
L 313 2009 
z
" transform="scale(0.015625)"/>
        <path id="DejaVuSans-37" d="M 525 4666 
L 3525 4666 
L 3525 4397 
L 1831 0 
L 1172 0 
L 2766 4134 
L 525 4134 
L 525 4666 
z
" transform="scale(0.015625)"/>
       </defs>
       <use xlink:href="#DejaVuSans-32"/>
       <use xlink:href="#DejaVuSans-30" transform="translate(63.623047 0)"/>
       <use xlink:href="#DejaVuSans-32" transform="translate(127.246094 0)"/>
       <use xlink:href="#DejaVuSans-31" transform="translate(190.869141 0)"/>
       <use xlink:href="#DejaVuSans-2d" transform="translate(254.492188 0)"/>
       <use xlink:href="#DejaVuSans-30" transform="translate(290.576172 0)"/>
       <use xlink:href="#DejaVuSans-37" transform="translate(354.199219 0)"/>
      </g>
     </g>
    </g>
    <g id="xtick_2">
     <g id="line2d_3">
      <path d="M 216.341841 320.4 
L 216.341841 43.2 
" clip-path="url(#p488523bdb9)" style="fill: none; stroke-dasharray: 5.12,1.28,0.8,1.28; stroke-dashoffset: 0; stroke: #b0b0b0; stroke-width: 0.8"/>
     </g>
     <g id="line2d_4">
      <g>
       <use xlink:href="#ma1a167facc" x="216.341841" y="320.4" style="fill: #a9a9a9; stroke: #a9a9a9; stroke-width: 0.8"/>
      </g>
     </g>
     <g id="text_2">
      <!-- 2022-01 -->
      <g style="fill: #a9a9a9" transform="translate(195.450435 334.998438) scale(0.1 -0.1)">
       <use xlink:href="#DejaVuSans-32"/>
       <use xlink:href="#DejaVuSans-30" transform="translate(63.623047 0)"/>
       <use xlink:href="#DejaVuSans-32" transform="translate(127.246094 0)"/>
       <use xlink:href="#DejaVuSans-32" transform="translate(190.869141 0)"/>
       <use xlink:href="#DejaVuSans-2d" transform="translate(254.492188 0)"/>
       <use xlink:href="#DejaVuSans-30" transform="translate(290.576172 0)"/>
       <use xlink:href="#DejaVuSans-31" transform="translate(354.199219 0)"/>
      </g>
     </g>
    </g>
    <g id="xtick_3">
     <g id="line2d_5">
      <path d="M 303.925018 320.4 
L 303.925018 43.2 
" clip-path="url(#p488523bdb9)" style="fill: none; stroke-dasharray: 5.12,1.28,0.8,1.28; stroke-dashoffset: 0; stroke: #b0b0b0; stroke-width: 0.8"/>
     </g>
     <g id="line2d_6">
      <g>
       <use xlink:href="#ma1a167facc" x="303.925018" y="320.4" style="fill: #a9a9a9; stroke: #a9a9a9; stroke-width: 0.8"/>
      </g>
     </g>
     <g id="text_3">
      <!-- 2022-07 -->
      <g style="fill: #a9a9a9" transform="translate(283.033612 334.998438) scale(0.1 -0.1)">
       <use xlink:href="#DejaVuSans-32"/>
       <use xlink:href="#DejaVuSans-30" transform="translate(63.623047 0)"/>
       <use xlink:href="#DejaVuSans-32" transform="translate(127.246094 0)"/>
       <use xlink:href="#DejaVuSans-32" transform="translate(190.869141 0)"/>
       <use xlink:href="#DejaVuSans-2d" transform="translate(254.492188 0)"/>
       <use xlink:href="#DejaVuSans-30" transform="translate(290.576172 0)"/>
       <use xlink:href="#DejaVuSans-37" transform="translate(354.199219 0)"/>
      </g>
     </g>
    </g>
    <g id="xtick_4">
     <g id="line2d_7">
      <path d="M 392.95985 320.4 
L 392.95985 43.2 
" clip-path="url(#p488523bdb9)" style="fill: none; stroke-dasharray: 5.12,1.28,0.8,1.28; stroke-dashoffset: 0; stroke: #b0b0b0; stroke-width: 0.8"/>
     </g>
     <g id="line2d_8">
      <g>
       <use xlink:href="#ma1a167facc" x="392.95985" y="320.4" style="fill: #a9a9a9; stroke: #a9a9a9; stroke-width: 0.8"/>
      </g>
     </g>
     <g id="text_4">
      <!-- 2023-01 -->
      <g style="fill: #a9a9a9" transform="translate(372.068443 334.998438) scale(0.1 -0.1)">
       <defs>
        <path id="DejaVuSans-33" d="M 2597 2516 
Q 3050 2419 3304 2112 
Q 3559 1806 3559 1356 
Q 3559 666 3084 287 
Q 2609 -91 1734 -91 
Q 1441 -91 1130 -33 
Q 819 25 488 141 
L 488 750 
Q 750 597 1062 519 
Q 1375 441 1716 441 
Q 2309 441 2620 675 
Q 2931 909 2931 1356 
Q 2931 1769 2642 2001 
Q 2353 2234 1838 2234 
L 1294 2234 
L 1294 2753 
L 1863 2753 
Q 2328 2753 2575 2939 
Q 2822 3125 2822 3475 
Q 2822 3834 2567 4026 
Q 2313 4219 1838 4219 
Q 1578 4219 1281 4162 
Q 984 4106 628 3988 
L 628 4550 
Q 988 4650 1302 4700 
Q 1616 4750 1894 4750 
Q 2613 4750 3031 4423 
Q 3450 4097 3450 3541 
Q 3450 3153 3228 2886 
Q 3006 2619 2597 2516 
z
" transform="scale(0.015625)"/>
       </defs>
       <use xlink:href="#DejaVuSans-32"/>
       <use xlink:href="#DejaVuSans-30" transform="translate(63.623047 0)"/>
       <use xlink:href="#DejaVuSans-32" transform="translate(127.246094 0)"/>
       <use xlink:href="#DejaVuSans-33" transform="translate(190.869141 0)"/>
       <use xlink:href="#DejaVuSans-2d" transform="translate(254.492188 0)"/>
       <use xlink:href="#DejaVuSans-30" transform="translate(290.576172 0)"/>
       <use xlink:href="#DejaVuSans-31" transform="translate(354.199219 0)"/>
      </g>
     </g>
    </g>
    <g id="xtick_5">
     <g id="line2d_9">
      <path d="M 480.543026 320.4 
L 480.543026 43.2 
" clip-path="url(#p488523bdb9)" style="fill: none; stroke-dasharray: 5.12,1.28,0.8,1.28; stroke-dashoffset: 0; stroke: #b0b0b0; stroke-width: 0.8"/>
     </g>
     <g id="line2d_10">
      <g>
       <use xlink:href="#ma1a167facc" x="480.543026" y="320.4" style="fill: #a9a9a9; stroke: #a9a9a9; stroke-width: 0.8"/>
      </g>
     </g>
     <g id="text_5">
      <!-- 2023-07 -->
      <g style="fill: #a9a9a9" transform="translate(459.65162 334.998438) scale(0.1 -0.1)">
       <use xlink:href="#DejaVuSans-32"/>
       <use xlink:href="#DejaVuSans-30" transform="translate(63.623047 0)"/>
       <use xlink:href="#DejaVuSans-32" transform="translate(127.246094 0)"/>
       <use xlink:href="#DejaVuSans-33" transform="translate(190.869141 0)"/>
       <use xlink:href="#DejaVuSans-2d" transform="translate(254.492188 0)"/>
       <use xlink:href="#DejaVuSans-30" transform="translate(290.576172 0)"/>
       <use xlink:href="#DejaVuSans-37" transform="translate(354.199219 0)"/>
      </g>
     </g>
    </g>
    <g id="xtick_6">
     <g id="line2d_11">
      <path d="M 569.577858 320.4 
L 569.577858 43.2 
" clip-path="url(#p488523bdb9)" style="fill: none; stroke-dasharray: 5.12,1.28,0.8,1.28; stroke-dashoffset: 0; stroke: #b0b0b0; stroke-width: 0.8"/>
     </g>
     <g id="line2d_12">
      <g>
       <use xlink:href="#ma1a167facc" x="569.577858" y="320.4" style="fill: #a9a9a9; stroke: #a9a9a9; stroke-width: 0.8"/>
      </g>
     </g>
     <g id="text_6">
      <!-- 2024-01 -->
      <g style="fill: #a9a9a9" transform="translate(548.686452 334.998438) scale(0.1 -0.1)">
       <defs>
        <path id="DejaVuSans-34" d="M 2419 4116 
L 825 1625 
L 2419 1625 
L 2419 4116 
z
M 2253 4666 
L 3047 4666 
L 3047 1625 
L 3713 1625 
L 3713 1100 
L 3047 1100 
L 3047 0 
L 2419 0 
L 2419 1100 
L 313 1100 
L 313 1709 
L 2253 4666 
z
" transform="scale(0.015625)"/>
       </defs>
       <use xlink:href="#DejaVuSans-32"/>
       <use xlink:href="#DejaVuSans-30" transform="translate(63.623047 0)"/>
       <use xlink:href="#DejaVuSans-32" transform="translate(127.246094 0)"/>
       <use xlink:href="#DejaVuSans-34" transform="translate(190.869141 0)"/>
       <use xlink:href="#DejaVuSans-2d" transform="translate(254.492188 0)"/>
       <use xlink:href="#DejaVuSans-30" transform="translate(290.576172 0)"/>
       <use xlink:href="#DejaVuSans-31" transform="translate(354.199219 0)"/>
      </g>
     </g>
    </g>
    <g id="xtick_7">
     <g id="line2d_13">
      <path d="M 657.64492 320.4 
L 657.64492 43.2 
" clip-path="url(#p488523bdb9)" style="fill: none; stroke-dasharray: 5.12,1.28,0.8,1.28; stroke-dashoffset: 0; stroke: #b0b0b0; stroke-width: 0.8"/>
     </g>
     <g id="line2d_14">
      <g>
       <use xlink:href="#ma1a167facc" x="657.64492" y="320.4" style="fill: #a9a9a9; stroke: #a9a9a9; stroke-width: 0.8"/>
      </g>
     </g>
     <g id="text_7">
      <!-- 2024-07 -->
      <g style="fill: #a9a9a9" transform="translate(636.753514 334.998438) scale(0.1 -0.1)">
       <use xlink:href="#DejaVuSans-32"/>
       <use xlink:href="#DejaVuSans-30" transform="translate(63.623047 0)"/>
       <use xlink:href="#DejaVuSans-32" transform="translate(127.246094 0)"/>
       <use xlink:href="#DejaVuSans-34" transform="translate(190.869141 0)"/>
       <use xlink:href="#DejaVuSans-2d" transform="translate(254.492188 0)"/>
       <use xlink:href="#DejaVuSans-30" transform="translate(290.576172 0)"/>
       <use xlink:href="#DejaVuSans-37" transform="translate(354.199219 0)"/>
      </g>
     </g>
    </g>
    <g id="xtick_8">
     <g id="line2d_15">
      <path d="M 746.679751 320.4 
L 746.679751 43.2 
" clip-path="url(#p488523bdb9)" style="fill: none; stroke-dasharray: 5.12,1.28,0.8,1.28; stroke-dashoffset: 0; stroke: #b0b0b0; stroke-width: 0.8"/>
     </g>
     <g id="line2d_16">
      <g>
       <use xlink:href="#ma1a167facc" x="746.679751" y="320.4" style="fill: #a9a9a9; stroke: #a9a9a9; stroke-width: 0.8"/>
      </g>
     </g>
     <g id="text_8">
      <!-- 2025-01 -->
      <g style="fill: #a9a9a9" transform="translate(725.788345 334.998438) scale(0.1 -0.1)">
       <defs>
        <path id="DejaVuSans-35" d="M 691 4666 
L 3169 4666 
L 3169 4134 
L 1269 4134 
L 1269 2991 
Q 1406 3038 1543 3061 
Q 1681 3084 1819 3084 
Q 2600 3084 3056 2656 
Q 3513 2228 3513 1497 
Q 3513 744 3044 326 
Q 2575 -91 1722 -91 
Q 1428 -91 1123 -41 
Q 819 9 494 109 
L 494 744 
Q 775 591 1075 516 
Q 1375 441 1709 441 
Q 2250 441 2565 725 
Q 2881 1009 2881 1497 
Q 2881 1984 2565 2268 
Q 2250 2553 1709 2553 
Q 1456 2553 1204 2497 
Q 953 2441 691 2322 
L 691 4666 
z
" transform="scale(0.015625)"/>
       </defs>
       <use xlink:href="#DejaVuSans-32"/>
       <use xlink:href="#DejaVuSans-30" transform="translate(63.623047 0)"/>
       <use xlink:href="#DejaVuSans-32" transform="translate(127.246094 0)"/>
       <use xlink:href="#DejaVuSans-35" transform="translate(190.869141 0)"/>
       <use xlink:href="#DejaVuSans-2d" transform="translate(254.492188 0)"/>
       <use xlink:href="#DejaVuSans-30" transform="translate(290.576172 0)"/>
       <use xlink:href="#DejaVuSans-31" transform="translate(354.199219 0)"/>
      </g>
     </g>
    </g>
   </g>
   <g id="matplotlib.axis_2">
    <g id="ytick_1">
     <g id="line2d_17">
      <path d="M 108 307.835215 
L 777.6 307.835215 
" clip-path="url(#p488523bdb9)" style="fill: none; stroke-dasharray: 5.12,1.28,0.8,1.28; stroke-dashoffset: 0; stroke: #b0b0b0; stroke-width: 0.8"/>
     </g>
     <g id="line2d_18">
      <defs>
       <path id="m05682fc7cc" d="M 0 0 
L -3.5 0 
" style="stroke: #a9a9a9; stroke-width: 0.8"/>
      </defs>
      <g>
       <use xlink:href="#m05682fc7cc" x="108" y="307.835215" style="fill: #a9a9a9; stroke: #a9a9a9; stroke-width: 0.8"/>
      </g>
     </g>
     <g id="text_9">
      <!-- 0 -->
      <g style="fill: #a9a9a9" transform="translate(94.6375 311.634434) scale(0.1 -0.1)">
       <use xlink:href="#DejaVuSans-30"/>
      </g>
     </g>
    </g>
    <g id="ytick_2">
     <g id="line2d_19">
      <path d="M 108 279.663052 
L 777.6 279.663052 
" clip-path="url(#p488523bdb9)" style="fill: none; stroke-dasharray: 5.12,1.28,0.8,1.28; stroke-dashoffset: 0; stroke: #b0b0b0; stroke-width: 0.8"/>
     </g>
     <g id="line2d_20">
      <g>
       <use xlink:href="#m05682fc7cc" x="108" y="279.663052" style="fill: #a9a9a9; stroke: #a9a9a9; stroke-width: 0.8"/>
      </g>
     </g>
     <g id="text_10">
      <!-- 800 -->
      <g style="fill: #a9a9a9" transform="translate(81.9125 283.462271) scale(0.1 -0.1)">
       <defs>
        <path id="DejaVuSans-38" d="M 2034 2216 
Q 1584 2216 1326 1975 
Q 1069 1734 1069 1313 
Q 1069 891 1326 650 
Q 1584 409 2034 409 
Q 2484 409 2743 651 
Q 3003 894 3003 1313 
Q 3003 1734 2745 1975 
Q 2488 2216 2034 2216 
z
M 1403 2484 
Q 997 2584 770 2862 
Q 544 3141 544 3541 
Q 544 4100 942 4425 
Q 1341 4750 2034 4750 
Q 2731 4750 3128 4425 
Q 3525 4100 3525 3541 
Q 3525 3141 3298 2862 
Q 3072 2584 2669 2484 
Q 3125 2378 3379 2068 
Q 3634 1759 3634 1313 
Q 3634 634 3220 271 
Q 2806 -91 2034 -91 
Q 1263 -91 848 271 
Q 434 634 434 1313 
Q 434 1759 690 2068 
Q 947 2378 1403 2484 
z
M 1172 3481 
Q 1172 3119 1398 2916 
Q 1625 2713 2034 2713 
Q 2441 2713 2670 2916 
Q 2900 3119 2900 3481 
Q 2900 3844 2670 4047 
Q 2441 4250 2034 4250 
Q 1625 4250 1398 4047 
Q 1172 3844 1172 3481 
z
" transform="scale(0.015625)"/>
       </defs>
       <use xlink:href="#DejaVuSans-38"/>
       <use xlink:href="#DejaVuSans-30" transform="translate(63.623047 0)"/>
       <use xlink:href="#DejaVuSans-30" transform="translate(127.246094 0)"/>
      </g>
     </g>
    </g>
    <g id="ytick_3">
     <g id="line2d_21">
      <path d="M 108 251.490889 
L 777.6 251.490889 
" clip-path="url(#p488523bdb9)" style="fill: none; stroke-dasharray: 5.12,1.28,0.8,1.28; stroke-dashoffset: 0; stroke: #b0b0b0; stroke-width: 0.8"/>
     </g>
     <g id="line2d_22">
      <g>
       <use xlink:href="#m05682fc7cc" x="108" y="251.490889" style="fill: #a9a9a9; stroke: #a9a9a9; stroke-width: 0.8"/>
      </g>
     </g>
     <g id="text_11">
      <!-- 1600 -->
      <g style="fill: #a9a9a9" transform="translate(75.55 255.290108) scale(0.1 -0.1)">
       <defs>
        <path id="DejaVuSans-36" d="M 2113 2584 
Q 1688 2584 1439 2293 
Q 1191 2003 1191 1497 
Q 1191 994 1439 701 
Q 1688 409 2113 409 
Q 2538 409 2786 701 
Q 3034 994 3034 1497 
Q 3034 2003 2786 2293 
Q 2538 2584 2113 2584 
z
M 3366 4563 
L 3366 3988 
Q 3128 4100 2886 4159 
Q 2644 4219 2406 4219 
Q 1781 4219 1451 3797 
Q 1122 3375 1075 2522 
Q 1259 2794 1537 2939 
Q 1816 3084 2150 3084 
Q 2853 3084 3261 2657 
Q 3669 2231 3669 1497 
Q 3669 778 3244 343 
Q 2819 -91 2113 -91 
Q 1303 -91 875 529 
Q 447 1150 447 2328 
Q 447 3434 972 4092 
Q 1497 4750 2381 4750 
Q 2619 4750 2861 4703 
Q 3103 4656 3366 4563 
z
" transform="scale(0.015625)"/>
       </defs>
       <use xlink:href="#DejaVuSans-31"/>
       <use xlink:href="#DejaVuSans-36" transform="translate(63.623047 0)"/>
       <use xlink:href="#DejaVuSans-30" transform="translate(127.246094 0)"/>
       <use xlink:href="#DejaVuSans-30" transform="translate(190.869141 0)"/>
      </g>
     </g>
    </g>
    <g id="ytick_4">
     <g id="line2d_23">
      <path d="M 108 223.318726 
L 777.6 223.318726 
" clip-path="url(#p488523bdb9)" style="fill: none; stroke-dasharray: 5.12,1.28,0.8,1.28; stroke-dashoffset: 0; stroke: #b0b0b0; stroke-width: 0.8"/>
     </g>
     <g id="line2d_24">
      <g>
       <use xlink:href="#m05682fc7cc" x="108" y="223.318726" style="fill: #a9a9a9; stroke: #a9a9a9; stroke-width: 0.8"/>
      </g>
     </g>
     <g id="text_12">
      <!-- 2400 -->
      <g style="fill: #a9a9a9" transform="translate(75.55 227.117944) scale(0.1 -0.1)">
       <use xlink:href="#DejaVuSans-32"/>
       <use xlink:href="#DejaVuSans-34" transform="translate(63.623047 0)"/>
       <use xlink:href="#DejaVuSans-30" transform="translate(127.246094 0)"/>
       <use xlink:href="#DejaVuSans-30" transform="translate(190.869141 0)"/>
      </g>
     </g>
    </g>
    <g id="ytick_5">
     <g id="line2d_25">
      <path d="M 108 195.146562 
L 777.6 195.146562 
" clip-path="url(#p488523bdb9)" style="fill: none; stroke-dasharray: 5.12,1.28,0.8,1.28; stroke-dashoffset: 0; stroke: #b0b0b0; stroke-width: 0.8"/>
     </g>
     <g id="line2d_26">
      <g>
       <use xlink:href="#m05682fc7cc" x="108" y="195.146562" style="fill: #a9a9a9; stroke: #a9a9a9; stroke-width: 0.8"/>
      </g>
     </g>
     <g id="text_13">
      <!-- 3200 -->
      <g style="fill: #a9a9a9" transform="translate(75.55 198.945781) scale(0.1 -0.1)">
       <use xlink:href="#DejaVuSans-33"/>
       <use xlink:href="#DejaVuSans-32" transform="translate(63.623047 0)"/>
       <use xlink:href="#DejaVuSans-30" transform="translate(127.246094 0)"/>
       <use xlink:href="#DejaVuSans-30" transform="translate(190.869141 0)"/>
      </g>
     </g>
    </g>
    <g id="ytick_6">
     <g id="line2d_27">
      <path d="M 108 166.974399 
L 777.6 166.974399 
" clip-path="url(#p488523bdb9)" style="fill: none; stroke-dasharray: 5.12,1.28,0.8,1.28; stroke-dashoffset: 0; stroke: #b0b0b0; stroke-width: 0.8"/>
     </g>
     <g id="line2d_28">
      <g>
       <use xlink:href="#m05682fc7cc" x="108" y="166.974399" style="fill: #a9a9a9; stroke: #a9a9a9; stroke-width: 0.8"/>
      </g>
     </g>
     <g id="text_14">
      <!-- 4000 -->
      <g style="fill: #a9a9a9" transform="translate(75.55 170.773618) scale(0.1 -0.1)">
       <use xlink:href="#DejaVuSans-34"/>
       <use xlink:href="#DejaVuSans-30" transform="translate(63.623047 0)"/>
       <use xlink:href="#DejaVuSans-30" transform="translate(127.246094 0)"/>
       <use xlink:href="#DejaVuSans-30" transform="translate(190.869141 0)"/>
      </g>
     </g>
    </g>
    <g id="ytick_7">
     <g id="line2d_29">
      <path d="M 108 138.802236 
L 777.6 138.802236 
" clip-path="url(#p488523bdb9)" style="fill: none; stroke-dasharray: 5.12,1.28,0.8,1.28; stroke-dashoffset: 0; stroke: #b0b0b0; stroke-width: 0.8"/>
     </g>
     <g id="line2d_30">
      <g>
       <use xlink:href="#m05682fc7cc" x="108" y="138.802236" style="fill: #a9a9a9; stroke: #a9a9a9; stroke-width: 0.8"/>
      </g>
     </g>
     <g id="text_15">
      <!-- 4800 -->
      <g style="fill: #a9a9a9" transform="translate(75.55 142.601455) scale(0.1 -0.1)">
       <use xlink:href="#DejaVuSans-34"/>
       <use xlink:href="#DejaVuSans-38" transform="translate(63.623047 0)"/>
       <use xlink:href="#DejaVuSans-30" transform="translate(127.246094 0)"/>
       <use xlink:href="#DejaVuSans-30" transform="translate(190.869141 0)"/>
      </g>
     </g>
    </g>
    <g id="ytick_8">
     <g id="line2d_31">
      <path d="M 108 110.630073 
L 777.6 110.630073 
" clip-path="url(#p488523bdb9)" style="fill: none; stroke-dasharray: 5.12,1.28,0.8,1.28; stroke-dashoffset: 0; stroke: #b0b0b0; stroke-width: 0.8"/>
     </g>
     <g id="line2d_32">
      <g>
       <use xlink:href="#m05682fc7cc" x="108" y="110.630073" style="fill: #a9a9a9; stroke: #a9a9a9; stroke-width: 0.8"/>
      </g>
     </g>
     <g id="text_16">
      <!-- 5600 -->
      <g style="fill: #a9a9a9" transform="translate(75.55 114.429291) scale(0.1 -0.1)">
       <use xlink:href="#DejaVuSans-35"/>
       <use xlink:href="#DejaVuSans-36" transform="translate(63.623047 0)"/>
       <use xlink:href="#DejaVuSans-30" transform="translate(127.246094 0)"/>
       <use xlink:href="#DejaVuSans-30" transform="translate(190.869141 0)"/>
      </g>
     </g>
    </g>
    <g id="ytick_9">
     <g id="line2d_33">
      <path d="M 108 82.457909 
L 777.6 82.457909 
" clip-path="url(#p488523bdb9)" style="fill: none; stroke-dasharray: 5.12,1.28,0.8,1.28; stroke-dashoffset: 0; stroke: #b0b0b0; stroke-width: 0.8"/>
     </g>
     <g id="line2d_34">
      <g>
       <use xlink:href="#m05682fc7cc" x="108" y="82.457909" style="fill: #a9a9a9; stroke: #a9a9a9; stroke-width: 0.8"/>
      </g>
     </g>
     <g id="text_17">
      <!-- 6400 -->
      <g style="fill: #a9a9a9" transform="translate(75.55 86.257128) scale(0.1 -0.1)">
       <use xlink:href="#DejaVuSans-36"/>
       <use xlink:href="#DejaVuSans-34" transform="translate(63.623047 0)"/>
       <use xlink:href="#DejaVuSans-30" transform="translate(127.246094 0)"/>
       <use xlink:href="#DejaVuSans-30" transform="translate(190.869141 0)"/>
      </g>
     </g>
    </g>
    <g id="ytick_10">
     <g id="line2d_35">
      <path d="M 108 54.285746 
L 777.6 54.285746 
" clip-path="url(#p488523bdb9)" style="fill: none; stroke-dasharray: 5.12,1.28,0.8,1.28; stroke-dashoffset: 0; stroke: #b0b0b0; stroke-width: 0.8"/>
     </g>
     <g id="line2d_36">
      <g>
       <use xlink:href="#m05682fc7cc" x="108" y="54.285746" style="fill: #a9a9a9; stroke: #a9a9a9; stroke-width: 0.8"/>
      </g>
     </g>
     <g id="text_18">
      <!-- 7200 -->
      <g style="fill: #a9a9a9" transform="translate(75.55 58.084965) scale(0.1 -0.1)">
       <use xlink:href="#DejaVuSans-37"/>
       <use xlink:href="#DejaVuSans-32" transform="translate(63.623047 0)"/>
       <use xlink:href="#DejaVuSans-30" transform="translate(127.246094 0)"/>
       <use xlink:href="#DejaVuSans-30" transform="translate(190.869141 0)"/>
      </g>
     </g>
    </g>
   </g>
   <g id="line2d_37">
    <path d="M 138.436364 307.72957 
L 141.339673 307.483063 
L 141.823558 307.271772 
L 143.759098 307.025266 
L 145.694638 306.637898 
L 146.662408 306.497037 
L 149.081833 306.285746 
L 150.049603 305.898379 
L 150.533487 305.264505 
L 151.017372 304.912353 
L 151.501257 303.820682 
L 151.985142 303.750252 
L 152.469027 303.362884 
L 153.436797 302.869871 
L 155.372337 301.320402 
L 157.307877 300.369592 
L 158.759532 299.700503 
L 159.243417 298.925769 
L 160.211187 298.221465 
L 160.695072 298.010173 
L 165.533921 297.305869 
L 166.017806 297.094578 
L 169.405001 296.812856 
L 171.340541 296.355059 
L 175.21162 295.826831 
L 175.695505 295.580324 
L 176.17939 295.509894 
L 177.14716 295.192957 
L 180.534355 294.629514 
L 181.502125 294.347792 
L 185.857089 293.608273 
L 186.824859 293.396982 
L 187.792629 293.361766 
L 189.728169 292.903969 
L 190.212054 292.23488 
L 191.663709 291.671437 
L 193.115363 291.284069 
L 193.599248 291.037563 
L 194.567018 290.861487 
L 196.502558 290.298044 
L 197.470328 290.227613 
L 198.438098 289.981107 
L 200.373638 289.488094 
L 200.857523 289.452879 
L 201.825293 288.995081 
L 202.309178 288.924651 
L 202.793063 288.678144 
L 208.115797 287.797764 
L 210.051337 287.234321 
L 210.535222 286.917384 
L 212.954647 286.107434 
L 213.922417 285.438345 
L 215.374071 285.156624 
L 227.95508 281.599888 
L 228.438965 281.599888 
L 228.92285 281.388597 
L 229.89062 281.282951 
L 230.374505 281.106875 
L 232.310045 281.036445 
L 233.277815 280.860369 
L 234.245585 280.367356 
L 235.697239 279.839128 
L 236.181124 279.522191 
L 237.148894 279.099609 
L 237.632779 278.853102 
L 238.600549 278.536165 
L 239.084434 278.395305 
L 240.052204 277.796646 
L 240.536089 277.268418 
L 241.503859 275.78938 
L 241.987744 275.648519 
L 242.471629 275.648519 
L 243.923284 274.803354 
L 244.407169 274.556847 
L 244.891054 274.451202 
L 245.374939 273.993404 
L 246.342708 273.606037 
L 247.310478 273.148239 
L 249.729903 270.084516 
L 252.633213 268.535048 
L 253.600983 267.760313 
L 254.084868 267.443376 
L 254.568753 266.739072 
L 255.052638 265.647401 
L 255.536523 264.907881 
L 256.020408 264.520514 
L 256.504293 264.309223 
L 260.375372 260.787703 
L 261.343142 259.907323 
L 264.246452 258.111347 
L 264.730337 257.935271 
L 266.181992 257.090106 
L 267.633646 256.139296 
L 269.569186 254.413751 
L 270.536956 254.026383 
L 271.504726 253.357295 
L 271.988611 253.075573 
L 272.472496 253.005143 
L 273.924151 252.195193 
L 274.408036 251.666965 
L 276.827461 250.364002 
L 277.311346 250.187926 
L 278.763 249.201901 
L 286.021275 246.631191 
L 286.989045 245.750811 
L 287.956815 245.293013 
L 288.924584 244.764785 
L 289.408469 244.483063 
L 290.376239 244.201342 
L 290.860124 243.884405 
L 291.344009 243.743544 
L 292.795664 242.792733 
L 295.215089 242.22929 
L 296.666744 241.384125 
L 298.118399 241.067188 
L 298.602284 240.926328 
L 300.053938 239.834656 
L 301.989478 239.306428 
L 302.473363 238.919061 
L 305.376673 237.933035 
L 306.344443 237.756959 
L 307.312213 237.369592 
L 310.699407 236.13706 
L 311.667177 235.996199 
L 313.118832 235.503186 
L 315.538257 234.341084 
L 317.473797 233.284628 
L 321.344876 231.699944 
L 321.828761 231.629514 
L 322.796531 231.030855 
L 323.280416 230.960425 
L 325.215956 230.18569 
L 327.151496 229.939184 
L 328.119266 229.446171 
L 328.603151 229.023589 
L 329.087036 228.143208 
L 331.022576 227.61498 
L 332.47423 226.875461 
L 332.958115 226.769816 
L 336.829195 224.90341 
L 338.28085 224.621688 
L 339.24862 224.128675 
L 339.732505 223.917384 
L 340.21639 223.846954 
L 342.151929 222.966574 
L 343.603584 222.050978 
L 345.055239 221.769257 
L 347.474664 221.170598 
L 347.958549 220.783231 
L 349.410204 220.255003 
L 351.345744 219.480268 
L 351.829629 219.128116 
L 352.313514 218.95204 
L 353.281283 218.423812 
L 355.700708 217.613862 
L 357.152363 216.451761 
L 357.636248 216.346115 
L 358.604018 215.571381 
L 359.087903 215.50095 
L 359.571788 214.726216 
L 360.055673 214.514925 
L 360.539558 214.127557 
L 361.023443 214.057127 
L 361.991213 213.458468 
L 362.958983 213.141532 
L 363.442867 212.78938 
L 363.926752 212.613304 
L 365.378407 211.592063 
L 367.313947 210.570822 
L 367.797832 210.500391 
L 369.249487 209.760872 
L 369.733372 208.950922 
L 370.701142 208.246618 
L 371.185027 208.140973 
L 372.152797 207.542314 
L 372.636682 207.436669 
L 373.604452 206.943656 
L 375.539991 205.992845 
L 376.023876 205.640693 
L 376.991646 204.689883 
L 377.959416 204.091224 
L 378.443301 203.774287 
L 378.927186 203.246059 
L 380.862726 201.907881 
L 381.346611 201.344438 
L 381.830496 200.957071 
L 382.798266 200.604919 
L 383.766036 199.93583 
L 385.21769 199.196311 
L 385.701575 199.12588 
L 387.15323 198.351146 
L 388.121 197.752487 
L 392.95985 195.991727 
L 393.443735 195.60436 
L 395.379274 194.864841 
L 395.863159 194.72398 
L 396.830929 194.090106 
L 397.798699 193.667524 
L 398.766469 192.998435 
L 399.734239 191.061599 
L 400.702009 189.934712 
L 402.153664 189.195193 
L 403.121434 188.807826 
L 403.605319 188.737395 
L 404.089204 188.455674 
L 406.508628 187.680939 
L 406.992513 187.469648 
L 407.960283 186.800559 
L 409.411938 186.166685 
L 410.379708 185.638457 
L 410.863593 185.286305 
L 411.347478 185.075014 
L 411.831363 184.722862 
L 412.315248 184.194634 
L 413.283018 183.666406 
L 415.702443 182.363443 
L 418.605752 180.91962 
L 420.057407 180.497037 
L 421.509062 179.933594 
L 421.992947 179.581442 
L 422.960717 179.299721 
L 423.928487 178.912353 
L 424.412372 178.524986 
L 426.347912 177.855897 
L 427.315681 177.151593 
L 428.283451 176.729011 
L 429.251221 175.954276 
L 430.218991 175.602124 
L 430.702876 175.179542 
L 431.186761 175.109111 
L 432.154531 174.369592 
L 433.122301 173.876579 
L 433.606186 173.665288 
L 434.090071 173.172275 
L 437.477266 171.834097 
L 438.445035 171.411515 
L 439.89669 170.953717 
L 440.86446 170.812856 
L 441.348345 170.601565 
L 441.83223 170.531135 
L 442.8 170.108552 
L 443.283885 170.073337 
L 445.219425 169.333818 
L 446.67108 168.312577 
L 447.154965 168.136501 
L 448.122734 167.608273 
L 448.606619 167.467412 
L 451.509929 165.847513 
L 451.993814 165.741867 
L 453.445469 164.896702 
L 454.897124 164.403689 
L 455.864894 164.086752 
L 457.800434 163.452879 
L 458.768203 163.135942 
L 460.703743 162.748575 
L 461.187628 162.537283 
L 461.671513 162.466853 
L 462.639283 162.044271 
L 463.123168 161.97384 
L 463.607053 161.727334 
L 464.574823 161.551258 
L 466.026478 161.02303 
L 466.994248 160.917384 
L 468.445903 160.600447 
L 470.865327 160.177865 
L 483.446336 156.515484 
L 483.930221 156.022471 
L 484.897991 155.635103 
L 488.769071 154.19128 
L 489.252956 153.909558 
L 490.70461 153.486976 
L 491.67238 153.24047 
L 492.156265 152.923533 
L 492.64015 152.817887 
L 493.124035 152.395305 
L 494.57569 152.113583 
L 495.54346 151.655785 
L 496.027345 151.092342 
L 497.962885 150.634544 
L 501.350079 149.93024 
L 501.833964 149.93024 
L 502.317849 149.718949 
L 504.253389 149.366797 
L 504.737274 149.155506 
L 506.672814 148.803354 
L 507.640584 148.380771 
L 508.608354 148.204695 
L 511.027779 147.606037 
L 512.963318 147.007378 
L 513.447203 146.901733 
L 513.931088 146.655226 
L 514.898858 146.40872 
L 515.382743 146.126998 
L 516.834398 145.633985 
L 517.318283 145.317049 
L 518.286053 145.035327 
L 522.157133 143.697149 
L 523.124902 143.626719 
L 525.060442 143.063276 
L 525.544327 142.781554 
L 526.512097 142.499832 
L 528.931522 141.408161 
L 529.415407 141.372946 
L 534.738141 139.50654 
L 537.157566 138.872666 
L 538.125336 138.414869 
L 539.576991 138.097932 
L 541.512531 136.513248 
L 542.480301 136.231526 
L 542.964186 135.844159 
L 545.867495 134.752487 
L 546.35138 134.435551 
L 547.31915 134.153829 
L 547.803035 133.836892 
L 550.22246 133.062158 
L 551.674115 132.216993 
L 552.158 132.111347 
L 554.577424 130.808385 
L 556.029079 130.174511 
L 556.512964 129.822359 
L 557.480734 129.505422 
L 558.448504 128.941979 
L 558.932389 128.765903 
L 559.416274 128.413751 
L 565.706778 126.195193 
L 566.190663 126.089547 
L 566.674548 125.77261 
L 568.610088 125.385243 
L 569.577858 124.997876 
L 572.481168 123.589268 
L 572.965053 123.518837 
L 574.416708 122.708888 
L 575.868362 122.215875 
L 579.255557 120.842482 
L 579.739442 120.701621 
L 580.223327 120.384684 
L 581.191097 120.279039 
L 581.674982 119.962102 
L 582.642752 119.786026 
L 583.610522 119.328228 
L 584.094407 119.116937 
L 584.578292 119.046506 
L 586.997716 118.095696 
L 588.449371 117.708329 
L 589.417141 117.461822 
L 590.868796 117.03924 
L 591.836566 116.651873 
L 593.772106 115.595416 
L 594.739876 115.208049 
L 595.223761 114.891112 
L 596.191531 114.679821 
L 596.675416 114.398099 
L 597.1593 114.292454 
L 598.610955 113.482504 
L 599.578725 113.095137 
L 601.514265 112.355618 
L 603.93369 111.545668 
L 604.90146 111.052655 
L 607.320885 110.242705 
L 610.224194 109.080604 
L 612.159734 108.200224 
L 616.998584 106.333818 
L 617.482469 106.016881 
L 619.418008 105.347792 
L 619.901893 105.347792 
L 620.869663 104.92521 
L 622.805203 103.375741 
L 623.289088 103.23488 
L 623.772973 102.917943 
L 624.256858 102.812297 
L 624.740743 102.565791 
L 625.224628 102.495361 
L 625.708513 102.143208 
L 626.192398 102.037563 
L 627.160168 101.438904 
L 628.611823 100.699385 
L 629.579592 100.312018 
L 630.063477 100.065511 
L 631.515132 99.748575 
L 633.934557 98.938625 
L 634.902327 98.621688 
L 636.353982 97.882169 
L 637.321752 97.424371 
L 638.289522 97.177865 
L 639.741176 96.508776 
L 644.096141 94.924092 
L 645.547796 94.043712 
L 646.031681 93.938066 
L 646.999451 93.480268 
L 647.967221 93.128116 
L 648.451106 92.705534 
L 649.418876 92.318167 
L 652.322185 91.156065 
L 653.77384 90.733482 
L 654.257725 90.486976 
L 654.74161 90.416546 
L 656.193265 89.888317 
L 657.64492 89.360089 
L 658.61269 88.972722 
L 659.096575 88.585355 
L 660.54823 88.197988 
L 661.032114 87.916266 
L 661.999884 87.66976 
L 663.451539 86.85981 
L 663.935424 86.824595 
L 665.387079 86.366797 
L 666.354849 86.296367 
L 667.322619 85.908999 
L 670.225929 85.063835 
L 671.193699 85.028619 
L 675.064778 83.796087 
L 676.032548 83.267859 
L 676.516433 82.845277 
L 677.968088 82.000112 
L 678.451973 81.64796 
L 679.419743 81.295808 
L 681.839168 80.521073 
L 682.323052 80.133706 
L 685.226362 78.936389 
L 687.161902 78.408161 
L 688.129672 77.985579 
L 688.613557 77.739072 
L 689.581327 77.45735 
L 690.065212 77.175629 
L 691.032982 76.999553 
L 693.452406 75.872666 
L 693.936291 75.590945 
L 695.387946 75.238793 
L 695.871831 74.921856 
L 696.355716 74.74578 
L 696.839601 74.323197 
L 697.323486 74.252767 
L 699.259026 73.478032 
L 701.194566 73.020235 
L 701.678451 72.949804 
L 702.162336 72.738513 
L 702.646221 72.703298 
L 703.61399 72.386361 
L 704.097875 72.351146 
L 705.54953 71.787703 
L 707.48507 71.224259 
L 708.45284 70.48474 
L 710.38838 69.428284 
L 711.840035 68.935271 
L 714.743344 67.632309 
L 715.711114 67.10408 
L 716.194999 66.857574 
L 716.678884 66.399776 
L 719.582194 65.448966 
L 720.549964 65.061599 
L 721.517734 64.779877 
L 722.001619 64.533371 
L 722.485504 64.110788 
L 724.421044 63.617775 
L 724.904928 63.265623 
L 731.195433 60.976635 
L 732.163203 60.800559 
L 736.518167 59.286305 
L 737.485937 59.039799 
L 737.969822 58.828508 
L 738.453707 58.793292 
L 739.421477 58.405925 
L 740.389247 57.807267 
L 740.873132 57.631191 
L 741.357017 57.595975 
L 742.808672 56.962102 
L 744.260327 56.433874 
L 744.744212 56.363443 
L 745.711982 55.976076 
L 747.163636 55.8 
L 747.163636 55.8 
" clip-path="url(#p488523bdb9)" style="fill: none; stroke: #1f77b4; stroke-width: 1.5; stroke-linecap: square"/>
   </g>
   <g id="line2d_38">
    <path d="M 138.920249 307.8 
L 143.275213 307.694354 
L 147.146293 307.518278 
L 149.081833 307.518278 
L 149.565718 307.377418 
L 151.985142 307.271772 
L 154.888452 306.954835 
L 157.791762 306.849189 
L 158.759532 306.743544 
L 162.146726 306.602683 
L 165.533921 306.497037 
L 167.953346 306.426607 
L 174.24385 306.320961 
L 176.663275 306.250531 
L 180.05047 306.144885 
L 182.469894 306.074455 
L 187.792629 305.968809 
L 189.728169 305.792733 
L 191.663709 305.757518 
L 194.567018 305.651873 
L 196.502558 305.616657 
L 198.921983 305.546227 
L 200.857523 305.370151 
L 205.212487 305.264505 
L 206.180257 305.194075 
L 208.115797 305.088429 
L 211.019107 304.982784 
L 212.954647 304.877138 
L 221.664576 304.34891 
L 225.05177 304.243264 
L 226.503425 304.102404 
L 228.92285 303.996758 
L 233.7617 303.750252 
L 238.600549 303.679821 
L 240.536089 303.46853 
L 242.471629 303.362884 
L 247.794363 302.869871 
L 251.181558 302.482504 
L 252.633213 302.412074 
L 256.504293 301.919061 
L 259.407602 301.848631 
L 260.859257 301.70777 
L 262.310912 301.602124 
L 275.859691 300.580883 
L 276.827461 300.404807 
L 279.73077 300.299162 
L 287.47293 299.841364 
L 290.860124 299.735718 
L 292.795664 299.524427 
L 295.215089 299.418781 
L 298.118399 299.313136 
L 300.537823 299.20749 
L 302.473363 299.172275 
L 304.892788 299.101845 
L 305.860558 298.960984 
L 312.634947 298.855338 
L 313.602717 298.749693 
L 319.409337 298.644047 
L 323.764301 298.432756 
L 327.151496 298.32711 
L 329.087036 298.115819 
L 332.47423 298.010173 
L 333.442 297.834097 
L 335.861425 297.763667 
L 340.700275 297.693236 
L 342.635814 297.51716 
L 344.571354 297.481945 
L 346.023009 297.3763 
L 347.958549 297.200224 
L 352.797398 296.953717 
L 357.636248 296.848072 
L 361.991213 296.63678 
L 363.442867 296.601565 
L 364.410637 296.460704 
L 366.830062 296.355059 
L 367.797832 296.284628 
L 368.765602 296.214198 
L 369.733372 296.143767 
L 374.088336 296.073337 
L 375.539991 295.967691 
L 388.604885 295.122527 
L 391.02431 295.016881 
L 393.443735 294.946451 
L 400.218124 294.840805 
L 401.185894 294.699944 
L 407.960283 294.594298 
L 412.799133 294.347792 
L 413.766903 294.312577 
L 414.734673 294.206931 
L 417.154097 294.101286 
L 419.573522 294.030855 
L 421.992947 293.92521 
L 424.412372 293.854779 
L 428.767336 293.749134 
L 431.670646 293.643488 
L 438.445035 293.537842 
L 443.76777 293.256121 
L 445.70331 293.18569 
L 447.154965 293.080045 
L 453.929354 292.974399 
L 456.832664 292.868753 
L 465.542593 292.763108 
L 467.478133 292.727893 
L 473.284752 292.657462 
L 474.252522 292.587032 
L 481.026911 292.481386 
L 482.962451 292.446171 
L 495.54346 292.340525 
L 496.995115 292.199665 
L 518.769938 292.094019 
L 521.189363 292.023589 
L 533.770371 291.953158 
L 534.738141 291.882728 
L 537.157566 291.812297 
L 538.609221 291.671437 
L 541.512531 291.565791 
L 544.899725 291.42493 
L 549.25469 291.319285 
L 551.674115 291.248854 
L 555.061309 291.143208 
L 558.932389 290.967132 
L 561.351814 290.861487 
L 563.287354 290.826272 
L 567.642318 290.720626 
L 569.577858 290.685411 
L 575.868362 290.579765 
L 577.803902 290.54455 
L 580.223327 290.438904 
L 583.126637 290.333259 
L 586.513831 290.262828 
L 587.481601 290.192398 
L 599.09484 290.086752 
L 605.385345 289.7346 
L 607.804769 289.66417 
L 608.772539 289.558524 
L 609.740309 289.488094 
L 613.611389 289.382448 
L 616.514699 289.276803 
L 621.353548 289.171157 
L 623.772973 288.924651 
L 628.611823 288.819005 
L 629.579592 288.713359 
L 634.418442 288.607714 
L 636.837867 288.537283 
L 642.160601 288.502068 
L 643.128371 288.396423 
L 648.451106 288.290777 
L 649.418876 288.220347 
L 660.064345 288.114701 
L 662.967654 288.009055 
L 670.225929 287.90341 
L 672.161468 287.868195 
L 676.516433 287.797764 
L 677.484203 287.692119 
L 683.774707 287.586473 
L 686.194132 287.516042 
L 694.904061 287.410397 
L 696.355716 287.304751 
L 697.807371 287.199106 
L 699.259026 287.09346 
L 706.5173 286.987814 
L 709.42061 286.882169 
L 722.485504 286.776523 
L 726.840468 286.565232 
L 732.647088 286.459586 
L 733.614858 286.353941 
L 740.873132 286.28351 
L 741.840902 286.21308 
L 747.163636 286.107434 
L 747.163636 286.107434 
" clip-path="url(#p488523bdb9)" style="fill: none; stroke: #ff7f0e; stroke-width: 1.5; stroke-linecap: square"/>
   </g>
   <g id="patch_3">
    <path d="M 108 320.4 
L 108 43.2 
" style="fill: none; stroke: #a9a9a9; stroke-width: 0.8; stroke-linejoin: miter; stroke-linecap: square"/>
   </g>
   <g id="patch_4">
    <path d="M 777.6 320.4 
L 777.6 43.2 
" style="fill: none"/>
   </g>
   <g id="patch_5">
    <path d="M 108 320.4 
L 777.6 320.4 
" style="fill: none; stroke: #a9a9a9; stroke-width: 0.8; stroke-linejoin: miter; stroke-linecap: square"/>
   </g>
   <g id="patch_6">
    <path d="M 108 43.2 
L 777.6 43.2 
" style="fill: none"/>
   </g>
   <g id="text_19">
    <!-- get_subscribe history -->
    <g style="fill: #a9a9a9" transform="translate(378.6075 37.2) scale(0.12 -0.12)">
     <defs>
      <path id="DejaVuSans-67" d="M 2906 1791 
Q 2906 2416 2648 2759 
Q 2391 3103 1925 3103 
Q 1463 3103 1205 2759 
Q 947 2416 947 1791 
Q 947 1169 1205 825 
Q 1463 481 1925 481 
Q 2391 481 2648 825 
Q 2906 1169 2906 1791 
z
M 3481 434 
Q 3481 -459 3084 -895 
Q 2688 -1331 1869 -1331 
Q 1566 -1331 1297 -1286 
Q 1028 -1241 775 -1147 
L 775 -588 
Q 1028 -725 1275 -790 
Q 1522 -856 1778 -856 
Q 2344 -856 2625 -561 
Q 2906 -266 2906 331 
L 2906 616 
Q 2728 306 2450 153 
Q 2172 0 1784 0 
Q 1141 0 747 490 
Q 353 981 353 1791 
Q 353 2603 747 3093 
Q 1141 3584 1784 3584 
Q 2172 3584 2450 3431 
Q 2728 3278 2906 2969 
L 2906 3500 
L 3481 3500 
L 3481 434 
z
" transform="scale(0.015625)"/>
      <path id="DejaVuSans-65" d="M 3597 1894 
L 3597 1613 
L 953 1613 
Q 991 1019 1311 708 
Q 1631 397 2203 397 
Q 2534 397 2845 478 
Q 3156 559 3463 722 
L 3463 178 
Q 3153 47 2828 -22 
Q 2503 -91 2169 -91 
Q 1331 -91 842 396 
Q 353 884 353 1716 
Q 353 2575 817 3079 
Q 1281 3584 2069 3584 
Q 2775 3584 3186 3129 
Q 3597 2675 3597 1894 
z
M 3022 2063 
Q 3016 2534 2758 2815 
Q 2500 3097 2075 3097 
Q 1594 3097 1305 2825 
Q 1016 2553 972 2059 
L 3022 2063 
z
" transform="scale(0.015625)"/>
      <path id="DejaVuSans-74" d="M 1172 4494 
L 1172 3500 
L 2356 3500 
L 2356 3053 
L 1172 3053 
L 1172 1153 
Q 1172 725 1289 603 
Q 1406 481 1766 481 
L 2356 481 
L 2356 0 
L 1766 0 
Q 1100 0 847 248 
Q 594 497 594 1153 
L 594 3053 
L 172 3053 
L 172 3500 
L 594 3500 
L 594 4494 
L 1172 4494 
z
" transform="scale(0.015625)"/>
      <path id="DejaVuSans-5f" d="M 3263 -1063 
L 3263 -1509 
L -63 -1509 
L -63 -1063 
L 3263 -1063 
z
" transform="scale(0.015625)"/>
      <path id="DejaVuSans-73" d="M 2834 3397 
L 2834 2853 
Q 2591 2978 2328 3040 
Q 2066 3103 1784 3103 
Q 1356 3103 1142 2972 
Q 928 2841 928 2578 
Q 928 2378 1081 2264 
Q 1234 2150 1697 2047 
L 1894 2003 
Q 2506 1872 2764 1633 
Q 3022 1394 3022 966 
Q 3022 478 2636 193 
Q 2250 -91 1575 -91 
Q 1294 -91 989 -36 
Q 684 19 347 128 
L 347 722 
Q 666 556 975 473 
Q 1284 391 1588 391 
Q 1994 391 2212 530 
Q 2431 669 2431 922 
Q 2431 1156 2273 1281 
Q 2116 1406 1581 1522 
L 1381 1569 
Q 847 1681 609 1914 
Q 372 2147 372 2553 
Q 372 3047 722 3315 
Q 1072 3584 1716 3584 
Q 2034 3584 2315 3537 
Q 2597 3491 2834 3397 
z
" transform="scale(0.015625)"/>
      <path id="DejaVuSans-75" d="M 544 1381 
L 544 3500 
L 1119 3500 
L 1119 1403 
Q 1119 906 1312 657 
Q 1506 409 1894 409 
Q 2359 409 2629 706 
Q 2900 1003 2900 1516 
L 2900 3500 
L 3475 3500 
L 3475 0 
L 2900 0 
L 2900 538 
Q 2691 219 2414 64 
Q 2138 -91 1772 -91 
Q 1169 -91 856 284 
Q 544 659 544 1381 
z
M 1991 3584 
L 1991 3584 
z
" transform="scale(0.015625)"/>
      <path id="DejaVuSans-62" d="M 3116 1747 
Q 3116 2381 2855 2742 
Q 2594 3103 2138 3103 
Q 1681 3103 1420 2742 
Q 1159 2381 1159 1747 
Q 1159 1113 1420 752 
Q 1681 391 2138 391 
Q 2594 391 2855 752 
Q 3116 1113 3116 1747 
z
M 1159 2969 
Q 1341 3281 1617 3432 
Q 1894 3584 2278 3584 
Q 2916 3584 3314 3078 
Q 3713 2572 3713 1747 
Q 3713 922 3314 415 
Q 2916 -91 2278 -91 
Q 1894 -91 1617 61 
Q 1341 213 1159 525 
L 1159 0 
L 581 0 
L 581 4863 
L 1159 4863 
L 1159 2969 
z
" transform="scale(0.015625)"/>
      <path id="DejaVuSans-63" d="M 3122 3366 
L 3122 2828 
Q 2878 2963 2633 3030 
Q 2388 3097 2138 3097 
Q 1578 3097 1268 2742 
Q 959 2388 959 1747 
Q 959 1106 1268 751 
Q 1578 397 2138 397 
Q 2388 397 2633 464 
Q 2878 531 3122 666 
L 3122 134 
Q 2881 22 2623 -34 
Q 2366 -91 2075 -91 
Q 1284 -91 818 406 
Q 353 903 353 1747 
Q 353 2603 823 3093 
Q 1294 3584 2113 3584 
Q 2378 3584 2631 3529 
Q 2884 3475 3122 3366 
z
" transform="scale(0.015625)"/>
      <path id="DejaVuSans-72" d="M 2631 2963 
Q 2534 3019 2420 3045 
Q 2306 3072 2169 3072 
Q 1681 3072 1420 2755 
Q 1159 2438 1159 1844 
L 1159 0 
L 581 0 
L 581 3500 
L 1159 3500 
L 1159 2956 
Q 1341 3275 1631 3429 
Q 1922 3584 2338 3584 
Q 2397 3584 2469 3576 
Q 2541 3569 2628 3553 
L 2631 2963 
z
" transform="scale(0.015625)"/>
      <path id="DejaVuSans-69" d="M 603 3500 
L 1178 3500 
L 1178 0 
L 603 0 
L 603 3500 
z
M 603 4863 
L 1178 4863 
L 1178 4134 
L 603 4134 
L 603 4863 
z
" transform="scale(0.015625)"/>
      <path id="DejaVuSans-20" transform="scale(0.015625)"/>
      <path id="DejaVuSans-68" d="M 3513 2113 
L 3513 0 
L 2938 0 
L 2938 2094 
Q 2938 2591 2744 2837 
Q 2550 3084 2163 3084 
Q 1697 3084 1428 2787 
Q 1159 2491 1159 1978 
L 1159 0 
L 581 0 
L 581 4863 
L 1159 4863 
L 1159 2956 
Q 1366 3272 1645 3428 
Q 1925 3584 2291 3584 
Q 2894 3584 3203 3211 
Q 3513 2838 3513 2113 
z
" transform="scale(0.015625)"/>
      <path id="DejaVuSans-6f" d="M 1959 3097 
Q 1497 3097 1228 2736 
Q 959 2375 959 1747 
Q 959 1119 1226 758 
Q 1494 397 1959 397 
Q 2419 397 2687 759 
Q 2956 1122 2956 1747 
Q 2956 2369 2687 2733 
Q 2419 3097 1959 3097 
z
M 1959 3584 
Q 2709 3584 3137 3096 
Q 3566 2609 3566 1747 
Q 3566 888 3137 398 
Q 2709 -91 1959 -91 
Q 1206 -91 779 398 
Q 353 888 353 1747 
Q 353 2609 779 3096 
Q 1206 3584 1959 3584 
z
" transform="scale(0.015625)"/>
      <path id="DejaVuSans-79" d="M 2059 -325 
Q 1816 -950 1584 -1140 
Q 1353 -1331 966 -1331 
L 506 -1331 
L 506 -850 
L 844 -850 
Q 1081 -850 1212 -737 
Q 1344 -625 1503 -206 
L 1606 56 
L 191 3500 
L 800 3500 
L 1894 763 
L 2988 3500 
L 3597 3500 
L 2059 -325 
z
" transform="scale(0.015625)"/>
     </defs>
     <use xlink:href="#DejaVuSans-67"/>
     <use xlink:href="#DejaVuSans-65" transform="translate(63.476562 0)"/>
     <use xlink:href="#DejaVuSans-74" transform="translate(125 0)"/>
     <use xlink:href="#DejaVuSans-5f" transform="translate(164.208984 0)"/>
     <use xlink:href="#DejaVuSans-73" transform="translate(214.208984 0)"/>
     <use xlink:href="#DejaVuSans-75" transform="translate(266.308594 0)"/>
     <use xlink:href="#DejaVuSans-62" transform="translate(329.6875 0)"/>
     <use xlink:href="#DejaVuSans-73" transform="translate(393.164062 0)"/>
     <use xlink:href="#DejaVuSans-63" transform="translate(445.263672 0)"/>
     <use xlink:href="#DejaVuSans-72" transform="translate(500.244141 0)"/>
     <use xlink:href="#DejaVuSans-69" transform="translate(541.357422 0)"/>
     <use xlink:href="#DejaVuSans-62" transform="translate(569.140625 0)"/>
     <use xlink:href="#DejaVuSans-65" transform="translate(632.617188 0)"/>
     <use xlink:href="#DejaVuSans-20" transform="translate(694.140625 0)"/>
     <use xlink:href="#DejaVuSans-68" transform="translate(725.927734 0)"/>
     <use xlink:href="#DejaVuSans-69" transform="translate(789.306641 0)"/>
     <use xlink:href="#DejaVuSans-73" transform="translate(817.089844 0)"/>
     <use xlink:href="#DejaVuSans-74" transform="translate(869.189453 0)"/>
     <use xlink:href="#DejaVuSans-6f" transform="translate(908.398438 0)"/>
     <use xlink:href="#DejaVuSans-72" transform="translate(969.580078 0)"/>
     <use xlink:href="#DejaVuSans-79" transform="translate(1010.693359 0)"/>
    </g>
   </g>
   <g id="legend_1">
    <g id="line2d_39">
     <path d="M 815.08 328.498438 
L 825.08 328.498438 
L 835.08 328.498438 
" style="fill: none; stroke: #1f77b4; stroke-width: 1.5; stroke-linecap: square"/>
    </g>
    <g id="text_20">
     <!-- star -->
     <g style="fill: #a9a9a9" transform="translate(843.08 331.998438) scale(0.1 -0.1)">
      <defs>
       <path id="DejaVuSans-61" d="M 2194 1759 
Q 1497 1759 1228 1600 
Q 959 1441 959 1056 
Q 959 750 1161 570 
Q 1363 391 1709 391 
Q 2188 391 2477 730 
Q 2766 1069 2766 1631 
L 2766 1759 
L 2194 1759 
z
M 3341 1997 
L 3341 0 
L 2766 0 
L 2766 531 
Q 2569 213 2275 61 
Q 1981 -91 1556 -91 
Q 1019 -91 701 211 
Q 384 513 384 1019 
Q 384 1609 779 1909 
Q 1175 2209 1959 2209 
L 2766 2209 
L 2766 2266 
Q 2766 2663 2505 2880 
Q 2244 3097 1772 3097 
Q 1472 3097 1187 3025 
Q 903 2953 641 2809 
L 641 3341 
Q 956 3463 1253 3523 
Q 1550 3584 1831 3584 
Q 2591 3584 2966 3190 
Q 3341 2797 3341 1997 
z
" transform="scale(0.015625)"/>
      </defs>
      <use xlink:href="#DejaVuSans-73"/>
      <use xlink:href="#DejaVuSans-74" transform="translate(52.099609 0)"/>
      <use xlink:href="#DejaVuSans-61" transform="translate(91.308594 0)"/>
      <use xlink:href="#DejaVuSans-72" transform="translate(152.587891 0)"/>
     </g>
    </g>
    <g id="line2d_40">
     <path d="M 815.08 343.176562 
L 825.08 343.176562 
L 835.08 343.176562 
" style="fill: none; stroke: #ff7f0e; stroke-width: 1.5; stroke-linecap: square"/>
    </g>
    <g id="text_21">
     <!-- fork -->
     <g style="fill: #a9a9a9" transform="translate(843.08 346.676562) scale(0.1 -0.1)">
      <defs>
       <path id="DejaVuSans-66" d="M 2375 4863 
L 2375 4384 
L 1825 4384 
Q 1516 4384 1395 4259 
Q 1275 4134 1275 3809 
L 1275 3500 
L 2222 3500 
L 2222 3053 
L 1275 3053 
L 1275 0 
L 697 0 
L 697 3053 
L 147 3053 
L 147 3500 
L 697 3500 
L 697 3744 
Q 697 4328 969 4595 
Q 1241 4863 1831 4863 
L 2375 4863 
z
" transform="scale(0.015625)"/>
       <path id="DejaVuSans-6b" d="M 581 4863 
L 1159 4863 
L 1159 1991 
L 2875 3500 
L 3609 3500 
L 1753 1863 
L 3688 0 
L 2938 0 
L 1159 1709 
L 1159 0 
L 581 0 
L 581 4863 
z
" transform="scale(0.015625)"/>
      </defs>
      <use xlink:href="#DejaVuSans-66"/>
      <use xlink:href="#DejaVuSans-6f" transform="translate(35.205078 0)"/>
      <use xlink:href="#DejaVuSans-72" transform="translate(96.386719 0)"/>
      <use xlink:href="#DejaVuSans-6b" transform="translate(137.5 0)"/>
     </g>
    </g>
   </g>
  </g>
 </g>
 <defs>
  <clipPath id="p488523bdb9">
   <rect x="108" y="43.2" width="669.6" height="277.2"/>
  </clipPath>
 </defs>
</svg>
