<?xml version="1.0" encoding="utf-8" standalone="no"?>
<!DOCTYPE svg PUBLIC "-//W3C//DTD SVG 1.1//EN"
  "http://www.w3.org/Graphics/SVG/1.1/DTD/svg11.dtd">
<svg xmlns:xlink="http://www.w3.org/1999/xlink" width="864pt" height="360pt" viewBox="0 0 864 360" xmlns="http://www.w3.org/2000/svg" version="1.1">
 <metadata>
  <rdf:RDF xmlns:dc="http://purl.org/dc/elements/1.1/" xmlns:cc="http://creativecommons.org/ns#" xmlns:rdf="http://www.w3.org/1999/02/22-rdf-syntax-ns#">
   <cc:Work>
    <dc:type rdf:resource="http://purl.org/dc/dcmitype/StillImage"/>
    <dc:date>2024-12-20T09:11:15.085345</dc:date>
    <dc:format>image/svg+xml</dc:format>
    <dc:creator>
     <cc:Agent>
      <dc:title>Matplotlib v3.10.0, https://matplotlib.org/</dc:title>
     </cc:Agent>
    </dc:creator>
   </cc:Work>
  </rdf:RDF>
 </metadata>
 <defs>
  <style type="text/css">*{stroke-linejoin: round; stroke-linecap: butt}</style>
 </defs>
 <g id="figure_1">
  <g id="patch_1">
   <path d="M 0 360 
L 864 360 
L 864 0 
L 0 0 
L 0 360 
z
" style="fill: none; opacity: 0"/>
  </g>
  <g id="axes_1">
   <g id="patch_2">
    <path d="M 108 320.4 
L 777.6 320.4 
L 777.6 43.2 
L 108 43.2 
L 108 320.4 
z
" style="fill: none; opacity: 0"/>
   </g>
   <g id="matplotlib.axis_1">
    <g id="xtick_1">
     <g id="line2d_1">
      <path d="M 157.504929 320.4 
L 157.504929 43.2 
" clip-path="url(#p61f07b47d5)" style="fill: none; stroke-dasharray: 5.12,1.28,0.8,1.28; stroke-dashoffset: 0; stroke: #b0b0b0; stroke-width: 0.8"/>
     </g>
     <g id="line2d_2">
      <defs>
       <path id="m442509217c" d="M 0 0 
L 0 3.5 
" style="stroke: #a9a9a9; stroke-width: 0.8"/>
      </defs>
      <g>
       <use xlink:href="#m442509217c" x="157.504929" y="320.4" style="fill: #a9a9a9; stroke: #a9a9a9; stroke-width: 0.8"/>
      </g>
     </g>
     <g id="text_1">
      <!-- 2021-09 -->
      <g style="fill: #a9a9a9" transform="translate(136.613523 334.998438) scale(0.1 -0.1)">
       <defs>
        <path id="DejaVuSans-32" d="M 1228 531 
L 3431 531 
L 3431 0 
L 469 0 
L 469 531 
Q 828 903 1448 1529 
Q 2069 2156 2228 2338 
Q 2531 2678 2651 2914 
Q 2772 3150 2772 3378 
Q 2772 3750 2511 3984 
Q 2250 4219 1831 4219 
Q 1534 4219 1204 4116 
Q 875 4013 500 3803 
L 500 4441 
Q 881 4594 1212 4672 
Q 1544 4750 1819 4750 
Q 2544 4750 2975 4387 
Q 3406 4025 3406 3419 
Q 3406 3131 3298 2873 
Q 3191 2616 2906 2266 
Q 2828 2175 2409 1742 
Q 1991 1309 1228 531 
z
" transform="scale(0.015625)"/>
        <path id="DejaVuSans-30" d="M 2034 4250 
Q 1547 4250 1301 3770 
Q 1056 3291 1056 2328 
Q 1056 1369 1301 889 
Q 1547 409 2034 409 
Q 2525 409 2770 889 
Q 3016 1369 3016 2328 
Q 3016 3291 2770 3770 
Q 2525 4250 2034 4250 
z
M 2034 4750 
Q 2819 4750 3233 4129 
Q 3647 3509 3647 2328 
Q 3647 1150 3233 529 
Q 2819 -91 2034 -91 
Q 1250 -91 836 529 
Q 422 1150 422 2328 
Q 422 3509 836 4129 
Q 1250 4750 2034 4750 
z
" transform="scale(0.015625)"/>
        <path id="DejaVuSans-31" d="M 794 531 
L 1825 531 
L 1825 4091 
L 703 3866 
L 703 4441 
L 1819 4666 
L 2450 4666 
L 2450 531 
L 3481 531 
L 3481 0 
L 794 0 
L 794 531 
z
" transform="scale(0.015625)"/>
        <path id="DejaVuSans-2d" d="M 313 2009 
L 1997 2009 
L 1997 1497 
L 313 1497 
L 313 2009 
z
" transform="scale(0.015625)"/>
        <path id="DejaVuSans-39" d="M 703 97 
L 703 672 
Q 941 559 1184 500 
Q 1428 441 1663 441 
Q 2288 441 2617 861 
Q 2947 1281 2994 2138 
Q 2813 1869 2534 1725 
Q 2256 1581 1919 1581 
Q 1219 1581 811 2004 
Q 403 2428 403 3163 
Q 403 3881 828 4315 
Q 1253 4750 1959 4750 
Q 2769 4750 3195 4129 
Q 3622 3509 3622 2328 
Q 3622 1225 3098 567 
Q 2575 -91 1691 -91 
Q 1453 -91 1209 -44 
Q 966 3 703 97 
z
M 1959 2075 
Q 2384 2075 2632 2365 
Q 2881 2656 2881 3163 
Q 2881 3666 2632 3958 
Q 2384 4250 1959 4250 
Q 1534 4250 1286 3958 
Q 1038 3666 1038 3163 
Q 1038 2656 1286 2365 
Q 1534 2075 1959 2075 
z
" transform="scale(0.015625)"/>
       </defs>
       <use xlink:href="#DejaVuSans-32"/>
       <use xlink:href="#DejaVuSans-30" transform="translate(63.623047 0)"/>
       <use xlink:href="#DejaVuSans-32" transform="translate(127.246094 0)"/>
       <use xlink:href="#DejaVuSans-31" transform="translate(190.869141 0)"/>
       <use xlink:href="#DejaVuSans-2d" transform="translate(254.492188 0)"/>
       <use xlink:href="#DejaVuSans-30" transform="translate(290.576172 0)"/>
       <use xlink:href="#DejaVuSans-39" transform="translate(354.199219 0)"/>
      </g>
     </g>
    </g>
    <g id="xtick_2">
     <g id="line2d_3">
      <path d="M 217.155312 320.4 
L 217.155312 43.2 
" clip-path="url(#p61f07b47d5)" style="fill: none; stroke-dasharray: 5.12,1.28,0.8,1.28; stroke-dashoffset: 0; stroke: #b0b0b0; stroke-width: 0.8"/>
     </g>
     <g id="line2d_4">
      <g>
       <use xlink:href="#m442509217c" x="217.155312" y="320.4" style="fill: #a9a9a9; stroke: #a9a9a9; stroke-width: 0.8"/>
      </g>
     </g>
     <g id="text_2">
      <!-- 2022-01 -->
      <g style="fill: #a9a9a9" transform="translate(196.263906 334.998438) scale(0.1 -0.1)">
       <use xlink:href="#DejaVuSans-32"/>
       <use xlink:href="#DejaVuSans-30" transform="translate(63.623047 0)"/>
       <use xlink:href="#DejaVuSans-32" transform="translate(127.246094 0)"/>
       <use xlink:href="#DejaVuSans-32" transform="translate(190.869141 0)"/>
       <use xlink:href="#DejaVuSans-2d" transform="translate(254.492188 0)"/>
       <use xlink:href="#DejaVuSans-30" transform="translate(290.576172 0)"/>
       <use xlink:href="#DejaVuSans-31" transform="translate(354.199219 0)"/>
      </g>
     </g>
    </g>
    <g id="xtick_3">
     <g id="line2d_5">
      <path d="M 275.82782 320.4 
L 275.82782 43.2 
" clip-path="url(#p61f07b47d5)" style="fill: none; stroke-dasharray: 5.12,1.28,0.8,1.28; stroke-dashoffset: 0; stroke: #b0b0b0; stroke-width: 0.8"/>
     </g>
     <g id="line2d_6">
      <g>
       <use xlink:href="#m442509217c" x="275.82782" y="320.4" style="fill: #a9a9a9; stroke: #a9a9a9; stroke-width: 0.8"/>
      </g>
     </g>
     <g id="text_3">
      <!-- 2022-05 -->
      <g style="fill: #a9a9a9" transform="translate(254.936414 334.998438) scale(0.1 -0.1)">
       <defs>
        <path id="DejaVuSans-35" d="M 691 4666 
L 3169 4666 
L 3169 4134 
L 1269 4134 
L 1269 2991 
Q 1406 3038 1543 3061 
Q 1681 3084 1819 3084 
Q 2600 3084 3056 2656 
Q 3513 2228 3513 1497 
Q 3513 744 3044 326 
Q 2575 -91 1722 -91 
Q 1428 -91 1123 -41 
Q 819 9 494 109 
L 494 744 
Q 775 591 1075 516 
Q 1375 441 1709 441 
Q 2250 441 2565 725 
Q 2881 1009 2881 1497 
Q 2881 1984 2565 2268 
Q 2250 2553 1709 2553 
Q 1456 2553 1204 2497 
Q 953 2441 691 2322 
L 691 4666 
z
" transform="scale(0.015625)"/>
       </defs>
       <use xlink:href="#DejaVuSans-32"/>
       <use xlink:href="#DejaVuSans-30" transform="translate(63.623047 0)"/>
       <use xlink:href="#DejaVuSans-32" transform="translate(127.246094 0)"/>
       <use xlink:href="#DejaVuSans-32" transform="translate(190.869141 0)"/>
       <use xlink:href="#DejaVuSans-2d" transform="translate(254.492188 0)"/>
       <use xlink:href="#DejaVuSans-30" transform="translate(290.576172 0)"/>
       <use xlink:href="#DejaVuSans-35" transform="translate(354.199219 0)"/>
      </g>
     </g>
    </g>
    <g id="xtick_4">
     <g id="line2d_7">
      <path d="M 335.967141 320.4 
L 335.967141 43.2 
" clip-path="url(#p61f07b47d5)" style="fill: none; stroke-dasharray: 5.12,1.28,0.8,1.28; stroke-dashoffset: 0; stroke: #b0b0b0; stroke-width: 0.8"/>
     </g>
     <g id="line2d_8">
      <g>
       <use xlink:href="#m442509217c" x="335.967141" y="320.4" style="fill: #a9a9a9; stroke: #a9a9a9; stroke-width: 0.8"/>
      </g>
     </g>
     <g id="text_4">
      <!-- 2022-09 -->
      <g style="fill: #a9a9a9" transform="translate(315.075735 334.998438) scale(0.1 -0.1)">
       <use xlink:href="#DejaVuSans-32"/>
       <use xlink:href="#DejaVuSans-30" transform="translate(63.623047 0)"/>
       <use xlink:href="#DejaVuSans-32" transform="translate(127.246094 0)"/>
       <use xlink:href="#DejaVuSans-32" transform="translate(190.869141 0)"/>
       <use xlink:href="#DejaVuSans-2d" transform="translate(254.492188 0)"/>
       <use xlink:href="#DejaVuSans-30" transform="translate(290.576172 0)"/>
       <use xlink:href="#DejaVuSans-39" transform="translate(354.199219 0)"/>
      </g>
     </g>
    </g>
    <g id="xtick_5">
     <g id="line2d_9">
      <path d="M 395.617525 320.4 
L 395.617525 43.2 
" clip-path="url(#p61f07b47d5)" style="fill: none; stroke-dasharray: 5.12,1.28,0.8,1.28; stroke-dashoffset: 0; stroke: #b0b0b0; stroke-width: 0.8"/>
     </g>
     <g id="line2d_10">
      <g>
       <use xlink:href="#m442509217c" x="395.617525" y="320.4" style="fill: #a9a9a9; stroke: #a9a9a9; stroke-width: 0.8"/>
      </g>
     </g>
     <g id="text_5">
      <!-- 2023-01 -->
      <g style="fill: #a9a9a9" transform="translate(374.726118 334.998438) scale(0.1 -0.1)">
       <defs>
        <path id="DejaVuSans-33" d="M 2597 2516 
Q 3050 2419 3304 2112 
Q 3559 1806 3559 1356 
Q 3559 666 3084 287 
Q 2609 -91 1734 -91 
Q 1441 -91 1130 -33 
Q 819 25 488 141 
L 488 750 
Q 750 597 1062 519 
Q 1375 441 1716 441 
Q 2309 441 2620 675 
Q 2931 909 2931 1356 
Q 2931 1769 2642 2001 
Q 2353 2234 1838 2234 
L 1294 2234 
L 1294 2753 
L 1863 2753 
Q 2328 2753 2575 2939 
Q 2822 3125 2822 3475 
Q 2822 3834 2567 4026 
Q 2313 4219 1838 4219 
Q 1578 4219 1281 4162 
Q 984 4106 628 3988 
L 628 4550 
Q 988 4650 1302 4700 
Q 1616 4750 1894 4750 
Q 2613 4750 3031 4423 
Q 3450 4097 3450 3541 
Q 3450 3153 3228 2886 
Q 3006 2619 2597 2516 
z
" transform="scale(0.015625)"/>
       </defs>
       <use xlink:href="#DejaVuSans-32"/>
       <use xlink:href="#DejaVuSans-30" transform="translate(63.623047 0)"/>
       <use xlink:href="#DejaVuSans-32" transform="translate(127.246094 0)"/>
       <use xlink:href="#DejaVuSans-33" transform="translate(190.869141 0)"/>
       <use xlink:href="#DejaVuSans-2d" transform="translate(254.492188 0)"/>
       <use xlink:href="#DejaVuSans-30" transform="translate(290.576172 0)"/>
       <use xlink:href="#DejaVuSans-31" transform="translate(354.199219 0)"/>
      </g>
     </g>
    </g>
    <g id="xtick_6">
     <g id="line2d_11">
      <path d="M 454.290033 320.4 
L 454.290033 43.2 
" clip-path="url(#p61f07b47d5)" style="fill: none; stroke-dasharray: 5.12,1.28,0.8,1.28; stroke-dashoffset: 0; stroke: #b0b0b0; stroke-width: 0.8"/>
     </g>
     <g id="line2d_12">
      <g>
       <use xlink:href="#m442509217c" x="454.290033" y="320.4" style="fill: #a9a9a9; stroke: #a9a9a9; stroke-width: 0.8"/>
      </g>
     </g>
     <g id="text_6">
      <!-- 2023-05 -->
      <g style="fill: #a9a9a9" transform="translate(433.398627 334.998438) scale(0.1 -0.1)">
       <use xlink:href="#DejaVuSans-32"/>
       <use xlink:href="#DejaVuSans-30" transform="translate(63.623047 0)"/>
       <use xlink:href="#DejaVuSans-32" transform="translate(127.246094 0)"/>
       <use xlink:href="#DejaVuSans-33" transform="translate(190.869141 0)"/>
       <use xlink:href="#DejaVuSans-2d" transform="translate(254.492188 0)"/>
       <use xlink:href="#DejaVuSans-30" transform="translate(290.576172 0)"/>
       <use xlink:href="#DejaVuSans-35" transform="translate(354.199219 0)"/>
      </g>
     </g>
    </g>
    <g id="xtick_7">
     <g id="line2d_13">
      <path d="M 514.429354 320.4 
L 514.429354 43.2 
" clip-path="url(#p61f07b47d5)" style="fill: none; stroke-dasharray: 5.12,1.28,0.8,1.28; stroke-dashoffset: 0; stroke: #b0b0b0; stroke-width: 0.8"/>
     </g>
     <g id="line2d_14">
      <g>
       <use xlink:href="#m442509217c" x="514.429354" y="320.4" style="fill: #a9a9a9; stroke: #a9a9a9; stroke-width: 0.8"/>
      </g>
     </g>
     <g id="text_7">
      <!-- 2023-09 -->
      <g style="fill: #a9a9a9" transform="translate(493.537948 334.998438) scale(0.1 -0.1)">
       <use xlink:href="#DejaVuSans-32"/>
       <use xlink:href="#DejaVuSans-30" transform="translate(63.623047 0)"/>
       <use xlink:href="#DejaVuSans-32" transform="translate(127.246094 0)"/>
       <use xlink:href="#DejaVuSans-33" transform="translate(190.869141 0)"/>
       <use xlink:href="#DejaVuSans-2d" transform="translate(254.492188 0)"/>
       <use xlink:href="#DejaVuSans-30" transform="translate(290.576172 0)"/>
       <use xlink:href="#DejaVuSans-39" transform="translate(354.199219 0)"/>
      </g>
     </g>
    </g>
    <g id="xtick_8">
     <g id="line2d_15">
      <path d="M 574.079737 320.4 
L 574.079737 43.2 
" clip-path="url(#p61f07b47d5)" style="fill: none; stroke-dasharray: 5.12,1.28,0.8,1.28; stroke-dashoffset: 0; stroke: #b0b0b0; stroke-width: 0.8"/>
     </g>
     <g id="line2d_16">
      <g>
       <use xlink:href="#m442509217c" x="574.079737" y="320.4" style="fill: #a9a9a9; stroke: #a9a9a9; stroke-width: 0.8"/>
      </g>
     </g>
     <g id="text_8">
      <!-- 2024-01 -->
      <g style="fill: #a9a9a9" transform="translate(553.188331 334.998438) scale(0.1 -0.1)">
       <defs>
        <path id="DejaVuSans-34" d="M 2419 4116 
L 825 1625 
L 2419 1625 
L 2419 4116 
z
M 2253 4666 
L 3047 4666 
L 3047 1625 
L 3713 1625 
L 3713 1100 
L 3047 1100 
L 3047 0 
L 2419 0 
L 2419 1100 
L 313 1100 
L 313 1709 
L 2253 4666 
z
" transform="scale(0.015625)"/>
       </defs>
       <use xlink:href="#DejaVuSans-32"/>
       <use xlink:href="#DejaVuSans-30" transform="translate(63.623047 0)"/>
       <use xlink:href="#DejaVuSans-32" transform="translate(127.246094 0)"/>
       <use xlink:href="#DejaVuSans-34" transform="translate(190.869141 0)"/>
       <use xlink:href="#DejaVuSans-2d" transform="translate(254.492188 0)"/>
       <use xlink:href="#DejaVuSans-30" transform="translate(290.576172 0)"/>
       <use xlink:href="#DejaVuSans-31" transform="translate(354.199219 0)"/>
      </g>
     </g>
    </g>
    <g id="xtick_9">
     <g id="line2d_17">
      <path d="M 633.241183 320.4 
L 633.241183 43.2 
" clip-path="url(#p61f07b47d5)" style="fill: none; stroke-dasharray: 5.12,1.28,0.8,1.28; stroke-dashoffset: 0; stroke: #b0b0b0; stroke-width: 0.8"/>
     </g>
     <g id="line2d_18">
      <g>
       <use xlink:href="#m442509217c" x="633.241183" y="320.4" style="fill: #a9a9a9; stroke: #a9a9a9; stroke-width: 0.8"/>
      </g>
     </g>
     <g id="text_9">
      <!-- 2024-05 -->
      <g style="fill: #a9a9a9" transform="translate(612.349777 334.998438) scale(0.1 -0.1)">
       <use xlink:href="#DejaVuSans-32"/>
       <use xlink:href="#DejaVuSans-30" transform="translate(63.623047 0)"/>
       <use xlink:href="#DejaVuSans-32" transform="translate(127.246094 0)"/>
       <use xlink:href="#DejaVuSans-34" transform="translate(190.869141 0)"/>
       <use xlink:href="#DejaVuSans-2d" transform="translate(254.492188 0)"/>
       <use xlink:href="#DejaVuSans-30" transform="translate(290.576172 0)"/>
       <use xlink:href="#DejaVuSans-35" transform="translate(354.199219 0)"/>
      </g>
     </g>
    </g>
    <g id="xtick_10">
     <g id="line2d_19">
      <path d="M 693.380504 320.4 
L 693.380504 43.2 
" clip-path="url(#p61f07b47d5)" style="fill: none; stroke-dasharray: 5.12,1.28,0.8,1.28; stroke-dashoffset: 0; stroke: #b0b0b0; stroke-width: 0.8"/>
     </g>
     <g id="line2d_20">
      <g>
       <use xlink:href="#m442509217c" x="693.380504" y="320.4" style="fill: #a9a9a9; stroke: #a9a9a9; stroke-width: 0.8"/>
      </g>
     </g>
     <g id="text_10">
      <!-- 2024-09 -->
      <g style="fill: #a9a9a9" transform="translate(672.489098 334.998438) scale(0.1 -0.1)">
       <use xlink:href="#DejaVuSans-32"/>
       <use xlink:href="#DejaVuSans-30" transform="translate(63.623047 0)"/>
       <use xlink:href="#DejaVuSans-32" transform="translate(127.246094 0)"/>
       <use xlink:href="#DejaVuSans-34" transform="translate(190.869141 0)"/>
       <use xlink:href="#DejaVuSans-2d" transform="translate(254.492188 0)"/>
       <use xlink:href="#DejaVuSans-30" transform="translate(290.576172 0)"/>
       <use xlink:href="#DejaVuSans-39" transform="translate(354.199219 0)"/>
      </g>
     </g>
    </g>
    <g id="xtick_11">
     <g id="line2d_21">
      <path d="M 753.030887 320.4 
L 753.030887 43.2 
" clip-path="url(#p61f07b47d5)" style="fill: none; stroke-dasharray: 5.12,1.28,0.8,1.28; stroke-dashoffset: 0; stroke: #b0b0b0; stroke-width: 0.8"/>
     </g>
     <g id="line2d_22">
      <g>
       <use xlink:href="#m442509217c" x="753.030887" y="320.4" style="fill: #a9a9a9; stroke: #a9a9a9; stroke-width: 0.8"/>
      </g>
     </g>
     <g id="text_11">
      <!-- 2025-01 -->
      <g style="fill: #a9a9a9" transform="translate(732.139481 334.998438) scale(0.1 -0.1)">
       <use xlink:href="#DejaVuSans-32"/>
       <use xlink:href="#DejaVuSans-30" transform="translate(63.623047 0)"/>
       <use xlink:href="#DejaVuSans-32" transform="translate(127.246094 0)"/>
       <use xlink:href="#DejaVuSans-35" transform="translate(190.869141 0)"/>
       <use xlink:href="#DejaVuSans-2d" transform="translate(254.492188 0)"/>
       <use xlink:href="#DejaVuSans-30" transform="translate(290.576172 0)"/>
       <use xlink:href="#DejaVuSans-31" transform="translate(354.199219 0)"/>
      </g>
     </g>
    </g>
   </g>
   <g id="matplotlib.axis_2">
    <g id="ytick_1">
     <g id="line2d_23">
      <path d="M 108 307.835448 
L 777.6 307.835448 
" clip-path="url(#p61f07b47d5)" style="fill: none; stroke-dasharray: 5.12,1.28,0.8,1.28; stroke-dashoffset: 0; stroke: #b0b0b0; stroke-width: 0.8"/>
     </g>
     <g id="line2d_24">
      <defs>
       <path id="madbcf813fa" d="M 0 0 
L -3.5 0 
" style="stroke: #a9a9a9; stroke-width: 0.8"/>
      </defs>
      <g>
       <use xlink:href="#madbcf813fa" x="108" y="307.835448" style="fill: #a9a9a9; stroke: #a9a9a9; stroke-width: 0.8"/>
      </g>
     </g>
     <g id="text_12">
      <!-- 0 -->
      <g style="fill: #a9a9a9" transform="translate(94.6375 311.634667) scale(0.1 -0.1)">
       <use xlink:href="#DejaVuSans-30"/>
      </g>
     </g>
    </g>
    <g id="ytick_2">
     <g id="line2d_25">
      <path d="M 108 279.477029 
L 777.6 279.477029 
" clip-path="url(#p61f07b47d5)" style="fill: none; stroke-dasharray: 5.12,1.28,0.8,1.28; stroke-dashoffset: 0; stroke: #b0b0b0; stroke-width: 0.8"/>
     </g>
     <g id="line2d_26">
      <g>
       <use xlink:href="#madbcf813fa" x="108" y="279.477029" style="fill: #a9a9a9; stroke: #a9a9a9; stroke-width: 0.8"/>
      </g>
     </g>
     <g id="text_13">
      <!-- 800 -->
      <g style="fill: #a9a9a9" transform="translate(81.9125 283.276248) scale(0.1 -0.1)">
       <defs>
        <path id="DejaVuSans-38" d="M 2034 2216 
Q 1584 2216 1326 1975 
Q 1069 1734 1069 1313 
Q 1069 891 1326 650 
Q 1584 409 2034 409 
Q 2484 409 2743 651 
Q 3003 894 3003 1313 
Q 3003 1734 2745 1975 
Q 2488 2216 2034 2216 
z
M 1403 2484 
Q 997 2584 770 2862 
Q 544 3141 544 3541 
Q 544 4100 942 4425 
Q 1341 4750 2034 4750 
Q 2731 4750 3128 4425 
Q 3525 4100 3525 3541 
Q 3525 3141 3298 2862 
Q 3072 2584 2669 2484 
Q 3125 2378 3379 2068 
Q 3634 1759 3634 1313 
Q 3634 634 3220 271 
Q 2806 -91 2034 -91 
Q 1263 -91 848 271 
Q 434 634 434 1313 
Q 434 1759 690 2068 
Q 947 2378 1403 2484 
z
M 1172 3481 
Q 1172 3119 1398 2916 
Q 1625 2713 2034 2713 
Q 2441 2713 2670 2916 
Q 2900 3119 2900 3481 
Q 2900 3844 2670 4047 
Q 2441 4250 2034 4250 
Q 1625 4250 1398 4047 
Q 1172 3844 1172 3481 
z
" transform="scale(0.015625)"/>
       </defs>
       <use xlink:href="#DejaVuSans-38"/>
       <use xlink:href="#DejaVuSans-30" transform="translate(63.623047 0)"/>
       <use xlink:href="#DejaVuSans-30" transform="translate(127.246094 0)"/>
      </g>
     </g>
    </g>
    <g id="ytick_3">
     <g id="line2d_27">
      <path d="M 108 251.11861 
L 777.6 251.11861 
" clip-path="url(#p61f07b47d5)" style="fill: none; stroke-dasharray: 5.12,1.28,0.8,1.28; stroke-dashoffset: 0; stroke: #b0b0b0; stroke-width: 0.8"/>
     </g>
     <g id="line2d_28">
      <g>
       <use xlink:href="#madbcf813fa" x="108" y="251.11861" style="fill: #a9a9a9; stroke: #a9a9a9; stroke-width: 0.8"/>
      </g>
     </g>
     <g id="text_14">
      <!-- 1600 -->
      <g style="fill: #a9a9a9" transform="translate(75.55 254.917829) scale(0.1 -0.1)">
       <defs>
        <path id="DejaVuSans-36" d="M 2113 2584 
Q 1688 2584 1439 2293 
Q 1191 2003 1191 1497 
Q 1191 994 1439 701 
Q 1688 409 2113 409 
Q 2538 409 2786 701 
Q 3034 994 3034 1497 
Q 3034 2003 2786 2293 
Q 2538 2584 2113 2584 
z
M 3366 4563 
L 3366 3988 
Q 3128 4100 2886 4159 
Q 2644 4219 2406 4219 
Q 1781 4219 1451 3797 
Q 1122 3375 1075 2522 
Q 1259 2794 1537 2939 
Q 1816 3084 2150 3084 
Q 2853 3084 3261 2657 
Q 3669 2231 3669 1497 
Q 3669 778 3244 343 
Q 2819 -91 2113 -91 
Q 1303 -91 875 529 
Q 447 1150 447 2328 
Q 447 3434 972 4092 
Q 1497 4750 2381 4750 
Q 2619 4750 2861 4703 
Q 3103 4656 3366 4563 
z
" transform="scale(0.015625)"/>
       </defs>
       <use xlink:href="#DejaVuSans-31"/>
       <use xlink:href="#DejaVuSans-36" transform="translate(63.623047 0)"/>
       <use xlink:href="#DejaVuSans-30" transform="translate(127.246094 0)"/>
       <use xlink:href="#DejaVuSans-30" transform="translate(190.869141 0)"/>
      </g>
     </g>
    </g>
    <g id="ytick_4">
     <g id="line2d_29">
      <path d="M 108 222.760191 
L 777.6 222.760191 
" clip-path="url(#p61f07b47d5)" style="fill: none; stroke-dasharray: 5.12,1.28,0.8,1.28; stroke-dashoffset: 0; stroke: #b0b0b0; stroke-width: 0.8"/>
     </g>
     <g id="line2d_30">
      <g>
       <use xlink:href="#madbcf813fa" x="108" y="222.760191" style="fill: #a9a9a9; stroke: #a9a9a9; stroke-width: 0.8"/>
      </g>
     </g>
     <g id="text_15">
      <!-- 2400 -->
      <g style="fill: #a9a9a9" transform="translate(75.55 226.55941) scale(0.1 -0.1)">
       <use xlink:href="#DejaVuSans-32"/>
       <use xlink:href="#DejaVuSans-34" transform="translate(63.623047 0)"/>
       <use xlink:href="#DejaVuSans-30" transform="translate(127.246094 0)"/>
       <use xlink:href="#DejaVuSans-30" transform="translate(190.869141 0)"/>
      </g>
     </g>
    </g>
    <g id="ytick_5">
     <g id="line2d_31">
      <path d="M 108 194.401772 
L 777.6 194.401772 
" clip-path="url(#p61f07b47d5)" style="fill: none; stroke-dasharray: 5.12,1.28,0.8,1.28; stroke-dashoffset: 0; stroke: #b0b0b0; stroke-width: 0.8"/>
     </g>
     <g id="line2d_32">
      <g>
       <use xlink:href="#madbcf813fa" x="108" y="194.401772" style="fill: #a9a9a9; stroke: #a9a9a9; stroke-width: 0.8"/>
      </g>
     </g>
     <g id="text_16">
      <!-- 3200 -->
      <g style="fill: #a9a9a9" transform="translate(75.55 198.200991) scale(0.1 -0.1)">
       <use xlink:href="#DejaVuSans-33"/>
       <use xlink:href="#DejaVuSans-32" transform="translate(63.623047 0)"/>
       <use xlink:href="#DejaVuSans-30" transform="translate(127.246094 0)"/>
       <use xlink:href="#DejaVuSans-30" transform="translate(190.869141 0)"/>
      </g>
     </g>
    </g>
    <g id="ytick_6">
     <g id="line2d_33">
      <path d="M 108 166.043353 
L 777.6 166.043353 
" clip-path="url(#p61f07b47d5)" style="fill: none; stroke-dasharray: 5.12,1.28,0.8,1.28; stroke-dashoffset: 0; stroke: #b0b0b0; stroke-width: 0.8"/>
     </g>
     <g id="line2d_34">
      <g>
       <use xlink:href="#madbcf813fa" x="108" y="166.043353" style="fill: #a9a9a9; stroke: #a9a9a9; stroke-width: 0.8"/>
      </g>
     </g>
     <g id="text_17">
      <!-- 4000 -->
      <g style="fill: #a9a9a9" transform="translate(75.55 169.842572) scale(0.1 -0.1)">
       <use xlink:href="#DejaVuSans-34"/>
       <use xlink:href="#DejaVuSans-30" transform="translate(63.623047 0)"/>
       <use xlink:href="#DejaVuSans-30" transform="translate(127.246094 0)"/>
       <use xlink:href="#DejaVuSans-30" transform="translate(190.869141 0)"/>
      </g>
     </g>
    </g>
    <g id="ytick_7">
     <g id="line2d_35">
      <path d="M 108 137.684935 
L 777.6 137.684935 
" clip-path="url(#p61f07b47d5)" style="fill: none; stroke-dasharray: 5.12,1.28,0.8,1.28; stroke-dashoffset: 0; stroke: #b0b0b0; stroke-width: 0.8"/>
     </g>
     <g id="line2d_36">
      <g>
       <use xlink:href="#madbcf813fa" x="108" y="137.684935" style="fill: #a9a9a9; stroke: #a9a9a9; stroke-width: 0.8"/>
      </g>
     </g>
     <g id="text_18">
      <!-- 4800 -->
      <g style="fill: #a9a9a9" transform="translate(75.55 141.484153) scale(0.1 -0.1)">
       <use xlink:href="#DejaVuSans-34"/>
       <use xlink:href="#DejaVuSans-38" transform="translate(63.623047 0)"/>
       <use xlink:href="#DejaVuSans-30" transform="translate(127.246094 0)"/>
       <use xlink:href="#DejaVuSans-30" transform="translate(190.869141 0)"/>
      </g>
     </g>
    </g>
    <g id="ytick_8">
     <g id="line2d_37">
      <path d="M 108 109.326516 
L 777.6 109.326516 
" clip-path="url(#p61f07b47d5)" style="fill: none; stroke-dasharray: 5.12,1.28,0.8,1.28; stroke-dashoffset: 0; stroke: #b0b0b0; stroke-width: 0.8"/>
     </g>
     <g id="line2d_38">
      <g>
       <use xlink:href="#madbcf813fa" x="108" y="109.326516" style="fill: #a9a9a9; stroke: #a9a9a9; stroke-width: 0.8"/>
      </g>
     </g>
     <g id="text_19">
      <!-- 5600 -->
      <g style="fill: #a9a9a9" transform="translate(75.55 113.125734) scale(0.1 -0.1)">
       <use xlink:href="#DejaVuSans-35"/>
       <use xlink:href="#DejaVuSans-36" transform="translate(63.623047 0)"/>
       <use xlink:href="#DejaVuSans-30" transform="translate(127.246094 0)"/>
       <use xlink:href="#DejaVuSans-30" transform="translate(190.869141 0)"/>
      </g>
     </g>
    </g>
    <g id="ytick_9">
     <g id="line2d_39">
      <path d="M 108 80.968097 
L 777.6 80.968097 
" clip-path="url(#p61f07b47d5)" style="fill: none; stroke-dasharray: 5.12,1.28,0.8,1.28; stroke-dashoffset: 0; stroke: #b0b0b0; stroke-width: 0.8"/>
     </g>
     <g id="line2d_40">
      <g>
       <use xlink:href="#madbcf813fa" x="108" y="80.968097" style="fill: #a9a9a9; stroke: #a9a9a9; stroke-width: 0.8"/>
      </g>
     </g>
     <g id="text_20">
      <!-- 6400 -->
      <g style="fill: #a9a9a9" transform="translate(75.55 84.767316) scale(0.1 -0.1)">
       <use xlink:href="#DejaVuSans-36"/>
       <use xlink:href="#DejaVuSans-34" transform="translate(63.623047 0)"/>
       <use xlink:href="#DejaVuSans-30" transform="translate(127.246094 0)"/>
       <use xlink:href="#DejaVuSans-30" transform="translate(190.869141 0)"/>
      </g>
     </g>
    </g>
    <g id="ytick_10">
     <g id="line2d_41">
      <path d="M 108 52.609678 
L 777.6 52.609678 
" clip-path="url(#p61f07b47d5)" style="fill: none; stroke-dasharray: 5.12,1.28,0.8,1.28; stroke-dashoffset: 0; stroke: #b0b0b0; stroke-width: 0.8"/>
     </g>
     <g id="line2d_42">
      <g>
       <use xlink:href="#madbcf813fa" x="108" y="52.609678" style="fill: #a9a9a9; stroke: #a9a9a9; stroke-width: 0.8"/>
      </g>
     </g>
     <g id="text_21">
      <!-- 7200 -->
      <g style="fill: #a9a9a9" transform="translate(75.55 56.408897) scale(0.1 -0.1)">
       <defs>
        <path id="DejaVuSans-37" d="M 525 4666 
L 3525 4666 
L 3525 4397 
L 1831 0 
L 1172 0 
L 2766 4134 
L 525 4134 
L 525 4666 
z
" transform="scale(0.015625)"/>
       </defs>
       <use xlink:href="#DejaVuSans-37"/>
       <use xlink:href="#DejaVuSans-32" transform="translate(63.623047 0)"/>
       <use xlink:href="#DejaVuSans-30" transform="translate(127.246094 0)"/>
       <use xlink:href="#DejaVuSans-30" transform="translate(190.869141 0)"/>
      </g>
     </g>
    </g>
   </g>
   <g id="line2d_43">
    <path d="M 138.436364 307.729104 
L 141.369989 307.480968 
L 141.858927 307.26828 
L 143.814677 307.020143 
L 145.770427 306.630215 
L 146.748302 306.488423 
L 149.19299 306.275735 
L 150.170865 305.885807 
L 150.659803 305.247742 
L 151.14874 304.893262 
L 151.637678 303.794373 
L 152.126616 303.723477 
L 152.615553 303.333549 
L 153.593428 302.837277 
L 155.549179 301.277564 
L 157.504929 300.320467 
L 158.971742 299.646955 
L 159.460679 298.867098 
L 160.438554 298.158138 
L 160.927492 297.945449 
L 165.816867 297.236489 
L 166.305805 297.023801 
L 169.728368 296.740217 
L 171.684118 296.279392 
L 175.595619 295.747672 
L 176.084556 295.499536 
L 176.573494 295.42864 
L 177.551369 295.109608 
L 180.973932 294.542439 
L 181.951807 294.258855 
L 186.352245 293.514446 
L 187.33012 293.301758 
L 188.307996 293.26631 
L 190.263746 292.805486 
L 190.752683 292.131974 
L 192.219496 291.564805 
L 193.686309 291.174877 
L 194.175246 290.926741 
L 195.153122 290.749501 
L 197.108872 290.182332 
L 198.086747 290.111436 
L 199.064622 289.8633 
L 201.020372 289.367028 
L 201.50931 289.33158 
L 202.487185 288.870755 
L 202.976123 288.799859 
L 203.46506 288.551723 
L 208.843373 287.665523 
L 210.799124 287.098354 
L 211.288061 286.779322 
L 213.732749 285.964017 
L 214.710624 285.290505 
L 216.177437 285.006921 
L 228.889814 281.42667 
L 229.378751 281.42667 
L 229.867689 281.213982 
L 230.845564 281.107638 
L 231.334502 280.930398 
L 233.290252 280.824054 
L 234.268127 280.646814 
L 235.246002 280.150542 
L 236.712815 279.618821 
L 237.201752 279.299789 
L 238.179628 278.874413 
L 238.668565 278.626277 
L 239.64644 278.307244 
L 240.135378 278.165452 
L 241.113253 277.562836 
L 241.602191 277.031115 
L 242.580066 275.542298 
L 243.069003 275.400506 
L 243.557941 275.400506 
L 245.024754 274.549754 
L 245.513691 274.301618 
L 246.002629 274.195274 
L 246.491566 273.734449 
L 247.469441 273.344521 
L 248.447317 272.883697 
L 248.936254 272.28108 
L 249.425192 271.501224 
L 249.914129 271.182192 
L 250.403067 270.331439 
L 250.892004 269.799719 
L 253.82563 268.240006 
L 254.803505 267.460149 
L 255.292442 267.141117 
L 255.78138 266.396708 
L 256.270318 265.29782 
L 256.759255 264.553411 
L 257.248193 264.163483 
L 257.73713 263.950795 
L 261.159693 261.044057 
L 262.137568 259.874272 
L 263.604381 258.846279 
L 265.560131 257.676495 
L 266.538007 257.144774 
L 268.493757 256.116782 
L 270.938445 253.919004 
L 271.91632 253.529076 
L 272.894195 252.855563 
L 273.383133 252.571979 
L 273.87207 252.501083 
L 275.338883 251.685779 
L 275.82782 251.154058 
L 278.272508 249.842481 
L 278.761446 249.665241 
L 280.228258 248.672697 
L 287.562322 246.084991 
L 288.540197 245.19879 
L 289.518072 244.737966 
L 290.495947 244.206246 
L 290.984885 243.922661 
L 291.96276 243.639077 
L 292.451698 243.320045 
L 292.940635 243.178253 
L 294.407448 242.221156 
L 296.852136 241.653988 
L 298.318949 240.803235 
L 299.785761 240.484203 
L 300.274699 240.342411 
L 301.741512 239.243522 
L 303.697262 238.711802 
L 304.186199 238.321874 
L 307.119825 237.329329 
L 308.0977 237.152089 
L 309.075575 236.762161 
L 312.498138 235.52148 
L 313.476013 235.379688 
L 314.942826 234.883415 
L 317.387514 233.713631 
L 319.343264 232.65019 
L 323.254765 231.055029 
L 323.743702 230.984133 
L 324.721577 230.381516 
L 325.210515 230.31062 
L 327.166265 229.495316 
L 329.122015 229.24718 
L 330.09989 228.750907 
L 330.588828 228.325531 
L 331.077766 227.43933 
L 333.033516 226.90761 
L 334.500329 226.163202 
L 334.989266 226.056858 
L 338.900767 224.178112 
L 340.367579 223.894528 
L 341.345455 223.398256 
L 341.834392 223.185568 
L 342.32333 223.114672 
L 344.27908 222.228471 
L 345.745893 221.306822 
L 347.212705 221.023238 
L 349.657393 220.420622 
L 350.146331 220.030693 
L 351.613143 219.498973 
L 353.568894 218.719117 
L 354.057831 218.364636 
L 354.546769 218.187396 
L 355.524644 217.655676 
L 357.969332 216.840371 
L 359.436145 215.670587 
L 359.925082 215.564243 
L 360.902957 214.784386 
L 361.391895 214.71349 
L 361.880832 213.933633 
L 362.36977 213.720945 
L 362.858708 213.331017 
L 363.347645 213.260121 
L 364.32552 212.657505 
L 365.303395 212.338472 
L 365.792333 211.983992 
L 366.281271 211.806752 
L 367.748083 210.778759 
L 369.703834 209.750767 
L 370.192771 209.679871 
L 371.659584 208.935462 
L 372.148521 208.120158 
L 373.126396 207.411197 
L 373.615334 207.304853 
L 374.593209 206.702237 
L 375.082147 206.595893 
L 376.060022 206.09962 
L 378.015772 205.142524 
L 378.50471 204.788043 
L 379.482585 203.830947 
L 380.46046 203.22833 
L 380.949398 202.909298 
L 381.438335 202.377578 
L 383.394085 201.030553 
L 383.883023 200.463384 
L 384.371961 200.073456 
L 385.349836 199.718976 
L 386.327711 199.045463 
L 387.794524 198.301055 
L 388.283461 198.230159 
L 389.750274 197.450302 
L 390.728149 196.847686 
L 395.617525 195.075285 
L 396.106462 194.685357 
L 398.062212 193.940948 
L 398.55115 193.799156 
L 399.529025 193.161092 
L 400.5069 192.735715 
L 401.484775 192.062203 
L 402.462651 190.112562 
L 403.440526 188.978225 
L 404.907338 188.233816 
L 405.885214 187.843888 
L 406.374151 187.772992 
L 406.863089 187.489408 
L 409.307777 186.709551 
L 409.796714 186.496863 
L 410.774589 185.823351 
L 412.241402 185.185286 
L 413.219277 184.653566 
L 413.708215 184.299086 
L 414.197152 184.086398 
L 414.68609 183.731917 
L 415.175027 183.200197 
L 416.152903 182.668477 
L 418.59759 181.3569 
L 421.531216 179.903531 
L 422.998028 179.478154 
L 424.464841 178.910986 
L 424.953779 178.556506 
L 425.931654 178.272922 
L 426.909529 177.882993 
L 427.398467 177.493065 
L 429.354217 176.819553 
L 430.332092 176.110592 
L 431.309967 175.685216 
L 432.287842 174.905359 
L 433.265717 174.550879 
L 433.754655 174.125503 
L 434.243593 174.054607 
L 435.221468 173.310198 
L 436.199343 172.813926 
L 436.68828 172.601238 
L 437.177218 172.104966 
L 440.599781 170.757941 
L 441.577656 170.332564 
L 443.044469 169.87174 
L 444.022344 169.729948 
L 444.511281 169.51726 
L 445.000219 169.446364 
L 445.978094 169.020987 
L 446.467032 168.985539 
L 448.422782 168.241131 
L 449.889595 167.213138 
L 450.378532 167.035898 
L 451.356407 166.504178 
L 451.845345 166.362386 
L 454.77897 164.731777 
L 455.267908 164.625433 
L 456.734721 163.77468 
L 458.201533 163.278408 
L 459.179409 162.959375 
L 461.135159 162.321311 
L 462.113034 162.002279 
L 464.068784 161.612351 
L 464.557722 161.399662 
L 465.046659 161.328766 
L 466.024535 160.90339 
L 466.513472 160.832494 
L 467.00241 160.584358 
L 467.980285 160.407118 
L 469.447097 159.875397 
L 470.424973 159.769053 
L 471.891785 159.450021 
L 474.336473 159.024645 
L 487.04885 155.33805 
L 487.537788 154.841778 
L 488.515663 154.45185 
L 492.427163 152.998481 
L 492.916101 152.714897 
L 494.382913 152.28952 
L 495.360789 152.041384 
L 495.849726 151.722352 
L 496.338664 151.616008 
L 496.827601 151.190632 
L 498.294414 150.907047 
L 499.272289 150.446223 
L 499.761227 149.879055 
L 501.716977 149.41823 
L 505.13954 148.70927 
L 505.628478 148.70927 
L 506.117415 148.496582 
L 508.073165 148.142102 
L 508.562103 147.929413 
L 510.517853 147.574933 
L 511.495728 147.149557 
L 512.473604 146.972317 
L 514.918291 146.3697 
L 516.874042 145.767084 
L 517.362979 145.66074 
L 517.851917 145.412604 
L 518.829792 145.164468 
L 519.318729 144.880883 
L 520.785542 144.384611 
L 521.27448 144.065579 
L 522.252355 143.781995 
L 526.163855 142.43497 
L 527.141731 142.364074 
L 529.097481 141.796905 
L 529.586418 141.513321 
L 530.564294 141.229737 
L 533.008981 140.130848 
L 533.497919 140.0954 
L 538.876232 138.216655 
L 541.32092 137.578591 
L 542.298795 137.117766 
L 543.765608 136.798734 
L 545.721358 135.203573 
L 546.699233 134.919989 
L 547.188171 134.53006 
L 550.121796 133.431172 
L 550.610734 133.11214 
L 551.588609 132.828555 
L 552.077547 132.509523 
L 554.522234 131.729667 
L 555.989047 130.878914 
L 556.477985 130.77257 
L 558.922673 129.460993 
L 560.389485 128.822929 
L 560.878423 128.468448 
L 561.856298 128.149416 
L 562.834173 127.582248 
L 563.323111 127.405008 
L 563.812048 127.050528 
L 570.168237 124.817302 
L 570.657174 124.710958 
L 571.146112 124.391926 
L 573.101862 124.001997 
L 574.079737 123.612069 
L 577.013363 122.194148 
L 577.5023 122.123252 
L 578.969113 121.307948 
L 580.435926 120.811675 
L 583.858488 119.429202 
L 584.347426 119.28741 
L 584.836364 118.968378 
L 585.814239 118.862034 
L 586.303176 118.543002 
L 587.281051 118.365762 
L 588.258927 117.904937 
L 588.747864 117.692249 
L 589.236802 117.621353 
L 591.68149 116.664257 
L 593.148302 116.274328 
L 594.126177 116.026192 
L 595.59299 115.600816 
L 596.570865 115.210888 
L 598.526616 114.147447 
L 599.504491 113.757519 
L 599.993428 113.438486 
L 600.971303 113.225798 
L 601.460241 112.942214 
L 601.949179 112.83587 
L 603.415991 112.020565 
L 604.393866 111.630637 
L 606.349617 110.886229 
L 608.794304 110.070924 
L 609.77218 109.574652 
L 612.216867 108.759347 
L 615.150493 107.589563 
L 617.106243 106.703362 
L 621.995619 104.824617 
L 622.484556 104.505584 
L 624.440307 103.832072 
L 624.929244 103.832072 
L 625.907119 103.406696 
L 627.86287 101.846983 
L 628.351807 101.705191 
L 628.840745 101.386158 
L 629.329682 101.279814 
L 629.81862 101.031678 
L 630.307558 100.960782 
L 630.796495 100.606302 
L 631.285433 100.499958 
L 632.263308 99.897341 
L 633.73012 99.152933 
L 634.707996 98.763005 
L 635.196933 98.514868 
L 636.663746 98.195836 
L 639.108434 97.380532 
L 640.086309 97.0615 
L 641.553122 96.317091 
L 642.530997 95.856267 
L 643.508872 95.608131 
L 644.975685 94.934618 
L 649.376123 93.339457 
L 650.842935 92.453256 
L 651.331873 92.346912 
L 652.309748 91.85064 
L 653.287623 91.49616 
L 653.776561 91.070784 
L 654.754436 90.680855 
L 657.688061 89.51107 
L 659.154874 89.085694 
L 659.643812 88.837558 
L 660.132749 88.766662 
L 661.599562 88.234942 
L 663.066375 87.703221 
L 664.04425 87.313293 
L 664.533187 86.923365 
L 666 86.533436 
L 666.488938 86.249852 
L 667.466813 86.001716 
L 668.933625 85.186412 
L 669.422563 85.150964 
L 670.889376 84.690139 
L 671.867251 84.619243 
L 672.845126 84.229315 
L 675.778751 83.378562 
L 676.756627 83.343114 
L 680.668127 82.102434 
L 681.646002 81.570713 
L 682.13494 81.145337 
L 683.601752 80.294584 
L 684.579628 79.691968 
L 687.513253 78.770319 
L 688.002191 78.380391 
L 690.935816 77.175158 
L 692.891566 76.643438 
L 693.869441 76.218062 
L 694.358379 75.969925 
L 695.336254 75.686341 
L 695.825192 75.402757 
L 696.803067 75.225517 
L 699.247755 74.09118 
L 699.736692 73.807596 
L 701.203505 73.453116 
L 701.692442 73.134084 
L 702.18138 72.956843 
L 702.670318 72.531467 
L 703.159255 72.460571 
L 705.603943 71.503474 
L 707.070756 71.184442 
L 707.559693 71.113546 
L 708.048631 70.900858 
L 708.537568 70.86541 
L 709.515444 70.546378 
L 710.004381 70.51093 
L 711.471194 69.943761 
L 713.426944 69.376593 
L 714.404819 68.632185 
L 716.36057 67.568744 
L 717.827382 67.072472 
L 720.761008 65.760895 
L 721.738883 65.229174 
L 722.22782 64.981038 
L 722.716758 64.520214 
L 725.650383 63.563117 
L 726.628258 63.173189 
L 727.606134 62.889605 
L 728.095071 62.641469 
L 728.584009 62.180644 
L 730.539759 61.684372 
L 731.028697 61.329892 
L 737.384885 59.02577 
L 738.36276 58.84853 
L 742.763198 57.324265 
L 743.741073 57.076129 
L 744.230011 56.863441 
L 744.718949 56.827993 
L 745.696824 56.438064 
L 746.674699 55.835448 
L 747.163636 55.8 
L 747.163636 55.8 
" clip-path="url(#p61f07b47d5)" style="fill: none; stroke: #1f77b4; stroke-width: 1.5; stroke-linecap: square"/>
   </g>
   <g id="line2d_44">
    <path d="M 138.925301 307.8 
L 143.325739 307.693656 
L 147.23724 307.516416 
L 149.19299 307.516416 
L 149.681928 307.374624 
L 152.126616 307.26828 
L 155.060241 306.949247 
L 157.993866 306.842903 
L 158.971742 306.736559 
L 162.394304 306.594767 
L 165.816867 306.488423 
L 168.261555 306.417527 
L 174.617744 306.311183 
L 177.062432 306.240287 
L 180.484995 306.133943 
L 182.929682 306.063047 
L 188.307996 305.956703 
L 190.263746 305.779463 
L 192.219496 305.744015 
L 195.153122 305.637671 
L 197.108872 305.602223 
L 199.55356 305.531326 
L 201.50931 305.354086 
L 205.909748 305.247742 
L 206.887623 305.176846 
L 208.843373 305.070502 
L 211.776999 304.964158 
L 213.732749 304.857814 
L 222.533625 304.326094 
L 225.956188 304.21975 
L 227.423001 304.077958 
L 229.867689 303.971613 
L 234.757065 303.723477 
L 239.64644 303.652581 
L 241.602191 303.439893 
L 243.557941 303.333549 
L 248.936254 302.837277 
L 252.358817 302.447348 
L 253.82563 302.376452 
L 258.226068 301.844732 
L 260.670756 301.773836 
L 262.137568 301.632044 
L 263.604381 301.5257 
L 277.294633 300.497707 
L 278.272508 300.320467 
L 281.206134 300.214123 
L 289.029135 299.753299 
L 292.451698 299.646955 
L 294.407448 299.434266 
L 296.852136 299.327922 
L 299.785761 299.221578 
L 302.230449 299.115234 
L 304.186199 299.079786 
L 306.630887 299.00889 
L 307.608762 298.867098 
L 314.453888 298.760754 
L 315.431763 298.65441 
L 321.299014 298.548066 
L 325.699452 298.335378 
L 329.122015 298.229034 
L 331.077766 298.016345 
L 334.500329 297.910001 
L 335.478204 297.732761 
L 337.922892 297.661865 
L 342.812267 297.590969 
L 345.256955 297.342833 
L 348.190581 297.236489 
L 350.146331 297.059249 
L 355.035706 296.811113 
L 359.925082 296.704769 
L 364.32552 296.49208 
L 365.792333 296.456632 
L 366.770208 296.31484 
L 369.214896 296.208496 
L 370.192771 296.1376 
L 371.170646 296.066704 
L 372.148521 295.995808 
L 376.548959 295.924912 
L 378.015772 295.818568 
L 391.217087 294.967815 
L 393.661774 294.861471 
L 396.106462 294.790575 
L 402.951588 294.684231 
L 403.929463 294.542439 
L 410.774589 294.436095 
L 415.663965 294.187959 
L 416.64184 294.152511 
L 417.619715 294.046167 
L 420.064403 293.939823 
L 422.509091 293.868927 
L 424.953779 293.762583 
L 427.398467 293.691687 
L 431.798905 293.585343 
L 434.73253 293.478998 
L 441.577656 293.372654 
L 446.955969 293.08907 
L 448.91172 293.018174 
L 450.378532 292.91183 
L 457.223658 292.805486 
L 460.157284 292.699142 
L 468.95816 292.592798 
L 470.91391 292.55735 
L 476.781161 292.486454 
L 477.759036 292.415558 
L 484.604162 292.309214 
L 486.559912 292.273766 
L 499.272289 292.167422 
L 500.739102 292.025629 
L 522.741292 291.919285 
L 525.18598 291.848389 
L 537.898357 291.742045 
L 538.876232 291.671149 
L 541.32092 291.600253 
L 542.787733 291.458461 
L 545.721358 291.352117 
L 549.143921 291.210325 
L 553.544359 291.103981 
L 555.989047 291.033085 
L 559.41161 290.926741 
L 563.323111 290.749501 
L 565.767798 290.643157 
L 567.723549 290.607709 
L 572.123987 290.501364 
L 574.079737 290.465916 
L 580.435926 290.359572 
L 582.391676 290.324124 
L 584.836364 290.21778 
L 587.769989 290.111436 
L 591.192552 290.04054 
L 592.170427 289.969644 
L 603.904929 289.8633 
L 610.261117 289.50882 
L 612.705805 289.437924 
L 613.68368 289.33158 
L 614.661555 289.260684 
L 618.573056 289.15434 
L 621.506681 289.047995 
L 626.396057 288.941651 
L 628.840745 288.693515 
L 633.73012 288.587171 
L 634.707996 288.480827 
L 639.597371 288.374483 
L 642.042059 288.303587 
L 647.420372 288.268139 
L 648.398248 288.161795 
L 653.776561 288.055451 
L 654.754436 287.984555 
L 665.511062 287.878211 
L 668.444688 287.771867 
L 675.778751 287.665523 
L 677.734502 287.630075 
L 682.13494 287.559179 
L 683.112815 287.452834 
L 689.469003 287.34649 
L 691.913691 287.275594 
L 700.714567 287.16925 
L 702.18138 287.062906 
L 703.648193 286.956562 
L 705.115005 286.850218 
L 712.449069 286.743874 
L 715.382694 286.63753 
L 728.584009 286.531186 
L 732.984447 286.318498 
L 738.851698 286.212154 
L 739.829573 286.10581 
L 747.163636 285.999465 
L 747.163636 285.999465 
" clip-path="url(#p61f07b47d5)" style="fill: none; stroke: #ff7f0e; stroke-width: 1.5; stroke-linecap: square"/>
   </g>
   <g id="patch_3">
    <path d="M 108 320.4 
L 108 43.2 
" style="fill: none; stroke: #a9a9a9; stroke-width: 0.8; stroke-linejoin: miter; stroke-linecap: square"/>
   </g>
   <g id="patch_4">
    <path d="M 777.6 320.4 
L 777.6 43.2 
" style="fill: none"/>
   </g>
   <g id="patch_5">
    <path d="M 108 320.4 
L 777.6 320.4 
" style="fill: none; stroke: #a9a9a9; stroke-width: 0.8; stroke-linejoin: miter; stroke-linecap: square"/>
   </g>
   <g id="patch_6">
    <path d="M 108 43.2 
L 777.6 43.2 
" style="fill: none"/>
   </g>
   <g id="text_22">
    <!-- get_subscribe history -->
    <g style="fill: #a9a9a9" transform="translate(378.6075 37.2) scale(0.12 -0.12)">
     <defs>
      <path id="DejaVuSans-67" d="M 2906 1791 
Q 2906 2416 2648 2759 
Q 2391 3103 1925 3103 
Q 1463 3103 1205 2759 
Q 947 2416 947 1791 
Q 947 1169 1205 825 
Q 1463 481 1925 481 
Q 2391 481 2648 825 
Q 2906 1169 2906 1791 
z
M 3481 434 
Q 3481 -459 3084 -895 
Q 2688 -1331 1869 -1331 
Q 1566 -1331 1297 -1286 
Q 1028 -1241 775 -1147 
L 775 -588 
Q 1028 -725 1275 -790 
Q 1522 -856 1778 -856 
Q 2344 -856 2625 -561 
Q 2906 -266 2906 331 
L 2906 616 
Q 2728 306 2450 153 
Q 2172 0 1784 0 
Q 1141 0 747 490 
Q 353 981 353 1791 
Q 353 2603 747 3093 
Q 1141 3584 1784 3584 
Q 2172 3584 2450 3431 
Q 2728 3278 2906 2969 
L 2906 3500 
L 3481 3500 
L 3481 434 
z
" transform="scale(0.015625)"/>
      <path id="DejaVuSans-65" d="M 3597 1894 
L 3597 1613 
L 953 1613 
Q 991 1019 1311 708 
Q 1631 397 2203 397 
Q 2534 397 2845 478 
Q 3156 559 3463 722 
L 3463 178 
Q 3153 47 2828 -22 
Q 2503 -91 2169 -91 
Q 1331 -91 842 396 
Q 353 884 353 1716 
Q 353 2575 817 3079 
Q 1281 3584 2069 3584 
Q 2775 3584 3186 3129 
Q 3597 2675 3597 1894 
z
M 3022 2063 
Q 3016 2534 2758 2815 
Q 2500 3097 2075 3097 
Q 1594 3097 1305 2825 
Q 1016 2553 972 2059 
L 3022 2063 
z
" transform="scale(0.015625)"/>
      <path id="DejaVuSans-74" d="M 1172 4494 
L 1172 3500 
L 2356 3500 
L 2356 3053 
L 1172 3053 
L 1172 1153 
Q 1172 725 1289 603 
Q 1406 481 1766 481 
L 2356 481 
L 2356 0 
L 1766 0 
Q 1100 0 847 248 
Q 594 497 594 1153 
L 594 3053 
L 172 3053 
L 172 3500 
L 594 3500 
L 594 4494 
L 1172 4494 
z
" transform="scale(0.015625)"/>
      <path id="DejaVuSans-5f" d="M 3263 -1063 
L 3263 -1509 
L -63 -1509 
L -63 -1063 
L 3263 -1063 
z
" transform="scale(0.015625)"/>
      <path id="DejaVuSans-73" d="M 2834 3397 
L 2834 2853 
Q 2591 2978 2328 3040 
Q 2066 3103 1784 3103 
Q 1356 3103 1142 2972 
Q 928 2841 928 2578 
Q 928 2378 1081 2264 
Q 1234 2150 1697 2047 
L 1894 2003 
Q 2506 1872 2764 1633 
Q 3022 1394 3022 966 
Q 3022 478 2636 193 
Q 2250 -91 1575 -91 
Q 1294 -91 989 -36 
Q 684 19 347 128 
L 347 722 
Q 666 556 975 473 
Q 1284 391 1588 391 
Q 1994 391 2212 530 
Q 2431 669 2431 922 
Q 2431 1156 2273 1281 
Q 2116 1406 1581 1522 
L 1381 1569 
Q 847 1681 609 1914 
Q 372 2147 372 2553 
Q 372 3047 722 3315 
Q 1072 3584 1716 3584 
Q 2034 3584 2315 3537 
Q 2597 3491 2834 3397 
z
" transform="scale(0.015625)"/>
      <path id="DejaVuSans-75" d="M 544 1381 
L 544 3500 
L 1119 3500 
L 1119 1403 
Q 1119 906 1312 657 
Q 1506 409 1894 409 
Q 2359 409 2629 706 
Q 2900 1003 2900 1516 
L 2900 3500 
L 3475 3500 
L 3475 0 
L 2900 0 
L 2900 538 
Q 2691 219 2414 64 
Q 2138 -91 1772 -91 
Q 1169 -91 856 284 
Q 544 659 544 1381 
z
M 1991 3584 
L 1991 3584 
z
" transform="scale(0.015625)"/>
      <path id="DejaVuSans-62" d="M 3116 1747 
Q 3116 2381 2855 2742 
Q 2594 3103 2138 3103 
Q 1681 3103 1420 2742 
Q 1159 2381 1159 1747 
Q 1159 1113 1420 752 
Q 1681 391 2138 391 
Q 2594 391 2855 752 
Q 3116 1113 3116 1747 
z
M 1159 2969 
Q 1341 3281 1617 3432 
Q 1894 3584 2278 3584 
Q 2916 3584 3314 3078 
Q 3713 2572 3713 1747 
Q 3713 922 3314 415 
Q 2916 -91 2278 -91 
Q 1894 -91 1617 61 
Q 1341 213 1159 525 
L 1159 0 
L 581 0 
L 581 4863 
L 1159 4863 
L 1159 2969 
z
" transform="scale(0.015625)"/>
      <path id="DejaVuSans-63" d="M 3122 3366 
L 3122 2828 
Q 2878 2963 2633 3030 
Q 2388 3097 2138 3097 
Q 1578 3097 1268 2742 
Q 959 2388 959 1747 
Q 959 1106 1268 751 
Q 1578 397 2138 397 
Q 2388 397 2633 464 
Q 2878 531 3122 666 
L 3122 134 
Q 2881 22 2623 -34 
Q 2366 -91 2075 -91 
Q 1284 -91 818 406 
Q 353 903 353 1747 
Q 353 2603 823 3093 
Q 1294 3584 2113 3584 
Q 2378 3584 2631 3529 
Q 2884 3475 3122 3366 
z
" transform="scale(0.015625)"/>
      <path id="DejaVuSans-72" d="M 2631 2963 
Q 2534 3019 2420 3045 
Q 2306 3072 2169 3072 
Q 1681 3072 1420 2755 
Q 1159 2438 1159 1844 
L 1159 0 
L 581 0 
L 581 3500 
L 1159 3500 
L 1159 2956 
Q 1341 3275 1631 3429 
Q 1922 3584 2338 3584 
Q 2397 3584 2469 3576 
Q 2541 3569 2628 3553 
L 2631 2963 
z
" transform="scale(0.015625)"/>
      <path id="DejaVuSans-69" d="M 603 3500 
L 1178 3500 
L 1178 0 
L 603 0 
L 603 3500 
z
M 603 4863 
L 1178 4863 
L 1178 4134 
L 603 4134 
L 603 4863 
z
" transform="scale(0.015625)"/>
      <path id="DejaVuSans-20" transform="scale(0.015625)"/>
      <path id="DejaVuSans-68" d="M 3513 2113 
L 3513 0 
L 2938 0 
L 2938 2094 
Q 2938 2591 2744 2837 
Q 2550 3084 2163 3084 
Q 1697 3084 1428 2787 
Q 1159 2491 1159 1978 
L 1159 0 
L 581 0 
L 581 4863 
L 1159 4863 
L 1159 2956 
Q 1366 3272 1645 3428 
Q 1925 3584 2291 3584 
Q 2894 3584 3203 3211 
Q 3513 2838 3513 2113 
z
" transform="scale(0.015625)"/>
      <path id="DejaVuSans-6f" d="M 1959 3097 
Q 1497 3097 1228 2736 
Q 959 2375 959 1747 
Q 959 1119 1226 758 
Q 1494 397 1959 397 
Q 2419 397 2687 759 
Q 2956 1122 2956 1747 
Q 2956 2369 2687 2733 
Q 2419 3097 1959 3097 
z
M 1959 3584 
Q 2709 3584 3137 3096 
Q 3566 2609 3566 1747 
Q 3566 888 3137 398 
Q 2709 -91 1959 -91 
Q 1206 -91 779 398 
Q 353 888 353 1747 
Q 353 2609 779 3096 
Q 1206 3584 1959 3584 
z
" transform="scale(0.015625)"/>
      <path id="DejaVuSans-79" d="M 2059 -325 
Q 1816 -950 1584 -1140 
Q 1353 -1331 966 -1331 
L 506 -1331 
L 506 -850 
L 844 -850 
Q 1081 -850 1212 -737 
Q 1344 -625 1503 -206 
L 1606 56 
L 191 3500 
L 800 3500 
L 1894 763 
L 2988 3500 
L 3597 3500 
L 2059 -325 
z
" transform="scale(0.015625)"/>
     </defs>
     <use xlink:href="#DejaVuSans-67"/>
     <use xlink:href="#DejaVuSans-65" transform="translate(63.476562 0)"/>
     <use xlink:href="#DejaVuSans-74" transform="translate(125 0)"/>
     <use xlink:href="#DejaVuSans-5f" transform="translate(164.208984 0)"/>
     <use xlink:href="#DejaVuSans-73" transform="translate(214.208984 0)"/>
     <use xlink:href="#DejaVuSans-75" transform="translate(266.308594 0)"/>
     <use xlink:href="#DejaVuSans-62" transform="translate(329.6875 0)"/>
     <use xlink:href="#DejaVuSans-73" transform="translate(393.164062 0)"/>
     <use xlink:href="#DejaVuSans-63" transform="translate(445.263672 0)"/>
     <use xlink:href="#DejaVuSans-72" transform="translate(500.244141 0)"/>
     <use xlink:href="#DejaVuSans-69" transform="translate(541.357422 0)"/>
     <use xlink:href="#DejaVuSans-62" transform="translate(569.140625 0)"/>
     <use xlink:href="#DejaVuSans-65" transform="translate(632.617188 0)"/>
     <use xlink:href="#DejaVuSans-20" transform="translate(694.140625 0)"/>
     <use xlink:href="#DejaVuSans-68" transform="translate(725.927734 0)"/>
     <use xlink:href="#DejaVuSans-69" transform="translate(789.306641 0)"/>
     <use xlink:href="#DejaVuSans-73" transform="translate(817.089844 0)"/>
     <use xlink:href="#DejaVuSans-74" transform="translate(869.189453 0)"/>
     <use xlink:href="#DejaVuSans-6f" transform="translate(908.398438 0)"/>
     <use xlink:href="#DejaVuSans-72" transform="translate(969.580078 0)"/>
     <use xlink:href="#DejaVuSans-79" transform="translate(1010.693359 0)"/>
    </g>
   </g>
   <g id="legend_1">
    <g id="line2d_45">
     <path d="M 815.08 328.498438 
L 825.08 328.498438 
L 835.08 328.498438 
" style="fill: none; stroke: #1f77b4; stroke-width: 1.5; stroke-linecap: square"/>
    </g>
    <g id="text_23">
     <!-- star -->
     <g style="fill: #a9a9a9" transform="translate(843.08 331.998438) scale(0.1 -0.1)">
      <defs>
       <path id="DejaVuSans-61" d="M 2194 1759 
Q 1497 1759 1228 1600 
Q 959 1441 959 1056 
Q 959 750 1161 570 
Q 1363 391 1709 391 
Q 2188 391 2477 730 
Q 2766 1069 2766 1631 
L 2766 1759 
L 2194 1759 
z
M 3341 1997 
L 3341 0 
L 2766 0 
L 2766 531 
Q 2569 213 2275 61 
Q 1981 -91 1556 -91 
Q 1019 -91 701 211 
Q 384 513 384 1019 
Q 384 1609 779 1909 
Q 1175 2209 1959 2209 
L 2766 2209 
L 2766 2266 
Q 2766 2663 2505 2880 
Q 2244 3097 1772 3097 
Q 1472 3097 1187 3025 
Q 903 2953 641 2809 
L 641 3341 
Q 956 3463 1253 3523 
Q 1550 3584 1831 3584 
Q 2591 3584 2966 3190 
Q 3341 2797 3341 1997 
z
" transform="scale(0.015625)"/>
      </defs>
      <use xlink:href="#DejaVuSans-73"/>
      <use xlink:href="#DejaVuSans-74" transform="translate(52.099609 0)"/>
      <use xlink:href="#DejaVuSans-61" transform="translate(91.308594 0)"/>
      <use xlink:href="#DejaVuSans-72" transform="translate(152.587891 0)"/>
     </g>
    </g>
    <g id="line2d_46">
     <path d="M 815.08 343.176562 
L 825.08 343.176562 
L 835.08 343.176562 
" style="fill: none; stroke: #ff7f0e; stroke-width: 1.5; stroke-linecap: square"/>
    </g>
    <g id="text_24">
     <!-- fork -->
     <g style="fill: #a9a9a9" transform="translate(843.08 346.676562) scale(0.1 -0.1)">
      <defs>
       <path id="DejaVuSans-66" d="M 2375 4863 
L 2375 4384 
L 1825 4384 
Q 1516 4384 1395 4259 
Q 1275 4134 1275 3809 
L 1275 3500 
L 2222 3500 
L 2222 3053 
L 1275 3053 
L 1275 0 
L 697 0 
L 697 3053 
L 147 3053 
L 147 3500 
L 697 3500 
L 697 3744 
Q 697 4328 969 4595 
Q 1241 4863 1831 4863 
L 2375 4863 
z
" transform="scale(0.015625)"/>
       <path id="DejaVuSans-6b" d="M 581 4863 
L 1159 4863 
L 1159 1991 
L 2875 3500 
L 3609 3500 
L 1753 1863 
L 3688 0 
L 2938 0 
L 1159 1709 
L 1159 0 
L 581 0 
L 581 4863 
z
" transform="scale(0.015625)"/>
      </defs>
      <use xlink:href="#DejaVuSans-66"/>
      <use xlink:href="#DejaVuSans-6f" transform="translate(35.205078 0)"/>
      <use xlink:href="#DejaVuSans-72" transform="translate(96.386719 0)"/>
      <use xlink:href="#DejaVuSans-6b" transform="translate(137.5 0)"/>
     </g>
    </g>
   </g>
  </g>
 </g>
 <defs>
  <clipPath id="p61f07b47d5">
   <rect x="108" y="43.2" width="669.6" height="277.2"/>
  </clipPath>
 </defs>
</svg>
