<?xml version="1.0" encoding="utf-8" standalone="no"?>
<!DOCTYPE svg PUBLIC "-//W3C//DTD SVG 1.1//EN"
  "http://www.w3.org/Graphics/SVG/1.1/DTD/svg11.dtd">
<svg xmlns:xlink="http://www.w3.org/1999/xlink" width="864pt" height="360pt" viewBox="0 0 864 360" xmlns="http://www.w3.org/2000/svg" version="1.1">
 <metadata>
  <rdf:RDF xmlns:dc="http://purl.org/dc/elements/1.1/" xmlns:cc="http://creativecommons.org/ns#" xmlns:rdf="http://www.w3.org/1999/02/22-rdf-syntax-ns#">
   <cc:Work>
    <dc:type rdf:resource="http://purl.org/dc/dcmitype/StillImage"/>
    <dc:date>2024-12-18T14:23:33.383909</dc:date>
    <dc:format>image/svg+xml</dc:format>
    <dc:creator>
     <cc:Agent>
      <dc:title>Matplotlib v3.10.0, https://matplotlib.org/</dc:title>
     </cc:Agent>
    </dc:creator>
   </cc:Work>
  </rdf:RDF>
 </metadata>
 <defs>
  <style type="text/css">*{stroke-linejoin: round; stroke-linecap: butt}</style>
 </defs>
 <g id="figure_1">
  <g id="patch_1">
   <path d="M 0 360 
L 864 360 
L 864 0 
L 0 0 
L 0 360 
z
" style="fill: none; opacity: 0"/>
  </g>
  <g id="axes_1">
   <g id="patch_2">
    <path d="M 108 320.4 
L 777.6 320.4 
L 777.6 43.2 
L 108 43.2 
L 108 320.4 
z
" style="fill: none; opacity: 0"/>
   </g>
   <g id="matplotlib.axis_1">
    <g id="xtick_1">
     <g id="line2d_1">
      <path d="M 157.53561 320.4 
L 157.53561 43.2 
" clip-path="url(#p8a46252e0b)" style="fill: none; stroke-dasharray: 5.12,1.28,0.8,1.28; stroke-dashoffset: 0; stroke: #b0b0b0; stroke-width: 0.8"/>
     </g>
     <g id="line2d_2">
      <defs>
       <path id="m539bfd1f6c" d="M 0 0 
L 0 3.5 
" style="stroke: #a9a9a9; stroke-width: 0.8"/>
      </defs>
      <g>
       <use xlink:href="#m539bfd1f6c" x="157.53561" y="320.4" style="fill: #a9a9a9; stroke: #a9a9a9; stroke-width: 0.8"/>
      </g>
     </g>
     <g id="text_1">
      <!-- 2021-09 -->
      <g style="fill: #a9a9a9" transform="translate(136.644204 334.998438) scale(0.1 -0.1)">
       <defs>
        <path id="DejaVuSans-32" d="M 1228 531 
L 3431 531 
L 3431 0 
L 469 0 
L 469 531 
Q 828 903 1448 1529 
Q 2069 2156 2228 2338 
Q 2531 2678 2651 2914 
Q 2772 3150 2772 3378 
Q 2772 3750 2511 3984 
Q 2250 4219 1831 4219 
Q 1534 4219 1204 4116 
Q 875 4013 500 3803 
L 500 4441 
Q 881 4594 1212 4672 
Q 1544 4750 1819 4750 
Q 2544 4750 2975 4387 
Q 3406 4025 3406 3419 
Q 3406 3131 3298 2873 
Q 3191 2616 2906 2266 
Q 2828 2175 2409 1742 
Q 1991 1309 1228 531 
z
" transform="scale(0.015625)"/>
        <path id="DejaVuSans-30" d="M 2034 4250 
Q 1547 4250 1301 3770 
Q 1056 3291 1056 2328 
Q 1056 1369 1301 889 
Q 1547 409 2034 409 
Q 2525 409 2770 889 
Q 3016 1369 3016 2328 
Q 3016 3291 2770 3770 
Q 2525 4250 2034 4250 
z
M 2034 4750 
Q 2819 4750 3233 4129 
Q 3647 3509 3647 2328 
Q 3647 1150 3233 529 
Q 2819 -91 2034 -91 
Q 1250 -91 836 529 
Q 422 1150 422 2328 
Q 422 3509 836 4129 
Q 1250 4750 2034 4750 
z
" transform="scale(0.015625)"/>
        <path id="DejaVuSans-31" d="M 794 531 
L 1825 531 
L 1825 4091 
L 703 3866 
L 703 4441 
L 1819 4666 
L 2450 4666 
L 2450 531 
L 3481 531 
L 3481 0 
L 794 0 
L 794 531 
z
" transform="scale(0.015625)"/>
        <path id="DejaVuSans-2d" d="M 313 2009 
L 1997 2009 
L 1997 1497 
L 313 1497 
L 313 2009 
z
" transform="scale(0.015625)"/>
        <path id="DejaVuSans-39" d="M 703 97 
L 703 672 
Q 941 559 1184 500 
Q 1428 441 1663 441 
Q 2288 441 2617 861 
Q 2947 1281 2994 2138 
Q 2813 1869 2534 1725 
Q 2256 1581 1919 1581 
Q 1219 1581 811 2004 
Q 403 2428 403 3163 
Q 403 3881 828 4315 
Q 1253 4750 1959 4750 
Q 2769 4750 3195 4129 
Q 3622 3509 3622 2328 
Q 3622 1225 3098 567 
Q 2575 -91 1691 -91 
Q 1453 -91 1209 -44 
Q 966 3 703 97 
z
M 1959 2075 
Q 2384 2075 2632 2365 
Q 2881 2656 2881 3163 
Q 2881 3666 2632 3958 
Q 2384 4250 1959 4250 
Q 1534 4250 1286 3958 
Q 1038 3666 1038 3163 
Q 1038 2656 1286 2365 
Q 1534 2075 1959 2075 
z
" transform="scale(0.015625)"/>
       </defs>
       <use xlink:href="#DejaVuSans-32"/>
       <use xlink:href="#DejaVuSans-30" transform="translate(63.623047 0)"/>
       <use xlink:href="#DejaVuSans-32" transform="translate(127.246094 0)"/>
       <use xlink:href="#DejaVuSans-31" transform="translate(190.869141 0)"/>
       <use xlink:href="#DejaVuSans-2d" transform="translate(254.492188 0)"/>
       <use xlink:href="#DejaVuSans-30" transform="translate(290.576172 0)"/>
       <use xlink:href="#DejaVuSans-39" transform="translate(354.199219 0)"/>
      </g>
     </g>
    </g>
    <g id="xtick_2">
     <g id="line2d_3">
      <path d="M 217.281972 320.4 
L 217.281972 43.2 
" clip-path="url(#p8a46252e0b)" style="fill: none; stroke-dasharray: 5.12,1.28,0.8,1.28; stroke-dashoffset: 0; stroke: #b0b0b0; stroke-width: 0.8"/>
     </g>
     <g id="line2d_4">
      <g>
       <use xlink:href="#m539bfd1f6c" x="217.281972" y="320.4" style="fill: #a9a9a9; stroke: #a9a9a9; stroke-width: 0.8"/>
      </g>
     </g>
     <g id="text_2">
      <!-- 2022-01 -->
      <g style="fill: #a9a9a9" transform="translate(196.390566 334.998438) scale(0.1 -0.1)">
       <use xlink:href="#DejaVuSans-32"/>
       <use xlink:href="#DejaVuSans-30" transform="translate(63.623047 0)"/>
       <use xlink:href="#DejaVuSans-32" transform="translate(127.246094 0)"/>
       <use xlink:href="#DejaVuSans-32" transform="translate(190.869141 0)"/>
       <use xlink:href="#DejaVuSans-2d" transform="translate(254.492188 0)"/>
       <use xlink:href="#DejaVuSans-30" transform="translate(290.576172 0)"/>
       <use xlink:href="#DejaVuSans-31" transform="translate(354.199219 0)"/>
      </g>
     </g>
    </g>
    <g id="xtick_3">
     <g id="line2d_5">
      <path d="M 276.048885 320.4 
L 276.048885 43.2 
" clip-path="url(#p8a46252e0b)" style="fill: none; stroke-dasharray: 5.12,1.28,0.8,1.28; stroke-dashoffset: 0; stroke: #b0b0b0; stroke-width: 0.8"/>
     </g>
     <g id="line2d_6">
      <g>
       <use xlink:href="#m539bfd1f6c" x="276.048885" y="320.4" style="fill: #a9a9a9; stroke: #a9a9a9; stroke-width: 0.8"/>
      </g>
     </g>
     <g id="text_3">
      <!-- 2022-05 -->
      <g style="fill: #a9a9a9" transform="translate(255.157478 334.998438) scale(0.1 -0.1)">
       <defs>
        <path id="DejaVuSans-35" d="M 691 4666 
L 3169 4666 
L 3169 4134 
L 1269 4134 
L 1269 2991 
Q 1406 3038 1543 3061 
Q 1681 3084 1819 3084 
Q 2600 3084 3056 2656 
Q 3513 2228 3513 1497 
Q 3513 744 3044 326 
Q 2575 -91 1722 -91 
Q 1428 -91 1123 -41 
Q 819 9 494 109 
L 494 744 
Q 775 591 1075 516 
Q 1375 441 1709 441 
Q 2250 441 2565 725 
Q 2881 1009 2881 1497 
Q 2881 1984 2565 2268 
Q 2250 2553 1709 2553 
Q 1456 2553 1204 2497 
Q 953 2441 691 2322 
L 691 4666 
z
" transform="scale(0.015625)"/>
       </defs>
       <use xlink:href="#DejaVuSans-32"/>
       <use xlink:href="#DejaVuSans-30" transform="translate(63.623047 0)"/>
       <use xlink:href="#DejaVuSans-32" transform="translate(127.246094 0)"/>
       <use xlink:href="#DejaVuSans-32" transform="translate(190.869141 0)"/>
       <use xlink:href="#DejaVuSans-2d" transform="translate(254.492188 0)"/>
       <use xlink:href="#DejaVuSans-30" transform="translate(290.576172 0)"/>
       <use xlink:href="#DejaVuSans-35" transform="translate(354.199219 0)"/>
      </g>
     </g>
    </g>
    <g id="xtick_4">
     <g id="line2d_7">
      <path d="M 336.28497 320.4 
L 336.28497 43.2 
" clip-path="url(#p8a46252e0b)" style="fill: none; stroke-dasharray: 5.12,1.28,0.8,1.28; stroke-dashoffset: 0; stroke: #b0b0b0; stroke-width: 0.8"/>
     </g>
     <g id="line2d_8">
      <g>
       <use xlink:href="#m539bfd1f6c" x="336.28497" y="320.4" style="fill: #a9a9a9; stroke: #a9a9a9; stroke-width: 0.8"/>
      </g>
     </g>
     <g id="text_4">
      <!-- 2022-09 -->
      <g style="fill: #a9a9a9" transform="translate(315.393564 334.998438) scale(0.1 -0.1)">
       <use xlink:href="#DejaVuSans-32"/>
       <use xlink:href="#DejaVuSans-30" transform="translate(63.623047 0)"/>
       <use xlink:href="#DejaVuSans-32" transform="translate(127.246094 0)"/>
       <use xlink:href="#DejaVuSans-32" transform="translate(190.869141 0)"/>
       <use xlink:href="#DejaVuSans-2d" transform="translate(254.492188 0)"/>
       <use xlink:href="#DejaVuSans-30" transform="translate(290.576172 0)"/>
       <use xlink:href="#DejaVuSans-39" transform="translate(354.199219 0)"/>
      </g>
     </g>
    </g>
    <g id="xtick_5">
     <g id="line2d_9">
      <path d="M 396.031332 320.4 
L 396.031332 43.2 
" clip-path="url(#p8a46252e0b)" style="fill: none; stroke-dasharray: 5.12,1.28,0.8,1.28; stroke-dashoffset: 0; stroke: #b0b0b0; stroke-width: 0.8"/>
     </g>
     <g id="line2d_10">
      <g>
       <use xlink:href="#m539bfd1f6c" x="396.031332" y="320.4" style="fill: #a9a9a9; stroke: #a9a9a9; stroke-width: 0.8"/>
      </g>
     </g>
     <g id="text_5">
      <!-- 2023-01 -->
      <g style="fill: #a9a9a9" transform="translate(375.139926 334.998438) scale(0.1 -0.1)">
       <defs>
        <path id="DejaVuSans-33" d="M 2597 2516 
Q 3050 2419 3304 2112 
Q 3559 1806 3559 1356 
Q 3559 666 3084 287 
Q 2609 -91 1734 -91 
Q 1441 -91 1130 -33 
Q 819 25 488 141 
L 488 750 
Q 750 597 1062 519 
Q 1375 441 1716 441 
Q 2309 441 2620 675 
Q 2931 909 2931 1356 
Q 2931 1769 2642 2001 
Q 2353 2234 1838 2234 
L 1294 2234 
L 1294 2753 
L 1863 2753 
Q 2328 2753 2575 2939 
Q 2822 3125 2822 3475 
Q 2822 3834 2567 4026 
Q 2313 4219 1838 4219 
Q 1578 4219 1281 4162 
Q 984 4106 628 3988 
L 628 4550 
Q 988 4650 1302 4700 
Q 1616 4750 1894 4750 
Q 2613 4750 3031 4423 
Q 3450 4097 3450 3541 
Q 3450 3153 3228 2886 
Q 3006 2619 2597 2516 
z
" transform="scale(0.015625)"/>
       </defs>
       <use xlink:href="#DejaVuSans-32"/>
       <use xlink:href="#DejaVuSans-30" transform="translate(63.623047 0)"/>
       <use xlink:href="#DejaVuSans-32" transform="translate(127.246094 0)"/>
       <use xlink:href="#DejaVuSans-33" transform="translate(190.869141 0)"/>
       <use xlink:href="#DejaVuSans-2d" transform="translate(254.492188 0)"/>
       <use xlink:href="#DejaVuSans-30" transform="translate(290.576172 0)"/>
       <use xlink:href="#DejaVuSans-31" transform="translate(354.199219 0)"/>
      </g>
     </g>
    </g>
    <g id="xtick_6">
     <g id="line2d_11">
      <path d="M 454.798245 320.4 
L 454.798245 43.2 
" clip-path="url(#p8a46252e0b)" style="fill: none; stroke-dasharray: 5.12,1.28,0.8,1.28; stroke-dashoffset: 0; stroke: #b0b0b0; stroke-width: 0.8"/>
     </g>
     <g id="line2d_12">
      <g>
       <use xlink:href="#m539bfd1f6c" x="454.798245" y="320.4" style="fill: #a9a9a9; stroke: #a9a9a9; stroke-width: 0.8"/>
      </g>
     </g>
     <g id="text_6">
      <!-- 2023-05 -->
      <g style="fill: #a9a9a9" transform="translate(433.906838 334.998438) scale(0.1 -0.1)">
       <use xlink:href="#DejaVuSans-32"/>
       <use xlink:href="#DejaVuSans-30" transform="translate(63.623047 0)"/>
       <use xlink:href="#DejaVuSans-32" transform="translate(127.246094 0)"/>
       <use xlink:href="#DejaVuSans-33" transform="translate(190.869141 0)"/>
       <use xlink:href="#DejaVuSans-2d" transform="translate(254.492188 0)"/>
       <use xlink:href="#DejaVuSans-30" transform="translate(290.576172 0)"/>
       <use xlink:href="#DejaVuSans-35" transform="translate(354.199219 0)"/>
      </g>
     </g>
    </g>
    <g id="xtick_7">
     <g id="line2d_13">
      <path d="M 515.03433 320.4 
L 515.03433 43.2 
" clip-path="url(#p8a46252e0b)" style="fill: none; stroke-dasharray: 5.12,1.28,0.8,1.28; stroke-dashoffset: 0; stroke: #b0b0b0; stroke-width: 0.8"/>
     </g>
     <g id="line2d_14">
      <g>
       <use xlink:href="#m539bfd1f6c" x="515.03433" y="320.4" style="fill: #a9a9a9; stroke: #a9a9a9; stroke-width: 0.8"/>
      </g>
     </g>
     <g id="text_7">
      <!-- 2023-09 -->
      <g style="fill: #a9a9a9" transform="translate(494.142924 334.998438) scale(0.1 -0.1)">
       <use xlink:href="#DejaVuSans-32"/>
       <use xlink:href="#DejaVuSans-30" transform="translate(63.623047 0)"/>
       <use xlink:href="#DejaVuSans-32" transform="translate(127.246094 0)"/>
       <use xlink:href="#DejaVuSans-33" transform="translate(190.869141 0)"/>
       <use xlink:href="#DejaVuSans-2d" transform="translate(254.492188 0)"/>
       <use xlink:href="#DejaVuSans-30" transform="translate(290.576172 0)"/>
       <use xlink:href="#DejaVuSans-39" transform="translate(354.199219 0)"/>
      </g>
     </g>
    </g>
    <g id="xtick_8">
     <g id="line2d_15">
      <path d="M 574.780692 320.4 
L 574.780692 43.2 
" clip-path="url(#p8a46252e0b)" style="fill: none; stroke-dasharray: 5.12,1.28,0.8,1.28; stroke-dashoffset: 0; stroke: #b0b0b0; stroke-width: 0.8"/>
     </g>
     <g id="line2d_16">
      <g>
       <use xlink:href="#m539bfd1f6c" x="574.780692" y="320.4" style="fill: #a9a9a9; stroke: #a9a9a9; stroke-width: 0.8"/>
      </g>
     </g>
     <g id="text_8">
      <!-- 2024-01 -->
      <g style="fill: #a9a9a9" transform="translate(553.889286 334.998438) scale(0.1 -0.1)">
       <defs>
        <path id="DejaVuSans-34" d="M 2419 4116 
L 825 1625 
L 2419 1625 
L 2419 4116 
z
M 2253 4666 
L 3047 4666 
L 3047 1625 
L 3713 1625 
L 3713 1100 
L 3047 1100 
L 3047 0 
L 2419 0 
L 2419 1100 
L 313 1100 
L 313 1709 
L 2253 4666 
z
" transform="scale(0.015625)"/>
       </defs>
       <use xlink:href="#DejaVuSans-32"/>
       <use xlink:href="#DejaVuSans-30" transform="translate(63.623047 0)"/>
       <use xlink:href="#DejaVuSans-32" transform="translate(127.246094 0)"/>
       <use xlink:href="#DejaVuSans-34" transform="translate(190.869141 0)"/>
       <use xlink:href="#DejaVuSans-2d" transform="translate(254.492188 0)"/>
       <use xlink:href="#DejaVuSans-30" transform="translate(290.576172 0)"/>
       <use xlink:href="#DejaVuSans-31" transform="translate(354.199219 0)"/>
      </g>
     </g>
    </g>
    <g id="xtick_9">
     <g id="line2d_17">
      <path d="M 634.037329 320.4 
L 634.037329 43.2 
" clip-path="url(#p8a46252e0b)" style="fill: none; stroke-dasharray: 5.12,1.28,0.8,1.28; stroke-dashoffset: 0; stroke: #b0b0b0; stroke-width: 0.8"/>
     </g>
     <g id="line2d_18">
      <g>
       <use xlink:href="#m539bfd1f6c" x="634.037329" y="320.4" style="fill: #a9a9a9; stroke: #a9a9a9; stroke-width: 0.8"/>
      </g>
     </g>
     <g id="text_9">
      <!-- 2024-05 -->
      <g style="fill: #a9a9a9" transform="translate(613.145923 334.998438) scale(0.1 -0.1)">
       <use xlink:href="#DejaVuSans-32"/>
       <use xlink:href="#DejaVuSans-30" transform="translate(63.623047 0)"/>
       <use xlink:href="#DejaVuSans-32" transform="translate(127.246094 0)"/>
       <use xlink:href="#DejaVuSans-34" transform="translate(190.869141 0)"/>
       <use xlink:href="#DejaVuSans-2d" transform="translate(254.492188 0)"/>
       <use xlink:href="#DejaVuSans-30" transform="translate(290.576172 0)"/>
       <use xlink:href="#DejaVuSans-35" transform="translate(354.199219 0)"/>
      </g>
     </g>
    </g>
    <g id="xtick_10">
     <g id="line2d_19">
      <path d="M 694.273415 320.4 
L 694.273415 43.2 
" clip-path="url(#p8a46252e0b)" style="fill: none; stroke-dasharray: 5.12,1.28,0.8,1.28; stroke-dashoffset: 0; stroke: #b0b0b0; stroke-width: 0.8"/>
     </g>
     <g id="line2d_20">
      <g>
       <use xlink:href="#m539bfd1f6c" x="694.273415" y="320.4" style="fill: #a9a9a9; stroke: #a9a9a9; stroke-width: 0.8"/>
      </g>
     </g>
     <g id="text_10">
      <!-- 2024-09 -->
      <g style="fill: #a9a9a9" transform="translate(673.382009 334.998438) scale(0.1 -0.1)">
       <use xlink:href="#DejaVuSans-32"/>
       <use xlink:href="#DejaVuSans-30" transform="translate(63.623047 0)"/>
       <use xlink:href="#DejaVuSans-32" transform="translate(127.246094 0)"/>
       <use xlink:href="#DejaVuSans-34" transform="translate(190.869141 0)"/>
       <use xlink:href="#DejaVuSans-2d" transform="translate(254.492188 0)"/>
       <use xlink:href="#DejaVuSans-30" transform="translate(290.576172 0)"/>
       <use xlink:href="#DejaVuSans-39" transform="translate(354.199219 0)"/>
      </g>
     </g>
    </g>
    <g id="xtick_11">
     <g id="line2d_21">
      <path d="M 754.019776 320.4 
L 754.019776 43.2 
" clip-path="url(#p8a46252e0b)" style="fill: none; stroke-dasharray: 5.12,1.28,0.8,1.28; stroke-dashoffset: 0; stroke: #b0b0b0; stroke-width: 0.8"/>
     </g>
     <g id="line2d_22">
      <g>
       <use xlink:href="#m539bfd1f6c" x="754.019776" y="320.4" style="fill: #a9a9a9; stroke: #a9a9a9; stroke-width: 0.8"/>
      </g>
     </g>
     <g id="text_11">
      <!-- 2025-01 -->
      <g style="fill: #a9a9a9" transform="translate(733.12837 334.998438) scale(0.1 -0.1)">
       <use xlink:href="#DejaVuSans-32"/>
       <use xlink:href="#DejaVuSans-30" transform="translate(63.623047 0)"/>
       <use xlink:href="#DejaVuSans-32" transform="translate(127.246094 0)"/>
       <use xlink:href="#DejaVuSans-35" transform="translate(190.869141 0)"/>
       <use xlink:href="#DejaVuSans-2d" transform="translate(254.492188 0)"/>
       <use xlink:href="#DejaVuSans-30" transform="translate(290.576172 0)"/>
       <use xlink:href="#DejaVuSans-31" transform="translate(354.199219 0)"/>
      </g>
     </g>
    </g>
   </g>
   <g id="matplotlib.axis_2">
    <g id="ytick_1">
     <g id="line2d_23">
      <path d="M 108 307.835523 
L 777.6 307.835523 
" clip-path="url(#p8a46252e0b)" style="fill: none; stroke-dasharray: 5.12,1.28,0.8,1.28; stroke-dashoffset: 0; stroke: #b0b0b0; stroke-width: 0.8"/>
     </g>
     <g id="line2d_24">
      <defs>
       <path id="maf7ded5eca" d="M 0 0 
L -3.5 0 
" style="stroke: #a9a9a9; stroke-width: 0.8"/>
      </defs>
      <g>
       <use xlink:href="#maf7ded5eca" x="108" y="307.835523" style="fill: #a9a9a9; stroke: #a9a9a9; stroke-width: 0.8"/>
      </g>
     </g>
     <g id="text_12">
      <!-- 0 -->
      <g style="fill: #a9a9a9" transform="translate(94.6375 311.634742) scale(0.1 -0.1)">
       <use xlink:href="#DejaVuSans-30"/>
      </g>
     </g>
    </g>
    <g id="ytick_2">
     <g id="line2d_25">
      <path d="M 108 279.417141 
L 777.6 279.417141 
" clip-path="url(#p8a46252e0b)" style="fill: none; stroke-dasharray: 5.12,1.28,0.8,1.28; stroke-dashoffset: 0; stroke: #b0b0b0; stroke-width: 0.8"/>
     </g>
     <g id="line2d_26">
      <g>
       <use xlink:href="#maf7ded5eca" x="108" y="279.417141" style="fill: #a9a9a9; stroke: #a9a9a9; stroke-width: 0.8"/>
      </g>
     </g>
     <g id="text_13">
      <!-- 800 -->
      <g style="fill: #a9a9a9" transform="translate(81.9125 283.21636) scale(0.1 -0.1)">
       <defs>
        <path id="DejaVuSans-38" d="M 2034 2216 
Q 1584 2216 1326 1975 
Q 1069 1734 1069 1313 
Q 1069 891 1326 650 
Q 1584 409 2034 409 
Q 2484 409 2743 651 
Q 3003 894 3003 1313 
Q 3003 1734 2745 1975 
Q 2488 2216 2034 2216 
z
M 1403 2484 
Q 997 2584 770 2862 
Q 544 3141 544 3541 
Q 544 4100 942 4425 
Q 1341 4750 2034 4750 
Q 2731 4750 3128 4425 
Q 3525 4100 3525 3541 
Q 3525 3141 3298 2862 
Q 3072 2584 2669 2484 
Q 3125 2378 3379 2068 
Q 3634 1759 3634 1313 
Q 3634 634 3220 271 
Q 2806 -91 2034 -91 
Q 1263 -91 848 271 
Q 434 634 434 1313 
Q 434 1759 690 2068 
Q 947 2378 1403 2484 
z
M 1172 3481 
Q 1172 3119 1398 2916 
Q 1625 2713 2034 2713 
Q 2441 2713 2670 2916 
Q 2900 3119 2900 3481 
Q 2900 3844 2670 4047 
Q 2441 4250 2034 4250 
Q 1625 4250 1398 4047 
Q 1172 3844 1172 3481 
z
" transform="scale(0.015625)"/>
       </defs>
       <use xlink:href="#DejaVuSans-38"/>
       <use xlink:href="#DejaVuSans-30" transform="translate(63.623047 0)"/>
       <use xlink:href="#DejaVuSans-30" transform="translate(127.246094 0)"/>
      </g>
     </g>
    </g>
    <g id="ytick_3">
     <g id="line2d_27">
      <path d="M 108 250.99876 
L 777.6 250.99876 
" clip-path="url(#p8a46252e0b)" style="fill: none; stroke-dasharray: 5.12,1.28,0.8,1.28; stroke-dashoffset: 0; stroke: #b0b0b0; stroke-width: 0.8"/>
     </g>
     <g id="line2d_28">
      <g>
       <use xlink:href="#maf7ded5eca" x="108" y="250.99876" style="fill: #a9a9a9; stroke: #a9a9a9; stroke-width: 0.8"/>
      </g>
     </g>
     <g id="text_14">
      <!-- 1600 -->
      <g style="fill: #a9a9a9" transform="translate(75.55 254.797978) scale(0.1 -0.1)">
       <defs>
        <path id="DejaVuSans-36" d="M 2113 2584 
Q 1688 2584 1439 2293 
Q 1191 2003 1191 1497 
Q 1191 994 1439 701 
Q 1688 409 2113 409 
Q 2538 409 2786 701 
Q 3034 994 3034 1497 
Q 3034 2003 2786 2293 
Q 2538 2584 2113 2584 
z
M 3366 4563 
L 3366 3988 
Q 3128 4100 2886 4159 
Q 2644 4219 2406 4219 
Q 1781 4219 1451 3797 
Q 1122 3375 1075 2522 
Q 1259 2794 1537 2939 
Q 1816 3084 2150 3084 
Q 2853 3084 3261 2657 
Q 3669 2231 3669 1497 
Q 3669 778 3244 343 
Q 2819 -91 2113 -91 
Q 1303 -91 875 529 
Q 447 1150 447 2328 
Q 447 3434 972 4092 
Q 1497 4750 2381 4750 
Q 2619 4750 2861 4703 
Q 3103 4656 3366 4563 
z
" transform="scale(0.015625)"/>
       </defs>
       <use xlink:href="#DejaVuSans-31"/>
       <use xlink:href="#DejaVuSans-36" transform="translate(63.623047 0)"/>
       <use xlink:href="#DejaVuSans-30" transform="translate(127.246094 0)"/>
       <use xlink:href="#DejaVuSans-30" transform="translate(190.869141 0)"/>
      </g>
     </g>
    </g>
    <g id="ytick_4">
     <g id="line2d_29">
      <path d="M 108 222.580378 
L 777.6 222.580378 
" clip-path="url(#p8a46252e0b)" style="fill: none; stroke-dasharray: 5.12,1.28,0.8,1.28; stroke-dashoffset: 0; stroke: #b0b0b0; stroke-width: 0.8"/>
     </g>
     <g id="line2d_30">
      <g>
       <use xlink:href="#maf7ded5eca" x="108" y="222.580378" style="fill: #a9a9a9; stroke: #a9a9a9; stroke-width: 0.8"/>
      </g>
     </g>
     <g id="text_15">
      <!-- 2400 -->
      <g style="fill: #a9a9a9" transform="translate(75.55 226.379597) scale(0.1 -0.1)">
       <use xlink:href="#DejaVuSans-32"/>
       <use xlink:href="#DejaVuSans-34" transform="translate(63.623047 0)"/>
       <use xlink:href="#DejaVuSans-30" transform="translate(127.246094 0)"/>
       <use xlink:href="#DejaVuSans-30" transform="translate(190.869141 0)"/>
      </g>
     </g>
    </g>
    <g id="ytick_5">
     <g id="line2d_31">
      <path d="M 108 194.161996 
L 777.6 194.161996 
" clip-path="url(#p8a46252e0b)" style="fill: none; stroke-dasharray: 5.12,1.28,0.8,1.28; stroke-dashoffset: 0; stroke: #b0b0b0; stroke-width: 0.8"/>
     </g>
     <g id="line2d_32">
      <g>
       <use xlink:href="#maf7ded5eca" x="108" y="194.161996" style="fill: #a9a9a9; stroke: #a9a9a9; stroke-width: 0.8"/>
      </g>
     </g>
     <g id="text_16">
      <!-- 3200 -->
      <g style="fill: #a9a9a9" transform="translate(75.55 197.961215) scale(0.1 -0.1)">
       <use xlink:href="#DejaVuSans-33"/>
       <use xlink:href="#DejaVuSans-32" transform="translate(63.623047 0)"/>
       <use xlink:href="#DejaVuSans-30" transform="translate(127.246094 0)"/>
       <use xlink:href="#DejaVuSans-30" transform="translate(190.869141 0)"/>
      </g>
     </g>
    </g>
    <g id="ytick_6">
     <g id="line2d_33">
      <path d="M 108 165.743614 
L 777.6 165.743614 
" clip-path="url(#p8a46252e0b)" style="fill: none; stroke-dasharray: 5.12,1.28,0.8,1.28; stroke-dashoffset: 0; stroke: #b0b0b0; stroke-width: 0.8"/>
     </g>
     <g id="line2d_34">
      <g>
       <use xlink:href="#maf7ded5eca" x="108" y="165.743614" style="fill: #a9a9a9; stroke: #a9a9a9; stroke-width: 0.8"/>
      </g>
     </g>
     <g id="text_17">
      <!-- 4000 -->
      <g style="fill: #a9a9a9" transform="translate(75.55 169.542833) scale(0.1 -0.1)">
       <use xlink:href="#DejaVuSans-34"/>
       <use xlink:href="#DejaVuSans-30" transform="translate(63.623047 0)"/>
       <use xlink:href="#DejaVuSans-30" transform="translate(127.246094 0)"/>
       <use xlink:href="#DejaVuSans-30" transform="translate(190.869141 0)"/>
      </g>
     </g>
    </g>
    <g id="ytick_7">
     <g id="line2d_35">
      <path d="M 108 137.325233 
L 777.6 137.325233 
" clip-path="url(#p8a46252e0b)" style="fill: none; stroke-dasharray: 5.12,1.28,0.8,1.28; stroke-dashoffset: 0; stroke: #b0b0b0; stroke-width: 0.8"/>
     </g>
     <g id="line2d_36">
      <g>
       <use xlink:href="#maf7ded5eca" x="108" y="137.325233" style="fill: #a9a9a9; stroke: #a9a9a9; stroke-width: 0.8"/>
      </g>
     </g>
     <g id="text_18">
      <!-- 4800 -->
      <g style="fill: #a9a9a9" transform="translate(75.55 141.124451) scale(0.1 -0.1)">
       <use xlink:href="#DejaVuSans-34"/>
       <use xlink:href="#DejaVuSans-38" transform="translate(63.623047 0)"/>
       <use xlink:href="#DejaVuSans-30" transform="translate(127.246094 0)"/>
       <use xlink:href="#DejaVuSans-30" transform="translate(190.869141 0)"/>
      </g>
     </g>
    </g>
    <g id="ytick_8">
     <g id="line2d_37">
      <path d="M 108 108.906851 
L 777.6 108.906851 
" clip-path="url(#p8a46252e0b)" style="fill: none; stroke-dasharray: 5.12,1.28,0.8,1.28; stroke-dashoffset: 0; stroke: #b0b0b0; stroke-width: 0.8"/>
     </g>
     <g id="line2d_38">
      <g>
       <use xlink:href="#maf7ded5eca" x="108" y="108.906851" style="fill: #a9a9a9; stroke: #a9a9a9; stroke-width: 0.8"/>
      </g>
     </g>
     <g id="text_19">
      <!-- 5600 -->
      <g style="fill: #a9a9a9" transform="translate(75.55 112.70607) scale(0.1 -0.1)">
       <use xlink:href="#DejaVuSans-35"/>
       <use xlink:href="#DejaVuSans-36" transform="translate(63.623047 0)"/>
       <use xlink:href="#DejaVuSans-30" transform="translate(127.246094 0)"/>
       <use xlink:href="#DejaVuSans-30" transform="translate(190.869141 0)"/>
      </g>
     </g>
    </g>
    <g id="ytick_9">
     <g id="line2d_39">
      <path d="M 108 80.488469 
L 777.6 80.488469 
" clip-path="url(#p8a46252e0b)" style="fill: none; stroke-dasharray: 5.12,1.28,0.8,1.28; stroke-dashoffset: 0; stroke: #b0b0b0; stroke-width: 0.8"/>
     </g>
     <g id="line2d_40">
      <g>
       <use xlink:href="#maf7ded5eca" x="108" y="80.488469" style="fill: #a9a9a9; stroke: #a9a9a9; stroke-width: 0.8"/>
      </g>
     </g>
     <g id="text_20">
      <!-- 6400 -->
      <g style="fill: #a9a9a9" transform="translate(75.55 84.287688) scale(0.1 -0.1)">
       <use xlink:href="#DejaVuSans-36"/>
       <use xlink:href="#DejaVuSans-34" transform="translate(63.623047 0)"/>
       <use xlink:href="#DejaVuSans-30" transform="translate(127.246094 0)"/>
       <use xlink:href="#DejaVuSans-30" transform="translate(190.869141 0)"/>
      </g>
     </g>
    </g>
    <g id="ytick_10">
     <g id="line2d_41">
      <path d="M 108 52.070087 
L 777.6 52.070087 
" clip-path="url(#p8a46252e0b)" style="fill: none; stroke-dasharray: 5.12,1.28,0.8,1.28; stroke-dashoffset: 0; stroke: #b0b0b0; stroke-width: 0.8"/>
     </g>
     <g id="line2d_42">
      <g>
       <use xlink:href="#maf7ded5eca" x="108" y="52.070087" style="fill: #a9a9a9; stroke: #a9a9a9; stroke-width: 0.8"/>
      </g>
     </g>
     <g id="text_21">
      <!-- 7200 -->
      <g style="fill: #a9a9a9" transform="translate(75.55 55.869306) scale(0.1 -0.1)">
       <defs>
        <path id="DejaVuSans-37" d="M 525 4666 
L 3525 4666 
L 3525 4397 
L 1831 0 
L 1172 0 
L 2766 4134 
L 525 4134 
L 525 4666 
z
" transform="scale(0.015625)"/>
       </defs>
       <use xlink:href="#DejaVuSans-37"/>
       <use xlink:href="#DejaVuSans-32" transform="translate(63.623047 0)"/>
       <use xlink:href="#DejaVuSans-30" transform="translate(127.246094 0)"/>
       <use xlink:href="#DejaVuSans-30" transform="translate(190.869141 0)"/>
      </g>
     </g>
    </g>
   </g>
   <g id="line2d_43">
    <path d="M 138.436364 307.728954 
L 141.374709 307.480293 
L 141.864434 307.267155 
L 143.823331 307.018495 
L 145.782228 306.627742 
L 146.761676 306.48565 
L 149.210298 306.272512 
L 150.189746 305.881759 
L 150.67947 305.242346 
L 151.169195 304.887116 
L 151.658919 303.785904 
L 152.148643 303.714858 
L 152.638368 303.324105 
L 153.617816 302.826783 
L 155.576713 301.263772 
L 157.53561 300.304652 
L 159.004783 299.629715 
L 159.494507 298.84821 
L 160.473956 298.13775 
L 160.96368 297.924612 
L 165.860923 297.214153 
L 166.350647 297.001015 
L 169.778717 296.716831 
L 171.737614 296.255032 
L 175.655408 295.722188 
L 176.145133 295.473527 
L 176.634857 295.402481 
L 177.614306 295.082774 
L 181.042375 294.514407 
L 182.021824 294.230223 
L 186.429342 293.48424 
L 187.408791 293.271102 
L 188.38824 293.235579 
L 190.347137 292.773781 
L 190.836861 292.098844 
L 192.306034 291.530476 
L 193.775207 291.139724 
L 194.264931 290.891063 
L 195.244379 290.713448 
L 197.203277 290.14508 
L 198.182725 290.074034 
L 199.162174 289.825374 
L 201.121071 289.328052 
L 201.610795 289.292529 
L 202.590244 288.83073 
L 203.079968 288.759684 
L 203.569692 288.511023 
L 208.956659 287.622949 
L 210.915556 287.054581 
L 211.40528 286.734875 
L 213.853902 285.917846 
L 214.83335 285.24291 
L 216.302523 284.958726 
L 229.035354 281.370905 
L 229.525079 281.370905 
L 230.014803 281.157767 
L 230.994251 281.051198 
L 231.483976 280.873583 
L 233.442873 280.767014 
L 234.422321 280.589399 
L 235.40177 280.092078 
L 236.870943 279.559233 
L 237.360667 279.239526 
L 238.340116 278.813251 
L 238.82984 278.56459 
L 239.809288 278.244883 
L 240.299013 278.102791 
L 241.278461 277.4989 
L 241.768185 276.966056 
L 242.747634 275.474091 
L 243.237358 275.331999 
L 243.727083 275.331999 
L 245.196255 274.479447 
L 245.68598 274.230787 
L 246.175704 274.124218 
L 246.665428 273.662419 
L 247.644877 273.271666 
L 248.624325 272.809867 
L 249.11405 272.205977 
L 249.603774 271.424471 
L 250.093498 271.104765 
L 250.583222 270.252213 
L 251.072947 269.719368 
L 254.011292 268.156357 
L 254.990741 267.374852 
L 255.480465 267.055145 
L 255.970189 266.309163 
L 256.459914 265.20795 
L 256.949638 264.461968 
L 257.439362 264.071215 
L 257.929087 263.858077 
L 261.357156 260.945193 
L 262.336605 259.772935 
L 263.805778 258.742769 
L 265.764675 257.57051 
L 266.744123 257.037666 
L 268.703021 256.007499 
L 271.151642 253.805075 
L 272.13109 253.414322 
L 273.110539 252.739385 
L 273.600263 252.455202 
L 274.089988 252.384156 
L 275.55916 251.567127 
L 276.048885 251.034282 
L 278.497506 249.719932 
L 278.98723 249.542317 
L 280.456403 248.547674 
L 287.802267 245.954497 
L 288.781716 245.066422 
L 289.761164 244.604624 
L 290.740613 244.071779 
L 291.230337 243.787595 
L 292.209786 243.503411 
L 292.69951 243.183705 
L 293.189234 243.041613 
L 294.658407 242.082492 
L 297.107028 241.514125 
L 298.576201 240.661573 
L 300.045374 240.341866 
L 300.535098 240.199774 
L 302.004271 239.098562 
L 303.963168 238.565718 
L 304.452893 238.174965 
L 307.391238 237.180321 
L 308.370687 237.002707 
L 309.350135 236.611954 
L 312.778205 235.36865 
L 313.757654 235.226558 
L 315.226827 234.729236 
L 317.675448 233.556978 
L 319.634345 232.491288 
L 323.552139 230.892754 
L 324.041864 230.821708 
L 325.021312 230.217818 
L 325.511036 230.146772 
L 327.469933 229.329743 
L 329.428831 229.081083 
L 330.408279 228.583761 
L 330.898003 228.157485 
L 331.387728 227.269411 
L 333.346625 226.736566 
L 334.815798 225.990584 
L 335.305522 225.884015 
L 339.223316 224.001297 
L 340.692489 223.717113 
L 341.671937 223.219791 
L 342.161662 223.006654 
L 342.651386 222.935608 
L 344.610283 222.047533 
L 346.079456 221.123936 
L 347.548629 220.839752 
L 349.99725 220.235861 
L 350.486974 219.845109 
L 351.956147 219.312264 
L 353.915044 218.530758 
L 354.404769 218.175529 
L 354.894493 217.997914 
L 355.873941 217.465069 
L 358.322563 216.648041 
L 359.791736 215.475782 
L 360.28146 215.369213 
L 361.260908 214.587708 
L 361.750633 214.516662 
L 362.240357 213.735156 
L 362.730081 213.522019 
L 363.219805 213.131266 
L 363.70953 213.06022 
L 364.688978 212.456329 
L 365.668427 212.136622 
L 366.158151 211.781393 
L 366.647875 211.603778 
L 368.117048 210.573612 
L 370.075945 209.543445 
L 370.56567 209.472399 
L 372.034842 208.726417 
L 372.524567 207.909388 
L 373.504015 207.198929 
L 373.993739 207.09236 
L 374.973188 206.488469 
L 375.462912 206.3819 
L 376.442361 205.884579 
L 378.401258 204.925458 
L 378.890982 204.570228 
L 379.870431 203.611108 
L 380.849879 203.007217 
L 381.339604 202.687511 
L 381.829328 202.154666 
L 383.788225 200.804793 
L 384.277949 200.236425 
L 384.767674 199.845672 
L 385.747122 199.490443 
L 386.726571 198.815506 
L 388.195743 198.069524 
L 388.685468 197.998478 
L 390.154641 197.216972 
L 391.134089 196.613081 
L 396.031332 194.836933 
L 396.521056 194.44618 
L 398.479953 193.700197 
L 398.969677 193.558105 
L 399.949126 192.918692 
L 400.928575 192.492416 
L 401.908023 191.81748 
L 402.887472 189.863716 
L 403.86692 188.726981 
L 405.336093 187.980998 
L 406.315542 187.590245 
L 406.805266 187.519199 
L 407.29499 187.235016 
L 409.743611 186.45351 
L 410.233336 186.240372 
L 411.212784 185.565436 
L 412.681957 184.926022 
L 413.661406 184.393177 
L 414.15113 184.037948 
L 414.640854 183.82481 
L 415.130579 183.46958 
L 415.620303 182.936735 
L 416.599751 182.403891 
L 419.048373 181.08954 
L 421.986718 179.633098 
L 423.455891 179.206823 
L 424.925064 178.638455 
L 425.414788 178.283225 
L 426.394237 177.999041 
L 427.373685 177.608289 
L 427.86341 177.217536 
L 429.822307 176.542599 
L 430.801755 175.83214 
L 431.781204 175.405864 
L 432.760652 174.624359 
L 433.740101 174.269129 
L 434.229825 173.842853 
L 434.719549 173.771807 
L 435.698998 173.025825 
L 436.678447 172.528503 
L 437.168171 172.315365 
L 437.657895 171.818043 
L 441.085965 170.46817 
L 442.065414 170.041895 
L 443.534586 169.580096 
L 444.514035 169.438004 
L 445.003759 169.224866 
L 445.493484 169.15382 
L 446.472932 168.727544 
L 446.962656 168.692021 
L 448.921553 167.946039 
L 450.390726 166.915873 
L 450.880451 166.738258 
L 451.859899 166.205413 
L 452.349623 166.063321 
L 455.287969 164.429264 
L 455.777693 164.322695 
L 457.246866 163.470144 
L 458.716039 162.972822 
L 459.695487 162.653115 
L 461.654385 162.013702 
L 462.633833 161.693995 
L 464.59273 161.303242 
L 465.082454 161.090104 
L 465.572179 161.019058 
L 466.551627 160.592783 
L 467.041352 160.521737 
L 467.531076 160.273076 
L 468.510524 160.095461 
L 469.979697 159.562616 
L 470.959146 159.456047 
L 472.428319 159.136341 
L 474.87694 158.710065 
L 487.609771 155.015675 
L 488.099495 154.518354 
L 489.078944 154.127601 
L 492.996738 152.671159 
L 493.486462 152.386975 
L 494.955635 151.960699 
L 495.935084 151.712038 
L 496.424808 151.392332 
L 496.914532 151.285763 
L 497.404257 150.859487 
L 498.873429 150.575303 
L 499.852878 150.113504 
L 500.342602 149.545137 
L 502.301499 149.083338 
L 505.729569 148.372878 
L 506.219293 148.372878 
L 506.709018 148.159741 
L 508.667915 147.804511 
L 509.157639 147.591373 
L 511.116536 147.236143 
L 512.095985 146.809867 
L 513.075433 146.632253 
L 515.524055 146.028362 
L 517.482952 145.424471 
L 517.972676 145.317902 
L 518.4624 145.069242 
L 519.441849 144.820581 
L 519.931573 144.536397 
L 521.400746 144.039075 
L 521.89047 143.719368 
L 522.869919 143.435185 
L 526.787713 142.085312 
L 527.767162 142.014266 
L 529.726059 141.445898 
L 530.215783 141.161714 
L 531.195231 140.87753 
L 533.643853 139.776318 
L 534.133577 139.740795 
L 539.520544 137.858077 
L 541.969166 137.218664 
L 542.948614 136.756865 
L 544.417787 136.437158 
L 546.376684 134.838624 
L 547.356133 134.55444 
L 547.845857 134.163688 
L 550.784202 133.062475 
L 551.273927 132.742769 
L 552.253375 132.458585 
L 552.7431 132.138878 
L 555.191721 131.357372 
L 556.660894 130.504821 
L 557.150618 130.398252 
L 559.599239 129.083902 
L 561.068412 128.444488 
L 561.558136 128.089259 
L 562.537585 127.769552 
L 563.517034 127.201184 
L 564.006758 127.023569 
L 564.496482 126.668339 
L 570.862898 124.430392 
L 571.352622 124.323823 
L 571.842346 124.004116 
L 573.801243 123.613363 
L 574.780692 123.222611 
L 577.719038 121.801692 
L 578.208762 121.730646 
L 579.677935 120.913617 
L 581.147107 120.416295 
L 584.575177 119.030899 
L 585.064902 118.888807 
L 585.554626 118.569101 
L 586.534074 118.462532 
L 587.023799 118.142825 
L 588.003247 117.96521 
L 588.982696 117.503411 
L 589.47242 117.290273 
L 589.962144 117.219228 
L 592.410766 116.260107 
L 593.879939 115.869354 
L 594.859387 115.620694 
L 596.32856 115.194418 
L 597.308008 114.803665 
L 599.266906 113.737976 
L 600.246354 113.347223 
L 600.736078 113.027516 
L 601.715527 112.814378 
L 602.205251 112.530195 
L 602.694975 112.423626 
L 604.164148 111.606597 
L 605.143597 111.215844 
L 607.102494 110.469862 
L 609.551115 109.652833 
L 610.530564 109.155512 
L 612.979185 108.338483 
L 615.917531 107.166225 
L 617.876428 106.278151 
L 622.773671 104.395433 
L 623.263395 104.075726 
L 625.222292 103.400789 
L 625.712016 103.400789 
L 626.691465 102.974514 
L 628.650362 101.411503 
L 629.140086 101.269411 
L 629.629811 100.949704 
L 630.119535 100.843135 
L 630.609259 100.594474 
L 631.098983 100.523428 
L 631.588708 100.168198 
L 632.078432 100.06163 
L 633.05788 99.457739 
L 634.527053 98.711756 
L 635.506502 98.321004 
L 635.996226 98.072343 
L 637.465399 97.752636 
L 639.91402 96.935608 
L 640.893469 96.615901 
L 642.362642 95.869918 
L 643.34209 95.40812 
L 644.321539 95.159459 
L 645.790712 94.484522 
L 650.19823 92.885988 
L 651.667403 91.997914 
L 652.157127 91.891345 
L 653.136576 91.394023 
L 654.116024 91.038793 
L 654.605749 90.612518 
L 655.585197 90.221765 
L 658.523543 89.049507 
L 659.992716 88.623231 
L 660.48244 88.37457 
L 660.972164 88.303524 
L 662.441337 87.770679 
L 663.91051 87.237835 
L 664.889958 86.847082 
L 665.379683 86.456329 
L 666.848855 86.065577 
L 667.33858 85.781393 
L 668.318028 85.532732 
L 669.787201 84.715703 
L 670.276925 84.68018 
L 671.746098 84.218382 
L 672.725547 84.147336 
L 673.704995 83.756583 
L 676.643341 82.904032 
L 677.622789 82.868509 
L 681.540584 81.625204 
L 682.520032 81.09236 
L 683.009756 80.666084 
L 684.478929 79.813533 
L 685.458378 79.209642 
L 688.396723 78.286045 
L 688.886448 77.895292 
L 691.824793 76.687511 
L 693.78369 76.154666 
L 694.763139 75.72839 
L 695.252863 75.479729 
L 696.232312 75.195546 
L 696.722036 74.911362 
L 697.701485 74.733747 
L 700.150106 73.597012 
L 700.63983 73.312828 
L 702.109003 72.957598 
L 702.598727 72.637891 
L 703.088452 72.460276 
L 703.578176 72.034001 
L 704.0679 71.962955 
L 706.516522 71.003834 
L 707.985694 70.684127 
L 708.475419 70.613081 
L 708.965143 70.399944 
L 709.454867 70.364421 
L 710.434316 70.044714 
L 710.92404 70.009191 
L 712.393213 69.440823 
L 714.35211 68.872456 
L 715.331559 68.09095 
L 717.290456 67.025261 
L 718.759628 66.527939 
L 721.697974 65.213589 
L 722.677423 64.680744 
L 723.167147 64.432083 
L 723.656871 63.970285 
L 726.595217 63.011164 
L 727.574665 62.620412 
L 728.554114 62.336228 
L 729.043838 62.087567 
L 729.533562 61.625768 
L 731.49246 61.128447 
L 731.982184 60.773217 
L 738.348599 58.464223 
L 739.328048 58.286608 
L 743.735566 56.75912 
L 744.715015 56.51046 
L 745.204739 56.297322 
L 745.694464 56.261799 
L 747.163636 55.8 
L 747.163636 55.8 
" clip-path="url(#p8a46252e0b)" style="fill: none; stroke: #1f77b4; stroke-width: 1.5; stroke-linecap: square"/>
   </g>
   <g id="line2d_44">
    <path d="M 138.926088 307.8 
L 143.333606 307.693431 
L 147.251401 307.515816 
L 149.210298 307.515816 
L 149.700022 307.373724 
L 152.148643 307.267155 
L 155.086989 306.947449 
L 158.025335 306.84088 
L 159.004783 306.734311 
L 162.432853 306.592219 
L 165.860923 306.48565 
L 168.309544 306.414604 
L 174.67596 306.308035 
L 177.124581 306.236989 
L 180.552651 306.13042 
L 183.001273 306.059374 
L 188.38824 305.952805 
L 190.347137 305.77519 
L 192.306034 305.739667 
L 195.244379 305.633098 
L 197.203277 305.597575 
L 199.651898 305.526529 
L 201.610795 305.348915 
L 206.018313 305.242346 
L 206.997762 305.1713 
L 208.956659 305.064731 
L 211.895005 304.958162 
L 213.853902 304.851593 
L 222.668939 304.318748 
L 226.097009 304.212179 
L 227.566182 304.070087 
L 230.014803 303.963518 
L 234.912046 303.714858 
L 239.809288 303.643812 
L 241.768185 303.430674 
L 243.727083 303.324105 
L 249.11405 302.826783 
L 252.54212 302.43603 
L 254.011292 302.364984 
L 258.418811 301.83214 
L 260.867432 301.761094 
L 262.336605 301.619002 
L 263.805778 301.512433 
L 277.518057 300.482267 
L 278.497506 300.304652 
L 281.435852 300.198083 
L 289.27144 299.736284 
L 292.69951 299.629715 
L 294.658407 299.416577 
L 297.107028 299.310008 
L 300.045374 299.20344 
L 302.493995 299.096871 
L 304.452893 299.061348 
L 306.901514 298.990302 
L 307.880962 298.84821 
L 314.737102 298.741641 
L 315.716551 298.635072 
L 321.593242 298.528503 
L 326.000761 298.315365 
L 329.428831 298.208796 
L 331.387728 297.995658 
L 334.815798 297.889089 
L 335.795246 297.711474 
L 338.243867 297.640429 
L 343.14111 297.569383 
L 345.589732 297.320722 
L 348.528077 297.214153 
L 350.486974 297.036538 
L 355.384217 296.787877 
L 360.28146 296.681308 
L 364.688978 296.46817 
L 366.158151 296.432647 
L 367.1376 296.290555 
L 369.586221 296.183986 
L 370.56567 296.112941 
L 371.545118 296.041895 
L 372.524567 295.970849 
L 376.932085 295.899803 
L 378.401258 295.793234 
L 391.623813 294.940682 
L 394.072435 294.834113 
L 396.521056 294.763067 
L 403.377196 294.656498 
L 404.356644 294.514407 
L 411.212784 294.407838 
L 416.110027 294.159177 
L 417.089476 294.123654 
L 418.068924 294.017085 
L 420.517546 293.910516 
L 422.966167 293.83947 
L 425.414788 293.732901 
L 427.86341 293.661855 
L 432.270928 293.555286 
L 435.209274 293.448717 
L 442.065414 293.342148 
L 447.452381 293.057964 
L 449.411278 292.986919 
L 450.880451 292.88035 
L 457.73659 292.773781 
L 460.674936 292.667212 
L 469.489973 292.560643 
L 471.44887 292.52512 
L 477.325561 292.454074 
L 478.30501 292.383028 
L 485.16115 292.276459 
L 487.120047 292.240936 
L 499.852878 292.134367 
L 501.322051 291.992275 
L 523.359643 291.885706 
L 525.808264 291.81466 
L 538.541096 291.708091 
L 539.520544 291.637045 
L 541.969166 291.565999 
L 543.438338 291.423908 
L 546.376684 291.317339 
L 549.804754 291.175247 
L 554.212272 291.068678 
L 556.660894 290.997632 
L 560.088964 290.891063 
L 564.006758 290.713448 
L 566.455379 290.606879 
L 568.414276 290.571356 
L 572.821795 290.464787 
L 574.780692 290.429264 
L 581.147107 290.322695 
L 583.106005 290.287172 
L 585.554626 290.180603 
L 588.492972 290.074034 
L 591.921041 290.002988 
L 592.90049 289.931942 
L 604.653873 289.825374 
L 611.020288 289.470144 
L 613.46891 289.399098 
L 614.448358 289.292529 
L 615.427807 289.221483 
L 619.345601 289.114914 
L 622.283946 289.008345 
L 627.181189 288.901776 
L 629.629811 288.653115 
L 634.527053 288.546546 
L 635.506502 288.439977 
L 640.403745 288.333409 
L 642.852366 288.262363 
L 648.239333 288.22684 
L 649.218782 288.120271 
L 654.605749 288.013702 
L 655.585197 287.942656 
L 666.359131 287.836087 
L 669.297477 287.729518 
L 676.643341 287.622949 
L 678.602238 287.587426 
L 683.009756 287.51638 
L 683.989205 287.409811 
L 690.355621 287.303242 
L 692.804242 287.232196 
L 701.619279 287.125627 
L 703.088452 287.019058 
L 704.557625 286.912489 
L 706.026797 286.80592 
L 713.372661 286.699352 
L 716.800731 286.55726 
L 729.533562 286.450691 
L 733.941081 286.237553 
L 739.817772 286.130984 
L 740.797221 286.024415 
L 747.163636 285.917846 
L 747.163636 285.917846 
" clip-path="url(#p8a46252e0b)" style="fill: none; stroke: #ff7f0e; stroke-width: 1.5; stroke-linecap: square"/>
   </g>
   <g id="patch_3">
    <path d="M 108 320.4 
L 108 43.2 
" style="fill: none; stroke: #a9a9a9; stroke-width: 0.8; stroke-linejoin: miter; stroke-linecap: square"/>
   </g>
   <g id="patch_4">
    <path d="M 777.6 320.4 
L 777.6 43.2 
" style="fill: none"/>
   </g>
   <g id="patch_5">
    <path d="M 108 320.4 
L 777.6 320.4 
" style="fill: none; stroke: #a9a9a9; stroke-width: 0.8; stroke-linejoin: miter; stroke-linecap: square"/>
   </g>
   <g id="patch_6">
    <path d="M 108 43.2 
L 777.6 43.2 
" style="fill: none"/>
   </g>
   <g id="text_22">
    <!-- get_subscribe history -->
    <g style="fill: #a9a9a9" transform="translate(378.6075 37.2) scale(0.12 -0.12)">
     <defs>
      <path id="DejaVuSans-67" d="M 2906 1791 
Q 2906 2416 2648 2759 
Q 2391 3103 1925 3103 
Q 1463 3103 1205 2759 
Q 947 2416 947 1791 
Q 947 1169 1205 825 
Q 1463 481 1925 481 
Q 2391 481 2648 825 
Q 2906 1169 2906 1791 
z
M 3481 434 
Q 3481 -459 3084 -895 
Q 2688 -1331 1869 -1331 
Q 1566 -1331 1297 -1286 
Q 1028 -1241 775 -1147 
L 775 -588 
Q 1028 -725 1275 -790 
Q 1522 -856 1778 -856 
Q 2344 -856 2625 -561 
Q 2906 -266 2906 331 
L 2906 616 
Q 2728 306 2450 153 
Q 2172 0 1784 0 
Q 1141 0 747 490 
Q 353 981 353 1791 
Q 353 2603 747 3093 
Q 1141 3584 1784 3584 
Q 2172 3584 2450 3431 
Q 2728 3278 2906 2969 
L 2906 3500 
L 3481 3500 
L 3481 434 
z
" transform="scale(0.015625)"/>
      <path id="DejaVuSans-65" d="M 3597 1894 
L 3597 1613 
L 953 1613 
Q 991 1019 1311 708 
Q 1631 397 2203 397 
Q 2534 397 2845 478 
Q 3156 559 3463 722 
L 3463 178 
Q 3153 47 2828 -22 
Q 2503 -91 2169 -91 
Q 1331 -91 842 396 
Q 353 884 353 1716 
Q 353 2575 817 3079 
Q 1281 3584 2069 3584 
Q 2775 3584 3186 3129 
Q 3597 2675 3597 1894 
z
M 3022 2063 
Q 3016 2534 2758 2815 
Q 2500 3097 2075 3097 
Q 1594 3097 1305 2825 
Q 1016 2553 972 2059 
L 3022 2063 
z
" transform="scale(0.015625)"/>
      <path id="DejaVuSans-74" d="M 1172 4494 
L 1172 3500 
L 2356 3500 
L 2356 3053 
L 1172 3053 
L 1172 1153 
Q 1172 725 1289 603 
Q 1406 481 1766 481 
L 2356 481 
L 2356 0 
L 1766 0 
Q 1100 0 847 248 
Q 594 497 594 1153 
L 594 3053 
L 172 3053 
L 172 3500 
L 594 3500 
L 594 4494 
L 1172 4494 
z
" transform="scale(0.015625)"/>
      <path id="DejaVuSans-5f" d="M 3263 -1063 
L 3263 -1509 
L -63 -1509 
L -63 -1063 
L 3263 -1063 
z
" transform="scale(0.015625)"/>
      <path id="DejaVuSans-73" d="M 2834 3397 
L 2834 2853 
Q 2591 2978 2328 3040 
Q 2066 3103 1784 3103 
Q 1356 3103 1142 2972 
Q 928 2841 928 2578 
Q 928 2378 1081 2264 
Q 1234 2150 1697 2047 
L 1894 2003 
Q 2506 1872 2764 1633 
Q 3022 1394 3022 966 
Q 3022 478 2636 193 
Q 2250 -91 1575 -91 
Q 1294 -91 989 -36 
Q 684 19 347 128 
L 347 722 
Q 666 556 975 473 
Q 1284 391 1588 391 
Q 1994 391 2212 530 
Q 2431 669 2431 922 
Q 2431 1156 2273 1281 
Q 2116 1406 1581 1522 
L 1381 1569 
Q 847 1681 609 1914 
Q 372 2147 372 2553 
Q 372 3047 722 3315 
Q 1072 3584 1716 3584 
Q 2034 3584 2315 3537 
Q 2597 3491 2834 3397 
z
" transform="scale(0.015625)"/>
      <path id="DejaVuSans-75" d="M 544 1381 
L 544 3500 
L 1119 3500 
L 1119 1403 
Q 1119 906 1312 657 
Q 1506 409 1894 409 
Q 2359 409 2629 706 
Q 2900 1003 2900 1516 
L 2900 3500 
L 3475 3500 
L 3475 0 
L 2900 0 
L 2900 538 
Q 2691 219 2414 64 
Q 2138 -91 1772 -91 
Q 1169 -91 856 284 
Q 544 659 544 1381 
z
M 1991 3584 
L 1991 3584 
z
" transform="scale(0.015625)"/>
      <path id="DejaVuSans-62" d="M 3116 1747 
Q 3116 2381 2855 2742 
Q 2594 3103 2138 3103 
Q 1681 3103 1420 2742 
Q 1159 2381 1159 1747 
Q 1159 1113 1420 752 
Q 1681 391 2138 391 
Q 2594 391 2855 752 
Q 3116 1113 3116 1747 
z
M 1159 2969 
Q 1341 3281 1617 3432 
Q 1894 3584 2278 3584 
Q 2916 3584 3314 3078 
Q 3713 2572 3713 1747 
Q 3713 922 3314 415 
Q 2916 -91 2278 -91 
Q 1894 -91 1617 61 
Q 1341 213 1159 525 
L 1159 0 
L 581 0 
L 581 4863 
L 1159 4863 
L 1159 2969 
z
" transform="scale(0.015625)"/>
      <path id="DejaVuSans-63" d="M 3122 3366 
L 3122 2828 
Q 2878 2963 2633 3030 
Q 2388 3097 2138 3097 
Q 1578 3097 1268 2742 
Q 959 2388 959 1747 
Q 959 1106 1268 751 
Q 1578 397 2138 397 
Q 2388 397 2633 464 
Q 2878 531 3122 666 
L 3122 134 
Q 2881 22 2623 -34 
Q 2366 -91 2075 -91 
Q 1284 -91 818 406 
Q 353 903 353 1747 
Q 353 2603 823 3093 
Q 1294 3584 2113 3584 
Q 2378 3584 2631 3529 
Q 2884 3475 3122 3366 
z
" transform="scale(0.015625)"/>
      <path id="DejaVuSans-72" d="M 2631 2963 
Q 2534 3019 2420 3045 
Q 2306 3072 2169 3072 
Q 1681 3072 1420 2755 
Q 1159 2438 1159 1844 
L 1159 0 
L 581 0 
L 581 3500 
L 1159 3500 
L 1159 2956 
Q 1341 3275 1631 3429 
Q 1922 3584 2338 3584 
Q 2397 3584 2469 3576 
Q 2541 3569 2628 3553 
L 2631 2963 
z
" transform="scale(0.015625)"/>
      <path id="DejaVuSans-69" d="M 603 3500 
L 1178 3500 
L 1178 0 
L 603 0 
L 603 3500 
z
M 603 4863 
L 1178 4863 
L 1178 4134 
L 603 4134 
L 603 4863 
z
" transform="scale(0.015625)"/>
      <path id="DejaVuSans-20" transform="scale(0.015625)"/>
      <path id="DejaVuSans-68" d="M 3513 2113 
L 3513 0 
L 2938 0 
L 2938 2094 
Q 2938 2591 2744 2837 
Q 2550 3084 2163 3084 
Q 1697 3084 1428 2787 
Q 1159 2491 1159 1978 
L 1159 0 
L 581 0 
L 581 4863 
L 1159 4863 
L 1159 2956 
Q 1366 3272 1645 3428 
Q 1925 3584 2291 3584 
Q 2894 3584 3203 3211 
Q 3513 2838 3513 2113 
z
" transform="scale(0.015625)"/>
      <path id="DejaVuSans-6f" d="M 1959 3097 
Q 1497 3097 1228 2736 
Q 959 2375 959 1747 
Q 959 1119 1226 758 
Q 1494 397 1959 397 
Q 2419 397 2687 759 
Q 2956 1122 2956 1747 
Q 2956 2369 2687 2733 
Q 2419 3097 1959 3097 
z
M 1959 3584 
Q 2709 3584 3137 3096 
Q 3566 2609 3566 1747 
Q 3566 888 3137 398 
Q 2709 -91 1959 -91 
Q 1206 -91 779 398 
Q 353 888 353 1747 
Q 353 2609 779 3096 
Q 1206 3584 1959 3584 
z
" transform="scale(0.015625)"/>
      <path id="DejaVuSans-79" d="M 2059 -325 
Q 1816 -950 1584 -1140 
Q 1353 -1331 966 -1331 
L 506 -1331 
L 506 -850 
L 844 -850 
Q 1081 -850 1212 -737 
Q 1344 -625 1503 -206 
L 1606 56 
L 191 3500 
L 800 3500 
L 1894 763 
L 2988 3500 
L 3597 3500 
L 2059 -325 
z
" transform="scale(0.015625)"/>
     </defs>
     <use xlink:href="#DejaVuSans-67"/>
     <use xlink:href="#DejaVuSans-65" transform="translate(63.476562 0)"/>
     <use xlink:href="#DejaVuSans-74" transform="translate(125 0)"/>
     <use xlink:href="#DejaVuSans-5f" transform="translate(164.208984 0)"/>
     <use xlink:href="#DejaVuSans-73" transform="translate(214.208984 0)"/>
     <use xlink:href="#DejaVuSans-75" transform="translate(266.308594 0)"/>
     <use xlink:href="#DejaVuSans-62" transform="translate(329.6875 0)"/>
     <use xlink:href="#DejaVuSans-73" transform="translate(393.164062 0)"/>
     <use xlink:href="#DejaVuSans-63" transform="translate(445.263672 0)"/>
     <use xlink:href="#DejaVuSans-72" transform="translate(500.244141 0)"/>
     <use xlink:href="#DejaVuSans-69" transform="translate(541.357422 0)"/>
     <use xlink:href="#DejaVuSans-62" transform="translate(569.140625 0)"/>
     <use xlink:href="#DejaVuSans-65" transform="translate(632.617188 0)"/>
     <use xlink:href="#DejaVuSans-20" transform="translate(694.140625 0)"/>
     <use xlink:href="#DejaVuSans-68" transform="translate(725.927734 0)"/>
     <use xlink:href="#DejaVuSans-69" transform="translate(789.306641 0)"/>
     <use xlink:href="#DejaVuSans-73" transform="translate(817.089844 0)"/>
     <use xlink:href="#DejaVuSans-74" transform="translate(869.189453 0)"/>
     <use xlink:href="#DejaVuSans-6f" transform="translate(908.398438 0)"/>
     <use xlink:href="#DejaVuSans-72" transform="translate(969.580078 0)"/>
     <use xlink:href="#DejaVuSans-79" transform="translate(1010.693359 0)"/>
    </g>
   </g>
   <g id="legend_1">
    <g id="line2d_45">
     <path d="M 815.08 328.498438 
L 825.08 328.498438 
L 835.08 328.498438 
" style="fill: none; stroke: #1f77b4; stroke-width: 1.5; stroke-linecap: square"/>
    </g>
    <g id="text_23">
     <!-- star -->
     <g style="fill: #a9a9a9" transform="translate(843.08 331.998438) scale(0.1 -0.1)">
      <defs>
       <path id="DejaVuSans-61" d="M 2194 1759 
Q 1497 1759 1228 1600 
Q 959 1441 959 1056 
Q 959 750 1161 570 
Q 1363 391 1709 391 
Q 2188 391 2477 730 
Q 2766 1069 2766 1631 
L 2766 1759 
L 2194 1759 
z
M 3341 1997 
L 3341 0 
L 2766 0 
L 2766 531 
Q 2569 213 2275 61 
Q 1981 -91 1556 -91 
Q 1019 -91 701 211 
Q 384 513 384 1019 
Q 384 1609 779 1909 
Q 1175 2209 1959 2209 
L 2766 2209 
L 2766 2266 
Q 2766 2663 2505 2880 
Q 2244 3097 1772 3097 
Q 1472 3097 1187 3025 
Q 903 2953 641 2809 
L 641 3341 
Q 956 3463 1253 3523 
Q 1550 3584 1831 3584 
Q 2591 3584 2966 3190 
Q 3341 2797 3341 1997 
z
" transform="scale(0.015625)"/>
      </defs>
      <use xlink:href="#DejaVuSans-73"/>
      <use xlink:href="#DejaVuSans-74" transform="translate(52.099609 0)"/>
      <use xlink:href="#DejaVuSans-61" transform="translate(91.308594 0)"/>
      <use xlink:href="#DejaVuSans-72" transform="translate(152.587891 0)"/>
     </g>
    </g>
    <g id="line2d_46">
     <path d="M 815.08 343.176562 
L 825.08 343.176562 
L 835.08 343.176562 
" style="fill: none; stroke: #ff7f0e; stroke-width: 1.5; stroke-linecap: square"/>
    </g>
    <g id="text_24">
     <!-- fork -->
     <g style="fill: #a9a9a9" transform="translate(843.08 346.676562) scale(0.1 -0.1)">
      <defs>
       <path id="DejaVuSans-66" d="M 2375 4863 
L 2375 4384 
L 1825 4384 
Q 1516 4384 1395 4259 
Q 1275 4134 1275 3809 
L 1275 3500 
L 2222 3500 
L 2222 3053 
L 1275 3053 
L 1275 0 
L 697 0 
L 697 3053 
L 147 3053 
L 147 3500 
L 697 3500 
L 697 3744 
Q 697 4328 969 4595 
Q 1241 4863 1831 4863 
L 2375 4863 
z
" transform="scale(0.015625)"/>
       <path id="DejaVuSans-6b" d="M 581 4863 
L 1159 4863 
L 1159 1991 
L 2875 3500 
L 3609 3500 
L 1753 1863 
L 3688 0 
L 2938 0 
L 1159 1709 
L 1159 0 
L 581 0 
L 581 4863 
z
" transform="scale(0.015625)"/>
      </defs>
      <use xlink:href="#DejaVuSans-66"/>
      <use xlink:href="#DejaVuSans-6f" transform="translate(35.205078 0)"/>
      <use xlink:href="#DejaVuSans-72" transform="translate(96.386719 0)"/>
      <use xlink:href="#DejaVuSans-6b" transform="translate(137.5 0)"/>
     </g>
    </g>
   </g>
  </g>
 </g>
 <defs>
  <clipPath id="p8a46252e0b">
   <rect x="108" y="43.2" width="669.6" height="277.2"/>
  </clipPath>
 </defs>
</svg>
