<?xml version="1.0" encoding="utf-8" standalone="no"?>
<!DOCTYPE svg PUBLIC "-//W3C//DTD SVG 1.1//EN"
  "http://www.w3.org/Graphics/SVG/1.1/DTD/svg11.dtd">
<svg xmlns:xlink="http://www.w3.org/1999/xlink" width="864pt" height="360pt" viewBox="0 0 864 360" xmlns="http://www.w3.org/2000/svg" version="1.1">
 <metadata>
  <rdf:RDF xmlns:dc="http://purl.org/dc/elements/1.1/" xmlns:cc="http://creativecommons.org/ns#" xmlns:rdf="http://www.w3.org/1999/02/22-rdf-syntax-ns#">
   <cc:Work>
    <dc:type rdf:resource="http://purl.org/dc/dcmitype/StillImage"/>
    <dc:date>2024-12-09T14:25:01.042516</dc:date>
    <dc:format>image/svg+xml</dc:format>
    <dc:creator>
     <cc:Agent>
      <dc:title>Matplotlib v3.9.3, https://matplotlib.org/</dc:title>
     </cc:Agent>
    </dc:creator>
   </cc:Work>
  </rdf:RDF>
 </metadata>
 <defs>
  <style type="text/css">*{stroke-linejoin: round; stroke-linecap: butt}</style>
 </defs>
 <g id="figure_1">
  <g id="patch_1">
   <path d="M 0 360 
L 864 360 
L 864 0 
L 0 0 
L 0 360 
z
" style="fill: none; opacity: 0"/>
  </g>
  <g id="axes_1">
   <g id="patch_2">
    <path d="M 108 320.4 
L 777.6 320.4 
L 777.6 43.2 
L 108 43.2 
L 108 320.4 
z
" style="fill: none; opacity: 0"/>
   </g>
   <g id="matplotlib.axis_1">
    <g id="xtick_1">
     <g id="line2d_1">
      <path d="M 157.674908 320.4 
L 157.674908 43.2 
" clip-path="url(#p1566baad8b)" style="fill: none; stroke-dasharray: 5.12,1.28,0.8,1.28; stroke-dashoffset: 0; stroke: #b0b0b0; stroke-width: 0.8"/>
     </g>
     <g id="line2d_2">
      <defs>
       <path id="m77d8868dfe" d="M 0 0 
L 0 3.5 
" style="stroke: #a9a9a9; stroke-width: 0.8"/>
      </defs>
      <g>
       <use xlink:href="#m77d8868dfe" x="157.674908" y="320.4" style="fill: #a9a9a9; stroke: #a9a9a9; stroke-width: 0.8"/>
      </g>
     </g>
     <g id="text_1">
      <!-- 2021-09 -->
      <g style="fill: #a9a9a9" transform="translate(136.783502 334.998438) scale(0.1 -0.1)">
       <defs>
        <path id="DejaVuSans-32" d="M 1228 531 
L 3431 531 
L 3431 0 
L 469 0 
L 469 531 
Q 828 903 1448 1529 
Q 2069 2156 2228 2338 
Q 2531 2678 2651 2914 
Q 2772 3150 2772 3378 
Q 2772 3750 2511 3984 
Q 2250 4219 1831 4219 
Q 1534 4219 1204 4116 
Q 875 4013 500 3803 
L 500 4441 
Q 881 4594 1212 4672 
Q 1544 4750 1819 4750 
Q 2544 4750 2975 4387 
Q 3406 4025 3406 3419 
Q 3406 3131 3298 2873 
Q 3191 2616 2906 2266 
Q 2828 2175 2409 1742 
Q 1991 1309 1228 531 
z
" transform="scale(0.015625)"/>
        <path id="DejaVuSans-30" d="M 2034 4250 
Q 1547 4250 1301 3770 
Q 1056 3291 1056 2328 
Q 1056 1369 1301 889 
Q 1547 409 2034 409 
Q 2525 409 2770 889 
Q 3016 1369 3016 2328 
Q 3016 3291 2770 3770 
Q 2525 4250 2034 4250 
z
M 2034 4750 
Q 2819 4750 3233 4129 
Q 3647 3509 3647 2328 
Q 3647 1150 3233 529 
Q 2819 -91 2034 -91 
Q 1250 -91 836 529 
Q 422 1150 422 2328 
Q 422 3509 836 4129 
Q 1250 4750 2034 4750 
z
" transform="scale(0.015625)"/>
        <path id="DejaVuSans-31" d="M 794 531 
L 1825 531 
L 1825 4091 
L 703 3866 
L 703 4441 
L 1819 4666 
L 2450 4666 
L 2450 531 
L 3481 531 
L 3481 0 
L 794 0 
L 794 531 
z
" transform="scale(0.015625)"/>
        <path id="DejaVuSans-2d" d="M 313 2009 
L 1997 2009 
L 1997 1497 
L 313 1497 
L 313 2009 
z
" transform="scale(0.015625)"/>
        <path id="DejaVuSans-39" d="M 703 97 
L 703 672 
Q 941 559 1184 500 
Q 1428 441 1663 441 
Q 2288 441 2617 861 
Q 2947 1281 2994 2138 
Q 2813 1869 2534 1725 
Q 2256 1581 1919 1581 
Q 1219 1581 811 2004 
Q 403 2428 403 3163 
Q 403 3881 828 4315 
Q 1253 4750 1959 4750 
Q 2769 4750 3195 4129 
Q 3622 3509 3622 2328 
Q 3622 1225 3098 567 
Q 2575 -91 1691 -91 
Q 1453 -91 1209 -44 
Q 966 3 703 97 
z
M 1959 2075 
Q 2384 2075 2632 2365 
Q 2881 2656 2881 3163 
Q 2881 3666 2632 3958 
Q 2384 4250 1959 4250 
Q 1534 4250 1286 3958 
Q 1038 3666 1038 3163 
Q 1038 2656 1286 2365 
Q 1534 2075 1959 2075 
z
" transform="scale(0.015625)"/>
       </defs>
       <use xlink:href="#DejaVuSans-32"/>
       <use xlink:href="#DejaVuSans-30" x="63.623047"/>
       <use xlink:href="#DejaVuSans-32" x="127.246094"/>
       <use xlink:href="#DejaVuSans-31" x="190.869141"/>
       <use xlink:href="#DejaVuSans-2d" x="254.492188"/>
       <use xlink:href="#DejaVuSans-30" x="290.576172"/>
       <use xlink:href="#DejaVuSans-39" x="354.199219"/>
      </g>
     </g>
    </g>
    <g id="xtick_2">
     <g id="line2d_3">
      <path d="M 217.857021 320.4 
L 217.857021 43.2 
" clip-path="url(#p1566baad8b)" style="fill: none; stroke-dasharray: 5.12,1.28,0.8,1.28; stroke-dashoffset: 0; stroke: #b0b0b0; stroke-width: 0.8"/>
     </g>
     <g id="line2d_4">
      <g>
       <use xlink:href="#m77d8868dfe" x="217.857021" y="320.4" style="fill: #a9a9a9; stroke: #a9a9a9; stroke-width: 0.8"/>
      </g>
     </g>
     <g id="text_2">
      <!-- 2022-01 -->
      <g style="fill: #a9a9a9" transform="translate(196.965615 334.998438) scale(0.1 -0.1)">
       <use xlink:href="#DejaVuSans-32"/>
       <use xlink:href="#DejaVuSans-30" x="63.623047"/>
       <use xlink:href="#DejaVuSans-32" x="127.246094"/>
       <use xlink:href="#DejaVuSans-32" x="190.869141"/>
       <use xlink:href="#DejaVuSans-2d" x="254.492188"/>
       <use xlink:href="#DejaVuSans-30" x="290.576172"/>
       <use xlink:href="#DejaVuSans-31" x="354.199219"/>
      </g>
     </g>
    </g>
    <g id="xtick_3">
     <g id="line2d_5">
      <path d="M 277.052542 320.4 
L 277.052542 43.2 
" clip-path="url(#p1566baad8b)" style="fill: none; stroke-dasharray: 5.12,1.28,0.8,1.28; stroke-dashoffset: 0; stroke: #b0b0b0; stroke-width: 0.8"/>
     </g>
     <g id="line2d_6">
      <g>
       <use xlink:href="#m77d8868dfe" x="277.052542" y="320.4" style="fill: #a9a9a9; stroke: #a9a9a9; stroke-width: 0.8"/>
      </g>
     </g>
     <g id="text_3">
      <!-- 2022-05 -->
      <g style="fill: #a9a9a9" transform="translate(256.161135 334.998438) scale(0.1 -0.1)">
       <defs>
        <path id="DejaVuSans-35" d="M 691 4666 
L 3169 4666 
L 3169 4134 
L 1269 4134 
L 1269 2991 
Q 1406 3038 1543 3061 
Q 1681 3084 1819 3084 
Q 2600 3084 3056 2656 
Q 3513 2228 3513 1497 
Q 3513 744 3044 326 
Q 2575 -91 1722 -91 
Q 1428 -91 1123 -41 
Q 819 9 494 109 
L 494 744 
Q 775 591 1075 516 
Q 1375 441 1709 441 
Q 2250 441 2565 725 
Q 2881 1009 2881 1497 
Q 2881 1984 2565 2268 
Q 2250 2553 1709 2553 
Q 1456 2553 1204 2497 
Q 953 2441 691 2322 
L 691 4666 
z
" transform="scale(0.015625)"/>
       </defs>
       <use xlink:href="#DejaVuSans-32"/>
       <use xlink:href="#DejaVuSans-30" x="63.623047"/>
       <use xlink:href="#DejaVuSans-32" x="127.246094"/>
       <use xlink:href="#DejaVuSans-32" x="190.869141"/>
       <use xlink:href="#DejaVuSans-2d" x="254.492188"/>
       <use xlink:href="#DejaVuSans-30" x="290.576172"/>
       <use xlink:href="#DejaVuSans-35" x="354.199219"/>
      </g>
     </g>
    </g>
    <g id="xtick_4">
     <g id="line2d_7">
      <path d="M 337.72795 320.4 
L 337.72795 43.2 
" clip-path="url(#p1566baad8b)" style="fill: none; stroke-dasharray: 5.12,1.28,0.8,1.28; stroke-dashoffset: 0; stroke: #b0b0b0; stroke-width: 0.8"/>
     </g>
     <g id="line2d_8">
      <g>
       <use xlink:href="#m77d8868dfe" x="337.72795" y="320.4" style="fill: #a9a9a9; stroke: #a9a9a9; stroke-width: 0.8"/>
      </g>
     </g>
     <g id="text_4">
      <!-- 2022-09 -->
      <g style="fill: #a9a9a9" transform="translate(316.836544 334.998438) scale(0.1 -0.1)">
       <use xlink:href="#DejaVuSans-32"/>
       <use xlink:href="#DejaVuSans-30" x="63.623047"/>
       <use xlink:href="#DejaVuSans-32" x="127.246094"/>
       <use xlink:href="#DejaVuSans-32" x="190.869141"/>
       <use xlink:href="#DejaVuSans-2d" x="254.492188"/>
       <use xlink:href="#DejaVuSans-30" x="290.576172"/>
       <use xlink:href="#DejaVuSans-39" x="354.199219"/>
      </g>
     </g>
    </g>
    <g id="xtick_5">
     <g id="line2d_9">
      <path d="M 397.910063 320.4 
L 397.910063 43.2 
" clip-path="url(#p1566baad8b)" style="fill: none; stroke-dasharray: 5.12,1.28,0.8,1.28; stroke-dashoffset: 0; stroke: #b0b0b0; stroke-width: 0.8"/>
     </g>
     <g id="line2d_10">
      <g>
       <use xlink:href="#m77d8868dfe" x="397.910063" y="320.4" style="fill: #a9a9a9; stroke: #a9a9a9; stroke-width: 0.8"/>
      </g>
     </g>
     <g id="text_5">
      <!-- 2023-01 -->
      <g style="fill: #a9a9a9" transform="translate(377.018657 334.998438) scale(0.1 -0.1)">
       <defs>
        <path id="DejaVuSans-33" d="M 2597 2516 
Q 3050 2419 3304 2112 
Q 3559 1806 3559 1356 
Q 3559 666 3084 287 
Q 2609 -91 1734 -91 
Q 1441 -91 1130 -33 
Q 819 25 488 141 
L 488 750 
Q 750 597 1062 519 
Q 1375 441 1716 441 
Q 2309 441 2620 675 
Q 2931 909 2931 1356 
Q 2931 1769 2642 2001 
Q 2353 2234 1838 2234 
L 1294 2234 
L 1294 2753 
L 1863 2753 
Q 2328 2753 2575 2939 
Q 2822 3125 2822 3475 
Q 2822 3834 2567 4026 
Q 2313 4219 1838 4219 
Q 1578 4219 1281 4162 
Q 984 4106 628 3988 
L 628 4550 
Q 988 4650 1302 4700 
Q 1616 4750 1894 4750 
Q 2613 4750 3031 4423 
Q 3450 4097 3450 3541 
Q 3450 3153 3228 2886 
Q 3006 2619 2597 2516 
z
" transform="scale(0.015625)"/>
       </defs>
       <use xlink:href="#DejaVuSans-32"/>
       <use xlink:href="#DejaVuSans-30" x="63.623047"/>
       <use xlink:href="#DejaVuSans-32" x="127.246094"/>
       <use xlink:href="#DejaVuSans-33" x="190.869141"/>
       <use xlink:href="#DejaVuSans-2d" x="254.492188"/>
       <use xlink:href="#DejaVuSans-30" x="290.576172"/>
       <use xlink:href="#DejaVuSans-31" x="354.199219"/>
      </g>
     </g>
    </g>
    <g id="xtick_6">
     <g id="line2d_11">
      <path d="M 457.105584 320.4 
L 457.105584 43.2 
" clip-path="url(#p1566baad8b)" style="fill: none; stroke-dasharray: 5.12,1.28,0.8,1.28; stroke-dashoffset: 0; stroke: #b0b0b0; stroke-width: 0.8"/>
     </g>
     <g id="line2d_12">
      <g>
       <use xlink:href="#m77d8868dfe" x="457.105584" y="320.4" style="fill: #a9a9a9; stroke: #a9a9a9; stroke-width: 0.8"/>
      </g>
     </g>
     <g id="text_6">
      <!-- 2023-05 -->
      <g style="fill: #a9a9a9" transform="translate(436.214178 334.998438) scale(0.1 -0.1)">
       <use xlink:href="#DejaVuSans-32"/>
       <use xlink:href="#DejaVuSans-30" x="63.623047"/>
       <use xlink:href="#DejaVuSans-32" x="127.246094"/>
       <use xlink:href="#DejaVuSans-33" x="190.869141"/>
       <use xlink:href="#DejaVuSans-2d" x="254.492188"/>
       <use xlink:href="#DejaVuSans-30" x="290.576172"/>
       <use xlink:href="#DejaVuSans-35" x="354.199219"/>
      </g>
     </g>
    </g>
    <g id="xtick_7">
     <g id="line2d_13">
      <path d="M 517.780993 320.4 
L 517.780993 43.2 
" clip-path="url(#p1566baad8b)" style="fill: none; stroke-dasharray: 5.12,1.28,0.8,1.28; stroke-dashoffset: 0; stroke: #b0b0b0; stroke-width: 0.8"/>
     </g>
     <g id="line2d_14">
      <g>
       <use xlink:href="#m77d8868dfe" x="517.780993" y="320.4" style="fill: #a9a9a9; stroke: #a9a9a9; stroke-width: 0.8"/>
      </g>
     </g>
     <g id="text_7">
      <!-- 2023-09 -->
      <g style="fill: #a9a9a9" transform="translate(496.889587 334.998438) scale(0.1 -0.1)">
       <use xlink:href="#DejaVuSans-32"/>
       <use xlink:href="#DejaVuSans-30" x="63.623047"/>
       <use xlink:href="#DejaVuSans-32" x="127.246094"/>
       <use xlink:href="#DejaVuSans-33" x="190.869141"/>
       <use xlink:href="#DejaVuSans-2d" x="254.492188"/>
       <use xlink:href="#DejaVuSans-30" x="290.576172"/>
       <use xlink:href="#DejaVuSans-39" x="354.199219"/>
      </g>
     </g>
    </g>
    <g id="xtick_8">
     <g id="line2d_15">
      <path d="M 577.963106 320.4 
L 577.963106 43.2 
" clip-path="url(#p1566baad8b)" style="fill: none; stroke-dasharray: 5.12,1.28,0.8,1.28; stroke-dashoffset: 0; stroke: #b0b0b0; stroke-width: 0.8"/>
     </g>
     <g id="line2d_16">
      <g>
       <use xlink:href="#m77d8868dfe" x="577.963106" y="320.4" style="fill: #a9a9a9; stroke: #a9a9a9; stroke-width: 0.8"/>
      </g>
     </g>
     <g id="text_8">
      <!-- 2024-01 -->
      <g style="fill: #a9a9a9" transform="translate(557.0717 334.998438) scale(0.1 -0.1)">
       <defs>
        <path id="DejaVuSans-34" d="M 2419 4116 
L 825 1625 
L 2419 1625 
L 2419 4116 
z
M 2253 4666 
L 3047 4666 
L 3047 1625 
L 3713 1625 
L 3713 1100 
L 3047 1100 
L 3047 0 
L 2419 0 
L 2419 1100 
L 313 1100 
L 313 1709 
L 2253 4666 
z
" transform="scale(0.015625)"/>
       </defs>
       <use xlink:href="#DejaVuSans-32"/>
       <use xlink:href="#DejaVuSans-30" x="63.623047"/>
       <use xlink:href="#DejaVuSans-32" x="127.246094"/>
       <use xlink:href="#DejaVuSans-34" x="190.869141"/>
       <use xlink:href="#DejaVuSans-2d" x="254.492188"/>
       <use xlink:href="#DejaVuSans-30" x="290.576172"/>
       <use xlink:href="#DejaVuSans-31" x="354.199219"/>
      </g>
     </g>
    </g>
    <g id="xtick_9">
     <g id="line2d_17">
      <path d="M 637.651923 320.4 
L 637.651923 43.2 
" clip-path="url(#p1566baad8b)" style="fill: none; stroke-dasharray: 5.12,1.28,0.8,1.28; stroke-dashoffset: 0; stroke: #b0b0b0; stroke-width: 0.8"/>
     </g>
     <g id="line2d_18">
      <g>
       <use xlink:href="#m77d8868dfe" x="637.651923" y="320.4" style="fill: #a9a9a9; stroke: #a9a9a9; stroke-width: 0.8"/>
      </g>
     </g>
     <g id="text_9">
      <!-- 2024-05 -->
      <g style="fill: #a9a9a9" transform="translate(616.760517 334.998438) scale(0.1 -0.1)">
       <use xlink:href="#DejaVuSans-32"/>
       <use xlink:href="#DejaVuSans-30" x="63.623047"/>
       <use xlink:href="#DejaVuSans-32" x="127.246094"/>
       <use xlink:href="#DejaVuSans-34" x="190.869141"/>
       <use xlink:href="#DejaVuSans-2d" x="254.492188"/>
       <use xlink:href="#DejaVuSans-30" x="290.576172"/>
       <use xlink:href="#DejaVuSans-35" x="354.199219"/>
      </g>
     </g>
    </g>
    <g id="xtick_10">
     <g id="line2d_19">
      <path d="M 698.327332 320.4 
L 698.327332 43.2 
" clip-path="url(#p1566baad8b)" style="fill: none; stroke-dasharray: 5.12,1.28,0.8,1.28; stroke-dashoffset: 0; stroke: #b0b0b0; stroke-width: 0.8"/>
     </g>
     <g id="line2d_20">
      <g>
       <use xlink:href="#m77d8868dfe" x="698.327332" y="320.4" style="fill: #a9a9a9; stroke: #a9a9a9; stroke-width: 0.8"/>
      </g>
     </g>
     <g id="text_10">
      <!-- 2024-09 -->
      <g style="fill: #a9a9a9" transform="translate(677.435925 334.998438) scale(0.1 -0.1)">
       <use xlink:href="#DejaVuSans-32"/>
       <use xlink:href="#DejaVuSans-30" x="63.623047"/>
       <use xlink:href="#DejaVuSans-32" x="127.246094"/>
       <use xlink:href="#DejaVuSans-34" x="190.869141"/>
       <use xlink:href="#DejaVuSans-2d" x="254.492188"/>
       <use xlink:href="#DejaVuSans-30" x="290.576172"/>
       <use xlink:href="#DejaVuSans-39" x="354.199219"/>
      </g>
     </g>
    </g>
    <g id="xtick_11">
     <g id="line2d_21">
      <path d="M 758.509445 320.4 
L 758.509445 43.2 
" clip-path="url(#p1566baad8b)" style="fill: none; stroke-dasharray: 5.12,1.28,0.8,1.28; stroke-dashoffset: 0; stroke: #b0b0b0; stroke-width: 0.8"/>
     </g>
     <g id="line2d_22">
      <g>
       <use xlink:href="#m77d8868dfe" x="758.509445" y="320.4" style="fill: #a9a9a9; stroke: #a9a9a9; stroke-width: 0.8"/>
      </g>
     </g>
     <g id="text_11">
      <!-- 2025-01 -->
      <g style="fill: #a9a9a9" transform="translate(737.618038 334.998438) scale(0.1 -0.1)">
       <use xlink:href="#DejaVuSans-32"/>
       <use xlink:href="#DejaVuSans-30" x="63.623047"/>
       <use xlink:href="#DejaVuSans-32" x="127.246094"/>
       <use xlink:href="#DejaVuSans-35" x="190.869141"/>
       <use xlink:href="#DejaVuSans-2d" x="254.492188"/>
       <use xlink:href="#DejaVuSans-30" x="290.576172"/>
       <use xlink:href="#DejaVuSans-31" x="354.199219"/>
      </g>
     </g>
    </g>
   </g>
   <g id="matplotlib.axis_2">
    <g id="ytick_1">
     <g id="line2d_23">
      <path d="M 108 307.835694 
L 777.6 307.835694 
" clip-path="url(#p1566baad8b)" style="fill: none; stroke-dasharray: 5.12,1.28,0.8,1.28; stroke-dashoffset: 0; stroke: #b0b0b0; stroke-width: 0.8"/>
     </g>
     <g id="line2d_24">
      <defs>
       <path id="m2a4009f3ed" d="M 0 0 
L -3.5 0 
" style="stroke: #a9a9a9; stroke-width: 0.8"/>
      </defs>
      <g>
       <use xlink:href="#m2a4009f3ed" x="108" y="307.835694" style="fill: #a9a9a9; stroke: #a9a9a9; stroke-width: 0.8"/>
      </g>
     </g>
     <g id="text_12">
      <!-- 0 -->
      <g style="fill: #a9a9a9" transform="translate(94.6375 311.634913) scale(0.1 -0.1)">
       <use xlink:href="#DejaVuSans-30"/>
      </g>
     </g>
    </g>
    <g id="ytick_2">
     <g id="line2d_25">
      <path d="M 108 279.280453 
L 777.6 279.280453 
" clip-path="url(#p1566baad8b)" style="fill: none; stroke-dasharray: 5.12,1.28,0.8,1.28; stroke-dashoffset: 0; stroke: #b0b0b0; stroke-width: 0.8"/>
     </g>
     <g id="line2d_26">
      <g>
       <use xlink:href="#m2a4009f3ed" x="108" y="279.280453" style="fill: #a9a9a9; stroke: #a9a9a9; stroke-width: 0.8"/>
      </g>
     </g>
     <g id="text_13">
      <!-- 800 -->
      <g style="fill: #a9a9a9" transform="translate(81.9125 283.079672) scale(0.1 -0.1)">
       <defs>
        <path id="DejaVuSans-38" d="M 2034 2216 
Q 1584 2216 1326 1975 
Q 1069 1734 1069 1313 
Q 1069 891 1326 650 
Q 1584 409 2034 409 
Q 2484 409 2743 651 
Q 3003 894 3003 1313 
Q 3003 1734 2745 1975 
Q 2488 2216 2034 2216 
z
M 1403 2484 
Q 997 2584 770 2862 
Q 544 3141 544 3541 
Q 544 4100 942 4425 
Q 1341 4750 2034 4750 
Q 2731 4750 3128 4425 
Q 3525 4100 3525 3541 
Q 3525 3141 3298 2862 
Q 3072 2584 2669 2484 
Q 3125 2378 3379 2068 
Q 3634 1759 3634 1313 
Q 3634 634 3220 271 
Q 2806 -91 2034 -91 
Q 1263 -91 848 271 
Q 434 634 434 1313 
Q 434 1759 690 2068 
Q 947 2378 1403 2484 
z
M 1172 3481 
Q 1172 3119 1398 2916 
Q 1625 2713 2034 2713 
Q 2441 2713 2670 2916 
Q 2900 3119 2900 3481 
Q 2900 3844 2670 4047 
Q 2441 4250 2034 4250 
Q 1625 4250 1398 4047 
Q 1172 3844 1172 3481 
z
" transform="scale(0.015625)"/>
       </defs>
       <use xlink:href="#DejaVuSans-38"/>
       <use xlink:href="#DejaVuSans-30" x="63.623047"/>
       <use xlink:href="#DejaVuSans-30" x="127.246094"/>
      </g>
     </g>
    </g>
    <g id="ytick_3">
     <g id="line2d_27">
      <path d="M 108 250.725212 
L 777.6 250.725212 
" clip-path="url(#p1566baad8b)" style="fill: none; stroke-dasharray: 5.12,1.28,0.8,1.28; stroke-dashoffset: 0; stroke: #b0b0b0; stroke-width: 0.8"/>
     </g>
     <g id="line2d_28">
      <g>
       <use xlink:href="#m2a4009f3ed" x="108" y="250.725212" style="fill: #a9a9a9; stroke: #a9a9a9; stroke-width: 0.8"/>
      </g>
     </g>
     <g id="text_14">
      <!-- 1600 -->
      <g style="fill: #a9a9a9" transform="translate(75.55 254.524431) scale(0.1 -0.1)">
       <defs>
        <path id="DejaVuSans-36" d="M 2113 2584 
Q 1688 2584 1439 2293 
Q 1191 2003 1191 1497 
Q 1191 994 1439 701 
Q 1688 409 2113 409 
Q 2538 409 2786 701 
Q 3034 994 3034 1497 
Q 3034 2003 2786 2293 
Q 2538 2584 2113 2584 
z
M 3366 4563 
L 3366 3988 
Q 3128 4100 2886 4159 
Q 2644 4219 2406 4219 
Q 1781 4219 1451 3797 
Q 1122 3375 1075 2522 
Q 1259 2794 1537 2939 
Q 1816 3084 2150 3084 
Q 2853 3084 3261 2657 
Q 3669 2231 3669 1497 
Q 3669 778 3244 343 
Q 2819 -91 2113 -91 
Q 1303 -91 875 529 
Q 447 1150 447 2328 
Q 447 3434 972 4092 
Q 1497 4750 2381 4750 
Q 2619 4750 2861 4703 
Q 3103 4656 3366 4563 
z
" transform="scale(0.015625)"/>
       </defs>
       <use xlink:href="#DejaVuSans-31"/>
       <use xlink:href="#DejaVuSans-36" x="63.623047"/>
       <use xlink:href="#DejaVuSans-30" x="127.246094"/>
       <use xlink:href="#DejaVuSans-30" x="190.869141"/>
      </g>
     </g>
    </g>
    <g id="ytick_4">
     <g id="line2d_29">
      <path d="M 108 222.169972 
L 777.6 222.169972 
" clip-path="url(#p1566baad8b)" style="fill: none; stroke-dasharray: 5.12,1.28,0.8,1.28; stroke-dashoffset: 0; stroke: #b0b0b0; stroke-width: 0.8"/>
     </g>
     <g id="line2d_30">
      <g>
       <use xlink:href="#m2a4009f3ed" x="108" y="222.169972" style="fill: #a9a9a9; stroke: #a9a9a9; stroke-width: 0.8"/>
      </g>
     </g>
     <g id="text_15">
      <!-- 2400 -->
      <g style="fill: #a9a9a9" transform="translate(75.55 225.96919) scale(0.1 -0.1)">
       <use xlink:href="#DejaVuSans-32"/>
       <use xlink:href="#DejaVuSans-34" x="63.623047"/>
       <use xlink:href="#DejaVuSans-30" x="127.246094"/>
       <use xlink:href="#DejaVuSans-30" x="190.869141"/>
      </g>
     </g>
    </g>
    <g id="ytick_5">
     <g id="line2d_31">
      <path d="M 108 193.614731 
L 777.6 193.614731 
" clip-path="url(#p1566baad8b)" style="fill: none; stroke-dasharray: 5.12,1.28,0.8,1.28; stroke-dashoffset: 0; stroke: #b0b0b0; stroke-width: 0.8"/>
     </g>
     <g id="line2d_32">
      <g>
       <use xlink:href="#m2a4009f3ed" x="108" y="193.614731" style="fill: #a9a9a9; stroke: #a9a9a9; stroke-width: 0.8"/>
      </g>
     </g>
     <g id="text_16">
      <!-- 3200 -->
      <g style="fill: #a9a9a9" transform="translate(75.55 197.41395) scale(0.1 -0.1)">
       <use xlink:href="#DejaVuSans-33"/>
       <use xlink:href="#DejaVuSans-32" x="63.623047"/>
       <use xlink:href="#DejaVuSans-30" x="127.246094"/>
       <use xlink:href="#DejaVuSans-30" x="190.869141"/>
      </g>
     </g>
    </g>
    <g id="ytick_6">
     <g id="line2d_33">
      <path d="M 108 165.05949 
L 777.6 165.05949 
" clip-path="url(#p1566baad8b)" style="fill: none; stroke-dasharray: 5.12,1.28,0.8,1.28; stroke-dashoffset: 0; stroke: #b0b0b0; stroke-width: 0.8"/>
     </g>
     <g id="line2d_34">
      <g>
       <use xlink:href="#m2a4009f3ed" x="108" y="165.05949" style="fill: #a9a9a9; stroke: #a9a9a9; stroke-width: 0.8"/>
      </g>
     </g>
     <g id="text_17">
      <!-- 4000 -->
      <g style="fill: #a9a9a9" transform="translate(75.55 168.858709) scale(0.1 -0.1)">
       <use xlink:href="#DejaVuSans-34"/>
       <use xlink:href="#DejaVuSans-30" x="63.623047"/>
       <use xlink:href="#DejaVuSans-30" x="127.246094"/>
       <use xlink:href="#DejaVuSans-30" x="190.869141"/>
      </g>
     </g>
    </g>
    <g id="ytick_7">
     <g id="line2d_35">
      <path d="M 108 136.504249 
L 777.6 136.504249 
" clip-path="url(#p1566baad8b)" style="fill: none; stroke-dasharray: 5.12,1.28,0.8,1.28; stroke-dashoffset: 0; stroke: #b0b0b0; stroke-width: 0.8"/>
     </g>
     <g id="line2d_36">
      <g>
       <use xlink:href="#m2a4009f3ed" x="108" y="136.504249" style="fill: #a9a9a9; stroke: #a9a9a9; stroke-width: 0.8"/>
      </g>
     </g>
     <g id="text_18">
      <!-- 4800 -->
      <g style="fill: #a9a9a9" transform="translate(75.55 140.303468) scale(0.1 -0.1)">
       <use xlink:href="#DejaVuSans-34"/>
       <use xlink:href="#DejaVuSans-38" x="63.623047"/>
       <use xlink:href="#DejaVuSans-30" x="127.246094"/>
       <use xlink:href="#DejaVuSans-30" x="190.869141"/>
      </g>
     </g>
    </g>
    <g id="ytick_8">
     <g id="line2d_37">
      <path d="M 108 107.949008 
L 777.6 107.949008 
" clip-path="url(#p1566baad8b)" style="fill: none; stroke-dasharray: 5.12,1.28,0.8,1.28; stroke-dashoffset: 0; stroke: #b0b0b0; stroke-width: 0.8"/>
     </g>
     <g id="line2d_38">
      <g>
       <use xlink:href="#m2a4009f3ed" x="108" y="107.949008" style="fill: #a9a9a9; stroke: #a9a9a9; stroke-width: 0.8"/>
      </g>
     </g>
     <g id="text_19">
      <!-- 5600 -->
      <g style="fill: #a9a9a9" transform="translate(75.55 111.748227) scale(0.1 -0.1)">
       <use xlink:href="#DejaVuSans-35"/>
       <use xlink:href="#DejaVuSans-36" x="63.623047"/>
       <use xlink:href="#DejaVuSans-30" x="127.246094"/>
       <use xlink:href="#DejaVuSans-30" x="190.869141"/>
      </g>
     </g>
    </g>
    <g id="ytick_9">
     <g id="line2d_39">
      <path d="M 108 79.393768 
L 777.6 79.393768 
" clip-path="url(#p1566baad8b)" style="fill: none; stroke-dasharray: 5.12,1.28,0.8,1.28; stroke-dashoffset: 0; stroke: #b0b0b0; stroke-width: 0.8"/>
     </g>
     <g id="line2d_40">
      <g>
       <use xlink:href="#m2a4009f3ed" x="108" y="79.393768" style="fill: #a9a9a9; stroke: #a9a9a9; stroke-width: 0.8"/>
      </g>
     </g>
     <g id="text_20">
      <!-- 6400 -->
      <g style="fill: #a9a9a9" transform="translate(75.55 83.192986) scale(0.1 -0.1)">
       <use xlink:href="#DejaVuSans-36"/>
       <use xlink:href="#DejaVuSans-34" x="63.623047"/>
       <use xlink:href="#DejaVuSans-30" x="127.246094"/>
       <use xlink:href="#DejaVuSans-30" x="190.869141"/>
      </g>
     </g>
    </g>
    <g id="ytick_10">
     <g id="line2d_41">
      <path d="M 108 50.838527 
L 777.6 50.838527 
" clip-path="url(#p1566baad8b)" style="fill: none; stroke-dasharray: 5.12,1.28,0.8,1.28; stroke-dashoffset: 0; stroke: #b0b0b0; stroke-width: 0.8"/>
     </g>
     <g id="line2d_42">
      <g>
       <use xlink:href="#m2a4009f3ed" x="108" y="50.838527" style="fill: #a9a9a9; stroke: #a9a9a9; stroke-width: 0.8"/>
      </g>
     </g>
     <g id="text_21">
      <!-- 7200 -->
      <g style="fill: #a9a9a9" transform="translate(75.55 54.637746) scale(0.1 -0.1)">
       <defs>
        <path id="DejaVuSans-37" d="M 525 4666 
L 3525 4666 
L 3525 4397 
L 1831 0 
L 1172 0 
L 2766 4134 
L 525 4134 
L 525 4666 
z
" transform="scale(0.015625)"/>
       </defs>
       <use xlink:href="#DejaVuSans-37"/>
       <use xlink:href="#DejaVuSans-32" x="63.623047"/>
       <use xlink:href="#DejaVuSans-30" x="127.246094"/>
       <use xlink:href="#DejaVuSans-30" x="190.869141"/>
      </g>
     </g>
    </g>
   </g>
   <g id="line2d_43">
    <path d="M 138.436364 307.728612 
L 141.39614 307.478754 
L 141.889436 307.264589 
L 143.86262 307.014731 
L 145.835804 306.622096 
L 146.822396 306.47932 
L 149.288876 306.265156 
L 150.275468 305.872521 
L 150.768764 305.230028 
L 151.26206 304.873088 
L 151.755356 303.766572 
L 152.248652 303.695184 
L 152.741948 303.30255 
L 153.72854 302.802833 
L 155.701724 301.232295 
L 157.674908 300.268555 
L 159.154796 299.590368 
L 159.648092 298.805099 
L 160.634684 298.091218 
L 161.12798 297.877054 
L 166.06094 297.163173 
L 166.554236 296.949008 
L 170.007308 296.663456 
L 171.980492 296.199433 
L 175.92686 295.664023 
L 176.420156 295.414164 
L 176.913452 295.342776 
L 177.900044 295.02153 
L 181.353116 294.450425 
L 182.339708 294.164873 
L 186.779372 293.415297 
L 187.765964 293.201133 
L 188.752556 293.165439 
L 190.72574 292.701416 
L 191.219036 292.023229 
L 192.698924 291.452125 
L 194.178812 291.05949 
L 194.672108 290.809632 
L 195.6587 290.631161 
L 197.631884 290.060057 
L 198.618476 289.988669 
L 199.605069 289.73881 
L 201.578253 289.239093 
L 202.071549 289.203399 
L 203.058141 288.739377 
L 203.551437 288.667989 
L 204.044733 288.41813 
L 209.470989 287.525779 
L 211.444173 286.954674 
L 211.937469 286.633428 
L 214.403949 285.812465 
L 215.390541 285.134278 
L 216.870429 284.848725 
L 229.696125 281.243626 
L 230.189421 281.243626 
L 230.682717 281.029462 
L 231.669309 280.92238 
L 232.162605 280.743909 
L 234.135789 280.636827 
L 235.122381 280.458357 
L 236.108973 279.95864 
L 237.588861 279.423229 
L 238.082157 279.101983 
L 239.068749 278.673654 
L 239.562045 278.423796 
L 240.548637 278.10255 
L 241.041933 277.959773 
L 242.028525 277.352975 
L 242.521821 276.817564 
L 243.508413 275.318414 
L 244.001709 275.175637 
L 244.495005 275.175637 
L 245.974893 274.31898 
L 246.468189 274.069122 
L 246.961485 273.96204 
L 247.454781 273.498017 
L 248.441373 273.105382 
L 249.427965 272.64136 
L 249.921261 272.034561 
L 250.414557 271.249292 
L 250.907853 270.928045 
L 251.401149 270.071388 
L 251.894445 269.535977 
L 254.854221 267.965439 
L 255.840813 267.18017 
L 256.334109 266.858924 
L 256.827405 266.109348 
L 257.320701 265.002833 
L 257.813997 264.253258 
L 258.307293 263.860623 
L 258.800589 263.646459 
L 262.253661 260.719547 
L 263.240253 259.541643 
L 264.226845 258.827762 
L 266.693325 257.328612 
L 267.679917 256.793201 
L 269.653102 255.758074 
L 272.119582 253.545042 
L 273.106174 253.152408 
L 274.092766 252.474221 
L 274.586062 252.188669 
L 275.079358 252.11728 
L 276.559246 251.296317 
L 277.052542 250.760907 
L 279.519022 249.440227 
L 280.012318 249.261756 
L 281.492206 248.262323 
L 288.891646 245.656657 
L 289.878238 244.764306 
L 290.86483 244.300283 
L 291.851422 243.764873 
L 292.344718 243.47932 
L 293.33131 243.193768 
L 293.824606 242.872521 
L 294.317902 242.729745 
L 295.79779 241.766006 
L 298.26427 241.194901 
L 299.744158 240.338244 
L 301.224046 240.016997 
L 301.717342 239.874221 
L 303.19723 238.767705 
L 305.170414 238.232295 
L 305.66371 237.83966 
L 308.623486 236.840227 
L 309.610078 236.661756 
L 310.59667 236.269122 
L 314.049742 235.01983 
L 315.036334 234.877054 
L 316.516222 234.377337 
L 318.982702 233.199433 
L 320.955886 232.128612 
L 324.902254 230.52238 
L 325.39555 230.450992 
L 326.382142 229.844193 
L 326.875438 229.772805 
L 328.848622 228.951841 
L 330.821806 228.701983 
L 331.808398 228.202266 
L 332.301694 227.773938 
L 332.79499 226.881586 
L 334.768174 226.346176 
L 336.248062 225.596601 
L 336.741358 225.489518 
L 340.687727 223.597734 
L 342.167615 223.312181 
L 343.154207 222.812465 
L 343.647503 222.5983 
L 344.140799 222.526912 
L 346.113983 221.634561 
L 347.593871 220.706516 
L 349.073759 220.420963 
L 351.540239 219.814164 
L 352.033535 219.42153 
L 353.513423 218.886119 
L 355.486607 218.10085 
L 355.979903 217.743909 
L 356.473199 217.565439 
L 357.459791 217.030028 
L 359.926271 216.209065 
L 361.406159 215.031161 
L 361.899455 214.924079 
L 362.886047 214.13881 
L 363.379343 214.067422 
L 363.872639 213.282153 
L 364.365935 213.067989 
L 364.859231 212.675354 
L 365.352527 212.603966 
L 366.339119 211.997167 
L 367.325711 211.675921 
L 367.819007 211.31898 
L 368.312303 211.14051 
L 369.792191 210.105382 
L 371.765375 209.070255 
L 372.258671 208.998867 
L 373.738559 208.249292 
L 374.231855 207.428329 
L 375.218447 206.714448 
L 375.711743 206.607365 
L 376.698335 206.000567 
L 377.191631 205.893484 
L 378.178223 205.393768 
L 380.151407 204.430028 
L 380.644703 204.073088 
L 381.631295 203.109348 
L 382.617887 202.50255 
L 383.111183 202.181303 
L 383.604479 201.645892 
L 385.577663 200.289518 
L 386.070959 199.718414 
L 386.564255 199.325779 
L 387.550847 198.968839 
L 388.537439 198.290652 
L 390.017327 197.541076 
L 390.510623 197.469688 
L 391.990511 196.684419 
L 392.977103 196.07762 
L 397.910063 194.292918 
L 398.403359 193.900283 
L 400.376543 193.150708 
L 400.869839 193.007932 
L 401.363135 192.615297 
L 403.829615 191.258924 
L 404.816207 189.295751 
L 405.802799 188.153541 
L 407.282687 187.403966 
L 408.26928 187.011331 
L 408.762576 186.939943 
L 409.255872 186.654391 
L 411.722352 185.869122 
L 412.215648 185.654958 
L 413.20224 184.976771 
L 414.682128 184.334278 
L 415.66872 183.798867 
L 416.162016 183.441926 
L 416.655312 183.227762 
L 417.148608 182.870822 
L 417.641904 182.335411 
L 418.628496 181.8 
L 421.094976 180.47932 
L 424.054752 179.015864 
L 425.53464 178.587535 
L 427.014528 178.016431 
L 427.507824 177.65949 
L 428.494416 177.373938 
L 429.481008 176.981303 
L 429.974304 176.588669 
L 431.947488 175.910482 
L 432.93408 175.196601 
L 433.920672 174.768272 
L 434.907264 173.983003 
L 435.893856 173.626062 
L 436.387152 173.197734 
L 436.880448 173.126346 
L 437.86704 172.376771 
L 438.853632 171.877054 
L 439.346928 171.66289 
L 439.840224 171.163173 
L 443.293296 169.806799 
L 444.279888 169.37847 
L 445.759776 168.914448 
L 446.746368 168.771671 
L 447.239664 168.557507 
L 447.73296 168.486119 
L 448.719552 168.05779 
L 449.212848 168.022096 
L 451.186032 167.272521 
L 452.66592 166.237394 
L 453.159216 166.058924 
L 454.145808 165.523513 
L 454.639104 165.380737 
L 457.59888 163.73881 
L 458.092176 163.631728 
L 459.572064 162.775071 
L 461.051952 162.275354 
L 462.038544 161.954108 
L 464.011728 161.311615 
L 464.99832 160.990368 
L 466.971504 160.597734 
L 467.4648 160.383569 
L 467.958096 160.312181 
L 468.944688 159.883853 
L 469.437984 159.812465 
L 469.93128 159.562606 
L 470.917872 159.384136 
L 472.39776 158.848725 
L 473.384352 158.741643 
L 474.86424 158.420397 
L 477.33072 157.992068 
L 490.156417 154.279887 
L 490.649713 153.78017 
L 491.636305 153.387535 
L 495.582673 151.924079 
L 496.075969 151.638527 
L 497.555857 151.210198 
L 498.542449 150.96034 
L 499.035745 150.639093 
L 499.529041 150.532011 
L 500.022337 150.103683 
L 501.502225 149.81813 
L 502.488817 149.354108 
L 502.982113 148.783003 
L 504.955297 148.31898 
L 508.408369 147.605099 
L 508.901665 147.605099 
L 509.394961 147.390935 
L 511.368145 147.033994 
L 511.861441 146.81983 
L 513.834625 146.46289 
L 514.821217 146.034561 
L 515.807809 145.856091 
L 518.274289 145.249292 
L 520.247473 144.642493 
L 520.740769 144.535411 
L 521.234065 144.285552 
L 522.220657 144.035694 
L 522.713953 143.750142 
L 524.193841 143.250425 
L 524.687137 142.929178 
L 525.673729 142.643626 
L 526.660321 142.32238 
L 527.646913 141.929745 
L 529.126801 141.287252 
L 531.099985 141.037394 
L 535.046353 139.645326 
L 535.539649 139.288385 
L 536.032945 139.181303 
L 536.526241 138.931445 
L 537.019537 138.895751 
L 542.445793 137.003966 
L 544.912273 136.361473 
L 545.898865 135.89745 
L 547.378753 135.576204 
L 547.87205 135.183569 
L 548.365346 134.933711 
L 548.858642 134.326912 
L 549.351938 133.969972 
L 550.33853 133.684419 
L 550.831826 133.291785 
L 553.791602 132.185269 
L 554.284898 131.864023 
L 555.27149 131.57847 
L 555.764786 131.257224 
L 558.231266 130.471955 
L 559.711154 129.615297 
L 560.20445 129.508215 
L 562.67093 128.187535 
L 564.150818 127.545042 
L 564.644114 127.188102 
L 565.630706 126.866856 
L 566.617298 126.295751 
L 567.110594 126.11728 
L 567.60389 125.76034 
L 574.016738 123.511615 
L 574.510034 123.404533 
L 575.00333 123.083286 
L 576.976514 122.690652 
L 577.963106 122.298017 
L 580.922882 120.870255 
L 581.416178 120.798867 
L 582.896066 119.977904 
L 584.375954 119.478187 
L 587.829026 118.086119 
L 588.322322 117.943343 
L 588.815618 117.622096 
L 589.80221 117.515014 
L 590.295506 117.193768 
L 591.282098 117.015297 
L 592.26869 116.551275 
L 592.761986 116.33711 
L 593.255282 116.265722 
L 595.721762 115.301983 
L 597.20165 114.909348 
L 598.188242 114.65949 
L 599.66813 114.231161 
L 600.654722 113.838527 
L 602.627906 112.767705 
L 603.614498 112.375071 
L 604.107794 112.053824 
L 605.094386 111.83966 
L 605.587682 111.554108 
L 606.080978 111.447025 
L 607.560866 110.626062 
L 608.547458 110.233428 
L 610.520642 109.483853 
L 612.987122 108.66289 
L 613.973714 108.163173 
L 616.440194 107.34221 
L 619.399971 106.164306 
L 621.373155 105.271955 
L 626.306115 103.38017 
L 626.799411 103.058924 
L 628.772595 102.380737 
L 629.265891 102.380737 
L 630.252483 101.952408 
L 631.239075 101.060057 
L 631.732371 100.631728 
L 633.212259 99.917847 
L 633.705555 99.810765 
L 634.198851 99.560907 
L 634.692147 99.489518 
L 635.185443 99.132578 
L 635.678739 99.025496 
L 636.665331 98.418697 
L 638.145219 97.669122 
L 639.131811 97.276487 
L 639.625107 97.026629 
L 641.104995 96.705382 
L 643.571475 95.884419 
L 644.558067 95.563173 
L 646.037955 94.813598 
L 647.024547 94.349575 
L 648.011139 94.099717 
L 649.491027 93.42153 
L 653.930691 91.779603 
L 655.410579 90.887252 
L 655.903875 90.78017 
L 656.890467 90.280453 
L 657.877059 89.923513 
L 658.370355 89.495184 
L 659.356947 89.10255 
L 660.836835 88.495751 
L 661.330131 88.103116 
L 661.823427 88.067422 
L 662.810019 87.78187 
L 663.796611 87.460623 
L 664.289907 87.210765 
L 664.783203 87.139377 
L 666.263091 86.603966 
L 667.742979 86.068555 
L 668.729571 85.675921 
L 669.222867 85.283286 
L 670.702755 84.890652 
L 671.196051 84.605099 
L 672.182643 84.355241 
L 673.662531 83.534278 
L 674.155827 83.498584 
L 675.635715 83.034561 
L 676.622307 82.963173 
L 677.608899 82.570538 
L 680.568675 81.713881 
L 681.555267 81.678187 
L 685.501635 80.428895 
L 686.488227 79.893484 
L 686.981524 79.465156 
L 688.461412 78.608499 
L 689.448004 78.0017 
L 692.40778 77.073654 
L 692.901076 76.68102 
L 695.860852 75.467422 
L 697.834036 74.932011 
L 698.820628 74.503683 
L 699.313924 74.253824 
L 700.300516 73.968272 
L 700.793812 73.647025 
L 701.780404 73.468555 
L 704.246884 72.326346 
L 704.74018 72.040793 
L 706.220068 71.683853 
L 706.713364 71.362606 
L 707.20666 71.184136 
L 707.699956 70.755807 
L 708.193252 70.684419 
L 710.659732 69.72068 
L 712.13962 69.399433 
L 712.632916 69.328045 
L 713.126212 69.113881 
L 713.619508 69.078187 
L 714.6061 68.756941 
L 715.099396 68.721246 
L 716.579284 68.150142 
L 718.552468 67.579037 
L 719.53906 66.793768 
L 721.512244 65.722946 
L 722.992132 65.223229 
L 725.951908 63.90255 
L 726.9385 63.367139 
L 727.431796 63.11728 
L 727.925092 62.653258 
L 730.884868 61.689518 
L 731.87146 61.296884 
L 732.858052 61.011331 
L 733.351348 60.761473 
L 733.844644 60.29745 
L 735.817828 59.797734 
L 736.311124 59.440793 
L 744.697156 56.513881 
L 745.190452 56.442493 
L 745.683748 56.192635 
L 746.177044 56.085552 
L 746.67034 55.835694 
L 747.163636 55.8 
L 747.163636 55.8 
" clip-path="url(#p1566baad8b)" style="fill: none; stroke: #1f77b4; stroke-width: 1.5; stroke-linecap: square"/>
   </g>
   <g id="line2d_44">
    <path d="M 138.92966 307.8 
L 143.369324 307.692918 
L 147.315692 307.514448 
L 149.288876 307.514448 
L 149.782172 307.371671 
L 152.248652 307.264589 
L 155.208428 306.943343 
L 158.168204 306.836261 
L 159.154796 306.729178 
L 162.607868 306.586402 
L 166.06094 306.47932 
L 168.52742 306.407932 
L 174.940268 306.30085 
L 177.406748 306.229462 
L 180.85982 306.12238 
L 183.3263 306.050992 
L 188.752556 305.943909 
L 190.72574 305.765439 
L 192.698924 305.729745 
L 195.6587 305.622663 
L 197.631884 305.586969 
L 200.098365 305.515581 
L 202.071549 305.33711 
L 206.511213 305.230028 
L 207.497805 305.15864 
L 209.470989 305.051558 
L 212.430765 304.944476 
L 214.403949 304.837394 
L 223.283277 304.301983 
L 226.736349 304.194901 
L 228.216237 304.052125 
L 230.682717 303.945042 
L 235.615677 303.695184 
L 240.548637 303.623796 
L 242.521821 303.409632 
L 244.495005 303.30255 
L 249.921261 302.802833 
L 253.374333 302.410198 
L 254.854221 302.33881 
L 259.293885 301.803399 
L 261.760365 301.732011 
L 263.240253 301.589235 
L 264.720141 301.482153 
L 278.53243 300.447025 
L 279.519022 300.268555 
L 282.478798 300.161473 
L 290.371534 299.69745 
L 293.824606 299.590368 
L 295.79779 299.376204 
L 298.26427 299.269122 
L 301.224046 299.16204 
L 303.690526 299.054958 
L 305.66371 299.019263 
L 308.13019 298.947875 
L 309.116782 298.805099 
L 316.022926 298.698017 
L 317.009518 298.590935 
L 322.92907 298.483853 
L 327.368734 298.269688 
L 330.821806 298.162606 
L 332.79499 297.948442 
L 336.248062 297.84136 
L 337.234654 297.66289 
L 339.701135 297.591501 
L 344.634095 297.520113 
L 347.100575 297.270255 
L 350.060351 297.163173 
L 352.033535 296.984703 
L 356.966495 296.734844 
L 361.899455 296.627762 
L 366.339119 296.413598 
L 367.819007 296.377904 
L 368.805599 296.235127 
L 371.272079 296.128045 
L 372.258671 296.056657 
L 373.245263 295.985269 
L 374.231855 295.913881 
L 378.671519 295.842493 
L 380.151407 295.735411 
L 393.470399 294.878754 
L 395.936879 294.771671 
L 398.403359 294.700283 
L 405.309503 294.593201 
L 406.296095 294.450425 
L 413.20224 294.343343 
L 418.1352 294.093484 
L 419.121792 294.05779 
L 420.108384 293.950708 
L 422.574864 293.843626 
L 425.041344 293.772238 
L 427.507824 293.665156 
L 429.974304 293.593768 
L 434.413968 293.486686 
L 437.373744 293.379603 
L 444.279888 293.272521 
L 449.706144 292.986969 
L 451.679328 292.915581 
L 453.159216 292.808499 
L 460.06536 292.701416 
L 463.025136 292.594334 
L 471.904464 292.487252 
L 473.877648 292.451558 
L 479.797201 292.38017 
L 480.783793 292.308782 
L 487.689937 292.2017 
L 489.663121 292.166006 
L 502.488817 292.058924 
L 503.968705 291.916147 
L 526.167025 291.809065 
L 528.633505 291.737677 
L 541.459201 291.630595 
L 542.445793 291.559207 
L 544.912273 291.487819 
L 546.392161 291.345042 
L 549.351938 291.23796 
L 552.80501 291.095184 
L 557.244674 290.988102 
L 559.711154 290.916714 
L 563.164226 290.809632 
L 567.110594 290.631161 
L 569.577074 290.524079 
L 571.550258 290.488385 
L 575.989922 290.381303 
L 577.963106 290.345609 
L 584.375954 290.238527 
L 586.349138 290.202833 
L 588.815618 290.095751 
L 591.775394 289.988669 
L 595.228466 289.91728 
L 596.215058 289.845892 
L 608.054162 289.73881 
L 614.46701 289.38187 
L 616.93349 289.310482 
L 617.920083 289.203399 
L 618.906675 289.132011 
L 622.853043 289.024929 
L 625.812819 288.917847 
L 630.745779 288.810765 
L 633.212259 288.560907 
L 638.145219 288.453824 
L 639.131811 288.346742 
L 644.064771 288.23966 
L 646.531251 288.168272 
L 651.957507 288.132578 
L 652.944099 288.025496 
L 658.370355 287.918414 
L 659.356947 287.847025 
L 670.209459 287.739943 
L 673.169235 287.632861 
L 680.568675 287.525779 
L 682.541859 287.490085 
L 686.981524 287.418697 
L 687.968116 287.311615 
L 693.887668 287.204533 
L 696.847444 287.09745 
L 705.726772 286.990368 
L 707.20666 286.883286 
L 708.686548 286.776204 
L 710.166436 286.669122 
L 717.565876 286.56204 
L 721.018948 286.419263 
L 733.844644 286.312181 
L 738.284308 286.098017 
L 743.710564 285.990935 
L 747.163636 285.776771 
L 747.163636 285.776771 
" clip-path="url(#p1566baad8b)" style="fill: none; stroke: #ff7f0e; stroke-width: 1.5; stroke-linecap: square"/>
   </g>
   <g id="patch_3">
    <path d="M 108 320.4 
L 108 43.2 
" style="fill: none; stroke: #a9a9a9; stroke-width: 0.8; stroke-linejoin: miter; stroke-linecap: square"/>
   </g>
   <g id="patch_4">
    <path d="M 777.6 320.4 
L 777.6 43.2 
" style="fill: none"/>
   </g>
   <g id="patch_5">
    <path d="M 108 320.4 
L 777.6 320.4 
" style="fill: none; stroke: #a9a9a9; stroke-width: 0.8; stroke-linejoin: miter; stroke-linecap: square"/>
   </g>
   <g id="patch_6">
    <path d="M 108 43.2 
L 777.6 43.2 
" style="fill: none"/>
   </g>
   <g id="text_22">
    <!-- get_subscribe history -->
    <g style="fill: #a9a9a9" transform="translate(378.6075 37.2) scale(0.12 -0.12)">
     <defs>
      <path id="DejaVuSans-67" d="M 2906 1791 
Q 2906 2416 2648 2759 
Q 2391 3103 1925 3103 
Q 1463 3103 1205 2759 
Q 947 2416 947 1791 
Q 947 1169 1205 825 
Q 1463 481 1925 481 
Q 2391 481 2648 825 
Q 2906 1169 2906 1791 
z
M 3481 434 
Q 3481 -459 3084 -895 
Q 2688 -1331 1869 -1331 
Q 1566 -1331 1297 -1286 
Q 1028 -1241 775 -1147 
L 775 -588 
Q 1028 -725 1275 -790 
Q 1522 -856 1778 -856 
Q 2344 -856 2625 -561 
Q 2906 -266 2906 331 
L 2906 616 
Q 2728 306 2450 153 
Q 2172 0 1784 0 
Q 1141 0 747 490 
Q 353 981 353 1791 
Q 353 2603 747 3093 
Q 1141 3584 1784 3584 
Q 2172 3584 2450 3431 
Q 2728 3278 2906 2969 
L 2906 3500 
L 3481 3500 
L 3481 434 
z
" transform="scale(0.015625)"/>
      <path id="DejaVuSans-65" d="M 3597 1894 
L 3597 1613 
L 953 1613 
Q 991 1019 1311 708 
Q 1631 397 2203 397 
Q 2534 397 2845 478 
Q 3156 559 3463 722 
L 3463 178 
Q 3153 47 2828 -22 
Q 2503 -91 2169 -91 
Q 1331 -91 842 396 
Q 353 884 353 1716 
Q 353 2575 817 3079 
Q 1281 3584 2069 3584 
Q 2775 3584 3186 3129 
Q 3597 2675 3597 1894 
z
M 3022 2063 
Q 3016 2534 2758 2815 
Q 2500 3097 2075 3097 
Q 1594 3097 1305 2825 
Q 1016 2553 972 2059 
L 3022 2063 
z
" transform="scale(0.015625)"/>
      <path id="DejaVuSans-74" d="M 1172 4494 
L 1172 3500 
L 2356 3500 
L 2356 3053 
L 1172 3053 
L 1172 1153 
Q 1172 725 1289 603 
Q 1406 481 1766 481 
L 2356 481 
L 2356 0 
L 1766 0 
Q 1100 0 847 248 
Q 594 497 594 1153 
L 594 3053 
L 172 3053 
L 172 3500 
L 594 3500 
L 594 4494 
L 1172 4494 
z
" transform="scale(0.015625)"/>
      <path id="DejaVuSans-5f" d="M 3263 -1063 
L 3263 -1509 
L -63 -1509 
L -63 -1063 
L 3263 -1063 
z
" transform="scale(0.015625)"/>
      <path id="DejaVuSans-73" d="M 2834 3397 
L 2834 2853 
Q 2591 2978 2328 3040 
Q 2066 3103 1784 3103 
Q 1356 3103 1142 2972 
Q 928 2841 928 2578 
Q 928 2378 1081 2264 
Q 1234 2150 1697 2047 
L 1894 2003 
Q 2506 1872 2764 1633 
Q 3022 1394 3022 966 
Q 3022 478 2636 193 
Q 2250 -91 1575 -91 
Q 1294 -91 989 -36 
Q 684 19 347 128 
L 347 722 
Q 666 556 975 473 
Q 1284 391 1588 391 
Q 1994 391 2212 530 
Q 2431 669 2431 922 
Q 2431 1156 2273 1281 
Q 2116 1406 1581 1522 
L 1381 1569 
Q 847 1681 609 1914 
Q 372 2147 372 2553 
Q 372 3047 722 3315 
Q 1072 3584 1716 3584 
Q 2034 3584 2315 3537 
Q 2597 3491 2834 3397 
z
" transform="scale(0.015625)"/>
      <path id="DejaVuSans-75" d="M 544 1381 
L 544 3500 
L 1119 3500 
L 1119 1403 
Q 1119 906 1312 657 
Q 1506 409 1894 409 
Q 2359 409 2629 706 
Q 2900 1003 2900 1516 
L 2900 3500 
L 3475 3500 
L 3475 0 
L 2900 0 
L 2900 538 
Q 2691 219 2414 64 
Q 2138 -91 1772 -91 
Q 1169 -91 856 284 
Q 544 659 544 1381 
z
M 1991 3584 
L 1991 3584 
z
" transform="scale(0.015625)"/>
      <path id="DejaVuSans-62" d="M 3116 1747 
Q 3116 2381 2855 2742 
Q 2594 3103 2138 3103 
Q 1681 3103 1420 2742 
Q 1159 2381 1159 1747 
Q 1159 1113 1420 752 
Q 1681 391 2138 391 
Q 2594 391 2855 752 
Q 3116 1113 3116 1747 
z
M 1159 2969 
Q 1341 3281 1617 3432 
Q 1894 3584 2278 3584 
Q 2916 3584 3314 3078 
Q 3713 2572 3713 1747 
Q 3713 922 3314 415 
Q 2916 -91 2278 -91 
Q 1894 -91 1617 61 
Q 1341 213 1159 525 
L 1159 0 
L 581 0 
L 581 4863 
L 1159 4863 
L 1159 2969 
z
" transform="scale(0.015625)"/>
      <path id="DejaVuSans-63" d="M 3122 3366 
L 3122 2828 
Q 2878 2963 2633 3030 
Q 2388 3097 2138 3097 
Q 1578 3097 1268 2742 
Q 959 2388 959 1747 
Q 959 1106 1268 751 
Q 1578 397 2138 397 
Q 2388 397 2633 464 
Q 2878 531 3122 666 
L 3122 134 
Q 2881 22 2623 -34 
Q 2366 -91 2075 -91 
Q 1284 -91 818 406 
Q 353 903 353 1747 
Q 353 2603 823 3093 
Q 1294 3584 2113 3584 
Q 2378 3584 2631 3529 
Q 2884 3475 3122 3366 
z
" transform="scale(0.015625)"/>
      <path id="DejaVuSans-72" d="M 2631 2963 
Q 2534 3019 2420 3045 
Q 2306 3072 2169 3072 
Q 1681 3072 1420 2755 
Q 1159 2438 1159 1844 
L 1159 0 
L 581 0 
L 581 3500 
L 1159 3500 
L 1159 2956 
Q 1341 3275 1631 3429 
Q 1922 3584 2338 3584 
Q 2397 3584 2469 3576 
Q 2541 3569 2628 3553 
L 2631 2963 
z
" transform="scale(0.015625)"/>
      <path id="DejaVuSans-69" d="M 603 3500 
L 1178 3500 
L 1178 0 
L 603 0 
L 603 3500 
z
M 603 4863 
L 1178 4863 
L 1178 4134 
L 603 4134 
L 603 4863 
z
" transform="scale(0.015625)"/>
      <path id="DejaVuSans-20" transform="scale(0.015625)"/>
      <path id="DejaVuSans-68" d="M 3513 2113 
L 3513 0 
L 2938 0 
L 2938 2094 
Q 2938 2591 2744 2837 
Q 2550 3084 2163 3084 
Q 1697 3084 1428 2787 
Q 1159 2491 1159 1978 
L 1159 0 
L 581 0 
L 581 4863 
L 1159 4863 
L 1159 2956 
Q 1366 3272 1645 3428 
Q 1925 3584 2291 3584 
Q 2894 3584 3203 3211 
Q 3513 2838 3513 2113 
z
" transform="scale(0.015625)"/>
      <path id="DejaVuSans-6f" d="M 1959 3097 
Q 1497 3097 1228 2736 
Q 959 2375 959 1747 
Q 959 1119 1226 758 
Q 1494 397 1959 397 
Q 2419 397 2687 759 
Q 2956 1122 2956 1747 
Q 2956 2369 2687 2733 
Q 2419 3097 1959 3097 
z
M 1959 3584 
Q 2709 3584 3137 3096 
Q 3566 2609 3566 1747 
Q 3566 888 3137 398 
Q 2709 -91 1959 -91 
Q 1206 -91 779 398 
Q 353 888 353 1747 
Q 353 2609 779 3096 
Q 1206 3584 1959 3584 
z
" transform="scale(0.015625)"/>
      <path id="DejaVuSans-79" d="M 2059 -325 
Q 1816 -950 1584 -1140 
Q 1353 -1331 966 -1331 
L 506 -1331 
L 506 -850 
L 844 -850 
Q 1081 -850 1212 -737 
Q 1344 -625 1503 -206 
L 1606 56 
L 191 3500 
L 800 3500 
L 1894 763 
L 2988 3500 
L 3597 3500 
L 2059 -325 
z
" transform="scale(0.015625)"/>
     </defs>
     <use xlink:href="#DejaVuSans-67"/>
     <use xlink:href="#DejaVuSans-65" x="63.476562"/>
     <use xlink:href="#DejaVuSans-74" x="125"/>
     <use xlink:href="#DejaVuSans-5f" x="164.208984"/>
     <use xlink:href="#DejaVuSans-73" x="214.208984"/>
     <use xlink:href="#DejaVuSans-75" x="266.308594"/>
     <use xlink:href="#DejaVuSans-62" x="329.6875"/>
     <use xlink:href="#DejaVuSans-73" x="393.164062"/>
     <use xlink:href="#DejaVuSans-63" x="445.263672"/>
     <use xlink:href="#DejaVuSans-72" x="500.244141"/>
     <use xlink:href="#DejaVuSans-69" x="541.357422"/>
     <use xlink:href="#DejaVuSans-62" x="569.140625"/>
     <use xlink:href="#DejaVuSans-65" x="632.617188"/>
     <use xlink:href="#DejaVuSans-20" x="694.140625"/>
     <use xlink:href="#DejaVuSans-68" x="725.927734"/>
     <use xlink:href="#DejaVuSans-69" x="789.306641"/>
     <use xlink:href="#DejaVuSans-73" x="817.089844"/>
     <use xlink:href="#DejaVuSans-74" x="869.189453"/>
     <use xlink:href="#DejaVuSans-6f" x="908.398438"/>
     <use xlink:href="#DejaVuSans-72" x="969.580078"/>
     <use xlink:href="#DejaVuSans-79" x="1010.693359"/>
    </g>
   </g>
   <g id="legend_1">
    <g id="line2d_45">
     <path d="M 815.08 328.498438 
L 825.08 328.498438 
L 835.08 328.498438 
" style="fill: none; stroke: #1f77b4; stroke-width: 1.5; stroke-linecap: square"/>
    </g>
    <g id="text_23">
     <!-- star -->
     <g style="fill: #a9a9a9" transform="translate(843.08 331.998438) scale(0.1 -0.1)">
      <defs>
       <path id="DejaVuSans-61" d="M 2194 1759 
Q 1497 1759 1228 1600 
Q 959 1441 959 1056 
Q 959 750 1161 570 
Q 1363 391 1709 391 
Q 2188 391 2477 730 
Q 2766 1069 2766 1631 
L 2766 1759 
L 2194 1759 
z
M 3341 1997 
L 3341 0 
L 2766 0 
L 2766 531 
Q 2569 213 2275 61 
Q 1981 -91 1556 -91 
Q 1019 -91 701 211 
Q 384 513 384 1019 
Q 384 1609 779 1909 
Q 1175 2209 1959 2209 
L 2766 2209 
L 2766 2266 
Q 2766 2663 2505 2880 
Q 2244 3097 1772 3097 
Q 1472 3097 1187 3025 
Q 903 2953 641 2809 
L 641 3341 
Q 956 3463 1253 3523 
Q 1550 3584 1831 3584 
Q 2591 3584 2966 3190 
Q 3341 2797 3341 1997 
z
" transform="scale(0.015625)"/>
      </defs>
      <use xlink:href="#DejaVuSans-73"/>
      <use xlink:href="#DejaVuSans-74" x="52.099609"/>
      <use xlink:href="#DejaVuSans-61" x="91.308594"/>
      <use xlink:href="#DejaVuSans-72" x="152.587891"/>
     </g>
    </g>
    <g id="line2d_46">
     <path d="M 815.08 343.176562 
L 825.08 343.176562 
L 835.08 343.176562 
" style="fill: none; stroke: #ff7f0e; stroke-width: 1.5; stroke-linecap: square"/>
    </g>
    <g id="text_24">
     <!-- fork -->
     <g style="fill: #a9a9a9" transform="translate(843.08 346.676562) scale(0.1 -0.1)">
      <defs>
       <path id="DejaVuSans-66" d="M 2375 4863 
L 2375 4384 
L 1825 4384 
Q 1516 4384 1395 4259 
Q 1275 4134 1275 3809 
L 1275 3500 
L 2222 3500 
L 2222 3053 
L 1275 3053 
L 1275 0 
L 697 0 
L 697 3053 
L 147 3053 
L 147 3500 
L 697 3500 
L 697 3744 
Q 697 4328 969 4595 
Q 1241 4863 1831 4863 
L 2375 4863 
z
" transform="scale(0.015625)"/>
       <path id="DejaVuSans-6b" d="M 581 4863 
L 1159 4863 
L 1159 1991 
L 2875 3500 
L 3609 3500 
L 1753 1863 
L 3688 0 
L 2938 0 
L 1159 1709 
L 1159 0 
L 581 0 
L 581 4863 
z
" transform="scale(0.015625)"/>
      </defs>
      <use xlink:href="#DejaVuSans-66"/>
      <use xlink:href="#DejaVuSans-6f" x="35.205078"/>
      <use xlink:href="#DejaVuSans-72" x="96.386719"/>
      <use xlink:href="#DejaVuSans-6b" x="137.5"/>
     </g>
    </g>
   </g>
  </g>
 </g>
 <defs>
  <clipPath id="p1566baad8b">
   <rect x="108" y="43.2" width="669.6" height="277.2"/>
  </clipPath>
 </defs>
</svg>
