<?xml version="1.0" encoding="utf-8" standalone="no"?>
<!DOCTYPE svg PUBLIC "-//W3C//DTD SVG 1.1//EN"
  "http://www.w3.org/Graphics/SVG/1.1/DTD/svg11.dtd">
<svg xmlns:xlink="http://www.w3.org/1999/xlink" width="864pt" height="360pt" viewBox="0 0 864 360" xmlns="http://www.w3.org/2000/svg" version="1.1">
 <metadata>
  <rdf:RDF xmlns:dc="http://purl.org/dc/elements/1.1/" xmlns:cc="http://creativecommons.org/ns#" xmlns:rdf="http://www.w3.org/1999/02/22-rdf-syntax-ns#">
   <cc:Work>
    <dc:type rdf:resource="http://purl.org/dc/dcmitype/StillImage"/>
    <dc:date>2025-01-04T02:20:56.152898</dc:date>
    <dc:format>image/svg+xml</dc:format>
    <dc:creator>
     <cc:Agent>
      <dc:title>Matplotlib v3.10.0, https://matplotlib.org/</dc:title>
     </cc:Agent>
    </dc:creator>
   </cc:Work>
  </rdf:RDF>
 </metadata>
 <defs>
  <style type="text/css">*{stroke-linejoin: round; stroke-linecap: butt}</style>
 </defs>
 <g id="figure_1">
  <g id="patch_1">
   <path d="M 0 360 
L 864 360 
L 864 0 
L 0 0 
L 0 360 
z
" style="fill: none; opacity: 0"/>
  </g>
  <g id="axes_1">
   <g id="patch_2">
    <path d="M 108 320.4 
L 777.6 320.4 
L 777.6 43.2 
L 108 43.2 
L 108 320.4 
z
" style="fill: none; opacity: 0"/>
   </g>
   <g id="matplotlib.axis_1">
    <g id="xtick_1">
     <g id="line2d_1">
      <path d="M 127.324675 320.4 
L 127.324675 43.2 
" clip-path="url(#p6f638f2820)" style="fill: none; stroke-dasharray: 5.12,1.28,0.8,1.28; stroke-dashoffset: 0; stroke: #b0b0b0; stroke-width: 0.8"/>
     </g>
     <g id="line2d_2">
      <defs>
       <path id="m930f521018" d="M 0 0 
L 0 3.5 
" style="stroke: #a9a9a9; stroke-width: 0.8"/>
      </defs>
      <g>
       <use xlink:href="#m930f521018" x="127.324675" y="320.4" style="fill: #a9a9a9; stroke: #a9a9a9; stroke-width: 0.8"/>
      </g>
     </g>
     <g id="text_1">
      <!-- 2021-07 -->
      <g style="fill: #a9a9a9" transform="translate(106.433269 334.998438) scale(0.1 -0.1)">
       <defs>
        <path id="DejaVuSans-32" d="M 1228 531 
L 3431 531 
L 3431 0 
L 469 0 
L 469 531 
Q 828 903 1448 1529 
Q 2069 2156 2228 2338 
Q 2531 2678 2651 2914 
Q 2772 3150 2772 3378 
Q 2772 3750 2511 3984 
Q 2250 4219 1831 4219 
Q 1534 4219 1204 4116 
Q 875 4013 500 3803 
L 500 4441 
Q 881 4594 1212 4672 
Q 1544 4750 1819 4750 
Q 2544 4750 2975 4387 
Q 3406 4025 3406 3419 
Q 3406 3131 3298 2873 
Q 3191 2616 2906 2266 
Q 2828 2175 2409 1742 
Q 1991 1309 1228 531 
z
" transform="scale(0.015625)"/>
        <path id="DejaVuSans-30" d="M 2034 4250 
Q 1547 4250 1301 3770 
Q 1056 3291 1056 2328 
Q 1056 1369 1301 889 
Q 1547 409 2034 409 
Q 2525 409 2770 889 
Q 3016 1369 3016 2328 
Q 3016 3291 2770 3770 
Q 2525 4250 2034 4250 
z
M 2034 4750 
Q 2819 4750 3233 4129 
Q 3647 3509 3647 2328 
Q 3647 1150 3233 529 
Q 2819 -91 2034 -91 
Q 1250 -91 836 529 
Q 422 1150 422 2328 
Q 422 3509 836 4129 
Q 1250 4750 2034 4750 
z
" transform="scale(0.015625)"/>
        <path id="DejaVuSans-31" d="M 794 531 
L 1825 531 
L 1825 4091 
L 703 3866 
L 703 4441 
L 1819 4666 
L 2450 4666 
L 2450 531 
L 3481 531 
L 3481 0 
L 794 0 
L 794 531 
z
" transform="scale(0.015625)"/>
        <path id="DejaVuSans-2d" d="M 313 2009 
L 1997 2009 
L 1997 1497 
L 313 1497 
L 313 2009 
z
" transform="scale(0.015625)"/>
        <path id="DejaVuSans-37" d="M 525 4666 
L 3525 4666 
L 3525 4397 
L 1831 0 
L 1172 0 
L 2766 4134 
L 525 4134 
L 525 4666 
z
" transform="scale(0.015625)"/>
       </defs>
       <use xlink:href="#DejaVuSans-32"/>
       <use xlink:href="#DejaVuSans-30" transform="translate(63.623047 0)"/>
       <use xlink:href="#DejaVuSans-32" transform="translate(127.246094 0)"/>
       <use xlink:href="#DejaVuSans-31" transform="translate(190.869141 0)"/>
       <use xlink:href="#DejaVuSans-2d" transform="translate(254.492188 0)"/>
       <use xlink:href="#DejaVuSans-30" transform="translate(290.576172 0)"/>
       <use xlink:href="#DejaVuSans-37" transform="translate(354.199219 0)"/>
      </g>
     </g>
    </g>
    <g id="xtick_2">
     <g id="line2d_3">
      <path d="M 216.218182 320.4 
L 216.218182 43.2 
" clip-path="url(#p6f638f2820)" style="fill: none; stroke-dasharray: 5.12,1.28,0.8,1.28; stroke-dashoffset: 0; stroke: #b0b0b0; stroke-width: 0.8"/>
     </g>
     <g id="line2d_4">
      <g>
       <use xlink:href="#m930f521018" x="216.218182" y="320.4" style="fill: #a9a9a9; stroke: #a9a9a9; stroke-width: 0.8"/>
      </g>
     </g>
     <g id="text_2">
      <!-- 2022-01 -->
      <g style="fill: #a9a9a9" transform="translate(195.326776 334.998438) scale(0.1 -0.1)">
       <use xlink:href="#DejaVuSans-32"/>
       <use xlink:href="#DejaVuSans-30" transform="translate(63.623047 0)"/>
       <use xlink:href="#DejaVuSans-32" transform="translate(127.246094 0)"/>
       <use xlink:href="#DejaVuSans-32" transform="translate(190.869141 0)"/>
       <use xlink:href="#DejaVuSans-2d" transform="translate(254.492188 0)"/>
       <use xlink:href="#DejaVuSans-30" transform="translate(290.576172 0)"/>
       <use xlink:href="#DejaVuSans-31" transform="translate(354.199219 0)"/>
      </g>
     </g>
    </g>
    <g id="xtick_3">
     <g id="line2d_5">
      <path d="M 303.662338 320.4 
L 303.662338 43.2 
" clip-path="url(#p6f638f2820)" style="fill: none; stroke-dasharray: 5.12,1.28,0.8,1.28; stroke-dashoffset: 0; stroke: #b0b0b0; stroke-width: 0.8"/>
     </g>
     <g id="line2d_6">
      <g>
       <use xlink:href="#m930f521018" x="303.662338" y="320.4" style="fill: #a9a9a9; stroke: #a9a9a9; stroke-width: 0.8"/>
      </g>
     </g>
     <g id="text_3">
      <!-- 2022-07 -->
      <g style="fill: #a9a9a9" transform="translate(282.770931 334.998438) scale(0.1 -0.1)">
       <use xlink:href="#DejaVuSans-32"/>
       <use xlink:href="#DejaVuSans-30" transform="translate(63.623047 0)"/>
       <use xlink:href="#DejaVuSans-32" transform="translate(127.246094 0)"/>
       <use xlink:href="#DejaVuSans-32" transform="translate(190.869141 0)"/>
       <use xlink:href="#DejaVuSans-2d" transform="translate(254.492188 0)"/>
       <use xlink:href="#DejaVuSans-30" transform="translate(290.576172 0)"/>
       <use xlink:href="#DejaVuSans-37" transform="translate(354.199219 0)"/>
      </g>
     </g>
    </g>
    <g id="xtick_4">
     <g id="line2d_7">
      <path d="M 392.555844 320.4 
L 392.555844 43.2 
" clip-path="url(#p6f638f2820)" style="fill: none; stroke-dasharray: 5.12,1.28,0.8,1.28; stroke-dashoffset: 0; stroke: #b0b0b0; stroke-width: 0.8"/>
     </g>
     <g id="line2d_8">
      <g>
       <use xlink:href="#m930f521018" x="392.555844" y="320.4" style="fill: #a9a9a9; stroke: #a9a9a9; stroke-width: 0.8"/>
      </g>
     </g>
     <g id="text_4">
      <!-- 2023-01 -->
      <g style="fill: #a9a9a9" transform="translate(371.664438 334.998438) scale(0.1 -0.1)">
       <defs>
        <path id="DejaVuSans-33" d="M 2597 2516 
Q 3050 2419 3304 2112 
Q 3559 1806 3559 1356 
Q 3559 666 3084 287 
Q 2609 -91 1734 -91 
Q 1441 -91 1130 -33 
Q 819 25 488 141 
L 488 750 
Q 750 597 1062 519 
Q 1375 441 1716 441 
Q 2309 441 2620 675 
Q 2931 909 2931 1356 
Q 2931 1769 2642 2001 
Q 2353 2234 1838 2234 
L 1294 2234 
L 1294 2753 
L 1863 2753 
Q 2328 2753 2575 2939 
Q 2822 3125 2822 3475 
Q 2822 3834 2567 4026 
Q 2313 4219 1838 4219 
Q 1578 4219 1281 4162 
Q 984 4106 628 3988 
L 628 4550 
Q 988 4650 1302 4700 
Q 1616 4750 1894 4750 
Q 2613 4750 3031 4423 
Q 3450 4097 3450 3541 
Q 3450 3153 3228 2886 
Q 3006 2619 2597 2516 
z
" transform="scale(0.015625)"/>
       </defs>
       <use xlink:href="#DejaVuSans-32"/>
       <use xlink:href="#DejaVuSans-30" transform="translate(63.623047 0)"/>
       <use xlink:href="#DejaVuSans-32" transform="translate(127.246094 0)"/>
       <use xlink:href="#DejaVuSans-33" transform="translate(190.869141 0)"/>
       <use xlink:href="#DejaVuSans-2d" transform="translate(254.492188 0)"/>
       <use xlink:href="#DejaVuSans-30" transform="translate(290.576172 0)"/>
       <use xlink:href="#DejaVuSans-31" transform="translate(354.199219 0)"/>
      </g>
     </g>
    </g>
    <g id="xtick_5">
     <g id="line2d_9">
      <path d="M 480 320.4 
L 480 43.2 
" clip-path="url(#p6f638f2820)" style="fill: none; stroke-dasharray: 5.12,1.28,0.8,1.28; stroke-dashoffset: 0; stroke: #b0b0b0; stroke-width: 0.8"/>
     </g>
     <g id="line2d_10">
      <g>
       <use xlink:href="#m930f521018" x="480" y="320.4" style="fill: #a9a9a9; stroke: #a9a9a9; stroke-width: 0.8"/>
      </g>
     </g>
     <g id="text_5">
      <!-- 2023-07 -->
      <g style="fill: #a9a9a9" transform="translate(459.108594 334.998438) scale(0.1 -0.1)">
       <use xlink:href="#DejaVuSans-32"/>
       <use xlink:href="#DejaVuSans-30" transform="translate(63.623047 0)"/>
       <use xlink:href="#DejaVuSans-32" transform="translate(127.246094 0)"/>
       <use xlink:href="#DejaVuSans-33" transform="translate(190.869141 0)"/>
       <use xlink:href="#DejaVuSans-2d" transform="translate(254.492188 0)"/>
       <use xlink:href="#DejaVuSans-30" transform="translate(290.576172 0)"/>
       <use xlink:href="#DejaVuSans-37" transform="translate(354.199219 0)"/>
      </g>
     </g>
    </g>
    <g id="xtick_6">
     <g id="line2d_11">
      <path d="M 568.893506 320.4 
L 568.893506 43.2 
" clip-path="url(#p6f638f2820)" style="fill: none; stroke-dasharray: 5.12,1.28,0.8,1.28; stroke-dashoffset: 0; stroke: #b0b0b0; stroke-width: 0.8"/>
     </g>
     <g id="line2d_12">
      <g>
       <use xlink:href="#m930f521018" x="568.893506" y="320.4" style="fill: #a9a9a9; stroke: #a9a9a9; stroke-width: 0.8"/>
      </g>
     </g>
     <g id="text_6">
      <!-- 2024-01 -->
      <g style="fill: #a9a9a9" transform="translate(548.0021 334.998438) scale(0.1 -0.1)">
       <defs>
        <path id="DejaVuSans-34" d="M 2419 4116 
L 825 1625 
L 2419 1625 
L 2419 4116 
z
M 2253 4666 
L 3047 4666 
L 3047 1625 
L 3713 1625 
L 3713 1100 
L 3047 1100 
L 3047 0 
L 2419 0 
L 2419 1100 
L 313 1100 
L 313 1709 
L 2253 4666 
z
" transform="scale(0.015625)"/>
       </defs>
       <use xlink:href="#DejaVuSans-32"/>
       <use xlink:href="#DejaVuSans-30" transform="translate(63.623047 0)"/>
       <use xlink:href="#DejaVuSans-32" transform="translate(127.246094 0)"/>
       <use xlink:href="#DejaVuSans-34" transform="translate(190.869141 0)"/>
       <use xlink:href="#DejaVuSans-2d" transform="translate(254.492188 0)"/>
       <use xlink:href="#DejaVuSans-30" transform="translate(290.576172 0)"/>
       <use xlink:href="#DejaVuSans-31" transform="translate(354.199219 0)"/>
      </g>
     </g>
    </g>
    <g id="xtick_7">
     <g id="line2d_13">
      <path d="M 656.820779 320.4 
L 656.820779 43.2 
" clip-path="url(#p6f638f2820)" style="fill: none; stroke-dasharray: 5.12,1.28,0.8,1.28; stroke-dashoffset: 0; stroke: #b0b0b0; stroke-width: 0.8"/>
     </g>
     <g id="line2d_14">
      <g>
       <use xlink:href="#m930f521018" x="656.820779" y="320.4" style="fill: #a9a9a9; stroke: #a9a9a9; stroke-width: 0.8"/>
      </g>
     </g>
     <g id="text_7">
      <!-- 2024-07 -->
      <g style="fill: #a9a9a9" transform="translate(635.929373 334.998438) scale(0.1 -0.1)">
       <use xlink:href="#DejaVuSans-32"/>
       <use xlink:href="#DejaVuSans-30" transform="translate(63.623047 0)"/>
       <use xlink:href="#DejaVuSans-32" transform="translate(127.246094 0)"/>
       <use xlink:href="#DejaVuSans-34" transform="translate(190.869141 0)"/>
       <use xlink:href="#DejaVuSans-2d" transform="translate(254.492188 0)"/>
       <use xlink:href="#DejaVuSans-30" transform="translate(290.576172 0)"/>
       <use xlink:href="#DejaVuSans-37" transform="translate(354.199219 0)"/>
      </g>
     </g>
    </g>
    <g id="xtick_8">
     <g id="line2d_15">
      <path d="M 745.714286 320.4 
L 745.714286 43.2 
" clip-path="url(#p6f638f2820)" style="fill: none; stroke-dasharray: 5.12,1.28,0.8,1.28; stroke-dashoffset: 0; stroke: #b0b0b0; stroke-width: 0.8"/>
     </g>
     <g id="line2d_16">
      <g>
       <use xlink:href="#m930f521018" x="745.714286" y="320.4" style="fill: #a9a9a9; stroke: #a9a9a9; stroke-width: 0.8"/>
      </g>
     </g>
     <g id="text_8">
      <!-- 2025-01 -->
      <g style="fill: #a9a9a9" transform="translate(724.822879 334.998438) scale(0.1 -0.1)">
       <defs>
        <path id="DejaVuSans-35" d="M 691 4666 
L 3169 4666 
L 3169 4134 
L 1269 4134 
L 1269 2991 
Q 1406 3038 1543 3061 
Q 1681 3084 1819 3084 
Q 2600 3084 3056 2656 
Q 3513 2228 3513 1497 
Q 3513 744 3044 326 
Q 2575 -91 1722 -91 
Q 1428 -91 1123 -41 
Q 819 9 494 109 
L 494 744 
Q 775 591 1075 516 
Q 1375 441 1709 441 
Q 2250 441 2565 725 
Q 2881 1009 2881 1497 
Q 2881 1984 2565 2268 
Q 2250 2553 1709 2553 
Q 1456 2553 1204 2497 
Q 953 2441 691 2322 
L 691 4666 
z
" transform="scale(0.015625)"/>
       </defs>
       <use xlink:href="#DejaVuSans-32"/>
       <use xlink:href="#DejaVuSans-30" transform="translate(63.623047 0)"/>
       <use xlink:href="#DejaVuSans-32" transform="translate(127.246094 0)"/>
       <use xlink:href="#DejaVuSans-35" transform="translate(190.869141 0)"/>
       <use xlink:href="#DejaVuSans-2d" transform="translate(254.492188 0)"/>
       <use xlink:href="#DejaVuSans-30" transform="translate(290.576172 0)"/>
       <use xlink:href="#DejaVuSans-31" transform="translate(354.199219 0)"/>
      </g>
     </g>
    </g>
   </g>
   <g id="matplotlib.axis_2">
    <g id="ytick_1">
     <g id="line2d_17">
      <path d="M 108 307.835176 
L 777.6 307.835176 
" clip-path="url(#p6f638f2820)" style="fill: none; stroke-dasharray: 5.12,1.28,0.8,1.28; stroke-dashoffset: 0; stroke: #b0b0b0; stroke-width: 0.8"/>
     </g>
     <g id="line2d_18">
      <defs>
       <path id="m3dcd324f36" d="M 0 0 
L -3.5 0 
" style="stroke: #a9a9a9; stroke-width: 0.8"/>
      </defs>
      <g>
       <use xlink:href="#m3dcd324f36" x="108" y="307.835176" style="fill: #a9a9a9; stroke: #a9a9a9; stroke-width: 0.8"/>
      </g>
     </g>
     <g id="text_9">
      <!-- 0 -->
      <g style="fill: #a9a9a9" transform="translate(94.6375 311.634395) scale(0.1 -0.1)">
       <use xlink:href="#DejaVuSans-30"/>
      </g>
     </g>
    </g>
    <g id="ytick_2">
     <g id="line2d_19">
      <path d="M 108 279.694472 
L 777.6 279.694472 
" clip-path="url(#p6f638f2820)" style="fill: none; stroke-dasharray: 5.12,1.28,0.8,1.28; stroke-dashoffset: 0; stroke: #b0b0b0; stroke-width: 0.8"/>
     </g>
     <g id="line2d_20">
      <g>
       <use xlink:href="#m3dcd324f36" x="108" y="279.694472" style="fill: #a9a9a9; stroke: #a9a9a9; stroke-width: 0.8"/>
      </g>
     </g>
     <g id="text_10">
      <!-- 800 -->
      <g style="fill: #a9a9a9" transform="translate(81.9125 283.493691) scale(0.1 -0.1)">
       <defs>
        <path id="DejaVuSans-38" d="M 2034 2216 
Q 1584 2216 1326 1975 
Q 1069 1734 1069 1313 
Q 1069 891 1326 650 
Q 1584 409 2034 409 
Q 2484 409 2743 651 
Q 3003 894 3003 1313 
Q 3003 1734 2745 1975 
Q 2488 2216 2034 2216 
z
M 1403 2484 
Q 997 2584 770 2862 
Q 544 3141 544 3541 
Q 544 4100 942 4425 
Q 1341 4750 2034 4750 
Q 2731 4750 3128 4425 
Q 3525 4100 3525 3541 
Q 3525 3141 3298 2862 
Q 3072 2584 2669 2484 
Q 3125 2378 3379 2068 
Q 3634 1759 3634 1313 
Q 3634 634 3220 271 
Q 2806 -91 2034 -91 
Q 1263 -91 848 271 
Q 434 634 434 1313 
Q 434 1759 690 2068 
Q 947 2378 1403 2484 
z
M 1172 3481 
Q 1172 3119 1398 2916 
Q 1625 2713 2034 2713 
Q 2441 2713 2670 2916 
Q 2900 3119 2900 3481 
Q 2900 3844 2670 4047 
Q 2441 4250 2034 4250 
Q 1625 4250 1398 4047 
Q 1172 3844 1172 3481 
z
" transform="scale(0.015625)"/>
       </defs>
       <use xlink:href="#DejaVuSans-38"/>
       <use xlink:href="#DejaVuSans-30" transform="translate(63.623047 0)"/>
       <use xlink:href="#DejaVuSans-30" transform="translate(127.246094 0)"/>
      </g>
     </g>
    </g>
    <g id="ytick_3">
     <g id="line2d_21">
      <path d="M 108 251.553769 
L 777.6 251.553769 
" clip-path="url(#p6f638f2820)" style="fill: none; stroke-dasharray: 5.12,1.28,0.8,1.28; stroke-dashoffset: 0; stroke: #b0b0b0; stroke-width: 0.8"/>
     </g>
     <g id="line2d_22">
      <g>
       <use xlink:href="#m3dcd324f36" x="108" y="251.553769" style="fill: #a9a9a9; stroke: #a9a9a9; stroke-width: 0.8"/>
      </g>
     </g>
     <g id="text_11">
      <!-- 1600 -->
      <g style="fill: #a9a9a9" transform="translate(75.55 255.352988) scale(0.1 -0.1)">
       <defs>
        <path id="DejaVuSans-36" d="M 2113 2584 
Q 1688 2584 1439 2293 
Q 1191 2003 1191 1497 
Q 1191 994 1439 701 
Q 1688 409 2113 409 
Q 2538 409 2786 701 
Q 3034 994 3034 1497 
Q 3034 2003 2786 2293 
Q 2538 2584 2113 2584 
z
M 3366 4563 
L 3366 3988 
Q 3128 4100 2886 4159 
Q 2644 4219 2406 4219 
Q 1781 4219 1451 3797 
Q 1122 3375 1075 2522 
Q 1259 2794 1537 2939 
Q 1816 3084 2150 3084 
Q 2853 3084 3261 2657 
Q 3669 2231 3669 1497 
Q 3669 778 3244 343 
Q 2819 -91 2113 -91 
Q 1303 -91 875 529 
Q 447 1150 447 2328 
Q 447 3434 972 4092 
Q 1497 4750 2381 4750 
Q 2619 4750 2861 4703 
Q 3103 4656 3366 4563 
z
" transform="scale(0.015625)"/>
       </defs>
       <use xlink:href="#DejaVuSans-31"/>
       <use xlink:href="#DejaVuSans-36" transform="translate(63.623047 0)"/>
       <use xlink:href="#DejaVuSans-30" transform="translate(127.246094 0)"/>
       <use xlink:href="#DejaVuSans-30" transform="translate(190.869141 0)"/>
      </g>
     </g>
    </g>
    <g id="ytick_4">
     <g id="line2d_23">
      <path d="M 108 223.413065 
L 777.6 223.413065 
" clip-path="url(#p6f638f2820)" style="fill: none; stroke-dasharray: 5.12,1.28,0.8,1.28; stroke-dashoffset: 0; stroke: #b0b0b0; stroke-width: 0.8"/>
     </g>
     <g id="line2d_24">
      <g>
       <use xlink:href="#m3dcd324f36" x="108" y="223.413065" style="fill: #a9a9a9; stroke: #a9a9a9; stroke-width: 0.8"/>
      </g>
     </g>
     <g id="text_12">
      <!-- 2400 -->
      <g style="fill: #a9a9a9" transform="translate(75.55 227.212284) scale(0.1 -0.1)">
       <use xlink:href="#DejaVuSans-32"/>
       <use xlink:href="#DejaVuSans-34" transform="translate(63.623047 0)"/>
       <use xlink:href="#DejaVuSans-30" transform="translate(127.246094 0)"/>
       <use xlink:href="#DejaVuSans-30" transform="translate(190.869141 0)"/>
      </g>
     </g>
    </g>
    <g id="ytick_5">
     <g id="line2d_25">
      <path d="M 108 195.272362 
L 777.6 195.272362 
" clip-path="url(#p6f638f2820)" style="fill: none; stroke-dasharray: 5.12,1.28,0.8,1.28; stroke-dashoffset: 0; stroke: #b0b0b0; stroke-width: 0.8"/>
     </g>
     <g id="line2d_26">
      <g>
       <use xlink:href="#m3dcd324f36" x="108" y="195.272362" style="fill: #a9a9a9; stroke: #a9a9a9; stroke-width: 0.8"/>
      </g>
     </g>
     <g id="text_13">
      <!-- 3200 -->
      <g style="fill: #a9a9a9" transform="translate(75.55 199.071581) scale(0.1 -0.1)">
       <use xlink:href="#DejaVuSans-33"/>
       <use xlink:href="#DejaVuSans-32" transform="translate(63.623047 0)"/>
       <use xlink:href="#DejaVuSans-30" transform="translate(127.246094 0)"/>
       <use xlink:href="#DejaVuSans-30" transform="translate(190.869141 0)"/>
      </g>
     </g>
    </g>
    <g id="ytick_6">
     <g id="line2d_27">
      <path d="M 108 167.131658 
L 777.6 167.131658 
" clip-path="url(#p6f638f2820)" style="fill: none; stroke-dasharray: 5.12,1.28,0.8,1.28; stroke-dashoffset: 0; stroke: #b0b0b0; stroke-width: 0.8"/>
     </g>
     <g id="line2d_28">
      <g>
       <use xlink:href="#m3dcd324f36" x="108" y="167.131658" style="fill: #a9a9a9; stroke: #a9a9a9; stroke-width: 0.8"/>
      </g>
     </g>
     <g id="text_14">
      <!-- 4000 -->
      <g style="fill: #a9a9a9" transform="translate(75.55 170.930877) scale(0.1 -0.1)">
       <use xlink:href="#DejaVuSans-34"/>
       <use xlink:href="#DejaVuSans-30" transform="translate(63.623047 0)"/>
       <use xlink:href="#DejaVuSans-30" transform="translate(127.246094 0)"/>
       <use xlink:href="#DejaVuSans-30" transform="translate(190.869141 0)"/>
      </g>
     </g>
    </g>
    <g id="ytick_7">
     <g id="line2d_29">
      <path d="M 108 138.990955 
L 777.6 138.990955 
" clip-path="url(#p6f638f2820)" style="fill: none; stroke-dasharray: 5.12,1.28,0.8,1.28; stroke-dashoffset: 0; stroke: #b0b0b0; stroke-width: 0.8"/>
     </g>
     <g id="line2d_30">
      <g>
       <use xlink:href="#m3dcd324f36" x="108" y="138.990955" style="fill: #a9a9a9; stroke: #a9a9a9; stroke-width: 0.8"/>
      </g>
     </g>
     <g id="text_15">
      <!-- 4800 -->
      <g style="fill: #a9a9a9" transform="translate(75.55 142.790174) scale(0.1 -0.1)">
       <use xlink:href="#DejaVuSans-34"/>
       <use xlink:href="#DejaVuSans-38" transform="translate(63.623047 0)"/>
       <use xlink:href="#DejaVuSans-30" transform="translate(127.246094 0)"/>
       <use xlink:href="#DejaVuSans-30" transform="translate(190.869141 0)"/>
      </g>
     </g>
    </g>
    <g id="ytick_8">
     <g id="line2d_31">
      <path d="M 108 110.850251 
L 777.6 110.850251 
" clip-path="url(#p6f638f2820)" style="fill: none; stroke-dasharray: 5.12,1.28,0.8,1.28; stroke-dashoffset: 0; stroke: #b0b0b0; stroke-width: 0.8"/>
     </g>
     <g id="line2d_32">
      <g>
       <use xlink:href="#m3dcd324f36" x="108" y="110.850251" style="fill: #a9a9a9; stroke: #a9a9a9; stroke-width: 0.8"/>
      </g>
     </g>
     <g id="text_16">
      <!-- 5600 -->
      <g style="fill: #a9a9a9" transform="translate(75.55 114.64947) scale(0.1 -0.1)">
       <use xlink:href="#DejaVuSans-35"/>
       <use xlink:href="#DejaVuSans-36" transform="translate(63.623047 0)"/>
       <use xlink:href="#DejaVuSans-30" transform="translate(127.246094 0)"/>
       <use xlink:href="#DejaVuSans-30" transform="translate(190.869141 0)"/>
      </g>
     </g>
    </g>
    <g id="ytick_9">
     <g id="line2d_33">
      <path d="M 108 82.709548 
L 777.6 82.709548 
" clip-path="url(#p6f638f2820)" style="fill: none; stroke-dasharray: 5.12,1.28,0.8,1.28; stroke-dashoffset: 0; stroke: #b0b0b0; stroke-width: 0.8"/>
     </g>
     <g id="line2d_34">
      <g>
       <use xlink:href="#m3dcd324f36" x="108" y="82.709548" style="fill: #a9a9a9; stroke: #a9a9a9; stroke-width: 0.8"/>
      </g>
     </g>
     <g id="text_17">
      <!-- 6400 -->
      <g style="fill: #a9a9a9" transform="translate(75.55 86.508766) scale(0.1 -0.1)">
       <use xlink:href="#DejaVuSans-36"/>
       <use xlink:href="#DejaVuSans-34" transform="translate(63.623047 0)"/>
       <use xlink:href="#DejaVuSans-30" transform="translate(127.246094 0)"/>
       <use xlink:href="#DejaVuSans-30" transform="translate(190.869141 0)"/>
      </g>
     </g>
    </g>
    <g id="ytick_10">
     <g id="line2d_35">
      <path d="M 108 54.568844 
L 777.6 54.568844 
" clip-path="url(#p6f638f2820)" style="fill: none; stroke-dasharray: 5.12,1.28,0.8,1.28; stroke-dashoffset: 0; stroke: #b0b0b0; stroke-width: 0.8"/>
     </g>
     <g id="line2d_36">
      <g>
       <use xlink:href="#m3dcd324f36" x="108" y="54.568844" style="fill: #a9a9a9; stroke: #a9a9a9; stroke-width: 0.8"/>
      </g>
     </g>
     <g id="text_18">
      <!-- 7200 -->
      <g style="fill: #a9a9a9" transform="translate(75.55 58.368063) scale(0.1 -0.1)">
       <use xlink:href="#DejaVuSans-37"/>
       <use xlink:href="#DejaVuSans-32" transform="translate(63.623047 0)"/>
       <use xlink:href="#DejaVuSans-30" transform="translate(127.246094 0)"/>
       <use xlink:href="#DejaVuSans-30" transform="translate(190.869141 0)"/>
      </g>
     </g>
    </g>
   </g>
   <g id="line2d_37">
    <path d="M 138.436364 307.729648 
L 141.335065 307.483417 
L 141.818182 307.272362 
L 143.750649 307.026131 
L 145.683117 306.639196 
L 146.649351 306.498492 
L 149.064935 306.287437 
L 150.031169 305.900503 
L 150.514286 305.267337 
L 150.997403 304.915578 
L 151.480519 303.825126 
L 151.963636 303.754774 
L 152.446753 303.367839 
L 153.412987 302.875377 
L 155.345455 301.327638 
L 157.277922 300.377889 
L 158.727273 299.709548 
L 159.21039 298.935678 
L 160.176623 298.232161 
L 160.65974 298.021106 
L 165.490909 297.317588 
L 165.974026 297.106533 
L 169.355844 296.825126 
L 171.288312 296.367839 
L 175.153247 295.840201 
L 175.636364 295.59397 
L 176.119481 295.523618 
L 177.085714 295.207035 
L 180.467532 294.644221 
L 181.433766 294.362814 
L 185.781818 293.624121 
L 186.748052 293.413065 
L 187.714286 293.377889 
L 189.646753 292.920603 
L 190.12987 292.252261 
L 191.579221 291.689447 
L 193.028571 291.302513 
L 193.511688 291.056281 
L 194.477922 290.880402 
L 196.41039 290.317588 
L 197.376623 290.247236 
L 198.342857 290.001005 
L 200.275325 289.508543 
L 200.758442 289.473367 
L 201.724675 289.01608 
L 202.207792 288.945729 
L 202.690909 288.699497 
L 208.005195 287.820101 
L 209.937662 287.257286 
L 210.420779 286.940704 
L 212.836364 286.131658 
L 213.802597 285.463317 
L 215.251948 285.18191 
L 227.812987 281.629146 
L 228.296104 281.629146 
L 228.779221 281.41809 
L 229.745455 281.312563 
L 230.228571 281.136683 
L 232.161039 281.066332 
L 233.127273 280.890452 
L 234.093506 280.39799 
L 235.542857 279.870352 
L 236.025974 279.553769 
L 236.992208 279.131658 
L 237.475325 278.885427 
L 238.441558 278.568844 
L 238.924675 278.428141 
L 239.890909 277.830151 
L 240.374026 277.302513 
L 241.34026 275.825126 
L 241.823377 275.684422 
L 242.306494 275.684422 
L 243.755844 274.840201 
L 244.238961 274.59397 
L 244.722078 274.488442 
L 245.205195 274.031156 
L 246.171429 273.644221 
L 247.137662 273.186935 
L 249.553247 270.126633 
L 252.451948 268.578894 
L 253.418182 267.805025 
L 253.901299 267.488442 
L 254.384416 266.784925 
L 254.867532 265.694472 
L 255.350649 264.955779 
L 255.833766 264.568844 
L 256.316883 264.357789 
L 260.181818 260.840201 
L 261.148052 259.960804 
L 264.046753 258.166834 
L 264.52987 257.990955 
L 265.979221 257.146734 
L 267.428571 256.196985 
L 269.361039 254.473367 
L 270.327273 254.086432 
L 271.293506 253.41809 
L 271.776623 253.136683 
L 272.25974 253.066332 
L 273.709091 252.257286 
L 274.192208 251.729648 
L 276.607792 250.428141 
L 277.090909 250.252261 
L 278.54026 249.267337 
L 285.787013 246.699497 
L 286.753247 245.820101 
L 287.719481 245.362814 
L 288.685714 244.835176 
L 289.168831 244.553769 
L 290.135065 244.272362 
L 290.618182 243.955779 
L 291.101299 243.815075 
L 292.550649 242.865327 
L 294.966234 242.302513 
L 296.415584 241.458291 
L 297.864935 241.141709 
L 298.348052 241.001005 
L 299.797403 239.910553 
L 301.72987 239.382915 
L 302.212987 238.99598 
L 305.111688 238.011055 
L 306.077922 237.835176 
L 307.044156 237.448241 
L 310.425974 236.217085 
L 311.392208 236.076382 
L 312.841558 235.58392 
L 315.257143 234.423116 
L 317.18961 233.367839 
L 321.054545 231.784925 
L 321.537662 231.714573 
L 322.503896 231.116583 
L 322.987013 231.046231 
L 324.919481 230.272362 
L 326.851948 230.026131 
L 327.818182 229.533668 
L 328.301299 229.111558 
L 328.784416 228.232161 
L 330.716883 227.704523 
L 332.166234 226.965829 
L 332.649351 226.860302 
L 336.514286 224.99598 
L 337.963636 224.714573 
L 338.92987 224.222111 
L 339.412987 224.011055 
L 339.896104 223.940704 
L 341.828571 223.061307 
L 343.277922 222.146734 
L 344.727273 221.865327 
L 347.142857 221.267337 
L 347.625974 220.880402 
L 349.075325 220.352764 
L 351.007792 219.578894 
L 351.490909 219.227136 
L 351.974026 219.051256 
L 352.94026 218.523618 
L 355.355844 217.714573 
L 356.805195 216.553769 
L 357.288312 216.448241 
L 358.254545 215.674372 
L 358.737662 215.60402 
L 359.220779 214.830151 
L 359.703896 214.619095 
L 360.187013 214.232161 
L 360.67013 214.161809 
L 361.636364 213.563819 
L 362.602597 213.247236 
L 363.085714 212.895477 
L 363.568831 212.719598 
L 365.018182 211.699497 
L 366.950649 210.679397 
L 367.433766 210.609045 
L 368.883117 209.870352 
L 369.366234 209.061307 
L 370.332468 208.357789 
L 370.815584 208.252261 
L 371.781818 207.654271 
L 372.264935 207.548744 
L 373.231169 207.056281 
L 375.163636 206.106533 
L 375.646753 205.754774 
L 376.612987 204.805025 
L 377.579221 204.207035 
L 378.062338 203.890452 
L 378.545455 203.362814 
L 380.477922 202.026131 
L 380.961039 201.463317 
L 381.444156 201.076382 
L 382.41039 200.724623 
L 383.376623 200.056281 
L 384.825974 199.317588 
L 385.309091 199.247236 
L 386.758442 198.473367 
L 387.724675 197.875377 
L 392.555844 196.116583 
L 393.038961 195.729648 
L 394.971429 194.990955 
L 395.454545 194.850251 
L 396.420779 194.217085 
L 397.387013 193.794975 
L 398.353247 193.126633 
L 399.319481 191.19196 
L 400.285714 190.066332 
L 401.735065 189.327638 
L 402.701299 188.940704 
L 403.184416 188.870352 
L 403.667532 188.588945 
L 406.083117 187.815075 
L 406.566234 187.60402 
L 407.532468 186.935678 
L 408.981818 186.302513 
L 409.948052 185.774874 
L 410.431169 185.423116 
L 410.914286 185.21206 
L 411.397403 184.860302 
L 411.880519 184.332663 
L 412.846753 183.805025 
L 415.262338 182.503518 
L 418.161039 181.061307 
L 419.61039 180.639196 
L 421.05974 180.076382 
L 421.542857 179.724623 
L 422.509091 179.443216 
L 423.475325 179.056281 
L 423.958442 178.669347 
L 425.890909 178.001005 
L 426.857143 177.297487 
L 427.823377 176.875377 
L 428.78961 176.101508 
L 429.755844 175.749749 
L 430.238961 175.327638 
L 430.722078 175.257286 
L 431.688312 174.518593 
L 432.654545 174.026131 
L 433.137662 173.815075 
L 433.620779 173.322613 
L 437.002597 171.98593 
L 437.968831 171.563819 
L 439.418182 171.106533 
L 440.384416 170.965829 
L 440.867532 170.754774 
L 441.350649 170.684422 
L 442.316883 170.262312 
L 442.8 170.227136 
L 444.732468 169.488442 
L 446.181818 168.468342 
L 446.664935 168.292462 
L 447.631169 167.764824 
L 448.114286 167.624121 
L 451.012987 166.00603 
L 451.496104 165.900503 
L 452.945455 165.056281 
L 454.394805 164.563819 
L 455.361039 164.247236 
L 457.293506 163.61407 
L 458.25974 163.297487 
L 460.192208 162.910553 
L 460.675325 162.699497 
L 461.158442 162.629146 
L 462.124675 162.207035 
L 462.607792 162.136683 
L 463.090909 161.890452 
L 464.057143 161.714573 
L 465.506494 161.186935 
L 466.472727 161.081407 
L 467.922078 160.764824 
L 470.337662 160.342714 
L 482.898701 156.684422 
L 483.381818 156.19196 
L 484.348052 155.805025 
L 488.212987 154.362814 
L 488.696104 154.081407 
L 490.145455 153.659296 
L 491.111688 153.413065 
L 491.594805 153.096482 
L 492.077922 152.990955 
L 492.561039 152.568844 
L 494.01039 152.287437 
L 494.976623 151.830151 
L 495.45974 151.267337 
L 497.392208 150.81005 
L 500.774026 150.106533 
L 501.257143 150.106533 
L 501.74026 149.895477 
L 503.672727 149.543719 
L 504.155844 149.332663 
L 506.088312 148.980905 
L 507.054545 148.558794 
L 508.020779 148.382915 
L 510.436364 147.784925 
L 512.368831 147.186935 
L 512.851948 147.081407 
L 513.335065 146.835176 
L 514.301299 146.588945 
L 514.784416 146.307538 
L 516.233766 145.815075 
L 516.716883 145.498492 
L 517.683117 145.217085 
L 521.548052 143.880402 
L 522.514286 143.81005 
L 524.446753 143.247236 
L 524.92987 142.965829 
L 525.896104 142.684422 
L 528.311688 141.59397 
L 528.794805 141.558794 
L 534.109091 139.694472 
L 536.524675 139.061307 
L 537.490909 138.60402 
L 538.94026 138.287437 
L 540.872727 136.704523 
L 541.838961 136.423116 
L 542.322078 136.036181 
L 545.220779 134.945729 
L 545.703896 134.629146 
L 546.67013 134.347739 
L 547.153247 134.031156 
L 549.568831 133.257286 
L 551.018182 132.413065 
L 551.501299 132.307538 
L 553.916883 131.00603 
L 555.366234 130.372864 
L 555.849351 130.021106 
L 556.815584 129.704523 
L 557.781818 129.141709 
L 558.264935 128.965829 
L 558.748052 128.61407 
L 565.028571 126.39799 
L 565.511688 126.292462 
L 565.994805 125.975879 
L 567.927273 125.588945 
L 568.893506 125.20201 
L 571.792208 123.794975 
L 572.275325 123.724623 
L 573.724675 122.915578 
L 575.174026 122.423116 
L 578.555844 121.051256 
L 579.038961 120.910553 
L 579.522078 120.59397 
L 580.488312 120.488442 
L 580.971429 120.171859 
L 581.937662 119.99598 
L 582.903896 119.538693 
L 583.387013 119.327638 
L 583.87013 119.257286 
L 586.285714 118.307538 
L 587.735065 117.920603 
L 588.701299 117.674372 
L 590.150649 117.252261 
L 591.116883 116.865327 
L 593.049351 115.81005 
L 594.015584 115.423116 
L 594.498701 115.106533 
L 595.464935 114.895477 
L 595.948052 114.61407 
L 596.431169 114.508543 
L 597.880519 113.699497 
L 598.846753 113.312563 
L 600.779221 112.573869 
L 603.194805 111.764824 
L 604.161039 111.272362 
L 606.576623 110.463317 
L 609.475325 109.302513 
L 611.407792 108.423116 
L 616.238961 106.558794 
L 616.722078 106.242211 
L 618.654545 105.573869 
L 619.137662 105.573869 
L 620.103896 105.151759 
L 622.036364 103.60402 
L 622.519481 103.463317 
L 623.002597 103.146734 
L 623.485714 103.041206 
L 623.968831 102.794975 
L 624.451948 102.724623 
L 624.935065 102.372864 
L 625.418182 102.267337 
L 626.384416 101.669347 
L 627.833766 100.930653 
L 628.8 100.543719 
L 629.283117 100.297487 
L 630.732468 99.980905 
L 633.148052 99.171859 
L 634.114286 98.855276 
L 635.563636 98.116583 
L 636.52987 97.659296 
L 637.496104 97.413065 
L 638.945455 96.744724 
L 643.293506 95.161809 
L 644.742857 94.282412 
L 645.225974 94.176884 
L 646.192208 93.719598 
L 647.158442 93.367839 
L 647.641558 92.945729 
L 648.607792 92.558794 
L 651.506494 91.39799 
L 652.955844 90.975879 
L 653.438961 90.729648 
L 653.922078 90.659296 
L 655.371429 90.131658 
L 656.820779 89.60402 
L 657.787013 89.217085 
L 658.27013 88.830151 
L 659.719481 88.443216 
L 660.202597 88.161809 
L 661.168831 87.915578 
L 662.618182 87.106533 
L 663.101299 87.071357 
L 664.550649 86.61407 
L 665.516883 86.543719 
L 666.483117 86.156784 
L 669.381818 85.312563 
L 670.348052 85.277387 
L 674.212987 84.046231 
L 675.179221 83.518593 
L 675.662338 83.096482 
L 677.111688 82.252261 
L 677.594805 81.900503 
L 678.561039 81.548744 
L 680.976623 80.774874 
L 681.45974 80.38794 
L 684.358442 79.19196 
L 686.290909 78.664322 
L 687.257143 78.242211 
L 687.74026 77.99598 
L 688.706494 77.714573 
L 689.18961 77.433166 
L 690.155844 77.257286 
L 692.571429 76.131658 
L 693.054545 75.850251 
L 694.503896 75.498492 
L 694.987013 75.18191 
L 695.47013 75.00603 
L 695.953247 74.58392 
L 696.436364 74.513568 
L 698.368831 73.739698 
L 700.301299 73.282412 
L 700.784416 73.21206 
L 701.267532 73.001005 
L 701.750649 72.965829 
L 702.716883 72.649246 
L 703.2 72.61407 
L 704.649351 72.051256 
L 706.581818 71.488442 
L 707.548052 70.749749 
L 709.480519 69.694472 
L 710.92987 69.20201 
L 713.828571 67.900503 
L 714.794805 67.372864 
L 715.277922 67.126633 
L 715.761039 66.669347 
L 718.65974 65.719598 
L 719.625974 65.332663 
L 720.592208 65.086432 
L 721.075325 64.840201 
L 721.558442 64.41809 
L 723.490909 63.925628 
L 723.974026 63.573869 
L 730.254545 61.287437 
L 731.220779 61.111558 
L 735.568831 59.598995 
L 736.535065 59.352764 
L 737.018182 59.141709 
L 737.501299 59.106533 
L 738.467532 58.719598 
L 739.433766 58.121608 
L 739.916883 57.945729 
L 740.4 57.910553 
L 741.849351 57.277387 
L 743.298701 56.749749 
L 743.781818 56.679397 
L 744.748052 56.292462 
L 746.197403 55.975879 
L 746.680519 55.8 
L 747.163636 55.8 
L 747.163636 55.8 
" clip-path="url(#p6f638f2820)" style="fill: none; stroke: #1f77b4; stroke-width: 1.5; stroke-linecap: square"/>
   </g>
   <g id="line2d_38">
    <path d="M 138.919481 307.8 
L 143.267532 307.694472 
L 147.132468 307.518593 
L 149.064935 307.518593 
L 149.548052 307.377889 
L 151.963636 307.272362 
L 154.862338 306.955779 
L 157.761039 306.850251 
L 158.727273 306.744724 
L 162.109091 306.60402 
L 165.490909 306.498492 
L 167.906494 306.428141 
L 174.187013 306.322613 
L 176.602597 306.252261 
L 179.984416 306.146734 
L 182.4 306.076382 
L 187.714286 305.970854 
L 189.646753 305.794975 
L 191.579221 305.759799 
L 194.477922 305.654271 
L 196.41039 305.619095 
L 198.825974 305.548744 
L 200.758442 305.372864 
L 205.106494 305.267337 
L 206.072727 305.196985 
L 208.005195 305.091457 
L 210.903896 304.98593 
L 212.836364 304.880402 
L 221.532468 304.352764 
L 224.914286 304.247236 
L 226.363636 304.106533 
L 228.779221 304.001005 
L 233.61039 303.754774 
L 238.441558 303.684422 
L 240.374026 303.473367 
L 242.306494 303.367839 
L 247.620779 302.875377 
L 251.002597 302.488442 
L 252.451948 302.41809 
L 256.316883 301.925628 
L 259.215584 301.855276 
L 260.664935 301.714573 
L 262.114286 301.609045 
L 275.641558 300.588945 
L 276.607792 300.413065 
L 279.506494 300.307538 
L 287.236364 299.850251 
L 290.618182 299.744724 
L 292.550649 299.533668 
L 294.966234 299.428141 
L 297.864935 299.322613 
L 300.280519 299.217085 
L 302.212987 299.18191 
L 304.628571 299.111558 
L 305.594805 298.970854 
L 312.358442 298.865327 
L 313.324675 298.759799 
L 319.122078 298.654271 
L 323.47013 298.443216 
L 326.851948 298.337688 
L 328.784416 298.126633 
L 332.166234 298.021106 
L 333.132468 297.845226 
L 335.548052 297.774874 
L 340.379221 297.704523 
L 342.311688 297.528643 
L 344.244156 297.493467 
L 345.693506 297.38794 
L 347.625974 297.21206 
L 352.457143 296.965829 
L 357.288312 296.860302 
L 361.636364 296.649246 
L 363.085714 296.61407 
L 364.051948 296.473367 
L 366.467532 296.367839 
L 367.433766 296.297487 
L 368.4 296.227136 
L 369.366234 296.156784 
L 373.714286 296.086432 
L 375.163636 295.980905 
L 388.207792 295.136683 
L 390.623377 295.031156 
L 393.038961 294.960804 
L 399.802597 294.855276 
L 400.768831 294.714573 
L 407.532468 294.609045 
L 412.363636 294.362814 
L 413.32987 294.327638 
L 414.296104 294.222111 
L 416.711688 294.116583 
L 419.127273 294.046231 
L 421.542857 293.940704 
L 423.958442 293.870352 
L 428.306494 293.764824 
L 431.205195 293.659296 
L 437.968831 293.553769 
L 443.283117 293.272362 
L 445.215584 293.20201 
L 446.664935 293.096482 
L 453.428571 292.990955 
L 456.327273 292.885427 
L 465.023377 292.779899 
L 466.955844 292.744724 
L 472.753247 292.674372 
L 473.719481 292.60402 
L 480.483117 292.498492 
L 482.415584 292.463317 
L 494.976623 292.357789 
L 496.425974 292.217085 
L 518.166234 292.111558 
L 520.581818 292.041206 
L 533.142857 291.970854 
L 534.109091 291.900503 
L 536.524675 291.830151 
L 537.974026 291.689447 
L 540.872727 291.58392 
L 544.254545 291.443216 
L 548.602597 291.337688 
L 551.018182 291.267337 
L 554.4 291.161809 
L 558.264935 290.98593 
L 560.680519 290.880402 
L 562.612987 290.845226 
L 566.961039 290.739698 
L 568.893506 290.704523 
L 575.174026 290.598995 
L 577.106494 290.563819 
L 579.522078 290.458291 
L 582.420779 290.352764 
L 585.802597 290.282412 
L 586.768831 290.21206 
L 598.363636 290.106533 
L 604.644156 289.754774 
L 607.05974 289.684422 
L 608.025974 289.578894 
L 608.992208 289.508543 
L 612.857143 289.403015 
L 615.755844 289.297487 
L 620.587013 289.19196 
L 623.002597 288.945729 
L 627.833766 288.840201 
L 628.8 288.734673 
L 633.631169 288.629146 
L 636.046753 288.558794 
L 641.361039 288.523618 
L 642.327273 288.41809 
L 647.641558 288.312563 
L 648.607792 288.242211 
L 659.236364 288.136683 
L 662.135065 288.031156 
L 669.381818 287.925628 
L 671.314286 287.890452 
L 675.662338 287.820101 
L 676.628571 287.714573 
L 682.909091 287.609045 
L 685.324675 287.538693 
L 694.020779 287.433166 
L 695.47013 287.327638 
L 696.919481 287.222111 
L 698.368831 287.116583 
L 705.615584 287.011055 
L 708.514286 286.905528 
L 721.558442 286.8 
L 725.906494 286.588945 
L 731.703896 286.483417 
L 732.67013 286.377889 
L 739.916883 286.307538 
L 740.883117 286.237186 
L 746.197403 286.131658 
L 747.163636 286.096482 
L 747.163636 286.096482 
" clip-path="url(#p6f638f2820)" style="fill: none; stroke: #ff7f0e; stroke-width: 1.5; stroke-linecap: square"/>
   </g>
   <g id="patch_3">
    <path d="M 108 320.4 
L 108 43.2 
" style="fill: none; stroke: #a9a9a9; stroke-width: 0.8; stroke-linejoin: miter; stroke-linecap: square"/>
   </g>
   <g id="patch_4">
    <path d="M 777.6 320.4 
L 777.6 43.2 
" style="fill: none"/>
   </g>
   <g id="patch_5">
    <path d="M 108 320.4 
L 777.6 320.4 
" style="fill: none; stroke: #a9a9a9; stroke-width: 0.8; stroke-linejoin: miter; stroke-linecap: square"/>
   </g>
   <g id="patch_6">
    <path d="M 108 43.2 
L 777.6 43.2 
" style="fill: none"/>
   </g>
   <g id="text_19">
    <!-- get_subscribe history -->
    <g style="fill: #a9a9a9" transform="translate(378.6075 37.2) scale(0.12 -0.12)">
     <defs>
      <path id="DejaVuSans-67" d="M 2906 1791 
Q 2906 2416 2648 2759 
Q 2391 3103 1925 3103 
Q 1463 3103 1205 2759 
Q 947 2416 947 1791 
Q 947 1169 1205 825 
Q 1463 481 1925 481 
Q 2391 481 2648 825 
Q 2906 1169 2906 1791 
z
M 3481 434 
Q 3481 -459 3084 -895 
Q 2688 -1331 1869 -1331 
Q 1566 -1331 1297 -1286 
Q 1028 -1241 775 -1147 
L 775 -588 
Q 1028 -725 1275 -790 
Q 1522 -856 1778 -856 
Q 2344 -856 2625 -561 
Q 2906 -266 2906 331 
L 2906 616 
Q 2728 306 2450 153 
Q 2172 0 1784 0 
Q 1141 0 747 490 
Q 353 981 353 1791 
Q 353 2603 747 3093 
Q 1141 3584 1784 3584 
Q 2172 3584 2450 3431 
Q 2728 3278 2906 2969 
L 2906 3500 
L 3481 3500 
L 3481 434 
z
" transform="scale(0.015625)"/>
      <path id="DejaVuSans-65" d="M 3597 1894 
L 3597 1613 
L 953 1613 
Q 991 1019 1311 708 
Q 1631 397 2203 397 
Q 2534 397 2845 478 
Q 3156 559 3463 722 
L 3463 178 
Q 3153 47 2828 -22 
Q 2503 -91 2169 -91 
Q 1331 -91 842 396 
Q 353 884 353 1716 
Q 353 2575 817 3079 
Q 1281 3584 2069 3584 
Q 2775 3584 3186 3129 
Q 3597 2675 3597 1894 
z
M 3022 2063 
Q 3016 2534 2758 2815 
Q 2500 3097 2075 3097 
Q 1594 3097 1305 2825 
Q 1016 2553 972 2059 
L 3022 2063 
z
" transform="scale(0.015625)"/>
      <path id="DejaVuSans-74" d="M 1172 4494 
L 1172 3500 
L 2356 3500 
L 2356 3053 
L 1172 3053 
L 1172 1153 
Q 1172 725 1289 603 
Q 1406 481 1766 481 
L 2356 481 
L 2356 0 
L 1766 0 
Q 1100 0 847 248 
Q 594 497 594 1153 
L 594 3053 
L 172 3053 
L 172 3500 
L 594 3500 
L 594 4494 
L 1172 4494 
z
" transform="scale(0.015625)"/>
      <path id="DejaVuSans-5f" d="M 3263 -1063 
L 3263 -1509 
L -63 -1509 
L -63 -1063 
L 3263 -1063 
z
" transform="scale(0.015625)"/>
      <path id="DejaVuSans-73" d="M 2834 3397 
L 2834 2853 
Q 2591 2978 2328 3040 
Q 2066 3103 1784 3103 
Q 1356 3103 1142 2972 
Q 928 2841 928 2578 
Q 928 2378 1081 2264 
Q 1234 2150 1697 2047 
L 1894 2003 
Q 2506 1872 2764 1633 
Q 3022 1394 3022 966 
Q 3022 478 2636 193 
Q 2250 -91 1575 -91 
Q 1294 -91 989 -36 
Q 684 19 347 128 
L 347 722 
Q 666 556 975 473 
Q 1284 391 1588 391 
Q 1994 391 2212 530 
Q 2431 669 2431 922 
Q 2431 1156 2273 1281 
Q 2116 1406 1581 1522 
L 1381 1569 
Q 847 1681 609 1914 
Q 372 2147 372 2553 
Q 372 3047 722 3315 
Q 1072 3584 1716 3584 
Q 2034 3584 2315 3537 
Q 2597 3491 2834 3397 
z
" transform="scale(0.015625)"/>
      <path id="DejaVuSans-75" d="M 544 1381 
L 544 3500 
L 1119 3500 
L 1119 1403 
Q 1119 906 1312 657 
Q 1506 409 1894 409 
Q 2359 409 2629 706 
Q 2900 1003 2900 1516 
L 2900 3500 
L 3475 3500 
L 3475 0 
L 2900 0 
L 2900 538 
Q 2691 219 2414 64 
Q 2138 -91 1772 -91 
Q 1169 -91 856 284 
Q 544 659 544 1381 
z
M 1991 3584 
L 1991 3584 
z
" transform="scale(0.015625)"/>
      <path id="DejaVuSans-62" d="M 3116 1747 
Q 3116 2381 2855 2742 
Q 2594 3103 2138 3103 
Q 1681 3103 1420 2742 
Q 1159 2381 1159 1747 
Q 1159 1113 1420 752 
Q 1681 391 2138 391 
Q 2594 391 2855 752 
Q 3116 1113 3116 1747 
z
M 1159 2969 
Q 1341 3281 1617 3432 
Q 1894 3584 2278 3584 
Q 2916 3584 3314 3078 
Q 3713 2572 3713 1747 
Q 3713 922 3314 415 
Q 2916 -91 2278 -91 
Q 1894 -91 1617 61 
Q 1341 213 1159 525 
L 1159 0 
L 581 0 
L 581 4863 
L 1159 4863 
L 1159 2969 
z
" transform="scale(0.015625)"/>
      <path id="DejaVuSans-63" d="M 3122 3366 
L 3122 2828 
Q 2878 2963 2633 3030 
Q 2388 3097 2138 3097 
Q 1578 3097 1268 2742 
Q 959 2388 959 1747 
Q 959 1106 1268 751 
Q 1578 397 2138 397 
Q 2388 397 2633 464 
Q 2878 531 3122 666 
L 3122 134 
Q 2881 22 2623 -34 
Q 2366 -91 2075 -91 
Q 1284 -91 818 406 
Q 353 903 353 1747 
Q 353 2603 823 3093 
Q 1294 3584 2113 3584 
Q 2378 3584 2631 3529 
Q 2884 3475 3122 3366 
z
" transform="scale(0.015625)"/>
      <path id="DejaVuSans-72" d="M 2631 2963 
Q 2534 3019 2420 3045 
Q 2306 3072 2169 3072 
Q 1681 3072 1420 2755 
Q 1159 2438 1159 1844 
L 1159 0 
L 581 0 
L 581 3500 
L 1159 3500 
L 1159 2956 
Q 1341 3275 1631 3429 
Q 1922 3584 2338 3584 
Q 2397 3584 2469 3576 
Q 2541 3569 2628 3553 
L 2631 2963 
z
" transform="scale(0.015625)"/>
      <path id="DejaVuSans-69" d="M 603 3500 
L 1178 3500 
L 1178 0 
L 603 0 
L 603 3500 
z
M 603 4863 
L 1178 4863 
L 1178 4134 
L 603 4134 
L 603 4863 
z
" transform="scale(0.015625)"/>
      <path id="DejaVuSans-20" transform="scale(0.015625)"/>
      <path id="DejaVuSans-68" d="M 3513 2113 
L 3513 0 
L 2938 0 
L 2938 2094 
Q 2938 2591 2744 2837 
Q 2550 3084 2163 3084 
Q 1697 3084 1428 2787 
Q 1159 2491 1159 1978 
L 1159 0 
L 581 0 
L 581 4863 
L 1159 4863 
L 1159 2956 
Q 1366 3272 1645 3428 
Q 1925 3584 2291 3584 
Q 2894 3584 3203 3211 
Q 3513 2838 3513 2113 
z
" transform="scale(0.015625)"/>
      <path id="DejaVuSans-6f" d="M 1959 3097 
Q 1497 3097 1228 2736 
Q 959 2375 959 1747 
Q 959 1119 1226 758 
Q 1494 397 1959 397 
Q 2419 397 2687 759 
Q 2956 1122 2956 1747 
Q 2956 2369 2687 2733 
Q 2419 3097 1959 3097 
z
M 1959 3584 
Q 2709 3584 3137 3096 
Q 3566 2609 3566 1747 
Q 3566 888 3137 398 
Q 2709 -91 1959 -91 
Q 1206 -91 779 398 
Q 353 888 353 1747 
Q 353 2609 779 3096 
Q 1206 3584 1959 3584 
z
" transform="scale(0.015625)"/>
      <path id="DejaVuSans-79" d="M 2059 -325 
Q 1816 -950 1584 -1140 
Q 1353 -1331 966 -1331 
L 506 -1331 
L 506 -850 
L 844 -850 
Q 1081 -850 1212 -737 
Q 1344 -625 1503 -206 
L 1606 56 
L 191 3500 
L 800 3500 
L 1894 763 
L 2988 3500 
L 3597 3500 
L 2059 -325 
z
" transform="scale(0.015625)"/>
     </defs>
     <use xlink:href="#DejaVuSans-67"/>
     <use xlink:href="#DejaVuSans-65" transform="translate(63.476562 0)"/>
     <use xlink:href="#DejaVuSans-74" transform="translate(125 0)"/>
     <use xlink:href="#DejaVuSans-5f" transform="translate(164.208984 0)"/>
     <use xlink:href="#DejaVuSans-73" transform="translate(214.208984 0)"/>
     <use xlink:href="#DejaVuSans-75" transform="translate(266.308594 0)"/>
     <use xlink:href="#DejaVuSans-62" transform="translate(329.6875 0)"/>
     <use xlink:href="#DejaVuSans-73" transform="translate(393.164062 0)"/>
     <use xlink:href="#DejaVuSans-63" transform="translate(445.263672 0)"/>
     <use xlink:href="#DejaVuSans-72" transform="translate(500.244141 0)"/>
     <use xlink:href="#DejaVuSans-69" transform="translate(541.357422 0)"/>
     <use xlink:href="#DejaVuSans-62" transform="translate(569.140625 0)"/>
     <use xlink:href="#DejaVuSans-65" transform="translate(632.617188 0)"/>
     <use xlink:href="#DejaVuSans-20" transform="translate(694.140625 0)"/>
     <use xlink:href="#DejaVuSans-68" transform="translate(725.927734 0)"/>
     <use xlink:href="#DejaVuSans-69" transform="translate(789.306641 0)"/>
     <use xlink:href="#DejaVuSans-73" transform="translate(817.089844 0)"/>
     <use xlink:href="#DejaVuSans-74" transform="translate(869.189453 0)"/>
     <use xlink:href="#DejaVuSans-6f" transform="translate(908.398438 0)"/>
     <use xlink:href="#DejaVuSans-72" transform="translate(969.580078 0)"/>
     <use xlink:href="#DejaVuSans-79" transform="translate(1010.693359 0)"/>
    </g>
   </g>
   <g id="legend_1">
    <g id="line2d_39">
     <path d="M 815.08 328.498438 
L 825.08 328.498438 
L 835.08 328.498438 
" style="fill: none; stroke: #1f77b4; stroke-width: 1.5; stroke-linecap: square"/>
    </g>
    <g id="text_20">
     <!-- star -->
     <g style="fill: #a9a9a9" transform="translate(843.08 331.998438) scale(0.1 -0.1)">
      <defs>
       <path id="DejaVuSans-61" d="M 2194 1759 
Q 1497 1759 1228 1600 
Q 959 1441 959 1056 
Q 959 750 1161 570 
Q 1363 391 1709 391 
Q 2188 391 2477 730 
Q 2766 1069 2766 1631 
L 2766 1759 
L 2194 1759 
z
M 3341 1997 
L 3341 0 
L 2766 0 
L 2766 531 
Q 2569 213 2275 61 
Q 1981 -91 1556 -91 
Q 1019 -91 701 211 
Q 384 513 384 1019 
Q 384 1609 779 1909 
Q 1175 2209 1959 2209 
L 2766 2209 
L 2766 2266 
Q 2766 2663 2505 2880 
Q 2244 3097 1772 3097 
Q 1472 3097 1187 3025 
Q 903 2953 641 2809 
L 641 3341 
Q 956 3463 1253 3523 
Q 1550 3584 1831 3584 
Q 2591 3584 2966 3190 
Q 3341 2797 3341 1997 
z
" transform="scale(0.015625)"/>
      </defs>
      <use xlink:href="#DejaVuSans-73"/>
      <use xlink:href="#DejaVuSans-74" transform="translate(52.099609 0)"/>
      <use xlink:href="#DejaVuSans-61" transform="translate(91.308594 0)"/>
      <use xlink:href="#DejaVuSans-72" transform="translate(152.587891 0)"/>
     </g>
    </g>
    <g id="line2d_40">
     <path d="M 815.08 343.176562 
L 825.08 343.176562 
L 835.08 343.176562 
" style="fill: none; stroke: #ff7f0e; stroke-width: 1.5; stroke-linecap: square"/>
    </g>
    <g id="text_21">
     <!-- fork -->
     <g style="fill: #a9a9a9" transform="translate(843.08 346.676562) scale(0.1 -0.1)">
      <defs>
       <path id="DejaVuSans-66" d="M 2375 4863 
L 2375 4384 
L 1825 4384 
Q 1516 4384 1395 4259 
Q 1275 4134 1275 3809 
L 1275 3500 
L 2222 3500 
L 2222 3053 
L 1275 3053 
L 1275 0 
L 697 0 
L 697 3053 
L 147 3053 
L 147 3500 
L 697 3500 
L 697 3744 
Q 697 4328 969 4595 
Q 1241 4863 1831 4863 
L 2375 4863 
z
" transform="scale(0.015625)"/>
       <path id="DejaVuSans-6b" d="M 581 4863 
L 1159 4863 
L 1159 1991 
L 2875 3500 
L 3609 3500 
L 1753 1863 
L 3688 0 
L 2938 0 
L 1159 1709 
L 1159 0 
L 581 0 
L 581 4863 
z
" transform="scale(0.015625)"/>
      </defs>
      <use xlink:href="#DejaVuSans-66"/>
      <use xlink:href="#DejaVuSans-6f" transform="translate(35.205078 0)"/>
      <use xlink:href="#DejaVuSans-72" transform="translate(96.386719 0)"/>
      <use xlink:href="#DejaVuSans-6b" transform="translate(137.5 0)"/>
     </g>
    </g>
   </g>
  </g>
 </g>
 <defs>
  <clipPath id="p6f638f2820">
   <rect x="108" y="43.2" width="669.6" height="277.2"/>
  </clipPath>
 </defs>
</svg>
