<?xml version="1.0" encoding="utf-8" standalone="no"?>
<!DOCTYPE svg PUBLIC "-//W3C//DTD SVG 1.1//EN"
  "http://www.w3.org/Graphics/SVG/1.1/DTD/svg11.dtd">
<svg xmlns:xlink="http://www.w3.org/1999/xlink" width="864pt" height="360pt" viewBox="0 0 864 360" xmlns="http://www.w3.org/2000/svg" version="1.1">
 <metadata>
  <rdf:RDF xmlns:dc="http://purl.org/dc/elements/1.1/" xmlns:cc="http://creativecommons.org/ns#" xmlns:rdf="http://www.w3.org/1999/02/22-rdf-syntax-ns#">
   <cc:Work>
    <dc:type rdf:resource="http://purl.org/dc/dcmitype/StillImage"/>
    <dc:date>2024-12-18T02:23:28.757857</dc:date>
    <dc:format>image/svg+xml</dc:format>
    <dc:creator>
     <cc:Agent>
      <dc:title>Matplotlib v3.10.0, https://matplotlib.org/</dc:title>
     </cc:Agent>
    </dc:creator>
   </cc:Work>
  </rdf:RDF>
 </metadata>
 <defs>
  <style type="text/css">*{stroke-linejoin: round; stroke-linecap: butt}</style>
 </defs>
 <g id="figure_1">
  <g id="patch_1">
   <path d="M 0 360 
L 864 360 
L 864 0 
L 0 0 
L 0 360 
z
" style="fill: none; opacity: 0"/>
  </g>
  <g id="axes_1">
   <g id="patch_2">
    <path d="M 108 320.4 
L 777.6 320.4 
L 777.6 43.2 
L 108 43.2 
L 108 320.4 
z
" style="fill: none; opacity: 0"/>
   </g>
   <g id="matplotlib.axis_1">
    <g id="xtick_1">
     <g id="line2d_1">
      <path d="M 157.53561 320.4 
L 157.53561 43.2 
" clip-path="url(#p0f582b5553)" style="fill: none; stroke-dasharray: 5.12,1.28,0.8,1.28; stroke-dashoffset: 0; stroke: #b0b0b0; stroke-width: 0.8"/>
     </g>
     <g id="line2d_2">
      <defs>
       <path id="m6dd990ace1" d="M 0 0 
L 0 3.5 
" style="stroke: #a9a9a9; stroke-width: 0.8"/>
      </defs>
      <g>
       <use xlink:href="#m6dd990ace1" x="157.53561" y="320.4" style="fill: #a9a9a9; stroke: #a9a9a9; stroke-width: 0.8"/>
      </g>
     </g>
     <g id="text_1">
      <!-- 2021-09 -->
      <g style="fill: #a9a9a9" transform="translate(136.644204 334.998438) scale(0.1 -0.1)">
       <defs>
        <path id="DejaVuSans-32" d="M 1228 531 
L 3431 531 
L 3431 0 
L 469 0 
L 469 531 
Q 828 903 1448 1529 
Q 2069 2156 2228 2338 
Q 2531 2678 2651 2914 
Q 2772 3150 2772 3378 
Q 2772 3750 2511 3984 
Q 2250 4219 1831 4219 
Q 1534 4219 1204 4116 
Q 875 4013 500 3803 
L 500 4441 
Q 881 4594 1212 4672 
Q 1544 4750 1819 4750 
Q 2544 4750 2975 4387 
Q 3406 4025 3406 3419 
Q 3406 3131 3298 2873 
Q 3191 2616 2906 2266 
Q 2828 2175 2409 1742 
Q 1991 1309 1228 531 
z
" transform="scale(0.015625)"/>
        <path id="DejaVuSans-30" d="M 2034 4250 
Q 1547 4250 1301 3770 
Q 1056 3291 1056 2328 
Q 1056 1369 1301 889 
Q 1547 409 2034 409 
Q 2525 409 2770 889 
Q 3016 1369 3016 2328 
Q 3016 3291 2770 3770 
Q 2525 4250 2034 4250 
z
M 2034 4750 
Q 2819 4750 3233 4129 
Q 3647 3509 3647 2328 
Q 3647 1150 3233 529 
Q 2819 -91 2034 -91 
Q 1250 -91 836 529 
Q 422 1150 422 2328 
Q 422 3509 836 4129 
Q 1250 4750 2034 4750 
z
" transform="scale(0.015625)"/>
        <path id="DejaVuSans-31" d="M 794 531 
L 1825 531 
L 1825 4091 
L 703 3866 
L 703 4441 
L 1819 4666 
L 2450 4666 
L 2450 531 
L 3481 531 
L 3481 0 
L 794 0 
L 794 531 
z
" transform="scale(0.015625)"/>
        <path id="DejaVuSans-2d" d="M 313 2009 
L 1997 2009 
L 1997 1497 
L 313 1497 
L 313 2009 
z
" transform="scale(0.015625)"/>
        <path id="DejaVuSans-39" d="M 703 97 
L 703 672 
Q 941 559 1184 500 
Q 1428 441 1663 441 
Q 2288 441 2617 861 
Q 2947 1281 2994 2138 
Q 2813 1869 2534 1725 
Q 2256 1581 1919 1581 
Q 1219 1581 811 2004 
Q 403 2428 403 3163 
Q 403 3881 828 4315 
Q 1253 4750 1959 4750 
Q 2769 4750 3195 4129 
Q 3622 3509 3622 2328 
Q 3622 1225 3098 567 
Q 2575 -91 1691 -91 
Q 1453 -91 1209 -44 
Q 966 3 703 97 
z
M 1959 2075 
Q 2384 2075 2632 2365 
Q 2881 2656 2881 3163 
Q 2881 3666 2632 3958 
Q 2384 4250 1959 4250 
Q 1534 4250 1286 3958 
Q 1038 3666 1038 3163 
Q 1038 2656 1286 2365 
Q 1534 2075 1959 2075 
z
" transform="scale(0.015625)"/>
       </defs>
       <use xlink:href="#DejaVuSans-32"/>
       <use xlink:href="#DejaVuSans-30" transform="translate(63.623047 0)"/>
       <use xlink:href="#DejaVuSans-32" transform="translate(127.246094 0)"/>
       <use xlink:href="#DejaVuSans-31" transform="translate(190.869141 0)"/>
       <use xlink:href="#DejaVuSans-2d" transform="translate(254.492188 0)"/>
       <use xlink:href="#DejaVuSans-30" transform="translate(290.576172 0)"/>
       <use xlink:href="#DejaVuSans-39" transform="translate(354.199219 0)"/>
      </g>
     </g>
    </g>
    <g id="xtick_2">
     <g id="line2d_3">
      <path d="M 217.281972 320.4 
L 217.281972 43.2 
" clip-path="url(#p0f582b5553)" style="fill: none; stroke-dasharray: 5.12,1.28,0.8,1.28; stroke-dashoffset: 0; stroke: #b0b0b0; stroke-width: 0.8"/>
     </g>
     <g id="line2d_4">
      <g>
       <use xlink:href="#m6dd990ace1" x="217.281972" y="320.4" style="fill: #a9a9a9; stroke: #a9a9a9; stroke-width: 0.8"/>
      </g>
     </g>
     <g id="text_2">
      <!-- 2022-01 -->
      <g style="fill: #a9a9a9" transform="translate(196.390566 334.998438) scale(0.1 -0.1)">
       <use xlink:href="#DejaVuSans-32"/>
       <use xlink:href="#DejaVuSans-30" transform="translate(63.623047 0)"/>
       <use xlink:href="#DejaVuSans-32" transform="translate(127.246094 0)"/>
       <use xlink:href="#DejaVuSans-32" transform="translate(190.869141 0)"/>
       <use xlink:href="#DejaVuSans-2d" transform="translate(254.492188 0)"/>
       <use xlink:href="#DejaVuSans-30" transform="translate(290.576172 0)"/>
       <use xlink:href="#DejaVuSans-31" transform="translate(354.199219 0)"/>
      </g>
     </g>
    </g>
    <g id="xtick_3">
     <g id="line2d_5">
      <path d="M 276.048885 320.4 
L 276.048885 43.2 
" clip-path="url(#p0f582b5553)" style="fill: none; stroke-dasharray: 5.12,1.28,0.8,1.28; stroke-dashoffset: 0; stroke: #b0b0b0; stroke-width: 0.8"/>
     </g>
     <g id="line2d_6">
      <g>
       <use xlink:href="#m6dd990ace1" x="276.048885" y="320.4" style="fill: #a9a9a9; stroke: #a9a9a9; stroke-width: 0.8"/>
      </g>
     </g>
     <g id="text_3">
      <!-- 2022-05 -->
      <g style="fill: #a9a9a9" transform="translate(255.157478 334.998438) scale(0.1 -0.1)">
       <defs>
        <path id="DejaVuSans-35" d="M 691 4666 
L 3169 4666 
L 3169 4134 
L 1269 4134 
L 1269 2991 
Q 1406 3038 1543 3061 
Q 1681 3084 1819 3084 
Q 2600 3084 3056 2656 
Q 3513 2228 3513 1497 
Q 3513 744 3044 326 
Q 2575 -91 1722 -91 
Q 1428 -91 1123 -41 
Q 819 9 494 109 
L 494 744 
Q 775 591 1075 516 
Q 1375 441 1709 441 
Q 2250 441 2565 725 
Q 2881 1009 2881 1497 
Q 2881 1984 2565 2268 
Q 2250 2553 1709 2553 
Q 1456 2553 1204 2497 
Q 953 2441 691 2322 
L 691 4666 
z
" transform="scale(0.015625)"/>
       </defs>
       <use xlink:href="#DejaVuSans-32"/>
       <use xlink:href="#DejaVuSans-30" transform="translate(63.623047 0)"/>
       <use xlink:href="#DejaVuSans-32" transform="translate(127.246094 0)"/>
       <use xlink:href="#DejaVuSans-32" transform="translate(190.869141 0)"/>
       <use xlink:href="#DejaVuSans-2d" transform="translate(254.492188 0)"/>
       <use xlink:href="#DejaVuSans-30" transform="translate(290.576172 0)"/>
       <use xlink:href="#DejaVuSans-35" transform="translate(354.199219 0)"/>
      </g>
     </g>
    </g>
    <g id="xtick_4">
     <g id="line2d_7">
      <path d="M 336.28497 320.4 
L 336.28497 43.2 
" clip-path="url(#p0f582b5553)" style="fill: none; stroke-dasharray: 5.12,1.28,0.8,1.28; stroke-dashoffset: 0; stroke: #b0b0b0; stroke-width: 0.8"/>
     </g>
     <g id="line2d_8">
      <g>
       <use xlink:href="#m6dd990ace1" x="336.28497" y="320.4" style="fill: #a9a9a9; stroke: #a9a9a9; stroke-width: 0.8"/>
      </g>
     </g>
     <g id="text_4">
      <!-- 2022-09 -->
      <g style="fill: #a9a9a9" transform="translate(315.393564 334.998438) scale(0.1 -0.1)">
       <use xlink:href="#DejaVuSans-32"/>
       <use xlink:href="#DejaVuSans-30" transform="translate(63.623047 0)"/>
       <use xlink:href="#DejaVuSans-32" transform="translate(127.246094 0)"/>
       <use xlink:href="#DejaVuSans-32" transform="translate(190.869141 0)"/>
       <use xlink:href="#DejaVuSans-2d" transform="translate(254.492188 0)"/>
       <use xlink:href="#DejaVuSans-30" transform="translate(290.576172 0)"/>
       <use xlink:href="#DejaVuSans-39" transform="translate(354.199219 0)"/>
      </g>
     </g>
    </g>
    <g id="xtick_5">
     <g id="line2d_9">
      <path d="M 396.031332 320.4 
L 396.031332 43.2 
" clip-path="url(#p0f582b5553)" style="fill: none; stroke-dasharray: 5.12,1.28,0.8,1.28; stroke-dashoffset: 0; stroke: #b0b0b0; stroke-width: 0.8"/>
     </g>
     <g id="line2d_10">
      <g>
       <use xlink:href="#m6dd990ace1" x="396.031332" y="320.4" style="fill: #a9a9a9; stroke: #a9a9a9; stroke-width: 0.8"/>
      </g>
     </g>
     <g id="text_5">
      <!-- 2023-01 -->
      <g style="fill: #a9a9a9" transform="translate(375.139926 334.998438) scale(0.1 -0.1)">
       <defs>
        <path id="DejaVuSans-33" d="M 2597 2516 
Q 3050 2419 3304 2112 
Q 3559 1806 3559 1356 
Q 3559 666 3084 287 
Q 2609 -91 1734 -91 
Q 1441 -91 1130 -33 
Q 819 25 488 141 
L 488 750 
Q 750 597 1062 519 
Q 1375 441 1716 441 
Q 2309 441 2620 675 
Q 2931 909 2931 1356 
Q 2931 1769 2642 2001 
Q 2353 2234 1838 2234 
L 1294 2234 
L 1294 2753 
L 1863 2753 
Q 2328 2753 2575 2939 
Q 2822 3125 2822 3475 
Q 2822 3834 2567 4026 
Q 2313 4219 1838 4219 
Q 1578 4219 1281 4162 
Q 984 4106 628 3988 
L 628 4550 
Q 988 4650 1302 4700 
Q 1616 4750 1894 4750 
Q 2613 4750 3031 4423 
Q 3450 4097 3450 3541 
Q 3450 3153 3228 2886 
Q 3006 2619 2597 2516 
z
" transform="scale(0.015625)"/>
       </defs>
       <use xlink:href="#DejaVuSans-32"/>
       <use xlink:href="#DejaVuSans-30" transform="translate(63.623047 0)"/>
       <use xlink:href="#DejaVuSans-32" transform="translate(127.246094 0)"/>
       <use xlink:href="#DejaVuSans-33" transform="translate(190.869141 0)"/>
       <use xlink:href="#DejaVuSans-2d" transform="translate(254.492188 0)"/>
       <use xlink:href="#DejaVuSans-30" transform="translate(290.576172 0)"/>
       <use xlink:href="#DejaVuSans-31" transform="translate(354.199219 0)"/>
      </g>
     </g>
    </g>
    <g id="xtick_6">
     <g id="line2d_11">
      <path d="M 454.798245 320.4 
L 454.798245 43.2 
" clip-path="url(#p0f582b5553)" style="fill: none; stroke-dasharray: 5.12,1.28,0.8,1.28; stroke-dashoffset: 0; stroke: #b0b0b0; stroke-width: 0.8"/>
     </g>
     <g id="line2d_12">
      <g>
       <use xlink:href="#m6dd990ace1" x="454.798245" y="320.4" style="fill: #a9a9a9; stroke: #a9a9a9; stroke-width: 0.8"/>
      </g>
     </g>
     <g id="text_6">
      <!-- 2023-05 -->
      <g style="fill: #a9a9a9" transform="translate(433.906838 334.998438) scale(0.1 -0.1)">
       <use xlink:href="#DejaVuSans-32"/>
       <use xlink:href="#DejaVuSans-30" transform="translate(63.623047 0)"/>
       <use xlink:href="#DejaVuSans-32" transform="translate(127.246094 0)"/>
       <use xlink:href="#DejaVuSans-33" transform="translate(190.869141 0)"/>
       <use xlink:href="#DejaVuSans-2d" transform="translate(254.492188 0)"/>
       <use xlink:href="#DejaVuSans-30" transform="translate(290.576172 0)"/>
       <use xlink:href="#DejaVuSans-35" transform="translate(354.199219 0)"/>
      </g>
     </g>
    </g>
    <g id="xtick_7">
     <g id="line2d_13">
      <path d="M 515.03433 320.4 
L 515.03433 43.2 
" clip-path="url(#p0f582b5553)" style="fill: none; stroke-dasharray: 5.12,1.28,0.8,1.28; stroke-dashoffset: 0; stroke: #b0b0b0; stroke-width: 0.8"/>
     </g>
     <g id="line2d_14">
      <g>
       <use xlink:href="#m6dd990ace1" x="515.03433" y="320.4" style="fill: #a9a9a9; stroke: #a9a9a9; stroke-width: 0.8"/>
      </g>
     </g>
     <g id="text_7">
      <!-- 2023-09 -->
      <g style="fill: #a9a9a9" transform="translate(494.142924 334.998438) scale(0.1 -0.1)">
       <use xlink:href="#DejaVuSans-32"/>
       <use xlink:href="#DejaVuSans-30" transform="translate(63.623047 0)"/>
       <use xlink:href="#DejaVuSans-32" transform="translate(127.246094 0)"/>
       <use xlink:href="#DejaVuSans-33" transform="translate(190.869141 0)"/>
       <use xlink:href="#DejaVuSans-2d" transform="translate(254.492188 0)"/>
       <use xlink:href="#DejaVuSans-30" transform="translate(290.576172 0)"/>
       <use xlink:href="#DejaVuSans-39" transform="translate(354.199219 0)"/>
      </g>
     </g>
    </g>
    <g id="xtick_8">
     <g id="line2d_15">
      <path d="M 574.780692 320.4 
L 574.780692 43.2 
" clip-path="url(#p0f582b5553)" style="fill: none; stroke-dasharray: 5.12,1.28,0.8,1.28; stroke-dashoffset: 0; stroke: #b0b0b0; stroke-width: 0.8"/>
     </g>
     <g id="line2d_16">
      <g>
       <use xlink:href="#m6dd990ace1" x="574.780692" y="320.4" style="fill: #a9a9a9; stroke: #a9a9a9; stroke-width: 0.8"/>
      </g>
     </g>
     <g id="text_8">
      <!-- 2024-01 -->
      <g style="fill: #a9a9a9" transform="translate(553.889286 334.998438) scale(0.1 -0.1)">
       <defs>
        <path id="DejaVuSans-34" d="M 2419 4116 
L 825 1625 
L 2419 1625 
L 2419 4116 
z
M 2253 4666 
L 3047 4666 
L 3047 1625 
L 3713 1625 
L 3713 1100 
L 3047 1100 
L 3047 0 
L 2419 0 
L 2419 1100 
L 313 1100 
L 313 1709 
L 2253 4666 
z
" transform="scale(0.015625)"/>
       </defs>
       <use xlink:href="#DejaVuSans-32"/>
       <use xlink:href="#DejaVuSans-30" transform="translate(63.623047 0)"/>
       <use xlink:href="#DejaVuSans-32" transform="translate(127.246094 0)"/>
       <use xlink:href="#DejaVuSans-34" transform="translate(190.869141 0)"/>
       <use xlink:href="#DejaVuSans-2d" transform="translate(254.492188 0)"/>
       <use xlink:href="#DejaVuSans-30" transform="translate(290.576172 0)"/>
       <use xlink:href="#DejaVuSans-31" transform="translate(354.199219 0)"/>
      </g>
     </g>
    </g>
    <g id="xtick_9">
     <g id="line2d_17">
      <path d="M 634.037329 320.4 
L 634.037329 43.2 
" clip-path="url(#p0f582b5553)" style="fill: none; stroke-dasharray: 5.12,1.28,0.8,1.28; stroke-dashoffset: 0; stroke: #b0b0b0; stroke-width: 0.8"/>
     </g>
     <g id="line2d_18">
      <g>
       <use xlink:href="#m6dd990ace1" x="634.037329" y="320.4" style="fill: #a9a9a9; stroke: #a9a9a9; stroke-width: 0.8"/>
      </g>
     </g>
     <g id="text_9">
      <!-- 2024-05 -->
      <g style="fill: #a9a9a9" transform="translate(613.145923 334.998438) scale(0.1 -0.1)">
       <use xlink:href="#DejaVuSans-32"/>
       <use xlink:href="#DejaVuSans-30" transform="translate(63.623047 0)"/>
       <use xlink:href="#DejaVuSans-32" transform="translate(127.246094 0)"/>
       <use xlink:href="#DejaVuSans-34" transform="translate(190.869141 0)"/>
       <use xlink:href="#DejaVuSans-2d" transform="translate(254.492188 0)"/>
       <use xlink:href="#DejaVuSans-30" transform="translate(290.576172 0)"/>
       <use xlink:href="#DejaVuSans-35" transform="translate(354.199219 0)"/>
      </g>
     </g>
    </g>
    <g id="xtick_10">
     <g id="line2d_19">
      <path d="M 694.273415 320.4 
L 694.273415 43.2 
" clip-path="url(#p0f582b5553)" style="fill: none; stroke-dasharray: 5.12,1.28,0.8,1.28; stroke-dashoffset: 0; stroke: #b0b0b0; stroke-width: 0.8"/>
     </g>
     <g id="line2d_20">
      <g>
       <use xlink:href="#m6dd990ace1" x="694.273415" y="320.4" style="fill: #a9a9a9; stroke: #a9a9a9; stroke-width: 0.8"/>
      </g>
     </g>
     <g id="text_10">
      <!-- 2024-09 -->
      <g style="fill: #a9a9a9" transform="translate(673.382009 334.998438) scale(0.1 -0.1)">
       <use xlink:href="#DejaVuSans-32"/>
       <use xlink:href="#DejaVuSans-30" transform="translate(63.623047 0)"/>
       <use xlink:href="#DejaVuSans-32" transform="translate(127.246094 0)"/>
       <use xlink:href="#DejaVuSans-34" transform="translate(190.869141 0)"/>
       <use xlink:href="#DejaVuSans-2d" transform="translate(254.492188 0)"/>
       <use xlink:href="#DejaVuSans-30" transform="translate(290.576172 0)"/>
       <use xlink:href="#DejaVuSans-39" transform="translate(354.199219 0)"/>
      </g>
     </g>
    </g>
    <g id="xtick_11">
     <g id="line2d_21">
      <path d="M 754.019776 320.4 
L 754.019776 43.2 
" clip-path="url(#p0f582b5553)" style="fill: none; stroke-dasharray: 5.12,1.28,0.8,1.28; stroke-dashoffset: 0; stroke: #b0b0b0; stroke-width: 0.8"/>
     </g>
     <g id="line2d_22">
      <g>
       <use xlink:href="#m6dd990ace1" x="754.019776" y="320.4" style="fill: #a9a9a9; stroke: #a9a9a9; stroke-width: 0.8"/>
      </g>
     </g>
     <g id="text_11">
      <!-- 2025-01 -->
      <g style="fill: #a9a9a9" transform="translate(733.12837 334.998438) scale(0.1 -0.1)">
       <use xlink:href="#DejaVuSans-32"/>
       <use xlink:href="#DejaVuSans-30" transform="translate(63.623047 0)"/>
       <use xlink:href="#DejaVuSans-32" transform="translate(127.246094 0)"/>
       <use xlink:href="#DejaVuSans-35" transform="translate(190.869141 0)"/>
       <use xlink:href="#DejaVuSans-2d" transform="translate(254.492188 0)"/>
       <use xlink:href="#DejaVuSans-30" transform="translate(290.576172 0)"/>
       <use xlink:href="#DejaVuSans-31" transform="translate(354.199219 0)"/>
      </g>
     </g>
    </g>
   </g>
   <g id="matplotlib.axis_2">
    <g id="ytick_1">
     <g id="line2d_23">
      <path d="M 108 307.835543 
L 777.6 307.835543 
" clip-path="url(#p0f582b5553)" style="fill: none; stroke-dasharray: 5.12,1.28,0.8,1.28; stroke-dashoffset: 0; stroke: #b0b0b0; stroke-width: 0.8"/>
     </g>
     <g id="line2d_24">
      <defs>
       <path id="m0f92e53367" d="M 0 0 
L -3.5 0 
" style="stroke: #a9a9a9; stroke-width: 0.8"/>
      </defs>
      <g>
       <use xlink:href="#m0f92e53367" x="108" y="307.835543" style="fill: #a9a9a9; stroke: #a9a9a9; stroke-width: 0.8"/>
      </g>
     </g>
     <g id="text_12">
      <!-- 0 -->
      <g style="fill: #a9a9a9" transform="translate(94.6375 311.634762) scale(0.1 -0.1)">
       <use xlink:href="#DejaVuSans-30"/>
      </g>
     </g>
    </g>
    <g id="ytick_2">
     <g id="line2d_25">
      <path d="M 108 279.401128 
L 777.6 279.401128 
" clip-path="url(#p0f582b5553)" style="fill: none; stroke-dasharray: 5.12,1.28,0.8,1.28; stroke-dashoffset: 0; stroke: #b0b0b0; stroke-width: 0.8"/>
     </g>
     <g id="line2d_26">
      <g>
       <use xlink:href="#m0f92e53367" x="108" y="279.401128" style="fill: #a9a9a9; stroke: #a9a9a9; stroke-width: 0.8"/>
      </g>
     </g>
     <g id="text_13">
      <!-- 800 -->
      <g style="fill: #a9a9a9" transform="translate(81.9125 283.200347) scale(0.1 -0.1)">
       <defs>
        <path id="DejaVuSans-38" d="M 2034 2216 
Q 1584 2216 1326 1975 
Q 1069 1734 1069 1313 
Q 1069 891 1326 650 
Q 1584 409 2034 409 
Q 2484 409 2743 651 
Q 3003 894 3003 1313 
Q 3003 1734 2745 1975 
Q 2488 2216 2034 2216 
z
M 1403 2484 
Q 997 2584 770 2862 
Q 544 3141 544 3541 
Q 544 4100 942 4425 
Q 1341 4750 2034 4750 
Q 2731 4750 3128 4425 
Q 3525 4100 3525 3541 
Q 3525 3141 3298 2862 
Q 3072 2584 2669 2484 
Q 3125 2378 3379 2068 
Q 3634 1759 3634 1313 
Q 3634 634 3220 271 
Q 2806 -91 2034 -91 
Q 1263 -91 848 271 
Q 434 634 434 1313 
Q 434 1759 690 2068 
Q 947 2378 1403 2484 
z
M 1172 3481 
Q 1172 3119 1398 2916 
Q 1625 2713 2034 2713 
Q 2441 2713 2670 2916 
Q 2900 3119 2900 3481 
Q 2900 3844 2670 4047 
Q 2441 4250 2034 4250 
Q 1625 4250 1398 4047 
Q 1172 3844 1172 3481 
z
" transform="scale(0.015625)"/>
       </defs>
       <use xlink:href="#DejaVuSans-38"/>
       <use xlink:href="#DejaVuSans-30" transform="translate(63.623047 0)"/>
       <use xlink:href="#DejaVuSans-30" transform="translate(127.246094 0)"/>
      </g>
     </g>
    </g>
    <g id="ytick_3">
     <g id="line2d_27">
      <path d="M 108 250.966714 
L 777.6 250.966714 
" clip-path="url(#p0f582b5553)" style="fill: none; stroke-dasharray: 5.12,1.28,0.8,1.28; stroke-dashoffset: 0; stroke: #b0b0b0; stroke-width: 0.8"/>
     </g>
     <g id="line2d_28">
      <g>
       <use xlink:href="#m0f92e53367" x="108" y="250.966714" style="fill: #a9a9a9; stroke: #a9a9a9; stroke-width: 0.8"/>
      </g>
     </g>
     <g id="text_14">
      <!-- 1600 -->
      <g style="fill: #a9a9a9" transform="translate(75.55 254.765932) scale(0.1 -0.1)">
       <defs>
        <path id="DejaVuSans-36" d="M 2113 2584 
Q 1688 2584 1439 2293 
Q 1191 2003 1191 1497 
Q 1191 994 1439 701 
Q 1688 409 2113 409 
Q 2538 409 2786 701 
Q 3034 994 3034 1497 
Q 3034 2003 2786 2293 
Q 2538 2584 2113 2584 
z
M 3366 4563 
L 3366 3988 
Q 3128 4100 2886 4159 
Q 2644 4219 2406 4219 
Q 1781 4219 1451 3797 
Q 1122 3375 1075 2522 
Q 1259 2794 1537 2939 
Q 1816 3084 2150 3084 
Q 2853 3084 3261 2657 
Q 3669 2231 3669 1497 
Q 3669 778 3244 343 
Q 2819 -91 2113 -91 
Q 1303 -91 875 529 
Q 447 1150 447 2328 
Q 447 3434 972 4092 
Q 1497 4750 2381 4750 
Q 2619 4750 2861 4703 
Q 3103 4656 3366 4563 
z
" transform="scale(0.015625)"/>
       </defs>
       <use xlink:href="#DejaVuSans-31"/>
       <use xlink:href="#DejaVuSans-36" transform="translate(63.623047 0)"/>
       <use xlink:href="#DejaVuSans-30" transform="translate(127.246094 0)"/>
       <use xlink:href="#DejaVuSans-30" transform="translate(190.869141 0)"/>
      </g>
     </g>
    </g>
    <g id="ytick_4">
     <g id="line2d_29">
      <path d="M 108 222.532299 
L 777.6 222.532299 
" clip-path="url(#p0f582b5553)" style="fill: none; stroke-dasharray: 5.12,1.28,0.8,1.28; stroke-dashoffset: 0; stroke: #b0b0b0; stroke-width: 0.8"/>
     </g>
     <g id="line2d_30">
      <g>
       <use xlink:href="#m0f92e53367" x="108" y="222.532299" style="fill: #a9a9a9; stroke: #a9a9a9; stroke-width: 0.8"/>
      </g>
     </g>
     <g id="text_15">
      <!-- 2400 -->
      <g style="fill: #a9a9a9" transform="translate(75.55 226.331518) scale(0.1 -0.1)">
       <use xlink:href="#DejaVuSans-32"/>
       <use xlink:href="#DejaVuSans-34" transform="translate(63.623047 0)"/>
       <use xlink:href="#DejaVuSans-30" transform="translate(127.246094 0)"/>
       <use xlink:href="#DejaVuSans-30" transform="translate(190.869141 0)"/>
      </g>
     </g>
    </g>
    <g id="ytick_5">
     <g id="line2d_31">
      <path d="M 108 194.097884 
L 777.6 194.097884 
" clip-path="url(#p0f582b5553)" style="fill: none; stroke-dasharray: 5.12,1.28,0.8,1.28; stroke-dashoffset: 0; stroke: #b0b0b0; stroke-width: 0.8"/>
     </g>
     <g id="line2d_32">
      <g>
       <use xlink:href="#m0f92e53367" x="108" y="194.097884" style="fill: #a9a9a9; stroke: #a9a9a9; stroke-width: 0.8"/>
      </g>
     </g>
     <g id="text_16">
      <!-- 3200 -->
      <g style="fill: #a9a9a9" transform="translate(75.55 197.897103) scale(0.1 -0.1)">
       <use xlink:href="#DejaVuSans-33"/>
       <use xlink:href="#DejaVuSans-32" transform="translate(63.623047 0)"/>
       <use xlink:href="#DejaVuSans-30" transform="translate(127.246094 0)"/>
       <use xlink:href="#DejaVuSans-30" transform="translate(190.869141 0)"/>
      </g>
     </g>
    </g>
    <g id="ytick_6">
     <g id="line2d_33">
      <path d="M 108 165.66347 
L 777.6 165.66347 
" clip-path="url(#p0f582b5553)" style="fill: none; stroke-dasharray: 5.12,1.28,0.8,1.28; stroke-dashoffset: 0; stroke: #b0b0b0; stroke-width: 0.8"/>
     </g>
     <g id="line2d_34">
      <g>
       <use xlink:href="#m0f92e53367" x="108" y="165.66347" style="fill: #a9a9a9; stroke: #a9a9a9; stroke-width: 0.8"/>
      </g>
     </g>
     <g id="text_17">
      <!-- 4000 -->
      <g style="fill: #a9a9a9" transform="translate(75.55 169.462688) scale(0.1 -0.1)">
       <use xlink:href="#DejaVuSans-34"/>
       <use xlink:href="#DejaVuSans-30" transform="translate(63.623047 0)"/>
       <use xlink:href="#DejaVuSans-30" transform="translate(127.246094 0)"/>
       <use xlink:href="#DejaVuSans-30" transform="translate(190.869141 0)"/>
      </g>
     </g>
    </g>
    <g id="ytick_7">
     <g id="line2d_35">
      <path d="M 108 137.229055 
L 777.6 137.229055 
" clip-path="url(#p0f582b5553)" style="fill: none; stroke-dasharray: 5.12,1.28,0.8,1.28; stroke-dashoffset: 0; stroke: #b0b0b0; stroke-width: 0.8"/>
     </g>
     <g id="line2d_36">
      <g>
       <use xlink:href="#m0f92e53367" x="108" y="137.229055" style="fill: #a9a9a9; stroke: #a9a9a9; stroke-width: 0.8"/>
      </g>
     </g>
     <g id="text_18">
      <!-- 4800 -->
      <g style="fill: #a9a9a9" transform="translate(75.55 141.028274) scale(0.1 -0.1)">
       <use xlink:href="#DejaVuSans-34"/>
       <use xlink:href="#DejaVuSans-38" transform="translate(63.623047 0)"/>
       <use xlink:href="#DejaVuSans-30" transform="translate(127.246094 0)"/>
       <use xlink:href="#DejaVuSans-30" transform="translate(190.869141 0)"/>
      </g>
     </g>
    </g>
    <g id="ytick_8">
     <g id="line2d_37">
      <path d="M 108 108.79464 
L 777.6 108.79464 
" clip-path="url(#p0f582b5553)" style="fill: none; stroke-dasharray: 5.12,1.28,0.8,1.28; stroke-dashoffset: 0; stroke: #b0b0b0; stroke-width: 0.8"/>
     </g>
     <g id="line2d_38">
      <g>
       <use xlink:href="#m0f92e53367" x="108" y="108.79464" style="fill: #a9a9a9; stroke: #a9a9a9; stroke-width: 0.8"/>
      </g>
     </g>
     <g id="text_19">
      <!-- 5600 -->
      <g style="fill: #a9a9a9" transform="translate(75.55 112.593859) scale(0.1 -0.1)">
       <use xlink:href="#DejaVuSans-35"/>
       <use xlink:href="#DejaVuSans-36" transform="translate(63.623047 0)"/>
       <use xlink:href="#DejaVuSans-30" transform="translate(127.246094 0)"/>
       <use xlink:href="#DejaVuSans-30" transform="translate(190.869141 0)"/>
      </g>
     </g>
    </g>
    <g id="ytick_9">
     <g id="line2d_39">
      <path d="M 108 80.360226 
L 777.6 80.360226 
" clip-path="url(#p0f582b5553)" style="fill: none; stroke-dasharray: 5.12,1.28,0.8,1.28; stroke-dashoffset: 0; stroke: #b0b0b0; stroke-width: 0.8"/>
     </g>
     <g id="line2d_40">
      <g>
       <use xlink:href="#m0f92e53367" x="108" y="80.360226" style="fill: #a9a9a9; stroke: #a9a9a9; stroke-width: 0.8"/>
      </g>
     </g>
     <g id="text_20">
      <!-- 6400 -->
      <g style="fill: #a9a9a9" transform="translate(75.55 84.159444) scale(0.1 -0.1)">
       <use xlink:href="#DejaVuSans-36"/>
       <use xlink:href="#DejaVuSans-34" transform="translate(63.623047 0)"/>
       <use xlink:href="#DejaVuSans-30" transform="translate(127.246094 0)"/>
       <use xlink:href="#DejaVuSans-30" transform="translate(190.869141 0)"/>
      </g>
     </g>
    </g>
    <g id="ytick_10">
     <g id="line2d_41">
      <path d="M 108 51.925811 
L 777.6 51.925811 
" clip-path="url(#p0f582b5553)" style="fill: none; stroke-dasharray: 5.12,1.28,0.8,1.28; stroke-dashoffset: 0; stroke: #b0b0b0; stroke-width: 0.8"/>
     </g>
     <g id="line2d_42">
      <g>
       <use xlink:href="#m0f92e53367" x="108" y="51.925811" style="fill: #a9a9a9; stroke: #a9a9a9; stroke-width: 0.8"/>
      </g>
     </g>
     <g id="text_21">
      <!-- 7200 -->
      <g style="fill: #a9a9a9" transform="translate(75.55 55.72503) scale(0.1 -0.1)">
       <defs>
        <path id="DejaVuSans-37" d="M 525 4666 
L 3525 4666 
L 3525 4397 
L 1831 0 
L 1172 0 
L 2766 4134 
L 525 4134 
L 525 4666 
z
" transform="scale(0.015625)"/>
       </defs>
       <use xlink:href="#DejaVuSans-37"/>
       <use xlink:href="#DejaVuSans-32" transform="translate(63.623047 0)"/>
       <use xlink:href="#DejaVuSans-30" transform="translate(127.246094 0)"/>
       <use xlink:href="#DejaVuSans-30" transform="translate(190.869141 0)"/>
      </g>
     </g>
    </g>
   </g>
   <g id="line2d_43">
    <path d="M 138.436364 307.728914 
L 141.374709 307.480113 
L 141.864434 307.266855 
L 143.823331 307.018054 
L 145.782228 306.62708 
L 146.761676 306.484908 
L 149.210298 306.27165 
L 150.189746 305.880677 
L 150.67947 305.240903 
L 151.169195 304.885472 
L 151.658919 303.783639 
L 152.148643 303.712553 
L 152.638368 303.32158 
L 153.617816 302.823977 
L 155.576713 301.260085 
L 157.53561 300.300423 
L 159.004783 299.625106 
L 159.494507 298.843159 
L 160.473956 298.132299 
L 160.96368 297.919041 
L 165.860923 297.208181 
L 166.350647 296.994922 
L 169.778717 296.710578 
L 171.737614 296.248519 
L 175.655408 295.715374 
L 176.145133 295.466573 
L 176.634857 295.395487 
L 177.614306 295.075599 
L 181.042375 294.506911 
L 182.021824 294.222567 
L 186.429342 293.476164 
L 187.408791 293.262906 
L 188.38824 293.227362 
L 190.347137 292.765303 
L 190.836861 292.089986 
L 192.306034 291.521298 
L 193.775207 291.130324 
L 194.264931 290.881523 
L 195.244379 290.703808 
L 197.203277 290.13512 
L 198.182725 290.064034 
L 199.162174 289.815233 
L 201.121071 289.31763 
L 201.610795 289.282087 
L 202.590244 288.820028 
L 203.079968 288.748942 
L 203.569692 288.500141 
L 208.956659 287.611566 
L 210.915556 287.042877 
L 211.40528 286.72299 
L 213.853902 285.905501 
L 214.83335 285.230183 
L 216.302523 284.945839 
L 229.035354 281.355994 
L 229.525079 281.355994 
L 230.014803 281.142736 
L 230.994251 281.036107 
L 231.483976 280.858392 
L 233.442873 280.751763 
L 234.422321 280.574048 
L 235.40177 280.076446 
L 236.870943 279.5433 
L 237.360667 279.223413 
L 238.340116 278.796897 
L 238.82984 278.548096 
L 239.809288 278.228209 
L 240.299013 278.086037 
L 241.278461 277.481805 
L 241.768185 276.94866 
L 242.747634 275.455853 
L 243.237358 275.313681 
L 243.727083 275.313681 
L 245.196255 274.460649 
L 245.68598 274.211848 
L 246.175704 274.105219 
L 246.665428 273.643159 
L 247.644877 273.252186 
L 248.624325 272.790127 
L 249.11405 272.185896 
L 249.603774 271.403949 
L 250.093498 271.084062 
L 250.583222 270.23103 
L 251.072947 269.697884 
L 254.011292 268.133992 
L 254.990741 267.352045 
L 255.480465 267.032158 
L 255.970189 266.285755 
L 256.459914 265.183921 
L 256.949638 264.437518 
L 257.439362 264.046544 
L 257.929087 263.833286 
L 261.357156 260.918759 
L 262.336605 259.745839 
L 263.805778 258.715092 
L 265.764675 257.542172 
L 266.744123 257.009027 
L 268.703021 255.978279 
L 271.151642 253.774612 
L 272.13109 253.383639 
L 273.110539 252.708322 
L 273.600263 252.423977 
L 274.089988 252.352891 
L 275.55916 251.535402 
L 276.048885 251.002257 
L 278.497506 249.687165 
L 278.98723 249.50945 
L 280.456403 248.514245 
L 287.802267 245.919605 
L 288.781716 245.03103 
L 289.761164 244.56897 
L 290.740613 244.035825 
L 291.230337 243.751481 
L 292.209786 243.467137 
L 292.69951 243.14725 
L 293.189234 243.005078 
L 294.658407 242.045416 
L 297.107028 241.476728 
L 298.576201 240.623695 
L 300.045374 240.303808 
L 300.535098 240.161636 
L 302.004271 239.059803 
L 303.963168 238.526657 
L 304.452893 238.135684 
L 307.391238 237.14048 
L 308.370687 236.962764 
L 309.350135 236.571791 
L 312.778205 235.327786 
L 313.757654 235.185614 
L 315.226827 234.688011 
L 317.675448 233.515092 
L 319.634345 232.448801 
L 323.552139 230.849365 
L 324.041864 230.778279 
L 325.021312 230.174048 
L 325.511036 230.102962 
L 327.469933 229.285472 
L 329.428831 229.036671 
L 330.408279 228.539069 
L 330.898003 228.112553 
L 331.387728 227.223977 
L 333.346625 226.690832 
L 334.815798 225.944429 
L 335.305522 225.8378 
L 339.223316 223.95402 
L 340.692489 223.669676 
L 341.671937 223.172073 
L 342.161662 222.958815 
L 342.651386 222.887729 
L 344.610283 221.999154 
L 346.079456 221.075035 
L 347.548629 220.790691 
L 349.99725 220.18646 
L 350.486974 219.795487 
L 351.956147 219.262341 
L 353.915044 218.480395 
L 354.404769 218.124965 
L 354.894493 217.94725 
L 355.873941 217.414104 
L 358.322563 216.596615 
L 359.791736 215.423695 
L 360.28146 215.317066 
L 361.260908 214.53512 
L 361.750633 214.464034 
L 362.240357 213.682087 
L 362.730081 213.468829 
L 363.219805 213.077856 
L 363.70953 213.00677 
L 364.688978 212.402539 
L 365.668427 212.082652 
L 366.158151 211.727221 
L 366.647875 211.549506 
L 368.117048 210.518759 
L 370.075945 209.488011 
L 370.56567 209.416925 
L 372.034842 208.670522 
L 372.524567 207.853032 
L 373.504015 207.142172 
L 373.993739 207.035543 
L 374.973188 206.431312 
L 375.462912 206.324683 
L 376.442361 205.82708 
L 378.401258 204.867419 
L 378.890982 204.511989 
L 379.870431 203.552327 
L 380.849879 202.948096 
L 381.339604 202.628209 
L 381.829328 202.095063 
L 383.788225 200.744429 
L 384.277949 200.17574 
L 384.767674 199.784767 
L 385.747122 199.429337 
L 386.726571 198.75402 
L 388.195743 198.007616 
L 388.685468 197.93653 
L 390.154641 197.154584 
L 391.134089 196.550353 
L 396.031332 194.773202 
L 396.521056 194.382228 
L 398.479953 193.635825 
L 398.969677 193.493653 
L 399.949126 192.853879 
L 400.928575 192.427362 
L 401.908023 191.752045 
L 402.887472 189.797179 
L 403.86692 188.659803 
L 405.336093 187.913399 
L 406.315542 187.522426 
L 406.805266 187.45134 
L 407.29499 187.166996 
L 409.743611 186.385049 
L 410.233336 186.171791 
L 411.212784 185.496474 
L 412.681957 184.8567 
L 413.661406 184.323554 
L 414.15113 183.968124 
L 414.640854 183.754866 
L 415.130579 183.399436 
L 415.620303 182.866291 
L 416.599751 182.333145 
L 419.048373 181.018054 
L 421.986718 179.56079 
L 423.455891 179.134274 
L 424.925064 178.565585 
L 425.414788 178.210155 
L 426.394237 177.925811 
L 427.373685 177.534838 
L 427.86341 177.143865 
L 429.822307 176.468547 
L 430.801755 175.757687 
L 431.781204 175.331171 
L 432.760652 174.549224 
L 433.740101 174.193794 
L 434.229825 173.767278 
L 434.719549 173.696192 
L 435.698998 172.949788 
L 436.678447 172.452186 
L 437.168171 172.238928 
L 437.657895 171.741326 
L 441.085965 170.390691 
L 442.065414 169.964175 
L 443.534586 169.502116 
L 444.514035 169.359944 
L 445.003759 169.146685 
L 445.493484 169.075599 
L 446.472932 168.649083 
L 446.962656 168.61354 
L 448.921553 167.867137 
L 450.390726 166.836389 
L 450.880451 166.658674 
L 451.859899 166.125529 
L 452.349623 165.983357 
L 455.287969 164.348378 
L 455.777693 164.241749 
L 457.246866 163.388717 
L 458.716039 162.891114 
L 459.695487 162.571227 
L 461.654385 161.931453 
L 462.633833 161.611566 
L 464.59273 161.220592 
L 465.082454 161.007334 
L 465.572179 160.936248 
L 466.551627 160.509732 
L 467.041352 160.438646 
L 467.531076 160.189845 
L 468.510524 160.01213 
L 469.979697 159.478984 
L 470.959146 159.372355 
L 472.428319 159.052468 
L 474.87694 158.625952 
L 487.609771 154.929478 
L 488.099495 154.431876 
L 489.078944 154.040903 
L 492.996738 152.583639 
L 493.486462 152.299295 
L 494.955635 151.872779 
L 495.935084 151.623977 
L 496.424808 151.30409 
L 496.914532 151.197461 
L 497.404257 150.770945 
L 498.873429 150.486601 
L 499.852878 150.024542 
L 500.342602 149.455853 
L 502.301499 148.993794 
L 505.729569 148.282934 
L 506.219293 148.282934 
L 506.709018 148.069676 
L 508.667915 147.714245 
L 509.157639 147.500987 
L 511.116536 147.145557 
L 512.095985 146.719041 
L 513.075433 146.541326 
L 515.524055 145.937094 
L 517.482952 145.332863 
L 517.972676 145.226234 
L 518.4624 144.977433 
L 519.441849 144.728632 
L 519.931573 144.444288 
L 521.400746 143.946685 
L 521.89047 143.626798 
L 522.869919 143.342454 
L 526.787713 141.991819 
L 527.767162 141.920733 
L 529.726059 141.352045 
L 530.215783 141.067701 
L 531.195231 140.783357 
L 533.643853 139.681523 
L 534.133577 139.64598 
L 539.520544 137.7622 
L 541.969166 137.122426 
L 542.948614 136.660367 
L 544.417787 136.34048 
L 546.376684 134.741044 
L 547.356133 134.4567 
L 547.845857 134.065726 
L 550.784202 132.963893 
L 551.273927 132.644006 
L 552.253375 132.359661 
L 552.7431 132.039774 
L 555.191721 131.257828 
L 556.660894 130.404795 
L 557.150618 130.298166 
L 559.599239 128.983075 
L 561.068412 128.3433 
L 561.558136 127.98787 
L 562.537585 127.667983 
L 563.517034 127.099295 
L 564.006758 126.92158 
L 564.496482 126.56615 
L 570.862898 124.326939 
L 571.352622 124.22031 
L 571.842346 123.900423 
L 573.801243 123.50945 
L 574.780692 123.118477 
L 577.719038 121.696756 
L 578.208762 121.62567 
L 579.677935 120.808181 
L 581.147107 120.310578 
L 584.575177 118.924401 
L 585.064902 118.782228 
L 585.554626 118.462341 
L 586.534074 118.355712 
L 587.023799 118.035825 
L 588.003247 117.85811 
L 588.982696 117.396051 
L 589.47242 117.182793 
L 589.962144 117.111707 
L 592.410766 116.152045 
L 593.879939 115.761072 
L 594.859387 115.512271 
L 596.32856 115.085755 
L 597.308008 114.694781 
L 599.266906 113.628491 
L 600.246354 113.237518 
L 600.736078 112.91763 
L 601.715527 112.704372 
L 602.205251 112.420028 
L 602.694975 112.313399 
L 604.164148 111.49591 
L 605.143597 111.104937 
L 607.102494 110.358533 
L 609.551115 109.541044 
L 610.530564 109.043441 
L 612.979185 108.225952 
L 615.917531 107.053032 
L 617.876428 106.164457 
L 622.773671 104.280677 
L 623.263395 103.96079 
L 625.222292 103.285472 
L 625.712016 103.285472 
L 626.691465 102.858956 
L 628.650362 101.295063 
L 629.140086 101.152891 
L 629.629811 100.833004 
L 630.119535 100.726375 
L 630.609259 100.477574 
L 631.098983 100.406488 
L 631.588708 100.051058 
L 632.078432 99.944429 
L 633.05788 99.340197 
L 634.527053 98.593794 
L 635.506502 98.202821 
L 635.996226 97.95402 
L 637.465399 97.634133 
L 639.91402 96.816643 
L 640.893469 96.496756 
L 642.362642 95.750353 
L 643.34209 95.288293 
L 644.321539 95.039492 
L 645.790712 94.364175 
L 650.19823 92.764739 
L 651.667403 91.876164 
L 652.157127 91.769535 
L 653.136576 91.271932 
L 654.116024 90.916502 
L 654.605749 90.489986 
L 655.585197 90.099013 
L 658.523543 88.926093 
L 659.992716 88.499577 
L 660.48244 88.250776 
L 660.972164 88.17969 
L 662.441337 87.646544 
L 663.91051 87.113399 
L 664.889958 86.722426 
L 665.379683 86.331453 
L 666.848855 85.94048 
L 667.33858 85.656135 
L 668.318028 85.407334 
L 669.787201 84.589845 
L 670.276925 84.554302 
L 671.746098 84.092243 
L 672.725547 84.021157 
L 673.704995 83.630183 
L 676.643341 82.777151 
L 677.622789 82.741608 
L 681.540584 81.497602 
L 682.520032 80.964457 
L 683.009756 80.537941 
L 684.478929 79.684908 
L 685.458378 79.080677 
L 688.396723 78.156559 
L 688.886448 77.765585 
L 691.824793 76.557123 
L 693.78369 76.023977 
L 694.763139 75.597461 
L 695.252863 75.34866 
L 696.232312 75.064316 
L 696.722036 74.779972 
L 697.701485 74.602257 
L 700.150106 73.46488 
L 700.63983 73.180536 
L 702.109003 72.825106 
L 702.598727 72.505219 
L 703.088452 72.327504 
L 703.578176 71.900987 
L 704.0679 71.829901 
L 706.516522 70.87024 
L 707.985694 70.550353 
L 708.475419 70.479267 
L 708.965143 70.266008 
L 709.454867 70.230465 
L 710.434316 69.910578 
L 710.92404 69.875035 
L 712.393213 69.306347 
L 714.35211 68.737659 
L 715.331559 67.955712 
L 717.290456 66.889422 
L 718.759628 66.391819 
L 721.697974 65.076728 
L 722.677423 64.543583 
L 723.167147 64.294781 
L 723.656871 63.832722 
L 726.595217 62.873061 
L 727.574665 62.482087 
L 728.554114 62.197743 
L 729.043838 61.948942 
L 729.533562 61.486883 
L 731.49246 60.989281 
L 731.982184 60.63385 
L 738.348599 58.323554 
L 739.328048 58.145839 
L 743.735566 56.617489 
L 744.715015 56.368688 
L 745.204739 56.15543 
L 745.694464 56.119887 
L 746.673912 55.8 
L 747.163636 55.8 
L 747.163636 55.8 
" clip-path="url(#p0f582b5553)" style="fill: none; stroke: #1f77b4; stroke-width: 1.5; stroke-linecap: square"/>
   </g>
   <g id="line2d_44">
    <path d="M 138.926088 307.8 
L 143.333606 307.693371 
L 147.251401 307.515656 
L 149.210298 307.515656 
L 149.700022 307.373484 
L 152.148643 307.266855 
L 155.086989 306.946968 
L 158.025335 306.840339 
L 159.004783 306.733709 
L 162.432853 306.591537 
L 165.860923 306.484908 
L 168.309544 306.413822 
L 174.67596 306.307193 
L 177.124581 306.236107 
L 180.552651 306.129478 
L 183.001273 306.058392 
L 188.38824 305.951763 
L 190.347137 305.774048 
L 192.306034 305.738505 
L 195.244379 305.631876 
L 197.203277 305.596333 
L 199.651898 305.525247 
L 201.610795 305.347532 
L 206.018313 305.240903 
L 206.997762 305.169817 
L 208.956659 305.063188 
L 211.895005 304.956559 
L 213.853902 304.849929 
L 222.668939 304.316784 
L 226.097009 304.210155 
L 227.566182 304.067983 
L 230.014803 303.961354 
L 234.912046 303.712553 
L 239.809288 303.641467 
L 241.768185 303.428209 
L 243.727083 303.32158 
L 249.11405 302.823977 
L 252.54212 302.433004 
L 254.011292 302.361918 
L 258.418811 301.828773 
L 260.867432 301.757687 
L 262.336605 301.615515 
L 263.805778 301.508886 
L 277.518057 300.478138 
L 278.497506 300.300423 
L 281.435852 300.193794 
L 289.27144 299.731735 
L 292.69951 299.625106 
L 294.658407 299.411848 
L 297.107028 299.305219 
L 300.045374 299.19859 
L 302.493995 299.091961 
L 304.452893 299.056417 
L 306.901514 298.985331 
L 307.880962 298.843159 
L 314.737102 298.73653 
L 315.716551 298.629901 
L 321.593242 298.523272 
L 326.000761 298.310014 
L 329.428831 298.203385 
L 331.387728 297.990127 
L 334.815798 297.883498 
L 335.795246 297.705783 
L 338.243867 297.634697 
L 343.14111 297.563611 
L 345.589732 297.31481 
L 348.528077 297.208181 
L 350.486974 297.030465 
L 355.384217 296.781664 
L 360.28146 296.675035 
L 364.688978 296.461777 
L 366.158151 296.426234 
L 367.1376 296.284062 
L 369.586221 296.177433 
L 370.56567 296.106347 
L 371.545118 296.035261 
L 372.524567 295.964175 
L 376.932085 295.893089 
L 378.401258 295.78646 
L 391.623813 294.933427 
L 394.072435 294.826798 
L 396.521056 294.755712 
L 403.377196 294.649083 
L 404.356644 294.506911 
L 411.212784 294.400282 
L 416.110027 294.151481 
L 417.089476 294.115938 
L 418.068924 294.009309 
L 420.517546 293.90268 
L 422.966167 293.831594 
L 425.414788 293.724965 
L 427.86341 293.653879 
L 432.270928 293.54725 
L 435.209274 293.440621 
L 442.065414 293.333992 
L 447.452381 293.049647 
L 449.411278 292.978561 
L 450.880451 292.871932 
L 457.73659 292.765303 
L 460.674936 292.658674 
L 469.489973 292.552045 
L 471.44887 292.516502 
L 477.325561 292.445416 
L 478.30501 292.37433 
L 485.16115 292.267701 
L 487.120047 292.232158 
L 499.852878 292.125529 
L 501.322051 291.983357 
L 523.359643 291.876728 
L 525.808264 291.805642 
L 538.541096 291.699013 
L 539.520544 291.627927 
L 541.969166 291.556841 
L 543.438338 291.414669 
L 546.376684 291.308039 
L 549.804754 291.165867 
L 554.212272 291.059238 
L 556.660894 290.988152 
L 560.088964 290.881523 
L 564.006758 290.703808 
L 566.455379 290.597179 
L 568.414276 290.561636 
L 572.821795 290.455007 
L 574.780692 290.419464 
L 581.147107 290.312835 
L 583.106005 290.277292 
L 585.554626 290.170663 
L 588.492972 290.064034 
L 591.921041 289.992948 
L 592.90049 289.921862 
L 604.653873 289.815233 
L 611.020288 289.459803 
L 613.46891 289.388717 
L 614.448358 289.282087 
L 615.427807 289.211001 
L 619.345601 289.104372 
L 622.283946 288.997743 
L 627.181189 288.891114 
L 629.629811 288.642313 
L 634.527053 288.535684 
L 635.506502 288.429055 
L 640.403745 288.322426 
L 642.852366 288.25134 
L 648.239333 288.215797 
L 649.218782 288.109168 
L 654.605749 288.002539 
L 655.585197 287.931453 
L 666.359131 287.824824 
L 669.297477 287.718195 
L 676.643341 287.611566 
L 678.602238 287.576023 
L 683.009756 287.504937 
L 683.989205 287.398307 
L 690.355621 287.291678 
L 692.804242 287.220592 
L 701.619279 287.113963 
L 703.088452 287.007334 
L 704.557625 286.900705 
L 706.026797 286.794076 
L 713.372661 286.687447 
L 716.800731 286.545275 
L 729.533562 286.438646 
L 733.941081 286.225388 
L 739.817772 286.118759 
L 740.797221 286.01213 
L 747.163636 285.905501 
L 747.163636 285.905501 
" clip-path="url(#p0f582b5553)" style="fill: none; stroke: #ff7f0e; stroke-width: 1.5; stroke-linecap: square"/>
   </g>
   <g id="patch_3">
    <path d="M 108 320.4 
L 108 43.2 
" style="fill: none; stroke: #a9a9a9; stroke-width: 0.8; stroke-linejoin: miter; stroke-linecap: square"/>
   </g>
   <g id="patch_4">
    <path d="M 777.6 320.4 
L 777.6 43.2 
" style="fill: none"/>
   </g>
   <g id="patch_5">
    <path d="M 108 320.4 
L 777.6 320.4 
" style="fill: none; stroke: #a9a9a9; stroke-width: 0.8; stroke-linejoin: miter; stroke-linecap: square"/>
   </g>
   <g id="patch_6">
    <path d="M 108 43.2 
L 777.6 43.2 
" style="fill: none"/>
   </g>
   <g id="text_22">
    <!-- get_subscribe history -->
    <g style="fill: #a9a9a9" transform="translate(378.6075 37.2) scale(0.12 -0.12)">
     <defs>
      <path id="DejaVuSans-67" d="M 2906 1791 
Q 2906 2416 2648 2759 
Q 2391 3103 1925 3103 
Q 1463 3103 1205 2759 
Q 947 2416 947 1791 
Q 947 1169 1205 825 
Q 1463 481 1925 481 
Q 2391 481 2648 825 
Q 2906 1169 2906 1791 
z
M 3481 434 
Q 3481 -459 3084 -895 
Q 2688 -1331 1869 -1331 
Q 1566 -1331 1297 -1286 
Q 1028 -1241 775 -1147 
L 775 -588 
Q 1028 -725 1275 -790 
Q 1522 -856 1778 -856 
Q 2344 -856 2625 -561 
Q 2906 -266 2906 331 
L 2906 616 
Q 2728 306 2450 153 
Q 2172 0 1784 0 
Q 1141 0 747 490 
Q 353 981 353 1791 
Q 353 2603 747 3093 
Q 1141 3584 1784 3584 
Q 2172 3584 2450 3431 
Q 2728 3278 2906 2969 
L 2906 3500 
L 3481 3500 
L 3481 434 
z
" transform="scale(0.015625)"/>
      <path id="DejaVuSans-65" d="M 3597 1894 
L 3597 1613 
L 953 1613 
Q 991 1019 1311 708 
Q 1631 397 2203 397 
Q 2534 397 2845 478 
Q 3156 559 3463 722 
L 3463 178 
Q 3153 47 2828 -22 
Q 2503 -91 2169 -91 
Q 1331 -91 842 396 
Q 353 884 353 1716 
Q 353 2575 817 3079 
Q 1281 3584 2069 3584 
Q 2775 3584 3186 3129 
Q 3597 2675 3597 1894 
z
M 3022 2063 
Q 3016 2534 2758 2815 
Q 2500 3097 2075 3097 
Q 1594 3097 1305 2825 
Q 1016 2553 972 2059 
L 3022 2063 
z
" transform="scale(0.015625)"/>
      <path id="DejaVuSans-74" d="M 1172 4494 
L 1172 3500 
L 2356 3500 
L 2356 3053 
L 1172 3053 
L 1172 1153 
Q 1172 725 1289 603 
Q 1406 481 1766 481 
L 2356 481 
L 2356 0 
L 1766 0 
Q 1100 0 847 248 
Q 594 497 594 1153 
L 594 3053 
L 172 3053 
L 172 3500 
L 594 3500 
L 594 4494 
L 1172 4494 
z
" transform="scale(0.015625)"/>
      <path id="DejaVuSans-5f" d="M 3263 -1063 
L 3263 -1509 
L -63 -1509 
L -63 -1063 
L 3263 -1063 
z
" transform="scale(0.015625)"/>
      <path id="DejaVuSans-73" d="M 2834 3397 
L 2834 2853 
Q 2591 2978 2328 3040 
Q 2066 3103 1784 3103 
Q 1356 3103 1142 2972 
Q 928 2841 928 2578 
Q 928 2378 1081 2264 
Q 1234 2150 1697 2047 
L 1894 2003 
Q 2506 1872 2764 1633 
Q 3022 1394 3022 966 
Q 3022 478 2636 193 
Q 2250 -91 1575 -91 
Q 1294 -91 989 -36 
Q 684 19 347 128 
L 347 722 
Q 666 556 975 473 
Q 1284 391 1588 391 
Q 1994 391 2212 530 
Q 2431 669 2431 922 
Q 2431 1156 2273 1281 
Q 2116 1406 1581 1522 
L 1381 1569 
Q 847 1681 609 1914 
Q 372 2147 372 2553 
Q 372 3047 722 3315 
Q 1072 3584 1716 3584 
Q 2034 3584 2315 3537 
Q 2597 3491 2834 3397 
z
" transform="scale(0.015625)"/>
      <path id="DejaVuSans-75" d="M 544 1381 
L 544 3500 
L 1119 3500 
L 1119 1403 
Q 1119 906 1312 657 
Q 1506 409 1894 409 
Q 2359 409 2629 706 
Q 2900 1003 2900 1516 
L 2900 3500 
L 3475 3500 
L 3475 0 
L 2900 0 
L 2900 538 
Q 2691 219 2414 64 
Q 2138 -91 1772 -91 
Q 1169 -91 856 284 
Q 544 659 544 1381 
z
M 1991 3584 
L 1991 3584 
z
" transform="scale(0.015625)"/>
      <path id="DejaVuSans-62" d="M 3116 1747 
Q 3116 2381 2855 2742 
Q 2594 3103 2138 3103 
Q 1681 3103 1420 2742 
Q 1159 2381 1159 1747 
Q 1159 1113 1420 752 
Q 1681 391 2138 391 
Q 2594 391 2855 752 
Q 3116 1113 3116 1747 
z
M 1159 2969 
Q 1341 3281 1617 3432 
Q 1894 3584 2278 3584 
Q 2916 3584 3314 3078 
Q 3713 2572 3713 1747 
Q 3713 922 3314 415 
Q 2916 -91 2278 -91 
Q 1894 -91 1617 61 
Q 1341 213 1159 525 
L 1159 0 
L 581 0 
L 581 4863 
L 1159 4863 
L 1159 2969 
z
" transform="scale(0.015625)"/>
      <path id="DejaVuSans-63" d="M 3122 3366 
L 3122 2828 
Q 2878 2963 2633 3030 
Q 2388 3097 2138 3097 
Q 1578 3097 1268 2742 
Q 959 2388 959 1747 
Q 959 1106 1268 751 
Q 1578 397 2138 397 
Q 2388 397 2633 464 
Q 2878 531 3122 666 
L 3122 134 
Q 2881 22 2623 -34 
Q 2366 -91 2075 -91 
Q 1284 -91 818 406 
Q 353 903 353 1747 
Q 353 2603 823 3093 
Q 1294 3584 2113 3584 
Q 2378 3584 2631 3529 
Q 2884 3475 3122 3366 
z
" transform="scale(0.015625)"/>
      <path id="DejaVuSans-72" d="M 2631 2963 
Q 2534 3019 2420 3045 
Q 2306 3072 2169 3072 
Q 1681 3072 1420 2755 
Q 1159 2438 1159 1844 
L 1159 0 
L 581 0 
L 581 3500 
L 1159 3500 
L 1159 2956 
Q 1341 3275 1631 3429 
Q 1922 3584 2338 3584 
Q 2397 3584 2469 3576 
Q 2541 3569 2628 3553 
L 2631 2963 
z
" transform="scale(0.015625)"/>
      <path id="DejaVuSans-69" d="M 603 3500 
L 1178 3500 
L 1178 0 
L 603 0 
L 603 3500 
z
M 603 4863 
L 1178 4863 
L 1178 4134 
L 603 4134 
L 603 4863 
z
" transform="scale(0.015625)"/>
      <path id="DejaVuSans-20" transform="scale(0.015625)"/>
      <path id="DejaVuSans-68" d="M 3513 2113 
L 3513 0 
L 2938 0 
L 2938 2094 
Q 2938 2591 2744 2837 
Q 2550 3084 2163 3084 
Q 1697 3084 1428 2787 
Q 1159 2491 1159 1978 
L 1159 0 
L 581 0 
L 581 4863 
L 1159 4863 
L 1159 2956 
Q 1366 3272 1645 3428 
Q 1925 3584 2291 3584 
Q 2894 3584 3203 3211 
Q 3513 2838 3513 2113 
z
" transform="scale(0.015625)"/>
      <path id="DejaVuSans-6f" d="M 1959 3097 
Q 1497 3097 1228 2736 
Q 959 2375 959 1747 
Q 959 1119 1226 758 
Q 1494 397 1959 397 
Q 2419 397 2687 759 
Q 2956 1122 2956 1747 
Q 2956 2369 2687 2733 
Q 2419 3097 1959 3097 
z
M 1959 3584 
Q 2709 3584 3137 3096 
Q 3566 2609 3566 1747 
Q 3566 888 3137 398 
Q 2709 -91 1959 -91 
Q 1206 -91 779 398 
Q 353 888 353 1747 
Q 353 2609 779 3096 
Q 1206 3584 1959 3584 
z
" transform="scale(0.015625)"/>
      <path id="DejaVuSans-79" d="M 2059 -325 
Q 1816 -950 1584 -1140 
Q 1353 -1331 966 -1331 
L 506 -1331 
L 506 -850 
L 844 -850 
Q 1081 -850 1212 -737 
Q 1344 -625 1503 -206 
L 1606 56 
L 191 3500 
L 800 3500 
L 1894 763 
L 2988 3500 
L 3597 3500 
L 2059 -325 
z
" transform="scale(0.015625)"/>
     </defs>
     <use xlink:href="#DejaVuSans-67"/>
     <use xlink:href="#DejaVuSans-65" transform="translate(63.476562 0)"/>
     <use xlink:href="#DejaVuSans-74" transform="translate(125 0)"/>
     <use xlink:href="#DejaVuSans-5f" transform="translate(164.208984 0)"/>
     <use xlink:href="#DejaVuSans-73" transform="translate(214.208984 0)"/>
     <use xlink:href="#DejaVuSans-75" transform="translate(266.308594 0)"/>
     <use xlink:href="#DejaVuSans-62" transform="translate(329.6875 0)"/>
     <use xlink:href="#DejaVuSans-73" transform="translate(393.164062 0)"/>
     <use xlink:href="#DejaVuSans-63" transform="translate(445.263672 0)"/>
     <use xlink:href="#DejaVuSans-72" transform="translate(500.244141 0)"/>
     <use xlink:href="#DejaVuSans-69" transform="translate(541.357422 0)"/>
     <use xlink:href="#DejaVuSans-62" transform="translate(569.140625 0)"/>
     <use xlink:href="#DejaVuSans-65" transform="translate(632.617188 0)"/>
     <use xlink:href="#DejaVuSans-20" transform="translate(694.140625 0)"/>
     <use xlink:href="#DejaVuSans-68" transform="translate(725.927734 0)"/>
     <use xlink:href="#DejaVuSans-69" transform="translate(789.306641 0)"/>
     <use xlink:href="#DejaVuSans-73" transform="translate(817.089844 0)"/>
     <use xlink:href="#DejaVuSans-74" transform="translate(869.189453 0)"/>
     <use xlink:href="#DejaVuSans-6f" transform="translate(908.398438 0)"/>
     <use xlink:href="#DejaVuSans-72" transform="translate(969.580078 0)"/>
     <use xlink:href="#DejaVuSans-79" transform="translate(1010.693359 0)"/>
    </g>
   </g>
   <g id="legend_1">
    <g id="line2d_45">
     <path d="M 815.08 328.498438 
L 825.08 328.498438 
L 835.08 328.498438 
" style="fill: none; stroke: #1f77b4; stroke-width: 1.5; stroke-linecap: square"/>
    </g>
    <g id="text_23">
     <!-- star -->
     <g style="fill: #a9a9a9" transform="translate(843.08 331.998438) scale(0.1 -0.1)">
      <defs>
       <path id="DejaVuSans-61" d="M 2194 1759 
Q 1497 1759 1228 1600 
Q 959 1441 959 1056 
Q 959 750 1161 570 
Q 1363 391 1709 391 
Q 2188 391 2477 730 
Q 2766 1069 2766 1631 
L 2766 1759 
L 2194 1759 
z
M 3341 1997 
L 3341 0 
L 2766 0 
L 2766 531 
Q 2569 213 2275 61 
Q 1981 -91 1556 -91 
Q 1019 -91 701 211 
Q 384 513 384 1019 
Q 384 1609 779 1909 
Q 1175 2209 1959 2209 
L 2766 2209 
L 2766 2266 
Q 2766 2663 2505 2880 
Q 2244 3097 1772 3097 
Q 1472 3097 1187 3025 
Q 903 2953 641 2809 
L 641 3341 
Q 956 3463 1253 3523 
Q 1550 3584 1831 3584 
Q 2591 3584 2966 3190 
Q 3341 2797 3341 1997 
z
" transform="scale(0.015625)"/>
      </defs>
      <use xlink:href="#DejaVuSans-73"/>
      <use xlink:href="#DejaVuSans-74" transform="translate(52.099609 0)"/>
      <use xlink:href="#DejaVuSans-61" transform="translate(91.308594 0)"/>
      <use xlink:href="#DejaVuSans-72" transform="translate(152.587891 0)"/>
     </g>
    </g>
    <g id="line2d_46">
     <path d="M 815.08 343.176562 
L 825.08 343.176562 
L 835.08 343.176562 
" style="fill: none; stroke: #ff7f0e; stroke-width: 1.5; stroke-linecap: square"/>
    </g>
    <g id="text_24">
     <!-- fork -->
     <g style="fill: #a9a9a9" transform="translate(843.08 346.676562) scale(0.1 -0.1)">
      <defs>
       <path id="DejaVuSans-66" d="M 2375 4863 
L 2375 4384 
L 1825 4384 
Q 1516 4384 1395 4259 
Q 1275 4134 1275 3809 
L 1275 3500 
L 2222 3500 
L 2222 3053 
L 1275 3053 
L 1275 0 
L 697 0 
L 697 3053 
L 147 3053 
L 147 3500 
L 697 3500 
L 697 3744 
Q 697 4328 969 4595 
Q 1241 4863 1831 4863 
L 2375 4863 
z
" transform="scale(0.015625)"/>
       <path id="DejaVuSans-6b" d="M 581 4863 
L 1159 4863 
L 1159 1991 
L 2875 3500 
L 3609 3500 
L 1753 1863 
L 3688 0 
L 2938 0 
L 1159 1709 
L 1159 0 
L 581 0 
L 581 4863 
z
" transform="scale(0.015625)"/>
      </defs>
      <use xlink:href="#DejaVuSans-66"/>
      <use xlink:href="#DejaVuSans-6f" transform="translate(35.205078 0)"/>
      <use xlink:href="#DejaVuSans-72" transform="translate(96.386719 0)"/>
      <use xlink:href="#DejaVuSans-6b" transform="translate(137.5 0)"/>
     </g>
    </g>
   </g>
  </g>
 </g>
 <defs>
  <clipPath id="p0f582b5553">
   <rect x="108" y="43.2" width="669.6" height="277.2"/>
  </clipPath>
 </defs>
</svg>
